<svg xmlns="http://www.w3.org/2000/svg" xmlns:xlink="http://www.w3.org/1999/xlink" width="600" zoomAndPan="magnify" viewBox="0 0 450 599.999999" height="800" preserveAspectRatio="xMidYMid meet" version="1.0"><defs><g/></defs><path fill="#e5efef" d="M 378.378906 359.910156 C 378.378906 361.769531 378.332031 363.632812 378.242188 365.492188 C 378.148438 367.351562 378.011719 369.207031 377.828125 371.0625 C 377.648438 372.914062 377.417969 374.761719 377.144531 376.605469 C 376.871094 378.445312 376.554688 380.28125 376.191406 382.105469 C 375.828125 383.933594 375.421875 385.75 374.96875 387.554688 C 374.515625 389.363281 374.019531 391.15625 373.476562 392.9375 C 372.9375 394.71875 372.355469 396.488281 371.726562 398.238281 C 371.097656 399.992188 370.429688 401.730469 369.714844 403.449219 C 369.003906 405.171875 368.25 406.871094 367.453125 408.554688 C 366.65625 410.238281 365.820312 411.902344 364.941406 413.542969 C 364.066406 415.1875 363.148438 416.804688 362.191406 418.402344 C 361.230469 420 360.238281 421.574219 359.203125 423.121094 C 358.167969 424.671875 357.09375 426.191406 355.984375 427.6875 C 354.875 429.183594 353.730469 430.652344 352.550781 432.089844 C 351.367188 433.53125 350.152344 434.941406 348.902344 436.320312 C 347.652344 437.699219 346.367188 439.046875 345.050781 440.363281 C 343.734375 441.679688 342.386719 442.964844 341.007812 444.214844 C 339.628906 445.464844 338.21875 446.679688 336.777344 447.863281 C 335.339844 449.042969 333.871094 450.1875 332.375 451.296875 C 330.878906 452.40625 329.359375 453.480469 327.808594 454.515625 C 326.261719 455.546875 324.6875 456.542969 323.089844 457.5 C 321.496094 458.460938 319.875 459.375 318.230469 460.253906 C 316.589844 461.132812 314.925781 461.96875 313.242188 462.765625 C 311.5625 463.5625 309.859375 464.316406 308.136719 465.027344 C 306.417969 465.742188 304.679688 466.410156 302.929688 467.039062 C 301.175781 467.664062 299.40625 468.25 297.625 468.789062 C 295.84375 469.332031 294.050781 469.828125 292.242188 470.28125 C 290.4375 470.730469 288.621094 471.140625 286.792969 471.503906 C 284.96875 471.867188 283.132812 472.183594 281.292969 472.457031 C 279.449219 472.730469 277.601562 472.960938 275.75 473.140625 C 273.894531 473.324219 272.039062 473.460938 270.179688 473.554688 C 268.320312 473.644531 266.457031 473.691406 264.597656 473.691406 C 262.734375 473.691406 260.871094 473.644531 259.011719 473.554688 C 257.152344 473.460938 255.296875 473.324219 253.445312 473.140625 C 251.589844 472.960938 249.742188 472.730469 247.902344 472.457031 C 246.058594 472.183594 244.226562 471.867188 242.398438 471.503906 C 240.570312 471.140625 238.753906 470.730469 236.949219 470.28125 C 235.144531 469.828125 233.347656 469.332031 231.566406 468.789062 C 229.785156 468.25 228.019531 467.664062 226.265625 467.039062 C 224.511719 466.410156 222.773438 465.742188 221.054688 465.027344 C 219.332031 464.316406 217.632812 463.5625 215.949219 462.765625 C 214.265625 461.96875 212.601562 461.132812 210.960938 460.253906 C 209.316406 459.375 207.699219 458.460938 206.101562 457.5 C 204.503906 456.542969 202.929688 455.546875 201.382812 454.515625 C 199.835938 453.480469 198.3125 452.40625 196.816406 451.296875 C 195.320312 450.1875 193.851562 449.042969 192.414062 447.863281 C 190.972656 446.679688 189.566406 445.464844 188.183594 444.214844 C 186.804688 442.964844 185.457031 441.679688 184.140625 440.363281 C 182.824219 439.046875 181.539062 437.699219 180.289062 436.320312 C 179.039062 434.941406 177.824219 433.53125 176.640625 432.089844 C 175.460938 430.652344 174.316406 429.183594 173.207031 427.6875 C 172.097656 426.191406 171.023438 424.671875 169.992188 423.121094 C 168.957031 421.574219 167.960938 420 167.003906 418.402344 C 166.046875 416.804688 165.128906 415.1875 164.25 413.542969 C 163.371094 411.902344 162.535156 410.238281 161.738281 408.554688 C 160.941406 406.871094 160.1875 405.171875 159.476562 403.449219 C 158.761719 401.730469 158.09375 399.992188 157.464844 398.238281 C 156.839844 396.488281 156.253906 394.71875 155.714844 392.9375 C 155.171875 391.15625 154.675781 389.363281 154.222656 387.554688 C 153.773438 385.75 153.363281 383.933594 153 382.105469 C 152.636719 380.28125 152.320312 378.445312 152.046875 376.605469 C 151.773438 374.761719 151.546875 372.914062 151.363281 371.0625 C 151.179688 369.207031 151.042969 367.351562 150.953125 365.492188 C 150.859375 363.632812 150.816406 361.769531 150.816406 359.910156 C 150.816406 358.046875 150.859375 356.183594 150.953125 354.324219 C 151.042969 352.464844 151.179688 350.609375 151.363281 348.757812 C 151.546875 346.902344 151.773438 345.054688 152.046875 343.214844 C 152.320312 341.371094 152.636719 339.535156 153 337.710938 C 153.363281 335.882812 153.773438 334.066406 154.222656 332.261719 C 154.675781 330.457031 155.171875 328.660156 155.714844 326.878906 C 156.253906 325.097656 156.839844 323.328125 157.464844 321.578125 C 158.09375 319.824219 158.761719 318.085938 159.476562 316.367188 C 160.1875 314.644531 160.941406 312.945312 161.738281 311.261719 C 162.535156 309.578125 163.371094 307.914062 164.25 306.273438 C 165.128906 304.628906 166.046875 303.011719 167.003906 301.414062 C 167.960938 299.816406 168.957031 298.242188 169.992188 296.695312 C 171.023438 295.148438 172.097656 293.625 173.207031 292.128906 C 174.316406 290.632812 175.460938 289.164062 176.640625 287.726562 C 177.824219 286.285156 179.039062 284.878906 180.289062 283.496094 C 181.539062 282.117188 182.824219 280.769531 184.140625 279.453125 C 185.457031 278.136719 186.804688 276.851562 188.183594 275.601562 C 189.566406 274.351562 190.972656 273.136719 192.414062 271.953125 C 193.851562 270.773438 195.320312 269.628906 196.816406 268.519531 C 198.3125 267.410156 199.835938 266.335938 201.382812 265.300781 C 202.929688 264.269531 204.503906 263.273438 206.101562 262.316406 C 207.699219 261.359375 209.316406 260.441406 210.960938 259.5625 C 212.601562 258.683594 214.265625 257.847656 215.949219 257.050781 C 217.632812 256.253906 219.332031 255.5 221.054688 254.789062 C 222.773438 254.074219 224.511719 253.40625 226.265625 252.777344 C 228.019531 252.152344 229.785156 251.566406 231.566406 251.027344 C 233.347656 250.484375 235.144531 249.988281 236.949219 249.535156 C 238.753906 249.085938 240.570312 248.675781 242.398438 248.3125 C 244.226562 247.949219 246.058594 247.632812 247.902344 247.359375 C 249.742188 247.085938 251.589844 246.855469 253.445312 246.675781 C 255.296875 246.492188 257.152344 246.355469 259.011719 246.265625 C 260.871094 246.171875 262.734375 246.128906 264.597656 246.128906 C 266.457031 246.128906 268.320312 246.171875 270.179688 246.265625 C 272.039062 246.355469 273.894531 246.492188 275.75 246.675781 C 277.601562 246.855469 279.449219 247.085938 281.292969 247.359375 C 283.132812 247.632812 284.96875 247.949219 286.792969 248.3125 C 288.621094 248.675781 290.4375 249.085938 292.242188 249.535156 C 294.050781 249.988281 295.84375 250.484375 297.625 251.027344 C 299.40625 251.566406 301.175781 252.152344 302.929688 252.777344 C 304.679688 253.40625 306.417969 254.074219 308.136719 254.789062 C 309.859375 255.5 311.5625 256.253906 313.242188 257.050781 C 314.925781 257.847656 316.589844 258.683594 318.230469 259.5625 C 319.875 260.441406 321.496094 261.359375 323.089844 262.316406 C 324.6875 263.273438 326.261719 264.269531 327.808594 265.300781 C 329.359375 266.335938 330.878906 267.410156 332.375 268.519531 C 333.871094 269.628906 335.339844 270.773438 336.777344 271.953125 C 338.21875 273.136719 339.628906 274.351562 341.007812 275.601562 C 342.386719 276.851562 343.734375 278.136719 345.050781 279.453125 C 346.367188 280.769531 347.652344 282.117188 348.902344 283.496094 C 350.152344 284.878906 351.367188 286.285156 352.550781 287.726562 C 353.730469 289.164062 354.875 290.632812 355.984375 292.128906 C 357.09375 293.625 358.167969 295.148438 359.203125 296.695312 C 360.238281 298.242188 361.230469 299.816406 362.191406 301.414062 C 363.148438 303.011719 364.066406 304.628906 364.941406 306.273438 C 365.820312 307.914062 366.65625 309.578125 367.453125 311.261719 C 368.25 312.945312 369.003906 314.644531 369.714844 316.367188 C 370.429688 318.085938 371.097656 319.824219 371.726562 321.578125 C 372.355469 323.328125 372.9375 325.097656 373.476562 326.878906 C 374.019531 328.660156 374.515625 330.457031 374.96875 332.261719 C 375.421875 334.066406 375.828125 335.882812 376.191406 337.710938 C 376.554688 339.535156 376.871094 341.371094 377.144531 343.214844 C 377.417969 345.054688 377.648438 346.902344 377.828125 348.757812 C 378.011719 350.609375 378.148438 352.464844 378.242188 354.324219 C 378.332031 356.183594 378.378906 358.046875 378.378906 359.910156 Z M 378.378906 359.910156 " fill-opacity="1" fill-rule="nonzero"/><path fill="#4c241d" d="M 320.640625 265.988281 C 320.640625 266.359375 320.605469 266.726562 320.53125 267.09375 C 320.457031 267.457031 320.351562 267.808594 320.210938 268.152344 C 320.066406 268.496094 319.894531 268.824219 319.6875 269.132812 C 319.480469 269.441406 319.246094 269.726562 318.984375 269.988281 C 318.71875 270.25 318.433594 270.484375 318.125 270.691406 C 317.816406 270.898438 317.492188 271.074219 317.148438 271.214844 C 316.804688 271.355469 316.449219 271.464844 316.085938 271.535156 C 315.722656 271.609375 315.355469 271.644531 314.984375 271.644531 C 314.609375 271.644531 314.242188 271.609375 313.878906 271.535156 C 313.515625 271.464844 313.160156 271.355469 312.816406 271.214844 C 312.476562 271.074219 312.148438 270.898438 311.839844 270.691406 C 311.53125 270.484375 311.246094 270.25 310.984375 269.988281 C 310.71875 269.726562 310.484375 269.441406 310.277344 269.132812 C 310.074219 268.824219 309.898438 268.496094 309.757812 268.152344 C 309.613281 267.808594 309.507812 267.457031 309.433594 267.09375 C 309.363281 266.726562 309.324219 266.359375 309.324219 265.988281 C 309.324219 265.617188 309.363281 265.25 309.433594 264.882812 C 309.507812 264.519531 309.613281 264.167969 309.757812 263.824219 C 309.898438 263.480469 310.074219 263.152344 310.277344 262.84375 C 310.484375 262.535156 310.71875 262.25 310.984375 261.988281 C 311.246094 261.726562 311.53125 261.492188 311.839844 261.285156 C 312.148438 261.078125 312.476562 260.902344 312.816406 260.761719 C 313.160156 260.621094 313.515625 260.511719 313.878906 260.441406 C 314.242188 260.367188 314.609375 260.332031 314.984375 260.332031 C 315.355469 260.332031 315.722656 260.367188 316.085938 260.441406 C 316.449219 260.511719 316.804688 260.621094 317.148438 260.761719 C 317.492188 260.902344 317.816406 261.078125 318.125 261.285156 C 318.433594 261.492188 318.71875 261.726562 318.984375 261.988281 C 319.246094 262.25 319.480469 262.535156 319.6875 262.84375 C 319.894531 263.152344 320.066406 263.480469 320.210938 263.824219 C 320.351562 264.167969 320.457031 264.519531 320.53125 264.882812 C 320.605469 265.25 320.640625 265.617188 320.640625 265.988281 Z M 320.640625 265.988281 " fill-opacity="1" fill-rule="nonzero"/><path fill="#4c241d" d="M 231.058594 274.371094 C 229.707031 274.371094 228.351562 273.851562 227.316406 272.820312 C 225.25 270.753906 225.25 267.402344 227.316406 265.335938 L 246.761719 245.894531 C 248.828125 243.828125 252.175781 243.828125 254.242188 245.894531 C 256.308594 247.960938 256.308594 251.3125 254.242188 253.378906 L 234.800781 272.820312 C 233.769531 273.855469 232.414062 274.371094 231.058594 274.371094 Z M 231.058594 274.371094 " fill-opacity="1" fill-rule="nonzero"/><path fill="#4c241d" d="M 250.503906 274.371094 C 249.148438 274.371094 247.792969 273.851562 246.761719 272.820312 L 227.320312 253.378906 C 225.253906 251.3125 225.253906 247.960938 227.320312 245.894531 C 229.386719 243.828125 232.734375 243.828125 234.800781 245.894531 L 254.246094 265.335938 C 256.3125 267.402344 256.3125 270.753906 254.246094 272.820312 C 253.210938 273.855469 251.855469 274.371094 250.503906 274.371094 Z M 250.503906 274.371094 " fill-opacity="1" fill-rule="nonzero"/><path fill="#bf7e68" d="M 330.75 553.070312 L 87.308594 553.070312 C 81.464844 553.070312 76.722656 548.332031 76.722656 542.488281 L 76.722656 314.925781 C 76.722656 309.078125 81.464844 304.339844 87.308594 304.339844 L 330.75 304.339844 C 336.59375 304.339844 341.332031 309.078125 341.332031 314.925781 L 341.332031 542.488281 C 341.332031 548.332031 336.59375 553.070312 330.75 553.070312 Z M 330.75 553.070312 " fill-opacity="1" fill-rule="nonzero"/><path fill="#4c241d" d="M 330.75 558.363281 L 87.308594 558.363281 C 78.554688 558.363281 71.433594 551.242188 71.433594 542.488281 L 71.433594 314.925781 C 71.433594 306.171875 78.554688 299.046875 87.308594 299.046875 L 330.75 299.046875 C 339.503906 299.046875 346.625 306.171875 346.625 314.925781 L 346.625 542.488281 C 346.625 551.242188 339.503906 558.363281 330.75 558.363281 Z M 87.308594 309.632812 C 84.390625 309.632812 82.015625 312.003906 82.015625 314.925781 L 82.015625 542.488281 C 82.015625 545.40625 84.390625 547.78125 87.308594 547.78125 L 330.75 547.78125 C 333.667969 547.78125 336.039062 545.40625 336.039062 542.488281 L 336.039062 314.925781 C 336.039062 312.003906 333.667969 309.632812 330.75 309.632812 Z M 87.308594 309.632812 " fill-opacity="1" fill-rule="nonzero"/><path fill="#6b4f5b" d="M 97.894531 325.507812 L 320.164062 325.507812 L 320.164062 531.902344 L 97.894531 531.902344 Z M 97.894531 325.507812 " fill-opacity="1" fill-rule="nonzero"/><path fill="#4c241d" d="M 320.164062 537.195312 L 97.894531 537.195312 C 94.96875 537.195312 92.601562 534.828125 92.601562 531.902344 L 92.601562 325.507812 C 92.601562 322.585938 94.96875 320.21875 97.894531 320.21875 L 320.164062 320.21875 C 323.089844 320.21875 325.457031 322.585938 325.457031 325.507812 L 325.457031 531.902344 C 325.457031 534.828125 323.089844 537.195312 320.164062 537.195312 Z M 103.183594 526.613281 L 314.871094 526.613281 L 314.871094 330.800781 L 103.183594 330.800781 Z M 103.183594 526.613281 " fill-opacity="1" fill-rule="nonzero"/><path fill="#bf7e68" d="M 97.894531 420.769531 L 320.164062 420.769531 L 320.164062 441.9375 L 97.894531 441.9375 Z M 97.894531 420.769531 " fill-opacity="1" fill-rule="nonzero"/><path fill="#4c241d" d="M 320.164062 447.230469 L 97.894531 447.230469 C 94.96875 447.230469 92.601562 444.863281 92.601562 441.9375 L 92.601562 420.769531 C 92.601562 417.84375 94.96875 415.476562 97.894531 415.476562 L 320.164062 415.476562 C 323.089844 415.476562 325.457031 417.84375 325.457031 420.769531 L 325.457031 441.9375 C 325.457031 444.863281 323.089844 447.230469 320.164062 447.230469 Z M 103.183594 436.644531 L 314.871094 436.644531 L 314.871094 426.058594 L 103.183594 426.058594 Z M 103.183594 436.644531 " fill-opacity="1" fill-rule="nonzero"/><path fill="#f4aeab" d="M 124.355469 351.96875 L 145.523438 351.96875 L 145.523438 420.769531 L 124.355469 420.769531 Z M 124.355469 351.96875 " fill-opacity="1" fill-rule="nonzero"/><path fill="#4c241d" d="M 145.523438 426.058594 L 124.355469 426.058594 C 121.429688 426.058594 119.0625 423.695312 119.0625 420.769531 L 119.0625 351.96875 C 119.0625 349.042969 121.429688 346.679688 124.355469 346.679688 L 145.523438 346.679688 C 148.449219 346.679688 150.816406 349.042969 150.816406 351.96875 L 150.816406 420.769531 C 150.816406 423.695312 148.449219 426.058594 145.523438 426.058594 Z M 129.644531 415.476562 L 140.230469 415.476562 L 140.230469 357.261719 L 129.644531 357.261719 Z M 129.644531 415.476562 " fill-opacity="1" fill-rule="nonzero"/><path fill="#f4aeab" d="M 296.625 335.46875 L 315.589844 344.867188 L 280.34375 415.996094 L 261.378906 406.597656 Z M 296.625 335.46875 " fill-opacity="1" fill-rule="nonzero"/><path fill="#4c241d" d="M 280.253906 421.335938 C 279.464844 421.335938 278.664062 421.160156 277.910156 420.785156 L 258.941406 411.382812 C 257.6875 410.761719 256.726562 409.664062 256.28125 408.335938 C 255.832031 407.007812 255.929688 405.550781 256.554688 404.292969 L 291.820312 333.171875 C 293.117188 330.558594 296.304688 329.476562 298.910156 330.785156 L 317.878906 340.1875 C 319.132812 340.804688 320.097656 341.90625 320.539062 343.234375 C 320.992188 344.5625 320.894531 346.019531 320.265625 347.277344 L 285 418.394531 C 284.082031 420.257812 282.203125 421.335938 280.253906 421.335938 Z M 268.382812 404.25 L 277.867188 408.953125 L 308.4375 347.316406 L 298.953125 342.613281 Z M 268.382812 404.25 " fill-opacity="1" fill-rule="nonzero"/><path fill="#f4aeab" d="M 161.398438 463.105469 L 182.566406 463.105469 L 182.566406 531.902344 L 161.398438 531.902344 Z M 161.398438 463.105469 " fill-opacity="1" fill-rule="nonzero"/><path fill="#4c241d" d="M 182.566406 537.195312 L 161.398438 537.195312 C 158.472656 537.195312 156.105469 534.828125 156.105469 531.902344 L 156.105469 463.105469 C 156.105469 460.179688 158.472656 457.8125 161.398438 457.8125 L 182.566406 457.8125 C 185.492188 457.8125 187.859375 460.179688 187.859375 463.105469 L 187.859375 531.902344 C 187.859375 534.828125 185.492188 537.195312 182.566406 537.195312 Z M 166.691406 526.613281 L 177.277344 526.613281 L 177.277344 468.398438 L 166.691406 468.398438 Z M 166.691406 526.613281 " fill-opacity="1" fill-rule="nonzero"/><path fill="#ffce56" d="M 167.324219 356.769531 L 189.691406 349.605469 L 209.070312 410.109375 L 186.703125 417.273438 Z M 167.324219 356.769531 " fill-opacity="1" fill-rule="nonzero"/><path fill="#4c241d" d="M 186.65625 422.632812 C 184.414062 422.632812 182.335938 421.203125 181.617188 418.953125 L 162.257812 358.445312 C 161.828125 357.109375 161.945312 355.65625 162.59375 354.410156 C 163.234375 353.164062 164.34375 352.21875 165.683594 351.792969 L 188.054688 344.636719 C 190.863281 343.738281 193.816406 345.28125 194.707031 348.0625 L 214.066406 408.570312 C 214.496094 409.910156 214.375 411.363281 213.730469 412.609375 C 213.089844 413.851562 211.980469 414.796875 210.640625 415.222656 L 188.265625 422.382812 C 187.730469 422.550781 187.1875 422.632812 186.65625 422.632812 Z M 173.945312 360.257812 L 190.082031 410.6875 L 202.375 406.757812 L 186.242188 356.324219 Z M 173.945312 360.257812 " fill-opacity="1" fill-rule="nonzero"/><path fill="#e66353" d="M 98.566406 467.914062 L 120.933594 460.75 L 140.3125 521.253906 L 117.945312 528.417969 Z M 98.566406 467.914062 " fill-opacity="1" fill-rule="nonzero"/><path fill="#4c241d" d="M 117.859375 533.769531 C 115.617188 533.769531 113.535156 532.335938 112.816406 530.089844 L 93.457031 469.582031 C 93.03125 468.242188 93.148438 466.792969 93.792969 465.546875 C 94.433594 464.300781 95.546875 463.355469 96.886719 462.929688 L 119.257812 455.773438 C 122.058594 454.882812 125.019531 456.417969 125.910156 459.199219 L 145.269531 519.707031 C 145.695312 521.046875 145.578125 522.496094 144.933594 523.742188 C 144.292969 524.988281 143.179688 525.933594 141.84375 526.359375 L 119.46875 533.515625 C 118.933594 533.6875 118.390625 533.769531 117.859375 533.769531 Z M 105.148438 471.394531 L 121.28125 521.824219 L 133.578125 517.890625 L 117.445312 467.460938 Z M 105.148438 471.394531 " fill-opacity="1" fill-rule="nonzero"/><path fill="#a9ba5a" d="M 145.523438 341.386719 L 166.691406 341.386719 L 166.691406 420.769531 L 145.523438 420.769531 Z M 145.523438 341.386719 " fill-opacity="1" fill-rule="nonzero"/><path fill="#4c241d" d="M 166.691406 426.058594 L 145.523438 426.058594 C 142.597656 426.058594 140.230469 423.695312 140.230469 420.769531 L 140.230469 341.386719 C 140.230469 338.460938 142.597656 336.09375 145.523438 336.09375 L 166.691406 336.09375 C 169.617188 336.09375 171.984375 338.460938 171.984375 341.386719 L 171.984375 420.769531 C 171.984375 423.695312 169.617188 426.058594 166.691406 426.058594 Z M 150.816406 415.476562 L 161.398438 415.476562 L 161.398438 346.679688 L 150.816406 346.679688 Z M 150.816406 415.476562 " fill-opacity="1" fill-rule="nonzero"/><path fill="#9dc1e4" d="M 230.195312 468.398438 L 251.367188 468.398438 L 251.367188 531.902344 L 230.195312 531.902344 Z M 230.195312 468.398438 " fill-opacity="1" fill-rule="nonzero"/><path fill="#4c241d" d="M 251.367188 537.195312 L 230.195312 537.195312 C 227.273438 537.195312 224.90625 534.828125 224.90625 531.902344 L 224.90625 468.398438 C 224.90625 465.472656 227.273438 463.105469 230.195312 463.105469 L 251.367188 463.105469 C 254.289062 463.105469 256.65625 465.472656 256.65625 468.398438 L 256.65625 531.902344 C 256.65625 534.828125 254.289062 537.195312 251.367188 537.195312 Z M 235.488281 526.613281 L 246.074219 526.613281 L 246.074219 473.691406 L 235.488281 473.691406 Z M 235.488281 526.613281 " fill-opacity="1" fill-rule="nonzero"/><path fill="#9dc1e4" d="M 182.566406 468.398438 L 203.734375 468.398438 L 203.734375 531.902344 L 182.566406 531.902344 Z M 182.566406 468.398438 " fill-opacity="1" fill-rule="nonzero"/><path fill="#4c241d" d="M 203.734375 537.195312 L 182.566406 537.195312 C 179.640625 537.195312 177.277344 534.828125 177.277344 531.902344 L 177.277344 468.398438 C 177.277344 465.472656 179.640625 463.105469 182.566406 463.105469 L 203.734375 463.105469 C 206.660156 463.105469 209.027344 465.472656 209.027344 468.398438 L 209.027344 531.902344 C 209.027344 534.828125 206.660156 537.195312 203.734375 537.195312 Z M 187.859375 526.613281 L 198.445312 526.613281 L 198.445312 473.691406 L 187.859375 473.691406 Z M 187.859375 526.613281 " fill-opacity="1" fill-rule="nonzero"/><path fill="#bd53b5" d="M 140.230469 441.9375 L 161.398438 441.9375 L 161.398438 531.902344 L 140.230469 531.902344 Z M 140.230469 441.9375 " fill-opacity="1" fill-rule="nonzero"/><path fill="#4c241d" d="M 161.398438 537.195312 L 140.230469 537.195312 C 137.304688 537.195312 134.9375 534.828125 134.9375 531.902344 L 134.9375 441.9375 C 134.9375 439.011719 137.304688 436.644531 140.230469 436.644531 L 161.398438 436.644531 C 164.324219 436.644531 166.691406 439.011719 166.691406 441.9375 L 166.691406 531.902344 C 166.691406 534.828125 164.324219 537.195312 161.398438 537.195312 Z M 145.523438 526.613281 L 156.105469 526.613281 L 156.105469 447.230469 L 145.523438 447.230469 Z M 145.523438 526.613281 " fill-opacity="1" fill-rule="nonzero"/><path fill="#9dc1e4" d="M 251.367188 463.105469 L 283.117188 463.105469 L 283.117188 531.902344 L 251.367188 531.902344 Z M 251.367188 463.105469 " fill-opacity="1" fill-rule="nonzero"/><path fill="#4c241d" d="M 283.117188 537.195312 L 251.367188 537.195312 C 248.441406 537.195312 246.074219 534.828125 246.074219 531.902344 L 246.074219 463.105469 C 246.074219 460.179688 248.441406 457.8125 251.367188 457.8125 L 283.117188 457.8125 C 286.042969 457.8125 288.410156 460.179688 288.410156 463.105469 L 288.410156 531.902344 C 288.410156 534.828125 286.042969 537.195312 283.117188 537.195312 Z M 256.65625 526.613281 L 277.828125 526.613281 L 277.828125 468.398438 L 256.65625 468.398438 Z M 256.65625 526.613281 " fill-opacity="1" fill-rule="nonzero"/><g fill="#222220" fill-opacity="1"><g transform="translate(102.099123, 94.168925)"><g><path d="M 19.75 0.65625 C 13.382812 0.65625 8.785156 -0.921875 5.953125 -4.078125 C 3.128906 -7.234375 1.71875 -12.320312 1.71875 -19.34375 L 1.71875 -26.203125 L 15.515625 -26.203125 L 15.515625 -17.46875 C 15.515625 -13.988281 16.628906 -12.25 18.859375 -12.25 C 20.109375 -12.25 20.976562 -12.613281 21.46875 -13.34375 C 21.957031 -14.082031 22.203125 -15.320312 22.203125 -17.0625 C 22.203125 -19.34375 21.929688 -21.234375 21.390625 -22.734375 C 20.847656 -24.234375 20.15625 -25.484375 19.3125 -26.484375 C 18.46875 -27.492188 16.957031 -29.0625 14.78125 -31.1875 L 8.734375 -37.234375 C 4.054688 -41.804688 1.71875 -46.863281 1.71875 -52.40625 C 1.71875 -58.394531 3.085938 -62.953125 5.828125 -66.078125 C 8.578125 -69.210938 12.59375 -70.78125 17.875 -70.78125 C 24.1875 -70.78125 28.726562 -69.101562 31.5 -65.75 C 34.28125 -62.40625 35.671875 -57.171875 35.671875 -50.046875 L 21.390625 -50.046875 L 21.3125 -54.859375 C 21.3125 -55.785156 21.050781 -56.519531 20.53125 -57.0625 C 20.007812 -57.613281 19.289062 -57.890625 18.375 -57.890625 C 17.28125 -57.890625 16.460938 -57.585938 15.921875 -56.984375 C 15.378906 -56.390625 15.109375 -55.570312 15.109375 -54.53125 C 15.109375 -52.25 16.410156 -49.882812 19.015625 -47.4375 L 27.1875 -39.59375 C 29.09375 -37.738281 30.671875 -35.984375 31.921875 -34.328125 C 33.171875 -32.671875 34.175781 -30.710938 34.9375 -28.453125 C 35.695312 -26.191406 36.078125 -23.507812 36.078125 -20.40625 C 36.078125 -13.5 34.8125 -8.257812 32.28125 -4.6875 C 29.757812 -1.125 25.582031 0.65625 19.75 0.65625 Z M 19.75 0.65625 "/></g></g></g><g fill="#222220" fill-opacity="1"><g transform="translate(148.381565, 94.168925)"><g><path d="M 19.59375 0.65625 C 13.445312 0.65625 9.039062 -1.03125 6.375 -4.40625 C 3.707031 -7.78125 2.375 -12.816406 2.375 -19.515625 L 2.375 -43.515625 C 2.375 -49.015625 3.953125 -53.207031 7.109375 -56.09375 C 10.265625 -58.976562 14.671875 -60.421875 20.328125 -60.421875 C 31.816406 -60.421875 37.5625 -54.785156 37.5625 -43.515625 L 37.5625 -39.1875 C 37.5625 -34.832031 37.503906 -31.296875 37.390625 -28.578125 L 16.65625 -28.578125 L 16.65625 -16.984375 C 16.65625 -14.910156 16.875 -13.289062 17.3125 -12.125 C 17.75 -10.957031 18.671875 -10.375 20.078125 -10.375 C 21.171875 -10.375 21.945312 -10.695312 22.40625 -11.34375 C 22.875 -12 23.144531 -12.75 23.21875 -13.59375 C 23.300781 -14.4375 23.34375 -15.675781 23.34375 -17.3125 L 23.34375 -23.109375 L 37.5625 -23.109375 L 37.5625 -19.671875 C 37.5625 -12.703125 36.210938 -7.570312 33.515625 -4.28125 C 30.816406 -0.988281 26.175781 0.65625 19.59375 0.65625 Z M 23.34375 -35.671875 L 23.34375 -43.34375 C 23.34375 -47.644531 22.285156 -49.796875 20.171875 -49.796875 C 17.773438 -49.796875 16.578125 -47.644531 16.578125 -43.34375 L 16.578125 -35.671875 Z M 23.34375 -35.671875 "/></g></g></g><g fill="#222220" fill-opacity="1"><g transform="translate(196.867867, 94.168925)"><g><path d="M 2.859375 0 L 2.859375 -70.53125 L 17.390625 -70.53125 L 17.390625 0 Z M 2.859375 0 "/></g></g></g><g fill="#222220" fill-opacity="1"><g transform="translate(225.764295, 94.168925)"><g><path d="M 19.59375 0.65625 C 13.445312 0.65625 9.039062 -1.03125 6.375 -4.40625 C 3.707031 -7.78125 2.375 -12.816406 2.375 -19.515625 L 2.375 -43.515625 C 2.375 -49.015625 3.953125 -53.207031 7.109375 -56.09375 C 10.265625 -58.976562 14.671875 -60.421875 20.328125 -60.421875 C 31.816406 -60.421875 37.5625 -54.785156 37.5625 -43.515625 L 37.5625 -39.1875 C 37.5625 -34.832031 37.503906 -31.296875 37.390625 -28.578125 L 16.65625 -28.578125 L 16.65625 -16.984375 C 16.65625 -14.910156 16.875 -13.289062 17.3125 -12.125 C 17.75 -10.957031 18.671875 -10.375 20.078125 -10.375 C 21.171875 -10.375 21.945312 -10.695312 22.40625 -11.34375 C 22.875 -12 23.144531 -12.75 23.21875 -13.59375 C 23.300781 -14.4375 23.34375 -15.675781 23.34375 -17.3125 L 23.34375 -23.109375 L 37.5625 -23.109375 L 37.5625 -19.671875 C 37.5625 -12.703125 36.210938 -7.570312 33.515625 -4.28125 C 30.816406 -0.988281 26.175781 0.65625 19.59375 0.65625 Z M 23.34375 -35.671875 L 23.34375 -43.34375 C 23.34375 -47.644531 22.285156 -49.796875 20.171875 -49.796875 C 17.773438 -49.796875 16.578125 -47.644531 16.578125 -43.34375 L 16.578125 -35.671875 Z M 23.34375 -35.671875 "/></g></g></g><g fill="#222220" fill-opacity="1"><g transform="translate(274.250604, 94.168925)"><g><path d="M 20.8125 0.65625 C 14.28125 0.65625 9.570312 -1.003906 6.6875 -4.328125 C 3.8125 -7.648438 2.375 -12.738281 2.375 -19.59375 L 2.375 -38.046875 C 2.375 -43.210938 2.929688 -47.414062 4.046875 -50.65625 C 5.160156 -53.894531 7.035156 -56.332031 9.671875 -57.96875 C 12.316406 -59.601562 15.976562 -60.421875 20.65625 -60.421875 C 25.769531 -60.421875 29.929688 -59.082031 33.140625 -56.40625 C 36.359375 -53.738281 37.96875 -50.015625 37.96875 -45.234375 L 37.96875 -36.078125 L 23.4375 -36.078125 L 23.4375 -44.5 C 23.4375 -46.070312 23.21875 -47.28125 22.78125 -48.125 C 22.34375 -48.96875 21.5 -49.390625 20.25 -49.390625 C 17.90625 -49.390625 16.734375 -47.726562 16.734375 -44.40625 L 16.734375 -15.4375 C 16.734375 -14.070312 17.019531 -12.910156 17.59375 -11.953125 C 18.164062 -11.003906 19.023438 -10.53125 20.171875 -10.53125 C 21.304688 -10.53125 22.160156 -10.992188 22.734375 -11.921875 C 23.304688 -12.847656 23.566406 -14.046875 23.515625 -15.515625 L 23.4375 -25.546875 L 37.96875 -25.546875 L 37.96875 -15.109375 C 37.96875 -10.203125 36.375 -6.347656 33.1875 -3.546875 C 30 -0.742188 25.875 0.65625 20.8125 0.65625 Z M 20.8125 0.65625 "/></g></g></g><g fill="#222220" fill-opacity="1"><g transform="translate(322.981765, 94.168925)"><g><path d="M 15.1875 0.65625 C 11.425781 0.65625 8.835938 -0.128906 7.421875 -1.703125 C 6.015625 -3.285156 5.3125 -5.820312 5.3125 -9.3125 L 5.3125 -46.609375 L 1.3125 -46.609375 L 1.3125 -57.46875 L 5.3125 -57.46875 L 5.3125 -70.125 L 19.1875 -70.125 L 19.1875 -57.46875 L 23.265625 -57.46875 L 23.265625 -46.609375 L 19.1875 -46.609375 L 19.1875 -13.0625 C 19.1875 -12.03125 19.265625 -11.269531 19.421875 -10.78125 C 19.585938 -10.289062 20.023438 -10.046875 20.734375 -10.046875 C 21.273438 -10.046875 21.789062 -10.070312 22.28125 -10.125 C 22.769531 -10.175781 23.097656 -10.203125 23.265625 -10.203125 L 23.265625 -0.40625 C 22.453125 -0.1875 21.269531 0.0390625 19.71875 0.28125 C 18.164062 0.53125 16.65625 0.65625 15.1875 0.65625 Z M 15.1875 0.65625 "/></g></g></g><g fill="#222220" fill-opacity="1"><g transform="translate(120.872872, 186.731792)"><g><path d="M 9.140625 0 L 9.140625 -56.65625 L 0.8125 -56.65625 L 0.8125 -70.125 L 31.515625 -70.125 L 31.515625 -56.65625 L 23.1875 -56.65625 L 23.1875 0 Z M 9.140625 0 "/></g></g></g><g fill="#222220" fill-opacity="1"><g transform="translate(161.849718, 186.731792)"><g><path d="M 20.25 0.65625 C 8.332031 0.65625 2.375 -5.519531 2.375 -17.875 L 2.375 -41.875 C 2.375 -47.539062 3.960938 -52.046875 7.140625 -55.390625 C 10.328125 -58.742188 14.695312 -60.421875 20.25 -60.421875 C 25.800781 -60.421875 30.164062 -58.742188 33.34375 -55.390625 C 36.53125 -52.046875 38.125 -47.539062 38.125 -41.875 L 38.125 -17.875 C 38.125 -5.519531 32.164062 0.65625 20.25 0.65625 Z M 20.25 -10.375 C 21.394531 -10.375 22.238281 -10.78125 22.78125 -11.59375 C 23.320312 -12.40625 23.59375 -13.519531 23.59375 -14.9375 L 23.59375 -44.171875 C 23.59375 -47.648438 22.476562 -49.390625 20.25 -49.390625 C 18.019531 -49.390625 16.90625 -47.648438 16.90625 -44.171875 L 16.90625 -14.9375 C 16.90625 -13.519531 17.175781 -12.40625 17.71875 -11.59375 C 18.257812 -10.78125 19.101562 -10.375 20.25 -10.375 Z M 20.25 -10.375 "/></g></g></g><g fill="#222220" fill-opacity="1"><g transform="translate(211.070631, 186.731792)"><g><path d="M 2.859375 -59.765625 L 17.390625 -59.765625 L 17.390625 -56.578125 C 19.453125 -59.140625 22.3125 -60.421875 25.96875 -60.421875 C 30.59375 -60.421875 33.816406 -58.867188 35.640625 -55.765625 C 37.460938 -52.660156 38.375 -48.359375 38.375 -42.859375 L 38.375 -20.734375 C 38.375 -16.054688 38.097656 -12.234375 37.546875 -9.265625 C 37.003906 -6.296875 35.804688 -3.898438 33.953125 -2.078125 C 32.109375 -0.253906 29.304688 0.65625 25.546875 0.65625 C 21.960938 0.65625 19.242188 -0.351562 17.390625 -2.375 L 17.390625 11.921875 L 2.859375 11.921875 Z M 20.8125 -10.453125 C 22.125 -10.453125 22.96875 -11.050781 23.34375 -12.25 C 23.726562 -13.445312 23.921875 -15.1875 23.921875 -17.46875 L 23.921875 -42.859375 C 23.921875 -44.929688 23.726562 -46.507812 23.34375 -47.59375 C 22.96875 -48.6875 22.097656 -49.234375 20.734375 -49.234375 C 18.503906 -49.234375 17.390625 -47.164062 17.390625 -43.03125 L 17.390625 -16.8125 C 17.390625 -14.800781 17.617188 -13.238281 18.078125 -12.125 C 18.546875 -11.007812 19.457031 -10.453125 20.8125 -10.453125 Z M 20.8125 -10.453125 "/></g></g></g><g fill="#222220" fill-opacity="1"><g transform="translate(260.536417, 186.731792)"><g><path d="M 2.78125 -63.765625 L 2.78125 -73.71875 L 17.0625 -73.71875 L 17.0625 -63.765625 Z M 2.78125 0 L 2.78125 -59.765625 L 17.0625 -59.765625 L 17.0625 0 Z M 2.78125 0 "/></g></g></g><g fill="#222220" fill-opacity="1"><g transform="translate(289.024717, 186.731792)"><g><path d="M 20.8125 0.65625 C 14.28125 0.65625 9.570312 -1.003906 6.6875 -4.328125 C 3.8125 -7.648438 2.375 -12.738281 2.375 -19.59375 L 2.375 -38.046875 C 2.375 -43.210938 2.929688 -47.414062 4.046875 -50.65625 C 5.160156 -53.894531 7.035156 -56.332031 9.671875 -57.96875 C 12.316406 -59.601562 15.976562 -60.421875 20.65625 -60.421875 C 25.769531 -60.421875 29.929688 -59.082031 33.140625 -56.40625 C 36.359375 -53.738281 37.96875 -50.015625 37.96875 -45.234375 L 37.96875 -36.078125 L 23.4375 -36.078125 L 23.4375 -44.5 C 23.4375 -46.070312 23.21875 -47.28125 22.78125 -48.125 C 22.34375 -48.96875 21.5 -49.390625 20.25 -49.390625 C 17.90625 -49.390625 16.734375 -47.726562 16.734375 -44.40625 L 16.734375 -15.4375 C 16.734375 -14.070312 17.019531 -12.910156 17.59375 -11.953125 C 18.164062 -11.003906 19.023438 -10.53125 20.171875 -10.53125 C 21.304688 -10.53125 22.160156 -10.992188 22.734375 -11.921875 C 23.304688 -12.847656 23.566406 -14.046875 23.515625 -15.515625 L 23.4375 -25.546875 L 37.96875 -25.546875 L 37.96875 -15.109375 C 37.96875 -10.203125 36.375 -6.347656 33.1875 -3.546875 C 30 -0.742188 25.875 0.65625 20.8125 0.65625 Z M 20.8125 0.65625 "/></g></g></g></svg>