<svg xmlns="http://www.w3.org/2000/svg" xmlns:xlink="http://www.w3.org/1999/xlink" width="600" zoomAndPan="magnify" viewBox="0 0 450 599.999999" height="800" preserveAspectRatio="xMidYMid meet" version="1.0"><defs><g/></defs><path fill="#e5efef" d="M 349.617188 375.382812 C 349.617188 377.070312 349.574219 378.753906 349.492188 380.441406 C 349.410156 382.125 349.285156 383.804688 349.121094 385.484375 C 348.953125 387.164062 348.746094 388.835938 348.5 390.503906 C 348.253906 392.171875 347.964844 393.832031 347.636719 395.488281 C 347.304688 397.140625 346.9375 398.785156 346.527344 400.421875 C 346.117188 402.058594 345.667969 403.683594 345.179688 405.296875 C 344.6875 406.910156 344.160156 408.511719 343.589844 410.097656 C 343.023438 411.6875 342.417969 413.261719 341.769531 414.820312 C 341.125 416.375 340.441406 417.917969 339.722656 419.441406 C 339 420.96875 338.242188 422.472656 337.449219 423.960938 C 336.652344 425.449219 335.820312 426.914062 334.953125 428.359375 C 334.085938 429.808594 333.1875 431.230469 332.25 432.632812 C 331.3125 434.035156 330.339844 435.414062 329.335938 436.769531 C 328.332031 438.125 327.292969 439.453125 326.226562 440.757812 C 325.15625 442.058594 324.054688 443.335938 322.921875 444.585938 C 321.789062 445.835938 320.625 447.058594 319.433594 448.25 C 318.242188 449.441406 317.019531 450.605469 315.769531 451.738281 C 314.519531 452.871094 313.246094 453.972656 311.941406 455.039062 C 310.636719 456.109375 309.308594 457.148438 307.953125 458.152344 C 306.597656 459.15625 305.21875 460.128906 303.816406 461.066406 C 302.414062 462 300.992188 462.902344 299.542969 463.769531 C 298.097656 464.636719 296.632812 465.46875 295.144531 466.261719 C 293.65625 467.058594 292.152344 467.816406 290.625 468.539062 C 289.101562 469.257812 287.5625 469.941406 286.003906 470.585938 C 284.445312 471.234375 282.871094 471.839844 281.285156 472.40625 C 279.695312 472.976562 278.09375 473.503906 276.480469 473.992188 C 274.867188 474.484375 273.242188 474.933594 271.605469 475.34375 C 269.96875 475.753906 268.324219 476.121094 266.671875 476.453125 C 265.015625 476.78125 263.355469 477.070312 261.6875 477.316406 C 260.019531 477.5625 258.347656 477.769531 256.667969 477.933594 C 254.988281 478.101562 253.308594 478.222656 251.625 478.308594 C 249.941406 478.390625 248.253906 478.429688 246.566406 478.429688 C 244.882812 478.429688 243.195312 478.390625 241.511719 478.308594 C 239.828125 478.222656 238.144531 478.101562 236.46875 477.933594 C 234.789062 477.769531 233.117188 477.5625 231.449219 477.316406 C 229.78125 477.070312 228.117188 476.78125 226.464844 476.453125 C 224.808594 476.121094 223.164062 475.753906 221.53125 475.34375 C 219.894531 474.933594 218.269531 474.484375 216.65625 473.992188 C 215.042969 473.503906 213.441406 472.976562 211.851562 472.40625 C 210.265625 471.839844 208.691406 471.234375 207.132812 470.585938 C 205.574219 469.941406 204.035156 469.257812 202.507812 468.539062 C 200.984375 467.816406 199.480469 467.058594 197.992188 466.261719 C 196.503906 465.46875 195.039062 464.636719 193.589844 463.769531 C 192.144531 462.902344 190.71875 462 189.316406 461.066406 C 187.914062 460.128906 186.539062 459.15625 185.183594 458.152344 C 183.828125 457.148438 182.5 456.109375 181.195312 455.039062 C 179.890625 453.972656 178.617188 452.871094 177.367188 451.738281 C 176.117188 450.605469 174.894531 449.441406 173.703125 448.25 C 172.511719 447.058594 171.347656 445.835938 170.214844 444.585938 C 169.082031 443.335938 167.980469 442.058594 166.910156 440.757812 C 165.839844 439.453125 164.804688 438.125 163.800781 436.769531 C 162.796875 435.414062 161.824219 434.035156 160.886719 432.632812 C 159.949219 431.230469 159.046875 429.808594 158.179688 428.359375 C 157.3125 426.914062 156.484375 425.449219 155.6875 423.960938 C 154.894531 422.472656 154.136719 420.96875 153.414062 419.441406 C 152.691406 417.917969 152.011719 416.375 151.363281 414.820312 C 150.71875 413.261719 150.113281 411.6875 149.542969 410.097656 C 148.976562 408.511719 148.449219 406.910156 147.957031 405.296875 C 147.46875 403.683594 147.019531 402.058594 146.609375 400.421875 C 146.199219 398.785156 145.828125 397.140625 145.5 395.488281 C 145.171875 393.832031 144.882812 392.171875 144.636719 390.503906 C 144.386719 388.835938 144.183594 387.164062 144.015625 385.484375 C 143.851562 383.804688 143.726562 382.125 143.644531 380.441406 C 143.5625 378.753906 143.519531 377.070312 143.519531 375.382812 C 143.519531 373.699219 143.5625 372.011719 143.644531 370.328125 C 143.726562 368.644531 143.851562 366.960938 144.015625 365.285156 C 144.183594 363.605469 144.386719 361.933594 144.636719 360.265625 C 144.882812 358.59375 145.171875 356.933594 145.5 355.28125 C 145.828125 353.625 146.199219 351.980469 146.609375 350.34375 C 147.019531 348.710938 147.46875 347.085938 147.957031 345.472656 C 148.449219 343.855469 148.976562 342.257812 149.542969 340.667969 C 150.113281 339.082031 150.71875 337.507812 151.363281 335.949219 C 152.011719 334.390625 152.691406 332.851562 153.414062 331.324219 C 154.136719 329.800781 154.894531 328.296875 155.6875 326.808594 C 156.484375 325.320312 157.3125 323.855469 158.179688 322.40625 C 159.046875 320.960938 159.949219 319.535156 160.886719 318.132812 C 161.824219 316.730469 162.796875 315.351562 163.800781 314 C 164.804688 312.644531 165.839844 311.316406 166.910156 310.011719 C 167.980469 308.707031 169.082031 307.429688 170.214844 306.179688 C 171.347656 304.933594 172.511719 303.710938 173.703125 302.519531 C 174.894531 301.324219 176.117188 300.164062 177.367188 299.03125 C 178.617188 297.898438 179.890625 296.796875 181.195312 295.726562 C 182.5 294.65625 183.828125 293.621094 185.183594 292.617188 C 186.539062 291.609375 187.914062 290.640625 189.316406 289.703125 C 190.71875 288.765625 192.144531 287.863281 193.589844 286.996094 C 195.039062 286.128906 196.503906 285.300781 197.992188 284.503906 C 199.480469 283.710938 200.984375 282.953125 202.507812 282.230469 C 204.035156 281.507812 205.574219 280.824219 207.132812 280.179688 C 208.691406 279.535156 210.265625 278.929688 211.851562 278.359375 C 213.441406 277.792969 215.042969 277.261719 216.65625 276.773438 C 218.269531 276.285156 219.894531 275.835938 221.53125 275.425781 C 223.164062 275.015625 224.808594 274.644531 226.464844 274.316406 C 228.117188 273.988281 229.78125 273.699219 231.449219 273.453125 C 233.117188 273.203125 234.789062 273 236.46875 272.832031 C 238.144531 272.667969 239.828125 272.542969 241.511719 272.460938 C 243.195312 272.378906 244.882812 272.335938 246.566406 272.335938 C 248.253906 272.335938 249.941406 272.378906 251.625 272.460938 C 253.308594 272.542969 254.988281 272.667969 256.667969 272.832031 C 258.347656 273 260.019531 273.203125 261.6875 273.453125 C 263.355469 273.699219 265.015625 273.988281 266.671875 274.316406 C 268.324219 274.644531 269.96875 275.015625 271.605469 275.425781 C 273.242188 275.835938 274.867188 276.285156 276.480469 276.773438 C 278.09375 277.261719 279.695312 277.792969 281.285156 278.359375 C 282.871094 278.929688 284.445312 279.535156 286.003906 280.179688 C 287.5625 280.824219 289.101562 281.507812 290.625 282.230469 C 292.152344 282.953125 293.65625 283.710938 295.144531 284.503906 C 296.632812 285.300781 298.097656 286.128906 299.542969 286.996094 C 300.992188 287.863281 302.414062 288.765625 303.816406 289.703125 C 305.21875 290.640625 306.597656 291.609375 307.953125 292.617188 C 309.308594 293.621094 310.636719 294.65625 311.941406 295.726562 C 313.246094 296.796875 314.519531 297.898438 315.769531 299.03125 C 317.019531 300.164062 318.242188 301.324219 319.433594 302.519531 C 320.625 303.710938 321.789062 304.933594 322.921875 306.179688 C 324.054688 307.429688 325.15625 308.707031 326.226562 310.011719 C 327.292969 311.316406 328.332031 312.644531 329.335938 314 C 330.339844 315.351562 331.3125 316.730469 332.25 318.132812 C 333.1875 319.535156 334.085938 320.960938 334.953125 322.40625 C 335.820312 323.855469 336.652344 325.320312 337.449219 326.808594 C 338.242188 328.296875 339 329.800781 339.722656 331.324219 C 340.441406 332.851562 341.125 334.390625 341.769531 335.949219 C 342.417969 337.507812 343.023438 339.082031 343.589844 340.667969 C 344.160156 342.257812 344.6875 343.855469 345.179688 345.472656 C 345.667969 347.085938 346.117188 348.710938 346.527344 350.34375 C 346.9375 351.980469 347.304688 353.625 347.636719 355.28125 C 347.964844 356.933594 348.253906 358.59375 348.5 360.265625 C 348.746094 361.933594 348.953125 363.605469 349.121094 365.285156 C 349.285156 366.960938 349.410156 368.644531 349.492188 370.328125 C 349.574219 372.011719 349.617188 373.699219 349.617188 375.382812 Z M 349.617188 375.382812 " fill-opacity="1" fill-rule="nonzero"/><path fill="#4c241d" d="M 349.617188 511.980469 C 346.96875 511.980469 344.824219 509.835938 344.824219 507.1875 L 344.824219 497.601562 C 344.824219 494.957031 346.96875 492.808594 349.617188 492.808594 C 352.261719 492.808594 354.410156 494.957031 354.410156 497.601562 L 354.410156 507.1875 C 354.410156 509.835938 352.261719 511.980469 349.617188 511.980469 Z M 349.617188 511.980469 " fill-opacity="1" fill-rule="nonzero"/><path fill="#4c241d" d="M 349.617188 540.738281 C 346.96875 540.738281 344.824219 538.59375 344.824219 535.945312 L 344.824219 526.359375 C 344.824219 523.714844 346.96875 521.566406 349.617188 521.566406 C 352.261719 521.566406 354.410156 523.714844 354.410156 526.359375 L 354.410156 535.945312 C 354.410156 538.59375 352.261719 540.738281 349.617188 540.738281 Z M 349.617188 540.738281 " fill-opacity="1" fill-rule="nonzero"/><path fill="#4c241d" d="M 340.03125 521.566406 L 330.445312 521.566406 C 327.796875 521.566406 325.652344 519.421875 325.652344 516.773438 C 325.652344 514.128906 327.796875 511.980469 330.445312 511.980469 L 340.03125 511.980469 C 342.675781 511.980469 344.824219 514.128906 344.824219 516.773438 C 344.824219 519.421875 342.675781 521.566406 340.03125 521.566406 Z M 340.03125 521.566406 " fill-opacity="1" fill-rule="nonzero"/><path fill="#4c241d" d="M 368.785156 521.566406 L 359.199219 521.566406 C 356.554688 521.566406 354.410156 519.421875 354.410156 516.773438 C 354.410156 514.128906 356.554688 511.980469 359.199219 511.980469 L 368.785156 511.980469 C 371.433594 511.980469 373.578125 514.128906 373.578125 516.773438 C 373.578125 519.421875 371.433594 521.566406 368.785156 521.566406 Z M 368.785156 521.566406 " fill-opacity="1" fill-rule="nonzero"/><path fill="#4c241d" d="M 329.738281 472.019531 C 329.738281 472.355469 329.703125 472.6875 329.636719 473.019531 C 329.574219 473.347656 329.476562 473.667969 329.347656 473.980469 C 329.21875 474.292969 329.058594 474.585938 328.875 474.867188 C 328.6875 475.144531 328.472656 475.40625 328.234375 475.640625 C 328 475.878906 327.738281 476.09375 327.460938 476.28125 C 327.179688 476.464844 326.882812 476.625 326.574219 476.753906 C 326.261719 476.882812 325.941406 476.980469 325.613281 477.042969 C 325.28125 477.109375 324.949219 477.144531 324.613281 477.144531 C 324.277344 477.144531 323.945312 477.109375 323.613281 477.042969 C 323.285156 476.980469 322.964844 476.882812 322.652344 476.753906 C 322.339844 476.625 322.046875 476.464844 321.765625 476.28125 C 321.488281 476.09375 321.226562 475.878906 320.992188 475.640625 C 320.753906 475.40625 320.539062 475.144531 320.351562 474.867188 C 320.167969 474.585938 320.007812 474.292969 319.878906 473.980469 C 319.75 473.667969 319.652344 473.347656 319.589844 473.019531 C 319.523438 472.6875 319.488281 472.355469 319.488281 472.019531 C 319.488281 471.683594 319.523438 471.351562 319.589844 471.019531 C 319.652344 470.691406 319.75 470.371094 319.878906 470.058594 C 320.007812 469.746094 320.167969 469.453125 320.351562 469.171875 C 320.539062 468.894531 320.753906 468.632812 320.992188 468.398438 C 321.226562 468.160156 321.488281 467.945312 321.765625 467.757812 C 322.046875 467.574219 322.339844 467.414062 322.652344 467.285156 C 322.964844 467.15625 323.285156 467.058594 323.613281 466.996094 C 323.945312 466.929688 324.277344 466.894531 324.613281 466.894531 C 324.949219 466.894531 325.28125 466.929688 325.613281 466.996094 C 325.941406 467.058594 326.261719 467.15625 326.574219 467.285156 C 326.882812 467.414062 327.179688 467.574219 327.460938 467.757812 C 327.738281 467.945312 328 468.160156 328.234375 468.398438 C 328.472656 468.632812 328.6875 468.894531 328.875 469.171875 C 329.058594 469.453125 329.21875 469.746094 329.347656 470.058594 C 329.476562 470.371094 329.574219 470.691406 329.636719 471.019531 C 329.703125 471.351562 329.738281 471.683594 329.738281 472.019531 Z M 329.738281 472.019531 " fill-opacity="1" fill-rule="nonzero"/><path fill="#4c241d" d="M 358.496094 448.054688 C 358.496094 448.390625 358.460938 448.726562 358.394531 449.054688 C 358.332031 449.382812 358.234375 449.703125 358.105469 450.015625 C 357.976562 450.328125 357.816406 450.621094 357.628906 450.902344 C 357.445312 451.179688 357.230469 451.441406 356.992188 451.679688 C 356.753906 451.914062 356.496094 452.128906 356.21875 452.316406 C 355.9375 452.503906 355.640625 452.660156 355.332031 452.789062 C 355.019531 452.917969 354.699219 453.015625 354.371094 453.082031 C 354.039062 453.144531 353.707031 453.179688 353.371094 453.179688 C 353.035156 453.179688 352.699219 453.144531 352.371094 453.082031 C 352.042969 453.015625 351.71875 452.917969 351.410156 452.789062 C 351.097656 452.660156 350.804688 452.503906 350.523438 452.316406 C 350.246094 452.128906 349.984375 451.914062 349.746094 451.679688 C 349.511719 451.441406 349.296875 451.179688 349.109375 450.902344 C 348.921875 450.621094 348.765625 450.328125 348.636719 450.015625 C 348.507812 449.703125 348.410156 449.382812 348.34375 449.054688 C 348.28125 448.726562 348.246094 448.390625 348.246094 448.054688 C 348.246094 447.71875 348.28125 447.386719 348.34375 447.054688 C 348.410156 446.726562 348.507812 446.40625 348.636719 446.09375 C 348.765625 445.785156 348.921875 445.488281 349.109375 445.207031 C 349.296875 444.929688 349.511719 444.671875 349.746094 444.433594 C 349.984375 444.195312 350.246094 443.980469 350.523438 443.796875 C 350.804688 443.609375 351.097656 443.449219 351.410156 443.320312 C 351.71875 443.191406 352.042969 443.09375 352.371094 443.03125 C 352.699219 442.964844 353.035156 442.929688 353.371094 442.929688 C 353.707031 442.929688 354.039062 442.964844 354.371094 443.03125 C 354.699219 443.09375 355.019531 443.191406 355.332031 443.320312 C 355.640625 443.449219 355.9375 443.609375 356.21875 443.796875 C 356.496094 443.980469 356.753906 444.195312 356.992188 444.433594 C 357.230469 444.671875 357.445312 444.929688 357.628906 445.207031 C 357.816406 445.488281 357.976562 445.785156 358.105469 446.09375 C 358.234375 446.40625 358.332031 446.726562 358.394531 447.054688 C 358.460938 447.386719 358.496094 447.71875 358.496094 448.054688 Z M 358.496094 448.054688 " fill-opacity="1" fill-rule="nonzero"/><path fill="#ffe8dc" d="M 290.347656 353.816406 C 298.160156 367.4375 303.019531 383.03125 303.800781 399.636719 C 304.171875 407.5 303.667969 415.171875 302.382812 422.566406 C 299.15625 441.097656 291.003906 457.859375 279.390625 471.363281 C 273.464844 478.25 268.136719 489.003906 268.136719 498.226562 L 268.136719 555.117188 L 177.070312 555.117188 L 167.484375 521.566406 L 129.210938 522.546875 C 125.382812 522.546875 122.167969 519.558594 121.761719 515.621094 L 116.820312 459.554688 L 101.800781 455 C 97.402344 453.988281 94.855469 449.214844 96.371094 444.824219 L 123.78125 401.734375 C 118.585938 401.742188 114.464844 397.214844 115.097656 392.058594 C 116.769531 378.367188 120.75 364.941406 126.628906 353.816406 " fill-opacity="1" fill-rule="nonzero"/><path fill="#4c241d" d="M 268.136719 559.910156 L 177.070312 559.910156 C 174.933594 559.910156 173.050781 558.492188 172.460938 556.4375 L 163.898438 526.453125 L 129.332031 527.335938 C 122.910156 527.335938 117.660156 522.515625 116.992188 516.117188 L 112.324219 463.199219 L 100.410156 459.585938 C 97.351562 458.894531 94.441406 456.6875 92.738281 453.617188 C 90.984375 450.457031 90.660156 446.683594 91.835938 443.261719 C 91.960938 442.90625 92.121094 442.566406 92.324219 442.25 L 116.425781 404.363281 C 115.394531 403.699219 114.449219 402.890625 113.617188 401.957031 C 111.070312 399.082031 109.875 395.261719 110.335938 391.480469 C 112.117188 376.929688 116.285156 363.136719 122.390625 351.578125 C 123.625 349.238281 126.511719 348.34375 128.867188 349.578125 C 131.207031 350.8125 132.101562 353.714844 130.867188 356.054688 C 125.378906 366.4375 121.46875 379.433594 119.851562 392.640625 C 119.675781 394.09375 120.363281 395.113281 120.792969 395.597656 C 121.546875 396.453125 122.632812 396.941406 123.769531 396.941406 L 123.78125 396.941406 C 125.53125 396.941406 127.140625 397.894531 127.984375 399.421875 C 128.824219 400.957031 128.765625 402.828125 127.828125 404.304688 L 100.785156 446.808594 C 100.640625 447.542969 100.753906 448.308594 101.117188 448.964844 C 101.34375 449.375 101.878906 450.097656 102.875 450.328125 L 118.207031 454.964844 C 120.078125 455.535156 121.421875 457.183594 121.59375 459.132812 L 126.535156 515.199219 C 126.683594 516.625 127.839844 517.753906 129.210938 517.753906 L 167.363281 516.777344 C 169.535156 516.625 171.492188 518.152344 172.09375 520.25 L 180.6875 550.324219 L 263.34375 550.324219 L 263.34375 498.226562 C 263.34375 486.742188 270.027344 474.894531 275.753906 468.238281 C 287.078125 455.070312 294.65625 438.996094 297.65625 421.746094 C 298.90625 414.589844 299.359375 407.226562 299.011719 399.863281 C 298.292969 384.675781 293.859375 369.578125 286.1875 356.199219 C 284.871094 353.90625 285.667969 350.976562 287.960938 349.65625 C 290.261719 348.339844 293.1875 349.132812 294.503906 351.429688 C 302.925781 366.121094 307.796875 382.710938 308.589844 399.410156 C 308.96875 407.476562 308.46875 415.546875 307.105469 423.386719 C 303.800781 442.34375 295.476562 460.011719 283.023438 474.488281 C 278.160156 480.140625 272.929688 489.980469 272.929688 498.226562 L 272.929688 555.117188 C 272.929688 557.765625 270.78125 559.910156 268.136719 559.910156 Z M 268.136719 559.910156 " fill-opacity="1" fill-rule="nonzero"/><path fill="#4c241d" d="M 86.007812 310.679688 C 86.007812 310.996094 85.976562 311.304688 85.914062 311.613281 C 85.851562 311.921875 85.761719 312.222656 85.640625 312.515625 C 85.519531 312.804688 85.371094 313.082031 85.199219 313.34375 C 85.023438 313.605469 84.824219 313.847656 84.601562 314.070312 C 84.378906 314.292969 84.136719 314.488281 83.875 314.664062 C 83.613281 314.839844 83.339844 314.988281 83.046875 315.109375 C 82.757812 315.226562 82.457031 315.320312 82.148438 315.378906 C 81.839844 315.441406 81.527344 315.472656 81.214844 315.472656 C 80.898438 315.472656 80.585938 315.441406 80.277344 315.378906 C 79.96875 315.320312 79.667969 315.226562 79.378906 315.109375 C 79.089844 314.988281 78.8125 314.839844 78.550781 314.664062 C 78.289062 314.488281 78.046875 314.292969 77.824219 314.070312 C 77.601562 313.847656 77.402344 313.605469 77.226562 313.34375 C 77.054688 313.082031 76.90625 312.804688 76.785156 312.515625 C 76.664062 312.222656 76.574219 311.921875 76.511719 311.613281 C 76.449219 311.304688 76.421875 310.996094 76.421875 310.679688 C 76.421875 310.363281 76.449219 310.054688 76.511719 309.746094 C 76.574219 309.4375 76.664062 309.136719 76.785156 308.84375 C 76.90625 308.554688 77.054688 308.277344 77.226562 308.015625 C 77.402344 307.753906 77.601562 307.511719 77.824219 307.289062 C 78.046875 307.066406 78.289062 306.871094 78.550781 306.695312 C 78.8125 306.519531 79.089844 306.371094 79.378906 306.25 C 79.667969 306.132812 79.96875 306.039062 80.277344 305.980469 C 80.585938 305.917969 80.898438 305.886719 81.214844 305.886719 C 81.527344 305.886719 81.839844 305.917969 82.148438 305.980469 C 82.457031 306.039062 82.757812 306.132812 83.046875 306.25 C 83.339844 306.371094 83.613281 306.519531 83.875 306.695312 C 84.136719 306.871094 84.378906 307.066406 84.601562 307.289062 C 84.824219 307.511719 85.023438 307.753906 85.199219 308.015625 C 85.371094 308.277344 85.519531 308.554688 85.640625 308.84375 C 85.761719 309.136719 85.851562 309.4375 85.914062 309.746094 C 85.976562 310.054688 86.007812 310.363281 86.007812 310.679688 Z M 86.007812 310.679688 " fill-opacity="1" fill-rule="nonzero"/><path fill="#4c241d" d="M 340.03125 372.988281 C 340.03125 373.300781 340 373.613281 339.9375 373.921875 C 339.875 374.230469 339.785156 374.53125 339.664062 374.820312 C 339.542969 375.113281 339.398438 375.386719 339.222656 375.648438 C 339.046875 375.910156 338.847656 376.152344 338.625 376.375 C 338.402344 376.597656 338.160156 376.796875 337.898438 376.972656 C 337.636719 377.148438 337.363281 377.296875 337.070312 377.414062 C 336.78125 377.535156 336.480469 377.625 336.171875 377.6875 C 335.863281 377.75 335.550781 377.78125 335.238281 377.78125 C 334.921875 377.78125 334.609375 377.75 334.300781 377.6875 C 333.992188 377.625 333.691406 377.535156 333.402344 377.414062 C 333.113281 377.296875 332.835938 377.148438 332.574219 376.972656 C 332.3125 376.796875 332.070312 376.597656 331.847656 376.375 C 331.625 376.152344 331.425781 375.910156 331.25 375.648438 C 331.078125 375.386719 330.929688 375.113281 330.808594 374.820312 C 330.6875 374.53125 330.597656 374.230469 330.535156 373.921875 C 330.472656 373.613281 330.445312 373.300781 330.445312 372.988281 C 330.445312 372.671875 330.472656 372.359375 330.535156 372.050781 C 330.597656 371.742188 330.6875 371.445312 330.808594 371.152344 C 330.929688 370.863281 331.078125 370.585938 331.25 370.324219 C 331.425781 370.0625 331.625 369.820312 331.847656 369.597656 C 332.070312 369.375 332.3125 369.175781 332.574219 369.003906 C 332.835938 368.828125 333.113281 368.679688 333.402344 368.558594 C 333.691406 368.4375 333.992188 368.347656 334.300781 368.285156 C 334.609375 368.226562 334.921875 368.195312 335.238281 368.195312 C 335.550781 368.195312 335.863281 368.226562 336.171875 368.285156 C 336.480469 368.347656 336.78125 368.4375 337.070312 368.558594 C 337.363281 368.679688 337.636719 368.828125 337.898438 369.003906 C 338.160156 369.175781 338.402344 369.375 338.625 369.597656 C 338.847656 369.820312 339.046875 370.0625 339.222656 370.324219 C 339.398438 370.585938 339.542969 370.863281 339.664062 371.152344 C 339.785156 371.445312 339.875 371.742188 339.9375 372.050781 C 340 372.359375 340.03125 372.671875 340.03125 372.988281 Z M 340.03125 372.988281 " fill-opacity="1" fill-rule="nonzero"/><path fill="#4c241d" d="M 119.558594 488.019531 C 117.65625 488.019531 115.855469 486.878906 115.105469 485.003906 C 114.121094 482.542969 115.316406 479.757812 117.777344 478.773438 L 118.785156 478.371094 C 116.503906 478 114.765625 476.023438 114.765625 473.636719 C 114.765625 470.992188 116.910156 468.84375 119.558594 468.84375 L 143.523438 468.84375 C 145.820312 468.84375 147.792969 470.476562 148.230469 472.734375 C 148.664062 474.988281 147.433594 477.234375 145.304688 478.089844 L 121.339844 487.675781 C 120.753906 487.90625 120.152344 488.019531 119.558594 488.019531 Z M 119.558594 488.019531 " fill-opacity="1" fill-rule="nonzero"/><path fill="#4c241d" d="M 167.480469 526.359375 C 165.207031 526.359375 163.191406 524.738281 162.769531 522.425781 C 162.296875 519.820312 164.023438 517.324219 166.628906 516.851562 L 216.148438 507.847656 L 220.300781 487.078125 C 220.816406 484.480469 223.34375 482.804688 225.9375 483.316406 C 228.535156 483.835938 230.21875 486.359375 229.699219 488.957031 L 224.910156 512.917969 C 224.527344 514.847656 223.003906 516.34375 221.070312 516.695312 L 168.34375 526.28125 C 168.054688 526.332031 167.761719 526.359375 167.480469 526.359375 Z M 167.480469 526.359375 " fill-opacity="1" fill-rule="nonzero"/><path fill="#4c241d" d="M 143.53125 416.125 C 141.421875 416.125 130.449219 414.738281 129.226562 408.152344 C 128.738281 405.550781 130.457031 403.046875 133.058594 402.566406 C 135.226562 402.164062 137.285156 403.265625 138.222656 405.125 C 139.300781 405.738281 142.035156 406.539062 143.53125 406.539062 C 145.011719 406.539062 147.554688 405.71875 148.636719 405.046875 C 149.261719 403.132812 151.066406 401.746094 153.191406 401.746094 C 155.839844 401.746094 157.984375 403.890625 157.984375 406.539062 C 157.984375 413.765625 147.234375 416.125 143.53125 416.125 Z M 143.53125 416.125 " fill-opacity="1" fill-rule="nonzero"/><path fill="#a9ba5a" d="M 177.042969 277.945312 L 256.117188 358.09375 L 215.449219 398.765625 L 135.726562 319.042969 C 126.738281 310.054688 126.738281 295.480469 135.726562 286.492188 L 144.382812 277.835938 C 153.414062 268.804688 168.074219 268.851562 177.042969 277.945312 Z M 177.042969 277.945312 " fill-opacity="1" fill-rule="nonzero"/><path fill="#4c241d" d="M 215.445312 403.554688 C 214.222656 403.554688 212.992188 403.085938 212.058594 402.152344 L 132.335938 322.429688 C 121.492188 311.589844 121.492188 293.945312 132.335938 283.101562 L 140.992188 274.445312 C 146.246094 269.191406 153.226562 266.300781 160.652344 266.300781 L 160.746094 266.300781 C 168.210938 266.324219 175.210938 269.265625 180.453125 274.578125 L 259.527344 354.726562 C 261.375 356.601562 261.367188 359.617188 259.503906 361.480469 L 218.835938 402.152344 C 217.898438 403.089844 216.671875 403.554688 215.445312 403.554688 Z M 160.652344 275.886719 C 155.789062 275.886719 151.214844 277.777344 147.769531 281.222656 L 139.113281 289.878906 C 132.007812 296.988281 132.007812 308.546875 139.113281 315.652344 L 215.445312 391.984375 L 249.359375 358.070312 L 173.632812 281.308594 C 170.195312 277.828125 165.609375 275.902344 160.71875 275.886719 C 160.695312 275.886719 160.675781 275.886719 160.652344 275.886719 Z M 160.652344 275.886719 " fill-opacity="1" fill-rule="nonzero"/><path fill="#4c241d" d="M 228.324219 390.140625 C 227.097656 390.140625 225.871094 389.671875 224.933594 388.738281 L 156.1875 319.992188 C 154.316406 318.121094 154.316406 315.085938 156.1875 313.214844 C 158.058594 311.34375 161.09375 311.34375 162.964844 313.214844 L 231.710938 381.960938 C 233.582031 383.832031 233.582031 386.867188 231.710938 388.738281 C 230.777344 389.671875 229.550781 390.140625 228.324219 390.140625 Z M 228.324219 390.140625 " fill-opacity="1" fill-rule="nonzero"/><path fill="#4c241d" d="M 241.878906 376.585938 C 240.652344 376.585938 239.425781 376.117188 238.488281 375.179688 L 157.421875 294.113281 C 155.550781 292.242188 155.550781 289.207031 157.421875 287.335938 C 159.292969 285.464844 162.328125 285.464844 164.199219 287.335938 L 245.265625 368.402344 C 247.136719 370.273438 247.136719 373.308594 245.265625 375.179688 C 244.332031 376.117188 243.105469 376.585938 241.878906 376.585938 Z M 241.878906 376.585938 " fill-opacity="1" fill-rule="nonzero"/><path fill="#6b4f5b" d="M 268.738281 390.453125 L 247.804688 411.386719 L 279.839844 422.488281 Z M 268.738281 390.453125 " fill-opacity="1" fill-rule="nonzero"/><path fill="#4c241d" d="M 279.839844 427.277344 C 279.3125 427.277344 278.785156 427.191406 278.269531 427.015625 L 246.234375 415.914062 C 244.675781 415.375 243.503906 414.066406 243.136719 412.460938 C 242.765625 410.847656 243.25 409.164062 244.417969 407.996094 L 265.347656 387.0625 C 266.515625 385.890625 268.195312 385.40625 269.8125 385.78125 C 271.421875 386.148438 272.726562 387.320312 273.265625 388.878906 L 284.371094 420.914062 C 284.972656 422.648438 284.527344 424.574219 283.230469 425.875 C 282.316406 426.789062 281.089844 427.277344 279.839844 427.277344 Z M 256.605469 409.363281 L 272.078125 414.722656 L 266.714844 399.253906 Z M 256.605469 409.363281 " fill-opacity="1" fill-rule="nonzero"/><path fill="#bf7e68" d="M 268.738281 390.453125 L 256.117188 358.09375 L 215.445312 398.765625 L 247.804688 411.386719 Z M 268.738281 390.453125 " fill-opacity="1" fill-rule="nonzero"/><path fill="#4c241d" d="M 247.804688 416.179688 C 247.222656 416.179688 246.628906 416.070312 246.066406 415.851562 L 213.707031 403.226562 C 212.195312 402.640625 211.089844 401.332031 210.757812 399.746094 C 210.425781 398.164062 210.914062 396.519531 212.058594 395.375 L 252.726562 354.707031 C 253.871094 353.5625 255.523438 353.0625 257.097656 353.40625 C 258.683594 353.738281 259.992188 354.847656 260.582031 356.355469 L 273.199219 388.714844 C 273.890625 390.484375 273.46875 392.496094 272.125 393.84375 L 251.191406 414.777344 C 250.28125 415.691406 249.054688 416.179688 247.804688 416.179688 Z M 224.023438 396.960938 L 246.632812 405.78125 L 263.132812 389.277344 L 254.316406 366.671875 Z M 224.023438 396.960938 " fill-opacity="1" fill-rule="nonzero"/><g fill="#222220" fill-opacity="1"><g transform="translate(83.493875, 88.195998)"><g><path d="M 8.578125 0 L 1.0625 -70.125 L 14.78125 -70.125 L 18.703125 -25.875 L 22.609375 -70.125 L 35.671875 -70.125 L 39.4375 -25.875 L 43.1875 -70.125 L 57.0625 -70.125 L 49.390625 0 L 32.578125 0 L 29.0625 -33.796875 L 25.71875 0 Z M 8.578125 0 "/></g></g></g><g fill="#222220" fill-opacity="1"><g transform="translate(150.264043, 88.195998)"><g><path d="M 2.859375 -59.765625 L 17.140625 -59.765625 L 17.140625 -53.140625 C 17.847656 -55.484375 19.085938 -57.296875 20.859375 -58.578125 C 22.628906 -59.859375 24.820312 -60.5 27.4375 -60.5 L 27.4375 -48.578125 C 25.414062 -48.578125 23.191406 -48.289062 20.765625 -47.71875 C 18.347656 -47.144531 17.140625 -46.476562 17.140625 -45.71875 L 17.140625 0 L 2.859375 0 Z M 2.859375 -59.765625 "/></g></g></g><g fill="#222220" fill-opacity="1"><g transform="translate(186.996416, 88.195998)"><g><path d="M 2.78125 -63.765625 L 2.78125 -73.71875 L 17.0625 -73.71875 L 17.0625 -63.765625 Z M 2.78125 0 L 2.78125 -59.765625 L 17.0625 -59.765625 L 17.0625 0 Z M 2.78125 0 "/></g></g></g><g fill="#222220" fill-opacity="1"><g transform="translate(215.484729, 88.195998)"><g><path d="M 15.1875 0.65625 C 11.425781 0.65625 8.835938 -0.128906 7.421875 -1.703125 C 6.015625 -3.285156 5.3125 -5.820312 5.3125 -9.3125 L 5.3125 -46.609375 L 1.3125 -46.609375 L 1.3125 -57.46875 L 5.3125 -57.46875 L 5.3125 -70.125 L 19.1875 -70.125 L 19.1875 -57.46875 L 23.265625 -57.46875 L 23.265625 -46.609375 L 19.1875 -46.609375 L 19.1875 -13.0625 C 19.1875 -12.03125 19.265625 -11.269531 19.421875 -10.78125 C 19.585938 -10.289062 20.023438 -10.046875 20.734375 -10.046875 C 21.273438 -10.046875 21.789062 -10.070312 22.28125 -10.125 C 22.769531 -10.175781 23.097656 -10.203125 23.265625 -10.203125 L 23.265625 -0.40625 C 22.453125 -0.1875 21.269531 0.0390625 19.71875 0.28125 C 18.164062 0.53125 16.65625 0.65625 15.1875 0.65625 Z M 15.1875 0.65625 "/></g></g></g><g fill="#222220" fill-opacity="1"><g transform="translate(249.033744, 88.195998)"><g><path d="M 19.59375 0.65625 C 13.445312 0.65625 9.039062 -1.03125 6.375 -4.40625 C 3.707031 -7.78125 2.375 -12.816406 2.375 -19.515625 L 2.375 -43.515625 C 2.375 -49.015625 3.953125 -53.207031 7.109375 -56.09375 C 10.265625 -58.976562 14.671875 -60.421875 20.328125 -60.421875 C 31.816406 -60.421875 37.5625 -54.785156 37.5625 -43.515625 L 37.5625 -39.1875 C 37.5625 -34.832031 37.503906 -31.296875 37.390625 -28.578125 L 16.65625 -28.578125 L 16.65625 -16.984375 C 16.65625 -14.910156 16.875 -13.289062 17.3125 -12.125 C 17.75 -10.957031 18.671875 -10.375 20.078125 -10.375 C 21.171875 -10.375 21.945312 -10.695312 22.40625 -11.34375 C 22.875 -12 23.144531 -12.75 23.21875 -13.59375 C 23.300781 -14.4375 23.34375 -15.675781 23.34375 -17.3125 L 23.34375 -23.109375 L 37.5625 -23.109375 L 37.5625 -19.671875 C 37.5625 -12.703125 36.210938 -7.570312 33.515625 -4.28125 C 30.816406 -0.988281 26.175781 0.65625 19.59375 0.65625 Z M 23.34375 -35.671875 L 23.34375 -43.34375 C 23.34375 -47.644531 22.285156 -49.796875 20.171875 -49.796875 C 17.773438 -49.796875 16.578125 -47.644531 16.578125 -43.34375 L 16.578125 -35.671875 Z M 23.34375 -35.671875 "/></g></g></g><g fill="#222220" fill-opacity="1"><g transform="translate(297.520053, 88.195998)"><g/></g></g><g fill="#222220" fill-opacity="1"><g transform="translate(325.273742, 88.195998)"><g><path d="M 14.203125 0.8125 C 10.015625 0.8125 6.832031 -0.679688 4.65625 -3.671875 C 2.476562 -6.671875 1.390625 -10.5625 1.390625 -15.34375 C 1.390625 -20.675781 2.148438 -24.960938 3.671875 -28.203125 C 5.191406 -31.441406 7.585938 -34.285156 10.859375 -36.734375 C 8.191406 -41.960938 6.859375 -46.484375 6.859375 -50.296875 C 6.859375 -54.265625 8.148438 -57.378906 10.734375 -59.640625 C 13.316406 -61.898438 16.648438 -63.03125 20.734375 -63.03125 C 24.765625 -63.03125 28.070312 -61.953125 30.65625 -59.796875 C 33.238281 -57.648438 34.53125 -54.644531 34.53125 -50.78125 C 34.53125 -45.125 31.398438 -39.816406 25.140625 -34.859375 L 27.671875 -28.90625 C 29.203125 -32.925781 31.488281 -36.054688 34.53125 -38.296875 L 40.078125 -29.640625 C 36.867188 -27.128906 34.257812 -22.988281 32.25 -17.21875 L 39.34375 0 L 25.796875 0 L 24.328125 -3.84375 C 23.179688 -2.476562 21.722656 -1.359375 19.953125 -0.484375 C 18.191406 0.378906 16.273438 0.8125 14.203125 0.8125 Z M 22.203125 -44.984375 C 22.742188 -45.578125 23.234375 -46.429688 23.671875 -47.546875 C 24.109375 -48.671875 24.328125 -49.75 24.328125 -50.78125 C 24.328125 -52.414062 23.539062 -53.234375 21.96875 -53.234375 C 21.3125 -53.234375 20.789062 -53 20.40625 -52.53125 C 20.03125 -52.070312 19.84375 -51.488281 19.84375 -50.78125 C 19.84375 -49.363281 20.410156 -47.1875 21.546875 -44.25 Z M 16.40625 -9.390625 C 17.445312 -9.390625 18.316406 -9.78125 19.015625 -10.5625 C 19.722656 -11.351562 20.1875 -12.269531 20.40625 -13.3125 L 15.59375 -24.90625 L 15.109375 -24.171875 C 14.671875 -23.515625 14.316406 -22.476562 14.046875 -21.0625 C 13.773438 -19.644531 13.640625 -18.257812 13.640625 -16.90625 L 13.640625 -16.484375 C 13.640625 -14.367188 13.800781 -12.65625 14.125 -11.34375 C 14.445312 -10.039062 15.207031 -9.390625 16.40625 -9.390625 Z M 16.40625 -9.390625 "/></g></g></g><g fill="#222220" fill-opacity="1"><g transform="translate(90.430473, 182.556202)"><g><path d="M 19.75 0.65625 C 13.382812 0.65625 8.785156 -0.921875 5.953125 -4.078125 C 3.128906 -7.234375 1.71875 -12.320312 1.71875 -19.34375 L 1.71875 -26.203125 L 15.515625 -26.203125 L 15.515625 -17.46875 C 15.515625 -13.988281 16.628906 -12.25 18.859375 -12.25 C 20.109375 -12.25 20.976562 -12.613281 21.46875 -13.34375 C 21.957031 -14.082031 22.203125 -15.320312 22.203125 -17.0625 C 22.203125 -19.34375 21.929688 -21.234375 21.390625 -22.734375 C 20.847656 -24.234375 20.15625 -25.484375 19.3125 -26.484375 C 18.46875 -27.492188 16.957031 -29.0625 14.78125 -31.1875 L 8.734375 -37.234375 C 4.054688 -41.804688 1.71875 -46.863281 1.71875 -52.40625 C 1.71875 -58.394531 3.085938 -62.953125 5.828125 -66.078125 C 8.578125 -69.210938 12.59375 -70.78125 17.875 -70.78125 C 24.1875 -70.78125 28.726562 -69.101562 31.5 -65.75 C 34.28125 -62.40625 35.671875 -57.171875 35.671875 -50.046875 L 21.390625 -50.046875 L 21.3125 -54.859375 C 21.3125 -55.785156 21.050781 -56.519531 20.53125 -57.0625 C 20.007812 -57.613281 19.289062 -57.890625 18.375 -57.890625 C 17.28125 -57.890625 16.460938 -57.585938 15.921875 -56.984375 C 15.378906 -56.390625 15.109375 -55.570312 15.109375 -54.53125 C 15.109375 -52.25 16.410156 -49.882812 19.015625 -47.4375 L 27.1875 -39.59375 C 29.09375 -37.738281 30.671875 -35.984375 31.921875 -34.328125 C 33.171875 -32.671875 34.175781 -30.710938 34.9375 -28.453125 C 35.695312 -26.191406 36.078125 -23.507812 36.078125 -20.40625 C 36.078125 -13.5 34.8125 -8.257812 32.28125 -4.6875 C 29.757812 -1.125 25.582031 0.65625 19.75 0.65625 Z M 19.75 0.65625 "/></g></g></g><g fill="#222220" fill-opacity="1"><g transform="translate(136.712915, 182.556202)"><g><path d="M 14.375 0.65625 C 9.90625 0.65625 6.835938 -0.675781 5.171875 -3.34375 C 3.515625 -6.007812 2.6875 -9.984375 2.6875 -15.265625 L 2.6875 -59.765625 L 17.0625 -59.765625 L 17.0625 -18.125 C 17.0625 -17.738281 17.0625 -16.71875 17.0625 -15.0625 C 17.0625 -13.40625 17.316406 -12.234375 17.828125 -11.546875 C 18.347656 -10.867188 19.15625 -10.53125 20.25 -10.53125 C 21.71875 -10.53125 22.640625 -11.140625 23.015625 -12.359375 C 23.398438 -13.585938 23.59375 -15.347656 23.59375 -17.640625 L 23.59375 -18.125 L 23.671875 -59.765625 L 37.875 -59.765625 L 37.875 0 L 23.59375 0 L 23.59375 -6.375 C 22.613281 -3.863281 21.46875 -2.0625 20.15625 -0.96875 C 18.851562 0.113281 16.925781 0.65625 14.375 0.65625 Z M 14.375 0.65625 "/></g></g></g><g fill="#222220" fill-opacity="1"><g transform="translate(186.097076, 182.556202)"><g><path d="M 25.96875 0.65625 C 22.039062 0.65625 19.234375 -1.6875 17.546875 -6.375 L 17.546875 0 L 2.859375 0 L 2.859375 -70.53125 L 17.546875 -70.53125 L 17.546875 -56.90625 C 19.835938 -59.25 22.503906 -60.421875 25.546875 -60.421875 C 30.179688 -60.421875 33.503906 -59.046875 35.515625 -56.296875 C 37.523438 -53.546875 38.53125 -49.582031 38.53125 -44.40625 L 38.53125 -15.59375 C 38.53125 -10.695312 37.492188 -6.765625 35.421875 -3.796875 C 33.359375 -0.828125 30.207031 0.65625 25.96875 0.65625 Z M 21.140625 -10.453125 C 22.117188 -10.453125 22.8125 -10.765625 23.21875 -11.390625 C 23.632812 -12.015625 23.878906 -12.800781 23.953125 -13.75 C 24.035156 -14.707031 24.078125 -16.191406 24.078125 -18.203125 L 24.078125 -43.109375 C 24.078125 -45.234375 23.882812 -46.8125 23.5 -47.84375 C 23.125 -48.875 22.3125 -49.390625 21.0625 -49.390625 C 19.695312 -49.390625 18.769531 -48.875 18.28125 -47.84375 C 17.789062 -46.8125 17.546875 -45.285156 17.546875 -43.265625 L 17.546875 -18.203125 C 17.546875 -15.585938 17.765625 -13.640625 18.203125 -12.359375 C 18.640625 -11.085938 19.617188 -10.453125 21.140625 -10.453125 Z M 21.140625 -10.453125 "/></g></g></g><g fill="#222220" fill-opacity="1"><g transform="translate(235.644493, 182.556202)"><g><path d="M 2.859375 -59.765625 L 16.8125 -59.765625 L 16.8125 -52.828125 C 17.46875 -55.378906 18.582031 -57.28125 20.15625 -58.53125 C 21.738281 -59.789062 23.972656 -60.421875 26.859375 -60.421875 C 29.203125 -60.421875 31.226562 -59.890625 32.9375 -58.828125 C 34.65625 -57.765625 35.867188 -56.304688 36.578125 -54.453125 C 37.773438 -56.523438 39.109375 -58.035156 40.578125 -58.984375 C 42.046875 -59.941406 44.085938 -60.421875 46.703125 -60.421875 C 51.378906 -60.421875 54.628906 -58.988281 56.453125 -56.125 C 58.273438 -53.269531 59.1875 -49.117188 59.1875 -43.671875 L 59.03125 0 L 44.65625 0 L 44.65625 -43.921875 C 44.65625 -47.785156 43.675781 -49.71875 41.71875 -49.71875 C 40.351562 -49.71875 39.367188 -49.050781 38.765625 -47.71875 C 38.171875 -46.382812 37.875 -44.789062 37.875 -42.9375 L 37.875 0 L 23.59375 0 L 23.59375 -43.921875 C 23.59375 -45.609375 23.414062 -46.96875 23.0625 -48 C 22.707031 -49.039062 21.957031 -49.5625 20.8125 -49.5625 C 19.34375 -49.5625 18.304688 -48.835938 17.703125 -47.390625 C 17.109375 -45.953125 16.8125 -44.222656 16.8125 -42.203125 L 16.8125 0 L 2.859375 0 Z M 2.859375 -59.765625 "/></g></g></g><g fill="#222220" fill-opacity="1"><g transform="translate(306.169382, 182.556202)"><g><path d="M 2.78125 -63.765625 L 2.78125 -73.71875 L 17.0625 -73.71875 L 17.0625 -63.765625 Z M 2.78125 0 L 2.78125 -59.765625 L 17.0625 -59.765625 L 17.0625 0 Z M 2.78125 0 "/></g></g></g><g fill="#222220" fill-opacity="1"><g transform="translate(334.657682, 182.556202)"><g><path d="M 15.1875 0.65625 C 11.425781 0.65625 8.835938 -0.128906 7.421875 -1.703125 C 6.015625 -3.285156 5.3125 -5.820312 5.3125 -9.3125 L 5.3125 -46.609375 L 1.3125 -46.609375 L 1.3125 -57.46875 L 5.3125 -57.46875 L 5.3125 -70.125 L 19.1875 -70.125 L 19.1875 -57.46875 L 23.265625 -57.46875 L 23.265625 -46.609375 L 19.1875 -46.609375 L 19.1875 -13.0625 C 19.1875 -12.03125 19.265625 -11.269531 19.421875 -10.78125 C 19.585938 -10.289062 20.023438 -10.046875 20.734375 -10.046875 C 21.273438 -10.046875 21.789062 -10.070312 22.28125 -10.125 C 22.769531 -10.175781 23.097656 -10.203125 23.265625 -10.203125 L 23.265625 -0.40625 C 22.453125 -0.1875 21.269531 0.0390625 19.71875 0.28125 C 18.164062 0.53125 16.65625 0.65625 15.1875 0.65625 Z M 15.1875 0.65625 "/></g></g></g></svg>