<svg xmlns="http://www.w3.org/2000/svg" xmlns:xlink="http://www.w3.org/1999/xlink" width="600" zoomAndPan="magnify" viewBox="0 0 450 599.999999" height="800" preserveAspectRatio="xMidYMid meet" version="1.0"><defs><g/></defs><path fill="#e5efef" d="M 315.453125 393.074219 C 315.453125 394.683594 315.414062 396.289062 315.335938 397.898438 C 315.257812 399.503906 315.140625 401.105469 314.980469 402.707031 C 314.824219 404.304688 314.628906 405.902344 314.390625 407.492188 C 314.15625 409.082031 313.878906 410.667969 313.566406 412.242188 C 313.253906 413.820312 312.902344 415.390625 312.511719 416.949219 C 312.121094 418.507812 311.691406 420.058594 311.222656 421.597656 C 310.757812 423.136719 310.253906 424.660156 309.710938 426.175781 C 309.167969 427.691406 308.589844 429.191406 307.976562 430.675781 C 307.359375 432.160156 306.707031 433.628906 306.019531 435.085938 C 305.332031 436.539062 304.609375 437.972656 303.851562 439.390625 C 303.09375 440.808594 302.300781 442.207031 301.476562 443.585938 C 300.648438 444.96875 299.789062 446.324219 298.894531 447.660156 C 298.003906 449 297.078125 450.3125 296.117188 451.605469 C 295.160156 452.894531 294.171875 454.164062 293.152344 455.40625 C 292.132812 456.648438 291.082031 457.867188 290.003906 459.058594 C 288.921875 460.25 287.8125 461.414062 286.675781 462.550781 C 285.539062 463.6875 284.375 464.796875 283.183594 465.875 C 281.992188 466.957031 280.777344 468.007812 279.53125 469.027344 C 278.289062 470.046875 277.023438 471.035156 275.730469 471.992188 C 274.4375 472.949219 273.125 473.875 271.789062 474.769531 C 270.449219 475.664062 269.09375 476.523438 267.714844 477.351562 C 266.335938 478.175781 264.9375 478.96875 263.519531 479.726562 C 262.097656 480.484375 260.664062 481.207031 259.210938 481.894531 C 257.757812 482.582031 256.285156 483.234375 254.800781 483.847656 C 253.316406 484.464844 251.816406 485.042969 250.300781 485.585938 C 248.789062 486.125 247.261719 486.632812 245.722656 487.097656 C 244.183594 487.566406 242.636719 487.992188 241.074219 488.382812 C 239.515625 488.773438 237.945312 489.128906 236.371094 489.441406 C 234.792969 489.753906 233.207031 490.027344 231.617188 490.265625 C 230.027344 490.5 228.433594 490.699219 226.832031 490.855469 C 225.230469 491.011719 223.628906 491.132812 222.023438 491.210938 C 220.417969 491.289062 218.808594 491.328125 217.203125 491.328125 C 215.59375 491.328125 213.988281 491.289062 212.378906 491.210938 C 210.773438 491.132812 209.171875 491.011719 207.570312 490.855469 C 205.96875 490.699219 204.375 490.5 202.785156 490.265625 C 201.195312 490.027344 199.609375 489.753906 198.03125 489.441406 C 196.457031 489.128906 194.886719 488.773438 193.328125 488.382812 C 191.769531 487.992188 190.21875 487.566406 188.679688 487.097656 C 187.140625 486.632812 185.613281 486.125 184.101562 485.585938 C 182.585938 485.042969 181.085938 484.464844 179.601562 483.847656 C 178.117188 483.234375 176.644531 482.582031 175.191406 481.894531 C 173.738281 481.207031 172.304688 480.484375 170.886719 479.726562 C 169.46875 478.96875 168.070312 478.175781 166.6875 477.351562 C 165.308594 476.523438 163.953125 475.664062 162.613281 474.769531 C 161.277344 473.875 159.964844 472.949219 158.671875 471.992188 C 157.378906 471.035156 156.113281 470.046875 154.871094 469.027344 C 153.628906 468.007812 152.410156 466.957031 151.21875 465.875 C 150.027344 464.796875 148.863281 463.6875 147.726562 462.550781 C 146.589844 461.414062 145.480469 460.25 144.402344 459.058594 C 143.320312 457.867188 142.269531 456.648438 141.25 455.40625 C 140.230469 454.164062 139.242188 452.894531 138.285156 451.605469 C 137.324219 450.3125 136.398438 449 135.507812 447.660156 C 134.613281 446.324219 133.753906 444.96875 132.925781 443.585938 C 132.101562 442.207031 131.308594 440.808594 130.550781 439.390625 C 129.792969 437.972656 129.070312 436.539062 128.382812 435.085938 C 127.695312 433.628906 127.042969 432.160156 126.425781 430.675781 C 125.8125 429.191406 125.234375 427.691406 124.691406 426.175781 C 124.148438 424.660156 123.644531 423.136719 123.179688 421.597656 C 122.710938 420.058594 122.285156 418.507812 121.894531 416.949219 C 121.503906 415.390625 121.148438 413.820312 120.835938 412.242188 C 120.523438 410.667969 120.246094 409.082031 120.011719 407.492188 C 119.777344 405.902344 119.578125 404.304688 119.421875 402.707031 C 119.265625 401.105469 119.144531 399.503906 119.066406 397.898438 C 118.988281 396.289062 118.949219 394.683594 118.949219 393.074219 C 118.949219 391.46875 118.988281 389.859375 119.066406 388.253906 C 119.144531 386.648438 119.265625 385.046875 119.421875 383.445312 C 119.578125 381.84375 119.777344 380.25 120.011719 378.660156 C 120.246094 377.066406 120.523438 375.484375 120.835938 373.90625 C 121.148438 372.332031 121.503906 370.761719 121.894531 369.203125 C 122.285156 367.640625 122.710938 366.09375 123.179688 364.554688 C 123.644531 363.015625 124.148438 361.488281 124.691406 359.976562 C 125.234375 358.460938 125.8125 356.960938 126.425781 355.476562 C 127.042969 353.988281 127.695312 352.519531 128.382812 351.066406 C 129.070312 349.613281 129.792969 348.175781 130.550781 346.757812 C 131.308594 345.339844 132.101562 343.941406 132.925781 342.5625 C 133.753906 341.183594 134.613281 339.824219 135.507812 338.488281 C 136.398438 337.152344 137.324219 335.835938 138.285156 334.546875 C 139.242188 333.253906 140.230469 331.988281 141.25 330.746094 C 142.269531 329.5 143.320312 328.285156 144.402344 327.09375 C 145.480469 325.902344 146.589844 324.738281 147.726562 323.601562 C 148.863281 322.464844 150.027344 321.355469 151.21875 320.273438 C 152.410156 319.195312 153.628906 318.144531 154.871094 317.125 C 156.113281 316.105469 157.378906 315.117188 158.671875 314.15625 C 159.964844 313.199219 161.277344 312.273438 162.613281 311.382812 C 163.953125 310.488281 165.308594 309.628906 166.6875 308.800781 C 168.070312 307.972656 169.46875 307.183594 170.886719 306.425781 C 172.304688 305.664062 173.738281 304.941406 175.191406 304.253906 C 176.644531 303.566406 178.117188 302.917969 179.601562 302.300781 C 181.085938 301.6875 182.585938 301.109375 184.101562 300.566406 C 185.613281 300.023438 187.140625 299.519531 188.679688 299.054688 C 190.21875 298.585938 191.769531 298.15625 193.328125 297.765625 C 194.886719 297.375 196.457031 297.023438 198.03125 296.710938 C 199.609375 296.398438 201.195312 296.121094 202.785156 295.886719 C 204.375 295.648438 205.96875 295.453125 207.570312 295.296875 C 209.171875 295.136719 210.773438 295.019531 212.378906 294.941406 C 213.988281 294.863281 215.59375 294.824219 217.203125 294.824219 C 218.808594 294.824219 220.417969 294.863281 222.023438 294.941406 C 223.628906 295.019531 225.230469 295.136719 226.832031 295.296875 C 228.433594 295.453125 230.027344 295.648438 231.617188 295.886719 C 233.207031 296.121094 234.792969 296.398438 236.371094 296.710938 C 237.945312 297.023438 239.515625 297.375 241.074219 297.765625 C 242.636719 298.15625 244.183594 298.585938 245.722656 299.054688 C 247.261719 299.519531 248.789062 300.023438 250.300781 300.566406 C 251.816406 301.109375 253.316406 301.6875 254.800781 302.300781 C 256.285156 302.917969 257.757812 303.566406 259.210938 304.253906 C 260.664062 304.941406 262.097656 305.664062 263.519531 306.425781 C 264.9375 307.183594 266.335938 307.972656 267.714844 308.800781 C 269.09375 309.628906 270.449219 310.488281 271.789062 311.382812 C 273.125 312.273438 274.4375 313.199219 275.730469 314.15625 C 277.023438 315.117188 278.289062 316.105469 279.53125 317.125 C 280.777344 318.144531 281.992188 319.195312 283.183594 320.273438 C 284.375 321.355469 285.539062 322.464844 286.675781 323.601562 C 287.8125 324.738281 288.921875 325.902344 290.003906 327.09375 C 291.082031 328.285156 292.132812 329.5 293.152344 330.746094 C 294.171875 331.988281 295.160156 333.253906 296.117188 334.546875 C 297.078125 335.835938 298.003906 337.152344 298.894531 338.488281 C 299.789062 339.824219 300.648438 341.183594 301.476562 342.5625 C 302.300781 343.941406 303.09375 345.339844 303.851562 346.757812 C 304.609375 348.175781 305.332031 349.613281 306.019531 351.066406 C 306.707031 352.519531 307.359375 353.988281 307.976562 355.476562 C 308.589844 356.960938 309.167969 358.460938 309.710938 359.976562 C 310.253906 361.488281 310.757812 363.015625 311.222656 364.554688 C 311.691406 366.09375 312.121094 367.640625 312.511719 369.203125 C 312.902344 370.761719 313.253906 372.332031 313.566406 373.90625 C 313.878906 375.484375 314.15625 377.066406 314.390625 378.660156 C 314.628906 380.25 314.824219 381.84375 314.980469 383.445312 C 315.140625 385.046875 315.257812 386.648438 315.335938 388.253906 C 315.414062 389.859375 315.453125 391.46875 315.453125 393.074219 Z M 315.453125 393.074219 " fill-opacity="1" fill-rule="nonzero"/><path fill="#4c241d" d="M 288.035156 289.695312 C 285.511719 289.695312 283.464844 287.652344 283.464844 285.125 L 283.464844 278.660156 C 283.464844 276.136719 285.511719 274.089844 288.035156 274.089844 C 290.558594 274.089844 292.605469 276.136719 292.605469 278.660156 L 292.605469 285.125 C 292.605469 287.652344 290.558594 289.695312 288.035156 289.695312 Z M 288.035156 289.695312 " fill-opacity="1" fill-rule="nonzero"/><path fill="#4c241d" d="M 288.035156 315.558594 C 285.511719 315.558594 283.464844 313.511719 283.464844 310.988281 L 283.464844 304.519531 C 283.464844 301.996094 285.511719 299.949219 288.035156 299.949219 C 290.558594 299.949219 292.605469 301.996094 292.605469 304.519531 L 292.605469 310.988281 C 292.605469 313.511719 290.558594 315.558594 288.035156 315.558594 Z M 288.035156 315.558594 " fill-opacity="1" fill-rule="nonzero"/><path fill="#4c241d" d="M 278.335938 299.390625 L 271.871094 299.390625 C 269.347656 299.390625 267.300781 297.347656 267.300781 294.824219 C 267.300781 292.296875 269.347656 290.253906 271.871094 290.253906 L 278.335938 290.253906 C 280.863281 290.253906 282.90625 292.296875 282.90625 294.824219 C 282.90625 297.347656 280.863281 299.390625 278.335938 299.390625 Z M 278.335938 299.390625 " fill-opacity="1" fill-rule="nonzero"/><path fill="#4c241d" d="M 304.199219 299.390625 L 297.734375 299.390625 C 295.210938 299.390625 293.164062 297.347656 293.164062 294.824219 C 293.164062 292.296875 295.210938 290.253906 297.734375 290.253906 L 304.199219 290.253906 C 306.722656 290.253906 308.769531 292.296875 308.769531 294.824219 C 308.769531 297.347656 306.722656 299.390625 304.199219 299.390625 Z M 304.199219 299.390625 " fill-opacity="1" fill-rule="nonzero"/><path fill="#4c241d" d="M 347.445312 527.886719 L 210.347656 527.886719 C 207.824219 527.886719 205.777344 525.84375 205.777344 523.316406 C 205.777344 520.792969 207.824219 518.75 210.347656 518.75 L 347.445312 518.75 C 349.96875 518.75 352.015625 520.792969 352.015625 523.316406 C 352.015625 525.84375 349.96875 527.886719 347.445312 527.886719 Z M 347.445312 527.886719 " fill-opacity="1" fill-rule="nonzero"/><path fill="#9dc1e4" d="M 347.957031 377.082031 L 132.144531 377.082031 C 124.855469 377.082031 118.949219 382.5 118.949219 389.191406 L 118.949219 523.316406 L 361.152344 523.316406 L 361.152344 389.191406 C 361.152344 382.5 355.246094 377.082031 347.957031 377.082031 Z M 347.957031 377.082031 " fill-opacity="1" fill-rule="nonzero"/><path fill="#4c241d" d="M 361.152344 527.886719 L 118.949219 527.886719 C 116.425781 527.886719 114.378906 525.84375 114.378906 523.316406 L 114.378906 389.1875 C 114.378906 379.992188 122.347656 372.511719 132.144531 372.511719 L 347.957031 372.511719 C 357.753906 372.511719 365.722656 379.992188 365.722656 389.1875 L 365.722656 523.316406 C 365.722656 525.84375 363.675781 527.886719 361.152344 527.886719 Z M 123.519531 518.75 L 356.582031 518.75 L 356.582031 389.1875 C 356.582031 385.035156 352.714844 381.652344 347.957031 381.652344 L 132.144531 381.652344 C 127.386719 381.652344 123.519531 385.035156 123.519531 389.1875 Z M 123.519531 518.75 " fill-opacity="1" fill-rule="nonzero"/><path fill="#b5a19c" d="M 100.667969 523.316406 L 100.667969 539.007812 C 100.667969 545.484375 105.921875 550.738281 112.398438 550.738281 L 367.703125 550.738281 C 374.183594 550.738281 379.433594 545.484375 379.433594 539.007812 L 379.433594 523.316406 Z M 100.667969 523.316406 " fill-opacity="1" fill-rule="nonzero"/><path fill="#4c241d" d="M 367.703125 555.308594 L 112.398438 555.308594 C 103.410156 555.308594 96.097656 547.992188 96.097656 539.003906 L 96.097656 523.316406 C 96.097656 520.792969 98.144531 518.75 100.667969 518.75 L 379.433594 518.75 C 381.957031 518.75 384.003906 520.792969 384.003906 523.316406 L 384.003906 539.003906 C 384.003906 547.992188 376.691406 555.308594 367.703125 555.308594 Z M 105.238281 527.886719 L 105.238281 539.003906 C 105.238281 542.953125 108.453125 546.167969 112.398438 546.167969 L 367.703125 546.167969 C 371.652344 546.167969 374.863281 542.953125 374.863281 539.003906 L 374.863281 527.886719 Z M 105.238281 527.886719 " fill-opacity="1" fill-rule="nonzero"/><path fill="#4c241d" d="M 103.765625 329.066406 C 103.765625 329.40625 103.730469 329.746094 103.664062 330.078125 C 103.597656 330.410156 103.5 330.734375 103.371094 331.046875 C 103.242188 331.363281 103.082031 331.660156 102.894531 331.941406 C 102.703125 332.226562 102.488281 332.488281 102.25 332.726562 C 102.007812 332.96875 101.746094 333.183594 101.464844 333.371094 C 101.183594 333.558594 100.882812 333.71875 100.570312 333.847656 C 100.257812 333.980469 99.933594 334.078125 99.601562 334.144531 C 99.265625 334.210938 98.929688 334.242188 98.589844 334.242188 C 98.25 334.242188 97.914062 334.210938 97.582031 334.144531 C 97.246094 334.078125 96.925781 333.980469 96.609375 333.847656 C 96.296875 333.71875 96 333.558594 95.714844 333.371094 C 95.433594 333.183594 95.171875 332.96875 94.933594 332.726562 C 94.691406 332.488281 94.476562 332.226562 94.289062 331.941406 C 94.097656 331.660156 93.941406 331.363281 93.808594 331.046875 C 93.679688 330.734375 93.582031 330.410156 93.515625 330.078125 C 93.449219 329.746094 93.417969 329.40625 93.417969 329.066406 C 93.417969 328.726562 93.449219 328.390625 93.515625 328.058594 C 93.582031 327.726562 93.679688 327.402344 93.808594 327.089844 C 93.941406 326.773438 94.097656 326.476562 94.289062 326.195312 C 94.476562 325.910156 94.691406 325.648438 94.933594 325.410156 C 95.171875 325.167969 95.433594 324.953125 95.714844 324.765625 C 96 324.578125 96.296875 324.417969 96.609375 324.289062 C 96.925781 324.15625 97.246094 324.058594 97.582031 323.992188 C 97.914062 323.925781 98.25 323.894531 98.589844 323.894531 C 98.929688 323.894531 99.265625 323.925781 99.601562 323.992188 C 99.933594 324.058594 100.257812 324.15625 100.570312 324.289062 C 100.882812 324.417969 101.183594 324.578125 101.464844 324.765625 C 101.746094 324.953125 102.007812 325.167969 102.25 325.410156 C 102.488281 325.648438 102.703125 325.910156 102.894531 326.195312 C 103.082031 326.476562 103.242188 326.773438 103.371094 327.089844 C 103.5 327.402344 103.597656 327.726562 103.664062 328.058594 C 103.730469 328.390625 103.765625 328.726562 103.765625 329.066406 Z M 103.765625 329.066406 " fill-opacity="1" fill-rule="nonzero"/><path fill="#6b4f5b" d="M 283.464844 523.316406 L 192.066406 523.316406 C 192.066406 530.890625 198.207031 537.027344 205.777344 537.027344 L 269.753906 537.027344 C 277.328125 537.027344 283.464844 530.890625 283.464844 523.316406 Z M 283.464844 523.316406 " fill-opacity="1" fill-rule="nonzero"/><path fill="#4c241d" d="M 269.753906 541.597656 L 205.777344 541.597656 C 195.699219 541.597656 187.496094 533.398438 187.496094 523.316406 C 187.496094 520.792969 189.542969 518.75 192.066406 518.75 L 283.464844 518.75 C 285.988281 518.75 288.035156 520.792969 288.035156 523.316406 C 288.035156 533.398438 279.835938 541.597656 269.753906 541.597656 Z M 197.863281 527.886719 C 199.449219 530.621094 202.402344 532.457031 205.777344 532.457031 L 269.757812 532.457031 C 273.132812 532.457031 276.085938 530.621094 277.667969 527.886719 Z M 197.863281 527.886719 " fill-opacity="1" fill-rule="nonzero"/><path fill="#4c241d" d="M 143.691406 319.5625 C 142.523438 319.5625 141.351562 319.117188 140.460938 318.226562 L 127.535156 305.300781 C 125.75 303.515625 125.75 300.625 127.535156 298.839844 C 129.320312 297.054688 132.210938 297.054688 133.996094 298.839844 L 146.921875 311.761719 C 148.707031 313.546875 148.707031 316.441406 146.921875 318.226562 C 146.027344 319.117188 144.859375 319.5625 143.691406 319.5625 Z M 143.691406 319.5625 " fill-opacity="1" fill-rule="nonzero"/><path fill="#4c241d" d="M 130.765625 319.5625 C 129.597656 319.5625 128.425781 319.117188 127.535156 318.226562 C 125.75 316.441406 125.75 313.546875 127.535156 311.761719 L 140.457031 298.839844 C 142.242188 297.054688 145.136719 297.054688 146.921875 298.839844 C 148.707031 300.625 148.707031 303.515625 146.921875 305.300781 L 133.996094 318.226562 C 133.105469 319.117188 131.9375 319.5625 130.765625 319.5625 Z M 130.765625 319.5625 " fill-opacity="1" fill-rule="nonzero"/><path fill="#ffffff" d="M 173.789062 349.660156 L 301.746094 349.660156 L 301.746094 523.316406 L 173.789062 523.316406 Z M 173.789062 349.660156 " fill-opacity="1" fill-rule="nonzero"/><path fill="#4c241d" d="M 301.746094 527.886719 L 173.789062 527.886719 C 171.261719 527.886719 169.21875 525.84375 169.21875 523.316406 L 169.21875 349.660156 C 169.21875 347.136719 171.261719 345.089844 173.789062 345.089844 L 301.746094 345.089844 C 304.269531 345.089844 306.316406 347.136719 306.316406 349.660156 L 306.316406 523.316406 C 306.316406 525.84375 304.269531 527.886719 301.746094 527.886719 Z M 178.355469 518.75 L 297.175781 518.75 L 297.175781 354.230469 L 178.355469 354.230469 Z M 178.355469 518.75 " fill-opacity="1" fill-rule="nonzero"/><path fill="#4c241d" d="M 228.625 418.210938 C 226.101562 418.210938 224.054688 416.167969 224.054688 413.640625 L 224.054688 377.082031 C 224.054688 374.554688 226.101562 372.511719 228.625 372.511719 C 231.148438 372.511719 233.195312 374.554688 233.195312 377.082031 L 233.195312 413.640625 C 233.195312 416.167969 231.148438 418.210938 228.625 418.210938 Z M 228.625 418.210938 " fill-opacity="1" fill-rule="nonzero"/><path fill="#4c241d" d="M 237.765625 399.929688 L 228.625 399.929688 C 226.101562 399.929688 224.054688 397.886719 224.054688 395.359375 L 224.054688 377.082031 C 224.054688 374.554688 226.101562 372.511719 228.625 372.511719 L 237.765625 372.511719 C 245.324219 372.511719 251.476562 378.660156 251.476562 386.21875 C 251.476562 393.78125 245.328125 399.929688 237.765625 399.929688 Z M 233.195312 390.789062 L 237.765625 390.789062 C 240.285156 390.789062 242.335938 388.742188 242.335938 386.21875 C 242.335938 383.699219 240.285156 381.652344 237.765625 381.652344 L 233.195312 381.652344 Z M 233.195312 390.789062 " fill-opacity="1" fill-rule="nonzero"/><path fill="#4c241d" d="M 278.894531 418.210938 L 271.304688 418.210938 C 262.890625 418.210938 256.046875 411.363281 256.046875 402.953125 L 256.046875 387.769531 C 256.046875 379.359375 262.890625 372.511719 271.304688 372.511719 L 278.894531 372.511719 C 281.417969 372.511719 283.464844 374.554688 283.464844 377.082031 C 283.464844 379.609375 281.417969 381.652344 278.894531 381.652344 L 271.304688 381.652344 C 267.929688 381.652344 265.183594 384.394531 265.183594 387.769531 L 265.183594 402.953125 C 265.183594 406.324219 267.929688 409.070312 271.304688 409.070312 L 278.894531 409.070312 C 281.417969 409.070312 283.464844 411.113281 283.464844 413.640625 C 283.464844 416.167969 281.417969 418.210938 278.894531 418.210938 Z M 278.894531 418.210938 " fill-opacity="1" fill-rule="nonzero"/><path fill="#4c241d" d="M 237.765625 418.210938 L 228.625 418.210938 C 226.101562 418.210938 224.054688 416.167969 224.054688 413.640625 L 224.054688 395.359375 C 224.054688 392.835938 226.101562 390.789062 228.625 390.789062 L 237.765625 390.789062 C 245.324219 390.789062 251.476562 396.941406 251.476562 404.5 C 251.476562 412.058594 245.328125 418.210938 237.765625 418.210938 Z M 233.195312 409.070312 L 237.765625 409.070312 C 240.285156 409.070312 242.335938 407.023438 242.335938 404.5 C 242.335938 401.980469 240.285156 399.929688 237.765625 399.929688 L 233.195312 399.929688 Z M 233.195312 409.070312 " fill-opacity="1" fill-rule="nonzero"/><path fill="#4c241d" d="M 214.910156 418.210938 C 212.765625 418.210938 210.851562 416.691406 210.429688 414.507812 L 204.203125 382.238281 C 204.074219 381.550781 202.910156 381.558594 202.78125 382.234375 L 196.554688 414.507812 C 196.078125 416.988281 193.695312 418.625 191.199219 418.125 C 188.722656 417.648438 187.101562 415.25 187.578125 412.773438 L 193.804688 380.507812 C 194.695312 375.875 198.769531 372.511719 203.492188 372.511719 C 208.214844 372.511719 212.289062 375.875 213.179688 380.511719 L 219.402344 412.773438 C 219.882812 415.25 218.261719 417.648438 215.78125 418.125 C 215.488281 418.183594 215.199219 418.210938 214.910156 418.210938 Z M 214.910156 418.210938 " fill-opacity="1" fill-rule="nonzero"/><path fill="#4c241d" d="M 210.347656 399.929688 L 196.636719 399.929688 C 194.113281 399.929688 192.066406 397.886719 192.066406 395.359375 C 192.066406 392.835938 194.113281 390.789062 196.636719 390.789062 L 210.347656 390.789062 C 212.871094 390.789062 214.917969 392.835938 214.917969 395.359375 C 214.917969 397.886719 212.871094 399.929688 210.347656 399.929688 Z M 210.347656 399.929688 " fill-opacity="1" fill-rule="nonzero"/><path fill="#a9ba5a" d="M 267.46875 463.910156 L 203.492188 463.910156 C 199.707031 463.910156 196.636719 460.839844 196.636719 457.054688 C 196.636719 453.269531 199.707031 450.199219 203.492188 450.199219 L 267.46875 450.199219 C 271.257812 450.199219 274.324219 453.269531 274.324219 457.054688 C 274.324219 460.839844 271.257812 463.910156 267.46875 463.910156 Z M 267.46875 463.910156 " fill-opacity="1" fill-rule="nonzero"/><path fill="#4c241d" d="M 267.46875 468.480469 L 203.492188 468.480469 C 197.191406 468.480469 192.066406 463.355469 192.066406 457.054688 C 192.066406 450.753906 197.191406 445.628906 203.492188 445.628906 L 267.46875 445.628906 C 273.769531 445.628906 278.894531 450.753906 278.894531 457.054688 C 278.894531 463.355469 273.769531 468.480469 267.46875 468.480469 Z M 203.492188 454.769531 C 202.230469 454.769531 201.207031 455.796875 201.207031 457.054688 C 201.207031 458.3125 202.230469 459.339844 203.492188 459.339844 L 267.46875 459.339844 C 268.730469 459.339844 269.753906 458.3125 269.753906 457.054688 C 269.753906 455.796875 268.730469 454.769531 267.46875 454.769531 Z M 203.492188 454.769531 " fill-opacity="1" fill-rule="nonzero"/><path fill="#4c241d" d="M 224.054688 486.757812 L 201.207031 486.757812 C 198.683594 486.757812 196.636719 484.714844 196.636719 482.1875 C 196.636719 479.664062 198.683594 477.617188 201.207031 477.617188 L 224.054688 477.617188 C 226.578125 477.617188 228.625 479.664062 228.625 482.1875 C 228.625 484.714844 226.578125 486.757812 224.054688 486.757812 Z M 224.054688 486.757812 " fill-opacity="1" fill-rule="nonzero"/><path fill="#4c241d" d="M 274.324219 505.039062 L 201.207031 505.039062 C 198.683594 505.039062 196.636719 502.996094 196.636719 500.46875 C 196.636719 497.941406 198.683594 495.898438 201.207031 495.898438 L 274.324219 495.898438 C 276.847656 495.898438 278.894531 497.941406 278.894531 500.46875 C 278.894531 502.996094 276.847656 505.039062 274.324219 505.039062 Z M 274.324219 505.039062 " fill-opacity="1" fill-rule="nonzero"/><g fill="#222220" fill-opacity="1"><g transform="translate(167.007159, 91.195037)"><g><path d="M 16.734375 0.625 C 11.910156 0.625 8.316406 -1.070312 5.953125 -4.46875 C 3.585938 -7.875 2.40625 -13.023438 2.40625 -19.921875 L 2.40625 -48.734375 C 2.40625 -54.910156 3.78125 -59.578125 6.53125 -62.734375 C 9.289062 -65.898438 13.394531 -67.484375 18.84375 -67.484375 C 23.25 -67.484375 26.671875 -66.601562 29.109375 -64.84375 C 31.546875 -63.082031 33.234375 -60.515625 34.171875 -57.140625 C 35.109375 -53.765625 35.578125 -49.429688 35.578125 -44.140625 L 22.5 -44.140625 L 22.5 -50.125 C 22.5 -51.738281 22.273438 -52.984375 21.828125 -53.859375 C 21.390625 -54.742188 20.597656 -55.1875 19.453125 -55.1875 C 16.910156 -55.1875 15.640625 -53.523438 15.640625 -50.203125 L 15.640625 -17.828125 C 15.640625 -15.804688 15.898438 -14.273438 16.421875 -13.234375 C 16.941406 -12.191406 17.851562 -11.671875 19.15625 -11.671875 C 20.445312 -11.671875 21.351562 -12.191406 21.875 -13.234375 C 22.394531 -14.273438 22.65625 -15.804688 22.65625 -17.828125 L 22.65625 -27.40625 L 19.078125 -27.40625 L 19.078125 -38.921875 L 35.421875 -38.921875 L 35.421875 0 L 30.046875 0 L 27.796875 -5.609375 C 25.398438 -1.453125 21.710938 0.625 16.734375 0.625 Z M 16.734375 0.625 "/></g></g></g><g fill="#222220" fill-opacity="1"><g transform="translate(213.0042, 91.195037)"><g><path d="M 18.6875 0.625 C 12.820312 0.625 8.613281 -0.984375 6.0625 -4.203125 C 3.519531 -7.421875 2.25 -12.222656 2.25 -18.609375 L 2.25 -41.484375 C 2.25 -46.734375 3.753906 -50.734375 6.765625 -53.484375 C 9.773438 -56.234375 13.984375 -57.609375 19.390625 -57.609375 C 30.335938 -57.609375 35.8125 -52.234375 35.8125 -41.484375 L 35.8125 -37.359375 C 35.8125 -33.210938 35.757812 -29.84375 35.65625 -27.25 L 15.875 -27.25 L 15.875 -16.1875 C 15.875 -14.21875 16.082031 -12.675781 16.5 -11.5625 C 16.914062 -10.445312 17.800781 -9.890625 19.15625 -9.890625 C 20.1875 -9.890625 20.921875 -10.195312 21.359375 -10.8125 C 21.804688 -11.4375 22.066406 -12.148438 22.140625 -12.953125 C 22.222656 -13.765625 22.265625 -14.945312 22.265625 -16.5 L 22.265625 -22.03125 L 35.8125 -22.03125 L 35.8125 -18.765625 C 35.8125 -12.117188 34.523438 -7.222656 31.953125 -4.078125 C 29.390625 -0.941406 24.96875 0.625 18.6875 0.625 Z M 22.265625 -34.015625 L 22.265625 -41.328125 C 22.265625 -45.429688 21.253906 -47.484375 19.234375 -47.484375 C 16.941406 -47.484375 15.796875 -45.429688 15.796875 -41.328125 L 15.796875 -34.015625 Z M 22.265625 -34.015625 "/></g></g></g><g fill="#222220" fill-opacity="1"><g transform="translate(259.234729, 91.195037)"><g><path d="M 14.484375 0.625 C 10.898438 0.625 8.429688 -0.125 7.078125 -1.625 C 5.734375 -3.132812 5.0625 -5.550781 5.0625 -8.875 L 5.0625 -44.453125 L 1.25 -44.453125 L 1.25 -54.796875 L 5.0625 -54.796875 L 5.0625 -66.875 L 18.296875 -66.875 L 18.296875 -54.796875 L 22.1875 -54.796875 L 22.1875 -44.453125 L 18.296875 -44.453125 L 18.296875 -12.453125 C 18.296875 -11.460938 18.375 -10.734375 18.53125 -10.265625 C 18.6875 -9.804688 19.097656 -9.578125 19.765625 -9.578125 C 20.285156 -9.578125 20.78125 -9.601562 21.25 -9.65625 C 21.71875 -9.707031 22.03125 -9.734375 22.1875 -9.734375 L 22.1875 -0.390625 C 21.40625 -0.179688 20.273438 0.0351562 18.796875 0.265625 C 17.316406 0.503906 15.878906 0.625 14.484375 0.625 Z M 14.484375 0.625 "/></g></g></g><g fill="#222220" fill-opacity="1"><g transform="translate(46.725576, 181.165233)"><g><path d="M 2.953125 0 L 2.953125 -66.875 L 29.734375 -66.875 L 29.734375 -53.875 L 16.421875 -53.875 L 16.421875 -43.203125 L 29.03125 -43.203125 L 29.03125 -30.359375 L 16.421875 -30.359375 L 16.421875 0 Z M 2.953125 0 "/></g></g></g><g fill="#222220" fill-opacity="1"><g transform="translate(86.029505, 181.165233)"><g><path d="M 18.6875 0.625 C 12.820312 0.625 8.613281 -0.984375 6.0625 -4.203125 C 3.519531 -7.421875 2.25 -12.222656 2.25 -18.609375 L 2.25 -41.484375 C 2.25 -46.734375 3.753906 -50.734375 6.765625 -53.484375 C 9.773438 -56.234375 13.984375 -57.609375 19.390625 -57.609375 C 30.335938 -57.609375 35.8125 -52.234375 35.8125 -41.484375 L 35.8125 -37.359375 C 35.8125 -33.210938 35.757812 -29.84375 35.65625 -27.25 L 15.875 -27.25 L 15.875 -16.1875 C 15.875 -14.21875 16.082031 -12.675781 16.5 -11.5625 C 16.914062 -10.445312 17.800781 -9.890625 19.15625 -9.890625 C 20.1875 -9.890625 20.921875 -10.195312 21.359375 -10.8125 C 21.804688 -11.4375 22.066406 -12.148438 22.140625 -12.953125 C 22.222656 -13.765625 22.265625 -14.945312 22.265625 -16.5 L 22.265625 -22.03125 L 35.8125 -22.03125 L 35.8125 -18.765625 C 35.8125 -12.117188 34.523438 -7.222656 31.953125 -4.078125 C 29.390625 -0.941406 24.96875 0.625 18.6875 0.625 Z M 22.265625 -34.015625 L 22.265625 -41.328125 C 22.265625 -45.429688 21.253906 -47.484375 19.234375 -47.484375 C 16.941406 -47.484375 15.796875 -45.429688 15.796875 -41.328125 L 15.796875 -34.015625 Z M 22.265625 -34.015625 "/></g></g></g><g fill="#222220" fill-opacity="1"><g transform="translate(132.260034, 181.165233)"><g><path d="M 18.6875 0.625 C 12.820312 0.625 8.613281 -0.984375 6.0625 -4.203125 C 3.519531 -7.421875 2.25 -12.222656 2.25 -18.609375 L 2.25 -41.484375 C 2.25 -46.734375 3.753906 -50.734375 6.765625 -53.484375 C 9.773438 -56.234375 13.984375 -57.609375 19.390625 -57.609375 C 30.335938 -57.609375 35.8125 -52.234375 35.8125 -41.484375 L 35.8125 -37.359375 C 35.8125 -33.210938 35.757812 -29.84375 35.65625 -27.25 L 15.875 -27.25 L 15.875 -16.1875 C 15.875 -14.21875 16.082031 -12.675781 16.5 -11.5625 C 16.914062 -10.445312 17.800781 -9.890625 19.15625 -9.890625 C 20.1875 -9.890625 20.921875 -10.195312 21.359375 -10.8125 C 21.804688 -11.4375 22.066406 -12.148438 22.140625 -12.953125 C 22.222656 -13.765625 22.265625 -14.945312 22.265625 -16.5 L 22.265625 -22.03125 L 35.8125 -22.03125 L 35.8125 -18.765625 C 35.8125 -12.117188 34.523438 -7.222656 31.953125 -4.078125 C 29.390625 -0.941406 24.96875 0.625 18.6875 0.625 Z M 22.265625 -34.015625 L 22.265625 -41.328125 C 22.265625 -45.429688 21.253906 -47.484375 19.234375 -47.484375 C 16.941406 -47.484375 15.796875 -45.429688 15.796875 -41.328125 L 15.796875 -34.015625 Z M 22.265625 -34.015625 "/></g></g></g><g fill="#222220" fill-opacity="1"><g transform="translate(178.490555, 181.165233)"><g><path d="M 13.9375 0.625 C 10.613281 0.625 8.109375 -0.164062 6.421875 -1.75 C 4.734375 -3.332031 3.613281 -5.429688 3.0625 -8.046875 C 2.519531 -10.671875 2.25 -14.035156 2.25 -18.140625 L 2.40625 -43.828125 C 2.40625 -47.867188 3.429688 -51.175781 5.484375 -53.75 C 7.535156 -56.320312 10.429688 -57.609375 14.171875 -57.609375 C 17.847656 -57.609375 20.597656 -56.390625 22.421875 -53.953125 L 22.421875 -67.25 L 36.046875 -67.25 L 36.046875 0 L 22.421875 0 L 22.421875 -6.078125 C 21.640625 -3.835938 20.585938 -2.160156 19.265625 -1.046875 C 17.941406 0.0664062 16.164062 0.625 13.9375 0.625 Z M 19.15625 -10.046875 C 20.5 -10.046875 21.378906 -10.707031 21.796875 -12.03125 C 22.210938 -13.351562 22.421875 -15.128906 22.421875 -17.359375 L 22.421875 -41.171875 C 22.421875 -42.835938 22.1875 -44.238281 21.71875 -45.375 C 21.25 -46.519531 20.421875 -47.09375 19.234375 -47.09375 C 17.878906 -47.09375 16.976562 -46.5625 16.53125 -45.5 C 16.09375 -44.4375 15.875 -42.992188 15.875 -41.171875 L 15.875 -17.203125 C 15.875 -12.429688 16.96875 -10.046875 19.15625 -10.046875 Z M 19.15625 -10.046875 "/></g></g></g><g fill="#222220" fill-opacity="1"><g transform="translate(225.499344, 181.165233)"><g><path d="M 24.75 0.625 C 21.019531 0.625 18.347656 -1.609375 16.734375 -6.078125 L 16.734375 0 L 2.71875 0 L 2.71875 -67.25 L 16.734375 -67.25 L 16.734375 -54.25 C 18.910156 -56.488281 21.453125 -57.609375 24.359375 -57.609375 C 28.773438 -57.609375 31.941406 -56.296875 33.859375 -53.671875 C 35.785156 -51.046875 36.75 -47.269531 36.75 -42.34375 L 36.75 -14.875 C 36.75 -10.195312 35.757812 -6.441406 33.78125 -3.609375 C 31.8125 -0.785156 28.800781 0.625 24.75 0.625 Z M 20.15625 -9.96875 C 21.09375 -9.96875 21.753906 -10.265625 22.140625 -10.859375 C 22.535156 -11.453125 22.769531 -12.203125 22.84375 -13.109375 C 22.925781 -14.023438 22.96875 -15.441406 22.96875 -17.359375 L 22.96875 -41.09375 C 22.96875 -43.125 22.785156 -44.628906 22.421875 -45.609375 C 22.054688 -46.597656 21.273438 -47.09375 20.078125 -47.09375 C 18.785156 -47.09375 17.90625 -46.597656 17.4375 -45.609375 C 16.96875 -44.628906 16.734375 -43.175781 16.734375 -41.25 L 16.734375 -17.359375 C 16.734375 -14.867188 16.941406 -13.015625 17.359375 -11.796875 C 17.773438 -10.578125 18.707031 -9.96875 20.15625 -9.96875 Z M 20.15625 -9.96875 "/></g></g></g><g fill="#222220" fill-opacity="1"><g transform="translate(272.74162, 181.165233)"><g><path d="M 13.078125 0.625 C 8.671875 0.625 5.648438 -0.835938 4.015625 -3.765625 C 2.378906 -6.703125 1.5625 -10.894531 1.5625 -16.34375 C 1.5625 -20.8125 2.144531 -24.238281 3.3125 -26.625 C 4.476562 -29.007812 6.097656 -30.757812 8.171875 -31.875 C 10.242188 -32.988281 13.410156 -34.222656 17.671875 -35.578125 L 21.40625 -36.8125 L 21.40625 -42.65625 C 21.40625 -44.164062 21.101562 -45.320312 20.5 -46.125 C 19.90625 -46.925781 19.195312 -47.328125 18.375 -47.328125 C 17.644531 -47.328125 17.003906 -46.988281 16.453125 -46.3125 C 15.910156 -45.644531 15.640625 -44.738281 15.640625 -43.59375 L 15.640625 -40.171875 L 2.40625 -40.171875 L 2.40625 -42.03125 C 2.40625 -47.632812 3.71875 -51.628906 6.34375 -54.015625 C 8.96875 -56.410156 13.238281 -57.609375 19.15625 -57.609375 C 23.875 -57.609375 27.710938 -56.375 30.671875 -53.90625 C 33.628906 -51.4375 35.109375 -47.945312 35.109375 -43.4375 L 35.109375 0 L 21.5625 0 L 21.5625 -6.765625 C 20.882812 -4.429688 19.804688 -2.613281 18.328125 -1.3125 C 16.847656 -0.0195312 15.097656 0.625 13.078125 0.625 Z M 18.453125 -9.96875 C 19.484375 -9.96875 20.21875 -10.394531 20.65625 -11.25 C 21.101562 -12.101562 21.328125 -13.15625 21.328125 -14.40625 L 21.328125 -30.28125 C 19.304688 -29.5 17.8125 -28.507812 16.84375 -27.3125 C 15.882812 -26.125 15.40625 -24.46875 15.40625 -22.34375 L 15.40625 -15.03125 C 15.40625 -11.65625 16.421875 -9.96875 18.453125 -9.96875 Z M 18.453125 -9.96875 "/></g></g></g><g fill="#222220" fill-opacity="1"><g transform="translate(318.583002, 181.165233)"><g><path d="M 19.84375 0.625 C 13.625 0.625 9.132812 -0.957031 6.375 -4.125 C 3.625 -7.289062 2.25 -12.144531 2.25 -18.6875 L 2.25 -36.28125 C 2.25 -41.207031 2.78125 -45.210938 3.84375 -48.296875 C 4.914062 -51.390625 6.707031 -53.710938 9.21875 -55.265625 C 11.738281 -56.828125 15.226562 -57.609375 19.6875 -57.609375 C 24.570312 -57.609375 28.546875 -56.332031 31.609375 -53.78125 C 34.671875 -51.238281 36.203125 -47.6875 36.203125 -43.125 L 36.203125 -34.40625 L 22.34375 -34.40625 L 22.34375 -42.421875 C 22.34375 -43.929688 22.132812 -45.085938 21.71875 -45.890625 C 21.300781 -46.691406 20.5 -47.09375 19.3125 -47.09375 C 17.070312 -47.09375 15.953125 -45.507812 15.953125 -42.34375 L 15.953125 -14.71875 C 15.953125 -13.414062 16.222656 -12.3125 16.765625 -11.40625 C 17.316406 -10.5 18.140625 -10.046875 19.234375 -10.046875 C 20.316406 -10.046875 21.128906 -10.484375 21.671875 -11.359375 C 22.222656 -12.242188 22.472656 -13.390625 22.421875 -14.796875 L 22.34375 -24.359375 L 36.203125 -24.359375 L 36.203125 -14.40625 C 36.203125 -9.726562 34.679688 -6.050781 31.640625 -3.375 C 28.609375 -0.707031 24.675781 0.625 19.84375 0.625 Z M 19.84375 0.625 "/></g></g></g><g fill="#222220" fill-opacity="1"><g transform="translate(365.046997, 181.165233)"><g><path d="M 2.71875 0 L 2.71875 -67.25 L 16.1875 -67.25 L 16.1875 -37.359375 L 22.734375 -56.984375 L 36.8125 -56.984375 L 28.25 -32.234375 L 39.15625 0 L 24.671875 0 L 16.1875 -26.859375 L 16.1875 0 Z M 2.71875 0 "/></g></g></g></svg>