<svg viewBox="0 0 70 70" xmlns="http://www.w3.org/2000/svg"><g id="Layer_2" data-name="Layer 2"><path d="m37.732 63.5a46.66 46.66 0 0 1 -6.515-.609c-.671-.095-1.341-.189-2.01-.274-8.676-1.1-17.585-.577-26.2-.067a1 1 0 1 1 -.118-2c8.707-.515 17.711-1.048 26.571.078.679.087 1.358.183 2.038.279a36.814 36.814 0 0 0 7.584.544 36.106 36.106 0 0 0 4.26-.644c1.209-.231 2.46-.47 3.724-.606a45.574 45.574 0 0 1 6.445-.083l13.577.47a1 1 0 1 1 -.069 2l-13.578-.47a44.143 44.143 0 0 0 -6.162.073c-1.182.126-2.391.358-3.561.582a38.035 38.035 0 0 1 -4.5.674c-.495.041-.991.053-1.486.053z"/><path d="m35.055 51.667a1 1 0 0 1 -.632-.225c-2.008-1.639-3.682-2.887-5.159-3.988-3.493-2.6-5.8-4.323-8.222-8.032a1 1 0 0 1 1.674-1.094c2.228 3.412 4.3 4.959 7.742 7.523 1.358 1.011 2.879 2.145 4.677 3.594 5.628-3.477 8.939-6.263 12.112-11.969a1 1 0 1 1 1.753.971c-3.5 6.3-7.118 9.235-13.419 13.074a1 1 0 0 1 -.526.146z"/><path d="m35.147 51.667c-.022 0-.045 0-.067 0a1 1 0 0 1 -.931-1.065c.314-4.67.214-9.511.109-14.636-.2-9.722-.405-19.775 2.395-28.765a1 1 0 0 1 1.909.594c-2.7 8.681-2.5 18.568-2.3 28.13.1 4.943.206 10.054-.114 14.811a1 1 0 0 1 -1.001.931z"/></g></svg>