<svg xmlns="http://www.w3.org/2000/svg" xmlns:xlink="http://www.w3.org/1999/xlink" width="400" zoomAndPan="magnify" viewBox="0 0 300 299.999988" height="400" preserveAspectRatio="xMidYMid meet" version="1.0"><defs><clipPath id="694d1c681c"><path d="M 6.089844 107 L 294.089844 107 L 294.089844 188.921875 L 6.089844 188.921875 Z M 6.089844 107 " clip-rule="nonzero"/></clipPath><clipPath id="2b5e3ffb66"><path d="M 6.089844 102.703125 L 294.089844 102.703125 L 294.089844 185 L 6.089844 185 Z M 6.089844 102.703125 " clip-rule="nonzero"/></clipPath></defs><g clip-path="url(#694d1c681c)"><path fill="#383838" d="M 294.089844 148.046875 C 294.089844 170.613281 275.84375 188.90625 253.335938 188.90625 L 46.839844 188.90625 C 24.332031 188.90625 6.085938 170.613281 6.085938 148.046875 L 6.089844 148.046875 C 6.089844 125.484375 24.332031 107.191406 46.839844 107.191406 L 253.335938 107.191406 C 275.84375 107.191406 294.089844 125.484375 294.089844 148.050781 Z M 294.089844 148.046875 " fill-opacity="1" fill-rule="evenodd"/></g><g clip-path="url(#2b5e3ffb66)"><path fill="#f4f4f4" d="M 294.089844 143.605469 C 294.089844 166.167969 275.84375 184.460938 253.335938 184.460938 L 46.839844 184.460938 C 24.332031 184.460938 6.085938 166.167969 6.085938 143.605469 L 6.089844 143.605469 C 6.089844 121.039062 24.332031 102.746094 46.839844 102.746094 L 253.335938 102.746094 C 275.84375 102.746094 294.089844 121.039062 294.089844 143.605469 Z M 294.089844 143.605469 " fill-opacity="1" fill-rule="evenodd"/></g><path fill="#222220" d="M 290.363281 143.605469 C 290.363281 164.507812 273.464844 181.453125 252.609375 181.453125 L 47.566406 181.453125 C 26.714844 181.453125 9.8125 164.507812 9.8125 143.605469 C 9.8125 122.699219 26.714844 105.753906 47.566406 105.753906 L 252.609375 105.753906 C 273.464844 105.753906 290.363281 122.699219 290.363281 143.605469 Z M 290.363281 143.605469 " fill-opacity="1" fill-rule="evenodd"/><path fill="#f4f4f4" d="M 84.816406 145.480469 L 84.816406 149.574219 L 89.589844 149.574219 C 90.566406 149.574219 91.3125 149.40625 91.820312 149.070312 C 92.328125 148.734375 92.582031 148.21875 92.582031 147.527344 C 92.582031 146.835938 92.328125 146.320312 91.820312 145.984375 C 91.3125 145.648438 90.566406 145.480469 89.589844 145.480469 Z M 110.527344 139.109375 L 107.941406 145.566406 L 113.109375 145.566406 Z M 84.816406 137.632812 L 84.816406 141.527344 L 88.726562 141.527344 C 89.6875 141.527344 90.402344 141.363281 90.882812 141.035156 C 91.367188 140.710938 91.601562 140.21875 91.601562 139.566406 C 91.601562 138.910156 91.367188 138.425781 90.882812 138.109375 C 90.402344 137.792969 89.6875 137.632812 88.726562 137.632812 Z M 145.1875 133.507812 L 150.828125 133.507812 L 150.828125 141.894531 L 158.621094 133.507812 L 164.894531 133.507812 L 156.671875 142.4375 L 165.324219 153.699219 L 158.707031 153.699219 L 152.941406 146.371094 L 150.828125 148.640625 L 150.828125 153.699219 L 145.1875 153.699219 Z M 107.765625 133.507812 L 113.375 133.507812 L 122.289062 153.699219 L 116.363281 153.699219 L 114.796875 149.777344 L 106.253906 149.777344 L 104.6875 153.699219 L 98.875 153.699219 Z M 79.175781 133.507812 L 89.476562 133.507812 C 92.121094 133.507812 94.097656 133.992188 95.398438 134.964844 C 96.707031 135.9375 97.355469 137.210938 97.355469 138.785156 C 97.355469 139.824219 97.082031 140.734375 96.535156 141.511719 C 96.125 142.097656 95.59375 142.589844 94.9375 142.988281 L 94.601562 143.164062 L 95 143.300781 C 96.054688 143.734375 96.871094 144.359375 97.457031 145.175781 C 98.042969 145.992188 98.335938 146.988281 98.335938 148.160156 C 98.335938 149.910156 97.628906 151.269531 96.222656 152.242188 C 94.808594 153.214844 92.753906 153.699219 90.050781 153.699219 L 79.175781 153.699219 Z M 133.945312 133.105469 C 135.804688 133.105469 137.46875 133.429688 138.933594 134.085938 C 140.40625 134.738281 141.625 135.679688 142.605469 136.910156 L 138.976562 140.199219 C 138.324219 139.429688 137.613281 138.84375 136.835938 138.441406 C 136.0625 138.035156 135.191406 137.835938 134.230469 137.835938 C 133.410156 137.835938 132.652344 137.96875 131.957031 138.238281 C 131.265625 138.507812 130.683594 138.898438 130.1875 139.40625 C 129.699219 139.917969 129.316406 140.527344 129.042969 141.238281 C 128.761719 141.949219 128.621094 142.738281 128.621094 143.605469 C 128.621094 144.46875 128.761719 145.257812 129.042969 145.96875 C 129.316406 146.679688 129.699219 147.289062 130.1875 147.800781 C 130.683594 148.308594 131.265625 148.699219 131.957031 148.96875 C 132.652344 149.238281 133.410156 149.371094 134.230469 149.371094 C 135.191406 149.371094 136.0625 149.171875 136.835938 148.765625 C 137.613281 148.363281 138.324219 147.777344 138.976562 147.007812 L 142.605469 150.296875 C 141.625 151.507812 140.40625 152.445312 138.933594 153.109375 C 137.46875 153.769531 135.804688 154.101562 133.945312 154.101562 C 132.351562 154.101562 130.878906 153.847656 129.53125 153.339844 C 128.175781 152.828125 127.003906 152.101562 126.019531 151.160156 C 125.03125 150.21875 124.257812 149.109375 123.703125 147.828125 C 123.144531 146.550781 122.871094 145.140625 122.871094 143.605469 C 122.871094 142.066406 123.144531 140.65625 123.703125 139.378906 C 124.257812 138.097656 125.03125 136.988281 126.019531 136.046875 C 127.003906 135.105469 128.175781 134.378906 129.53125 133.867188 C 130.878906 133.359375 132.351562 133.105469 133.945312 133.105469 Z M 133.945312 133.105469 " fill-opacity="1" fill-rule="evenodd"/><path fill="#f4f4f4" d="M 250 128.824219 C 249.574219 128.792969 249.085938 128.976562 248.566406 129.390625 L 241.191406 135.304688 L 233.8125 141.214844 C 232.148438 142.546875 232.148438 144.710938 233.8125 146.042969 L 241.191406 151.953125 L 248.566406 157.863281 C 250.226562 159.195312 251.578125 158.113281 251.578125 155.449219 L 251.578125 149.695312 L 266.210938 149.695312 C 267.5 149.695312 268.542969 148.648438 268.542969 147.359375 L 268.542969 139.898438 C 268.542969 138.605469 267.5 137.5625 266.210938 137.5625 L 251.578125 137.5625 L 251.578125 131.804688 C 251.578125 129.972656 250.941406 128.890625 250 128.824219 Z M 250.554688 115.015625 C 266.3125 115.015625 279.09375 127.824219 279.09375 143.628906 C 279.09375 159.429688 266.3125 172.238281 250.554688 172.238281 C 234.796875 172.238281 222.015625 159.429688 222.015625 143.628906 C 222.015625 127.824219 234.796875 115.015625 250.554688 115.015625 Z M 250.554688 115.015625 " fill-opacity="1" fill-rule="evenodd"/></svg>