<svg id="Capa_1" enable-background="new 0 0 512 512" height="512" viewBox="0 0 512 512" width="512" xmlns="http://www.w3.org/2000/svg"><g><path d="m512 256c0 62.05-22.09 118.95-58.82 163.27-6.94 8.38-37.17 4.34-45.12 11.76-4.71 4.42 13.17 20.61 8.14 24.65h-.01c-43.86 35.24-99.56 56.32-160.19 56.32-141.38 0-256-114.62-256-256s114.62-256 256-256 256 114.62 256 256z" fill="#665e66"/><path d="m363.448 241.839s-88.908-140.916-242.299-210.229c-22.528-10.18-44.439 15.215-30.934 35.922l32.77 50.246-78.909-23.384c-25.356-7.514-43.164 24.721-23.306 42.186l52.688 46.336-32.577 5.878c-25.584 4.616-27.57 40.583-2.635 47.936 81.044 23.898 188.738 66.255 267.169 136.493" fill="#ffe07d"/><path d="m334.206 272.81s-48.223-100.668-144.911-158.704c-14.211-8.53-30.778 6.655-23.393 21.493l4.937 9.921c4.437 8.916-4.638 18.529-13.794 14.612l-23.934-10.238c-16.291-6.969-30.645 13.101-18.785 26.265l16.63 18.458c5.996 6.655 1.654 17.292-7.286 17.85-17.375 1.085-21.509 24.87-5.494 31.695 52.08 22.195 120.465 58.744 167.21 111.578" fill="#ffd064"/><g><path d="m487.08 311.29-32.22 31.41c-7.89 7.69-11.49 18.77-9.63 29.63l7.61 44.36c.15.87.26 1.73.34 2.58-11.06 13.35-23.46 25.56-36.98 36.41-3.98-.45-8.01-1.65-11.93-3.71l-39.84-20.94c-9.75-5.12-21.4-5.12-31.15 0l-39.83 20.94c-24.56 12.92-53.26-7.94-48.57-35.28l7.6-44.36c1.87-10.86-1.73-21.94-9.62-29.63l-32.23-31.41c-19.87-19.37-8.9-53.11 18.55-57.1l44.54-6.47c10.9-1.58 20.33-8.43 25.2-18.31l19.92-40.36c12.28-24.88 47.76-24.88 60.03 0l19.92 40.36c4.88 9.88 14.3 16.73 25.21 18.31l44.53 6.47c27.46 3.99 38.42 37.73 18.55 57.1z" fill="#ffd064"/><g fill="#ffc250"><path d="m430.82 443c-4.71 4.42-9.59 8.64-14.62 12.68h-.01c-3.98-.45-8-1.65-11.92-3.71l-33.6-17.66 6.23-3.28c9.75-5.12 21.4-5.12 31.16 0z"/><path d="m288.499 416.686 7.608-44.356c1.862-10.859-1.738-21.939-9.627-29.629l-32.227-31.413c-19.868-19.366-8.904-53.107 18.552-57.097l44.536-6.472c10.903-1.584 20.328-8.432 25.204-18.312l19.917-40.356c2.12-4.296 4.942-7.831 8.207-10.643-15.642-13.477-41.67-9.941-51.829 10.643l-19.917 40.356c-4.876 9.88-14.301 16.728-25.204 18.312l-44.536 6.472c-27.456 3.99-38.419 37.731-18.552 57.097l32.227 31.413c7.889 7.69 11.49 18.77 9.627 29.629l-7.608 44.356c-4.69 27.345 24.012 48.198 48.569 35.288l6.948-3.653c-8.813-7.137-14.122-18.649-11.895-31.635z"/></g></g><g><path d="m111.127 342.572 5.83 11.812c1.427 2.892 4.186 4.896 7.377 5.36l13.035 1.894c8.036 1.168 11.245 11.043 5.43 16.712l-9.432 9.194c-2.309 2.251-3.363 5.494-2.818 8.672l2.227 12.983c1.373 8.004-7.028 14.107-14.216 10.328l-11.659-6.13c-2.854-1.501-6.264-1.501-9.118 0l-11.659 6.13c-7.188 3.779-15.589-2.325-14.216-10.328l2.227-12.983c.545-3.178-.509-6.421-2.818-8.672l-9.432-9.194c-5.815-5.668-2.606-15.544 5.43-16.712l13.035-1.894c3.191-.464 5.95-2.468 7.377-5.36l5.83-11.812c3.592-7.282 13.976-7.282 17.57 0z" fill="#ffd064"/><g fill="#ffc250"><path d="m119.668 413.397c-2.854-1.501-6.264-1.501-9.118 0l-1.825.959 9.834 5.17c3.775 1.984 7.881 1.241 10.734-1.069z"/><path d="m84.675 409.199 2.227-12.983c.545-3.178-.509-6.421-2.818-8.672l-9.432-9.194c-5.815-5.668-2.606-15.544 5.43-16.712l13.035-1.894c3.191-.464 5.95-2.468 7.377-5.36l5.83-11.812c.62-1.257 1.447-2.292 2.402-3.115-4.578-3.944-12.196-2.91-15.17 3.115l-5.83 11.812c-1.427 2.892-4.186 4.896-7.377 5.36l-13.035 1.894c-8.036 1.168-11.245 11.043-5.43 16.712l9.432 9.194c2.309 2.251 3.363 5.494 2.818 8.672l-2.227 12.983c-1.373 8.004 7.028 14.107 14.216 10.328l2.034-1.069c-2.58-2.089-4.134-5.459-3.482-9.259z"/></g></g><g><path d="m357.54 47.276 5.83 11.812c1.427 2.892 4.186 4.896 7.377 5.36l13.035 1.894c8.036 1.168 11.245 11.043 5.43 16.712l-9.432 9.194c-2.309 2.251-3.363 5.494-2.818 8.672l2.227 12.983c1.373 8.004-7.028 14.107-14.216 10.328l-11.659-6.13c-2.854-1.501-6.264-1.501-9.118 0l-11.659 6.13c-7.188 3.779-15.589-2.325-14.216-10.328l2.227-12.983c.545-3.178-.509-6.421-2.818-8.672l-9.432-9.194c-5.815-5.668-2.606-15.544 5.43-16.712l13.035-1.894c3.191-.464 5.95-2.468 7.377-5.36l5.83-11.812c3.592-7.282 13.976-7.282 17.57 0z" fill="#ffd064"/><g fill="#ffc250"><path d="m366.081 118.101c-2.854-1.501-6.264-1.501-9.118 0l-1.825.959 9.834 5.17c3.775 1.984 7.882 1.241 10.734-1.069z"/><path d="m331.087 113.902 2.227-12.983c.545-3.178-.509-6.421-2.818-8.672l-9.432-9.194c-5.815-5.668-2.606-15.544 5.43-16.712l13.035-1.894c3.191-.464 5.95-2.468 7.377-5.36l5.83-11.812c.62-1.257 1.447-2.292 2.402-3.115-4.578-3.944-12.196-2.91-15.17 3.115l-5.83 11.812c-1.427 2.892-4.186 4.896-7.377 5.36l-13.035 1.894c-8.036 1.168-11.245 11.043-5.43 16.712l9.432 9.194c2.309 2.251 3.363 5.494 2.818 8.672l-2.227 12.983c-1.373 8.004 7.028 14.107 14.216 10.328l2.034-1.069c-2.579-2.089-4.133-5.458-3.482-9.259z"/></g></g></g></svg>