<?xml version="1.0" encoding="iso-8859-1"?>
<!-- Generator: Adobe Illustrator 19.0.0, SVG Export Plug-In . SVG Version: 6.00 Build 0)  -->
<svg version="1.1" id="Capa_1" xmlns="http://www.w3.org/2000/svg" xmlns:xlink="http://www.w3.org/1999/xlink" x="0px" y="0px"
	 viewBox="0 0 512 512" style="enable-background:new 0 0 512 512;" xml:space="preserve">
<path style="fill:#F2D422;" d="M383.978,104.683h-52.46l55.584-80.194c4.967-7.172-0.176-16.991-8.898-16.991H191.525
	c-4.418,0-8.392,2.683-10.043,6.783l-63.508,157.808c-1.342,3.336-0.94,7.12,1.073,10.102c2.013,2.979,5.374,4.766,8.97,4.766
	h59.782l-60.881,126.906c-3.442,7.177,1.796,15.506,9.761,15.506h61.437l-48.707,161.174c-1.492,4.937,0.706,10.24,5.252,12.675
	c4.558,2.441,10.181,1.319,13.46-2.651L373.08,252.308c5.809-7.03,0.806-17.715-8.347-17.715h-60.49l88.25-112.396
	C398.049,115.123,393.008,104.683,383.978,104.683z"/>
<path style="fill:#F7AC16;" d="M224.181,7.498h-32.655c-4.418,0-8.392,2.683-10.043,6.783l-63.508,157.808
	c-1.342,3.336-0.94,7.12,1.073,10.102c2.013,2.979,5.374,4.766,8.97,4.766h59.782l-60.881,126.906
	c-3.442,7.177,1.796,15.506,9.761,15.506h61.437l-48.707,161.174c-1.461,4.834,0.623,10.013,4.978,12.512
	c1.009-1.055-5.355,10.571,112.104-209.192c1.16-2.169,1.095-4.788-0.169-6.896c-1.265-2.109-3.543-3.4-6.003-3.4h-55.68
	l73.485-130.051c1.225-2.168,1.206-4.821-0.048-6.97c-1.255-2.15-3.556-3.471-6.045-3.471H214.26l59.715-125.57
	c1.031-2.168,0.879-4.714-0.404-6.743c-1.283-2.03-3.516-3.26-5.917-3.26h-43.474V7.498z"/>
<path d="M383.983,97.185h-38.139l47.428-68.425C401.679,16.619,392.98,0,378.209,0H191.531c-7.517,0-14.189,4.506-16.999,11.482
	l-63.509,157.81c-4.839,12.032,4.033,25.162,16.999,25.162h47.868l-55.728,116.165c-5.837,12.167,3.035,26.247,16.521,26.247h51.338
	l-45.784,151.506c-2.516,8.325,1.223,17.348,8.889,21.454c7.605,4.073,17.149,2.334,22.783-4.487l83.321-100.924
	c2.636-3.192,2.184-7.919-1.009-10.556c-3.192-2.636-7.919-2.185-10.557,1.009l-83.32,100.922c-2.286,2.766-6.803,0.397-5.753-3.079
	l48.707-161.174c1.453-4.809-2.15-9.668-7.177-9.668c-66.712,0-62.904,0.594-64.254-1.555c-0.612-0.973-0.681-2.173-0.183-3.21
	l60.882-126.907c2.384-4.971-1.245-10.742-6.76-10.742h-59.782c-2.358,0-3.963-2.389-3.086-4.569
	C192.766,6.343,188.273,14.997,191.531,14.997h186.678c2.701,0,4.254,3.029,2.735,5.222l-55.584,80.194
	c-3.433,4.955,0.112,11.77,6.163,11.77h52.46c1.284,0,2.43,0.719,2.992,1.873c1.301,2.676,6.484-5.226-88.626,115.907
	c-3.858,4.913-0.343,12.129,5.898,12.129h60.49c1.283,0,2.464,0.749,3.008,1.903c1.287,2.731,7.974-6.655-105.817,131.174
	c-2.636,3.192-2.184,7.919,1.009,10.556c3.194,2.637,7.92,2.187,10.557-1.009l105.371-127.631
	c4.496-5.441,5.458-13.086,2.447-19.482c-3.01-6.384-9.517-10.508-16.574-10.508H319.67l78.725-100.265
	C407.788,114.872,399.251,97.185,383.983,97.185z"/>
<g>
</g>
<g>
</g>
<g>
</g>
<g>
</g>
<g>
</g>
<g>
</g>
<g>
</g>
<g>
</g>
<g>
</g>
<g>
</g>
<g>
</g>
<g>
</g>
<g>
</g>
<g>
</g>
<g>
</g>
</svg>
