<?xml version="1.0" encoding="UTF-8"?><svg xmlns="http://www.w3.org/2000/svg" xmlns:xlink="http://www.w3.org/1999/xlink" viewBox="0 0 212.37 136.68"><defs><style>.k{fill:#b8211c;}.l{fill:#fafffa;}.m{fill:url(#j);}.m,.n,.o{mix-blend-mode:multiply;}.p{fill:#fff;}.q{fill:#e29957;}.r{fill:#75141b;}.s{fill:#aa6231;}.t{isolation:isolate;}.u{fill:#ff7038;}.v{fill:#8f4f29;}.w{fill:#5f9442;}.x{fill:#42762e;}.y{fill:url(#f);}.a{fill:#c4a589;}.aa{fill:url(#g);}.aa,.ab,.ac{mix-blend-mode:screen;opacity:.3;}.ad{fill:url(#h);}.ae{fill:url(#d);}.af{fill:#dee0e3;}.n{fill:#f7f1eb;}.ab{fill:url(#i);}.ac{fill:url(#e);}.ag{fill:#c47439;}.ah{fill:#ffbe74;}.ai{fill:#713c1f;}</style><linearGradient id="d" x1="36.03" y1="106.87" x2="36.03" y2="72.91" gradientTransform="matrix(1, 0, 0, 1, 0, 0)" gradientUnits="userSpaceOnUse"><stop offset="0" stop-color="#f5ceab"/><stop offset=".15" stop-color="#f1c8a4"/><stop offset=".35" stop-color="#e6b993"/><stop offset=".58" stop-color="#d49f76"/><stop offset=".83" stop-color="#bc7c4f"/><stop offset="1" stop-color="#aa6231"/></linearGradient><linearGradient id="e" x1="-44" y1="106.87" x2="-44" y2="72.91" gradientTransform="translate(79.95)" gradientUnits="userSpaceOnUse"><stop offset=".2" stop-color="#000"/><stop offset=".28" stop-color="#0f0f0f"/><stop offset=".43" stop-color="#393939"/><stop offset=".64" stop-color="#7c7c7c"/><stop offset=".9" stop-color="#d8d8d8"/><stop offset="1" stop-color="#fff"/></linearGradient><linearGradient id="f" x1="165.76" x2="165.76" xlink:href="#d"/><linearGradient id="g" x1="85.74" y1="106.87" x2="85.74" y2="72.92" xlink:href="#e"/><linearGradient id="h" x1="102.14" y1="101.95" x2="102.14" y2="71.54" xlink:href="#d"/><linearGradient id="i" x1="22.19" y1="101.96" x2="22.19" y2="71.53" xlink:href="#e"/><linearGradient id="j" x1="100.35" y1="63.35" x2="100.35" y2="47.39" gradientTransform="matrix(1, 0, 0, 1, 0, 0)" gradientUnits="userSpaceOnUse"><stop offset="0" stop-color="#fff"/><stop offset=".19" stop-color="#f9f9f9"/><stop offset=".43" stop-color="#eae9e9"/><stop offset=".69" stop-color="#d2d0d0"/><stop offset=".98" stop-color="#b0acac"/><stop offset="1" stop-color="#ada9a9"/></linearGradient></defs><g class="t"><g id="a"/><g id="b"><g id="c"><g><rect class="ah" x="7.34" y="18.2" width="185.49" height="11.26"/><rect class="v" x="4.18" y="13.71" width="191.8" height="4.95"/><g><rect class="ai" x="191.95" y="75.1" width="7.54" height="1.18"/><path class="v" d="M189.41,75.69c0,1.32,1.14,2.4,2.54,2.4s2.55-1.08,2.55-2.4-1.14-2.4-2.55-2.4-2.54,1.07-2.54,2.4Z"/><rect class="ai" x="191.95" y="98.56" width="7.54" height="1.19"/><path class="v" d="M189.41,99.15c0-1.33,1.14-2.4,2.54-2.4s2.55,1.08,2.55,2.4-1.14,2.41-2.55,2.41-2.54-1.08-2.54-2.41Z"/></g><rect class="q" x="7.87" y="44.02" width="184.95" height="85.91"/><path class="ag" d="M28.3,56.13h-10.65c-.16,0-.29,.12-.29,.27v4.48c0,.15,.13,.28,.29,.28h10.65c.16,0,.29-.13,.29-.28v-4.48c0-.16-.13-.27-.29-.27Z"/><path class="ag" d="M136.54,66.66h-10.65c-.16,0-.29,.12-.29,.28v4.48c0,.15,.13,.28,.29,.28h10.65c.16,0,.29-.13,.29-.28v-4.48c0-.16-.13-.28-.29-.28Z"/><path class="ag" d="M187.62,122.13h-10.65c-.16,0-.29,.12-.29,.27v4.48c0,.15,.13,.28,.29,.28h10.65c.16,0,.29-.12,.29-.28v-4.48c0-.15-.13-.27-.29-.27Z"/><path class="ag" d="M190.31,99.79h-10.65c-.16,0-.29,.13-.29,.28v4.47c0,.16,.13,.28,.29,.28h10.65c.16,0,.29-.12,.29-.28v-4.47c0-.15-.13-.28-.29-.28Z"/><path class="ag" d="M146.96,60.66h-9.2c-.15,0-.26,.1-.26,.24v3.87c0,.14,.11,.24,.26,.24h9.2c.14,0,.25-.1,.25-.24v-3.87c0-.13-.11-.24-.25-.24Z"/><path class="ag" d="M126.24,118.7h-9.2c-.14,0-.26,.1-.26,.24v3.87c0,.14,.11,.24,.26,.24h9.2c.14,0,.25-.1,.25-.24v-3.87c0-.13-.11-.24-.25-.24Z"/><path class="ag" d="M116.31,123.22h-9.2c-.14,0-.26,.1-.26,.24v3.87c0,.14,.11,.24,.26,.24h9.2c.14,0,.25-.1,.25-.24v-3.87c0-.13-.11-.24-.25-.24Z"/><path class="ag" d="M112.04,54.48h-9.2c-.14,0-.25,.1-.25,.24v3.87c0,.13,.11,.24,.25,.24h9.2c.14,0,.25-.11,.25-.24v-3.87c0-.13-.11-.24-.25-.24Z"/><path class="ag" d="M189.59,79.3h-9.2c-.14,0-.25,.11-.25,.24v3.87c0,.14,.11,.24,.25,.24h9.2c.14,0,.25-.11,.25-.24v-3.87c0-.13-.11-.24-.25-.24Z"/><path class="ag" d="M182.04,60.87h-9.2c-.14,0-.25,.11-.25,.24v3.87c0,.13,.11,.24,.25,.24h9.2c.14,0,.25-.11,.25-.24v-3.87c0-.13-.11-.24-.25-.24Z"/><path class="ag" d="M87.81,118.37h-9.2c-.14,0-.25,.11-.25,.24v3.87c0,.13,.11,.24,.25,.24h9.2c.14,0,.25-.11,.25-.24v-3.87c0-.13-.11-.24-.25-.24Z"/><path class="ag" d="M158.77,45.7h-9.2c-.15,0-.26,.1-.26,.24v3.87c0,.14,.11,.25,.26,.25h9.2c.14,0,.25-.11,.25-.25v-3.87c0-.13-.11-.24-.25-.24Z"/><path class="ag" d="M77.98,63.87h-9.2c-.14,0-.25,.11-.25,.24v3.87c0,.13,.11,.24,.25,.24h9.2c.14,0,.25-.11,.25-.24v-3.87c0-.13-.11-.24-.25-.24Z"/><path class="ag" d="M74.27,100.13h-9.21c-.14,0-.25,.12-.25,.25v3.87c0,.13,.12,.24,.25,.24h9.21c.14,0,.25-.11,.25-.24v-3.87c0-.13-.11-.25-.25-.25Z"/><path class="ag" d="M79.12,105.42h-9.2c-.14,0-.25,.1-.25,.24v3.87c0,.13,.11,.24,.25,.24h9.2c.15,0,.26-.11,.26-.24v-3.87c0-.13-.11-.24-.26-.24Z"/><path class="ag" d="M19.2,83.14H10c-.14,0-.25,.1-.25,.24v3.87c0,.13,.11,.24,.25,.24h9.2c.14,0,.25-.11,.25-.24v-3.87c0-.13-.11-.24-.25-.24Z"/><path class="ag" d="M21.96,111.73H12.76c-.14,0-.26,.11-.26,.24v3.87c0,.13,.11,.24,.26,.24h9.2c.14,0,.25-.12,.25-.24v-3.87c0-.13-.11-.24-.25-.24Z"/><path class="ag" d="M90.97,54.48h-9.2c-.14,0-.26,.1-.26,.24v3.87c0,.13,.11,.24,.26,.24h9.2c.14,0,.25-.11,.25-.24v-3.87c0-.13-.12-.24-.25-.24Z"/><path class="ag" d="M82.84,80.46h-9.2c-.14,0-.25,.11-.25,.23v3.88c0,.13,.12,.24,.25,.24h9.2c.14,0,.25-.1,.25-.24v-3.88c0-.13-.11-.23-.25-.23Z"/><path class="ag" d="M136.96,107.63h-9.2c-.14,0-.25,.11-.25,.24v3.87c0,.13,.12,.24,.25,.24h9.2c.14,0,.25-.1,.25-.24v-3.87c0-.13-.11-.24-.25-.24Z"/><path class="ag" d="M135.05,94.13h-9.2c-.14,0-.26,.1-.26,.24v3.87c0,.14,.11,.24,.26,.24h9.2c.14,0,.26-.1,.26-.24v-3.87c0-.14-.11-.24-.26-.24Z"/><path class="ag" d="M38.7,62.07h-8.43c-.13,0-.23,.1-.23,.21v3.55c0,.12,.11,.22,.23,.22h8.43c.13,0,.23-.1,.23-.22v-3.55c0-.12-.1-.21-.23-.21Z"/><path class="ag" d="M47.59,56.65h-8.43c-.13,0-.23,.1-.23,.21v3.55c0,.12,.1,.22,.23,.22h8.43c.13,0,.23-.1,.23-.22v-3.55c0-.12-.1-.21-.23-.21Z"/><path class="ag" d="M173.48,41.49h10.65c.16,0,.29,.12,.29,.27v4.48c0,.15-.14,.28-.29,.28h-10.65c-.16,0-.29-.12-.29-.28v-4.48c0-.15,.13-.27,.29-.27Z"/><path class="ag" d="M89.74,39.84h9.2c.14,0,.25,.1,.25,.24v3.87c0,.14-.12,.24-.25,.24h-9.2c-.14,0-.25-.11-.25-.24v-3.87c0-.13,.11-.24,.25-.24Z"/><path class="ag" d="M19.75,41.83h9.2c.14,0,.25,.11,.25,.24v3.88c0,.13-.11,.23-.25,.23h-9.2c-.14,0-.25-.1-.25-.23v-3.88c0-.13,.11-.24,.25-.24Z"/><path class="ag" d="M43.01,37.66h9.21c.14,0,.25,.11,.25,.24v3.87c0,.13-.11,.24-.25,.24h-9.21c-.14,0-.25-.1-.25-.24v-3.87c0-.13,.12-.24,.25-.24Z"/><path class="ag" d="M136.1,34.12h9.2c.14,0,.25,.11,.25,.24v3.87c0,.13-.11,.24-.25,.24h-9.2c-.14,0-.25-.11-.25-.24v-3.87c0-.13,.11-.24,.25-.24Z"/><path class="ag" d="M110.82,36.3h9.2c.14,0,.25,.1,.25,.24v3.87c0,.13-.11,.24-.25,.24h-9.2c-.14,0-.26-.11-.26-.24v-3.87c0-.14,.12-.24,.26-.24Z"/><path class="ag" d="M154.2,41.42h8.43c.13,0,.23,.1,.23,.23v3.54c0,.12-.1,.22-.23,.22h-8.43c-.13,0-.24-.1-.24-.22v-3.54c0-.13,.1-.23,.24-.23Z"/><rect class="ag" x="7.87" y="129.84" width="184.95" height="1.2"/><g><rect class="v" x="22.15" y="69.29" width="27.13" height="61.1"/><rect class="ah" x="25.31" y="110.38" width="21.43" height="17.14"/><rect class="v" x="27.92" y="95.2" width="16.12" height="1.19"/><rect class="v" x="27.96" y="89.11" width="16.12" height="1.2"/><g><rect class="v" x="24.03" y="71.6" width="24" height="36.59"/><rect class="ae" x="25.75" y="72.91" width="20.57" height="33.96"/><polygon class="ac" points="33.72 72.91 46.18 106.87 25.73 106.87 25.73 72.91 33.72 72.91"/><g><rect class="v" x="31.62" y="72.23" width="1.71" height="34.64"/><rect class="v" x="38.74" y="72.23" width="1.71" height="34.64"/><rect class="v" x="25.22" y="85.87" width="21.77" height="1.32"/><rect class="v" x="25.22" y="79.23" width="21.77" height="1.31"/><rect class="v" x="25.15" y="92.56" width="21.78" height="1.31"/><rect class="v" x="25.08" y="99.24" width="21.78" height="1.32"/></g></g><g><rect class="ag" x="30.18" y="114.9" width="11.71" height="8.09"/><polygon class="v" points="41.88 114.9 43.51 113.33 36.02 113.33 36.02 114.9 41.88 114.9"/><polygon class="v" points="30.18 114.9 28.55 113.33 36.02 113.33 36.02 114.9 30.18 114.9"/><polygon class="v" points="41.88 123 43.51 124.57 36.02 124.57 36.02 123 41.88 123"/><polygon class="v" points="30.18 123 28.55 124.57 36.02 124.57 36.02 123 30.18 123"/><polygon class="v" points="43.51 113.33 43.51 124.57 41.88 123 41.88 114.9 43.51 113.33"/><polygon class="v" points="28.55 113.33 28.55 124.57 30.18 123 30.18 114.9 28.55 113.33"/></g></g><rect class="s" x="23.03" width="155.98" height="36.54"/><rect class="v" x="27.42" y="4.38" width="147.21" height="27.77"/><g><path class="l" d="M71.2,13.53c0,.33-.04,.66-.12,1-.08,.33-.22,.64-.41,.91-.19,.27-.44,.52-.75,.73-.31,.21-.68,.37-1.11,.47v.12c.38,.06,.75,.17,1.09,.33,.34,.15,.64,.36,.9,.63,.26,.27,.46,.6,.6,.98,.15,.38,.22,.84,.22,1.36,0,.69-.15,1.29-.44,1.79-.29,.51-.69,.92-1.18,1.24-.49,.32-1.05,.56-1.68,.71-.63,.15-1.27,.23-1.94,.23h-.83c-.34,0-.7,0-1.09-.03-.39-.02-.79-.05-1.19-.09-.4-.04-.77-.1-1.1-.17V10.5c.24-.04,.52-.08,.83-.11,.31-.04,.65-.07,1.01-.1,.36-.03,.72-.04,1.1-.06,.37-.01,.75-.02,1.12-.02,.63,0,1.24,.05,1.83,.14,.59,.1,1.12,.27,1.59,.51,.47,.24,.84,.58,1.12,1.02,.28,.43,.42,.98,.42,1.65Zm-5.66,2.51c.18,0,.38,0,.62-.02,.24-.01,.43-.03,.59-.06,.49-.15,.9-.38,1.26-.68,.35-.3,.53-.7,.53-1.2,0-.33-.06-.6-.19-.82-.13-.22-.3-.39-.51-.51s-.45-.21-.72-.27c-.27-.05-.55-.08-.84-.08-.33,0-.64,0-.92,.02-.28,.01-.5,.03-.65,.06v3.55h.84Zm.86,5.77c.32,0,.63-.04,.93-.11,.3-.08,.56-.19,.8-.35,.23-.16,.41-.36,.56-.6,.14-.24,.21-.53,.21-.85,0-.42-.08-.75-.25-.99-.17-.24-.38-.43-.65-.56-.27-.13-.57-.22-.9-.26-.33-.04-.66-.06-1-.06h-1.4v3.66c.06,.02,.17,.04,.31,.06,.14,.01,.29,.02,.45,.03,.16,0,.33,.01,.5,.02,.17,0,.32,0,.45,0Z"/><path class="l" d="M73.08,17.12c0-2.24,.49-3.96,1.48-5.17,.98-1.21,2.39-1.81,4.22-1.81,.96,0,1.79,.17,2.51,.5,.72,.33,1.31,.81,1.78,1.42,.47,.61,.82,1.35,1.05,2.2,.23,.86,.34,1.81,.34,2.86,0,2.24-.5,3.96-1.48,5.17-.99,1.21-2.39,1.81-4.21,1.81-.97,0-1.81-.17-2.53-.5-.71-.33-1.31-.81-1.77-1.42-.47-.61-.82-1.35-1.05-2.2-.23-.86-.35-1.81-.35-2.86Zm2.76,0c0,.68,.06,1.3,.17,1.87,.12,.57,.29,1.06,.53,1.47,.24,.41,.54,.73,.91,.96,.37,.23,.81,.35,1.32,.35,.93,0,1.66-.36,2.17-1.09,.51-.73,.77-1.91,.77-3.55,0-.65-.05-1.26-.16-1.82-.11-.56-.28-1.05-.51-1.48-.23-.42-.53-.75-.9-.99-.37-.24-.83-.35-1.36-.35-.93,0-1.66,.37-2.17,1.12-.51,.75-.77,1.92-.77,3.52Z"/><path class="l" d="M85.92,17.12c0-2.24,.49-3.96,1.48-5.17,.98-1.21,2.39-1.81,4.22-1.81,.96,0,1.79,.17,2.51,.5,.72,.33,1.31,.81,1.78,1.42,.47,.61,.83,1.35,1.05,2.2,.23,.86,.34,1.81,.34,2.86,0,2.24-.5,3.96-1.48,5.17-.99,1.21-2.39,1.81-4.21,1.81-.97,0-1.81-.17-2.53-.5-.72-.33-1.31-.81-1.77-1.42-.47-.61-.82-1.35-1.05-2.2s-.35-1.81-.35-2.86Zm2.76,0c0,.68,.06,1.3,.17,1.87,.12,.57,.29,1.06,.53,1.47,.24,.41,.54,.73,.91,.96,.37,.23,.81,.35,1.32,.35,.93,0,1.66-.36,2.17-1.09,.51-.73,.77-1.91,.77-3.55,0-.65-.05-1.26-.16-1.82-.11-.56-.28-1.05-.51-1.48-.23-.42-.53-.75-.9-.99-.37-.24-.83-.35-1.36-.35-.93,0-1.66,.37-2.17,1.12-.51,.75-.77,1.92-.77,3.52Z"/><path class="l" d="M102.51,18.09h-.69v5.73h-2.63V10.41h2.63v5.94l.61-.27,3.7-5.67h2.99l-3.91,5.64-1.04,.73,1.08,.75,4.47,6.31h-3.24l-3.97-5.73Z"/><path class="l" d="M116.87,20.22c0-.41-.15-.74-.45-1-.3-.26-.68-.49-1.13-.7-.45-.21-.95-.43-1.48-.65-.53-.22-1.02-.5-1.48-.83-.45-.33-.83-.73-1.13-1.22-.3-.49-.45-1.1-.45-1.86,0-.65,.11-1.22,.32-1.7,.22-.48,.53-.88,.93-1.2,.4-.32,.88-.56,1.43-.71,.55-.15,1.16-.23,1.84-.23,.78,0,1.52,.07,2.21,.2,.69,.13,1.26,.33,1.71,.59l-.83,2.21c-.28-.18-.7-.34-1.27-.49-.56-.15-1.17-.22-1.82-.22-.61,0-1.08,.12-1.41,.36-.33,.24-.49,.57-.49,.98,0,.38,.15,.7,.45,.96,.3,.26,.68,.49,1.13,.71,.46,.22,.95,.44,1.48,.67,.53,.23,1.02,.51,1.48,.83,.45,.33,.83,.73,1.13,1.21,.3,.48,.45,1.08,.45,1.79s-.12,1.33-.35,1.85c-.24,.52-.57,.95-1,1.29-.43,.35-.95,.6-1.55,.77-.61,.17-1.27,.25-2,.25-.96,0-1.8-.09-2.53-.27-.73-.18-1.26-.36-1.61-.54l.84-2.24c.14,.08,.32,.16,.55,.25,.22,.09,.47,.17,.76,.25,.28,.08,.58,.14,.89,.19,.31,.05,.64,.08,.97,.08,.78,0,1.38-.13,1.79-.39,.41-.26,.62-.66,.62-1.2Z"/><path class="l" d="M130.77,12.74h-3.91v11.08h-2.63V12.74h-3.93v-2.34h10.47v2.34Z"/><path class="l" d="M130.96,17.12c0-2.24,.49-3.96,1.48-5.17,.98-1.21,2.39-1.81,4.22-1.81,.96,0,1.8,.17,2.51,.5,.72,.33,1.31,.81,1.78,1.42,.47,.61,.82,1.35,1.05,2.2,.23,.86,.34,1.81,.34,2.86,0,2.24-.5,3.96-1.49,5.17-.99,1.21-2.39,1.81-4.21,1.81-.97,0-1.81-.17-2.53-.5-.72-.33-1.31-.81-1.77-1.42-.47-.61-.82-1.35-1.04-2.2-.23-.86-.35-1.81-.35-2.86Zm2.76,0c0,.68,.06,1.3,.17,1.87,.11,.57,.29,1.06,.53,1.47,.24,.41,.54,.73,.91,.96,.37,.23,.81,.35,1.32,.35,.93,0,1.66-.36,2.17-1.09,.51-.73,.77-1.91,.77-3.55,0-.65-.05-1.26-.16-1.82-.11-.56-.28-1.05-.51-1.48-.23-.42-.53-.75-.9-.99-.37-.24-.83-.35-1.36-.35-.93,0-1.66,.37-2.17,1.12-.51,.75-.77,1.92-.77,3.52Z"/><path class="l" d="M144.23,10.54c.29-.05,.61-.1,.95-.14,.34-.05,.68-.08,1.02-.11,.34-.03,.67-.04,.99-.06,.32-.01,.61-.02,.88-.02,.63,0,1.24,.06,1.85,.17,.61,.11,1.15,.31,1.63,.59,.48,.28,.86,.67,1.15,1.16,.29,.49,.43,1.11,.43,1.85,0,1.1-.26,1.99-.77,2.68-.51,.69-1.2,1.17-2.05,1.44l.94,.59,3.07,5.12h-3.03l-3.05-5.25-1.38-.25v5.5h-2.63V10.54Zm4.03,2.01c-.27,0-.53,0-.79,.02-.26,.01-.46,.04-.6,.08v3.89h1.11c.73,0,1.31-.17,1.74-.5,.43-.33,.65-.88,.65-1.65,0-.58-.18-1.03-.54-1.35-.36-.33-.88-.49-1.57-.49Z"/><path class="l" d="M155.77,10.41h7.96v2.34h-5.33v3.12h4.85v2.34h-4.85v3.28h5.42v2.34h-8.05V10.41Z"/></g><g><rect class="v" x="152.51" y="69.29" width="27.13" height="61.1"/><rect class="ah" x="155.05" y="110.38" width="21.43" height="17.14"/><rect class="v" x="157.75" y="95.2" width="16.12" height="1.19"/><rect class="v" x="157.7" y="89.11" width="16.12" height="1.2"/><g><rect class="v" x="153.76" y="71.6" width="24" height="36.59"/><rect class="y" x="155.47" y="72.91" width="20.57" height="33.96"/><polygon class="aa" points="163.46 72.92 175.91 106.87 155.47 106.87 155.47 72.92 163.46 72.92"/><g><rect class="v" x="168.46" y="72.23" width="1.71" height="34.64"/><rect class="v" x="161.34" y="72.23" width="1.72" height="34.64"/><rect class="v" x="154.8" y="85.87" width="21.77" height="1.32"/><rect class="v" x="154.8" y="79.23" width="21.77" height="1.31"/><rect class="v" x="154.87" y="92.56" width="21.78" height="1.31"/><rect class="v" x="154.94" y="99.24" width="21.78" height="1.32"/></g></g><g><rect class="ag" x="159.91" y="114.9" width="11.71" height="8.09"/><polygon class="v" points="159.91 114.9 158.28 113.33 165.76 113.33 165.76 114.9 159.91 114.9"/><polygon class="v" points="171.62 114.9 173.24 113.33 165.76 113.33 165.76 114.9 171.62 114.9"/><polygon class="v" points="159.91 123 158.28 124.57 165.76 124.57 165.76 123 159.91 123"/><polygon class="v" points="171.62 123 173.24 124.57 165.76 124.57 165.76 123 171.62 123"/><polygon class="v" points="158.28 113.33 158.28 124.57 159.91 123 159.91 114.9 158.28 113.33"/><polygon class="v" points="173.24 113.33 173.24 124.57 171.62 123 171.62 114.9 173.24 113.33"/></g></g><g><rect class="s" x="196.62" y="66.48" width="15.75" height="41.88"/><rect class="v" x="198.5" y="68.25" width="11.99" height="38.34"/></g><g><g><rect class="v" x="65.92" y="67.95" width="72.45" height="37.58"/><rect class="ad" x="69.35" y="71.54" width="65.59" height="30.41"/><g class="o"><g><path class="a`" d="M110.96,102.22h-6.39c-.74,0-1.16-.53-1.16-1.19s.42-1.19,1.16-1.19h6.39v.41h-6.39c-.48,0-.69,.35-.69,.78s.21,.78,.69,.78h6.39v.41Z"/><path class="a`" d="M104.57,101.8h6.12v-1.56h-6.12c-.48,0-.69,.35-.69,.78s.21,.78,.69,.78Z"/><polygon class="a`" points="109.95 101.44 109.58 101.29 109.22 101.44 109.22 100.82 109.95 100.82 109.95 101.44"/><path class="a`" d="M104.57,100.25c-.36,0-.57,.2-.65,.47l6.77-.26v-.21h-6.12Z"/></g><g><path class="a`" d="M111.28,99.84h-6.39c-.74,0-1.16-.53-1.16-1.19s.42-1.19,1.16-1.19h6.39v.41h-6.39c-.48,0-.69,.35-.69,.78s.21,.78,.69,.78h6.39v.41Z"/><path class="a`" d="M104.89,99.42h6.11v-1.55h-6.11c-.48,0-.69,.35-.69,.78s.21,.78,.69,.78Z"/><polygon class="a`" points="107.01 99.06 106.64 98.91 106.27 99.06 106.27 98.45 107.01 98.45 107.01 99.06"/><path class="a`" d="M104.89,97.87c-.36,0-.57,.19-.65,.47l6.77-.26v-.21h-6.11Z"/></g><g><path class="a`" d="M110.96,97.46h-6.39c-.74,0-1.16-.53-1.16-1.19s.42-1.19,1.16-1.19h6.39v.41h-6.39c-.48,0-.69,.35-.69,.78s.21,.78,.69,.78h6.39v.41Z"/><path class="a`" d="M104.57,97.04h6.12v-1.55h-6.12c-.48,0-.69,.35-.69,.78s.21,.78,.69,.78Z"/><polygon class="a`" points="109.22 96.88 108.85 96.73 108.48 96.88 108.48 96.27 109.22 96.27 109.22 96.88"/><path class="a`" d="M104.57,95.49c-.36,0-.57,.19-.65,.47l6.77-.26v-.21h-6.12Z"/></g><g><path class="a`" d="M110.41,95.08h-6.39c-.74,0-1.16-.53-1.16-1.19s.42-1.19,1.16-1.19h6.39v.41h-6.39c-.48,0-.69,.35-.69,.78s.21,.78,.69,.78h6.39v.41Z"/><path class="a`" d="M104.02,94.66h6.12v-1.55h-6.12c-.48,0-.69,.35-.69,.78s.21,.78,.69,.78Z"/><polygon class="a`" points="108.67 94.51 108.3 94.35 107.93 94.51 107.93 93.89 108.67 93.89 108.67 94.51"/><path class="a`" d="M104.02,93.11c-.36,0-.57,.19-.65,.47l6.77-.26v-.21h-6.12Z"/></g><g><rect class="a`" x="88.16" y="99.86" width="9.43" height="2.21"/><rect class="a`" x="88.81" y="100.39" width="5.12" height="1.15"/><path class="a`" d="M96.19,100.36c.33,0,.6,.27,.6,.6s-.27,.6-.6,.6-.6-.27-.6-.6,.27-.6,.6-.6Z"/><rect class="a`" x="88.16" y="97.7" width="9.43" height="2.21"/><rect class="a`" x="88.81" y="98.23" width="5.12" height="1.15"/><path class="a`" d="M96.19,98.2c.33,0,.6,.27,.6,.6s-.27,.6-.6,.6-.6-.27-.6-.6,.27-.6,.6-.6Z"/></g><g><rect class="a`" x="118.26" y="93.67" width="1.97" height="8.41"/><rect class="a`" x="118.73" y="94.25" width="1.02" height="4.56"/><path class="a`" d="M119.78,100.82c0,.3-.24,.54-.54,.54s-.54-.24-.54-.54,.24-.54,.54-.54,.54,.24,.54,.54Z"/><rect class="a`" x="120.56" y="93.67" width="1.97" height="8.41"/><rect class="a`" x="121.03" y="94.25" width="1.02" height="4.56"/><path class="a`" d="M121.75,100.82c0,.3-.24,.54-.53,.54s-.54-.24-.54-.54,.24-.54,.54-.54,.53,.24,.53,.54Z"/><rect class="a`" x="122.86" y="93.67" width="1.97" height="8.41"/><rect class="a`" x="123.33" y="94.25" width="1.02" height="4.56"/><rect class="a`" x="125.15" y="93.67" width="1.97" height="8.41"/><rect class="a`" x="125.63" y="94.25" width="1.02" height="4.56"/><rect class="a`" x="111.16" y="96.89" width="8.41" height="1.97" transform="translate(-25.71 152.51) rotate(-61.48)"/></g><g><rect class="a`" x="84.77" y="93.54" width="1.26" height="8.77" transform="translate(-35.86 51.25) rotate(-27.85)"/><polygon class="a`" points="87.45 101.06 86.83 101.39 83.35 94.79 83.97 94.46 87.45 101.06"/><rect class="a`" x="79.33" y="91.96" width="1.08" height="10.08"/><g><rect class="a`" x="72.93" y="96.66" width="9.21" height="1.57" transform="translate(-35.96 148.67) rotate(-75.79)"/><rect class="a`" x="74.59" y="98.64" width="5.15" height=".49" transform="translate(-37.61 149.47) rotate(-75.82)"/><polygon class="a`" points="79.01 94.81 78.94 95.07 77.42 94.68 77.49 94.43 79.01 94.81"/><polygon class="a`" points="79.12 94.35 79.06 94.61 77.54 94.22 77.61 93.96 79.12 94.35"/></g><g><rect class="a`" x="80.41" y="92.99" width="2.37" height="9.05"/><path class="a`" d="M81.57,93.44c-.32,0-.58,.26-.58,.58s.26,.58,.58,.58,.58-.26,.58-.58-.26-.58-.58-.58Z"/><rect class="a`" x="80.41" y="101.5" width="2.37" height=".23"/><rect class="a`" x="80.41" y="101.06" width="2.37" height=".22"/><rect class="a`" x="80.41" y="100.61" width="2.37" height=".22"/></g></g><g><rect class="a`" x="99.29" y="91.08" width="2.74" height="10.89"/><rect class="a`" x="99.29" y="91.77" width="2.74" height=".41"/><rect class="a`" x="99.29" y="92.5" width="2.74" height=".41"/><rect class="a`" x="99.29" y="100.87" width="2.74" height=".41"/><rect class="a`" x="99.29" y="100.14" width="2.74" height=".41"/></g><g><rect class="a`" x="97.5" y="92.6" width="1.79" height="9.37"/><rect class="a`" x="97.5" y="93.2" width="1.79" height=".35"/><rect class="a`" x="97.5" y="93.83" width="1.79" height=".91"/><rect class="a`" x="97.5" y="101.03" width="1.79" height=".35"/><rect class="a`" x="97.5" y="99.84" width="1.79" height=".91"/></g></g><polygon class="ab" points="88.76 71.53 134.94 101.96 69.34 101.96 69.34 71.53 88.76 71.53"/></g><g><g><path class="v" d="M74.89,83.48c0-.21,.02-.4,.06-.59h-6.6v1.32h6.54v-.73Z"/><path class="v" d="M128.9,82.89c.15,.34,.25,.74,.25,1.18v.13h6.43v-1.32h-6.67Z"/></g><rect class="v" x="68.35" y="76.25" width="67.22" height="1.31"/><path class="v" d="M127.72,71.09v32.42c.46-.04,.94,0,1.38,.13v-32.88c-.42,.2-.9,.31-1.38,.33Z"/><path class="v" d="M75.78,103.16v-32.03c-.45,.11-.92,.14-1.38,.09v31.86c.47-.06,.94-.03,1.38,.08Z"/><g><rect class="v" x="68.14" y="89.58" width="6.75" height="1.31"/><rect class="v" x="129.15" y="89.58" width="6.21" height="1.31"/></g><g><rect class="v" x="67.94" y="96.27" width="6.95" height="1.31"/><rect class="v" x="128.53" y="96.27" width="6.63" height="1.31"/></g></g><rect class="v" x="62.27" y="102.06" width="79.82" height="3.95"/></g><g><g><polygon class="w" points="12.74 29.42 7.34 29.42 0 44.03 5.83 44.03 12.74 29.42"/><polygon class="k" points="18.05 29.42 12.65 29.42 5.73 44.03 11.56 44.03 18.05 29.42"/><polygon class="w" points="23.37 29.42 17.96 29.42 11.46 44.03 17.29 44.03 23.37 29.42"/><polygon class="k" points="28.67 29.42 23.27 29.42 17.19 44.03 23.02 44.03 28.67 29.42"/><polygon class="w" points="33.99 29.42 28.59 29.42 22.92 44.03 28.75 44.03 33.99 29.42"/><polygon class="k" points="39.3 29.42 33.89 29.42 28.65 44.03 34.48 44.03 39.3 29.42"/><polygon class="w" points="44.61 29.42 39.21 29.42 34.39 44.03 40.22 44.03 44.61 29.42"/><polygon class="k" points="49.92 29.42 44.52 29.42 40.12 44.03 45.94 44.03 49.92 29.42"/><polygon class="w" points="55.24 29.42 49.83 29.42 45.84 44.03 51.68 44.03 55.24 29.42"/><polygon class="k" points="60.55 29.42 55.15 29.42 51.58 44.03 57.41 44.03 60.55 29.42"/><polygon class="w" points="65.86 29.42 60.46 29.42 57.31 44.03 63.14 44.03 65.86 29.42"/><polygon class="k" points="71.17 29.42 65.77 29.42 63.04 44.03 68.87 44.03 71.17 29.42"/><polygon class="w" points="76.49 29.42 71.08 29.42 68.77 44.03 74.6 44.03 76.49 29.42"/><polygon class="k" points="81.79 29.42 76.39 29.42 74.5 44.03 80.33 44.03 81.79 29.42"/><polygon class="w" points="87.11 29.42 81.71 29.42 80.23 44.03 86.06 44.03 87.11 29.42"/><polygon class="k" points="92.42 29.42 87.02 29.42 85.97 44.03 91.79 44.03 92.42 29.42"/><polygon class="w" points="97.73 29.42 92.33 29.42 91.69 44.03 97.53 44.03 97.73 29.42"/><polygon class="k" points="103.04 29.42 97.64 29.42 97.43 44.03 103.25 44.03 103.04 29.42"/><polygon class="w" points="108.36 29.42 102.95 29.42 103.15 44.03 108.99 44.03 108.36 29.42"/><polygon class="k" points="113.66 29.42 108.26 29.42 108.89 44.03 114.72 44.03 113.66 29.42"/><polygon class="w" points="118.98 29.42 113.58 29.42 114.62 44.03 120.45 44.03 118.98 29.42"/><polygon class="k" points="124.29 29.42 118.89 29.42 120.35 44.03 126.18 44.03 124.29 29.42"/><polygon class="w" points="129.6 29.42 124.2 29.42 126.08 44.03 131.92 44.03 129.6 29.42"/><polygon class="k" points="134.92 29.42 129.51 29.42 131.81 44.03 137.64 44.03 134.92 29.42"/><polygon class="w" points="140.22 29.42 134.82 29.42 137.54 44.03 143.37 44.03 140.22 29.42"/><polygon class="k" points="145.54 29.42 140.13 29.42 143.28 44.03 149.1 44.03 145.54 29.42"/><polygon class="w" points="150.85 29.42 145.45 29.42 149.01 44.03 154.84 44.03 150.85 29.42"/><polygon class="k" points="156.16 29.42 150.76 29.42 154.74 44.03 160.57 44.03 156.16 29.42"/><polygon class="w" points="161.47 29.42 156.07 29.42 160.47 44.03 166.3 44.03 161.47 29.42"/><polygon class="k" points="166.79 29.42 161.38 29.42 166.2 44.03 172.03 44.03 166.79 29.42"/><polygon class="w" points="172.1 29.42 166.69 29.42 171.93 44.03 177.76 44.03 172.1 29.42"/><polygon class="k" points="177.41 29.42 172.01 29.42 177.66 44.03 183.49 44.03 177.41 29.42"/><polygon class="w" points="182.72 29.42 177.32 29.42 183.39 44.03 189.22 44.03 182.72 29.42"/><polygon class="k" points="188.03 29.42 182.63 29.42 189.12 44.03 194.95 44.03 188.03 29.42"/><polygon class="w" points="193.35 29.42 187.94 29.42 194.85 44.03 200.69 44.03 193.35 29.42"/></g><g><rect class="x" y="44.03" width="5.83" height="3.65"/><rect class="r" x="5.73" y="44.03" width="5.83" height="3.65"/><rect class="x" x="11.46" y="44.03" width="5.83" height="3.65"/><rect class="r" x="17.19" y="44.03" width="5.83" height="3.65"/><rect class="x" x="22.92" y="44.03" width="5.83" height="3.65"/><rect class="r" x="28.65" y="44.03" width="5.83" height="3.65"/><rect class="x" x="34.39" y="44.03" width="5.83" height="3.65"/><rect class="r" x="40.12" y="44.03" width="5.83" height="3.65"/><rect class="x" x="45.84" y="44.03" width="5.83" height="3.65"/><rect class="r" x="51.58" y="44.03" width="5.83" height="3.65"/><rect class="x" x="57.31" y="44.03" width="5.83" height="3.65"/><rect class="r" x="63.04" y="44.03" width="5.83" height="3.65"/><rect class="x" x="68.77" y="44.03" width="5.83" height="3.65"/><rect class="r" x="74.5" y="44.03" width="5.83" height="3.65"/><rect class="x" x="80.23" y="44.03" width="5.83" height="3.65"/><rect class="r" x="85.97" y="44.03" width="5.83" height="3.65"/><rect class="x" x="91.69" y="44.03" width="5.83" height="3.65"/><rect class="r" x="97.43" y="44.03" width="5.82" height="3.65"/><rect class="x" x="103.15" y="44.03" width="5.83" height="3.65"/><rect class="r" x="108.89" y="44.03" width="5.83" height="3.65"/><rect class="x" x="114.62" y="44.03" width="5.83" height="3.65"/><rect class="r" x="120.35" y="44.03" width="5.83" height="3.65"/><rect class="x" x="126.08" y="44.03" width="5.83" height="3.65"/><rect class="r" x="131.81" y="44.03" width="5.83" height="3.65"/><rect class="x" x="137.54" y="44.03" width="5.83" height="3.65"/><rect class="r" x="143.28" y="44.03" width="5.83" height="3.65"/><rect class="x" x="149.01" y="44.03" width="5.83" height="3.65"/><rect class="r" x="154.74" y="44.03" width="5.83" height="3.65"/><rect class="x" x="160.47" y="44.03" width="5.83" height="3.65"/><rect class="r" x="166.2" y="44.03" width="5.83" height="3.65"/><rect class="x" x="171.93" y="44.03" width="5.83" height="3.65"/><rect class="r" x="177.66" y="44.03" width="5.83" height="3.65"/><rect class="x" x="183.39" y="44.03" width="5.83" height="3.65"/><rect class="r" x="189.12" y="44.03" width="5.83" height="3.65"/><rect class="x" x="194.85" y="44.03" width="5.83" height="3.65"/></g></g><g><g><polygon class="w" points="63.53 70.78 58.61 70.78 61.73 62.56 66.3 62.56 63.53 70.78"/><polygon class="k" points="68.14 70.78 63.22 70.78 66.01 62.56 70.58 62.56 68.14 70.78"/><polygon class="w" points="72.75 70.78 67.83 70.78 70.29 62.56 74.86 62.56 72.75 70.78"/><polygon class="k" points="77.36 70.78 72.44 70.78 74.57 62.56 79.15 62.56 77.36 70.78"/><polygon class="w" points="81.96 70.78 77.04 70.78 78.86 62.56 83.43 62.56 81.96 70.78"/><polygon class="k" points="86.57 70.78 81.65 70.78 83.14 62.56 87.71 62.56 86.57 70.78"/><polygon class="w" points="91.18 70.78 86.26 70.78 87.42 62.56 91.99 62.56 91.18 70.78"/><polygon class="k" points="95.79 70.78 90.87 70.78 91.7 62.56 96.27 62.56 95.79 70.78"/><polygon class="w" points="100.4 70.78 95.48 70.78 95.98 62.56 100.55 62.56 100.4 70.78"/><polygon class="k" points="105.01 70.78 100.09 70.78 100.26 62.56 104.83 62.56 105.01 70.78"/><polygon class="w" points="109.62 70.78 104.7 70.78 104.54 62.56 109.11 62.56 109.62 70.78"/><polygon class="k" points="114.22 70.78 109.31 70.78 108.82 62.56 113.39 62.56 114.22 70.78"/><polygon class="w" points="118.83 70.78 113.91 70.78 113.1 62.56 117.67 62.56 118.83 70.78"/><polygon class="k" points="123.44 70.78 118.52 70.78 117.38 62.56 121.96 62.56 123.44 70.78"/><polygon class="w" points="128.05 70.78 123.13 70.78 121.67 62.56 126.24 62.56 128.05 70.78"/><polygon class="k" points="132.66 70.78 127.74 70.78 125.95 62.56 130.52 62.56 132.66 70.78"/><polygon class="w" points="137.27 70.78 132.35 70.78 130.23 62.56 134.8 62.56 137.27 70.78"/><polygon class="k" points="141.88 70.78 136.95 70.78 134.51 62.56 139.08 62.56 141.88 70.78"/><polygon class="w" points="146.48 70.78 141.56 70.78 138.79 62.56 143.36 62.56 146.48 70.78"/></g><rect class="x" x="58.61" y="70.78" width="4.61" height="1.84"/><rect class="r" x="63.22" y="70.78" width="4.61" height="1.84"/><rect class="x" x="67.83" y="70.78" width="4.61" height="1.84"/><rect class="r" x="72.44" y="70.78" width="4.61" height="1.84"/><rect class="x" x="77.04" y="70.78" width="4.61" height="1.84"/><rect class="r" x="81.65" y="70.78" width="4.61" height="1.84"/><rect class="x" x="86.26" y="70.78" width="4.61" height="1.84"/><rect class="r" x="90.87" y="70.78" width="4.61" height="1.84"/><rect class="x" x="95.48" y="70.78" width="4.61" height="1.84"/><rect class="r" x="100.09" y="70.78" width="4.61" height="1.84"/><rect class="x" x="104.7" y="70.78" width="4.61" height="1.84"/><rect class="r" x="109.31" y="70.78" width="4.61" height="1.84"/><rect class="x" x="113.91" y="70.78" width="4.61" height="1.84"/><rect class="r" x="118.52" y="70.78" width="4.61" height="1.84"/><rect class="x" x="123.13" y="70.78" width="4.61" height="1.84"/><rect class="r" x="127.74" y="70.78" width="4.61" height="1.84"/><rect class="x" x="132.35" y="70.78" width="4.61" height="1.84"/><rect class="r" x="136.95" y="70.78" width="4.61" height="1.84"/><rect class="x" x="141.56" y="70.78" width="4.61" height="1.84"/></g><g><g><polygon class="k" points="54.63 125.4 60.22 125.4 59.37 130.89 54.63 131.1 49.9 130.89 49.04 125.4 54.63 125.4"/><path class="ag" d="M48.95,123.18h2.87s.03,.02,.04,.02c.01,0,.03-.02,.04-.02h8.48c.11,0,.19,.21,.19,.46v1.56c0,.25-.09,.45-.19,.45h-8.48s-.03,0-.04-.01c-.02,0-.03,.01-.04,.01h-2.87c-.11,0-.2-.2-.2-.45v-1.56c0-.25,.09-.46,.2-.46Z"/><path class="w" d="M63.18,121.34c0-.61-.44-1.13-1.02-1.25-.04-.43-.39-.77-.84-.77-.05,0-.1,0-.15,.02v-.02c0-.66-.54-1.2-1.2-1.2-.58,0-1.07,.41-1.18,.96-.14-.19-.36-.32-.6-.32-.11,0-.2,.02-.29,.06-.21-.41-.64-.7-1.13-.7-.7,0-1.26,.57-1.26,1.26,0,.02,0,.03,0,.05h0c-.7,0-1.27,.57-1.27,1.27,0,.38,.17,.71,.42,.94-.45,.18-.77,.62-.77,1.13,0,.68,.55,1.22,1.22,1.22,.25,0,.47-.07,.67-.2,0,.04,0,.08,0,.11,0,.87,.7,1.57,1.56,1.57,.66,0,1.22-.4,1.45-.98,.28,.34,.71,.55,1.18,.55,.7,0,1.29-.46,1.47-1.1,.02,0,.04,.01,.06,.01,.54,0,.98-.44,.98-.98,0-.17-.04-.32-.11-.45,.47-.19,.81-.65,.81-1.19Z"/><g><path class="p" d="M62.09,124c.09-.04,.14-.14,.12-.24,.1,.02,.19-.03,.23-.13,.04-.09,0-.2-.08-.25,.08-.07,.12-.17,.07-.27-.04-.09-.14-.13-.24-.12,.02-.1-.03-.2-.13-.23-.1-.04-.2,0-.25,.09-.06-.08-.17-.11-.26-.08-.09,.05-.14,.15-.12,.24-.1-.01-.2,.04-.23,.13-.04,.09,0,.2,.08,.25-.08,.06-.11,.17-.07,.26,.05,.09,.14,.14,.24,.12-.01,.1,.04,.2,.13,.23,.1,.04,.2,0,.26-.09,.06,.08,.16,.12,.26,.07Z"/><path class="ag" d="M61.9,123.6c-.11,.05-.25,0-.3-.12-.05-.11,0-.25,.11-.29,.12-.05,.25,0,.3,.11,.05,.11,0,.25-.12,.3Z"/></g><g><path class="p" d="M61.1,120.11c-.04-.11-.15-.16-.26-.15,.02-.11-.03-.22-.14-.26-.1-.04-.22,0-.29,.08-.06-.09-.17-.12-.28-.09-.11,.04-.16,.15-.14,.26-.11-.02-.22,.04-.26,.14-.05,.1,0,.22,.08,.28-.1,.06-.13,.17-.09,.28,.04,.11,.15,.16,.26,.15-.02,.1,.03,.21,.14,.26,.11,.05,.22,0,.28-.08,.06,.09,.18,.13,.28,.09,.11-.04,.16-.15,.14-.26,.11,.02,.22-.03,.26-.14,.05-.1,0-.22-.08-.28,.09-.07,.13-.18,.09-.28Z"/><path class="ag" d="M60.64,120.3c.05,.12-.01,.27-.14,.32-.13,.05-.27-.01-.32-.14-.05-.13,0-.27,.14-.32,.13-.05,.27,.01,.32,.14Z"/></g><g><path class="p" d="M54.96,122.92c0-.13,.1-.24,.22-.27-.07-.11-.06-.25,.04-.35,.1-.09,.24-.1,.35-.03,.03-.13,.14-.22,.27-.22s.24,.09,.27,.22c.11-.07,.25-.06,.35,.03,.1,.1,.1,.24,.03,.35,.13,.03,.22,.14,.22,.27s-.09,.24-.22,.27c.07,.11,.06,.26-.03,.35-.09,.09-.24,.1-.35,.04-.03,.12-.14,.22-.27,.22s-.24-.1-.27-.22c-.11,.07-.25,.06-.35-.04-.09-.09-.1-.24-.04-.35-.12-.03-.22-.14-.22-.27Z"/><path class="n" d="M54.96,122.92c0-.13,.1-.24,.22-.27-.07-.11-.06-.25,.04-.35,.1-.09,.24-.1,.35-.03,.03-.13,.14-.22,.27-.22s.24,.09,.27,.22c.11-.07,.25-.06,.35,.03,.1,.1,.1,.24,.03,.35,.13,.03,.22,.14,.22,.27s-.09,.24-.22,.27c.07,.11,.06,.26-.03,.35-.09,.09-.24,.1-.35,.04-.03,.12-.14,.22-.27,.22s-.24-.1-.27-.22c-.11,.07-.25,.06-.35-.04-.09-.09-.1-.24-.04-.35-.12-.03-.22-.14-.22-.27Z"/><path class="ag" d="M55.55,122.92c0,.16,.13,.3,.29,.3s.29-.13,.29-.3-.13-.3-.29-.3-.29,.13-.29,.3Z"/></g><g><path class="p" d="M58.04,124.23c0-.08,.06-.15,.14-.17-.04-.07-.04-.16,.03-.22,.06-.06,.15-.07,.22-.02,.02-.08,.08-.14,.17-.14s.15,.06,.17,.14c.07-.04,.16-.04,.22,.02,.06,.06,.06,.15,.02,.22,.08,.02,.14,.09,.14,.17s-.06,.15-.14,.17c.04,.06,.04,.15-.02,.21-.06,.07-.15,.07-.22,.02-.02,.08-.09,.14-.17,.14s-.15-.06-.17-.14c-.07,.05-.16,.05-.22-.02-.06-.06-.07-.15-.03-.21-.08-.02-.14-.09-.14-.17Z"/><path class="n" d="M58.04,124.23c0-.08,.06-.15,.14-.17-.04-.07-.04-.16,.03-.22,.06-.06,.15-.07,.22-.02,.02-.08,.08-.14,.17-.14s.15,.06,.17,.14c.07-.04,.16-.04,.22,.02,.06,.06,.06,.15,.02,.22,.08,.02,.14,.09,.14,.17s-.06,.15-.14,.17c.04,.06,.04,.15-.02,.21-.06,.07-.15,.07-.22,.02-.02,.08-.09,.14-.17,.14s-.15-.06-.17-.14c-.07,.05-.16,.05-.22-.02-.06-.06-.07-.15-.03-.21-.08-.02-.14-.09-.14-.17Z"/><path class="ag" d="M58.41,124.23c0,.1,.08,.18,.18,.18s.19-.08,.19-.18-.08-.19-.19-.19-.18,.08-.18,.19Z"/></g><g><path class="p" d="M57.84,118.79c.03-.08,.1-.11,.17-.1-.02-.07,.02-.14,.09-.18,.07-.03,.14,0,.19,.05,.04-.06,.11-.08,.18-.06,.07,.03,.11,.1,.1,.17,.07-.02,.14,.02,.17,.09,.03,.07,0,.14-.05,.19,.06,.04,.09,.12,.06,.18-.03,.08-.1,.1-.17,.09,.01,.07-.02,.14-.09,.18-.07,.03-.14,0-.18-.06-.04,.06-.12,.09-.18,.06-.06-.03-.1-.1-.09-.17-.07,.02-.14-.02-.17-.09-.03-.07,0-.15,.06-.19-.06-.04-.09-.12-.06-.18Z"/><path class="n" d="M57.84,118.79c.03-.08,.1-.11,.17-.1-.02-.07,.02-.14,.09-.18,.07-.03,.14,0,.19,.05,.04-.06,.11-.08,.18-.06,.07,.03,.11,.1,.1,.17,.07-.02,.14,.02,.17,.09,.03,.07,0,.14-.05,.19,.06,.04,.09,.12,.06,.18-.03,.08-.1,.1-.17,.09,.01,.07-.02,.14-.09,.18-.07,.03-.14,0-.18-.06-.04,.06-.12,.09-.18,.06-.06-.03-.1-.1-.09-.17-.07,.02-.14-.02-.17-.09-.03-.07,0-.15,.06-.19-.06-.04-.09-.12-.06-.18Z"/><path class="ag" d="M58.14,118.91c-.03,.08,0,.18,.09,.21,.08,.03,.18,0,.21-.09,.03-.08,0-.18-.09-.21-.09-.03-.18,0-.21,.09Z"/></g><path class="w" d="M47.28,120.65c0-.72,.51-1.32,1.19-1.46,.04-.5,.46-.9,.97-.9,.06,0,.12,0,.17,.02v-.02c0-.77,.63-1.41,1.41-1.41,.68,0,1.24,.48,1.37,1.12,.16-.22,.41-.36,.71-.36,.12,0,.23,.02,.33,.06,.24-.48,.74-.82,1.32-.82,.81,0,1.47,.66,1.47,1.48,0,.02,0,.04,0,.06,0,0,0,0,.01,0,.82,0,1.48,.67,1.48,1.48,0,.44-.19,.83-.49,1.1,.52,.21,.9,.72,.9,1.33,0,.78-.64,1.42-1.43,1.42-.29,0-.55-.08-.78-.23,0,.05,0,.09,0,.14,0,1.01-.82,1.83-1.83,1.83-.77,0-1.42-.47-1.7-1.14-.33,.4-.82,.65-1.37,.65-.81,0-1.5-.55-1.72-1.29-.02,0-.05,.01-.07,.01-.63,0-1.15-.51-1.15-1.15,0-.2,.05-.37,.14-.53-.55-.21-.95-.75-.95-1.38Z"/><g><path class="p" d="M50.08,118.7c0-.12,.09-.23,.21-.25-.07-.1-.06-.23,.03-.32,.09-.09,.22-.1,.32-.03,.03-.12,.13-.21,.25-.21s.22,.09,.25,.21c.1-.06,.24-.06,.32,.03,.09,.09,.09,.22,.03,.32,.12,.03,.2,.13,.2,.25s-.09,.22-.2,.25c.06,.1,.06,.23-.03,.32-.09,.09-.22,.1-.32,.04-.03,.12-.12,.21-.25,.21-.12,0-.22-.09-.25-.21-.1,.06-.23,.05-.32-.04-.09-.09-.09-.22-.03-.32-.12-.03-.21-.13-.21-.25Z"/><path class="ag" d="M50.62,118.7c0,.15,.12,.27,.27,.27s.27-.12,.27-.27-.12-.27-.27-.27-.27,.12-.27,.27Z"/></g><g><path class="p" d="M47.37,121.41c0-.12,.09-.23,.21-.25-.06-.1-.06-.23,.03-.32,.09-.09,.22-.1,.32-.03,.03-.12,.13-.21,.25-.21,.12,0,.23,.09,.25,.21,.1-.06,.24-.06,.33,.03,.09,.09,.09,.22,.03,.32,.12,.03,.21,.13,.21,.25s-.09,.23-.21,.25c.06,.1,.06,.24-.03,.33-.09,.09-.22,.1-.33,.03-.03,.12-.13,.21-.25,.21s-.22-.09-.25-.21c-.1,.07-.23,.06-.32-.03-.09-.09-.1-.23-.03-.33-.12-.03-.21-.13-.21-.25Z"/><path class="ag" d="M47.91,121.41c0,.15,.12,.28,.27,.28s.28-.12,.28-.28-.12-.27-.28-.27-.27,.12-.27,.27Z"/></g><g><path class="p" d="M50.16,123.71c-.09-.04-.14-.14-.12-.24-.1,.02-.2-.04-.24-.13-.04-.1,0-.2,.09-.25-.08-.06-.11-.16-.07-.26,.04-.1,.14-.15,.24-.12-.02-.1,.04-.2,.13-.23,.09-.04,.2,0,.25,.09,.06-.08,.17-.11,.26-.07,.09,.04,.14,.14,.12,.24,.1-.01,.2,.04,.23,.13,.04,.09,0,.2-.08,.26,.08,.06,.12,.16,.07,.26-.04,.09-.15,.14-.24,.11,.01,.1-.04,.2-.14,.24-.09,.04-.2,0-.25-.08-.06,.08-.16,.11-.26,.07Z"/><path class="ag" d="M50.35,123.3c.11,.05,.24,0,.3-.11,.05-.11,0-.25-.12-.3-.11-.05-.24,0-.3,.12-.05,.11,0,.24,.12,.29Z"/></g><g><path class="p" d="M51.22,120.99c.03-.08,.1-.11,.18-.1-.01-.08,.02-.15,.1-.19,.07-.03,.15,0,.2,.06,.04-.06,.13-.09,.2-.06,.07,.03,.11,.11,.1,.18,.08-.02,.15,.02,.19,.1,.03,.07,0,.16-.06,.2,.07,.04,.1,.12,.07,.2-.03,.07-.11,.11-.19,.1,.01,.08-.02,.15-.1,.19-.07,.03-.15,0-.2-.06-.04,.07-.12,.09-.2,.07-.07-.03-.11-.11-.1-.19-.08,.01-.15-.02-.18-.1-.03-.08,0-.15,.06-.2-.06-.04-.09-.12-.06-.2Z"/><path class="ag" d="M51.54,121.12c-.04,.09,0,.19,.1,.23,.09,.04,.19,0,.23-.1,.04-.09,0-.19-.1-.23-.09-.04-.19,0-.23,.1Z"/></g><g><path class="p" d="M56.55,118.7c0-.12-.09-.23-.21-.25,.06-.1,.06-.23-.03-.32-.09-.09-.22-.1-.33-.03-.02-.12-.12-.21-.25-.21s-.22,.09-.25,.21c-.1-.06-.24-.06-.32,.03-.09,.09-.1,.22-.03,.32-.12,.03-.21,.13-.21,.25s.09,.22,.21,.25c-.06,.1-.06,.23,.03,.32,.09,.09,.22,.1,.32,.04,.03,.12,.13,.21,.25,.21,.13,0,.22-.09,.25-.21,.1,.06,.24,.05,.33-.04,.09-.09,.09-.22,.03-.32,.12-.03,.21-.13,.21-.25Z"/><path class="n" d="M56.55,118.7c0-.12-.09-.23-.21-.25,.06-.1,.06-.23-.03-.32-.09-.09-.22-.1-.33-.03-.02-.12-.12-.21-.25-.21s-.22,.09-.25,.21c-.1-.06-.24-.06-.32,.03-.09,.09-.1,.22-.03,.32-.12,.03-.21,.13-.21,.25s.09,.22,.21,.25c-.06,.1-.06,.23,.03,.32,.09,.09,.22,.1,.32,.04,.03,.12,.13,.21,.25,.21,.13,0,.22-.09,.25-.21,.1,.06,.24,.05,.33-.04,.09-.09,.09-.22,.03-.32,.12-.03,.21-.13,.21-.25Z"/><path class="ag" d="M56.01,118.7c0,.15-.12,.27-.27,.27s-.27-.12-.27-.27,.12-.27,.27-.27,.27,.12,.27,.27Z"/></g><g><path class="p" d="M53.98,124.23c0-.08-.06-.15-.14-.17,.04-.07,.04-.16-.02-.22-.06-.06-.15-.07-.21-.02-.02-.08-.09-.14-.17-.14s-.15,.06-.17,.14c-.07-.04-.16-.04-.22,.02-.06,.06-.06,.15-.02,.22-.08,.02-.14,.09-.14,.17s.06,.15,.14,.17c-.04,.06-.04,.15,.02,.21,.06,.07,.15,.07,.22,.02,.02,.08,.08,.14,.17,.14s.15-.06,.17-.14c.07,.05,.16,.05,.21-.02,.06-.06,.07-.15,.02-.21,.08-.02,.14-.09,.14-.17Z"/><path class="n" d="M53.98,124.23c0-.08-.06-.15-.14-.17,.04-.07,.04-.16-.02-.22-.06-.06-.15-.07-.21-.02-.02-.08-.09-.14-.17-.14s-.15,.06-.17,.14c-.07-.04-.16-.04-.22,.02-.06,.06-.06,.15-.02,.22-.08,.02-.14,.09-.14,.17s.06,.15,.14,.17c-.04,.06-.04,.15,.02,.21,.06,.07,.15,.07,.22,.02,.02,.08,.08,.14,.17,.14s.15-.06,.17-.14c.07,.05,.16,.05,.21-.02,.06-.06,.07-.15,.02-.21,.08-.02,.14-.09,.14-.17Z"/><path class="ag" d="M53.61,124.23c0,.1-.08,.18-.18,.18s-.19-.08-.19-.18,.08-.19,.19-.19,.18,.08,.18,.19Z"/></g><g><path class="p" d="M54.59,121.8c.09-.04,.14-.15,.12-.24,.1,.02,.2-.03,.23-.13,.04-.1,0-.2-.08-.25,.08-.06,.11-.17,.07-.25-.04-.1-.14-.14-.24-.12,.01-.1-.04-.2-.13-.23-.1-.04-.2,0-.25,.09-.06-.08-.17-.11-.26-.07-.09,.04-.14,.15-.12,.24-.1-.01-.2,.04-.23,.13-.04,.09,0,.2,.08,.26-.08,.06-.11,.17-.07,.26,.04,.09,.14,.14,.24,.12-.02,.1,.04,.2,.13,.24,.1,.03,.2,0,.25-.08,.06,.08,.17,.11,.26,.07Z"/><path class="n" d="M54.59,121.8c.09-.04,.14-.15,.12-.24,.1,.02,.2-.03,.23-.13,.04-.1,0-.2-.08-.25,.08-.06,.11-.17,.07-.25-.04-.1-.14-.14-.24-.12,.01-.1-.04-.2-.13-.23-.1-.04-.2,0-.25,.09-.06-.08-.17-.11-.26-.07-.09,.04-.14,.15-.12,.24-.1-.01-.2,.04-.23,.13-.04,.09,0,.2,.08,.26-.08,.06-.11,.17-.07,.26,.04,.09,.14,.14,.24,.12-.02,.1,.04,.2,.13,.24,.1,.03,.2,0,.25-.08,.06,.08,.17,.11,.26,.07Z"/><path class="ag" d="M54.4,121.39c-.11,.05-.25,0-.3-.12-.05-.11,0-.25,.11-.3,.12-.05,.25,0,.3,.11,.05,.12,0,.25-.12,.3Z"/></g><g><path class="p" d="M54.18,118.79c-.02-.08-.1-.11-.17-.1,0-.07-.02-.14-.09-.18-.07-.03-.15,0-.19,.05-.04-.06-.12-.08-.19-.06-.07,.03-.11,.1-.09,.17-.07-.02-.14,.02-.17,.09-.03,.07,0,.14,.05,.19-.06,.04-.09,.12-.06,.18,.03,.08,.1,.1,.17,.09-.01,.07,.02,.14,.09,.18,.07,.03,.15,0,.19-.06,.04,.06,.12,.09,.19,.06,.07-.03,.1-.1,.09-.17,.07,.02,.14-.02,.17-.09,.03-.07,0-.15-.06-.19,.06-.04,.09-.12,.06-.18Z"/><path class="n" d="M54.18,118.79c-.02-.08-.1-.11-.17-.1,0-.07-.02-.14-.09-.18-.07-.03-.15,0-.19,.05-.04-.06-.12-.08-.19-.06-.07,.03-.11,.1-.09,.17-.07-.02-.14,.02-.17,.09-.03,.07,0,.14,.05,.19-.06,.04-.09,.12-.06,.18,.03,.08,.1,.1,.17,.09-.01,.07,.02,.14,.09,.18,.07,.03,.15,0,.19-.06,.04,.06,.12,.09,.19,.06,.07-.03,.1-.1,.09-.17,.07,.02,.14-.02,.17-.09,.03-.07,0-.15-.06-.19,.06-.04,.09-.12,.06-.18Z"/><path class="ag" d="M53.88,118.91c.03,.08,0,.18-.09,.21-.09,.03-.18,0-.21-.09-.03-.08,0-.18,.09-.21,.09-.03,.17,0,.21,.09Z"/></g><g><path class="p" d="M57.19,121.86c-.1-.04-.14-.14-.12-.24-.1,.02-.2-.03-.23-.13-.04-.1,0-.2,.08-.26-.08-.06-.11-.16-.07-.26,.04-.1,.14-.14,.24-.12-.01-.1,.04-.19,.13-.23,.1-.03,.2,0,.25,.09,.06-.08,.17-.11,.26-.07,.1,.04,.14,.14,.12,.24,.1-.01,.2,.04,.23,.13,.04,.09,0,.2-.09,.25,.08,.06,.12,.17,.07,.26-.04,.09-.14,.14-.24,.12,.01,.09-.04,.2-.14,.23-.09,.04-.2,0-.25-.08-.06,.07-.17,.11-.26,.07Z"/><path class="n" d="M57.19,121.86c-.1-.04-.14-.14-.12-.24-.1,.02-.2-.03-.23-.13-.04-.1,0-.2,.08-.26-.08-.06-.11-.16-.07-.26,.04-.1,.14-.14,.24-.12-.01-.1,.04-.19,.13-.23,.1-.03,.2,0,.25,.09,.06-.08,.17-.11,.26-.07,.1,.04,.14,.14,.12,.24,.1-.01,.2,.04,.23,.13,.04,.09,0,.2-.09,.25,.08,.06,.12,.17,.07,.26-.04,.09-.14,.14-.24,.12,.01,.09-.04,.2-.14,.23-.09,.04-.2,0-.25-.08-.06,.07-.17,.11-.26,.07Z"/><path class="ag" d="M57.37,121.45c.11,.05,.25,0,.3-.12,.05-.11,0-.25-.12-.3-.11-.05-.24,0-.3,.11-.05,.12,0,.25,.12,.3Z"/></g><g><path class="p" d="M56.87,123.32c0-.14-.09-.24-.22-.27,.07-.1,.06-.25-.04-.35-.09-.1-.24-.1-.35-.04-.03-.12-.13-.22-.27-.22s-.24,.1-.28,.22c-.1-.07-.25-.06-.34,.04-.1,.1-.11,.24-.03,.35-.13,.03-.22,.14-.22,.27s.1,.24,.22,.27c-.07,.11-.06,.25,.03,.35,.09,.09,.24,.1,.34,.03,.03,.13,.14,.22,.28,.22s.24-.09,.27-.22c.11,.07,.26,.06,.35-.03,.09-.09,.1-.24,.04-.35,.13-.03,.22-.14,.22-.27Z"/><path class="n" d="M56.87,123.32c0-.14-.09-.24-.22-.27,.07-.1,.06-.25-.04-.35-.09-.1-.24-.1-.35-.04-.03-.12-.13-.22-.27-.22s-.24,.1-.28,.22c-.1-.07-.25-.06-.34,.04-.1,.1-.11,.24-.03,.35-.13,.03-.22,.14-.22,.27s.1,.24,.22,.27c-.07,.11-.06,.25,.03,.35,.09,.09,.24,.1,.34,.03,.03,.13,.14,.22,.28,.22s.24-.09,.27-.22c.11,.07,.26,.06,.35-.03,.09-.09,.1-.24,.04-.35,.13-.03,.22-.14,.22-.27Z"/><path class="ag" d="M56.29,123.32c0,.16-.13,.29-.29,.29s-.3-.13-.3-.29,.13-.3,.3-.3,.29,.13,.29,.3Z"/></g></g><g><polygon class="k" points="17.59 125.4 23.18 125.4 22.32 130.89 17.59 131.1 12.85 130.89 12 125.4 17.59 125.4"/><path class="ag" d="M11.9,123.17h2.87s.03,.02,.04,.02c.01,0,.03-.02,.04-.02h8.48c.11,0,.19,.21,.19,.46v1.56c0,.25-.09,.45-.19,.45H14.85s-.03,0-.04-.01c-.01,0-.03,.01-.04,.01h-2.87c-.11,0-.2-.21-.2-.45v-1.56c0-.25,.09-.46,.2-.46Z"/><g><path class="w" d="M26.13,120.3c0-.77-.55-1.41-1.28-1.56-.05-.54-.5-.97-1.05-.97-.07,0-.13,.01-.19,.02v-.02c0-.83-.67-1.51-1.51-1.51-.72,0-1.33,.51-1.47,1.2-.17-.24-.45-.39-.76-.39-.13,0-.25,.03-.36,.07-.26-.52-.79-.88-1.41-.88-.87,0-1.58,.71-1.58,1.58,0,.02,0,.04,0,.06h-.01c-.88,0-1.59,.71-1.59,1.59,0,.47,.21,.89,.53,1.18-.57,.22-.96,.78-.96,1.42,0,.85,.68,1.53,1.53,1.53,.31,0,.59-.09,.83-.25,0,.05,0,.09,0,.15,0,1.08,.88,1.96,1.96,1.96,.83,0,1.53-.5,1.82-1.23,.35,.43,.88,.7,1.47,.7,.87,0,1.61-.58,1.84-1.38,.03,0,.05,0,.08,0,.68,0,1.23-.55,1.23-1.23,0-.21-.05-.4-.15-.58,.59-.23,1.01-.8,1.01-1.48Z"/><g><path class="p" d="M23.33,118.7c0-.12-.09-.23-.21-.25,.06-.1,.06-.23-.03-.32-.09-.09-.22-.1-.32-.03-.03-.12-.12-.21-.25-.21s-.22,.09-.25,.21c-.1-.06-.24-.06-.32,.03-.09,.09-.09,.22-.03,.32-.12,.03-.21,.13-.21,.25s.09,.22,.21,.25c-.06,.1-.06,.23,.03,.32,.09,.09,.22,.1,.32,.04,.03,.12,.13,.21,.25,.21,.13,0,.22-.09,.25-.21,.1,.06,.24,.05,.32-.04,.09-.09,.1-.22,.03-.32,.12-.03,.21-.13,.21-.25Z"/><path class="ag" d="M22.79,118.7c0,.15-.12,.27-.27,.27s-.27-.12-.27-.27,.12-.27,.27-.27,.27,.12,.27,.27Z"/></g><g><path class="p" d="M25.45,121.25c0-.12-.09-.22-.21-.25,.07-.1,.06-.24-.03-.33-.09-.09-.23-.09-.32-.03-.03-.12-.13-.21-.26-.21s-.22,.09-.25,.21c-.1-.06-.24-.05-.33,.03-.09,.09-.1,.22-.03,.33-.12,.03-.21,.13-.21,.25s.09,.23,.21,.25c-.06,.1-.05,.23,.03,.33,.09,.09,.22,.09,.33,.03,.03,.12,.13,.21,.25,.21s.22-.09,.26-.21c.1,.06,.23,.06,.32-.03,.09-.09,.09-.22,.03-.33,.12-.03,.21-.13,.21-.25Z"/><path class="ag" d="M24.91,121.25c0,.15-.12,.28-.27,.28s-.27-.12-.27-.28,.12-.27,.27-.27,.27,.12,.27,.27Z"/></g><g><path class="p" d="M22.22,122.02c.09-.04,.14-.14,.12-.24,.1,.02,.19-.03,.23-.13,.04-.1,0-.2-.08-.26,.08-.06,.11-.16,.07-.26-.04-.1-.14-.14-.24-.12,.02-.1-.03-.2-.13-.23-.1-.04-.2,0-.26,.09-.06-.08-.16-.11-.26-.07-.09,.04-.14,.14-.12,.24-.1-.02-.2,.04-.23,.13-.04,.1,0,.2,.08,.26-.08,.06-.11,.17-.07,.26,.04,.09,.14,.14,.24,.12-.01,.1,.04,.2,.13,.24,.1,.03,.2,0,.26-.08,.06,.08,.16,.11,.26,.06Z"/><path class="ag" d="M22.04,121.61c-.12,.06-.25,0-.3-.11-.05-.12,0-.25,.11-.3,.12-.05,.25,0,.3,.11,.05,.12,0,.25-.11,.3Z"/></g><g><path class="p" d="M20.29,123.91c0-.1,.07-.19,.17-.21-.05-.08-.04-.19,.03-.27,.07-.07,.18-.08,.26-.02,.02-.1,.1-.17,.21-.17s.18,.07,.21,.17c.08-.05,.19-.04,.26,.02,.07,.08,.08,.19,.03,.27,.1,.02,.17,.1,.17,.21s-.08,.19-.17,.21c.05,.08,.05,.19-.03,.27-.07,.07-.18,.08-.26,.02-.02,.1-.11,.17-.21,.17s-.19-.07-.21-.17c-.08,.05-.19,.05-.26-.02-.07-.07-.08-.18-.03-.27-.09-.02-.17-.1-.17-.21Z"/><path class="n" d="M20.29,123.91c0-.1,.07-.19,.17-.21-.05-.08-.04-.19,.03-.27,.07-.07,.18-.08,.26-.02,.02-.1,.1-.17,.21-.17s.18,.07,.21,.17c.08-.05,.19-.04,.26,.02,.07,.08,.08,.19,.03,.27,.1,.02,.17,.1,.17,.21s-.08,.19-.17,.21c.05,.08,.05,.19-.03,.27-.07,.07-.18,.08-.26,.02-.02,.1-.11,.17-.21,.17s-.19-.07-.21-.17c-.08,.05-.19,.05-.26-.02-.07-.07-.08-.18-.03-.27-.09-.02-.17-.1-.17-.21Z"/><path class="ag" d="M20.74,123.91c0,.12,.1,.22,.23,.22,.12,0,.22-.1,.22-.22s-.1-.22-.22-.22c-.13,0-.23,.1-.23,.22Z"/></g><path class="w" d="M9.09,120.7c0-.66,.46-1.2,1.08-1.32,.04-.46,.42-.82,.89-.82,.05,0,.1,0,.16,.01h0c0-.72,.57-1.29,1.27-1.29,.61,0,1.13,.43,1.25,1.01,.14-.2,.38-.33,.64-.33,.11,0,.21,.02,.3,.06,.22-.44,.67-.74,1.19-.74,.74,0,1.33,.6,1.33,1.33,0,.02,0,.04,0,.06h0c.74,0,1.34,.6,1.34,1.34,0,.39-.17,.75-.44,1,.47,.19,.81,.66,.81,1.2,0,.71-.58,1.29-1.29,1.29-.26,0-.5-.08-.71-.21,0,.04,0,.08,0,.13,0,.91-.74,1.66-1.66,1.66-.7,0-1.29-.43-1.54-1.03-.3,.36-.75,.58-1.25,.58-.74,0-1.36-.49-1.56-1.17-.02,0-.04,0-.06,0-.57,0-1.04-.47-1.04-1.04,0-.18,.05-.34,.12-.48-.5-.2-.86-.68-.86-1.25Z"/><g><path class="p" d="M11.22,118.39c0-.11,.07-.19,.18-.21-.06-.09-.05-.2,.03-.27,.07-.08,.19-.08,.27-.03,.02-.1,.11-.17,.21-.17,.11,0,.19,.08,.22,.17,.08-.05,.2-.05,.27,.03,.07,.07,.08,.19,.03,.27,.1,.02,.18,.11,.18,.21s-.08,.19-.18,.21c.05,.09,.05,.2-.03,.27-.08,.08-.19,.08-.27,.03-.02,.1-.11,.17-.22,.17-.1,0-.19-.07-.21-.17-.09,.06-.2,.05-.27-.03-.08-.07-.08-.19-.03-.27-.1-.02-.18-.11-.18-.21Z"/><path class="ag" d="M11.67,118.39c0,.13,.1,.23,.23,.23s.23-.1,.23-.23-.1-.23-.23-.23-.23,.1-.23,.23Z"/></g><g><path class="p" d="M10.76,121.25c0-.12,.09-.22,.21-.25-.07-.1-.06-.24,.03-.33,.08-.09,.22-.09,.32-.03,.03-.12,.13-.21,.25-.21s.23,.09,.25,.21c.1-.06,.24-.05,.33,.03,.09,.09,.1,.22,.03,.33,.12,.03,.21,.13,.21,.25s-.09,.23-.21,.25c.06,.1,.06,.23-.03,.33-.09,.09-.22,.09-.33,.03-.02,.12-.13,.21-.25,.21s-.23-.09-.25-.21c-.1,.06-.24,.06-.32-.03-.09-.09-.1-.22-.03-.33-.12-.03-.21-.13-.21-.25Z"/><path class="ag" d="M11.3,121.25c0,.15,.12,.28,.27,.28s.27-.12,.27-.28-.12-.27-.27-.27-.27,.12-.27,.27Z"/></g><g><path class="p" d="M12.43,124c-.09-.04-.14-.14-.12-.24-.1,.02-.19-.03-.23-.13-.04-.09,0-.2,.08-.25-.08-.07-.11-.17-.07-.27,.04-.09,.14-.13,.24-.12-.02-.1,.03-.2,.13-.23,.1-.04,.2,0,.25,.09,.06-.08,.17-.11,.26-.08,.09,.05,.14,.15,.12,.24,.1-.01,.2,.04,.23,.13,.04,.09,0,.2-.08,.25,.08,.06,.11,.17,.07,.26-.04,.09-.14,.14-.24,.12,.01,.1-.04,.2-.13,.23-.1,.04-.2,0-.25-.09-.06,.08-.16,.12-.26,.07Z"/><path class="ag" d="M12.61,123.6c.11,.05,.25,0,.29-.12,.05-.11,0-.25-.11-.29-.12-.05-.25,0-.3,.11-.05,.11,0,.25,.11,.3Z"/></g><g><path class="p" d="M13.85,119.32c.03-.07,.11-.11,.18-.1-.01-.07,.02-.16,.1-.18,.07-.03,.16,0,.2,.06,.04-.07,.12-.09,.2-.07,.08,.03,.11,.11,.1,.18,.08-.01,.15,.02,.18,.1,.03,.07,0,.15-.06,.2,.07,.04,.09,.12,.06,.19-.03,.08-.11,.12-.18,.11,.01,.08-.02,.15-.1,.18-.07,.03-.15,0-.2-.06-.04,.06-.12,.09-.2,.06-.07-.03-.12-.11-.1-.19-.07,.02-.15-.02-.18-.09-.04-.08,0-.16,.05-.2-.06-.04-.09-.13-.06-.2Z"/><path class="ag" d="M14.17,119.44c-.03,.09,0,.19,.1,.23,.09,.04,.19,0,.23-.1,.03-.09-.01-.19-.1-.23-.09-.04-.19,0-.23,.1Z"/></g><g><path class="p" d="M17.68,118.42c0-.12-.09-.22-.2-.25,.06-.1,.05-.23-.03-.32-.09-.09-.22-.1-.33-.03-.03-.12-.12-.2-.25-.2s-.22,.09-.25,.2c-.1-.06-.23-.05-.32,.03-.09,.09-.1,.22-.03,.32-.12,.03-.21,.13-.21,.25s.09,.23,.21,.25c-.06,.1-.06,.24,.03,.33,.09,.09,.22,.09,.32,.03,.03,.11,.13,.21,.25,.21,.13,0,.22-.09,.25-.21,.1,.06,.24,.06,.33-.03,.09-.09,.09-.23,.03-.33,.12-.03,.2-.12,.2-.25Z"/><path class="n" d="M17.68,118.42c0-.12-.09-.22-.2-.25,.06-.1,.05-.23-.03-.32-.09-.09-.22-.1-.33-.03-.03-.12-.12-.2-.25-.2s-.22,.09-.25,.2c-.1-.06-.23-.05-.32,.03-.09,.09-.1,.22-.03,.32-.12,.03-.21,.13-.21,.25s.09,.23,.21,.25c-.06,.1-.06,.24,.03,.33,.09,.09,.22,.09,.32,.03,.03,.11,.13,.21,.25,.21,.13,0,.22-.09,.25-.21,.1,.06,.24,.06,.33-.03,.09-.09,.09-.23,.03-.33,.12-.03,.2-.12,.2-.25Z"/><path class="ag" d="M17.14,118.42c0,.15-.12,.27-.27,.27s-.27-.12-.27-.27,.12-.27,.27-.27,.27,.12,.27,.27Z"/></g><g><path class="p" d="M18.85,123.39c0-.14-.1-.24-.22-.27,.07-.11,.06-.25-.03-.35-.1-.1-.24-.11-.35-.04-.03-.12-.13-.22-.27-.22s-.24,.1-.27,.22c-.11-.07-.26-.06-.35,.04-.1,.09-.1,.24-.04,.35-.13,.03-.22,.13-.22,.27s.1,.24,.22,.27c-.07,.11-.06,.25,.04,.35,.09,.1,.24,.11,.35,.04,.03,.12,.13,.22,.27,.22s.24-.1,.27-.22c.11,.07,.25,.06,.35-.04,.09-.09,.1-.23,.03-.35,.12-.03,.22-.14,.22-.27Z"/><path class="n" d="M18.85,123.39c0-.14-.1-.24-.22-.27,.07-.11,.06-.25-.03-.35-.1-.1-.24-.11-.35-.04-.03-.12-.13-.22-.27-.22s-.24,.1-.27,.22c-.11-.07-.26-.06-.35,.04-.1,.09-.1,.24-.04,.35-.13,.03-.22,.13-.22,.27s.1,.24,.22,.27c-.07,.11-.06,.25,.04,.35,.09,.1,.24,.11,.35,.04,.03,.12,.13,.22,.27,.22s.24-.1,.27-.22c.11,.07,.25,.06,.35-.04,.09-.09,.1-.23,.03-.35,.12-.03,.22-.14,.22-.27Z"/><path class="ag" d="M18.26,123.39c0,.16-.13,.29-.29,.29s-.29-.13-.29-.29,.13-.29,.29-.29,.29,.13,.29,.29Z"/></g><g><path class="p" d="M15.78,124.23c0-.08-.06-.15-.14-.17,.04-.07,.04-.16-.02-.22-.06-.06-.15-.07-.22-.02-.02-.08-.08-.14-.17-.14-.08,0-.15,.06-.17,.14-.07-.04-.16-.04-.22,.02-.06,.06-.06,.15-.02,.22-.08,.02-.14,.09-.14,.17s.06,.15,.14,.17c-.04,.06-.04,.15,.02,.21,.06,.07,.15,.07,.22,.02,.02,.08,.09,.14,.17,.14,.09,0,.15-.06,.17-.14,.07,.05,.16,.05,.22-.02,.06-.06,.06-.15,.02-.21,.08-.02,.14-.09,.14-.17Z"/><path class="n" d="M15.78,124.23c0-.08-.06-.15-.14-.17,.04-.07,.04-.16-.02-.22-.06-.06-.15-.07-.22-.02-.02-.08-.08-.14-.17-.14-.08,0-.15,.06-.17,.14-.07-.04-.16-.04-.22,.02-.06,.06-.06,.15-.02,.22-.08,.02-.14,.09-.14,.17s.06,.15,.14,.17c-.04,.06-.04,.15,.02,.21,.06,.07,.15,.07,.22,.02,.02,.08,.09,.14,.17,.14,.09,0,.15-.06,.17-.14,.07,.05,.16,.05,.22-.02,.06-.06,.06-.15,.02-.21,.08-.02,.14-.09,.14-.17Z"/><path class="ag" d="M15.42,124.23c0,.1-.08,.18-.19,.18s-.18-.08-.18-.18,.08-.19,.18-.19,.19,.08,.19,.19Z"/></g><g><path class="p" d="M16.39,121.8c.09-.04,.14-.15,.12-.24,.1,.02,.2-.03,.23-.13,.04-.1,0-.2-.08-.25,.08-.06,.11-.17,.07-.25-.04-.1-.14-.14-.24-.12,.02-.1-.04-.2-.13-.23-.1-.04-.2,0-.25,.09-.06-.08-.17-.11-.26-.07-.09,.04-.14,.15-.12,.24-.1-.01-.19,.04-.23,.13-.03,.09,0,.2,.09,.26-.08,.06-.12,.17-.07,.26,.04,.09,.14,.14,.24,.12-.01,.1,.04,.2,.13,.24,.1,.03,.2,0,.25-.08,.06,.08,.16,.11,.26,.07Z"/><path class="n" d="M16.39,121.8c.09-.04,.14-.15,.12-.24,.1,.02,.2-.03,.23-.13,.04-.1,0-.2-.08-.25,.08-.06,.11-.17,.07-.25-.04-.1-.14-.14-.24-.12,.02-.1-.04-.2-.13-.23-.1-.04-.2,0-.25,.09-.06-.08-.17-.11-.26-.07-.09,.04-.14,.15-.12,.24-.1-.01-.19,.04-.23,.13-.03,.09,0,.2,.09,.26-.08,.06-.12,.17-.07,.26,.04,.09,.14,.14,.24,.12-.01,.1,.04,.2,.13,.24,.1,.03,.2,0,.25-.08,.06,.08,.16,.11,.26,.07Z"/><path class="ag" d="M16.21,121.39c-.11,.05-.25,0-.3-.12-.05-.11,0-.25,.12-.3,.11-.05,.25,0,.3,.11,.05,.12,0,.25-.11,.3Z"/></g><g><path class="p" d="M18.83,121.8c-.09-.04-.14-.15-.12-.24-.1,.02-.19-.03-.23-.13-.04-.1,0-.2,.08-.25-.08-.06-.11-.17-.07-.25,.04-.1,.14-.14,.24-.12-.02-.1,.04-.2,.13-.23,.09-.04,.2,0,.25,.09,.06-.08,.17-.11,.26-.07,.09,.04,.14,.15,.12,.24,.1-.01,.2,.04,.23,.13,.04,.09,0,.2-.09,.26,.08,.06,.11,.17,.07,.26-.04,.09-.14,.14-.24,.12,.01,.1-.04,.2-.13,.24-.1,.03-.2,0-.25-.08-.06,.08-.16,.11-.26,.07Z"/><path class="n" d="M18.83,121.8c-.09-.04-.14-.15-.12-.24-.1,.02-.19-.03-.23-.13-.04-.1,0-.2,.08-.25-.08-.06-.11-.17-.07-.25,.04-.1,.14-.14,.24-.12-.02-.1,.04-.2,.13-.23,.09-.04,.2,0,.25,.09,.06-.08,.17-.11,.26-.07,.09,.04,.14,.15,.12,.24,.1-.01,.2,.04,.23,.13,.04,.09,0,.2-.09,.26,.08,.06,.11,.17,.07,.26-.04,.09-.14,.14-.24,.12,.01,.1-.04,.2-.13,.24-.1,.03-.2,0-.25-.08-.06,.08-.16,.11-.26,.07Z"/><path class="ag" d="M19.01,121.39c.11,.05,.25,0,.29-.12,.05-.11,0-.25-.11-.3-.11-.05-.25,0-.29,.11-.05,.12,0,.25,.11,.3Z"/></g><g><path class="p" d="M19.24,118.79c.03-.08,.1-.11,.17-.1-.02-.07,.02-.14,.09-.18,.07-.03,.15,0,.18,.05,.04-.06,.12-.08,.19-.06,.07,.03,.11,.1,.09,.17,.07-.02,.14,.02,.17,.09,.03,.07,0,.14-.05,.19,.06,.04,.09,.12,.06,.18-.03,.08-.1,.1-.17,.09,.01,.07-.02,.14-.09,.18-.07,.03-.14,0-.19-.06-.04,.06-.11,.09-.18,.06-.07-.03-.11-.1-.09-.17-.07,.02-.14-.02-.17-.09-.03-.07,0-.15,.05-.19-.06-.04-.09-.12-.06-.18Z"/><path class="n" d="M19.24,118.79c.03-.08,.1-.11,.17-.1-.02-.07,.02-.14,.09-.18,.07-.03,.15,0,.18,.05,.04-.06,.12-.08,.19-.06,.07,.03,.11,.1,.09,.17,.07-.02,.14,.02,.17,.09,.03,.07,0,.14-.05,.19,.06,.04,.09,.12,.06,.18-.03,.08-.1,.1-.17,.09,.01,.07-.02,.14-.09,.18-.07,.03-.14,0-.19-.06-.04,.06-.11,.09-.18,.06-.07-.03-.11-.1-.09-.17-.07,.02-.14-.02-.17-.09-.03-.07,0-.15,.05-.19-.06-.04-.09-.12-.06-.18Z"/><path class="ag" d="M19.54,118.91c-.03,.08,0,.18,.09,.21,.08,.03,.18,0,.22-.09,.03-.08-.01-.18-.1-.21-.08-.03-.18,0-.21,.09Z"/></g></g></g></g><g><g><polygon class="k" points="146.85 125.4 141.26 125.4 142.11 130.89 146.85 131.1 151.59 130.89 152.44 125.4 146.85 125.4"/><path class="ag" d="M152.54,123.18h-2.87s-.03,.02-.04,.02c-.01,0-.03-.02-.04-.02h-8.48c-.11,0-.19,.21-.19,.46v1.56c0,.25,.09,.45,.19,.45h8.48s.03,0,.04-.01c.01,0,.03,.01,.04,.01h2.87c.11,0,.2-.2,.2-.45v-1.56c0-.25-.09-.46-.2-.46Z"/><path class="w" d="M138.31,121.34c0-.61,.44-1.13,1.02-1.25,.04-.43,.39-.77,.84-.77,.05,0,.1,0,.15,.02v-.02c0-.66,.54-1.2,1.2-1.2,.58,0,1.07,.41,1.18,.96,.14-.19,.36-.32,.6-.32,.11,0,.2,.02,.29,.06,.21-.41,.63-.7,1.13-.7,.7,0,1.26,.57,1.26,1.26,0,.02,0,.03,0,.05h.01c.7,0,1.27,.57,1.27,1.27,0,.38-.16,.71-.42,.94,.45,.18,.77,.62,.77,1.13,0,.68-.55,1.22-1.22,1.22-.25,0-.47-.07-.67-.2,0,.04,0,.08,0,.11,0,.87-.7,1.57-1.57,1.57-.66,0-1.22-.4-1.45-.98-.28,.34-.71,.55-1.18,.55-.7,0-1.29-.46-1.47-1.1-.02,0-.04,.01-.06,.01-.54,0-.98-.44-.98-.98,0-.17,.04-.32,.12-.45-.47-.19-.81-.65-.81-1.19Z"/><g><path class="p" d="M139.4,124c-.09-.04-.14-.14-.12-.24-.1,.02-.19-.03-.23-.13-.03-.09,0-.2,.09-.25-.08-.07-.11-.17-.07-.27,.04-.09,.14-.13,.24-.12-.01-.1,.04-.2,.13-.23,.1-.04,.2,0,.25,.09,.06-.08,.17-.11,.26-.08,.09,.05,.14,.15,.12,.24,.1-.01,.2,.04,.23,.13,.04,.09,0,.2-.08,.25,.08,.06,.11,.17,.07,.26-.05,.09-.14,.14-.24,.12,.01,.1-.04,.2-.13,.23-.1,.04-.2,0-.26-.09-.06,.08-.16,.12-.26,.07Z"/><path class="ag" d="M139.58,123.6c.11,.05,.25,0,.29-.12,.06-.11,0-.25-.11-.29-.11-.05-.25,0-.3,.11-.05,.11,0,.25,.12,.3Z"/></g><g><path class="p" d="M140.39,120.11c.04-.11,.15-.16,.26-.15-.02-.11,.03-.22,.14-.26,.1-.04,.22,0,.29,.08,.06-.09,.17-.12,.28-.09,.11,.04,.16,.15,.14,.26,.11-.02,.22,.04,.26,.14,.04,.1,0,.22-.08,.28,.09,.06,.13,.17,.09,.28-.04,.11-.15,.16-.26,.15,.02,.1-.03,.21-.14,.26-.11,.05-.22,0-.28-.08-.06,.09-.17,.13-.28,.09-.11-.04-.16-.15-.14-.26-.11,.02-.22-.03-.26-.14-.04-.1,0-.22,.08-.28-.09-.07-.13-.18-.09-.28Z"/><path class="ag" d="M140.84,120.3c-.05,.12,.01,.27,.14,.32,.13,.05,.27-.01,.32-.14,.05-.13,0-.27-.14-.32-.13-.05-.27,.01-.32,.14Z"/></g><g><path class="p" d="M146.52,122.92c0-.13-.1-.24-.22-.27,.07-.11,.06-.25-.04-.35-.09-.09-.24-.1-.35-.03-.03-.13-.14-.22-.27-.22s-.25,.09-.27,.22c-.11-.07-.25-.06-.35,.03-.1,.1-.1,.24-.03,.35-.13,.03-.22,.14-.22,.27s.09,.24,.22,.27c-.07,.11-.06,.26,.03,.35,.09,.09,.24,.1,.35,.04,.03,.12,.14,.22,.27,.22s.24-.1,.27-.22c.11,.07,.25,.06,.35-.04,.1-.09,.1-.24,.04-.35,.12-.03,.22-.14,.22-.27Z"/><path class="n" d="M146.52,122.92c0-.13-.1-.24-.22-.27,.07-.11,.06-.25-.04-.35-.09-.09-.24-.1-.35-.03-.03-.13-.14-.22-.27-.22s-.25,.09-.27,.22c-.11-.07-.25-.06-.35,.03-.1,.1-.1,.24-.03,.35-.13,.03-.22,.14-.22,.27s.09,.24,.22,.27c-.07,.11-.06,.26,.03,.35,.09,.09,.24,.1,.35,.04,.03,.12,.14,.22,.27,.22s.24-.1,.27-.22c.11,.07,.25,.06,.35-.04,.1-.09,.1-.24,.04-.35,.12-.03,.22-.14,.22-.27Z"/><path class="ag" d="M145.94,122.92c0,.16-.13,.3-.29,.3s-.3-.13-.3-.3,.13-.3,.3-.3,.29,.13,.29,.3Z"/></g><g><path class="p" d="M143.44,124.23c0-.08-.06-.15-.14-.17,.04-.07,.04-.16-.02-.22-.06-.06-.15-.07-.22-.02-.01-.08-.08-.14-.17-.14s-.15,.06-.17,.14c-.07-.04-.16-.04-.22,.02-.06,.06-.06,.15-.02,.22-.08,.02-.14,.09-.14,.17s.06,.15,.14,.17c-.04,.06-.03,.15,.02,.21,.06,.07,.15,.07,.22,.02,.02,.08,.09,.14,.17,.14s.15-.06,.17-.14c.07,.05,.16,.05,.22-.02,.06-.06,.07-.15,.02-.21,.08-.02,.14-.09,.14-.17Z"/><path class="n" d="M143.44,124.23c0-.08-.06-.15-.14-.17,.04-.07,.04-.16-.02-.22-.06-.06-.15-.07-.22-.02-.01-.08-.08-.14-.17-.14s-.15,.06-.17,.14c-.07-.04-.16-.04-.22,.02-.06,.06-.06,.15-.02,.22-.08,.02-.14,.09-.14,.17s.06,.15,.14,.17c-.04,.06-.03,.15,.02,.21,.06,.07,.15,.07,.22,.02,.02,.08,.09,.14,.17,.14s.15-.06,.17-.14c.07,.05,.16,.05,.22-.02,.06-.06,.07-.15,.02-.21,.08-.02,.14-.09,.14-.17Z"/><path class="ag" d="M143.08,124.23c0,.1-.08,.18-.18,.18s-.19-.08-.19-.18,.08-.19,.19-.19,.18,.08,.18,.19Z"/></g><g><path class="p" d="M143.64,118.79c-.03-.08-.1-.11-.17-.1,.01-.07-.02-.14-.09-.18-.07-.03-.14,0-.19,.05-.04-.06-.12-.08-.18-.06-.07,.03-.11,.1-.1,.17-.07-.02-.14,.02-.17,.09-.03,.07,0,.14,.05,.19-.06,.04-.09,.12-.06,.18,.03,.08,.1,.1,.17,.09-.01,.07,.02,.14,.09,.18,.07,.03,.14,0,.18-.06,.04,.06,.12,.09,.18,.06,.07-.03,.1-.1,.1-.17,.07,.02,.14-.02,.17-.09,.03-.07,0-.15-.06-.19,.06-.04,.09-.12,.06-.18Z"/><path class="n" d="M143.64,118.79c-.03-.08-.1-.11-.17-.1,.01-.07-.02-.14-.09-.18-.07-.03-.14,0-.19,.05-.04-.06-.12-.08-.18-.06-.07,.03-.11,.1-.1,.17-.07-.02-.14,.02-.17,.09-.03,.07,0,.14,.05,.19-.06,.04-.09,.12-.06,.18,.03,.08,.1,.1,.17,.09-.01,.07,.02,.14,.09,.18,.07,.03,.14,0,.18-.06,.04,.06,.12,.09,.18,.06,.07-.03,.1-.1,.1-.17,.07,.02,.14-.02,.17-.09,.03-.07,0-.15-.06-.19,.06-.04,.09-.12,.06-.18Z"/><path class="ag" d="M143.34,118.91c.03,.08,0,.18-.09,.21-.08,.03-.18,0-.21-.09-.04-.08,0-.18,.09-.21,.08-.03,.18,0,.21,.09Z"/></g><path class="w" d="M154.2,120.65c0-.72-.51-1.32-1.19-1.46-.04-.5-.46-.9-.97-.9-.06,0-.12,0-.17,.02v-.02c0-.77-.63-1.41-1.41-1.41-.67,0-1.24,.48-1.38,1.12-.15-.22-.41-.36-.71-.36-.12,0-.23,.02-.33,.06-.24-.48-.74-.82-1.32-.82-.81,0-1.47,.66-1.47,1.48,0,.02,0,.04,0,.06,0,0,0,0-.01,0-.82,0-1.48,.67-1.48,1.48,0,.44,.19,.83,.49,1.1-.52,.21-.9,.72-.9,1.33,0,.78,.64,1.42,1.43,1.42,.29,0,.56-.08,.78-.23,0,.05,0,.09,0,.14,0,1.01,.82,1.83,1.83,1.83,.77,0,1.42-.47,1.7-1.14,.33,.4,.82,.65,1.37,.65,.81,0,1.5-.55,1.72-1.29,.02,0,.05,.01,.07,.01,.63,0,1.15-.51,1.15-1.15,0-.2-.05-.37-.14-.53,.55-.21,.95-.75,.95-1.38Z"/><g><path class="p" d="M151.4,118.7c0-.12-.09-.23-.21-.25,.07-.1,.06-.23-.03-.32-.09-.09-.22-.1-.32-.03-.03-.12-.13-.21-.25-.21s-.22,.09-.25,.21c-.1-.06-.24-.06-.32,.03-.09,.09-.09,.22-.03,.32-.12,.03-.2,.13-.2,.25s.09,.22,.2,.25c-.06,.1-.05,.23,.03,.32,.09,.09,.22,.1,.32,.04,.03,.12,.12,.21,.25,.21,.12,0,.22-.09,.25-.21,.1,.06,.23,.05,.32-.04,.09-.09,.1-.22,.03-.32,.12-.03,.21-.13,.21-.25Z"/><path class="ag" d="M150.86,118.7c0,.15-.12,.27-.27,.27s-.27-.12-.27-.27,.12-.27,.27-.27,.27,.12,.27,.27Z"/></g><g><path class="p" d="M154.12,121.41c0-.12-.09-.23-.21-.25,.06-.1,.06-.23-.03-.32-.09-.09-.22-.1-.32-.03-.03-.12-.13-.21-.25-.21-.13,0-.23,.09-.25,.21-.1-.06-.24-.06-.33,.03-.09,.09-.09,.22-.03,.32-.12,.03-.21,.13-.21,.25s.09,.23,.21,.25c-.06,.1-.06,.24,.03,.33,.09,.09,.22,.1,.33,.03,.03,.12,.13,.21,.25,.21s.22-.09,.25-.21c.1,.07,.23,.06,.32-.03,.09-.09,.09-.23,.03-.33,.12-.03,.21-.13,.21-.25Z"/><path class="ag" d="M153.57,121.41c0,.15-.12,.28-.27,.28s-.28-.12-.28-.28,.12-.27,.28-.27,.27,.12,.27,.27Z"/></g><g><path class="p" d="M151.32,123.71c.09-.04,.14-.14,.12-.24,.1,.02,.2-.04,.23-.13,.04-.1,0-.2-.09-.25,.08-.06,.11-.16,.07-.26-.04-.1-.14-.15-.24-.12,.01-.1-.04-.2-.13-.23-.09-.04-.2,0-.25,.09-.06-.08-.16-.11-.26-.07-.09,.04-.13,.14-.12,.24-.1-.01-.2,.04-.23,.13-.04,.09,0,.2,.08,.26-.08,.06-.11,.16-.07,.26,.04,.09,.14,.14,.24,.11-.01,.1,.04,.2,.13,.24,.09,.04,.2,0,.25-.08,.06,.08,.16,.11,.26,.07Z"/><path class="ag" d="M151.14,123.3c-.11,.05-.24,0-.3-.11-.05-.11,0-.25,.12-.3,.11-.05,.24,0,.3,.12,.05,.11,0,.24-.12,.29Z"/></g><g><path class="p" d="M150.26,120.99c-.03-.08-.1-.11-.18-.1,.01-.08-.02-.15-.1-.19-.07-.03-.16,0-.2,.06-.04-.06-.13-.09-.2-.06-.07,.03-.11,.11-.1,.18-.08-.02-.15,.02-.19,.1-.03,.07,0,.16,.06,.2-.07,.04-.1,.12-.07,.2,.03,.07,.11,.11,.19,.1-.01,.08,.02,.15,.1,.19,.07,.03,.15,0,.2-.06,.04,.07,.13,.09,.2,.07,.07-.03,.12-.11,.1-.19,.07,.01,.15-.02,.18-.1,.03-.08,0-.15-.06-.2,.06-.04,.09-.12,.06-.2Z"/><path class="ag" d="M149.94,121.12c.04,.09,0,.19-.1,.23-.09,.04-.19,0-.23-.1-.04-.09,0-.19,.1-.23,.09-.04,.19,0,.23,.1Z"/></g><g><path class="p" d="M144.94,118.7c0-.12,.09-.23,.21-.25-.06-.1-.06-.23,.03-.32,.09-.09,.22-.1,.33-.03,.02-.12,.12-.21,.25-.21s.22,.09,.25,.21c.1-.06,.24-.06,.32,.03,.09,.09,.1,.22,.03,.32,.12,.03,.21,.13,.21,.25s-.09,.22-.21,.25c.07,.1,.06,.23-.03,.32-.09,.09-.22,.1-.32,.04-.03,.12-.13,.21-.25,.21-.13,0-.23-.09-.25-.21-.1,.06-.24,.05-.33-.04-.09-.09-.09-.22-.03-.32-.12-.03-.21-.13-.21-.25Z"/><path class="n" d="M144.94,118.7c0-.12,.09-.23,.21-.25-.06-.1-.06-.23,.03-.32,.09-.09,.22-.1,.33-.03,.02-.12,.12-.21,.25-.21s.22,.09,.25,.21c.1-.06,.24-.06,.32,.03,.09,.09,.1,.22,.03,.32,.12,.03,.21,.13,.21,.25s-.09,.22-.21,.25c.07,.1,.06,.23-.03,.32-.09,.09-.22,.1-.32,.04-.03,.12-.13,.21-.25,.21-.13,0-.23-.09-.25-.21-.1,.06-.24,.05-.33-.04-.09-.09-.09-.22-.03-.32-.12-.03-.21-.13-.21-.25Z"/><path class="ag" d="M145.47,118.7c0,.15,.12,.27,.27,.27s.27-.12,.27-.27-.12-.27-.27-.27-.27,.12-.27,.27Z"/></g><g><path class="p" d="M147.5,124.23c0-.08,.06-.15,.14-.17-.04-.07-.03-.16,.02-.22,.06-.06,.15-.07,.22-.02,.02-.08,.09-.14,.17-.14s.15,.06,.17,.14c.07-.04,.16-.04,.22,.02,.06,.06,.06,.15,.02,.22,.08,.02,.14,.09,.14,.17s-.06,.15-.14,.17c.04,.06,.04,.15-.02,.21-.06,.07-.15,.07-.22,.02-.02,.08-.08,.14-.17,.14s-.15-.06-.17-.14c-.07,.05-.16,.05-.22-.02-.06-.06-.06-.15-.02-.21-.08-.02-.14-.09-.14-.17Z"/><path class="n" d="M147.5,124.23c0-.08,.06-.15,.14-.17-.04-.07-.03-.16,.02-.22,.06-.06,.15-.07,.22-.02,.02-.08,.09-.14,.17-.14s.15,.06,.17,.14c.07-.04,.16-.04,.22,.02,.06,.06,.06,.15,.02,.22,.08,.02,.14,.09,.14,.17s-.06,.15-.14,.17c.04,.06,.04,.15-.02,.21-.06,.07-.15,.07-.22,.02-.02,.08-.08,.14-.17,.14s-.15-.06-.17-.14c-.07,.05-.16,.05-.22-.02-.06-.06-.06-.15-.02-.21-.08-.02-.14-.09-.14-.17Z"/><path class="ag" d="M147.87,124.23c0,.1,.08,.18,.18,.18s.19-.08,.19-.18-.08-.19-.19-.19-.18,.08-.18,.19Z"/></g><g><path class="p" d="M146.9,121.8c-.09-.04-.14-.15-.12-.24-.1,.02-.2-.03-.23-.13-.04-.1,0-.2,.09-.25-.08-.06-.11-.17-.07-.25,.04-.1,.14-.14,.24-.12-.01-.1,.04-.2,.13-.23,.1-.04,.2,0,.25,.09,.06-.08,.17-.11,.26-.07,.09,.04,.14,.15,.12,.24,.1-.01,.2,.04,.23,.13,.04,.09,0,.2-.08,.26,.08,.06,.11,.17,.07,.26-.04,.09-.14,.14-.24,.12,.02,.1-.03,.2-.13,.24-.1,.03-.2,0-.25-.08-.06,.08-.17,.11-.26,.07Z"/><path class="n" d="M146.9,121.8c-.09-.04-.14-.15-.12-.24-.1,.02-.2-.03-.23-.13-.04-.1,0-.2,.09-.25-.08-.06-.11-.17-.07-.25,.04-.1,.14-.14,.24-.12-.01-.1,.04-.2,.13-.23,.1-.04,.2,0,.25,.09,.06-.08,.17-.11,.26-.07,.09,.04,.14,.15,.12,.24,.1-.01,.2,.04,.23,.13,.04,.09,0,.2-.08,.26,.08,.06,.11,.17,.07,.26-.04,.09-.14,.14-.24,.12,.02,.1-.03,.2-.13,.24-.1,.03-.2,0-.25-.08-.06,.08-.17,.11-.26,.07Z"/><path class="ag" d="M147.08,121.39c.11,.05,.25,0,.3-.12,.05-.11,0-.25-.12-.3-.12-.05-.25,0-.3,.11-.05,.12,0,.25,.11,.3Z"/></g><g><path class="p" d="M147.31,118.79c.02-.08,.09-.11,.17-.1,0-.07,.02-.14,.09-.18,.07-.03,.15,0,.19,.05,.04-.06,.12-.08,.18-.06,.07,.03,.11,.1,.09,.17,.07-.02,.14,.02,.17,.09,.03,.07,0,.14-.05,.19,.06,.04,.09,.12,.06,.18-.03,.08-.1,.1-.17,.09,.01,.07-.02,.14-.09,.18-.07,.03-.14,0-.19-.06-.04,.06-.12,.09-.19,.06-.07-.03-.1-.1-.1-.17-.07,.02-.14-.02-.17-.09-.03-.07,0-.15,.05-.19-.06-.04-.09-.12-.06-.18Z"/><path class="n" d="M147.31,118.79c.02-.08,.09-.11,.17-.1,0-.07,.02-.14,.09-.18,.07-.03,.15,0,.19,.05,.04-.06,.12-.08,.18-.06,.07,.03,.11,.1,.09,.17,.07-.02,.14,.02,.17,.09,.03,.07,0,.14-.05,.19,.06,.04,.09,.12,.06,.18-.03,.08-.1,.1-.17,.09,.01,.07-.02,.14-.09,.18-.07,.03-.14,0-.19-.06-.04,.06-.12,.09-.19,.06-.07-.03-.1-.1-.1-.17-.07,.02-.14-.02-.17-.09-.03-.07,0-.15,.05-.19-.06-.04-.09-.12-.06-.18Z"/><path class="ag" d="M147.6,118.91c-.03,.08,0,.18,.09,.21,.09,.03,.18,0,.21-.09,.03-.08,0-.18-.09-.21-.08-.03-.18,0-.21,.09Z"/></g><g><path class="p" d="M144.3,121.86c.1-.04,.14-.14,.12-.24,.1,.02,.2-.03,.23-.13,.04-.1,0-.2-.08-.26,.08-.06,.11-.16,.07-.26-.04-.1-.14-.14-.24-.12,.01-.1-.04-.19-.13-.23-.1-.03-.2,0-.25,.09-.06-.08-.16-.11-.26-.07-.1,.04-.14,.14-.12,.24-.1-.01-.2,.04-.23,.13-.04,.09,0,.2,.08,.25-.08,.06-.11,.17-.07,.26,.04,.09,.14,.14,.24,.12-.01,.09,.04,.2,.14,.23,.09,.04,.2,0,.25-.08,.06,.07,.17,.11,.26,.07Z"/><path class="n" d="M144.3,121.86c.1-.04,.14-.14,.12-.24,.1,.02,.2-.03,.23-.13,.04-.1,0-.2-.08-.26,.08-.06,.11-.16,.07-.26-.04-.1-.14-.14-.24-.12,.01-.1-.04-.19-.13-.23-.1-.03-.2,0-.25,.09-.06-.08-.16-.11-.26-.07-.1,.04-.14,.14-.12,.24-.1-.01-.2,.04-.23,.13-.04,.09,0,.2,.08,.25-.08,.06-.11,.17-.07,.26,.04,.09,.14,.14,.24,.12-.01,.09,.04,.2,.14,.23,.09,.04,.2,0,.25-.08,.06,.07,.17,.11,.26,.07Z"/><path class="ag" d="M144.11,121.45c-.11,.05-.25,0-.3-.12-.05-.11,0-.25,.12-.3,.11-.05,.25,0,.3,.11,.05,.12,0,.25-.12,.3Z"/></g><g><path class="p" d="M144.62,123.32c0-.14,.09-.24,.22-.27-.07-.1-.06-.25,.03-.35,.09-.1,.24-.1,.35-.04,.03-.12,.13-.22,.27-.22s.24,.1,.27,.22c.1-.07,.25-.06,.34,.04,.1,.1,.11,.24,.04,.35,.13,.03,.22,.14,.22,.27s-.1,.24-.22,.27c.07,.11,.06,.25-.04,.35-.09,.09-.24,.1-.34,.03-.03,.13-.14,.22-.27,.22s-.24-.09-.27-.22c-.11,.07-.25,.06-.35-.03-.09-.09-.1-.24-.03-.35-.13-.03-.22-.14-.22-.27Z"/><path class="n" d="M144.62,123.32c0-.14,.09-.24,.22-.27-.07-.1-.06-.25,.03-.35,.09-.1,.24-.1,.35-.04,.03-.12,.13-.22,.27-.22s.24,.1,.27,.22c.1-.07,.25-.06,.34,.04,.1,.1,.11,.24,.04,.35,.13,.03,.22,.14,.22,.27s-.1,.24-.22,.27c.07,.11,.06,.25-.04,.35-.09,.09-.24,.1-.34,.03-.03,.13-.14,.22-.27,.22s-.24-.09-.27-.22c-.11,.07-.25,.06-.35-.03-.09-.09-.1-.24-.03-.35-.13-.03-.22-.14-.22-.27Z"/><path class="ag" d="M145.2,123.32c0,.16,.13,.29,.29,.29s.3-.13,.3-.29-.13-.3-.3-.3-.29,.13-.29,.3Z"/></g></g><g><polygon class="k" points="183.89 125.4 178.31 125.4 179.16 130.89 183.89 131.1 188.63 130.89 189.48 125.4 183.89 125.4"/><path class="ag" d="M189.58,123.17h-2.87s-.03,.02-.04,.02c-.01,0-.03-.02-.04-.02h-8.48c-.11,0-.19,.21-.19,.46v1.56c0,.25,.09,.45,.19,.45h8.48s.03,0,.04-.01c.01,0,.03,.01,.04,.01h2.87c.11,0,.2-.21,.2-.45v-1.56c0-.25-.09-.46-.2-.46Z"/><g><path class="w" d="M175.35,120.3c0-.77,.55-1.41,1.28-1.56,.05-.54,.49-.97,1.05-.97,.07,0,.13,.01,.19,.02v-.02c0-.83,.68-1.51,1.51-1.51,.73,0,1.33,.51,1.47,1.2,.17-.24,.45-.39,.76-.39,.13,0,.25,.03,.36,.07,.26-.52,.79-.88,1.41-.88,.87,0,1.58,.71,1.58,1.58,0,.02,0,.04,0,.06h.01c.88,0,1.59,.71,1.59,1.59,0,.47-.21,.89-.53,1.18,.57,.22,.96,.78,.96,1.42,0,.85-.68,1.53-1.53,1.53-.31,0-.59-.09-.83-.25,0,.05,0,.09,0,.15,0,1.08-.88,1.96-1.96,1.96-.83,0-1.53-.5-1.82-1.23-.35,.43-.88,.7-1.47,.7-.87,0-1.61-.58-1.84-1.38-.02,0-.05,0-.08,0-.68,0-1.23-.55-1.23-1.23,0-.21,.05-.4,.14-.58-.59-.23-1.01-.8-1.01-1.48Z"/><g><path class="p" d="M178.15,118.7c0-.12,.09-.23,.21-.25-.07-.1-.06-.23,.03-.32,.09-.09,.22-.1,.32-.03,.03-.12,.12-.21,.25-.21s.22,.09,.25,.21c.1-.06,.24-.06,.32,.03,.09,.09,.09,.22,.03,.32,.12,.03,.21,.13,.21,.25s-.09,.22-.21,.25c.06,.1,.06,.23-.03,.32-.09,.09-.22,.1-.32,.04-.03,.12-.13,.21-.25,.21-.13,0-.22-.09-.25-.21-.1,.06-.23,.05-.32-.04-.09-.09-.1-.22-.03-.32-.12-.03-.21-.13-.21-.25Z"/><path class="ag" d="M178.69,118.7c0,.15,.12,.27,.27,.27s.27-.12,.27-.27-.12-.27-.27-.27-.27,.12-.27,.27Z"/></g><g><path class="p" d="M176.03,121.25c0-.12,.09-.22,.21-.25-.07-.1-.06-.24,.03-.33,.09-.09,.22-.09,.32-.03,.03-.12,.13-.21,.25-.21s.23,.09,.25,.21c.1-.06,.24-.05,.32,.03,.09,.09,.1,.22,.04,.33,.12,.03,.21,.13,.21,.25s-.09,.23-.21,.25c.06,.1,.05,.23-.04,.33-.09,.09-.22,.09-.32,.03-.03,.12-.13,.21-.25,.21s-.23-.09-.25-.21c-.1,.06-.23,.06-.32-.03-.09-.09-.09-.22-.03-.33-.12-.03-.21-.13-.21-.25Z"/><path class="ag" d="M176.58,121.25c0,.15,.12,.28,.27,.28s.28-.12,.28-.28-.12-.27-.28-.27-.27,.12-.27,.27Z"/></g><g><path class="p" d="M179.26,122.02c-.09-.04-.14-.14-.12-.24-.1,.02-.19-.03-.23-.13-.04-.1,0-.2,.08-.26-.08-.06-.11-.16-.07-.26,.04-.1,.14-.14,.24-.12-.02-.1,.03-.2,.13-.23,.1-.04,.2,0,.26,.09,.06-.08,.16-.11,.26-.07,.09,.04,.14,.14,.12,.24,.1-.02,.2,.04,.23,.13,.04,.1,0,.2-.09,.26,.08,.06,.12,.17,.07,.26-.04,.09-.14,.14-.24,.12,.01,.1-.04,.2-.13,.24-.1,.03-.2,0-.26-.08-.06,.08-.17,.11-.26,.06Z"/><path class="ag" d="M179.44,121.61c.12,.06,.25,0,.3-.11,.05-.12,0-.25-.11-.3-.11-.05-.25,0-.3,.11-.05,.12,0,.25,.11,.3Z"/></g><g><path class="p" d="M181.19,123.91c0-.1-.08-.19-.17-.21,.05-.08,.04-.19-.03-.27-.07-.07-.18-.08-.26-.02-.02-.1-.1-.17-.21-.17s-.18,.07-.21,.17c-.08-.05-.19-.04-.26,.02-.07,.08-.08,.19-.03,.27-.1,.02-.17,.1-.17,.21s.08,.19,.17,.21c-.05,.08-.05,.19,.03,.27,.07,.07,.18,.08,.26,.02,.02,.1,.11,.17,.21,.17s.19-.07,.21-.17c.08,.05,.19,.05,.26-.02,.07-.07,.08-.18,.03-.27,.09-.02,.17-.1,.17-.21Z"/><path class="n" d="M181.19,123.91c0-.1-.08-.19-.17-.21,.05-.08,.04-.19-.03-.27-.07-.07-.18-.08-.26-.02-.02-.1-.1-.17-.21-.17s-.18,.07-.21,.17c-.08-.05-.19-.04-.26,.02-.07,.08-.08,.19-.03,.27-.1,.02-.17,.1-.17,.21s.08,.19,.17,.21c-.05,.08-.05,.19,.03,.27,.07,.07,.18,.08,.26,.02,.02,.1,.11,.17,.21,.17s.19-.07,.21-.17c.08,.05,.19,.05,.26-.02,.07-.07,.08-.18,.03-.27,.09-.02,.17-.1,.17-.21Z"/><path class="ag" d="M180.75,123.91c0,.12-.1,.22-.23,.22s-.22-.1-.22-.22,.1-.22,.22-.22,.23,.1,.23,.22Z"/></g><path class="w" d="M192.39,120.7c0-.66-.46-1.2-1.07-1.32-.04-.46-.42-.82-.89-.82-.05,0-.1,0-.16,.01h0c0-.72-.57-1.29-1.27-1.29-.61,0-1.13,.43-1.25,1.01-.14-.2-.38-.33-.64-.33-.11,0-.21,.02-.31,.06-.22-.44-.67-.74-1.19-.74-.73,0-1.33,.6-1.33,1.33,0,.02,0,.04,0,.06h-.01c-.74,0-1.34,.6-1.34,1.34,0,.39,.17,.75,.44,1-.47,.19-.81,.66-.81,1.2,0,.71,.58,1.29,1.29,1.29,.26,0,.5-.08,.71-.21,0,.04,0,.08,0,.13,0,.91,.74,1.66,1.66,1.66,.7,0,1.29-.43,1.54-1.03,.3,.36,.75,.58,1.25,.58,.74,0,1.36-.49,1.56-1.17,.02,0,.04,0,.06,0,.57,0,1.04-.47,1.04-1.04,0-.18-.05-.34-.13-.48,.5-.2,.86-.68,.86-1.25Z"/><g><path class="p" d="M190.27,118.39c0-.11-.07-.19-.18-.21,.06-.09,.05-.2-.03-.27-.07-.08-.19-.08-.27-.03-.02-.1-.11-.17-.21-.17-.11,0-.19,.08-.21,.17-.08-.05-.2-.05-.27,.03-.07,.07-.08,.19-.03,.27-.1,.02-.18,.11-.18,.21s.08,.19,.18,.21c-.05,.09-.05,.2,.03,.27,.07,.08,.19,.08,.27,.03,.02,.1,.11,.17,.21,.17,.1,0,.19-.07,.21-.17,.09,.06,.2,.05,.27-.03,.08-.07,.08-.19,.03-.27,.1-.02,.18-.11,.18-.21Z"/><path class="ag" d="M189.81,118.39c0,.13-.1,.23-.23,.23s-.23-.1-.23-.23,.1-.23,.23-.23,.23,.1,.23,.23Z"/></g><g><path class="p" d="M190.72,121.25c0-.12-.09-.22-.21-.25,.07-.1,.06-.24-.03-.33-.09-.09-.22-.09-.32-.03-.03-.12-.13-.21-.25-.21s-.22,.09-.25,.21c-.1-.06-.24-.05-.33,.03-.09,.09-.1,.22-.03,.33-.12,.03-.21,.13-.21,.25s.09,.23,.21,.25c-.06,.1-.06,.23,.03,.33,.09,.09,.22,.09,.33,.03,.02,.12,.13,.21,.25,.21,.13,0,.23-.09,.25-.21,.1,.06,.24,.06,.32-.03,.09-.09,.1-.22,.03-.33,.12-.03,.21-.13,.21-.25Z"/><path class="ag" d="M190.18,121.25c0,.15-.12,.28-.28,.28s-.27-.12-.27-.28,.12-.27,.27-.27,.28,.12,.28,.27Z"/></g><g><path class="p" d="M189.06,124c.09-.04,.14-.14,.12-.24,.1,.02,.19-.03,.23-.13,.04-.09,0-.2-.08-.25,.08-.07,.11-.17,.07-.27-.04-.09-.14-.13-.24-.12,.02-.1-.03-.2-.13-.23-.1-.04-.2,0-.25,.09-.06-.08-.17-.11-.26-.08-.09,.05-.14,.15-.12,.24-.1-.01-.19,.04-.23,.13-.04,.09,0,.2,.08,.25-.08,.06-.11,.17-.07,.26,.04,.09,.14,.14,.24,.12-.02,.1,.04,.2,.13,.23,.1,.04,.2,0,.26-.09,.06,.08,.16,.12,.26,.07Z"/><path class="ag" d="M188.87,123.6c-.12,.05-.25,0-.3-.12-.05-.11,0-.25,.11-.29,.12-.05,.25,0,.3,.11,.05,.11,0,.25-.11,.3Z"/></g><g><path class="p" d="M187.64,119.32c-.03-.07-.11-.11-.18-.1,.01-.07-.02-.16-.1-.18-.07-.03-.16,0-.2,.06-.04-.07-.12-.09-.2-.07-.08,.03-.11,.11-.1,.18-.08-.01-.15,.02-.18,.1-.03,.07,0,.15,.06,.2-.06,.04-.09,.12-.06,.19,.03,.08,.11,.12,.18,.11-.01,.08,.02,.15,.1,.18,.07,.03,.15,0,.2-.06,.04,.06,.12,.09,.2,.06,.07-.03,.11-.11,.1-.19,.07,.02,.15-.02,.18-.09,.03-.08,0-.16-.06-.2,.06-.04,.09-.13,.06-.2Z"/><path class="ag" d="M187.31,119.44c.03,.09,0,.19-.1,.23-.09,.04-.19,0-.23-.1-.03-.09,.01-.19,.1-.23,.09-.04,.2,0,.23,.1Z"/></g><g><path class="p" d="M183.81,118.42c0-.12,.09-.22,.2-.25-.06-.1-.05-.23,.03-.32,.09-.09,.22-.1,.32-.03,.02-.12,.12-.2,.25-.2s.22,.09,.25,.2c.1-.06,.23-.05,.32,.03,.09,.09,.1,.22,.03,.32,.12,.03,.21,.13,.21,.25s-.09,.23-.21,.25c.07,.1,.06,.24-.03,.33-.09,.09-.22,.09-.32,.03-.03,.11-.13,.21-.25,.21-.13,0-.23-.09-.25-.21-.1,.06-.24,.06-.32-.03-.09-.09-.09-.23-.03-.33-.12-.03-.2-.12-.2-.25Z"/><path class="n" d="M183.81,118.42c0-.12,.09-.22,.2-.25-.06-.1-.05-.23,.03-.32,.09-.09,.22-.1,.32-.03,.02-.12,.12-.2,.25-.2s.22,.09,.25,.2c.1-.06,.23-.05,.32,.03,.09,.09,.1,.22,.03,.32,.12,.03,.21,.13,.21,.25s-.09,.23-.21,.25c.07,.1,.06,.24-.03,.33-.09,.09-.22,.09-.32,.03-.03,.11-.13,.21-.25,.21-.13,0-.23-.09-.25-.21-.1,.06-.24,.06-.32-.03-.09-.09-.09-.23-.03-.33-.12-.03-.2-.12-.2-.25Z"/><path class="ag" d="M184.35,118.42c0,.15,.12,.27,.27,.27s.27-.12,.27-.27-.12-.27-.27-.27-.27,.12-.27,.27Z"/></g><g><path class="p" d="M182.64,123.39c0-.14,.1-.24,.22-.27-.07-.11-.06-.25,.03-.35,.09-.1,.24-.11,.35-.04,.03-.12,.14-.22,.27-.22s.24,.1,.27,.22c.11-.07,.26-.06,.35,.04,.09,.09,.1,.24,.04,.35,.13,.03,.22,.13,.22,.27s-.1,.24-.22,.27c.07,.11,.06,.25-.04,.35-.09,.1-.24,.11-.35,.04-.03,.12-.13,.22-.27,.22s-.24-.1-.27-.22c-.11,.07-.25,.06-.35-.04-.09-.09-.1-.23-.03-.35-.13-.03-.22-.14-.22-.27Z"/><path class="n" d="M182.64,123.39c0-.14,.1-.24,.22-.27-.07-.11-.06-.25,.03-.35,.09-.1,.24-.11,.35-.04,.03-.12,.14-.22,.27-.22s.24,.1,.27,.22c.11-.07,.26-.06,.35,.04,.09,.09,.1,.24,.04,.35,.13,.03,.22,.13,.22,.27s-.1,.24-.22,.27c.07,.11,.06,.25-.04,.35-.09,.1-.24,.11-.35,.04-.03,.12-.13,.22-.27,.22s-.24-.1-.27-.22c-.11,.07-.25,.06-.35-.04-.09-.09-.1-.23-.03-.35-.13-.03-.22-.14-.22-.27Z"/><path class="ag" d="M183.22,123.39c0,.16,.13,.29,.29,.29s.29-.13,.29-.29-.13-.29-.29-.29-.29,.13-.29,.29Z"/></g><g><path class="p" d="M185.7,124.23c0-.08,.06-.15,.14-.17-.04-.07-.04-.16,.02-.22,.06-.06,.15-.07,.22-.02,.01-.08,.08-.14,.17-.14s.15,.06,.17,.14c.07-.04,.16-.04,.22,.02,.06,.06,.06,.15,.02,.22,.08,.02,.14,.09,.14,.17s-.06,.15-.14,.17c.04,.06,.04,.15-.02,.21-.06,.07-.15,.07-.22,.02-.02,.08-.09,.14-.17,.14s-.15-.06-.17-.14c-.07,.05-.16,.05-.22-.02-.06-.06-.06-.15-.02-.21-.08-.02-.14-.09-.14-.17Z"/><path class="n" d="M185.7,124.23c0-.08,.06-.15,.14-.17-.04-.07-.04-.16,.02-.22,.06-.06,.15-.07,.22-.02,.01-.08,.08-.14,.17-.14s.15,.06,.17,.14c.07-.04,.16-.04,.22,.02,.06,.06,.06,.15,.02,.22,.08,.02,.14,.09,.14,.17s-.06,.15-.14,.17c.04,.06,.04,.15-.02,.21-.06,.07-.15,.07-.22,.02-.02,.08-.09,.14-.17,.14s-.15-.06-.17-.14c-.07,.05-.16,.05-.22-.02-.06-.06-.06-.15-.02-.21-.08-.02-.14-.09-.14-.17Z"/><path class="ag" d="M186.06,124.23c0,.1,.08,.18,.19,.18s.18-.08,.18-.18-.08-.19-.18-.19-.19,.08-.19,.19Z"/></g><g><path class="p" d="M185.09,121.8c-.09-.04-.14-.15-.12-.24-.1,.02-.2-.03-.23-.13-.04-.1,0-.2,.08-.25-.08-.06-.11-.17-.07-.25,.04-.1,.14-.14,.24-.12-.01-.1,.04-.2,.13-.23,.1-.04,.2,0,.25,.09,.06-.08,.16-.11,.26-.07,.09,.04,.14,.15,.12,.24,.1-.01,.2,.04,.23,.13,.04,.09,0,.2-.09,.26,.08,.06,.12,.17,.07,.26-.04,.09-.14,.14-.24,.12,.02,.1-.04,.2-.13,.24-.1,.03-.2,0-.25-.08-.06,.08-.16,.11-.26,.07Z"/><path class="n" d="M185.09,121.8c-.09-.04-.14-.15-.12-.24-.1,.02-.2-.03-.23-.13-.04-.1,0-.2,.08-.25-.08-.06-.11-.17-.07-.25,.04-.1,.14-.14,.24-.12-.01-.1,.04-.2,.13-.23,.1-.04,.2,0,.25,.09,.06-.08,.16-.11,.26-.07,.09,.04,.14,.15,.12,.24,.1-.01,.2,.04,.23,.13,.04,.09,0,.2-.09,.26,.08,.06,.12,.17,.07,.26-.04,.09-.14,.14-.24,.12,.02,.1-.04,.2-.13,.24-.1,.03-.2,0-.25-.08-.06,.08-.16,.11-.26,.07Z"/><path class="ag" d="M185.27,121.39c.11,.05,.25,0,.3-.12,.05-.11,0-.25-.12-.3-.11-.05-.25,0-.3,.11-.05,.12,0,.25,.12,.3Z"/></g><g><path class="p" d="M182.66,121.8c.09-.04,.14-.15,.12-.24,.1,.02,.2-.03,.23-.13,.04-.1,0-.2-.08-.25,.08-.06,.11-.17,.07-.25-.04-.1-.14-.14-.24-.12,.02-.1-.04-.2-.13-.23-.09-.04-.2,0-.25,.09-.06-.08-.17-.11-.26-.07-.09,.04-.14,.15-.12,.24-.1-.01-.19,.04-.23,.13-.04,.09,0,.2,.08,.26-.08,.06-.11,.17-.07,.26,.04,.09,.14,.14,.24,.12-.02,.1,.04,.2,.13,.24,.09,.03,.2,0,.25-.08,.06,.08,.16,.11,.26,.07Z"/><path class="n" d="M182.66,121.8c.09-.04,.14-.15,.12-.24,.1,.02,.2-.03,.23-.13,.04-.1,0-.2-.08-.25,.08-.06,.11-.17,.07-.25-.04-.1-.14-.14-.24-.12,.02-.1-.04-.2-.13-.23-.09-.04-.2,0-.25,.09-.06-.08-.17-.11-.26-.07-.09,.04-.14,.15-.12,.24-.1-.01-.19,.04-.23,.13-.04,.09,0,.2,.08,.26-.08,.06-.11,.17-.07,.26,.04,.09,.14,.14,.24,.12-.02,.1,.04,.2,.13,.24,.09,.03,.2,0,.25-.08,.06,.08,.16,.11,.26,.07Z"/><path class="ag" d="M182.47,121.39c-.11,.05-.25,0-.29-.12-.05-.11,0-.25,.11-.3,.11-.05,.25,0,.3,.11,.05,.12,0,.25-.11,.3Z"/></g><g><path class="p" d="M182.25,118.79c-.03-.08-.1-.11-.17-.1,.02-.07-.02-.14-.09-.18-.07-.03-.15,0-.19,.05-.04-.06-.12-.08-.18-.06-.07,.03-.11,.1-.09,.17-.07-.02-.14,.02-.17,.09-.03,.07,0,.14,.06,.19-.06,.04-.09,.12-.06,.18,.03,.08,.1,.1,.17,.09-.01,.07,.02,.14,.09,.18,.07,.03,.14,0,.19-.06,.04,.06,.11,.09,.18,.06,.07-.03,.1-.1,.09-.17,.07,.02,.14-.02,.17-.09,.03-.07,0-.15-.05-.19,.06-.04,.09-.12,.06-.18Z"/><path class="n" d="M182.25,118.79c-.03-.08-.1-.11-.17-.1,.02-.07-.02-.14-.09-.18-.07-.03-.15,0-.19,.05-.04-.06-.12-.08-.18-.06-.07,.03-.11,.1-.09,.17-.07-.02-.14,.02-.17,.09-.03,.07,0,.14,.06,.19-.06,.04-.09,.12-.06,.18,.03,.08,.1,.1,.17,.09-.01,.07,.02,.14,.09,.18,.07,.03,.14,0,.19-.06,.04,.06,.11,.09,.18,.06,.07-.03,.1-.1,.09-.17,.07,.02,.14-.02,.17-.09,.03-.07,0-.15-.05-.19,.06-.04,.09-.12,.06-.18Z"/><path class="ag" d="M181.95,118.91c.03,.08,0,.18-.09,.21-.08,.03-.18,0-.21-.09-.03-.08,.01-.18,.1-.21,.08-.03,.18,0,.21,.09Z"/></g></g></g></g><g><g><path class="r" d="M51.18,26.4h-16.56c-1.91,0-3-1.39-3-3.08s1.09-3.09,3-3.09h16.56v1.07h-16.56c-1.25,0-1.79,.91-1.79,2.02s.55,2.01,1.79,2.01h16.56v1.07Z"/><path class="p" d="M34.62,25.33h15.85v-4.03h-15.85c-1.25,0-1.79,.91-1.79,2.02s.55,2.01,1.79,2.01Z"/><polygon class="u" points="48.56 24.38 47.61 23.99 46.66 24.38 46.66 22.79 48.56 22.79 48.56 24.38"/><path class="af" d="M34.62,21.29c-.93,0-1.47,.51-1.68,1.23l17.54-.68v-.56h-15.85Z"/></g><g><path class="w" d="M51.18,20.23h-16.56c-1.91,0-3-1.39-3-3.09s1.09-3.08,3-3.08h16.56v1.08h-16.56c-1.25,0-1.79,.9-1.79,2.01s.55,2.01,1.79,2.01h16.56v1.07Z"/><path class="p" d="M34.62,19.15h15.85v-4.02h-15.85c-1.25,0-1.79,.9-1.79,2.01s.55,2.01,1.79,2.01Z"/><polygon class="r" points="40.11 18.22 39.15 17.82 38.2 18.22 38.2 16.62 40.11 16.62 40.11 18.22"/><path class="af" d="M34.62,15.13c-.93,0-1.47,.5-1.68,1.22l17.54-.67v-.54h-15.85Z"/></g><g><path class="u" d="M51.18,14.06h-16.56c-1.91,0-3-1.38-3-3.08s1.09-3.08,3-3.08h16.56v1.07h-16.56c-1.25,0-1.79,.9-1.79,2.01s.55,2.01,1.79,2.01h16.56v1.07Z"/><path class="p" d="M34.62,12.99h15.85v-4.02h-15.85c-1.25,0-1.79,.9-1.79,2.01s.55,2.01,1.79,2.01Z"/><polygon class="w" points="46.66 12.58 45.7 12.18 44.75 12.58 44.75 10.97 46.66 10.97 46.66 12.58"/><path class="af" d="M34.62,8.96c-.93,0-1.47,.5-1.68,1.22l17.54-.67v-.55h-15.85Z"/></g></g><polygon class="ag" points="4.88 133.39 7.87 131.6 192.82 131.6 195.99 133.56 4.88 133.39"/><path class="v" d="M195.99,136.51c0,.09-.08,.17-.18,.17H4.88c-.1,0-.18-.08-.18-.17v-2.95c0-.09,.08-.17,.18-.17H195.81c.1,0,.18,.08,.18,.17v2.95Z"/><rect class="v" x="7.87" y="130.39" width="184.95" height="1.2"/><g><path class="p" d="M206.27,73.89c0,.13-.02,.26-.05,.39-.03,.13-.09,.25-.16,.36-.07,.11-.17,.2-.29,.29-.12,.08-.27,.15-.44,.19v.05c.15,.03,.3,.07,.43,.13,.14,.06,.26,.14,.36,.25,.1,.11,.18,.23,.24,.39,.06,.15,.09,.33,.09,.54,0,.27-.06,.51-.17,.71-.12,.2-.27,.36-.46,.49-.19,.13-.41,.22-.66,.28-.25,.06-.5,.09-.76,.09h-.33c-.13,0-.28,0-.43-.01-.15,0-.31-.02-.47-.03-.16-.02-.3-.04-.43-.07v-5.21c.1-.02,.21-.03,.33-.05,.12-.02,.26-.03,.4-.04,.14,0,.29-.02,.43-.02,.15,0,.29,0,.44,0,.25,0,.49,.02,.72,.06,.23,.04,.44,.11,.63,.2,.18,.1,.33,.23,.44,.4,.11,.17,.17,.39,.17,.65Zm-2.23,.99c.07,0,.15,0,.25,0,.09,0,.17-.01,.23-.02,.19-.06,.36-.15,.5-.27,.14-.12,.21-.28,.21-.47,0-.13-.02-.24-.08-.32-.05-.09-.12-.15-.2-.2-.08-.05-.18-.08-.28-.1-.11-.02-.22-.03-.33-.03-.13,0-.25,0-.36,0-.11,0-.2,.01-.26,.02v1.4h.33Zm.34,2.27c.13,0,.25-.01,.37-.04,.12-.03,.22-.08,.32-.14,.09-.06,.16-.14,.22-.24,.05-.1,.08-.21,.08-.34,0-.16-.03-.29-.1-.39-.07-.1-.15-.17-.25-.22-.11-.05-.23-.09-.36-.1-.13-.02-.26-.02-.39-.02h-.55v1.44s.06,.02,.12,.02c.06,0,.11,0,.18,.01,.06,0,.13,0,.2,0,.07,0,.13,0,.18,0Z"/><path class="p" d="M202.24,81.6c0-.88,.19-1.56,.58-2.04,.39-.48,.94-.71,1.66-.71,.38,0,.71,.07,.99,.2,.28,.13,.52,.32,.7,.56,.19,.24,.32,.53,.41,.87,.09,.34,.14,.71,.14,1.13,0,.88-.2,1.56-.59,2.04-.39,.48-.94,.71-1.66,.71-.38,0-.72-.07-1-.2-.28-.13-.52-.32-.7-.56-.18-.24-.32-.53-.41-.87-.09-.34-.14-.71-.14-1.13Zm1.09,0c0,.27,.02,.51,.07,.74,.04,.22,.12,.42,.21,.58,.09,.16,.21,.29,.36,.38,.15,.09,.32,.14,.52,.14,.37,0,.65-.14,.85-.43,.2-.29,.3-.75,.3-1.4,0-.26-.02-.5-.06-.72-.04-.22-.11-.41-.2-.58-.09-.17-.21-.3-.36-.39-.15-.09-.32-.14-.54-.14-.37,0-.65,.15-.85,.44-.2,.29-.3,.76-.3,1.39Z"/><path class="p" d="M202.24,87.9c0-.88,.19-1.56,.58-2.04,.39-.48,.94-.71,1.66-.71,.38,0,.71,.07,.99,.2,.28,.13,.52,.32,.7,.56,.19,.24,.32,.53,.41,.87,.09,.34,.14,.71,.14,1.13,0,.88-.2,1.56-.59,2.04-.39,.48-.94,.71-1.66,.71-.38,0-.72-.07-1-.2-.28-.13-.52-.32-.7-.56-.18-.24-.32-.53-.41-.87-.09-.34-.14-.71-.14-1.13Zm1.09,0c0,.27,.02,.51,.07,.74,.04,.22,.12,.42,.21,.58,.09,.16,.21,.29,.36,.38,.15,.09,.32,.14,.52,.14,.37,0,.65-.14,.85-.43,.2-.29,.3-.75,.3-1.4,0-.26-.02-.5-.06-.72-.04-.22-.11-.41-.2-.58-.09-.17-.21-.3-.36-.39-.15-.09-.32-.14-.54-.14-.37,0-.65,.15-.85,.44-.2,.29-.3,.76-.3,1.39Z"/><path class="p" d="M203.91,94.58h-.27v2.26h-1.04v-5.29h1.04v2.34l.24-.11,1.46-2.24h1.18l-1.54,2.22-.41,.29,.42,.29,1.76,2.49h-1.28l-1.56-2.26Z"/><path class="p" d="M205.22,101.71c0-.16-.06-.29-.18-.39-.12-.1-.27-.19-.45-.28-.18-.08-.37-.17-.58-.26-.21-.09-.4-.2-.58-.33-.18-.13-.33-.29-.45-.48-.12-.19-.18-.44-.18-.73,0-.26,.04-.48,.13-.67,.08-.19,.21-.35,.37-.47,.16-.12,.35-.22,.56-.28,.22-.06,.46-.09,.73-.09,.31,0,.6,.03,.87,.08,.27,.05,.5,.13,.67,.23l-.32,.87c-.11-.07-.28-.14-.5-.19-.22-.06-.46-.09-.72-.09-.24,0-.43,.05-.56,.14-.13,.1-.19,.22-.19,.39,0,.15,.06,.28,.18,.38,.12,.1,.27,.19,.45,.28,.18,.09,.37,.17,.58,.26,.21,.09,.4,.2,.58,.33,.18,.13,.33,.29,.45,.48,.12,.19,.18,.42,.18,.71s-.05,.52-.14,.73c-.09,.2-.22,.37-.39,.51-.17,.13-.37,.24-.61,.3-.24,.07-.5,.1-.79,.1-.38,0-.71-.04-1-.11-.29-.07-.5-.14-.63-.21l.33-.88c.06,.03,.13,.06,.22,.1,.09,.03,.19,.07,.3,.1,.11,.03,.23,.06,.35,.08,.12,.02,.25,.03,.38,.03,.31,0,.54-.05,.71-.16,.16-.1,.24-.26,.24-.47Z"/></g><polygon class="m" points="7.87 47.8 23.43 63.35 192.82 63.35 192.82 47.39 7.87 47.67 7.87 47.8"/></g></g></g></g></svg>