<?xml version="1.0" encoding="iso-8859-1"?>
<!-- Generator: Adobe Illustrator 19.0.0, SVG Export Plug-In . SVG Version: 6.00 Build 0)  -->
<svg version="1.1" id="Layer_1" xmlns="http://www.w3.org/2000/svg" xmlns:xlink="http://www.w3.org/1999/xlink" x="0px" y="0px"
	 viewBox="0 0 512.002 512.002" style="enable-background:new 0 0 512.002 512.002;" xml:space="preserve">
<g>
	<g>
		<path d="M499.548,281.948c-2.954-3.251-4.259-7.755-5.944-11.744c-2.223-5.261-4.9-10.283-7.462-15.381
			c-4.891-9.733-11.175-18.551-16.34-28.116c-5.385-9.974-11.166-19.694-16.657-29.606c-5.216-9.415-8.407-19.64-14.257-28.703
			c-2.865-4.438-5.666-8.7-7.474-13.687c-1.957-5.39-4.023-9.852-7.581-14.389c-6.779-8.645-8.639-19.353-14.177-28.661
			c-2.814-4.73-3.91-9.135-5.825-14.192c-1.864-4.921-5.082-9.182-7.779-13.659c-2.532-4.205-3.852-8.343-5.403-12.944
			c-1.411-4.183-4.168-7.686-5.276-11.962c-2.981-11.507-10.195-21.148-14.072-32.406c-0.877-2.549-0.976-5.266-2.005-7.768
			c-0.913-2.216-2.533-3.963-3.555-6.111c-1.915-4.022-2.685-8.173-5.806-11.547c-0.82-0.887-2.339-1.321-3.495-0.924
			c-3.54,1.214-7.546-0.188-11.248,0.139c-2.994,0.265-5.956,0.886-8.944,1.205c-2.808,0.301-5.605,0.68-8.41,0.994
			c-4.304,0.481-8.528-0.357-12.838-0.055c-7.464,0.521-14.789,2.3-22.237,2.994c-8.586,0.8-17.052,1.431-25.588,2.785
			c-16.817,2.669-33.582,6.059-50.168,9.914c-6.814,1.585-13.29,4.157-20.251,5.026c-8.572,1.071-17.042,2.969-25.522,4.599
			c-15.529,2.984-31.349,4.817-46.668,8.813c-6.972,1.819-13.859,3.777-20.93,5.211c-7.724,1.567-15.652,1.501-23.001,4.517
			c-12.667,5.2-25.835,12.621-35.774,22.096c-9.891,9.43-19.592,19.615-23.536,32.951c-2.304,7.787-5.967,14.97-8,22.939
			c-2.229,8.73-2.884,16.161-2.272,25.098c0.216,3.142-0.054,6.242,0.073,9.367c0.058,1.459,0.271,2.842,0.93,4.155
			c0.676,1.348,1.132,2.092,1.485,3.362c1.202,4.306,3.003,8.124,5.717,11.363c0.019,0.08,0.032,0.166,0.052,0.245
			c1.461,5.645,3.383,9.689,6.177,14.776c4.807,8.754,9.316,18.966,8.523,28.998c-0.813,10.284-0.184,19.798,9.802,25.263
			c3.961,2.167,7.048,5.2,11.24,7.156c2.279,1.064,5.236,2.065,6.991,3.986c2.024,2.213,2.601,5.885,3.24,8.728
			c2.725,12.107,5.279,23.575,10.574,34.862c2.236,4.767,4.025,9.705,6.181,14.506c2.583,5.75,6.128,10.91,9.026,16.489
			c1.561,3.005,3.841,6.206,3.343,9.461c-0.761,4.968-2.546,8.448-1.486,13.694c2.018,9.982,8.45,17.095,16.038,23.247
			c5.396,4.371,6.671,10.713,8.689,17.07c1.997,6.296,3.422,12.692,5.431,18.981c1.857,5.812,4.068,11.455,5.937,17.255
			c1.579,4.901,3.357,9.416,6.5,13.336c0.678,2.621,1.589,5.173,3.048,7.645c3.269,5.535,7.855,11.005,12.767,15.143
			c4.546,3.83,10.025,5.157,14.869,8.345c2.416,1.588,4.36,3.668,6.948,5.033c2.964,1.563,6.262,2.739,9.393,3.913
			c12.701,4.763,26.307,2.249,39.246-0.132c6.379-1.174,12.919-2.462,19.098-4.461c3.38-1.092,6.617-2.578,10.004-3.647
			c2.964-0.936,6.005-1.133,8.679-2.786c1.053-0.651,1.57-1.705,1.588-2.769c0.445,5.529,0.1,11.274-0.921,16.384
			c-1.148,5.743-5.209,12.849-3.093,18.75c4.004,11.166,15.714,0.379,20.437-3.96c4.394-4.036,8.828-8.234,11.121-13.848
			c1.114-2.723,1.872-5.647,2.395-8.615c4.203,8.842,11.524,20.438,18.897,16.306c5.77-3.232,4.201-13.655,3.514-18.843
			c-0.675-5.095-1.463-10.309-2.383-15.479c1.768-0.339,3.595-0.516,5.296-0.972c4.222-1.133,8.264-2.969,12.471-4.195
			c8.956-2.609,18.044-4.8,27.027-7.323c17.574-4.933,34.794-10.55,52.498-15.052c18.352-4.666,36.94-8.892,55.07-14.347
			c6.571-1.977,14.114-4.171,18.77-9.565c3.941-4.565,8.155-11.959,7.176-18.153c-0.971-6.141-5.69-12.281-10.565-15.956
			c-3.195-2.408-8.27-4.365-12.023-7.13c-0.046-0.398-0.208-0.79-0.515-1.142c-0.175-0.54-0.459-1.04-0.843-1.524
			c-0.21-0.267-0.315-0.447-0.707-1.057c-0.649-1.007-1.279-2.005-1.864-3.048c-0.227-0.581-0.556-1.123-1.041-1.749
			c-0.316-0.405-0.632-0.811-0.959-1.208c-0.959-1.17-2.626-1.47-4.086-1.133c0.141-2.322,0.477-4.693,1.007-7.243
			c2.657-12.799,9.355-24.187,16.849-34.821c6.189-1.48,12.118-3.621,16.964-8.079c5.978-5.501,10.316-12.957,9.327-21.201
			C501.435,285.801,501.095,283.649,499.548,281.948z M318.886,13.973c7.063-0.127,13.69-1.064,20.658-2.282
			c3.762-0.657,7.279-2.087,11.073-2.562c1.909-0.239,3.645-0.515,5.343-1.041c1.348,3.041,1.468,6.836,2.676,9.832
			c1.909,4.736,1.763,9.511,3.313,14.397c1.097,3.46,2.486,6.802,3.936,10.113c-5.764-1.063-11.577-1.374-17.301-2.975
			c-5.92-1.657-10.651-4.906-15.966-7.834c-5.33-2.936-10.508-5.123-13.709-10.635c-1.32-2.275-2.345-4.591-3.509-6.808
			C316.563,14.073,317.726,13.994,318.886,13.973z M116.858,372.71c-1.372-1.089-2.82-2.104-4.288-3.141
			c-4.892-3.451-8.333-7.831-10.107-13.65c-1.953-6.405,1.453-7.386,4.069-12.135c1.215-2.206,1.393-4.383,1.015-6.525
			c3.289-7.632,6.632-15.257,10.095-22.833c1.503-3.286,2.501-6.914,4.429-9.968c2.091-3.312,4.921-6.249,7.336-9.334
			c4.726-6.036,10.822-10.423,15.668-16.314c0.902-1.097,0.43-3.208-1.28-3.092c-7.048,0.483-14.326,7.839-18.662,12.928
			c-2.673,3.138-5.374,6.277-7.954,9.492c-2.836,3.533-4.174,7.175-6.059,11.229c-2.72,5.845-5.347,11.714-7.968,17.593
			c-4.622-8.7-9.786-17.023-14.072-25.942c-2.37-4.931-5.367-9.485-7.94-14.299c-3.351-6.273-5.122-13.099-6.641-20.005
			c-0.61-2.776-1.161-5.698-2.072-8.464c1.02-0.812,1.083-2.515,0.359-3.641c0.838-2.848,2.048-5.49,2.791-8.396
			c0.928-3.634,1.139-7.386,2.537-10.896c1.195-3.002,2.032-5.934,3.118-8.944c1.304-3.616,4.409-7.693,6.36-11.142
			c4.323-7.646,11.732-14.073,18.031-20.075c6.214-5.919,13.851-10.196,19.973-16.065c1.284-1.23,0.273-3.364-1.412-3.408
			c-9.574-0.252-18.159,7.22-24.954,13.08c-7.207,6.216-16.141,12.652-20.931,21.036c-1.401,2.452-2.401,4.806-4.017,7.16
			c-1.264,1.84-2.392,3.496-3.075,5.663c-1.065,3.377-2.067,6.548-3.314,9.884c-1.713,4.586-1.689,9.494-2.789,14.197
			c-0.094,0.401-0.172,0.782-0.248,1.163c-1.884-1.394-3.904-2.639-5.83-3.987c-2.072-1.451-3.206-3.246-4.953-4.961
			c-1.494-1.466-3.904-2.178-5.213-3.749c-2.997-3.601-1.386-10.145-1.054-14.33c0.272-3.411,0.144-6.826-0.855-9.984
			c2.121-3.605,3.465-7.682,5.613-11.767c4.996-9.502,10.957-19.318,17.327-27.973c5.838-7.93,16.452-13.352,25.275-17.343
			c4.402-1.99,12.848-4.568,11.958-10.671c-0.321-2.199-3.075-2.238-4.424-1.169c-2.435,1.932-6.161,2.067-9.045,3.029
			c-4.024,1.341-8.187,2.99-11.772,5.276c-7.549,4.811-14.562,8.899-19.9,16.255c-5.932,8.175-11.345,17.294-15.873,26.302
			c-1.63,3.243-2.978,6.454-3.872,9.939c-2.572-4.044-4.549-8.296-7.069-12.545c-1.638-2.76-3.76-5.17-5.406-7.913
			c-0.289-0.48-0.54-0.975-0.793-1.469c0.499-1.159,0.456-2.582-0.519-3.672c-4.864-5.437-3.055-11.621-4.937-17.98
			c-0.341-1.153-0.504-1.321-0.572-1.138c-0.011-0.202-0.024-0.432-0.039-0.703c-0.051-0.852,0.17-1.833,0.195-2.678
			c0.114-3.638-0.358-7.286-0.465-10.917c-0.416-13.993,6.798-26.11,10.536-39.118c3.588-12.485,14.574-23.125,24.312-31.339
			c5.081-4.285,11.133-6.999,16.871-10.266c1.317-0.75,2.603-1.475,3.885-2.174c0.247,7.34,5.151,15.498,8.208,21.615
			c2.202,4.402,4.951,8.398,7.376,12.667c2.657,4.675,4.235,9.893,6.47,14.776c4.609,10.066,11.431,18.88,16.507,28.689
			c2.244,4.338,3.824,8.761,6.672,12.763c3.302,4.638,6.21,8.528,7.955,14.063c7.262,23.02,13.908,46.375,20.335,69.649
			c3.216,11.645,6.746,23.197,10.154,34.785c3.13,10.639,5.563,21.739,9.378,32.146c0.695,1.896,1.564,3.672,2.505,5.405
			c-8.842,1.659-15.395,3.61-22.052,10.538c-6.689,6.961-12.413,14.553-17.469,22.766c-2.715,4.41-5.1,9.058-7.899,13.402
			c-2.187,3.393-4.726,6.455-6.385,10.168C118.628,367.295,117.599,369.904,116.858,372.71z M259.571,469.033
			c-4.559-2.916-10.111-0.627-14.797,1.033c-5.872,2.079-11.683,3.761-17.836,4.814c-12.125,2.077-26.687,4.723-38.723,1.287
			c-5.699-1.626-10.46-3.948-15.231-7.368c-4.663-3.344-10.45-4.341-14.982-7.928c-4.359-3.451-9.121-7.759-12.597-12.339
			c2.844-1.693,4.533-5.14,2.139-8.416c-3.051-4.175-4.139-9.152-5.881-13.943c-1.902-5.233-3.922-10.38-5.792-15.631
			c-1.988-5.583-3.023-11.477-5.284-16.96c-2.216-5.374-5.307-10.612-8.527-15.444c-0.124-0.188-0.263-0.357-0.392-0.537
			c1.563-3.518,2.937-7.174,4.761-10.633c2.021-3.831,4.913-7.092,7.138-10.793c2.188-3.641,4.207-7.365,6.46-10.976
			c4.989-7.995,10.538-15.141,16.963-22.033c5.312-5.699,12.233-8.62,18.083-13.508c1.387,2.387,2.84,4.74,4.104,7.244
			c2.739,5.429,4.378,11.306,6.94,16.814c2.495,5.362,5.259,10.776,8.189,15.91c2.509,4.396,6.178,6.996,9.299,10.73
			c2.621,3.137,6.622-0.386,6.13-3.569c-0.544-3.522-3.019-6.177-4.867-9.108c-2.873-4.559-5.279-9.392-7.802-14.153
			c-4.761-8.988-7.458-18.769-12.952-27.397c-5.891-9.253-7.629-20.818-11.03-31.147c-3.552-10.789-7.417-21.476-11.086-32.226
			c-7.765-22.755-15.624-45.638-22.078-68.805c-1.311-4.705-2.291-9.511-4.109-14.062c-1.745-4.367-4.502-7.789-7.201-11.571
			c-5.68-7.961-9.271-17.795-14.239-26.295c-3.35-5.733-6.598-11.481-9.058-17.662c-1.965-4.942-3.78-9.806-6.618-14.328
			c-3.067-4.888-5.914-9.698-8.567-14.833c-1.324-2.564-2.526-5.253-3.957-7.757c-1.573-2.75-4.214-5.033-5.076-8.129
			c4.004-1.984,8.08-3.483,12.872-3.875c14.387-1.18,28.047-6.388,42.099-9.253c14.573-2.971,29.399-4.741,44.04-7.363
			c6.833-1.224,13.61-2.354,20.494-3.218c7.509-0.943,14.645-3.886,22.029-5.51c15.173-3.338,30.366-6.454,45.68-9.076
			c8.862-1.517,17.684-2.339,26.581-3.487c5.324-0.686,10.69-1.977,16.065-2.805c1.17,4.284,1.705,8.8,4.357,12.555
			c3.614,5.119,9.436,7.597,14.646,10.695c11.291,6.713,23.903,12.846,37.539,10.755c0.388-0.059,0.723-0.193,1.008-0.377
			c1.97,4.504,3.806,9.043,4.93,13.835c0.965,4.113,3.314,7.363,4.803,11.232c1.758,4.568,2.61,9.22,4.87,13.648
			c2.248,4.404,5.307,8.387,7.447,12.838c2.373,4.932,2.81,10.328,5.53,15.221c2.652,4.767,4.944,9.201,6.806,14.347
			c1.881,5.202,3.957,10.462,7.077,15.061c3.195,4.715,6.288,8.353,8.193,13.822c1.707,4.904,3.904,9.364,6.672,13.757
			c2.785,4.42,5.746,8.692,7.727,13.552c2.183,5.353,4.307,10.637,7.002,15.769c5.277,10.054,11.276,19.702,16.548,29.766
			c4.187,7.993,9.075,15.534,13.558,23.335c-0.265,0.15-0.525,0.305-0.779,0.486c-2.569,1.832-4.464,4.78-6.68,7.017
			c-2.164,2.185-4.388,4.37-6.183,6.88c-2.095,2.929-2.706,5.894-4.118,9.114c-1.072,2.444-3.145,4.243-4.287,6.677
			c-1.335,2.849-2.066,6.165-2.752,9.208c-1.046,4.637-2.836,11.092-1.43,16.003c-1.955,0.623-3.911,1.247-5.894,1.787
			c-4.894,1.334-9.624,1.409-14.619,1.797c-9.572,0.744-19.233,3.749-28.255,6.863c-9.286,3.205-18.491,4.554-27.959,6.882
			c-4.571,1.123-9.053,2.577-13.468,4.202c-2.361,0.869-4.7,2.001-7.124,2.682c-2.807,0.789-5.738,0.782-8.585,1.392
			c-4.071,0.871-7.671,3.164-11.641,4.411c-4.57,1.436-9.247,2.59-13.95,3.491c-9.448,1.808-19.191,3.182-28.712,4.644
			c-5.114,0.786-10.21,1.172-15.259,2.387c-5.143,1.237-10.123,3.05-15.258,4.341c-3.997,1.005-7.884,1.85-11.658,3.294
			c-1.421-0.102-2.847-0.134-4.288,0.059c-9.502,1.284-19.305,6.005-28.277,9.314c-15.733,5.802-32.571,14.024-41.845,28.872
			c-4.329,6.932-4.855,14.961-5.057,22.896c-0.22,8.685-0.152,16.264,3.841,24.187c6.787,13.464,25.11,17.715,38.984,17.527
			c0.856-0.012,1.539-0.294,2.062-0.722c3.898,0.193,7.814,0.322,11.581,0.07c7.083-0.477,13.894-2.537,20.72-4.333
			c3.797-0.999,7.617-1.939,11.524-2.391c2.578-0.298,4.293-0.41,5.699-2.154c1.296,3.868,2.589,7.736,3.664,11.66
			c0.708,2.587,1.164,5.365,1.425,8.203C260.929,470.415,260.432,469.584,259.571,469.033z M306.554,490.242
			c-0.139-0.099-0.523-0.188-1.077-0.563c-1.78-1.207-3.339-3.025-4.673-4.698c-3.526-4.42-6.262-8.845-9.068-13.724
			c-1.294-2.251-4.187-0.597-3.88,1.636c1.695,12.315-9.592,19.895-18.431,26.127c-0.657,0.464-1.67,1.001-2.648,1.573
			c0.188-1.05,0.34-2.13,0.443-2.543c1.455-5.783,2.294-11.217,2.425-17.176c0.134-6.032,0.042-12.069-1.523-17.935
			c-1.711-6.414-4.593-12.479-6.649-18.787c-1.739-5.337-3.58-11.623-6.923-16.214c-0.341-0.469-0.713-0.909-1.1-1.335
			c2.481-0.578,4.871-1.369,7.216-2.378c5.121-2.203,10.242-3.528,15.5-4.837c0.074-0.01,0.146-0.023,0.22-0.031
			c3.382-0.43,6.754-0.9,10.122-1.393c1.091,1.34,1.5,4.304,2.215,5.846c3.294,7.094,7.191,13.758,10.014,21.1
			c1.367,3.555,2.278,7.148,3.006,10.785c-0.934,0.548-1.862,1.184-2.808,1.941c-4.224,3.381,0.115,8.892,4.57,8.223
			c0.01,0.056,0.019,0.112,0.027,0.168c1.069,6.42,3.13,12.712,3.263,19.268C306.813,486.087,306.971,489.006,306.554,490.242z
			 M465.288,386.663c0.185-2.719-1.174-5.522-4.59-6.584c0.543,0.17-0.71-1.456-1.111-2.552c-0.692-1.892-1.039-3.922-1.522-5.872
			c-0.147-0.599-0.266-1.178-0.388-1.759c0.209,0.206,0.412,0.418,0.634,0.611c1.133,0.987,2.6,1.934,4.082,2.212
			c1.751,2.684,4.211,4.984,6.743,7.015c2.366,1.896,5.16,3.52,7.021,5.973c3.386,4.46,3.724,8.516,0.807,13.118
			c-2.457,3.876-4.235,5.971-8.483,7.875c-4.835,2.168-9.877,3.974-14.908,5.624c-10.819,3.547-21.826,6.549-32.873,9.291
			c-10.683,2.652-21.379,5.324-32.034,8.089c-10.489,2.723-20.626,6.675-31.055,9.625c-10.753,3.041-21.668,5.599-32.369,8.804
			c-4.971,1.488-9.693,3.589-14.802,4.555c-0.432,0.082-0.845,0.171-1.258,0.26c-0.151-0.672-0.282-1.36-0.44-2.027
			c-0.898-3.787-2.169-7.509-3.657-11.166c1.828-0.282,3.771-0.506,4.251-0.622c2.898-0.695,5.875,0.168,8.624-0.591
			c6.049-1.668,12.1-3.356,18.334-4.732c15.475-3.418,30.914-7.13,45.986-12.056c14.813-4.843,29.254-11.212,44.213-15.518
			c11.788-3.393,23.404-7.08,34.415-12.205c1.479,0.198,3.016-0.372,3.915-2.037c0.16-0.296,0.321-0.593,0.48-0.889
			C466.174,389.487,466.038,387.892,465.288,386.663z M445.739,356.997c-1.33,7.312-0.296,14.38,1.063,21.604
			c0.628,3.343,1.732,6.789,3.695,9.486c-2.177,1.063-4.376,2.124-6.804,2.87c-6.947,2.133-13.869,4.329-20.831,6.405
			c-15.265,4.55-30.026,11.04-45.173,16.023c-14.712,4.839-29.765,8.577-44.852,12.032c-3.723,0.852-7.475,1.587-11.191,2.469
			c-1.279,0.303-2.795,0.483-3.987,1.057c-0.579,0.278-1.755,1.421-2.26,1.595c-2.109,0.725-4.219,0.267-6.436,1.306
			c-2.034,0.952-3.974,2.095-5.929,3.198c-1.944-4.239-4.087-8.388-6.206-12.424c-0.875-1.668-1.576-3.802-2.411-5.878
			c1.053-0.168,2.106-0.32,3.161-0.493c28.766-4.711,57.231-10.538,85.146-18.99c1.752-0.53,1.423-3.155-0.432-3.193
			c-6.374-0.128-12.611,1.81-18.745,3.34c-6.701,1.67-13.472,2.933-20.15,4.716c-14.372,3.838-29.053,6.117-43.711,8.589
			c-2.608,0.44-5.216,0.858-7.822,1.271c-1.189-1.507-2.711-2.596-4.838-2.822c-3.182-0.338-6.455,1.224-9.485,1.95
			c-4.78,1.145-9.535,2.004-14.172,3.704c-3.251,1.191-6.374,2.791-9.663,3.881c-2.298,0.456-4.596,0.899-6.895,1.34
			c-0.782,0.077-1.529,0.153-2.247,0.282c-0.711-0.384-1.418-0.764-2.115-1.142c-1.136-0.618-2.376,0.88-1.407,1.823
			c0.055,0.054,0.112,0.106,0.169,0.159c-1.352,0.282-2.703,0.567-4.05,0.882c-3.702,0.867-7.443,1.665-11.124,2.603
			c-3.426,0.873-6.644,2.747-10.168,3.176c-1.438,0.175-1.537,2.33,0,2.322c5.971-0.032,12.182-1.536,18.046-2.627
			c1.58-0.294,3.158-0.594,4.737-0.892c0.699,2.005,2.917,3.498,4.993,1.953c1.06-0.789,2.376-1.1,3.758-1.261
			c0.351,0.464,0.685,0.938,0.971,1.437c2.098,3.659,3.155,8.286,4.314,12.301c0.316,1.096,0.649,2.186,0.99,3.275
			c-0.439-0.144-0.896-0.216-1.362-0.171c-11.604,1.136-22.3,6.315-33.832,7.488c-5.361,0.546-10.765-0.012-16.13,0.471
			c-0.668,0.059-1.524,0.216-2.473,0.401c-5.135-1.845-10.256-3.859-15.263-5.901c-5.02-2.047-8.108-5.148-10.333-10.084
			c-2.939-6.518-2.102-13.968-1.945-20.944c0.164-7.33,2.041-13.159,7.161-18.469c4.764-4.942,9.666-9.864,15.581-13.43
			c6.821-4.113,14.627-6.731,22.025-9.603c6.904-2.681,13.724-5.809,20.717-8.223c3.292-1.136,6.782-1.435,10.054-2.545
			c0.805-0.273,1.58-0.674,2.344-1.127c2.537-0.399,5.076-0.783,7.587-1.311c4.434-0.932,8.71-2.458,13.168-3.309
			c5.118-0.976,10.319-1.088,15.464-1.851c9.907-1.47,19.999-2.465,29.833-4.344c9.472-1.809,18.441-6.01,27.928-6.902
			c10.198-0.958,19.788-5.87,30.066-7.14c10.43-1.289,19.841-3.848,29.967-6.592c4.749-1.286,9.628-2.179,14.479-2.994
			c4.841-0.814,9.733-0.366,14.605-1.012c10.039-1.33,19.649-5.2,29.573-7.274c0.988-0.207,1.983-0.403,2.981-0.597
			C455.173,329.001,448.468,341.998,445.739,356.997z M486.722,293.32c-2.358,3.178-4.722,6.337-8.461,7.982
			c-8.288,3.648-18.44,4.222-27.229,6.395c0.654-3.831,0.228-8.18,0.933-11.816c0.528-2.725,1.006-5.854,2.173-8.403
			c0.99-2.161,2.688-3.859,3.639-6.053c1.127-2.601,1.359-5.43,2.735-7.953c1.511-2.767,3.774-4.956,5.781-7.344
			c1.856-2.208,3.207-4.74,4.988-6.972c0.187-0.234,0.389-0.458,0.593-0.678c0.81,1.481,1.601,2.972,2.36,4.483
			c4.644,9.244,7.557,20.278,15.4,27.213C488.601,291.174,487.569,292.177,486.722,293.32z"/>
	</g>
</g>
<g>
	<g>
		<path d="M363.785,133.022c-5.072-7.336-7.125-16.054-11.138-23.954c-4.25-8.369-11.414-15.147-16.061-23.38
			c-3.579-6.341-5.731-15.756-11.499-20.478c-1.279-1.047-2.871-1.407-4.376-0.565c-2.318,1.297-5.246,0.077-7.672,0.023
			c-2.227-0.05-4.466,0.351-6.664,0.666c-5.541,0.792-10.827,2.31-16.252,3.62c-11.326,2.735-22.965,3.615-34.4,5.746
			c-23.744,4.427-46.779,14.174-70.92,15.635c-0.655,0.04-1.115,0.334-1.391,0.732c-0.374-0.795-1.097-1.442-2.175-1.568
			c-1.932-0.225-2.18-0.156-4.076,0.258c-1.05,0.229-1.995,1.431-1.919,2.52c0.244,3.477,1.422,6.092,2.911,9.219
			c2.003,4.205,2.246,8.482,3.838,12.763c1.151,3.091,3.09,5.302,3.735,8.623c0.631,3.25,1.035,6.677,2.188,9.798
			c1.075,2.91,3.024,5.143,4.637,7.74c2.439,3.929,3.236,8.515,4.969,12.756c1.385,3.388,3.422,6.493,4.71,9.915
			c1.613,4.287,1.795,9.037,2.834,13.473c0.246,1.052,1.193,1.982,2.237,2.238c2.241,0.549,3.966,0.53,6.208-0.077
			c3.103-0.842,5.542-0.819,8.697-0.994c2.679-0.149,5.257-1.224,7.905-1.602c3.44-0.491,6.939-0.162,10.4-0.607
			c14.353-1.852,28.671-4.435,42.936-6.869c13.996-2.388,27.857-5.379,41.555-9.115c7.008-1.911,14.022-3.546,21.167-4.852
			c3.625-0.662,7.247-1.61,10.938-1.719c3.45-0.101,6.58,0.264,10.025-0.244c1.325-0.196,2.399-1.552,2.75-2.75
			C371.716,143.725,367.126,137.854,363.785,133.022z M355.018,145.267c-2.958,0.266-5.845,0.956-8.754,1.519
			c-6.773,1.312-13.484,2.664-20.146,4.48c-13.322,3.63-26.663,6.902-40.252,9.392c-13.336,2.444-26.738,4.583-40.13,6.71
			c-6.575,1.044-13.452,0.581-19.882,2.225c-3.092,0.791-5.813,0.654-8.914,1.021c-1.98,0.235-4.068,1.589-6.129,1.97
			c-0.529-3.162-0.815-6.387-1.674-9.462c-0.89-3.183-2.467-6.052-3.874-9.018c-1.789-3.771-2.816-7.786-4.429-11.621
			c-1.505-3.576-3.842-6.141-5.908-9.333c-3.477-5.373-2.86-12.295-5.986-17.828c-2.063-3.651-2.607-6.525-3.72-10.455
			c-0.995-3.514-3.268-6.676-4.273-10.16c0.097-0.004,0.195-0.007,0.29-0.011c1.264,0.138,2.039-0.522,2.338-1.415
			c0.283,0.308,0.692,0.53,1.228,0.579c5.442,0.499,10.64,1.07,16.072,0.214c6.426-1.014,12.815-2.395,19.224-3.523
			c13.051-2.298,25.869-5.746,38.948-7.885c12.198-1.994,24.542-3.119,36.529-6.242c5.589-1.456,11.665-3.387,17.465-3.566
			c3.466-0.107,6.205,0.272,8.957-0.75c1.637,2.123,2.725,5.742,3.749,7.671c1.809,3.411,3.149,7.069,5.108,10.4
			c4.127,7.021,9.667,13.093,13.876,19.978c4.304,7.041,5.807,15.413,9.676,22.653c1.698,3.177,6.866,8.246,7.866,12.509
			C359.859,145.335,357.428,145.049,355.018,145.267z"/>
	</g>
</g>
<g>
	<g>
		<path d="M363.802,380.302c-2.813,1.297-5.896,1.335-8.887,1.945c-3.006,0.613-5.954,1.503-8.961,2.123
			c-6.414,1.322-12.768,2.013-19.059,3.919c-6.088,1.845-12.381,2.463-18.599,3.701c-6.948,1.384-13.794,2.967-20.822,3.955
			c-6.038,0.848-11.394,2.789-17.275,4.228c-5.967,1.46-12.123,1.994-18.157,3.091c-13.199,2.399-26.929,3.894-39.867,7.432
			c-0.582,0.159-0.335,1.01,0.247,0.895c13.245-2.62,27.046-3.42,40.439-5.355c6.687-0.966,13.515-1.432,20.059-3.203
			c6.351-1.718,12.313-3.119,18.864-4.051c13.453-1.914,26.952-4.805,40.062-8.268c6.266-1.656,12.792-2.15,19.103-3.654
			c4.618-1.1,10.821-1.411,14.428-4.716C366.535,381.283,365.065,379.721,363.802,380.302z"/>
	</g>
</g>
<g>
	<g>
		<path d="M412.623,348.348c-2.606,1.787-7.844,2.445-10.834,3.475c-3.294,1.135-6.636,2.121-9.997,3.03
			c-7.442,2.014-14.86,3.789-22.404,5.346c-7.777,1.606-15.329,3.654-23.165,5.084c-8.596,1.569-17.129,3.476-25.705,5.147
			c-16.906,3.294-33.887,6.214-50.696,9.988c-8.187,1.838-16.311,4.025-24.565,5.545c-6.607,1.216-14.492,0.851-20.546,3.829
			c-1.539,0.757-0.193,2.99,1.336,2.286c3.802-1.751,9.934-1.734,14.039-2.237c3.526-0.432,7.028-0.943,10.522-1.599
			c8.297-1.558,16.481-3.701,24.745-5.424c17.237-3.595,34.623-6.403,51.904-9.766c8.162-1.588,16.296-3.336,24.511-4.638
			c7.738-1.228,15.174-3.446,22.856-4.968c7.486-1.482,14.982-3.579,22.292-5.77c5.305-1.591,12.983-3.565,17.087-7.541
			C414.908,349.256,413.708,347.604,412.623,348.348z"/>
	</g>
</g>
<g>
	<g>
		<path d="M418.175,340.203c-15.663-2.65-33.269,2.725-48.354,6.482c-17.047,4.246-34.051,8.169-50.867,13.323
			c-1.538,0.471-0.892,2.868,0.666,2.418c16.193-4.693,32.558-8.309,48.949-12.187c7.846-1.857,15.644-3.815,23.596-5.181
			c8.621-1.481,17.432-1.633,26.011-3.244C418.965,341.666,418.981,340.339,418.175,340.203z"/>
	</g>
</g>
<g>
	<g>
		<path d="M441.233,365.129c-3.475,1.961-9.535,1.768-13.495,2.601c-5.202,1.096-10.371,2.408-15.563,3.556
			c-10.252,2.265-20.608,4.87-31.077,5.973c-2.26,0.239-2.297,3.804,0,3.576c11.237-1.116,22.18-3.866,33.21-6.136
			c5.877-1.209,11.671-2.696,17.497-4.122c3.424-0.839,8.17-1.133,10.609-3.915C443.128,365.848,442.234,364.566,441.233,365.129z"
			/>
	</g>
</g>
<g>
	<g>
		<path d="M286.242,363.911c-5.378-0.843-10.191,1.255-15.37,2.417c-6.854,1.537-13.615,2.7-20.348,4.817
			c-13.516,4.249-28.574,6.419-41.318,12.626c-1.644,0.8-0.206,3.214,1.431,2.445c12.333-5.799,26.831-7.412,39.797-11.619
			c5.851-1.898,11.734-3.481,17.792-4.56c6.045-1.078,11.604-3.9,17.775-4.347C286.946,365.62,287.315,364.08,286.242,363.911z"/>
	</g>
</g>
<g>
	<g>
		<path d="M216.155,401.772c-4.434-0.836-8.728,2.027-12.829,3.347c-6.493,2.091-12.705,5.266-19.557,5.585
			c-0.574,0.026-0.56,0.83,0,0.882c2.4,0.221,4.743,0.708,7.141,0.309c2.853-0.477,5.617-1.934,8.417-2.681
			c2.729-0.728,5.528-1.262,8.196-2.211c2.798-0.995,5.342-2.711,8.341-3.088C216.964,403.778,217.484,402.023,216.155,401.772z"/>
	</g>
</g>
<g>
	<g>
		<path d="M228.941,420.659c-6.983,0.073-13.793,2.222-20.488,4.007c-7.508,2.003-15.206,3.198-22.653,5.434
			c-1.598,0.48-0.927,2.959,0.692,2.507c13.994-3.903,28.576-6.443,42.764-9.622C230.568,422.69,230.266,420.645,228.941,420.659z"
			/>
	</g>
</g>
<g>
	<g>
		<path d="M235.547,434.017c-2.765,1.856-6.757,0.975-9.908,1.522c-5.026,0.87-10.122,2.127-15.009,3.578
			c-2.23,0.662-1.272,4.18,0.963,3.491c5.345-1.642,10.969-3.13,16.501-3.953c3.135-0.466,6.487-0.439,8.719-2.998
			C237.547,434.816,236.59,433.315,235.547,434.017z"/>
	</g>
</g>
<g>
	<g>
		<path d="M39.554,136.399c-0.428-2.442-3.882-1.652-4.031,0.559c-0.018-0.002-0.034-0.004-0.051-0.006
			c-0.267,2.223-1.583,4.579-2.23,6.735c-0.824,2.748-1.513,5.528-2.41,8.253c-1.321,4.02-3.256,8.287-0.338,11.873
			c0.536,0.66,1.681,0.56,2.232,0c3.262-3.311,4.206-10.079,5.132-14.536C38.706,145.204,40.28,140.543,39.554,136.399z"/>
	</g>
</g>
<g>
	<g>
		<path d="M43.73,144.801c-2.221,4.358-4.423,8.671-6.578,13.057c-1.468,2.989-4.52,7.226-2.129,10.379
			c0.533,0.7,1.303,0.978,2.129,0.557c3.016-1.535,4.695-6.779,5.933-9.795c1.689-4.117,3.46-8.177,5.188-12.284
			C49.36,144.126,44.999,142.312,43.73,144.801z"/>
	</g>
</g>
<g>
	<g>
		<path d="M52.354,158.145c-1.344-2.136-3.882-2.073-5.463-0.377c-1.11,1.192-0.201,3.157,1.14,3.343
			c-0.121,0.384-0.259,0.764-0.399,1.14c-0.325,0.868-0.681,1.725-1.054,2.571c-0.902,2.048-2.618,5.317-0.546,7.23
			c0.669,0.618,1.832,0.562,2.298-0.296c1.613-2.973,3.136-5.972,4.05-9.251C52.764,161.13,53.171,159.443,52.354,158.145z"/>
	</g>
</g>
<g>
	<g>
		<path d="M94.373,242.343c-0.069-2.821-3.949-2.663-4.272,0c-1.023,8.437-7.515,16.995-4.902,25.594
			c0.716,2.354,3.766,2.134,4.567,0c1.582-4.212,2.142-8.797,3.172-13.175C93.913,250.612,94.478,246.618,94.373,242.343z"/>
	</g>
</g>
<g>
	<g>
		<path d="M103.531,251.718c-0.263-0.126-0.525-0.253-0.789-0.379c-1.781-0.858-3.812,1.157-2.692,2.75
			c-0.805,2.014-2.096,3.76-2.914,5.793c-1.068,2.651-1.98,5.137-3.352,7.652c-1.841,3.374-3.061,6.701-0.928,10.228
			c0.766,1.265,2.505,1.486,3.566,0.46c0.133-0.128,0.266-0.257,0.398-0.385c0.504-0.489,0.479-1.154,0.225-1.745
			c-1.014-2.362,3.097-7.6,3.905-9.906c0.749-2.13,0.901-4.419,1.645-6.548c0.688-1.969,1.542-3.468,1.904-5.54
			C104.65,253.231,104.414,252.143,103.531,251.718z"/>
	</g>
</g>
<g>
	<g>
		<path d="M101.338,273.25c-0.076,2.853-1.14,5.563-1.072,8.397c0.063,2.607,0.38,5.37,1.486,7.748
			c0.561,1.205,2.104,0.626,2.503-0.327c1.047-2.493,1.116-5.554,1.833-8.18c0.66-2.418,0.876-5.146,0.821-7.638
			C106.831,269.664,101.434,269.661,101.338,273.25z"/>
	</g>
</g>
<g>
	<g>
		<path d="M142.115,360.988c-0.862,1.762-2.139,3.134-2.683,5.062c-0.632,2.236-0.676,4.504-1.506,6.708
			c-1.329,3.525-3.767,7.42-1.173,10.935c0.932,1.262,2.799,1.484,3.69,0c1.606-2.681,2.46-6.306,3.438-9.294
			c0.467-1.429,0.695-2.844,0.909-4.326c0.367-2.559,1.208-4.007,2.178-6.248C148.371,360.581,143.731,357.687,142.115,360.988z"/>
	</g>
</g>
<g>
	<g>
		<path d="M153.247,381.426c-0.025-3.572-5.358-3.541-5.525,0c-0.252,5.373-2.506,11.273,0.191,16.262
			c0.574,1.065,2.179,1.016,2.766,0C153.369,393.03,153.287,386.7,153.247,381.426z"/>
	</g>
</g>
<g>
	<g>
		<path d="M292.72,326.432c-5.991,2.443-12.307,2.244-18.629,3.05c-6.893,0.878-13.982,2.227-20.724,3.894
			c-6.847,1.695-13.693,3.399-20.547,5.059c-3.762,0.912-7.975,1.048-10.857,3.914c-1.346,1.34,0.669,3.309,2.068,2.068
			c3.408-3.021,12.355-2.896,16.728-3.57c6.861-1.059,13.574-2.747,20.42-3.888c6.69-1.115,13.338-2.399,20.062-3.273
			c4.769-0.619,9.163-1.658,12.992-4.657C295.431,328.094,294.129,325.858,292.72,326.432z"/>
	</g>
</g>
<g>
	<g>
		<path d="M409.629,305.445c-12.74,1.215-24.89,4.64-37.406,7.123c-6.595,1.308-13.357,1.451-19.924,2.594
			c-6.457,1.122-12.802,3.777-19.088,5.595c-1.577,0.456-0.917,2.873,0.679,2.463c25.054-6.448,52.165-4.927,76.291-15.742
			C411.153,307.041,410.683,305.344,409.629,305.445z"/>
	</g>
</g>
<g>
	<g>
		<path d="M434.434,225.521c-1.931-5.106-3.893-11.708-7.751-15.685c-0.447-0.46-1.308,0.158-0.913,0.704
			c3.93,5.411,4.617,13.375,7.03,19.546c1.085,2.778,3.923,7.588,1.996,10.303c-1.241,1.749-1.864,1.113-3.696,0.214
			c-1.003-0.492-1.916-1.189-2.807-1.852c-10.541-7.862-16.249-20.119-21.049-31.991c-2.238-5.534-5.177-10.869-7.112-16.495
			c-1.106-3.214-2.174-6.477-3.055-9.758c-0.322-1.198-2.744-7.655-2.256-8.423c1.22-1.927,3.925,2.236,4.628,2.929
			c2.518,2.492,5.091,4.245,7.157,7.222c3.437,4.953,5.467,10.856,8.996,15.618c1.015,1.371,3.343,0.062,2.325-1.36
			c-2.683-3.747-4.315-8.549-6.796-12.527c-2.25-3.607-4.275-6.551-7.455-9.41c-3.293-2.96-6.892-9.606-12.04-6.962
			c-0.481,0.247-0.875,0.894-0.827,1.443c0.542,6.275,3.501,13.136,5.826,18.982c2.391,6.015,5.75,11.469,8.306,17.396
			c5.247,12.168,10.008,23.973,19.533,33.465c2.912,2.902,10.802,9.359,13.623,3.04
			C440.402,236.757,436.192,230.175,434.434,225.521z"/>
	</g>
</g>
<g>
	<g>
		<path d="M379.296,101.09c-0.777-0.417-2.082,0.302-1.671,1.285c1.322,3.163,1.808,5.963,1.76,9.401
			c-0.007,0.441,0.095,3.128-0.428,3.349c-0.575,0.244-3.513-3.601-3.834-3.999c-4.951-6.149-8.428-13.42-11.581-20.606
			c-0.877-1.999-3.777-0.269-2.927,1.711c2.586,6.017,5.396,11.987,9.058,17.438c1.891,2.814,5.498,9.095,9.443,9.365
			C385.983,119.501,383.564,103.373,379.296,101.09z"/>
	</g>
</g>
<g>
</g>
<g>
</g>
<g>
</g>
<g>
</g>
<g>
</g>
<g>
</g>
<g>
</g>
<g>
</g>
<g>
</g>
<g>
</g>
<g>
</g>
<g>
</g>
<g>
</g>
<g>
</g>
<g>
</g>
</svg>
