<svg viewBox="0 1 511 511.99997" xmlns="http://www.w3.org/2000/svg"><path d="m512.488281 255.996094c0 141.378906-114.613281 255.992187-255.992187 255.992187-141.382813 0-255.996094-114.613281-255.996094-255.992187 0-141.382813 114.613281-255.996094 255.996094-255.996094 141.378906 0 255.992187 114.613281 255.992187 255.996094zm0 0" fill="#515a6e"/><path d="m512.488281 255.996094c0 141.378906-114.613281 255.992187-255.992187 255.992187-141.382813 0-255.996094-114.613281-255.996094-255.992187 0-141.382813 114.613281-255.996094 255.996094-255.996094 141.378906 0 255.992187 114.613281 255.992187 255.996094zm0 0" fill="#ffd650"/><path d="m498.164062 81.605469v253.925781c-4.191406 12.832031-9.363281 25.210938-15.433593 37.0625-22.140625 43.203125-56.203125 79.285156-97.851563 103.910156-37.65625 22.277344-81.519531 35.183594-128.382812 35.484375-.574219.011719-1.160156.011719-1.734375.011719s-1.160157 0-1.734375-.011719c-46.863282-.300781-90.726563-13.207031-128.386719-35.484375-41.648437-24.625-75.710937-60.707031-97.851563-103.910156-6.070312-11.851562-11.242187-24.230469-15.433593-37.0625v-253.925781zm0 0" fill="#49aab7"/><path d="m254.761719 107.988281v404.011719c-.574219 0-1.160157 0-1.734375-.011719-5.613282-20.457031-24.347656-35.484375-46.582032-35.484375h-81.804687c-41.648437-24.625-75.710937-60.707031-97.851563-103.910156v-312.921875h179.65625c16.949219 0 31.859376 8.726563 40.476563 21.933594 4.953125 7.585937 7.839844 16.644531 7.839844 26.382812zm0 0" fill="#e6e6e6"/><path d="m482.730469 59.671875v312.921875c-22.140625 43.203125-56.203125 79.285156-97.851563 103.910156h-81.804687c-4.847657 0-9.527344.710938-13.949219 2.050782-15.839844 4.761718-28.242188 17.4375-32.628906 33.433593-.574219.011719-1.160156.011719-1.734375.011719v-404.011719c0-9.738281 2.871093-18.808593 7.835937-26.382812 6.152344-9.425781 15.515625-16.574219 26.527344-19.882813 4.421875-1.339844 9.101562-2.050781 13.949219-2.050781zm0 0" fill="#e6e6e6"/><path d="m289.125 61.722656v416.832032c-15.839844 4.761718-28.242188 17.4375-32.628906 33.433593-.574219.011719-1.160156.011719-1.734375.011719v-404.011719c0-9.738281 2.871093-18.808593 7.835937-26.382812 6.152344-9.425781 15.515625-16.574219 26.527344-19.882813zm0 0" fill="#ccc"/><g fill="#515a6e"><path d="m298.121094 122.542969h151.507812v20.898437h-151.507812zm0 0"/><path d="m298.121094 207.925781h151.507812v20.894531h-151.507812zm0 0"/><path d="m298.121094 335.996094h151.507812v20.898437h-151.507812zm0 0"/><path d="m298.121094 165.234375h151.507812v20.898437h-151.507812zm0 0"/><path d="m298.121094 250.613281h151.507812v20.898438h-151.507812zm0 0"/><path d="m298.121094 293.304688h151.507812v20.898437h-151.507812zm0 0"/><path d="m298.121094 378.6875h151.507812v20.898438h-151.507812zm0 0"/><path d="m59.890625 122.542969h151.507813v20.898437h-151.507813zm0 0"/><path d="m59.890625 207.925781h151.507813v20.894531h-151.507813zm0 0"/><path d="m59.890625 335.996094h151.507813v20.898437h-151.507813zm0 0"/><path d="m59.890625 165.234375h151.507813v20.898437h-151.507813zm0 0"/><path d="m59.890625 250.613281h151.507813v20.898438h-151.507813zm0 0"/><path d="m59.890625 293.304688h151.507813v20.898437h-151.507813zm0 0"/><path d="m59.890625 378.6875h151.507813v20.898438h-151.507813zm0 0"/></g><path d="m380.875 203.761719-27.109375-15.671875-27.113281 15.671875v-144.089844h54.222656zm0 0" fill="#ff4656"/></svg>