<svg id="Capa_1" enable-background="new 0 0 512 512" height="512" viewBox="0 0 512 512" width="512" xmlns="http://www.w3.org/2000/svg"><path d="m379.221 329.627c10.185 0 18.472-8.286 18.472-18.471v-11.527h-36.944v11.527c0 10.185 8.287 18.471 18.472 18.471z"/><path d="m89.147 269.629h333.705c9.31 0 17.786-5.117 22.122-13.354l60.403-114.789c-7.919-12.907-22.16-21.537-38.382-21.537h-44.067l-20.632-61.849c-11.593-34.751-43.996-58.1-80.631-58.1h-131.331c-36.635 0-69.038 23.349-80.63 58.1l-20.633 61.849h-44.067c-16.375 0-30.73 8.794-38.603 21.904l60.605 114.386c4.355 8.273 12.832 13.39 22.141 13.39zm49.015-202.036c2.53-7.585 6.597-14.325 11.78-19.934l14.354 15.396c16.012 17.122 38.641 26.942 62.084 26.942h59.241c23.443 0 46.071-9.82 62.049-26.906l14.457-15.356c5.15 5.594 9.193 12.308 11.712 19.858l17.466 52.355h-270.609z"/><path d="m132.779 329.627c10.186 0 18.472-8.286 18.472-18.471v-11.527h-36.944v11.527c0 10.185 8.286 18.471 18.472 18.471z"/><path d="m471.523 270.246c-8.782 16.685-25.285 27.544-43.829 29.164v11.746c0 26.727-21.745 48.471-48.472 48.471-26.728 0-48.472-21.744-48.472-48.471v-11.527h-149.499v11.527c0 26.727-21.745 48.471-48.472 48.471s-48.472-21.744-48.472-48.471v-11.746c-18.544-1.621-35.047-12.479-43.829-29.163l-40.473-76.389v242.628c0 24.813 20.187 44.999 44.999 44.999h16.501v15.515c0 8.284 6.716 15 15 15s15-6.716 15-15v-15.515h328.989v15.515c0 8.284 6.716 15 15 15s15-6.716 15-15v-15.515h16.501c24.813 0 45-20.186 45-44.999v-243.154z"/></svg>