<svg id="Capa_1" enable-background="new 0 0 512 512" height="512" viewBox="0 0 512 512" width="512" xmlns="http://www.w3.org/2000/svg"><g><path d="m501.638 466.921c5.723 0 10.362-4.639 10.362-10.362v-99.87-.001c0 29.236-80.998 110.234-110.234 110.234h99.872z" fill="#dae4ea"/><path d="m512 128.187-294.411-16.667-217.589 16.667v328.372c0 5.723 4.639 10.362 10.362 10.362h391.404c29.236 0 57.274-11.614 77.947-32.287 20.673-20.673 32.287-48.711 32.287-77.947z" fill="#f6f9f9"/><path d="m470.793 120.899v192.077c0 73.642-59.699 133.341-133.341 133.341h-337.452v10.242c0 5.723 4.639 10.362 10.362 10.362h391.404c29.236 0 50.705-18.183 71.378-38.855 20.673-20.674 38.856-42.143 38.856-71.379v-228.5z" fill="#e7ecf1"/><path d="m48.934 282.861c0-1.138.922-2.06 2.06-2.06h41.592c1.138 0 2.06.922 2.06 2.06v29.434c0 1.138-.922 2.06-2.06 2.06h-41.592c-1.138 0-2.06-.923-2.06-2.06zm2.06-17.513h41.592c1.138 0 2.06-.922 2.06-2.06v-29.434c0-1.138-.922-2.06-2.06-2.06h-41.592c-1.138 0-2.06.923-2.06 2.06v29.434c0 1.138.922 2.06 2.06 2.06zm-2.06 144.912c0 1.138.922 2.06 2.06 2.06h41.592c1.138 0 2.06-.922 2.06-2.06v-29.385c0-1.138-.922-2.06-2.06-2.06h-41.592c-1.138 0-2.06.922-2.06 2.06zm0-48.958c0 1.138.922 2.06 2.06 2.06h41.592c1.138 0 2.06-.922 2.06-2.06v-29.434c0-1.138-.922-2.06-2.06-2.06h-41.592c-1.138 0-2.06.922-2.06 2.06z" fill="#da4a54"/><path d="m463.067 312.295c0 1.138-.922 2.06-2.06 2.06h-41.797c-1.138 0-2.06-.923-2.06-2.06v-29.434c0-1.138.922-2.06 2.06-2.06h41.796c1.138 0 2.06.922 2.06 2.06v29.434zm-2.061 17.513h-41.796c-1.138 0-2.06.922-2.06 2.06v29.434c0 1.138.922 2.06 2.06 2.06h41.796c1.138 0 2.06-.922 2.06-2.06v-29.434c.001-1.137-.922-2.06-2.06-2.06zm2.061-95.954c0-1.138-.922-2.06-2.06-2.06h-41.797c-1.138 0-2.06.923-2.06 2.06v29.434c0 1.138.922 2.06 2.06 2.06h41.796c1.138 0 2.06-.922 2.06-2.06v-29.434zm0-49.007c0-1.138-.922-2.06-2.06-2.06h-41.797c-1.138 0-2.06.922-2.06 2.06v29.434c0 1.138.922 2.06 2.06 2.06h41.796c1.138 0 2.06-.922 2.06-2.06v-29.434z" fill="#da4a54"/><path d="m463.067 361.302v-3.49c-.667 1.87-1.375 3.72-2.122 5.551h.062c1.137 0 2.06-.923 2.06-2.061z" fill="#d82e3d"/><path d="m501.636 67.644h-491.272c-5.724 0-10.364 4.64-10.364 10.364v50.179h512v-50.179c0-5.724-4.64-10.364-10.364-10.364z" fill="#61a2f9"/><path d="m501.636 67.644h-23.36l-4.841 18.173c0 4.717 1.677 8.695-2.643 9.93v32.44h41.208v-50.179c0-5.724-4.64-10.364-10.364-10.364z" fill="#5490f9"/><g fill="#dae4ea"><path d="m340.327 331.869v29.434c0 1.138-.922 2.06-2.06 2.06h-41.796c-1.138 0-2.06-.922-2.06-2.06v-29.434c0-1.138.922-2.06 2.06-2.06h41.796c1.138-.001 2.06.922 2.06 2.06zm0-98.015c0-1.138-.922-2.06-2.06-2.06h-41.796c-1.138 0-2.06.923-2.06 2.06v29.434c0 1.138.922 2.06 2.06 2.06h41.796c1.138 0 2.06-.922 2.06-2.06zm-230.228 29.434c0 1.138.922 2.06 2.06 2.06h42c1.138 0 2.06-.922 2.06-2.06v-29.434c0-1.138-.922-2.06-2.06-2.06h-42c-1.138 0-2.06.923-2.06 2.06zm2.061-46.947h42c1.138 0 2.06-.922 2.06-2.06v-29.434c0-1.138-.922-2.06-2.06-2.06h-42c-1.138 0-2.06.922-2.06 2.06v29.434c-.001 1.138.922 2.06 2.06 2.06zm228.167-31.494c0-1.138-.922-2.06-2.06-2.06h-41.796c-1.138 0-2.06.922-2.06 2.06v29.434c0 1.138.922 2.06 2.06 2.06h41.796c1.138 0 2.06-.922 2.06-2.06zm-230.228 127.448c0 1.138.922 2.06 2.06 2.06h42c1.138 0 2.06-.923 2.06-2.06v-29.434c0-1.138-.922-2.06-2.06-2.06h-42c-1.138 0-2.06.922-2.06 2.06zm291.598-29.434c0-1.138-.922-2.06-2.06-2.06h-41.796c-1.138 0-2.06.922-2.06 2.06v29.434c0 1.138.922 2.06 2.06 2.06h41.796c1.138 0 2.06-.923 2.06-2.06zm-2.06 46.947h-41.796c-1.138 0-2.06.922-2.06 2.06v29.434c0 1.138.922 2.06 2.06 2.06h41.796c1.138 0 2.06-.922 2.06-2.06v-29.434c0-1.137-.922-2.06-2.06-2.06zm-59.31-46.947c0-1.138-.922-2.06-2.06-2.06h-41.796c-1.138 0-2.06.922-2.06 2.06v29.434c0 1.138.922 2.06 2.06 2.06h41.796c1.138 0 2.06-.923 2.06-2.06zm61.37-98.014c0-1.138-.922-2.06-2.06-2.06h-41.796c-1.138 0-2.06.922-2.06 2.06v29.434c0 1.138.922 2.06 2.06 2.06h41.796c1.138 0 2.06-.922 2.06-2.06zm0 49.007c0-1.138-.922-2.06-2.06-2.06h-41.796c-1.138 0-2.06.923-2.06 2.06v29.434c0 1.138.922 2.06 2.06 2.06h41.796c1.138 0 2.06-.922 2.06-2.06zm-230.024 78.441c0 1.138.922 2.06 2.06 2.06h41.796c1.138 0 2.06-.923 2.06-2.06v-29.434c0-1.138-.922-2.06-2.06-2.06h-41.796c-1.138 0-2.06.922-2.06 2.06zm61.369 49.007c0 1.138.922 2.06 2.06 2.06h41.796c1.138 0 2.06-.922 2.06-2.06v-29.434c0-1.138-.922-2.06-2.06-2.06h-41.796c-1.138 0-2.06.922-2.06 2.06zm2.06-95.954h41.796c1.138 0 2.06-.922 2.06-2.06v-29.434c0-1.138-.922-2.06-2.06-2.06h-41.796c-1.138 0-2.06.923-2.06 2.06v29.434c0 1.138.922 2.06 2.06 2.06zm-2.06 144.912c0 1.138.922 2.06 2.06 2.06h41.796c1.138 0 2.06-.922 2.06-2.06v-29.385c0-1.138-.922-2.06-2.06-2.06h-41.796c-1.138 0-2.06.922-2.06 2.06zm-122.943-48.958c0 1.138.922 2.06 2.06 2.06h42c1.138 0 2.06-.922 2.06-2.06v-29.434c0-1.138-.922-2.06-2.06-2.06h-42c-1.138 0-2.06.922-2.06 2.06zm166.799-178.516h-41.796c-1.138 0-2.06.922-2.06 2.06v29.434c0 1.138.922 2.06 2.06 2.06h41.796c1.138 0 2.06-.922 2.06-2.06v-29.434c0-1.137-.922-2.06-2.06-2.06zm-43.856 129.509c0 1.138.922 2.06 2.06 2.06h41.796c1.138 0 2.06-.923 2.06-2.06v-29.434c0-1.138-.922-2.06-2.06-2.06h-41.796c-1.138 0-2.06.922-2.06 2.06zm-61.369-49.007c0 1.138.922 2.06 2.06 2.06h41.796c1.138 0 2.06-.922 2.06-2.06v-29.434c0-1.138-.922-2.06-2.06-2.06h-41.796c-1.138 0-2.06.923-2.06 2.06zm-61.574 146.972c0 1.138.922 2.06 2.06 2.06h42c1.138 0 2.06-.922 2.06-2.06v-29.385c0-1.138-.922-2.06-2.06-2.06h-42c-1.138 0-2.06.922-2.06 2.06zm63.634-193.919h41.796c1.138 0 2.06-.922 2.06-2.06v-29.434c0-1.138-.922-2.06-2.06-2.06h-41.796c-1.138 0-2.06.922-2.06 2.06v29.434c0 1.138.922 2.06 2.06 2.06zm-2.06 193.919c0 1.138.922 2.06 2.06 2.06h41.796c1.138 0 2.06-.922 2.06-2.06v-29.385c0-1.138-.922-2.06-2.06-2.06h-41.796c-1.138 0-2.06.922-2.06 2.06zm0-48.958c0 1.138.922 2.06 2.06 2.06h41.796c1.138 0 2.06-.922 2.06-2.06v-29.434c0-1.138-.922-2.06-2.06-2.06h-41.796c-1.138 0-2.06.922-2.06 2.06z"/><path d="m57.083 100.51h-13.034c-5.703 0-10.326-4.623-10.326-10.326v-34.779c0-5.703 4.623-10.326 10.326-10.326h13.034c5.703 0 10.326 4.623 10.326 10.326v34.779c0 5.703-4.623 10.326-10.326 10.326z"/><path d="m124.702 100.51h-12.003c-5.703 0-10.326-4.623-10.326-10.326v-34.779c0-5.703 4.623-10.326 10.326-10.326h12.003c5.703 0 10.326 4.623 10.326 10.326v34.779c0 5.703-4.623 10.326-10.326 10.326z"/><path d="m193.352 100.51h-12.003c-5.703 0-10.326-4.623-10.326-10.326v-34.779c0-5.703 4.623-10.326 10.326-10.326h12.003c5.703 0 10.326 4.623 10.326 10.326v34.779c0 5.703-4.623 10.326-10.326 10.326z"/><path d="m262.002 100.51h-12.003c-5.703 0-10.326-4.623-10.326-10.326v-34.779c0-5.703 4.623-10.326 10.326-10.326h12.003c5.703 0 10.326 4.623 10.326 10.326v34.779c0 5.703-4.623 10.326-10.326 10.326z"/><path d="m330.651 100.51h-12.003c-5.703 0-10.326-4.623-10.326-10.326v-34.779c0-5.703 4.623-10.326 10.326-10.326h12.003c5.703 0 10.326 4.623 10.326 10.326v34.779c0 5.703-4.623 10.326-10.326 10.326z"/><path d="m399.301 100.51h-12.003c-5.703 0-10.326-4.623-10.326-10.326v-34.779c0-5.703 4.623-10.326 10.326-10.326h12.003c5.703 0 10.326 4.623 10.326 10.326v34.779c0 5.703-4.623 10.326-10.326 10.326z"/><path d="m467.951 100.51h-12.003c-5.703 0-10.326-4.623-10.326-10.326v-34.779c0-5.703 4.623-10.326 10.326-10.326h12.003c5.703 0 10.326 4.623 10.326 10.326v34.779c0 5.703-4.623 10.326-10.326 10.326z"/></g><path d="m388.008 466.921h5.208c29.94 0 54.211-24.271 54.211-54.211 0-5.723 4.639-10.362 10.362-10.362 29.94 0 54.211-24.271 54.211-54.211v-5.208 13.759c0 29.236-11.614 57.274-32.287 77.947-20.673 20.673-48.711 32.287-77.947 32.287h-13.758z" fill="#f6f9f9"/></g></svg>