<svg id="bankcard" enable-background="new 0 0 300 300" height="512" viewBox="0 0 300 300" width="512" xmlns="http://www.w3.org/2000/svg"><g><circle cx="202" cy="194.04" fill="#ccc" r="76"/><g><path d="m65.824 143.392.636.071c22.991 2.555 35.226-12.688 55.364-24.071l65.817-21.939c3.692-1.231 6.183-4.686 6.183-8.578 0-5.163-4.315-9.277-9.472-9.032l-74.528 3.549z" fill="#b5a19c"/><path d="m71.477 147.748c-1.758 0-3.574-.102-5.457-.309l-.633-.07c-1.422-.156-2.648-1.059-3.223-2.367-.578-1.309-.41-2.824.434-3.977l44-60c.715-.973 1.832-1.57 3.035-1.629l74.527-3.551c3.555-.117 7.016 1.109 9.625 3.594 2.605 2.484 4.039 5.836 4.039 9.438 0 5.621-3.586 10.594-8.918 12.371l-65.445 21.816c-5.145 2.93-9.797 6.141-14.297 9.246-11.473 7.914-22.375 15.438-37.687 15.438zm40.445-60.45-38.426 52.398c11.762-.613 20.492-6.637 31.125-13.973 4.742-3.273 9.648-6.656 15.234-9.812.223-.129.461-.234.703-.312l65.816-21.938c2.062-.688 3.449-2.613 3.449-4.785 0-1.391-.555-2.688-1.562-3.648-1.008-.965-2.324-1.48-3.723-1.391z" fill="#4c241d"/></g><g><path d="m182 114.041h25.363c5.875 0 10.637 4.762 10.637 10.637v94.725c0 5.875-4.762 10.637-10.637 10.637h-170.726c-5.875 0-10.637-4.762-10.637-10.637v-94.725c0-5.875 4.762-10.637 10.637-10.637h121.363" fill="#9dc1e4"/><path d="m207.363 234.04h-170.726c-8.07 0-14.637-6.566-14.637-14.637v-94.727c0-8.07 6.566-14.637 14.637-14.637h121.363c2.211 0 4 1.789 4 4s-1.789 4-4 4h-121.363c-3.66 0-6.637 2.977-6.637 6.637v94.727c0 3.66 2.977 6.637 6.637 6.637h170.727c3.66 0 6.637-2.977 6.637-6.637v-94.727c0-3.66-2.977-6.637-6.637-6.637h-25.364c-2.211 0-4-1.789-4-4s1.789-4 4-4h25.363c8.07 0 14.637 6.566 14.637 14.637v94.727c0 8.071-6.566 14.637-14.637 14.637z" fill="#4c241d"/></g><g><circle cx="170" cy="194.04" fill="#f53e28" r="12"/><path d="m170 210.04c-8.824 0-16-7.176-16-16s7.176-16 16-16 16 7.176 16 16-7.176 16-16 16zm0-24c-4.41 0-8 3.59-8 8s3.59 8 8 8 8-3.59 8-8-3.59-8-8-8z" fill="#4c241d"/></g><g><path d="m26 142.04h192v24h-192z" fill="#fff"/><path d="m218 170.04h-192c-2.211 0-4-1.789-4-4v-24c0-2.211 1.789-4 4-4h192c2.211 0 4 1.789 4 4v24c0 2.211-1.789 4-4 4zm-188-8h184v-16h-184z" fill="#4c241d"/></g><path d="m70 194.04h-28c-2.211 0-4-1.789-4-4s1.789-4 4-4h28c2.211 0 4 1.789 4 4s-1.789 4-4 4z" fill="#4c241d"/><path d="m86 206.04h-44c-2.211 0-4-1.789-4-4s1.789-4 4-4h44c2.211 0 4 1.789 4 4s-1.789 4-4 4z" fill="#4c241d"/><path d="m114 206.04h-16c-2.211 0-4-1.789-4-4s1.789-4 4-4h16c2.211 0 4 1.789 4 4s-1.789 4-4 4z" fill="#4c241d"/><g><path d="m233.824 33.957s-18.181 17.654-22.645 19.75c-5.938 2.788-12.441 4.25-19.055 4.25h-66.612c-11.37 0-22.182 4.923-29.647 13.499l-47.007 54.002c-4.256 4.889-3.734 12.399 1.4 16.634 4.819 3.975 12.039 3.06 16.295-1.511l43.775-47.019c7.103-7.63 17.058-11.963 27.482-11.963h21.744c5.737 0 10.388 4.651 10.388 10.388 0 5.737-4.651 10.388-10.388 10.388h-23.303c-3.61 0-7.237.618-10.55 2.053-17.333 7.51-10.86 25.648 1.639 25.648h77.235c13.299 0 26.052-5.282 35.456-14.686l14.965-22.965 18.826-10.826" fill="#e7d1c4"/><path d="m57.414 148.623c-3.461 0-6.895-1.129-9.703-3.445-3.301-2.723-5.309-6.559-5.656-10.797-.352-4.242.996-8.344 3.789-11.551l47.004-54c8.227-9.453 20.133-14.871 32.664-14.871h66.613c5.957 0 11.957-1.34 17.355-3.871 2.383-1.121 13.047-10.734 21.559-19 1.586-1.535 4.117-1.5 5.656.086 1.539 1.582 1.5 4.117-.086 5.656-4.375 4.25-19.023 18.289-23.73 20.5-6.457 3.027-13.633 4.629-20.754 4.629h-66.613c-10.219 0-19.926 4.418-26.633 12.121l-47.004 54.004c-1.363 1.566-2.02 3.57-1.848 5.641.168 2.07 1.156 3.945 2.777 5.281 3.043 2.512 7.898 1.992 10.82-1.152l43.777-47.02c7.828-8.41 18.914-13.234 30.41-13.234h21.742c7.934 0 14.387 6.453 14.387 14.387s-6.453 14.391-14.387 14.391h-23.301c-3.309 0-6.32.578-8.961 1.723-5.949 2.578-8.938 6.844-7.992 11.41.656 3.164 3.453 6.566 8.039 6.566h77.238c12.191 0 23.656-4.695 32.336-13.227l14.73-22.609c.344-.531.809-.969 1.359-1.285l18.828-10.824c1.91-1.098 4.355-.441 5.461 1.477 1.102 1.914.441 4.359-1.477 5.461l-17.992 10.344-14.441 22.16c-.152.23-.328.449-.523.645-10.223 10.227-23.816 15.859-38.281 15.859h-77.236c-7.766 0-14.289-5.32-15.871-12.941-1.371-6.609 1.23-15.43 12.645-20.379 3.648-1.578 7.734-2.379 12.141-2.379h23.301c3.523 0 6.387-2.867 6.387-6.391s-2.863-6.387-6.387-6.387h-21.742c-9.285 0-18.234 3.895-24.555 10.688l-43.777 47.02c-3.267 3.509-7.693 5.314-12.068 5.314z" fill="#4c241d"/></g><g fill="#4c241d"><path d="m250 234.04h-48c-2.211 0-4-1.789-4-4s1.789-4 4-4h48c2.211 0 4 1.789 4 4s-1.789 4-4 4z"/><path d="m246 218.04h-16c-2.211 0-4-1.789-4-4s1.789-4 4-4h16c2.211 0 4 1.789 4 4s-1.789 4-4 4z"/><path d="m270 202.04h-36c-2.211 0-4-1.789-4-4s1.789-4 4-4h36c2.211 0 4 1.789 4 4s-1.789 4-4 4z"/><path d="m274 218.04h-16c-2.211 0-4-1.789-4-4s1.789-4 4-4h16c2.211 0 4 1.789 4 4s-1.789 4-4 4z"/></g></g></svg>