<svg id="Capa_1" enable-background="new 0 0 512 512" height="512" viewBox="0 0 512 512" width="512" xmlns="http://www.w3.org/2000/svg"><g><path d="m388.469 475.105c-38.646 23.416-83.983 36.895-132.469 36.895s-93.823-13.479-132.469-36.895c-1.446-.876-.821-3.105.87-3.105h263.199c1.69 0 2.315 2.229.869 3.105zm123.531-219.105c0-141.385-114.615-256-256-256-85.693 0-161.552 42.104-208.018 106.754h402.018v316.285c38.639-44.834 62-103.208 62-167.039z" fill="#55a4f9"/><path d="m439.426 110v324.581c-15.336 15.749-32.682 29.53-51.625 40.929h-263.601c-74.418-44.78-124.2-126.331-124.2-219.51 0-54.266 16.885-104.588 45.687-146z" fill="#1380e2"/><path d="m476 121v310c0 5.523-4.477 10-10 10h-406c-5.523 0-10-4.477-10-10v-310c0-5.523 4.477-10 10-10h406c5.523 0 10 4.477 10 10z" fill="#fff5f5"/><path d="m70 441h-24c-5.523 0-10-4.477-10-10v-310c0-5.523 4.477-10 10-10h24c-5.523 0-10 4.477-10 10v310c0 5.523 4.477 10 10 10z" fill="#e9f3fe"/><path d="m476 121h-286l-10.064-7.362h-89.872l-10.064 7.362h-20.117c-5.458 0-9.883-4.425-9.883-9.883v-23.277c0-9.3 7.54-16.84 16.84-16.84h399.16c5.523 0 10 4.477 10 10z" fill="#203e76"/><path d="m60 81v40h-24v-40c0-5.523 4.477-10 10-10h24c-5.523 0-10 4.477-10 10z" fill="#19305c"/><path d="m450 96c0 5.523-4.477 10-10 10s-10-4.477-10-10 4.477-10 10-10 10 4.477 10 10zm-50-10c-5.523 0-10 4.477-10 10s4.477 10 10 10 10-4.477 10-10-4.477-10-10-10zm-40 0c-5.523 0-10 4.477-10 10s4.477 10 10 10 10-4.477 10-10-4.477-10-10-10z" fill="#4172cc"/><path d="m350 175.66v119.34c0 2.761-2.239 5-5 5h-115.209c-2.761 0-5-2.239-5-5v-119.34c0-2.761 2.239-5 5-5h115.209c2.761 0 5 2.238 5 5z" fill="#ffd993"/><path d="m234.426 300h-20c-2.761 0-5-2.239-5-5v-119.34c0-2.761 2.239-5 5-5h20c-2.761 0-5 2.239-5 5v119.34c0 2.761 2.238 5 5 5z" fill="#ffcd71"/><path d="m190 121h-110v-20c0-5.523 4.477-10 10-10h90c5.523 0 10 4.477 10 10zm155 29h-115.209c-2.761 0-5 2.239-5 5v17.546c0 2.661 2.157 4.818 4.818 4.818h120.391v-22.364c0-2.761-2.239-5-5-5z" fill="#fb5858"/><path d="m229.681 155v22.364h-20.255v-22.364c0-2.761 2.239-5 5-5h20.255c-2.762 0-5 2.239-5 5z" fill="#f44545"/><path d="m375 219.665h70c2.761 0 5 2.239 5 5v40c0 2.761-2.239 5-5 5h-70c-2.761 0-5-2.239-5-5v-40c0-2.761 2.239-5 5-5z" fill="#fb5858"/><path d="m399.553 269.665h-24.553c-2.761 0-5-2.239-5-5v-40c0-2.761 2.239-5 5-5h24.553c-2.761 0-5 2.239-5 5v40c0 2.762 2.239 5 5 5z" fill="#f44545"/><path d="m375 288.326h70c2.761 0 5 2.239 5 5v42.009c0 2.761-2.239 5-5 5h-70c-2.761 0-5-2.239-5-5v-42.009c0-2.762 2.239-5 5-5z" fill="#97d57e"/><path d="m375 357.991h70c2.761 0 5 2.239 5 5v42.009c0 2.761-2.239 5-5 5h-70c-2.761 0-5-2.239-5-5v-42.009c0-2.761 2.239-5 5-5z" fill="#ffc14f"/><path d="m345 410h-115.209c-2.761 0-5-2.239-5-5v-80c0-2.761 2.239-5 5-5h115.209c2.761 0 5 2.239 5 5v80c0 2.761-2.239 5-5 5zm105-215v-40c0-2.761-2.239-5-5-5h-49.553c-2.761 0-5 2.239-5 5v31.904c0 7.233 5.863 13.096 13.096 13.096h11.011l3.234-1.936h13.532l3.234 1.936h10.446c2.761 0 5-2.239 5-5z" fill="#c8e2fd"/><path d="m234.426 410h-20c-2.761 0-5-2.239-5-5v-80c0-2.761 2.239-5 5-5h20c-2.761 0-5 2.239-5 5v80c0 2.761 2.238 5 5 5zm160.127-219.277v-35.723c0-2.761 2.239-5 5-5h-24.553c-2.761 0-5 2.239-5 5v40c0 2.761 2.239 5 5 5h10.447l1.872-2.128h12.234c-2.761 0-5-4.387-5-7.149z" fill="#a7d0fc"/><path d="m190 155v250c0 2.761-2.239 5-5 5h-110c-2.761 0-5-2.239-5-5v-250c0-2.761 2.239-5 5-5h110c2.761 0 5 2.239 5 5z" fill="#a7d0fc"/><path d="m116.426 175c0-4.142 3.358-7.5 7.5-7.5h45c4.142 0 7.5 3.358 7.5 7.5s-3.358 7.5-7.5 7.5h-45c-4.143 0-7.5-3.358-7.5-7.5zm52.5 22.5h-45c-4.142 0-7.5 3.358-7.5 7.5s3.358 7.5 7.5 7.5h45c4.142 0 7.5-3.358 7.5-7.5s-3.358-7.5-7.5-7.5zm0 30h-45c-4.142 0-7.5 3.358-7.5 7.5s3.358 7.5 7.5 7.5h45c4.142 0 7.5-3.358 7.5-7.5s-3.358-7.5-7.5-7.5zm0 30h-45c-4.142 0-7.5 3.358-7.5 7.5s3.358 7.5 7.5 7.5h45c4.142 0 7.5-3.358 7.5-7.5s-3.358-7.5-7.5-7.5zm0 30h-45c-4.142 0-7.5 3.358-7.5 7.5s3.358 7.5 7.5 7.5h45c4.142 0 7.5-3.358 7.5-7.5s-3.358-7.5-7.5-7.5zm0 30h-45c-4.142 0-7.5 3.358-7.5 7.5s3.358 7.5 7.5 7.5h45c4.142 0 7.5-3.358 7.5-7.5s-3.358-7.5-7.5-7.5zm0 30h-45c-4.142 0-7.5 3.358-7.5 7.5s3.358 7.5 7.5 7.5h45c4.142 0 7.5-3.358 7.5-7.5s-3.358-7.5-7.5-7.5zm0 30h-45c-4.142 0-7.5 3.358-7.5 7.5s3.358 7.5 7.5 7.5h45c4.142 0 7.5-3.358 7.5-7.5s-3.358-7.5-7.5-7.5z" fill="#76b6fa"/><path d="m83.574 175c0-4.142 3.358-7.5 7.5-7.5h2.042c4.142 0 7.5 3.358 7.5 7.5s-3.358 7.5-7.5 7.5h-2.042c-4.142 0-7.5-3.358-7.5-7.5zm9.543 22.5h-2.042c-4.142 0-7.5 3.358-7.5 7.5s3.358 7.5 7.5 7.5h2.042c4.142 0 7.5-3.358 7.5-7.5s-3.358-7.5-7.5-7.5zm0 30h-2.042c-4.142 0-7.5 3.358-7.5 7.5s3.358 7.5 7.5 7.5h2.042c4.142 0 7.5-3.358 7.5-7.5s-3.358-7.5-7.5-7.5zm0 30h-2.042c-4.142 0-7.5 3.358-7.5 7.5s3.358 7.5 7.5 7.5h2.042c4.142 0 7.5-3.358 7.5-7.5s-3.358-7.5-7.5-7.5zm0 30h-2.042c-4.142 0-7.5 3.358-7.5 7.5s3.358 7.5 7.5 7.5h2.042c4.142 0 7.5-3.358 7.5-7.5s-3.358-7.5-7.5-7.5zm0 30h-2.042c-4.142 0-7.5 3.358-7.5 7.5s3.358 7.5 7.5 7.5h2.042c4.142 0 7.5-3.358 7.5-7.5s-3.358-7.5-7.5-7.5zm0 30h-2.042c-4.142 0-7.5 3.358-7.5 7.5s3.358 7.5 7.5 7.5h2.042c4.142 0 7.5-3.358 7.5-7.5s-3.358-7.5-7.5-7.5zm0 30h-2.042c-4.142 0-7.5 3.358-7.5 7.5s3.358 7.5 7.5 7.5h2.042c4.142 0 7.5-3.358 7.5-7.5s-3.358-7.5-7.5-7.5z" fill="#4172cc"/><path d="m275.151 272.884c0 5.614-4.551 10.165-10.165 10.165s-10.165-4.551-10.165-10.165 4.551-10.165 10.165-10.165c5.613 0 10.165 4.551 10.165 10.165zm-40.195-44.049c-5.614 0-10.165 4.551-10.165 10.165s4.551 10.165 10.165 10.165 10.165-4.551 10.165-10.165-4.551-10.165-10.165-10.165zm0-33.884c-5.614 0-10.165 4.551-10.165 10.165s4.551 10.165 10.165 10.165 10.165-4.551 10.165-10.165-4.551-10.165-10.165-10.165zm90.088 20.33c5.614 0 10.165-4.551 10.165-10.165s-4.551-10.165-10.165-10.165-10.165 4.551-10.165 10.165 4.551 10.165 10.165 10.165zm0 13.554c-5.614 0-10.165 4.551-10.165 10.165s4.551 10.165 10.165 10.165 10.165-4.551 10.165-10.165-4.551-10.165-10.165-10.165zm-60.059 0c-5.614 0-10.165 4.551-10.165 10.165s4.551 10.165 10.165 10.165 10.165-4.551 10.165-10.165c.001-5.614-4.551-10.165-10.165-10.165zm30.03-33.884c-5.614 0-10.165 4.551-10.165 10.165s4.551 10.165 10.165 10.165 10.165-4.551 10.165-10.165-4.551-10.165-10.165-10.165zm30.029 67.768c-5.614 0-10.165 4.551-10.165 10.165s4.551 10.165 10.165 10.165 10.165-4.551 10.165-10.165-4.551-10.165-10.165-10.165zm-30.029 0c-5.614 0-10.165 4.551-10.165 10.165s4.551 10.165 10.165 10.165 10.165-4.551 10.165-10.165-4.551-10.165-10.165-10.165z" fill="#ffc14f"/><path d="m234.956 262.719c-5.614 0-10.165 4.551-10.165 10.165s4.551 10.165 10.165 10.165 10.165-4.551 10.165-10.165-4.551-10.165-10.165-10.165zm30.029-67.768c-5.614 0-10.165 4.551-10.165 10.165s4.551 10.165 10.165 10.165 10.165-4.551 10.165-10.165c.001-5.614-4.551-10.165-10.165-10.165zm30.029 33.884c5.614 0 10.165 4.551 10.165 10.165s-4.551 10.165-10.165 10.165-10.165-4.551-10.165-10.165 4.551-10.165 10.165-10.165z" fill="#fb5858"/><path d="m436 243.19c0 4.142-3.358 7.5-7.5 7.5h-37c-4.142 0-7.5-3.358-7.5-7.5 0-4.142 3.358-7.5 7.5-7.5h37c4.142 0 7.5 3.358 7.5 7.5z" fill="#d63030"/><path d="m399.553 340.335h-24.553c-2.761 0-5-2.239-5-5v-42.009c0-2.761 2.239-5 5-5h24.553c-2.761 0-5 2.239-5 5v42.009c0 2.761 2.239 5 5 5z" fill="#82cd64"/><path d="m428.958 314.33c0 4.142-3.358 7.5-7.5 7.5h-22.915c-4.142 0-7.5-3.358-7.5-7.5s3.358-7.5 7.5-7.5h22.915c4.142 0 7.5 3.358 7.5 7.5z" fill="#6dc54a"/><path d="m399.553 410h-24.553c-2.761 0-5-2.239-5-5v-42.009c0-2.761 2.239-5 5-5h24.553c-2.761 0-5 2.239-5 5v42.009c0 2.761 2.239 5 5 5z" fill="#ffb52d"/><path d="m436 383.995c0 4.142-3.358 7.5-7.5 7.5h-37c-4.142 0-7.5-3.358-7.5-7.5 0-4.142 3.358-7.5 7.5-7.5h37c4.142 0 7.5 3.358 7.5 7.5z" fill="#f29500"/><path d="m390.447 174.546h10c2.761 0 5 2.239 5 5v20.454h-20v-20.454c0-2.761 2.238-5 5-5z" fill="#6dc54a"/><path d="m419.553 160.84h10c2.761 0 5 2.239 5 5v34.16h-20v-34.16c0-2.761 2.239-5 5-5z" fill="#fb5858"/><path d="m248.371 358.299c-9.509 8.604-14.956 20.387-15.339 33.175-.122 4.063-3.455 7.275-7.492 7.275-.076 0-.152-.001-.229-.003-4.14-.124-7.396-3.581-7.272-7.721.506-16.906 7.704-32.479 20.267-43.848 3.071-2.78 7.814-2.542 10.594.528 2.778 3.072 2.541 7.815-.529 10.594z" fill="#f44545"/><path d="m334.008 398.747c-.077.002-.153.003-.229.003-4.039 0-7.371-3.212-7.493-7.276-.375-12.563-5.667-24.202-14.898-32.772-3.036-2.818-3.212-7.563-.395-10.599s7.563-3.213 10.6-.394c12.198 11.324 19.19 26.708 19.688 43.317.122 4.14-3.134 7.597-7.273 7.721z" fill="#6dc54a"/><path d="m322.78 359.299c-1.471 1.512-3.424 2.272-5.379 2.272-1.884 0-3.77-.706-5.228-2.123-8.754-8.511-20.301-13.199-32.514-13.199-11.82 0-23.096 4.429-31.749 12.47-3.034 2.819-7.779 2.646-10.6-.388-2.819-3.034-2.646-7.78.389-10.599 11.437-10.629 26.339-16.482 41.96-16.482 16.14 0 31.4 6.195 42.971 17.444 2.971 2.887 3.037 7.636.15 10.605z" fill="#ffc14f"/><path d="m287.159 365v26.25c0 4.142-3.357 7.5-7.5 7.5s-7.5-3.358-7.5-7.5v-26.25c0-4.142 3.357-7.5 7.5-7.5s7.5 3.358 7.5 7.5z" fill="#4172cc"/></g></svg>