<svg height="512" viewBox="0 0 512 512" width="512" xmlns="http://www.w3.org/2000/svg"><path d="m260 120a8 8 0 0 1 0-16 24 24 0 0 0 0-48 8 8 0 0 1 0-16 40 40 0 0 1 0 80z" fill="#aac3d7"/><path d="m108 120a8 8 0 0 1 0-16 24 24 0 0 0 0-48 8 8 0 0 1 0-16 40 40 0 0 1 0 80z" fill="#aac3d7"/><path d="m20 144h368a0 0 0 0 1 0 0v240a32 32 0 0 1 -32 32h-304a32 32 0 0 1 -32-32v-240a0 0 0 0 1 0 0z" fill="#aac3d7"/><path d="m20 144h328a0 0 0 0 1 0 0v240a32 32 0 0 1 -32 32h-264a32 32 0 0 1 -32-32v-240a0 0 0 0 1 0 0z" fill="#d7e6e6"/><path d="m52 80h304a32 32 0 0 1 32 32v32a0 0 0 0 1 0 0h-368a0 0 0 0 1 0 0v-32a32 32 0 0 1 32-32z" fill="#d7322d"/><path d="m52 80h264a32 32 0 0 1 32 32v32a0 0 0 0 1 0 0h-328a0 0 0 0 1 0 0v-32a32 32 0 0 1 32-32z" fill="#f04b37"/><path d="m108 120a40 40 0 0 1 0-80 8 8 0 0 1 0 16 24 24 0 0 0 0 48 8 8 0 0 1 0 16z" fill="#d7e6e6"/><path d="m260 120a40 40 0 0 1 0-80 8 8 0 0 1 0 16 24 24 0 0 0 0 48 8 8 0 0 1 0 16z" fill="#d7e6e6"/><g fill="#aac3d7"><circle cx="148" cy="208" r="24"/><circle cx="220" cy="208" r="24"/><circle cx="292" cy="208" r="24"/><circle cx="76" cy="280" r="24"/><circle cx="148" cy="280" r="24"/><circle cx="220" cy="280" r="24"/><circle cx="292" cy="280" r="24"/><circle cx="76" cy="352" r="24"/><circle cx="148" cy="352" r="24"/><circle cx="220" cy="352" r="24"/><circle cx="76" cy="280" r="24"/><circle cx="148" cy="280" r="24"/></g><rect fill="#4b55a5" height="240" rx="120" width="272" x="220" y="232"/><circle cx="340" cy="352" fill="#6478b9" r="120"/><path d="m236 356a4 4 0 0 1 -4-4 108.122 108.122 0 0 1 108-108 4 4 0 0 1 0 8 100.112 100.112 0 0 0 -100 100 4 4 0 0 1 -4 4z" fill="#6fa4d8"/><circle cx="340" cy="352" fill="#d7e6f0" r="88"/><path d="m340 288v128a64 64 0 0 0 0-128z" fill="#f04b37"/><path d="m340 400a8 8 0 0 0 -8 8v8a8 8 0 0 0 16 0v-8a8 8 0 0 0 -8-8z" fill="#353744"/><path d="m404 344h-8a8 8 0 0 0 0 16h8a8 8 0 0 0 0-16z" fill="#353744"/><path d="m284 344h-8a8 8 0 0 0 0 16h8a8 8 0 0 0 0-16z" fill="#353744"/><path d="m348 329.371v-41.371a8 8 0 0 0 -16 0v41.371a24 24 0 1 0 16 0z" fill="#353744"/><circle cx="340" cy="352" fill="#faa51e" r="8"/><path d="m364 232h-16v-24a32.036 32.036 0 0 1 32-32h16v16h-16a16.019 16.019 0 0 0 -16 16z" fill="#4b55a5"/><path d="m404 176h8a0 0 0 0 1 0 0v16a0 0 0 0 1 0 0h-8a8 8 0 0 1 -8-8 8 8 0 0 1 8-8z" fill="#f04b37" transform="matrix(-1 0 0 -1 808 368)"/><path d="m404 168a8 8 0 0 1 -8-8v-8a8 8 0 0 1 16 0v8a8 8 0 0 1 -8 8z" fill="#fabe19"/><path d="m404 224a8 8 0 0 1 -8-8v-8a8 8 0 0 1 16 0v8a8 8 0 0 1 -8 8z" fill="#fabe19"/><path d="m424.792 180a8 8 0 0 1 -4.008-14.93l6.929-4a8 8 0 1 1 8 13.858l-6.929 4a7.978 7.978 0 0 1 -3.992 1.072z" fill="#fabe19"/><path d="m431.705 208a7.975 7.975 0 0 1 -3.992-1.072l-6.929-4a8 8 0 0 1 8-13.858l6.929 4a8 8 0 0 1 -4.008 14.93z" fill="#fabe19"/></svg>