<svg height="512" viewBox="0 0 512 512" width="512" xmlns="http://www.w3.org/2000/svg"><rect fill="#fabe19" height="104" rx="16" width="144" x="16" y="376"/><rect fill="#353744" height="16" rx="8" width="112" x="32" y="400"/><path d="m40 400h48a0 0 0 0 1 0 0v16a0 0 0 0 1 0 0h-48a8 8 0 0 1 -8-8 8 8 0 0 1 8-8z" fill="#55525b"/><path d="m120 448-32 16-32-16v-32h64z" fill="#353744"/><path d="m88 464-32-16v-24h32z" fill="#55525b"/><path d="m128 416h8v32h-8z" fill="#353744"/><rect fill="#f5871e" height="16" rx="4" width="18.667" x="122.667" y="448"/><rect fill="#fabe19" height="104" rx="16" width="144" x="184" y="376"/><rect fill="#353744" height="16" rx="8" width="112" x="200" y="400"/><path d="m208 400h48a0 0 0 0 1 0 0v16a0 0 0 0 1 0 0h-48a8 8 0 0 1 -8-8 8 8 0 0 1 8-8z" fill="#55525b"/><path d="m288 448-32 16-32-16v-32h64z" fill="#353744"/><path d="m256 464-32-16v-24h32z" fill="#55525b"/><path d="m296 416h8v32h-8z" fill="#353744"/><rect fill="#f5871e" height="16" rx="4" width="18.667" x="290.667" y="448"/><rect fill="#fabe19" height="104" rx="16" width="144" x="352" y="376"/><rect fill="#353744" height="16" rx="8" width="112" x="368" y="400"/><path d="m376 400h48a0 0 0 0 1 0 0v16a0 0 0 0 1 0 0h-48a8 8 0 0 1 -8-8 8 8 0 0 1 8-8z" fill="#55525b"/><path d="m456 448-32 16-32-16v-32h64z" fill="#353744"/><path d="m424 464-32-16v-24h32z" fill="#55525b"/><path d="m464 416h8v32h-8z" fill="#353744"/><rect fill="#f5871e" height="16" rx="4" width="18.667" x="458.667" y="448"/><path d="m152 152h264v130.667h-264z" fill="#4b55a5"/><path d="m152 184h168v98.667h-168z" fill="#6478b9"/><path d="m208 216h56a16 16 0 0 1 16 16v50.667a0 0 0 0 1 0 0h-88a0 0 0 0 1 0 0v-50.667a16 16 0 0 1 16-16z" fill="#353744"/><path d="m80 120h352a0 0 0 0 1 0 0v16a16 16 0 0 1 -16 16h-320a16 16 0 0 1 -16-16v-16a0 0 0 0 1 0 0z" fill="#d7e6f0"/><path d="m272 120h144a16 16 0 0 1 16 16v16a0 0 0 0 1 0 0h-176a0 0 0 0 1 0 0v-16a16 16 0 0 1 16-16z" fill="#a5c3dc" transform="matrix(-1 0 0 -1 688 272)"/><path d="m96 282.667h320a16 16 0 0 1 16 16v16a0 0 0 0 1 0 0h-352a0 0 0 0 1 0 0v-16a16 16 0 0 1 16-16z" fill="#d7e6f0"/><path d="m256 282.667h176a0 0 0 0 1 0 0v16a16 16 0 0 1 -16 16h-144a16 16 0 0 1 -16-16v-16a0 0 0 0 1 0 0z" fill="#a5c3dc" transform="matrix(-1 0 0 -1 688 597.333)"/><path d="m96 152h64a0 0 0 0 1 0 0v24a8 8 0 0 1 -8 8h-48a8 8 0 0 1 -8-8v-24a0 0 0 0 1 0 0z" fill="#a5c3dc"/><path d="m96 152h24a0 0 0 0 1 0 0v24a8 8 0 0 1 -8 8h-8a8 8 0 0 1 -8-8v-24a0 0 0 0 1 0 0z" fill="#d7e6f0"/><path d="m104 250.667h48a8 8 0 0 1 8 8v24a0 0 0 0 1 0 0h-64a0 0 0 0 1 0 0v-24a8 8 0 0 1 8-8z" fill="#a5c3dc"/><path d="m104 250.667h8a8 8 0 0 1 8 8v24a0 0 0 0 1 0 0h-24a0 0 0 0 1 0 0v-24a8 8 0 0 1 8-8z" fill="#d7e6f0"/><path d="m104 184h48v66.667h-48z" fill="#a5c3dc"/><path d="m104 200h8a16 16 0 0 1 16 16v34.667a0 0 0 0 1 0 0h-24a0 0 0 0 1 0 0v-50.667a0 0 0 0 1 0 0z" fill="#d7e6f0"/><path d="m224 152h64a0 0 0 0 1 0 0v24a8 8 0 0 1 -8 8h-48a8 8 0 0 1 -8-8v-24a0 0 0 0 1 0 0z" fill="#a5c3dc"/><path d="m224 152h24a0 0 0 0 1 0 0v24a8 8 0 0 1 -8 8h-8a8 8 0 0 1 -8-8v-24a0 0 0 0 1 0 0z" fill="#d7e6f0"/><path d="m232 250.667h48a8 8 0 0 1 8 8v24a0 0 0 0 1 0 0h-64a0 0 0 0 1 0 0v-24a8 8 0 0 1 8-8z" fill="#a5c3dc"/><path d="m232 250.667h8a8 8 0 0 1 8 8v24a0 0 0 0 1 0 0h-24a0 0 0 0 1 0 0v-24a8 8 0 0 1 8-8z" fill="#d7e6f0"/><path d="m232 184h48v66.667h-48z" fill="#a5c3dc"/><path d="m232 200h8a16 16 0 0 1 16 16v34.667a0 0 0 0 1 0 0h-24a0 0 0 0 1 0 0v-50.667a0 0 0 0 1 0 0z" fill="#d7e6f0"/><path d="m80 120 88-88 88 88z" fill="#55525b"/><path d="m168 56-64 64h24l52-52z" fill="#353744"/><path d="m256 120-88-88h169.373a16 16 0 0 1 11.313 4.686l83.314 83.314z" fill="#353744"/><path d="m424 336h-160v-21.333h-16v21.333h-160a8 8 0 0 0 -8 8v32h16v-24h152v24h16v-24h152v24h16v-32a8 8 0 0 0 -8-8z" fill="#a5c3dc"/></svg>