<svg enable-background="new 0 0 512 512" height="512" viewBox="0 0 512 512" width="512" xmlns="http://www.w3.org/2000/svg"><g id="_x38_3_Database"><g><path d="m469.979 30.956v75.557c0 13.61-11.033 24.643-24.643 24.643h-378.671c-13.61 0-24.643-11.033-24.643-24.643v-75.557c0-13.61 11.033-24.643 24.643-24.643h378.671c13.61-.001 24.643 11.032 24.643 24.643z" fill="#474747"/><path d="m469.979 30.94v75.556c0 13.603-11.04 24.643-24.643 24.643h-378.671c-13.603 0-24.643-11.04-24.643-24.643v-51.209c49.878 26.911 106.902 42.139 167.525 42.139 91.082 0 174.081-34.45 236.725-91.082 13.159.444 23.707 11.287 23.707 24.596z" opacity=".12"/><g fill="#e8f1f8"><path d="m118.453 68.749c0 11.085-8.995 20.05-20.08 20.05-11.055 0-20.05-8.965-20.05-20.05s8.995-20.08 20.05-20.08c11.085 0 20.08 8.995 20.08 20.08z"/><path d="m178.223 68.749c0 11.085-8.995 20.05-20.08 20.05-11.055 0-20.05-8.965-20.05-20.05s8.995-20.08 20.05-20.08c11.085 0 20.08 8.995 20.08 20.08z"/><path d="m237.993 68.749c0 11.085-8.995 20.05-20.08 20.05-11.055 0-20.05-8.965-20.05-20.05s8.995-20.08 20.05-20.08c11.084 0 20.08 8.995 20.08 20.08z"/></g><g><path d="m428.416 74.045h-138.997c-2.934 0-5.313-2.376-5.313-5.313 0-2.936 2.379-5.313 5.313-5.313h138.997c2.934 0 5.313 2.376 5.313 5.313-.001 2.937-2.379 5.313-5.313 5.313z" fill="#f78721"/></g><path d="m469.979 155.799v75.557c0 13.61-11.033 24.643-24.643 24.643h-378.671c-13.61 0-24.643-11.033-24.643-24.643v-75.557c0-13.61 11.033-24.643 24.643-24.643h378.671c13.61 0 24.643 11.033 24.643 24.643z" fill="#475da9"/><path d="m469.979 155.784v75.556c0 13.603-11.04 24.643-24.643 24.643h-378.671c-13.603 0-24.643-11.04-24.643-24.643v-51.208c49.878 26.91 106.903 42.139 167.526 42.139 91.082 0 174.081-34.45 236.725-91.082 13.158.443 23.706 11.286 23.706 24.595z" opacity=".12"/><path d="m118.453 193.593c0 11.085-8.995 20.05-20.08 20.05-11.055 0-20.05-8.965-20.05-20.05s8.995-20.08 20.05-20.08c11.085 0 20.08 8.995 20.08 20.08z" fill="#e8f1f8"/><path d="m178.223 193.593c0 11.085-8.995 20.05-20.08 20.05-11.055 0-20.05-8.965-20.05-20.05s8.995-20.08 20.05-20.08c11.085 0 20.08 8.995 20.08 20.08z" fill="#e8f1f8"/><path d="m237.993 193.593c0 11.085-8.995 20.05-20.08 20.05-11.055 0-20.05-8.965-20.05-20.05s8.995-20.08 20.05-20.08c11.084 0 20.08 8.995 20.08 20.08z" fill="#e8f1f8"/><g><path d="m428.416 198.889h-138.997c-2.934 0-5.313-2.376-5.313-5.313 0-2.936 2.379-5.313 5.313-5.313h138.997c2.934 0 5.313 2.376 5.313 5.313-.001 2.937-2.379 5.313-5.313 5.313z" fill="#f78721"/></g><path d="m469.979 280.643v75.557c0 13.61-11.033 24.643-24.643 24.643h-378.671c-13.61 0-24.643-11.033-24.643-24.643v-75.557c0-13.61 11.033-24.643 24.643-24.643h378.671c13.61 0 24.643 11.033 24.643 24.643z" fill="#f14f4a"/><path d="m469.979 280.628v75.556c0 13.603-11.04 24.643-24.643 24.643h-378.671c-13.603 0-24.643-11.04-24.643-24.643v-51.208c49.878 26.91 106.903 42.139 167.526 42.139 91.082 0 174.081-34.45 236.725-91.082 13.158.443 23.706 11.286 23.706 24.595z" opacity=".12"/><path d="m118.453 318.437c0 11.085-8.995 20.05-20.08 20.05-11.055 0-20.05-8.965-20.05-20.05s8.995-20.08 20.05-20.08c11.085 0 20.08 8.995 20.08 20.08z" fill="#e8f1f8"/><path d="m178.223 318.437c0 11.085-8.995 20.05-20.08 20.05-11.055 0-20.05-8.965-20.05-20.05s8.995-20.08 20.05-20.08c11.085 0 20.08 8.995 20.08 20.08z" fill="#e8f1f8"/><path d="m237.993 318.437c0 11.085-8.995 20.05-20.08 20.05-11.055 0-20.05-8.965-20.05-20.05s8.995-20.08 20.05-20.08c11.084 0 20.08 8.995 20.08 20.08z" fill="#e8f1f8"/><g><path d="m428.416 323.733h-138.997c-2.934 0-5.313-2.376-5.313-5.313 0-2.936 2.379-5.313 5.313-5.313h138.997c2.934 0 5.313 2.376 5.313 5.313-.001 2.937-2.379 5.313-5.313 5.313z" fill="#474747"/></g><path d="m469.979 405.487v75.557c0 13.61-11.033 24.643-24.643 24.643h-378.671c-13.61 0-24.643-11.033-24.643-24.643v-75.557c0-13.61 11.033-24.643 24.643-24.643h378.671c13.61 0 24.643 11.033 24.643 24.643z" fill="#fdcf17"/><path d="m469.979 405.472v75.556c0 13.603-11.04 24.643-24.643 24.643h-378.671c-13.603 0-24.643-11.04-24.643-24.643v-51.208c49.878 26.91 106.903 42.139 167.526 42.139 91.082 0 174.081-34.45 236.725-91.082 13.158.443 23.706 11.286 23.706 24.595z" opacity=".12"/><path d="m118.453 443.281c0 11.085-8.995 20.05-20.08 20.05-11.055 0-20.05-8.965-20.05-20.05s8.995-20.08 20.05-20.08c11.085 0 20.08 8.995 20.08 20.08z" fill="#e8f1f8"/><path d="m178.223 443.281c0 11.085-8.995 20.05-20.08 20.05-11.055 0-20.05-8.965-20.05-20.05s8.995-20.08 20.05-20.08c11.085 0 20.08 8.995 20.08 20.08z" fill="#e8f1f8"/><path d="m237.993 443.281c0 11.085-8.995 20.05-20.08 20.05-11.055 0-20.05-8.965-20.05-20.05s8.995-20.08 20.05-20.08c11.084 0 20.08 8.995 20.08 20.08z" fill="#e8f1f8"/><g><path d="m428.416 448.577h-138.997c-2.934 0-5.313-2.376-5.313-5.313 0-2.936 2.379-5.313 5.313-5.313h138.997c2.934 0 5.313 2.376 5.313 5.313-.001 2.937-2.379 5.313-5.313 5.313z" fill="#474747"/></g></g></g></svg>