<svg id="Layer_1" enable-background="new 0 0 64 64" height="512" viewBox="0 0 64 64" width="512" xmlns="http://www.w3.org/2000/svg"><g><path d="m30.7 34.3c.7.7 1.9.7 2.6 0l26.2-26.1c.3-.4.5-.8.5-1.3s-.2-1-.5-1.3c-.7-.7-1.9-.7-2.6 0l-24.9 24.8-24.8-24.9c-.4-.3-.8-.5-1.3-.5s-1 .2-1.3.5-.6.9-.6 1.4.2 1 .5 1.3z"/><path d="m56.8 31.6-24.8 24.8-24.8-24.8c-.4-.4-.8-.6-1.3-.6s-1 .2-1.3.5-.6.9-.6 1.4.2 1 .5 1.3l26.1 26.1c.7.7 1.9.7 2.6 0l26.1-26.1c.4-.4.5-.8.5-1.3s-.2-1-.5-1.3c-.6-.8-1.7-.8-2.5 0z"/></g></svg>