<svg width="512" height="512" xmlns="http://www.w3.org/2000/svg" xmlns:xlink="http://www.w3.org/1999/xlink" xml:space="preserve" overflow="hidden"><defs><clipPath id="clip0"><rect x="384" y="104" width="512" height="512"/></clipPath></defs><g clip-path="url(#clip0)" transform="translate(-384 -104)"><path d="M621.6 349.6C616 355.2 616 364.8 621.6 370.4L830.4 580C833.6 582.4 836.8 584 840.8 584 844.8 584 848.8 582.4 851.2 580 856.8 574.4 856.8 564.8 851.2 559.2L652.8 360 852 161.6C854.4 158.4 856 155.2 856 151.2 856 147.2 854.4 143.2 852 140.8 849.6 138.4 844.8 136 840.8 136 836.8 136 832.8 137.6 830.4 140Z"/><path d="M643.2 558.4 444.8 360 643.2 161.6C646.4 158.4 648 155.2 648 151.2 648 147.2 646.4 143.2 644 140.8 641.6 138.4 636.8 136 632.8 136 628.8 136 624.8 137.6 622.4 140L413.6 348.8C408 354.4 408 364 413.6 369.6L622.4 578.4C625.6 581.6 628.8 582.4 632.8 582.4 636.8 582.4 640.8 580.8 643.2 578.4 649.6 573.6 649.6 564.8 643.2 558.4Z"/></g></svg>