<svg width="512" height="512" xmlns="http://www.w3.org/2000/svg" xmlns:xlink="http://www.w3.org/1999/xlink" xml:space="preserve" overflow="hidden"><defs><clipPath id="clip0"><rect x="384" y="104" width="512" height="512"/></clipPath></defs><g clip-path="url(#clip0)" transform="translate(-384 -104)"><path d="M658.4 370.4C664 364.8 664 355.2 658.4 349.6L449.6 140C446.4 137.6 443.2 136 439.2 136 435.2 136 431.2 137.6 428.8 140 423.2 145.6 423.2 155.2 428.8 160.8L627.2 360 428 558.4C425.6 561.6 424 564.8 424 568.8 424 572.8 425.6 576.8 428 579.2 430.4 581.6 435.2 584 439.2 584 443.2 584 447.2 582.4 449.6 580Z"/><path d="M636.8 161.6 835.2 360 636.8 558.4C633.6 561.6 632 564.8 632 568.8 632 572.8 633.6 576.8 636 579.2 638.4 581.6 643.2 584 647.2 584 651.2 584 655.2 582.4 657.6 580L866.4 371.2C872 365.6 872 356 866.4 350.4L657.6 141.6C654.4 138.4 651.2 137.6 647.2 137.6 643.2 137.6 639.2 139.2 636.8 141.6 630.4 146.4 630.4 155.2 636.8 161.6Z"/></g></svg>