<?xml version="1.0" encoding="iso-8859-1"?>
<!-- Generator: Adobe Illustrator 19.0.0, SVG Export Plug-In . SVG Version: 6.00 Build 0)  -->
<svg version="1.1" id="Capa_1" xmlns="http://www.w3.org/2000/svg" xmlns:xlink="http://www.w3.org/1999/xlink" x="0px" y="0px"
	 viewBox="0 0 511.999 511.999" style="enable-background:new 0 0 511.999 511.999;" xml:space="preserve">
<path style="fill:#FED474;" d="M147.915,93.5c5.295,63.377,12.934,126.558,22.894,189.372c1.049,6.615,2.442,13.812,7.56,18.133
	c4.768,4.026,11.509,4.471,17.745,4.695c44.364,1.6,88.787,1.556,133.148-0.129c4.042-0.153,8.432-0.455,11.458-3.138
	c2.881-2.553,3.782-6.614,4.504-10.395c2.704-14.148,5.102-28.354,7.499-42.558c13.271-78.631,26.577-157.619,27.944-237.351
	c-32.016,15.203-64.542,29.333-97.503,42.36c-3.815,1.507-7.768,3.024-11.867,2.893c-3.216-0.103-6.305-1.218-9.297-2.401
	c-25.187-9.956-47.764-25.345-72.752-35.728c-9.268-3.851-24.628-11.487-34.9-8.044c-11.194,3.752-9.088,18.832-9.146,28.143
	C145.085,57.435,146.41,75.491,147.915,93.5z"/>
<path style="fill:#F98C55;" d="M127.027,353.424c-9.433-0.06-19.364-0.018-27.569,4.635c-1.465,0.831-2.935,1.902-3.506,3.486
	c-0.52,1.441-0.199,3.04,0.217,4.515c6.875,24.42,35.001,43.746,53.114,59.665c22.748,19.993,46.234,39.146,70.396,57.405
	c11.935,9.019,23.196,13.627,37.765,16.104c7.733,1.314,15.706-0.357,23.043-3.13c24.972-9.438,43.269-30.684,60.449-51.116
	c19.97-23.751,39.94-47.501,59.911-71.252c9.952-11.836,11.421-28.796-7.626-25.207c-19.74,3.72-40.903,2.507-60.971,3.005
	c-43.573,1.082-87.156,1.73-130.742,1.946C176.682,353.601,151.855,353.583,127.027,353.424z"/>
<g>
	<path style="fill:#231F20;" d="M148.719,177.193c0.023,0.187,0.058,0.365,0.093,0.543c2.705,25.007,5.641,49.989,8.685,74.957
		c1.593,13.068,3.218,26.122,5.12,39.149c1.626,11.145,5.49,20.897,17.504,23.859c10.525,2.595,22.564,1.014,33.3,1.003
		c13.556-0.012,27.108-0.107,40.664-0.107c25.615,0.001,51.829,0.094,77.305-2.829c11.478-1.317,17.312-9.189,20.628-19.621
		c3.708-11.664,6.496-23.709,9.17-35.645c5.609-25.036,9.732-50.378,13.242-75.786c3.89-28.156,7.386-56.396,10.429-84.657
		c3.147-29.224,5.16-58.625,2.216-87.932c-0.61-6.08-6.043-9.322-11.647-6.684c-20.638,9.717-41.801,18.293-62.488,27.912
		c-17.754,8.256-38.567,23.533-58.711,14.825c-8.678-3.751-16.25-9.792-23.972-15.135c-8.249-5.707-16.915-10.749-26.01-14.986
		c-18.7-8.709-38.556-13.897-59.049-16.031c-19.258-2.002-3.583,102.908-2.962,110.929
		C143.95,133.078,146.032,155.145,148.719,177.193z M150.878,15.808c21.293,3.229,43.369,10.41,61.539,22.172
		c15.857,10.266,31.125,25.12,51.054,26.023c14.906,0.675,28.749-6.95,41.993-13.823c21.491-11.152,43.715-20.892,66.481-29.133
		c-2.478,65.725-8.853,131.302-19.081,196.273c-3.882,24.663-8.333,49.296-15.368,73.25c-0.808,2.751-1.771,5.674-4.044,7.422
		c-2.142,1.647-5.008,1.908-7.703,2.096c-44.696,3.111-89.605,3.142-134.305,0.092c-2.806-0.191-5.938-0.555-7.726-2.726
		c-1.16-1.407-1.5-3.297-1.799-5.096c-7.746-46.537-15.492-93.091-21.412-139.903c-2.957-23.381-5.46-46.822-7.271-70.32
		C151.619,61.167,147.272,36.666,150.878,15.808z"/>
	<path style="fill:#231F20;" d="M414.026,343.293c-5.894-1.484-13.41-1.31-17.061-1.097c-47.973,2.805-96.025,4.273-144.08,4.404
		c-23.751,0.065-47.504-0.196-71.248-0.785c-22.278-0.552-44.968-3.056-67.199-1.468c-10.715,1.108-23.464,5.458-24.611,18.021
		c-1.053,11.54,8.798,22.743,15.549,31.158c7.541,9.398,16.082,17.724,25.276,25.499c19.757,16.706,40.158,32.784,60.71,48.494
		c10.588,8.093,21.329,15.989,32.32,23.526c10.527,7.219,21.938,16.584,34.463,19.943c12.972,3.479,23.983-2.572,34.313-9.77
		c9.626-6.708,18.907-13.947,27.795-21.605c20.085-17.307,38.23-36.938,54.788-57.62c16.686-20.842,33.707-43.022,45.923-66.845
		C424.538,348.182,420.162,344.838,414.026,343.293z M370.372,401.557c-7.091,9.746-14.642,19.157-22.615,28.194
		c-19.611,22.23-41.784,42.204-65.97,59.348c-4.11,2.914-8.536,5.842-13.559,6.237c-4.672,0.368-9.209-1.516-13.416-3.582
		c-10.158-4.988-19.633-11.248-29.008-17.586c-20.578-13.914-40.835-28.303-60.75-43.152
		c-15.558-11.601-30.986-23.555-44.194-37.774c-6.36-6.848-12.266-14.343-15.67-23.047c-0.583-1.49-1.093-3.142-0.6-4.664
		c0.967-2.981,4.87-3.549,8.004-3.585c84.193-0.988,168.409-0.52,252.277-6.268c11.709,0.271,23.43,0.848,35.06,1.905
		c-3.404-0.31-21.107,31.947-24.342,36.622C373.879,396.676,372.139,399.126,370.372,401.557z"/>
</g>
<g>
</g>
<g>
</g>
<g>
</g>
<g>
</g>
<g>
</g>
<g>
</g>
<g>
</g>
<g>
</g>
<g>
</g>
<g>
</g>
<g>
</g>
<g>
</g>
<g>
</g>
<g>
</g>
<g>
</g>
</svg>
