<svg id="Layer_1" height="512" viewBox="0 0 64 64" width="512" xmlns="http://www.w3.org/2000/svg"><g><g><g><path d="m57.645 22.944h-51.292c-.743 0-1.343.602-1.343 1.345v31.254c0 .739.6 1.341 1.343 1.341h51.292c.745 0 1.347-.602 1.347-1.341v-31.254c-.001-.743-.602-1.345-1.347-1.345z" fill="#0e303f"/><path d="m7.725 25.551h48.551v28.654h-48.551z" fill="#f4da80"/><path d="m56.276 25.551v28.654h-48.551z" fill="#f0ca67"/><path d="m63.968 56.116h-63.934c-.013.071-.034.136-.034.206v.612c0 1.015 1.305 1.841 2.911 1.841h58.181c1.607 0 2.908-.826 2.908-1.841v-.612c0-.07-.017-.135-.032-.206z" fill="#e5e8ec"/><g fill="#cdd5d7"><path d="m.232 57.654c.443.658 1.477 1.121 2.679 1.121h58.181c1.202 0 2.234-.463 2.676-1.121z"/><path d="m27.321 56.116v.253c0 .202.259.366.579.366h8.202c.319 0 .578-.164.578-.366v-.253z"/></g></g></g><g><g><path d="m51.645 53.546h-.572c-.19 0-.345-.154-.345-.345v-3.663c0-.188.154-.344.345-.344h.572v-.688h-41.32c-.57 0-1.031.462-1.031 1.031v3.663c0 .57.461 1.031 1.031 1.031h41.32z" fill="#01c6da"/><path d="m51.645 53.546h-.572c-.19 0-.345-.154-.345-.345v-3.663c0-.188.154-.344.345-.344h.572v-.688h-23.8v5.726h23.799v-.686z" fill="#01bacc"/><path d="m50.728 53.201v-3.663c0-.188.154-.344.345-.344h-40.748c-.19 0-.344.155-.344.344v3.663c0 .19.154.345.344.345h40.748c-.191 0-.345-.154-.345-.345z" fill="#fff"/><path d="m50.728 53.201v-3.663c0-.188.154-.344.345-.344h-23.915c-.19 0-.344.155-.344.344v3.663c0 .19.154.345.344.345h23.914c-.19 0-.344-.154-.344-.345z" fill="#cdd5d7"/></g><g><path d="m10.761 47.703h.502c.167 0 .301-.151.301-.337v-5.943c0-.185-.134-.335-.301-.335h-.502v-.674h36.858c.499 0 .904.452.904 1.009v5.943c0 .559-.405 1.009-.904 1.009h-36.858z" fill="#30363d"/><path d="m10.761 47.703h.502c.167 0 .301-.151.301-.337v-5.943c0-.185-.134-.335-.301-.335h-.502v-.674h16.578v7.961h-16.578z" fill="#484f59"/><path d="m11.564 47.366v-5.943c0-.185-.134-.335-.301-.335h36.356c.165 0 .301.15.301.335v5.943c0 .186-.136.337-.301.337h-36.356c.167 0 .301-.151.301-.337z" fill="#cdd5d7"/><path d="m11.564 47.366v-5.943c0-.185-.134-.335-.301-.335h16.68c.167 0 .301.15.301.335v5.943c0 .186-.134.337-.301.337h-16.68c.167 0 .301-.151.301-.337z" fill="#fff"/></g></g><g><path d="m28.95 33.616-3.914-3.914c-.37-.371-.834-.587-1.315-.656v3.875l5.229 5.23z" fill="#fff"/><path d="m26.942 34.48v-6.027c0-1.287-1.044-2.332-2.332-2.332h-.777c-.033 0-.065.004-.098.004v5.148z" fill="#fff"/><g><g><g><path d="m23.465 5.541-6.982 21.407c-.01.035-.009.067-.013.101-.117.41-.194.799-.194 1.16 0 1.862 1.401 3.324 3.233 3.459.044.014.087.025.134.025h.134 5.581 23.594c.199 0 .377-.128.438-.317l6.981-21.405c.016-.047.023-.096.023-.142 0-.097-.029-.193-.088-.272-.088-.117-.226-.189-.373-.189h-4.865c1.18-3.599 1.183-3.612 1.183-3.683 0-.254-.206-.46-.462-.46h-27.887c-.199 0-.377.129-.437.316z" fill="#01c6da"/><path d="m52.252 5.685c0-.084-.023-.161-.064-.23l-28.389.168-7.026 21.5c-.004.011-.002.021-.006.029-.179.472-.265.883-.265 1.26 0 1.46 1.185 2.604 2.714 2.66.33-.044 1.035-.211 1.296-.639.304-.499.519-1.18.521-1.186l6.878-20.122c.069-.198.262-.331.479-.331h22.867c.991-3.025.995-3.043.995-3.109z" fill="#01bacc"/><path d="m28.045 9.367h25.271c-.813-.438-1.359-1.278-1.359-2.279 0-.287.063-.603.164-.943h-27.887l-6.791 20.827c-.004.009-.001.019-.005.027-.163.452-.241.849-.241 1.21 0 1.402 1.08 2.5 2.476 2.555.301-.043.945-.203 1.183-.612.276-.48.475-1.134.476-1.141l6.276-19.324c.061-.192.239-.32.437-.32z" fill="#cdd5d7"/><path d="m51.956 7.088c0-.287.063-.603.164-.943h-27.886l-.292.897c-.008.089-.013.173-.013.257 0 1.467 1.129 2.615 2.588 2.672.271-.037.807-.169 1.11-.479h.111c.083-.075.189-.124.307-.124h25.271c-.814-.438-1.36-1.279-1.36-2.28z" fill="#e5e8ec"/></g></g></g><g fill="#fff"><path d="m27.477 33.558c-.686 2.159.508 4.467 2.668 5.152l6.354 2.019c2.158.687 4.466-.507 5.151-2.667l2.02-6.355c.686-2.156-.509-4.465-2.667-5.15l-6.354-2.02c-2.16-.687-4.468.509-5.154 2.666z"/><path d="m45.682 20.109c.832.265 1.292 1.153 1.027 1.982l-3.522 11.085c-.264.83-1.152 1.29-1.984 1.027-.829-.264-1.29-1.152-1.025-1.984l3.521-11.085c.263-.829 1.153-1.288 1.983-1.025z"/><path d="m42.828 16.055c.83.263 1.29 1.151 1.025 1.983l-3.522 11.083c-.263.832-1.152 1.292-1.982 1.028-.832-.265-1.292-1.153-1.027-1.983l3.522-11.085c.264-.832 1.152-1.292 1.984-1.026z"/><path d="m35.355 13.68c.83.264 1.292 1.152 1.027 1.983l-3.522 11.084c-.264.831-1.154 1.292-1.984 1.027-.832-.265-1.291-1.153-1.026-1.984l3.523-11.083c.263-.83 1.15-1.292 1.982-1.027z"/><path d="m33.153 20.545c.832.265 1.292 1.153 1.027 1.983l-3.522 11.085c-.264.83-1.154 1.291-1.983 1.027-.832-.265-1.292-1.154-1.027-1.984l3.522-11.084c.264-.831 1.153-1.291 1.983-1.027z"/><path d="m39.921 12.406c.83.265 1.289 1.153 1.025 1.984l-3.521 11.084c-.264.831-1.153 1.291-1.983 1.027-.832-.265-1.29-1.152-1.027-1.983l3.522-11.085c.264-.83 1.152-1.29 1.984-1.027z"/><path d="m41.123 50.194-.002-15.168c.002-1.536-1.244-2.781-2.781-2.781h-4.522c-1.538 0-2.783 1.244-2.783 2.781v15.168z"/></g><g><g><g><path d="m30.26 43.313h13.927v7.097h-13.927z" fill="#484f59"/><path d="m29.734 44.638h14.976v9.577h-14.976z" fill="#ffa38f"/><path d="m29.734 44.638h14.976v1.116h-14.976z" fill="#ff876c"/></g><path d="m37.23 43.313h6.956v1.324h-6.956z" fill="#30363d"/><path d="m37.23 45.754h7.479v8.461h-7.479z" fill="#ff876c"/><circle cx="42.392" cy="47.941" fill="#484f59" r=".714"/></g></g></g></g></svg>