<svg id="Capa_1" enable-background="new 0 0 512 512" height="512" viewBox="0 0 512 512" width="512" xmlns="http://www.w3.org/2000/svg"><g><path d="m420.426 134.489v207.995c0 59.819-73.617 108.301-164.423 108.301-20.721 0-40.547-2.532-58.807-7.135-61.774-15.576-105.628-54.992-105.628-101.166v-210.231l105.628.718z" fill="#544f57"/><path d="m197.197 132.971v310.68c-61.774-15.576-105.628-54.992-105.628-101.166v-210.232z" fill="#454045"/><path d="m511.95 194.372v-30.592l-53.411-15.457h-405.078l-53.461 15.457v30.592h.05c-.559 11.69 5.115 23.643 17.046 29.955l204.285 108.064c21.658 11.456 47.581 11.456 69.239 0l204.285-108.064c11.931-6.312 17.604-18.265 17.045-29.955z" fill="#454045"/><path d="m221.381 28.903-204.285 108.063c-22.795 12.058-22.795 44.71 0 56.768l204.285 108.063c21.658 11.457 47.581 11.457 69.239 0l204.285-108.063c22.794-12.058 22.794-44.71 0-56.768l-204.286-108.063c-21.657-11.457-47.581-11.457-69.238 0z" fill="#544f57"/><ellipse cx="256" cy="165.35" fill="#f4dd45" rx="42.99" ry="21.294"/><path d="m364.628 396.081c-4.268 0-7.726-3.459-7.726-7.726v-122.254l-106.057-94.995c-3.178-2.847-3.448-7.731-.601-10.91 2.847-3.178 7.731-3.448 10.911-.6l108.628 97.298c1.637 1.465 2.571 3.558 2.571 5.755v125.706c.001 4.267-3.458 7.726-7.726 7.726z" fill="#eab14d"/><path d="m342.51 469.571c0 12.216 9.903 22.118 22.118 22.118s22.118-9.903 22.118-22.118-9.903-48.317-22.118-48.317-22.118 36.102-22.118 48.317z" fill="#f4dd45"/><path d="m364.628 491.689c-12.218 0-22.118-9.9-22.118-22.118s9.9-48.316 22.118-48.316c-3.997 0-7.232 36.098-7.232 48.316s3.235 22.118 7.232 22.118z" fill="#eab14d"/><circle cx="364.628" cy="410.473" fill="#f4dd45" r="22.118"/><path d="m372.622 431.097c-2.473.968-5.172 1.494-7.994 1.494-12.218 0-22.118-9.9-22.118-22.118 0-12.208 9.9-22.118 22.118-22.118 2.823 0 5.522.526 7.994 1.505-8.272 3.193-14.134 11.218-14.134 20.614s5.862 17.43 14.134 20.623z" fill="#eab14d"/></g></svg>