<svg id="Capa_1" enable-background="new 0 0 512 512" height="512" viewBox="0 0 512 512" width="512" xmlns="http://www.w3.org/2000/svg"><path d="m512 256c0 37.64-8.12 73.38-22.72 105.56-7.83 17.27-17.52 33.52-28.82 48.49-8.47 11.23-17.85 21.74-28.02 31.42-.48.46-.96.91-1.45 1.36-4.21 3.95-8.55 7.75-13.02 11.41-22.46 18.38-48.11 33.01-75.99 42.95-26.87 9.59-55.82 14.81-85.98 14.81-34.81 0-67.99-6.95-98.24-19.54-24.36-10.12-46.82-23.91-66.69-40.66-11.56-9.75-22.25-20.5-31.92-32.13-11.91-14.31-22.28-29.92-30.88-46.61-18.07-35.08-28.27-74.88-28.27-117.06 0-46.37 12.33-89.87 33.9-127.39 8.28-14.4 17.92-27.93 28.75-40.39 5.04-5.8 10.33-11.38 15.87-16.69 3.86-3.73 7.83-7.32 11.92-10.79 7.94-6.74 16.3-13.01 25.03-18.75 21.34-14.04 44.91-24.98 70.06-32.17 22.39-6.39 46.03-9.82 70.47-9.82 19.8 0 39.07 2.25 57.58 6.51 28.3 6.5 54.81 17.7 78.66 32.72 32.5 20.46 60.07 48.03 80.53 80.53 6.31 10.02 11.95 20.52 16.85 31.42 14.38 31.99 22.38 67.47 22.38 104.82z" fill="#9dc6fb"/><path d="m432.44 441.47c-25.66 24.43-56.4 43.58-90.46 55.72-26.87 9.59-55.82 14.81-85.98 14.81-34.81 0-67.99-6.95-98.24-19.54-24.36-10.12-46.82-23.91-66.69-40.66-11.56-9.75-22.25-20.5-31.92-32.13-11.91-14.31-22.28-29.92-30.88-46.61-2.02-81.48-.15-162.97 5.63-244.45.4-5.79.83-11.59 1.28-17.38 1.59-20.51 17.62-36.93 38.07-39.15 1.76-.19 3.51-.38 5.27-.55 103.85-10.9 207.72-10.71 311.57.55 20.45 2.22 36.48 18.64 38.07 39.15 8.55 110.08 9.97 220.16 4.28 330.24z" fill="#cba59d"/><path d="m460.46 410.05c-29.84 39.57-70.92 70.19-118.48 87.14-26.87 9.59-55.82 14.81-85.98 14.81-34.81 0-67.99-6.95-98.24-19.54-24.36-10.12-46.82-23.91-66.69-40.66-11.56-9.75-22.25-20.5-31.92-32.13-6.02-110.48-4.85-220.97 3.5-331.45.13-1.87.28-3.73.42-5.6 1.59-20.51 17.62-36.93 38.07-39.15 4.78-.52 9.56-1.01 14.33-1.48 53.33-5.26 106.66-7.61 159.98-7.02 47.51.51 184.85 109.83 186.13 140.92 3.2 78.05 2.84 156.11-1.12 234.16z" fill="#eacec8"/><path d="m489.28 361.56c-28.51 62.93-81.74 112.27-147.3 135.63-61.41 2.31-122.81.73-184.22-4.73-24.36-10.12-46.82-23.91-66.69-40.66-.05-.44-.09-.88-.12-1.32-10.09-129.91-10.26-259.83-.51-389.74.16-2.25.34-4.49.51-6.74 1.59-20.51 17.62-36.93 38.07-39.14 18.84-2.05 37.67-3.73 56.51-5.04 42.68-2.98 85.36-4.08 128.05-3.31 15.85.28 31.71.82 47.57 1.63l127.82 127.82c.23 5.07.45 10.14.65 15.22 2.78 70.12 2.67 140.25-.34 210.38z" fill="#ffece7"/><path d="m445.73 395.02c-.28-5.52-4.99-9.76-10.49-9.48l-12.34.62c-8.31-39.43-19.91-57.83-36.37-57.83-16.53 0-29.92 18.54-43.43 60.11-.2.6-.39 1.19-.58 1.79l-12.37.63c-5.51.28-9.76 4.97-9.48 10.49.27 5.34 4.69 9.49 9.98 9.49.17 0 .34 0 .51-.01l5.39-.27c-4.78 17.63-7.56 31.42-7.72 32.22-1.08 5.41 2.43 10.68 7.85 11.76.66.14 1.32.2 1.97.2 4.67 0 8.84-3.29 9.79-8.04.05-.21 3.46-17.16 9.16-37.21l48.83-2.47c3.33 20.56 4.69 38.26 4.71 38.47.31 4.15 3.11 7.51 6.83 8.75 4.47-3.66 8.81-7.46 13.02-11.41-.35-4.23-1.69-19.2-4.47-36.83l9.73-.49c5.51-.28 9.76-4.98 9.48-10.49zm-81.78-5.88c13.35-38.83 22.48-40.81 22.56-40.82.08.02 8.22 3.24 16.15 38.86z" fill="#dd636e"/><g fill="#454545"><path d="m423.529 139.35h-272.184c-4.946 0-8.955-4.009-8.955-8.955v-2.042c0-4.946 4.009-8.955 8.955-8.955h272.184c4.946 0 8.955 4.009 8.955 8.955v2.042c0 4.946-4.009 8.955-8.955 8.955z"/><path d="m423.529 185.081h-272.184c-4.946 0-8.955-4.009-8.955-8.955v-2.042c0-4.946 4.009-8.955 8.955-8.955h272.184c4.946 0 8.955 4.009 8.955 8.955v2.042c0 4.945-4.009 8.955-8.955 8.955z"/><path d="m423.529 230.811h-272.184c-4.946 0-8.955-4.009-8.955-8.955v-2.042c0-4.946 4.009-8.955 8.955-8.955h272.184c4.946 0 8.955 4.009 8.955 8.955v2.042c0 4.945-4.009 8.955-8.955 8.955z"/><path d="m423.529 276.541h-272.184c-4.946 0-8.955-4.009-8.955-8.955v-2.042c0-4.946 4.009-8.955 8.955-8.955h272.184c4.946 0 8.955 4.009 8.955 8.955v2.042c0 4.946-4.009 8.955-8.955 8.955z"/><path d="m423.529 322.271h-272.184c-4.946 0-8.955-4.009-8.955-8.955v-2.042c0-4.946 4.009-8.955 8.955-8.955h272.184c4.946 0 8.955 4.009 8.955 8.955v2.042c0 4.946-4.009 8.955-8.955 8.955z"/><path d="m320.484 368.001h-168.118c-5.51 0-9.976-4.467-9.976-9.976 0-5.51 4.467-9.976 9.976-9.976h168.118c5.51 0 9.976 4.467 9.976 9.976 0 5.51-4.466 9.976-9.976 9.976z"/></g><path d="m361.148 8.139 127.82 127.82c-28.23-1.41-56.46-3.66-84.7-6.72-20.46-2.21-36.48-18.63-38.08-39.14-2.12-27.32-3.8-54.64-5.04-81.96z" fill="#eacec8"/></svg>