<?xml version="1.0" encoding="iso-8859-1"?>
<!-- Generator: Adobe Illustrator 19.0.0, SVG Export Plug-In . SVG Version: 6.00 Build 0)  -->
<svg xmlns="http://www.w3.org/2000/svg" xmlns:xlink="http://www.w3.org/1999/xlink" version="1.1" id="Layer_1" x="0px" y="0px" viewBox="0 0 490 490" style="enable-background:new 0 0 490 490;" xml:space="preserve" width="512" height="512">
<g>
	<path style="fill:#1DA2DD;" d="M490,245c0,135.31-109.69,245-245,245c-30.7,0-60.09-5.65-87.17-15.96   c-6.34-2.41-12.55-5.08-18.63-8C56.86,426.56,0,342.42,0,245C0,109.69,109.69,0,245,0S490,109.69,490,245z"/>
	<path style="fill:#FFD833;" d="M240.61,373.14c-8.88,60.59-53.4,88.74-82.78,100.9c-6.34-2.41-12.55-5.08-18.63-8   c8.76-20.71,20.41-57.28,9.38-86.76L240.61,373.14z"/>
	<path style="fill:#FFD833;" d="M420.592,22.495c-98.588-13.896-197.175-13.896-295.763,0C106.554,25.071,92.19,39.435,89.614,57.71   c-13.896,98.588-13.896,197.175,0,295.763c2.576,18.275,16.939,32.639,35.215,35.215c98.588,13.896,197.175,13.896,295.763,0   c18.275-2.576,32.639-16.939,35.215-35.215c13.896-98.588,13.896-197.175,0-295.763C453.23,39.435,438.867,25.071,420.592,22.495z"/>
	<g>
		<path style="fill:#F71C55;" d="M303.846,198.728c-18.414,14.396-18.749,24.44-18.749,41.849c0,6.361-3.348,13.727-19.752,13.727    c-13.727,0-18.414-5.022-18.414-22.431c0-28.792,12.723-42.519,22.432-50.888c11.048-9.374,29.796-19.753,29.796-37.832    c0-15.4-13.392-22.766-30.131-22.766c-34.149,0-26.784,25.779-44.862,25.779c-9.04,0-20.088-6.026-20.088-19.083    c0-18.079,20.757-44.862,65.954-44.862c42.854,0,71.312,23.77,71.312,55.241S312.885,191.697,303.846,198.728z M291.458,303.184    c0,13.727-11.383,25.779-25.779,25.779c-14.396,0-25.443-12.052-25.443-25.779c0-14.061,11.383-25.779,25.443-25.779    C279.74,277.405,291.458,289.122,291.458,303.184z"/>
	</g>
</g>















</svg>
