<svg id="Capa_1" enable-background="new 0 0 512 512" height="512" viewBox="0 0 512 512" width="512" xmlns="http://www.w3.org/2000/svg"><g><g><path d="m408.306 131.75h-384.774c-8.854 0-16.032 7.178-16.032 16.032v112.226c0 8.854 7.178 16.032 16.032 16.032h300.926l99.88-16.032v-112.226c.001-8.854-7.177-16.032-16.032-16.032z" fill="#ffe077"/><path d="m39.565 251.992c-4.423 0-8.016-3.593-8.016-8.016v-112.226h-8.016c-8.854 0-16.032 7.178-16.032 16.032v112.226c0 8.854 7.179 16.032 16.032 16.032h384.774c8.854 0 16.032-7.178 16.032-16.032v-8.016z" fill="#ffd05b"/><circle cx="432.355" cy="308.105" fill="#ff646f" r="72.145"/><path d="m450.002 362.603c-39.846 0-72.145-32.3-72.145-72.145 0-15.414 4.874-29.667 13.108-41.39-18.58 13.052-30.755 34.606-30.755 59.037 0 39.844 32.3 72.145 72.145 72.145 24.43 0 45.985-12.175 59.037-30.755-11.723 8.235-25.977 13.108-41.39 13.108z" fill="#fb4455"/></g><g><path d="m207.355 174.564v54.893c0 4.143 3.358 7.5 7.5 7.5s7.5-3.357 7.5-7.5v-54.893c0-4.143-3.358-7.5-7.5-7.5s-7.5 3.358-7.5 7.5z"/><path d="m321.312 182.315c4.143 0 7.5-3.357 7.5-7.5s-3.357-7.5-7.5-7.5h-22.919c-4.143 0-7.5 3.357-7.5 7.5v54.392c0 4.143 3.357 7.5 7.5 7.5h22.919c4.143 0 7.5-3.357 7.5-7.5s-3.357-7.5-7.5-7.5h-15.419v-12.196h13.729c4.143 0 7.5-3.357 7.5-7.5s-3.357-7.5-7.5-7.5h-13.729v-12.195h15.419z"/><path d="m71.169 182.315c4.142 0 7.5-3.357 7.5-7.5s-3.358-7.5-7.5-7.5h-22.918c-4.142 0-7.5 3.357-7.5 7.5v54.392c0 4.143 3.358 7.5 7.5 7.5h22.918c4.142 0 7.5-3.357 7.5-7.5s-3.358-7.5-7.5-7.5h-15.418v-12.196h13.729c4.142 0 7.5-3.357 7.5-7.5s-3.358-7.5-7.5-7.5h-13.729v-12.195h15.418z"/><path d="m90.132 235.588c1.313.926 2.82 1.37 4.313 1.37 2.357 0 4.677-1.108 6.138-3.182l14.573-20.686 14.55 20.682c1.46 2.076 3.782 3.186 6.141 3.186 1.491 0 2.997-.443 4.309-1.367 3.388-2.383 4.202-7.062 1.819-10.449l-17.642-25.078 14.921-21.18c2.386-3.386 1.574-8.065-1.812-10.45-3.387-2.388-8.065-1.575-10.451 1.812l-11.826 16.787-11.806-16.783c-2.384-3.389-7.062-4.203-10.45-1.818-3.388 2.383-4.202 7.062-1.819 10.449l14.898 21.178-17.668 25.08c-2.385 3.384-1.574 8.064 1.812 10.449z"/><path d="m279.543 188.831c0-12.002-10.126-21.767-22.573-21.767h-14.587v.001c-.006 0-.012-.001-.017-.001-4.142 0-7.5 3.357-7.5 7.5v54.893c0 4.143 3.358 7.5 7.5 7.5s7.5-3.357 7.5-7.5v-13.847l16.548 18.802c1.482 1.685 3.553 2.545 5.633 2.545 1.76 0 3.527-.616 4.952-1.87 3.109-2.736 3.411-7.476.675-10.585l-13.301-15.113c8.82-2.962 15.17-11.056 15.17-20.558zm-22.573 6.766c-1.658 0-4.382.011-7.027.022-.012-2.568-.029-10.858-.037-13.555h7.064c4.105 0 7.573 3.099 7.573 6.767 0 3.667-3.468 6.766-7.573 6.766z"/><path d="m158.395 167.064c-4.142 0-7.5 3.357-7.5 7.5v54.893c0 4.143 3.358 7.5 7.5 7.5s7.5-3.357 7.5-7.5v-16.384c2.896-.015 5.961-.027 7.785-.027 12.845 0 23.294-10.313 23.294-22.99 0-12.678-10.45-22.991-23.294-22.991h-15.285zm23.579 22.992c0 4.331-3.798 7.99-8.294 7.99-1.811 0-4.839.013-7.719.026-.015-2.986-.035-12.876-.043-16.008h7.763c4.495 0 8.293 3.66 8.293 7.992z"/><path d="m328.146 268.54h-304.614c-4.705 0-8.532-3.827-8.532-8.532v-112.226c0-4.705 3.828-8.532 8.532-8.532h384.774c4.705 0 8.532 3.827 8.532 8.532v56.113c0 4.143 3.357 7.5 7.5 7.5s7.5-3.357 7.5-7.5v-56.113c0-12.976-10.557-23.532-23.532-23.532h-384.774c-12.975 0-23.532 10.557-23.532 23.532v112.226c0 12.976 10.557 23.532 23.532 23.532h304.613c4.143 0 7.5-3.357 7.5-7.5s-3.357-7.5-7.499-7.5z"/><path d="m432.354 228.46c-43.916 0-79.645 35.729-79.645 79.645 0 43.917 35.729 79.646 79.645 79.646 43.917 0 79.646-35.729 79.646-79.646s-35.729-79.645-79.646-79.645zm0 144.29c-35.646 0-64.645-29-64.645-64.646s28.999-64.645 64.645-64.645 64.646 29 64.646 64.645-29 64.646-64.646 64.646z"/><path d="m432.354 324.747c4.143 0 7.5-3.357 7.5-7.5v-44.688c0-4.143-3.357-7.5-7.5-7.5s-7.5 3.357-7.5 7.5v44.688c0 4.143 3.358 7.5 7.5 7.5z"/><path d="m432.354 337.203c-4.143 0-7.5 3.357-7.5 7.5s3.357 7.5 7.5 7.5h.08c4.143 0 7.46-3.357 7.46-7.5s-3.397-7.5-7.54-7.5z"/><path d="m392.008 202.011c0-20.417-11.659-34.135-29.012-34.135h-15.087c-1.991 0-3.901.792-5.309 2.202-1.406 1.409-2.195 3.32-2.191 5.312l.108 53.282c.007 1.989.805 3.894 2.216 5.296 1.405 1.395 3.305 2.177 5.284 2.177h.028c.456-.002 11.219-.043 15.522-.118 16.48-.288 28.441-14.593 28.441-34.016zm-36.516 19.095c-.02-6.24-.059-31.731-.069-38.23h7.573c13.001 0 14.012 14.646 14.012 19.135 0 12.973-6.882 18.899-13.701 19.019-1.813.032-4.891.057-7.815.076z"/></g></g></svg>