<svg enable-background="new 0 0 512 512" height="512" viewBox="0 0 512 512" width="512" xmlns="http://www.w3.org/2000/svg"><g id="_x30_6_Business_Chat"><g><path d="m313.83 467.64c0 21.021-17.026 38.048-38.048 38.048h-235.554c-21.053 0-38.048-17.023-38.048-38.048 0-86.27 69.924-155.826 155.825-155.826 86.008.001 155.825 69.724 155.825 155.826z" fill="#475da9"/><path d="m313.821 467.623c0 21.003-17.037 38.038-38.04 38.038h-235.553c-18.11 0-33.432-12.697-37.145-29.939 2.569.614 5.306.893 8.099.893h143.89c79.374 0 116.241-86.86 81.385-143.555 46.307 26.98 77.364 77.14 77.364 134.563z" opacity=".12"/><path d="m191.226 292.269v31.227c0 18.348-14.874 33.221-33.221 33.221-18.348 0-33.221-14.874-33.221-33.221v-31.227z" fill="#e77c6a"/><path d="m108.074 101.433v100.417h-45.078v-100.417c0-12.448 10.091-22.539 22.539-22.539 12.448 0 22.539 10.091 22.539 22.539z" fill="#474747"/><path d="m253.014 101.433v100.417h-144.94v-100.417c0-12.448 10.091-22.539 22.539-22.539h99.862c12.448 0 22.539 10.091 22.539 22.539z" fill="#474747"/><path d="m259.612 205.579c-2.072 13.866-10.572 24.225-18.859 22.897-.16 0-.372-.053-.478-.106v13.547c0 22.685-20.613 41.862-41.119 55.409-.266.106-.425.266-.691.372-12.272 8.022-26.35 12.06-40.481 12.06s-28.209-4.038-40.481-12.06c-.266-.106-.425-.266-.691-.372-20.506-13.547-41.119-32.725-41.119-55.409v-13.547c-.106.053-.319.106-.478.106-8.288 1.328-16.787-9.031-18.859-22.897-2.125-13.866 3.028-26.19 11.369-27.412 2.815-.425 5.578.372 8.128 2.231 1.86-22.578 20.931-40.375 43.988-40.375h76.288c23.056 0 42.128 17.797 43.988 40.375 2.55-1.859 5.313-2.656 8.128-2.231 8.339 1.222 13.493 13.547 11.367 27.412z" fill="#f1b2a3"/><path d="m166.476 383.086 12.03 96.446-20.501 21.66-20.501-21.66 12.03-96.446z" fill="#e8f1f8"/><path d="m178.502 356.641-12.014 26.438h-16.959l-12.013-26.438z" fill="#e8f1f8"/><path d="m192.258 312.98-34.242 42.547 19.516 14.821c8.958 6.803 21.9 3.724 26.834-6.385l17.176-35.186c2.144-4.392.219-9.686-4.245-11.675l-14.798-6.595c-3.579-1.596-7.784-.58-10.241 2.473z" fill="#1c40a5"/><path d="m123.752 312.98 34.242 42.547-19.516 14.821c-8.958 6.803-21.9 3.724-26.834-6.385l-17.176-35.186c-2.144-4.392-.219-9.686 4.245-11.675l14.798-6.595c3.578-1.596 7.783-.58 10.241 2.473z" fill="#1c40a5"/><path d="m509.82 83.363c0 42.552-53.214 77.051-118.862 77.051-7.312 0-14.495-.418-21.453-1.288-13.883 16.524-34.692 27.058-57.982 27.058-7.57 0-14.882-1.095-21.775-3.188 12.402-10.275 22.098-23.676 27.928-39.008-27.735-14.046-45.58-35.982-45.58-60.624 0-42.552 53.214-77.051 118.862-77.051 65.648-.001 118.862 34.498 118.862 77.05z" fill="#0e9c4a"/><path d="m509.82 83.363c0 42.552-53.214 77.051-118.862 77.051-7.312 0-14.495-.418-21.453-1.288-13.883 16.524-34.692 27.058-57.982 27.058-7.57 0-14.882-1.095-21.775-3.188 8.117-6.732 15.075-14.785 20.551-23.87 5.863-2.416 11.339-5.508 16.364-9.212 9.921-7.344 21.969-11.016 34.306-10.985h.226c65.648 0 118.862-34.499 118.862-77.051 0-14.527-6.185-28.121-16.976-39.718 28.411 14.044 46.739 36.239 46.739 61.203z" opacity=".12"/><g><path d="m395.774 116.481h-24.197c-2.2 0-3.984-1.785-3.984-3.984 0-2.2 1.785-3.984 3.984-3.984h24.197c5.831 0 10.578-4.747 10.578-10.584 0-5.834-4.747-10.581-10.578-10.581h-9.629c-10.231 0-18.552-8.322-18.552-18.552s8.322-18.552 18.552-18.552h24.192c2.2 0 3.984 1.785 3.984 3.984s-1.785 3.984-3.984 3.984h-24.192c-5.836 0-10.583 4.747-10.583 10.584s4.747 10.584 10.583 10.584h9.629c10.226 0 18.547 8.322 18.547 18.55 0 10.23-8.322 18.551-18.547 18.551z" fill="#fff"/></g><g><path d="m390.954 128.588c-2.2 0-3.984-1.785-3.984-3.984v-12.106c0-2.2 1.785-3.984 3.984-3.984s3.984 1.785 3.984 3.984v12.106c0 2.199-1.784 3.984-3.984 3.984z" fill="#fff"/></g><g><path d="m390.954 58.212c-2.2 0-3.984-1.785-3.984-3.984v-12.106c0-2.2 1.785-3.984 3.984-3.984s3.984 1.785 3.984 3.984v12.106c0 2.2-1.784 3.984-3.984 3.984z" fill="#fff"/></g></g></g></svg>