<svg height="429pt" viewBox="0 -6 429.46834 429" width="429pt" xmlns="http://www.w3.org/2000/svg"><path d="m320.851562 160.660156c0 88.601563-71.824218 160.425782-160.425781 160.425782-88.601562 0-160.425781-71.824219-160.425781-160.425782 0-88.601562 71.824219-160.425781 160.425781-160.425781 88.601563 0 160.425781 71.824219 160.425781 160.425781zm0 0" fill="#edebdc"/><path d="m322.796875 409.835938h-215.515625c-14.007812 0-25.359375-11.359376-25.359375-25.363282v-311.089844c0-14.003906 11.351563-25.363281 25.359375-25.363281h215.515625c14.007813 0 25.363281 11.359375 25.363281 25.363281v311.085938c0 14.007812-11.355468 25.367188-25.363281 25.367188zm0 0" fill="#fff"/><path d="m322.796875 416.660156h-215.515625c-17.746094 0-32.1875-14.4375-32.1875-32.1875v-311.089844c0-17.75 14.441406-32.1875 32.1875-32.1875h215.515625c17.746094 0 32.1875 14.4375 32.1875 32.1875v311.085938c.003906 17.753906-14.4375 32.191406-32.1875 32.191406zm-215.515625-361.8125c-10.21875 0-18.535156 8.316406-18.535156 18.535156v311.085938c0 10.21875 8.316406 18.535156 18.535156 18.535156h215.515625c10.21875 0 18.535156-8.316406 18.535156-18.535156v-311.085938c0-10.21875-8.316406-18.535156-18.535156-18.535156zm0 0" fill="#4c241d"/><path d="m252.597656 309.65625-42.613281-26.308594c-5.882813-3.632812-7.710937-11.347656-4.078125-17.230468 3.632812-5.882813 11.34375-7.710938 17.230469-4.078126l42.613281 26.308594c5.882812 3.632813 7.710938 11.34375 4.078125 17.230469-3.632813 5.882813-11.347656 7.710937-17.230469 4.078125zm0 0" fill="#6b4f5b"/><path d="m259.136719 318.351562c-3.546875 0-7.03125-.976562-10.128907-2.886718l-42.613281-26.308594c-9.070312-5.605469-11.898437-17.546875-6.296875-26.621094 2.714844-4.402344 6.980469-7.480468 12.007813-8.667968 5.023437-1.1875 10.222656-.351563 14.617187 2.367187l42.613282 26.304687c4.394531 2.714844 7.476562 6.980469 8.664062 12.007813 1.1875 5.03125.347656 10.21875-2.367188 14.617187-2.710937 4.394532-6.972656 7.472657-12.003906 8.660157-1.492187.355469-2.996094.527343-4.492187.527343zm-42.566407-51.351562c-.441406 0-.882812.050781-1.320312.15625-1.480469.347656-2.738281 1.253906-3.53125 2.546875-1.652344 2.671875-.820312 6.1875 1.851562 7.839844l42.613282 26.300781c1.289062.800781 2.824218 1.042969 4.300781.699219 1.480469-.351563 2.738281-1.253907 3.535156-2.546875.796875-1.296875 1.042969-2.824219.695313-4.304688-.347656-1.480468-1.253906-2.734375-2.550782-3.53125l-42.613281-26.308594c-.910156-.5625-1.9375-.851562-2.980469-.851562zm0 0" fill="#4c241d"/><path d="m178.148438 366.691406 14.203124 8.769532 52.003907-36.5625-1.5-35.972657-23.480469-14.492187-31.839844 15.386718zm0 0" fill="#ffce56"/><g fill="#4c241d"><path d="m192.351562 382.285156c-1.242187 0-2.480468-.335937-3.585937-1.015625l-14.203125-8.769531c-2.324219-1.4375-3.570312-4.117188-3.164062-6.816406l9.386718-62.871094c.332032-2.234375 1.746094-4.15625 3.78125-5.140625l31.839844-15.386719c2.101562-1.007812 4.574219-.878906 6.558594.335938l23.476562 14.492187c1.925782 1.191407 3.140625 3.261719 3.234375 5.527344l1.5 35.96875c.097657 2.320313-.992187 4.53125-2.894531 5.867187l-52 36.5625c-1.179688.832032-2.550781 1.246094-3.929688 1.246094zm-6.785156-19.039062 6.542969 4.039062 45.265625-31.828125-1.191406-28.621093-17.207032-10.625-25.21875 12.1875zm0 0"/><path d="m228.464844 321.359375c0 6.914063-5.605469 12.519531-12.519532 12.519531-6.914062 0-12.519531-5.605468-12.519531-12.519531s5.605469-12.519531 12.519531-12.519531c6.914063 0 12.519532 5.605468 12.519532 12.519531zm0 0"/><path d="m185.742188 378.472656c-1.222657 0-2.460938-.328125-3.578126-1.019531-3.207031-1.984375-4.203124-6.1875-2.226562-9.394531l28.617188-46.355469c1.984374-3.207031 6.195312-4.199219 9.398437-2.222656 3.207031 1.984375 4.203125 6.1875 2.222656 9.394531l-28.617187 46.355469c-1.292969 2.089843-3.527344 3.242187-5.816406 3.242187zm0 0"/></g><path d="m315.117188 208.210938c2.722656-15.167969 8.027343-29.53125 15.359374-42.730469l62.835938-113.109375c9.664062 2.761718 20.351562-.972656 25.890625-9.945313 6.679687-10.820312 3.324219-25.007812-7.496094-31.6875-10.820312-6.679687-25.007812-3.324219-31.6875 7.496094-4.90625 7.941406-4.355469 17.675781.535157 24.945313l-73.59375 107.785156c-8.515626 12.46875-18.976563 23.644531-31.320313 32.875-59.546875 44.53125-50.578125 78.488281-50.578125 78.488281l21.0625 13.003906.429688.265625 21.0625 13.003906c0-.003906 34.371093-7.199218 47.5-80.390624zm0 0" fill="#bf7e68"/><path d="m267.617188 295.425781c-1.257813 0-2.5-.347656-3.589844-1.019531l-42.554688-26.269531c-1.484375-.921875-2.566406-2.378907-3.011718-4.066407-.414063-1.566406-9.425782-38.945312 53.085937-85.699218 11.421875-8.539063 21.4375-19.054688 29.773437-31.257813l71.21875-104.304687c-4.148437-8.996094-3.613281-19.609375 1.667969-28.160156 4.1875-6.785157 10.769531-11.53125 18.527344-13.367188 7.777344-1.828125 15.773437-.535156 22.554687 3.644531 6.785157 4.191407 11.53125 10.773438 13.367188 18.53125 1.835938 7.757813.539062 15.765625-3.648438 22.554688-5.980468 9.675781-17.015624 14.964843-28.105468 13.949219l-60.464844 108.839843c-7.171875 12.90625-12.085938 26.570313-14.605469 40.617188v.003906c-13.785156 76.832031-51.234375 85.523437-52.820312 85.859375-.460938.097656-.929688.144531-1.394531.144531zm-36.1875-37.191406 36.980468 22.832031c7.152344-3.300781 29.929688-17.988281 39.988282-74.058594v.003907c2.789062-15.53125 8.207031-30.617188 16.109374-44.84375l62.835938-113.109375c1.542969-2.773438 4.796875-4.125 7.839844-3.246094 6.960937 1.972656 14.449218-.878906 18.207031-6.972656 2.273437-3.679688 2.976563-8.027344 1.980469-12.238282-.996094-4.210937-3.570313-7.78125-7.253906-10.054687-3.679688-2.273437-8.027344-2.976563-12.234376-1.976563-4.210937.996094-7.78125 3.570313-10.054687 7.25-3.320313 5.375-3.167969 12.261719.390625 17.542969 1.558594 2.320313 1.550781 5.355469-.027344 7.664063l-73.597656 107.785156c-9.183594 13.449219-20.238281 25.054688-32.871094 34.496094-45.675781 34.164062-48.578125 61.054687-48.292968 68.925781zm83.6875-50.019531h.066406zm0 0" fill="#4c241d"/><path d="m167 238.644531c-14.148438 0-26.226562-14.738281-36.902344-44.992187-.511718-1.441406-1-2.867188-1.464844-4.273438-9.238281 5.230469-15.996093 7.988282-16.871093 8.34375-3.515625 1.382813-7.464844-.304687-8.867188-3.800781-1.402343-3.5.296875-7.472656 3.792969-8.878906.21875-.085938 7.789062-3.191407 17.921875-9.226563-15.464844-59.515625 7.8125-85.550781 15.941406-92.515625 11.382813-9.757812 25.769531-12.265625 36.675781-6.402343 10.742188 5.78125 15.800782 17.953124 13.867188 33.410156-4.226562 33.828125-29.5625 57.554687-50.5 71.675781.734375 2.332031 1.523438 4.703125 2.378906 7.125 11.617188 32.917969 20.855469 35.933594 24.386719 35.871094 15.804687-.816407 35.871094-54.074219 44.457031-89.804688.773438-3.222656 3.84375-5.386719 7.066406-5.222656 3.308594.207031 5.992188 2.765625 6.355469 6.0625l1.457031 13.101563c4.996094-20.332032 11.878907-36.066407 21.28125-37.429688 10.460938-1.480469 15.90625 11.34375 17.714844 15.5625 4.5625 10.644531 7.507813 11.796875 7.539063 11.8125 3.480469-1.578125 10.375-19.875 13.605469-37.648438.675781-3.707031 4.203124-6.167968 7.933593-5.496093 3.710938.671875 6.171875 4.230469 5.496094 7.933593-2.554687 14.066407-10.199219 46.96875-25.90625 48.746094-10.941406 1.234375-17.296875-10.8125-21.214844-19.96875-1.570312-3.660156-2.832031-5.613281-3.628906-6.625-5.628906 6.851563-13.496094 39.375-17.453125 73-.402344 3.441406-3.320312 6.027344-6.78125 6.027344-.007812 0-.011719 0-.023438 0-3.46875-.007812-6.378906-2.621094-6.761718-6.074219l-3.023438-27.234375c-9.851562 29.269532-26.324218 65.796875-47.398437 66.886719-.363281.027344-.722657.035156-1.074219.035156zm-2.609375-151.242187c-4.804687 0-10.179687 2.175781-14.957031 6.269531-12.707032 10.886719-21.503906 35.59375-12.683594 74.195313 17.785156-12.8125 37.472656-32.683594 40.792969-59.253907 1.195312-9.554687-1.277344-16.730469-6.785157-19.6875-1.90625-1.027343-4.070312-1.523437-6.367187-1.523437zm0 0" fill="#4c241d"/></svg>