<svg id="Layer_1" height="512" viewBox="0 0 256 256" width="512" xmlns="http://www.w3.org/2000/svg"><g><g><g><g><g><g><circle cx="128" cy="132.119" fill="#478cf7" r="91.5"/></g></g><g><g><path d="m46.304 108.876c-.196 0-.395-.029-.592-.09-1.055-.327-1.646-1.447-1.319-2.502 5.979-19.312 18.623-36.107 35.601-47.291.922-.608 2.162-.352 2.771.57.607.922.352 2.163-.57 2.771-16.207 10.675-28.274 26.703-33.98 45.132-.267.859-1.058 1.41-1.911 1.41zm41.667-50.293c-.715 0-1.407-.384-1.767-1.059-.52-.975-.151-2.187.823-2.706l.167-.088c.978-.512 2.187-.135 2.7.843.513.979.135 2.188-.843 2.7l-.141.075c-.299.159-.621.235-.939.235z" fill="#5e9cf7"/></g></g><g><g><path d="m187.505 62.614c13.71 15.999 21.995 36.783 21.995 59.505 0 50.534-40.966 91.5-91.5 91.5-22.722 0-43.506-8.285-59.505-21.995 16.782 19.583 41.692 31.995 69.505 31.995 50.534 0 91.5-40.966 91.5-91.5 0-27.812-12.411-52.723-31.995-69.505z" fill="#377de2"/></g></g><g><g><path d="m190.148 64.971c15.112 16.319 24.352 38.153 24.352 62.148 0 50.534-40.966 91.5-91.5 91.5-23.995 0-45.829-9.241-62.148-24.352 16.713 18.049 40.609 29.352 67.148 29.352 50.534 0 91.5-40.966 91.5-91.5 0-26.539-11.302-50.434-29.352-67.148z" fill="#2266d3"/></g></g></g><g><g><path d="m242.983 130.119c-.625-36.632-18.385-69.081-45.604-89.701-2.263-1.715-5.511-1.156-7.117 1.186l-7.779 11.349c-1.515 2.21-.997 5.194 1.126 6.828 21.68 16.68 35.66 42.868 35.66 72.338 0 50.84-41.568 91.971-92.57 91.261-48.691-.678-88.627-40.069-89.935-88.747-1.245-46.323 32.043-85.092 75.981-92.489v5.211c0 1.611 1.807 2.561 3.133 1.648l26.509-18.235c1.155-.795 1.155-2.501 0-3.296l-26.508-18.236c-1.327-.913-3.133.037-3.133 1.648v7.247c-56.301 7.463-99.746 55.648-99.746 113.988 0 64.06 52.379 115.887 116.646 114.989 62.708-.877 114.407-54.284 113.337-116.989z" fill="#ffc91d"/></g></g><g><g><g><path d="m206.72 48.292c19.391 20.584 31.28 48.315 31.28 78.827 0 64.06-52.379 115.887-116.646 114.989-29.391-.411-56.365-12.362-76.619-31.402 20.703 21.924 49.735 35.956 81.619 36.402 64.267.898 116.646-50.929 116.646-114.989 0-33.056-13.949-62.851-36.28-83.827z" fill="#ffa91a"/></g></g></g></g></g><g><g><g><g><g><circle cx="128" cy="134.302" fill="#f1f2f2" r="72.5"/></g></g><g><g><g><g><path d="m128 78.089c-1.104 0-2-.896-2-2v-8.425c0-1.104.896-2 2-2s2 .896 2 2v8.425c0 1.104-.895 2-2 2z" fill="#414042"/></g></g><g><g><path d="m128 202.94c-1.104 0-2-.896-2-2v-8.425c0-1.104.896-2 2-2s2 .896 2 2v8.425c0 1.104-.895 2-2 2z" fill="#414042"/></g></g></g><g><g><g><path d="m69.788 136.302h-8.425c-1.104 0-2-.896-2-2s.896-2 2-2h8.425c1.104 0 2 .896 2 2s-.896 2-2 2z" fill="#414042"/></g></g><g><g><path d="m194.639 136.302h-8.425c-1.104 0-2-.896-2-2s.896-2 2-2h8.425c1.104 0 2 .896 2 2s-.896 2-2 2z" fill="#414042"/></g></g></g><path d="m128 127.791c1.968 0 3.729.877 4.923 2.258l-4.159-59.605c-.066-.95-1.462-.95-1.528 0l-4.158 59.605c1.194-1.381 2.954-2.258 4.922-2.258z" fill="#e63950"/><path d="m128 140.812c-3.02 0-5.552-2.059-6.288-4.847l-16.761 37.093c-.381.843.781 1.513 1.32.762l24.004-33.425c-.709.266-1.473.417-2.275.417z" fill="#e63950"/><g><g><circle cx="128" cy="134.302" fill="#414042" r="6.511"/></g></g></g><g><g><path d="" fill="none"/></g></g></g></g></g></g></svg>