<svg id="Capa_1" enable-background="new 0 0 512 512" height="512" viewBox="0 0 512 512" width="512" xmlns="http://www.w3.org/2000/svg"><path d="m109.268 124.358h-49.951v-21.22c0-5.523 4.477-10 10-10h29.951c5.523 0 10 4.477 10 10z" fill="#f4dd45"/><path d="m402.732 124.358h49.951v-21.22c0-5.523-4.477-10-10-10h-29.951c-5.523 0-10 4.477-10 10z" fill="#f4dd45"/><path d="m492 474.016h-472c-11.046 0-20-8.954-20-20v-309.658c0-11.046 8.954-20 20-20h472c11.046 0 20 8.954 20 20v309.659c0 11.045-8.954 19.999-20 19.999z" fill="#c17d4f"/><path d="m495.35 124.776v319.062c0 5.747-4.659 10.406-10.406 10.406h-484.891c.546 11.008 9.617 19.772 20.76 19.772h470.374c11.495 0 20.813-9.318 20.813-20.813v-308.032c0-10.069-7.151-18.467-16.65-20.395z" fill="#b16e3d"/><path d="m109.268 124.358h44.748v349.659h-44.748z" fill="#985e33"/><path d="m109.268 278.374h44.748v62.439h-44.748z" fill="#f4dd45"/><path d="m256 69.203h69.724v55.154h31.22v-65.56c0-11.495-9.318-20.813-20.813-20.813h-80.131-81.171c-11.495 0-20.813 9.318-20.813 20.813v65.561h31.22v-55.155z" fill="#595959"/><path d="m342.011 38.84c.894 2.321 1.404 4.833 1.404 7.469v59.317c0 3.448-2.796 6.244-6.244 6.244h-11.447v12.488h31.22v-65.561c-.001-9.451-6.305-17.418-14.933-19.957z" fill="#454545"/><path d="m165.463 111.87h-11.447v12.488h31.22v-55.155h-7.285c-3.448 0-6.244 2.795-6.244 6.244v30.179c0 3.448-2.795 6.244-6.244 6.244z" fill="#454545"/><path d="m357.984 124.358h44.748v349.659h-44.748z" fill="#985e33"/><path d="m357.984 278.374h44.748v62.439h-44.748z" fill="#f4dd45"/><g fill="#595959"><path d="m109.268 317.32h44.748v-15.453h-44.748z"/><path d="m357.984 317.32h44.748v-15.453h-44.748z"/></g></svg>