<?xml version="1.0" encoding="iso-8859-1"?>
<!-- Generator: Adobe Illustrator 19.0.0, SVG Export Plug-In . SVG Version: 6.00 Build 0)  -->
<svg version="1.1" id="Capa_1" xmlns="http://www.w3.org/2000/svg" xmlns:xlink="http://www.w3.org/1999/xlink" x="0px" y="0px"
	 viewBox="0 0 512 512" style="enable-background:new 0 0 512 512;" xml:space="preserve">
<path style="fill:#6EC8E0;" d="M512,256c0,53.279-16.279,102.766-44.136,143.736c-40.364,59.402-105.064,100.927-179.764,110.268
	C277.588,511.321,266.877,512,256,512c-10.877,0-21.588-0.679-32.099-1.996c-74.7-9.341-139.4-50.866-179.764-110.268
	C16.28,358.766,0,309.279,0,256C0,114.615,114.615,0,256,0S512,114.615,512,256z"/>
<g>
	<path style="fill:#F9435C;" d="M385.797,9.939L278.166,56.947v45.656H416.59c14.538,0,26.323-11.785,26.323-26.323V47.32
		C442.913,17.915,412.744-1.83,385.797,9.939z"/>
	<path style="fill:#F9435C;" d="M126.197,9.939l107.63,47.008v45.656H95.403c-14.538,0-26.323-11.785-26.323-26.323V47.32
		C69.08,17.915,99.25-1.83,126.197,9.939z"/>
</g>
<path style="fill:#FFDE51;" d="M467.863,181.352v218.384C421.815,467.498,344.106,512,256,512S90.185,467.498,44.136,399.736
	V181.352H467.863z"/>
<polygon style="fill:#EAC420;" points="467.861,197.94 467.861,231.149 447.876,231.149 64.117,231.149 44.132,231.149 
	44.132,197.94 "/>
<g>
	<path style="fill:#D31C36;" d="M169.82,53.387l62.395,13.398v25.068h-66.479c-10.742,0-19.45-8.708-19.45-19.45l0,0
		C146.287,60.018,157.71,50.787,169.82,53.387z"/>
	<path style="fill:#D31C36;" d="M342.174,53.387l-62.395,13.398v25.068h66.479c10.742,0,19.45-8.708,19.45-19.45l0,0
		C365.707,60.018,354.284,50.787,342.174,53.387z"/>
</g>
<path style="fill:#FFDE51;" d="M489.928,116.241v59.633c0,12.187-9.879,22.066-22.066,22.066l0,0H44.132l0,0
	c-12.187,0-22.066-9.88-22.066-22.066v-59.633c0-7.872,6.381-14.253,14.253-14.253h439.355
	C483.546,101.987,489.928,108.368,489.928,116.241z"/>
<path style="fill:#F9435C;" d="M288.099,66.644v443.361C277.588,511.321,266.877,512,256,512c-10.877,0-21.588-0.679-32.099-1.996
	V66.644c0-17.93,13.761-32.455,30.751-32.455h2.696C274.328,34.189,288.099,48.713,288.099,66.644z"/>
<g>
	<path style="fill:#D31C36;" d="M257.344,34.192h-2.694c-16.986,0-30.75,14.524-30.75,32.448v31.364
		c0-17.924,13.764-32.448,30.75-32.448h2.694c16.986,0,30.75,14.524,30.75,32.448V66.64
		C288.094,48.716,274.331,34.192,257.344,34.192z"/>
	<rect x="223.901" y="197.945" style="fill:#D31C36;" width="64.199" height="33.21"/>
</g>
<g>
</g>
<g>
</g>
<g>
</g>
<g>
</g>
<g>
</g>
<g>
</g>
<g>
</g>
<g>
</g>
<g>
</g>
<g>
</g>
<g>
</g>
<g>
</g>
<g>
</g>
<g>
</g>
<g>
</g>
</svg>
