<svg id="Capa_1" enable-background="new 0 0 512 512" height="512" viewBox="0 0 512 512" width="512" xmlns="http://www.w3.org/2000/svg"><path d="m250.791 430.398c-26.847 0-51.955-7.602-73.307-20.766v11.408l24.811 90.96h107.452l24.768-90.96v-11.408c-21.353 13.164-46.461 20.766-73.307 20.766z"/><path d="m371.645 156.99c-20.852.765-64.174 5.05-90.066 26.573-7.152 5.945-16.215 9.218-25.521 9.218-9.557 0-18.808-3.431-26.05-9.66-27.47-23.63-66.155-27.159-86.769-27.159-.968 0-1.925.019-2.885.034v133.506c0 61.246 49.444 110.895 110.437 110.895h10.417c60.993 0 110.437-49.649 110.437-110.895z"/><path d="m52.778 30h70.104v86.211c0 5.717 4.776 10.265 10.486 9.987 22.558-1.097 76.835.313 116.204 34.179 3.673 3.159 9.105 3.212 12.83.115 36.382-30.242 93.797-33.605 116.751-33.656 5.512-.012 9.965-4.488 9.965-9.999v-86.837h55.104v52.807c0 8.284 6.716 15 15 15s15-6.716 15-15v-67.807c0-.456-.024-.871-.064-1.259-.64-7.693-7.077-13.741-14.936-13.741h-406.444c-8.284 0-15 6.716-15 15s6.716 15 15 15z"/><path d="m147.484 414.393c-15.382 4.816-35.845 11.544-56.507 19.288-24.294 9.106-43.782 17.739-57.92 25.659-15.391 8.622-33.057 20.694-33.057 37.66 0 8.284 6.716 15 15 15h156.199l-23.715-86.942z"/><path d="m478.942 459.34c-14.138-7.919-33.626-16.552-57.92-25.659-20.662-7.745-41.125-14.472-56.507-19.288v10.658l-23.675 86.949h156.16c8.284 0 15-6.716 15-15 0-16.966-17.667-29.038-33.058-37.66z"/><path d="m68.428 235.501c0 23.321 18.704 42.262 41.927 42.671v-85.349c-23.224.409-41.927 19.35-41.927 42.671z"/><path d="m401.645 278.171c23.224-.409 41.927-19.349 41.927-42.671v-.007c0-23.321-18.704-42.262-41.927-42.671z"/></svg>