<svg id="Capa_1" enable-background="new 0 0 512 512" height="512" viewBox="0 0 512 512" width="512" xmlns="http://www.w3.org/2000/svg"><g><path d="m512 256c0 67.63-26.23 129.14-69.07 174.9-12.3 13.14-38.887-5.924-53.697 4.396-7.62 5.31-2.623 41.124-10.823 45.584-36.36 19.84-78.07 31.12-122.41 31.12-141.38 0-256-114.62-256-256s114.62-256 256-256 256 114.62 256 256z" fill="#80b4fb"/><g fill="#5e54ac"><path d="m111.967 37.091c-.062-.163-.127-.326-.193-.488-3.24-7.879-10.834-12.966-19.352-12.966-.007 0-.014 0-.021 0-8.526.008-16.12 5.111-19.349 13.002-.056.135-.109.27-.16.406l-50.941 133.755c-3.509 9.214 1.115 19.528 10.329 23.036 2.092.797 4.239 1.174 6.35 1.174 7.194 0 13.973-4.38 16.686-11.502l8.308-21.814h57.204l8.213 21.763c3.481 9.222 13.778 13.882 23.005 10.398 9.225-3.481 13.88-13.78 10.4-23.005zm-34.745 88.899 15.135-39.74 14.997 39.74z"/><path d="m294.531 96.669c4.722-7.538 7.464-16.437 7.464-25.97 0-27.056-22.011-49.068-49.068-49.068h-39.407c-9.859 0-17.852 7.993-17.852 17.852v135.664c0 4.748 1.892 9.301 5.257 12.651 3.346 3.331 7.875 5.201 12.595 5.201h.079c.363-.002 36.361-.161 46.21-.161 29.979 0 54.369-24.39 54.369-54.369-.001-16.788-7.652-31.819-19.647-41.8zm-41.604-39.334c7.37 0 13.364 5.995 13.364 13.365 0 7.369-5.995 13.364-13.364 13.364-2.956 0-8.491.016-14.499.037h-7.057v-26.766zm6.882 99.799c-5.233 0-17.733.044-28.437.087v-37.39c2.393-.009 4.838-.018 7.207-.027h21.23c10.291 0 18.665 8.373 18.665 18.665s-8.374 18.665-18.665 18.665z"/><path d="m482.285 142.322c-7.553-6.338-18.814-5.351-25.15 2.202-1.159 1.381-2.403 2.667-3.702 3.823-6.668 5.937-15.198 8.948-25.356 8.948-27.56 0-49.981-22.421-49.981-49.98 0-27.56 22.422-49.981 49.981-49.981 10.018 0 19.676 2.948 27.932 8.525 8.17 5.521 19.268 3.37 24.787-4.799 5.519-8.17 3.37-19.267-4.799-24.785-14.181-9.58-30.751-14.644-47.919-14.644-47.247 0-85.685 38.438-85.685 85.684s38.438 85.683 85.685 85.683c18.907 0 35.886-6.22 49.101-17.989 2.584-2.302 5.043-4.838 7.308-7.538 6.336-7.551 5.351-18.812-2.202-25.149z"/></g><g><path d="m442.93 430.9c-12.3 13.14-25.97 24.98-40.78 35.3-7.62 5.31-15.54 10.22-23.74 14.68l-143.56-143.56 57.25-57.25z" fill="#8078bc"/><path d="m402.15 466.2c-7.62 5.31-15.54 10.22-23.74 14.68l-143.56-143.56 19.21-19.2z" fill="#6b61b1"/><circle cx="257.161" cy="302.789" fill="#f6e266" r="173.413"/><path d="m269.849 475.74c-4.187.309-8.418.463-12.687.463-95.77 0-173.414-77.644-173.414-173.414s77.644-173.414 173.414-173.414c4.268 0 8.5.154 12.687.463-89.858 6.493-160.728 81.449-160.728 172.951s70.869 166.458 160.728 172.951z" fill="#ffc250"/><circle cx="257.161" cy="302.789" fill="#ffc250" r="138.118"/><path d="m375.07 302.79c0 51.38-32.86 95.09-78.73 111.24-12.25 4.32-25.44 6.67-39.18 6.67-18.97 0-36.89-4.48-52.78-12.45-38.62-19.36-65.13-59.31-65.13-105.46 0-38.15 18.12-72.07 46.21-93.61 19.87-15.24 44.73-19.3 71.7-19.3 36.69 0 69.47 11.76 91.1 38.04 16.75 20.36 26.81 46.44 26.81 74.87z" fill="#f9f6f9"/><path d="m248.849 408.254c9.517 4.771 19.769 8.296 30.541 10.351-7.198 1.378-14.627 2.097-22.229 2.097-18.977 0-36.897-4.482-52.778-12.447-38.622-19.365-65.134-59.315-65.134-105.465 0-65.126 52.786-117.912 117.912-117.912 7.602 0 15.031.718 22.229 2.096-54.495 10.392-95.675 58.292-95.675 115.816 0 46.149 26.513 86.1 65.134 105.464z" fill="#dddaec"/><path d="m357.81 353.08c-1.8 3.37-5.26 5.28-8.82 5.28-1.6 0-3.22-.38-4.72-1.19l-32.59-17.47-32.59 17.47c-2.95 1.58-6.5 1.58-9.45 0l-32.58-17.47-32.59 17.47c-2.17 1.16-4.66 1.47-7 .92-.84-.19-1.67-.5-2.45-.92l-37.31-20c-4.86-2.61-6.69-8.67-4.08-13.54 2.61-4.86 8.67-6.7 13.53-4.09l19.75 10.58 12.84 6.89 32.58-17.47c2.96-1.58 6.5-1.58 9.45 0l32.59 17.47 32.59-17.47c2.95-1.58 6.5-1.58 9.45 0l37.31 20c4.87 2.61 6.7 8.67 4.09 13.54z" fill="#dd636e"/><path d="m197.47 358.09c-.84-.19-1.67-.5-2.45-.92l-37.31-20c-4.86-2.61-6.69-8.67-4.08-13.54 2.61-4.86 8.67-6.7 13.53-4.09l19.75 10.58c2.34 9.86 5.91 19.24 10.56 27.97z" fill="#da4a54"/><path d="m279.39 186.97h-.01c-7.2-1.37-14.63-2.09-22.22-2.09-26.97 0-51.83 9.06-71.7 24.3v64.42c0 1.88.22 3.73.64 5.53 1.03 4.46 3.3 8.59 6.59 11.87 4.6 4.58 10.83 7.15 17.32 7.15h.11c.5 0 50-.22 63.54-.22 39.63 0 72.15-30.99 74.6-70.01-17.15-20.84-41.31-35.69-68.87-40.95zm-5.73 61.86c-7.19 0-24.38.06-39.1.12v-51.41c3.29-.02 6.65-.03 9.91-.04h29.19c14.15 0 25.67 11.51 25.67 25.67 0 14.15-11.52 25.66-25.67 25.66z" fill="#8078bc"/><path d="m279.38 186.97c-10.91 2.08-21.28 5.67-30.89 10.53h-4.02c-3.26.01-6.62.02-9.91.04v8.26c-24.53 16.99-42.3 43.05-48.46 73.33-.42-1.8-.64-3.65-.64-5.53v-64.42c19.87-15.24 44.73-24.3 71.7-24.3 7.59 0 15.02.72 22.22 2.09z" fill="#6b61b1"/></g></g></svg>