<svg id="owl-letters" enable-background="new 0 0 300 300" height="512" viewBox="0 0 300 300" width="512" xmlns="http://www.w3.org/2000/svg"><g><path d="m70 102c-6.617 0-12-5.383-12-12s5.383-12 12-12 12 5.383 12 12-5.383 12-12 12zm0-16c-2.207 0-4 1.793-4 4s1.793 4 4 4 4-1.793 4-4-1.793-4-4-4z" fill="#4c241d"/><circle cx="94" cy="50" fill="#4c241d" r="4"/><circle cx="160" cy="184" fill="#e5efef" r="86"/><g><path d="m91.893 220h-33.893v-62c0-19.882 16.118-36 36-36 19.882 0 36 16.118 36 36v23.893c0 21.046-17.061 38.107-38.107 38.107z" fill="#6b4f5b"/><path d="m91.895 224h-33.895c-2.211 0-4-1.789-4-4v-62c0-22.055 17.945-40 40-40s40 17.945 40 40v23.895c0 23.218-18.887 42.105-42.105 42.105zm-29.895-8h29.895c18.804 0 34.105-15.301 34.105-34.105v-23.895c0-17.645-14.355-32-32-32s-32 14.355-32 32z" fill="#4c241d"/></g><g><path d="m34 222h232v12h-232z" fill="#bf7e68"/><path d="m266 238h-232c-2.211 0-4-1.789-4-4v-12c0-2.211 1.789-4 4-4h232c2.211 0 4 1.789 4 4v12c0 2.211-1.789 4-4 4zm-228-8h224v-4h-224z" fill="#4c241d"/></g><g><path d="m58 234v-72h36v36c0 19.882-16.118 36-36 36z" fill="#bf7e68"/><path d="m58 238c-2.211 0-4-1.789-4-4v-72c0-2.211 1.789-4 4-4h36c2.211 0 4 1.789 4 4v36c0 22.055-17.945 40-40 40zm4-72v63.75c15.762-1.973 28-15.461 28-31.75v-32z" fill="#4c241d"/></g><g><path d="m110 140c-6.553 0-12.352 3.166-16 8.036-3.648-4.87-9.447-8.036-16-8.036-11.046 0-20 8.954-20 20s8.954 20 20 20c6.553 0 12.352-3.166 16-8.036 3.648 4.87 9.447 8.036 16 8.036 11.046 0 20-8.954 20-20s-8.954-20-20-20z" fill="#ffe8dc"/><path d="m110 184c-6.012 0-11.637-2.191-16-6.125-4.363 3.934-9.988 6.125-16 6.125-13.234 0-24-10.766-24-24s10.766-24 24-24c6.012 0 11.641 2.188 16 6.125 4.359-3.938 9.988-6.125 16-6.125 13.234 0 24 10.766 24 24s-10.766 24-24 24zm-16-16.035c1.258 0 2.445.594 3.199 1.602 3.066 4.09 7.73 6.434 12.801 6.434 8.824 0 16-7.176 16-16s-7.176-16-16-16c-5.07 0-9.734 2.344-12.797 6.434-1.516 2.016-4.891 2.016-6.406 0-3.063-4.091-7.727-6.435-12.797-6.435-8.824 0-16 7.176-16 16s7.176 16 16 16c5.07 0 9.734-2.344 12.801-6.434.754-1.007 1.941-1.601 3.199-1.601z" fill="#4c241d"/></g><g><ellipse cx="94" cy="173" fill="#ffce56" rx="8" ry="11"/><path d="m94 188c-.605 0-1.211-.137-1.766-.41-6.41-3.156-10.234-8.61-10.234-14.59s3.824-11.434 10.234-14.59c1.109-.547 2.422-.547 3.531 0 6.411 3.156 10.235 8.61 10.235 14.59s-3.824 11.434-10.234 14.59c-.555.273-1.161.41-1.766.41zm0-21.387c-2.535 1.73-4 4.027-4 6.387s1.465 4.656 4 6.387c2.535-1.73 4-4.027 4-6.387s-1.465-4.656-4-6.387z" fill="#4c241d"/></g><circle cx="76" cy="158" fill="#4c241d" r="4"/><circle cx="112" cy="158" fill="#4c241d" r="4"/><path d="m142 144h-32c-2.211 0-4-1.789-4-4s1.789-4 4-4h32c2.211 0 4 1.789 4 4s-1.789 4-4 4z" fill="#4c241d"/><path d="m78 144h-32c-2.211 0-4-1.789-4-4s1.789-4 4-4h32c2.211 0 4 1.789 4 4s-1.789 4-4 4z" fill="#4c241d"/><g><path d="m244.812 34h-89.625c-9.492 0-17.187 7.695-17.187 17.188v57.625c0 9.492 7.695 17.188 17.188 17.188h10.812v20l14.286-20h64.527c9.492 0 17.188-7.695 17.188-17.188v-57.625c-.001-9.493-7.696-17.188-17.189-17.188z" fill="#9dc1e4"/><path d="m166 150c-.406 0-.82-.062-1.219-.191-1.656-.531-2.781-2.07-2.781-3.809v-16h-6.812c-11.684 0-21.188-9.504-21.188-21.188v-57.624c0-11.684 9.504-21.188 21.188-21.188h89.625c11.683 0 21.187 9.504 21.187 21.188v57.625c0 11.684-9.504 21.188-21.188 21.188h-62.469l-13.09 18.324c-.765 1.07-1.987 1.675-3.253 1.675zm-10.812-112c-7.274 0-13.188 5.914-13.188 13.188v57.625c0 7.273 5.914 13.188 13.188 13.188h10.812c2.211 0 4 1.789 4 4v7.52l7.031-9.844c.75-1.051 1.961-1.676 3.254-1.676h64.527c7.273 0 13.188-5.914 13.188-13.188v-57.625c0-7.274-5.914-13.188-13.188-13.188z" fill="#4c241d"/></g><g fill="#4c241d"><path d="m210.652 179.348c-1.023 0-2.047-.391-2.828-1.172-1.562-1.562-1.562-4.094 0-5.656l14.695-14.695c1.562-1.562 4.094-1.562 5.656 0s1.562 4.094 0 5.656l-14.695 14.695c-.781.781-1.804 1.172-2.828 1.172z"/><path d="m225.348 179.348c-1.023 0-2.047-.391-2.828-1.172l-14.695-14.695c-1.562-1.562-1.562-4.094 0-5.656s4.094-1.562 5.656 0l14.695 14.695c1.562 1.562 1.562 4.094 0 5.656-.781.781-1.805 1.172-2.828 1.172z"/><path d="m194 98c-2.211 0-4-1.789-4-4v-32c0-2.211 1.789-4 4-4s4 1.789 4 4v32c0 2.211-1.789 4-4 4z"/><path d="m202 82h-8c-2.211 0-4-1.789-4-4v-16c0-2.211 1.789-4 4-4h8c6.617 0 12 5.383 12 12s-5.383 12-12 12zm-4-8h4c2.207 0 4-1.793 4-4s-1.793-4-4-4h-4z"/><path d="m238 98h-6.645c-7.363 0-13.355-5.992-13.355-13.355v-13.29c0-7.363 5.992-13.355 13.355-13.355h6.645c2.211 0 4 1.789 4 4s-1.789 4-4 4h-6.645c-2.953 0-5.355 2.402-5.355 5.355v13.289c0 2.953 2.402 5.355 5.355 5.355h6.645c2.211 0 4 1.789 4 4s-1.789 4.001-4 4.001z"/><path d="m202 98h-8c-2.211 0-4-1.789-4-4v-16c0-2.211 1.789-4 4-4h8c6.617 0 12 5.383 12 12s-5.383 12-12 12zm-4-8h4c2.207 0 4-1.793 4-4s-1.793-4-4-4h-4z"/><path d="m181.996 98c-1.879 0-3.555-1.328-3.922-3.242l-5.449-28.242c-.117-.609-1.133-.609-1.25 0l-5.449 28.242c-.414 2.168-2.48 3.613-4.684 3.168-2.168-.418-3.59-2.516-3.168-4.684l5.449-28.242c.781-4.055 4.348-7 8.477-7s7.695 2.945 8.477 7l5.449 28.242c.422 2.168-1 4.266-3.168 4.684-.258.051-.512.074-.762.074z"/><path d="m178 82h-12c-2.211 0-4-1.789-4-4s1.789-4 4-4h12c2.211 0 4 1.789 4 4s-1.789 4-4 4z"/></g></g></svg>