<svg width="720" height="1040" viewBox="0 0 720 1040" fill="none" xmlns="http://www.w3.org/2000/svg">
<mask id="mask0_1_267" style="mask-type:luminance" maskUnits="userSpaceOnUse" x="0" y="0" width="720" height="1040">
<path d="M0 1040H720V-3.09944e-05H0V1040Z" fill="white"/>
</mask>
<g mask="url(#mask0_1_267)">
<path fill-rule="evenodd" clip-rule="evenodd" d="M0 1040H720V-3.09944e-05H0V1040Z" fill="white"/>
</g>
<path fill-rule="evenodd" clip-rule="evenodd" d="M61.6 159.84H679.147C693.84 159.84 705.76 147.92 705.76 133.227V0.159948H61.6V159.84Z" fill="#F8F0E3"/>
<path fill-rule="evenodd" clip-rule="evenodd" d="M73.92 209.2C73.92 191.573 88.208 177.28 105.835 177.28H673.84C691.467 177.28 705.76 191.573 705.76 209.2V992.085C705.76 1009.71 691.467 1024 673.84 1024H105.835C88.208 1024 73.92 1009.71 73.92 992.085V209.2Z" fill="#F8F0E3"/>
<mask id="mask1_1_267" style="mask-type:luminance" maskUnits="userSpaceOnUse" x="0" y="0" width="720" height="1040">
<path d="M0 1040H720V-3.09944e-05H0V1040Z" fill="white"/>
</mask>
<g mask="url(#mask1_1_267)">
<path fill-rule="evenodd" clip-rule="evenodd" d="M-0.320007 984.32H61.76V159.04H-0.320007V984.32Z" fill="#F8F0E3"/>
</g>
<mask id="mask2_1_267" style="mask-type:luminance" maskUnits="userSpaceOnUse" x="0" y="0" width="720" height="1040">
<path d="M0 1040H720V-3.09944e-05H0V1040Z" fill="white"/>
</mask>
<g mask="url(#mask2_1_267)">
<path fill-rule="evenodd" clip-rule="evenodd" d="M-0.960022 1040H62.08V984.48H-0.960022V1040Z" fill="#F1E0C5"/>
</g>
<mask id="mask3_1_267" style="mask-type:luminance" maskUnits="userSpaceOnUse" x="0" y="0" width="720" height="1040">
<path d="M0 1040H720V-3.09944e-05H0V1040Z" fill="white"/>
</mask>
<g mask="url(#mask3_1_267)">
<path fill-rule="evenodd" clip-rule="evenodd" d="M-0.320007 159.68H61.76V3.59313e-05H-0.320007V159.68Z" fill="#F1E0C5"/>
</g>
<mask id="mask4_1_267" style="mask-type:luminance" maskUnits="userSpaceOnUse" x="0" y="0" width="720" height="1040">
<path d="M0 -3.09944e-05H720V1040L0 1040" fill="white"/>
</mask>
<g mask="url(#mask4_1_267)">
<path d="M39.2413 837.72V844.427H18.8226V837.8H20.428V842.613H28.0466V838.24H29.6773V842.613H37.636V837.72H39.2413ZM39.2413 820.147V821.92L34.2186 824.053L39.2413 826.213V827.933H39.1893L32.7173 824.973L26.5466 827.747V825.987L31.204 824.027L26.5466 822.013V820.333H26.5986L32.6653 823.12L39.2413 820.147ZM39.2413 803.227V804.933H38.8893C38.984 805.627 39.076 806.307 39.1626 807C39.2666 807.853 39.32 808.533 39.32 809.04C39.32 809.987 38.8493 810.467 37.9106 810.467H33.2786C32.304 810.467 31.8173 809.973 31.8173 808.987V804.907H27.9946V808.64H30.16V810.32H28.0213C27.0373 810.32 26.5466 809.84 26.5466 808.867V804.693C26.5466 803.707 27.0373 803.227 28.0213 803.227H39.2413ZM37.6626 804.907H33.1746V808.787H37.7413L37.6626 804.907ZM39.2413 779.56V781.293H28.0986L28.204 785.08H39.2413V786.8H28.0986L28.204 790.587H39.2413V792.32H26.5466V790.587H26.8986C26.812 789.907 26.72 789.227 26.6253 788.547C26.52 787.72 26.468 787.04 26.468 786.507C26.468 785.973 26.6293 785.587 26.9506 785.333C26.8546 784.6 26.7546 783.867 26.6506 783.147C26.5293 782.2 26.468 781.48 26.468 781C26.468 780.04 26.9426 779.56 27.8906 779.56H39.2413ZM23.768 766.64V768.4H21.576V766.64H23.768ZM39.2413 766.667V768.373H26.5466V766.667H39.2413ZM39.2413 748.227V749.96H28.0986L28.204 753.787H39.2413V755.52H26.5466V753.787H26.8986C26.812 753.107 26.72 752.427 26.6253 751.733C26.52 750.907 26.468 750.213 26.468 749.68C26.468 748.707 26.9426 748.227 27.8906 748.227H39.2413ZM37.7666 730.347C38.7493 730.347 39.2413 730.827 39.2413 731.8V735.987C39.2413 736.96 38.7493 737.44 37.7666 737.44H28.0213C27.0373 737.44 26.5466 736.96 26.5466 735.987V731.8C26.5466 730.827 27.0373 730.347 28.0213 730.347H32.5866L33.2 730.933V735.76H37.7933V732.027H35.4706V730.347H37.7666ZM31.8173 732.027H27.9946V735.76H31.8173V732.027ZM30.7213 712.88V714.587H28.0986L28.204 717.787H39.2413V719.52H26.5466V717.787H26.8986C26.812 717.213 26.72 716.64 26.6253 716.053C26.52 715.36 26.468 714.773 26.468 714.32C26.468 713.36 26.9426 712.88 27.8906 712.88H30.7213ZM18.8226 677.507L39.2933 680.28V681.76L23.8986 683.973C23.628 683.987 23.228 684 22.6973 684.027C22.976 684.027 23.376 684.04 23.8986 684.08L39.2933 686.293V687.773L18.8226 690.547V688.747L33.5533 687.013C33.8826 687 34.3706 686.987 35.0133 686.96C34.684 686.973 34.196 686.947 33.5533 686.907L18.8226 684.8V683.24L33.5533 681.147C33.8826 681.12 34.3706 681.107 35.0133 681.093C34.684 681.093 34.196 681.067 33.5533 681.027L18.8226 679.293V677.507ZM30.7213 660.88V662.587H28.0986L28.204 665.787H39.2413V667.52H26.5466V665.787H26.8986C26.812 665.213 26.72 664.64 26.6253 664.053C26.52 663.36 26.468 662.773 26.468 662.32C26.468 661.36 26.9426 660.88 27.8906 660.88H30.7213ZM23.768 648.72V650.48H21.576V648.72H23.768ZM39.2413 648.747V650.453H26.5466V648.747H39.2413ZM39.2413 633.04V635.507C39.2413 636.48 38.7493 636.96 37.7666 636.96H28.0733V638.493H26.5466V636.96H22.5933V635.253H26.5466V633.04H28.0733V635.253H37.7146V633.04H39.2413ZM39.2413 618.16V620.627C39.2413 621.6 38.7493 622.08 37.7666 622.08H28.0733V623.613H26.5466V622.08H22.5933V620.373H26.5466V618.16H28.0733V620.373H37.7146V618.16H39.2413ZM37.7666 600.747C38.7493 600.747 39.2413 601.227 39.2413 602.2V606.387C39.2413 607.36 38.7493 607.84 37.7666 607.84H28.0213C27.0373 607.84 26.5466 607.36 26.5466 606.387V602.2C26.5466 601.227 27.0373 600.747 28.0213 600.747H32.5866L33.2 601.333V606.16H37.7933V602.427H35.4706V600.747H37.7666ZM31.8173 602.427H27.9946V606.16H31.8173V602.427ZM39.2413 582.467V584.2H28.0986L28.204 588.027H39.2413V589.76H26.5466V588.027H26.8986C26.812 587.347 26.72 586.667 26.6253 585.973C26.52 585.147 26.468 584.453 26.468 583.92C26.468 582.947 26.9426 582.467 27.8906 582.467H39.2413ZM39.2413 551.96V558.667H18.8226V552.04H20.428V556.853H28.0466V552.48H29.6773V556.853H37.636V551.96H39.2413ZM37.7666 534.44C38.7493 534.44 39.2413 534.933 39.2413 535.92V539.893C39.2413 540.88 38.7493 541.373 37.7666 541.373H34.884V539.667H37.7413V536.16H35.2093L31.4906 540.693C31.144 541.133 30.6906 541.347 30.1346 541.347H28.0213C27.0373 541.347 26.5466 540.853 26.5466 539.867V535.947C26.5466 534.96 27.0373 534.467 28.0213 534.467H30.552V536.16H28.0466V539.667H30.2653L33.9826 535.08C34.3226 534.653 34.784 534.44 35.3666 534.44H37.7666ZM37.7666 516.84C38.7493 516.84 39.2413 517.333 39.2413 518.32V522.293C39.2413 523.28 38.7493 523.773 37.7666 523.773H34.884V522.067H37.7413V518.56H35.2093L31.4906 523.093C31.144 523.533 30.6906 523.747 30.1346 523.747H28.0213C27.0373 523.747 26.5466 523.253 26.5466 522.267V518.347C26.5466 517.36 27.0373 516.867 28.0213 516.867H30.552V518.56H28.0466V522.067H30.2653L33.9826 517.48C34.3226 517.053 34.784 516.84 35.3666 516.84H37.7666ZM39.2413 498.907V500.613H38.8893C38.984 501.307 39.076 501.987 39.1626 502.68C39.2666 503.533 39.32 504.213 39.32 504.72C39.32 505.667 38.8493 506.147 37.9106 506.147H33.2786C32.304 506.147 31.8173 505.653 31.8173 504.667V500.587H27.9946V504.32H30.16V506H28.0213C27.0373 506 26.5466 505.52 26.5466 504.547V500.373C26.5466 499.387 27.0373 498.907 28.0213 498.907H39.2413ZM37.6626 500.587H33.1746V504.467H37.7413L37.6626 500.587ZM26.5466 480.853L39.1373 483.907L44.056 485.173V486.88L39.1373 485.6L26.5466 488.733V486.947L36.54 484.773L26.5466 482.587V480.853ZM37.7666 463.88C38.7493 463.88 39.2413 464.373 39.2413 465.36V469.333C39.2413 470.32 38.7493 470.813 37.7666 470.813H34.884V469.107H37.7413V465.6H35.2093L31.4906 470.133C31.144 470.573 30.6906 470.787 30.1346 470.787H28.0213C27.0373 470.787 26.5466 470.293 26.5466 469.307V465.387C26.5466 464.4 27.0373 463.907 28.0213 463.907H30.552V465.6H28.0466V469.107H30.2653L33.9826 464.52C34.3226 464.093 34.784 463.88 35.3666 463.88H37.7666ZM29.6773 432.027C30.104 432.027 30.4546 432.16 30.728 432.44C31.0026 432.707 31.1386 433.053 31.1386 433.48V438.293H39.2413V440.107H18.8226V433.48C18.8226 433.053 18.9573 432.707 19.2266 432.44C19.4973 432.16 19.8453 432.027 20.2706 432.027H29.6773ZM29.5213 433.84H20.428V438.293H29.5213V433.84ZM39.2413 414.267V415.973H38.8893C38.984 416.667 39.076 417.347 39.1626 418.04C39.2666 418.893 39.32 419.573 39.32 420.08C39.32 421.027 38.8493 421.507 37.9106 421.507H33.2786C32.304 421.507 31.8173 421.013 31.8173 420.027V415.947H27.9946V419.68H30.16V421.36H28.0213C27.0373 421.36 26.5466 420.88 26.5466 419.907V415.733C26.5466 414.747 27.0373 414.267 28.0213 414.267H39.2413ZM37.6626 415.947H33.1746V419.827H37.7413L37.6626 415.947ZM30.7213 396.72V398.427H28.0986L28.204 401.627H39.2413V403.36H26.5466V401.627H26.8986C26.812 401.053 26.72 400.48 26.6253 399.893C26.52 399.2 26.468 398.613 26.468 398.16C26.468 397.2 26.9426 396.72 27.8906 396.72H30.7213ZM39.2413 379.227V380.933H38.8893C38.984 381.627 39.076 382.307 39.1626 383C39.2666 383.853 39.32 384.533 39.32 385.04C39.32 385.987 38.8493 386.467 37.9106 386.467H33.2786C32.304 386.467 31.8173 385.973 31.8173 384.987V380.907H27.9946V384.64H30.16V386.32H28.0213C27.0373 386.32 26.5466 385.84 26.5466 384.867V380.693C26.5466 379.707 27.0373 379.227 28.0213 379.227H39.2413ZM37.6626 380.907H33.1746V384.787H37.7413L37.6626 380.907ZM36.5146 361.027C37.2973 361.027 37.9466 361.28 38.4653 361.8C38.9826 362.307 39.2413 362.96 39.2413 363.733V366.587H44.056V368.32H26.5466V366.587H26.8986C26.812 365.893 26.7253 365.213 26.6373 364.52C26.5253 363.653 26.468 362.973 26.468 362.48C26.468 361.507 26.9426 361.027 27.8906 361.027H36.5146ZM36.2533 362.76H28.0986L28.204 366.587H37.7146V364.187C37.7146 363.24 37.228 362.76 36.2533 362.76ZM39.2413 342.947V344.68H28.0986L28.204 348.507H39.2413V350.24H18.8226V348.507H26.8986C26.812 347.813 26.7253 347.133 26.6373 346.44C26.5253 345.573 26.468 344.893 26.468 344.4C26.468 343.427 26.9426 342.947 27.8906 342.947H39.2413ZM30.7213 325.36V327.067H28.0986L28.204 330.267H39.2413V332H26.5466V330.267H26.8986C26.812 329.693 26.72 329.12 26.6253 328.533C26.52 327.84 26.468 327.253 26.468 326.8C26.468 325.84 26.9426 325.36 27.8906 325.36H30.7213ZM39.2413 308.027V309.733H38.8893C38.984 310.427 39.076 311.107 39.1626 311.8C39.2666 312.653 39.32 313.333 39.32 313.84C39.32 314.787 38.8493 315.267 37.9106 315.267H33.2786C32.304 315.267 31.8173 314.773 31.8173 313.787V309.707H27.9946V313.44H30.16V315.12H28.0213C27.0373 315.12 26.5466 314.64 26.5466 313.667V309.493C26.5466 308.507 27.0373 308.027 28.0213 308.027H39.2413ZM37.6626 309.707H33.1746V313.587H37.7413L37.6626 309.707ZM37.7666 290.28C38.7493 290.28 39.2413 290.773 39.2413 291.76V295.733C39.2413 296.72 38.7493 297.213 37.7666 297.213H34.884V295.507H37.7413V292H35.2093L31.4906 296.533C31.144 296.973 30.6906 297.187 30.1346 297.187H28.0213C27.0373 297.187 26.5466 296.693 26.5466 295.707V291.787C26.5466 290.8 27.0373 290.307 28.0213 290.307H30.552V292H28.0466V295.507H30.2653L33.9826 290.92C34.3226 290.493 34.784 290.28 35.3666 290.28H37.7666ZM37.7666 272.587C38.7493 272.587 39.2413 273.067 39.2413 274.04V278.227C39.2413 279.2 38.7493 279.68 37.7666 279.68H28.0213C27.0373 279.68 26.5466 279.2 26.5466 278.227V274.04C26.5466 273.067 27.0373 272.587 28.0213 272.587H32.5866L33.2 273.173V278H37.7933V274.267H35.4706V272.587H37.7666ZM31.8173 274.267H27.9946V278H31.8173V274.267ZM39.2413 254.387V256.107H38.8893C39.176 257.973 39.32 259 39.32 259.2C39.32 259.933 39.0693 260.533 38.5693 260.987C38.0693 261.44 37.4453 261.667 36.6973 261.667H29.2733C28.4906 261.667 27.84 261.413 27.3226 260.893C26.8053 260.387 26.5466 259.733 26.5466 258.96V256.107H18.8226V254.387H39.2413ZM37.6626 256.107H28.0733V258.507C28.0733 259.467 28.564 259.947 29.5466 259.947H36.332C37.3053 259.947 37.7933 259.467 37.7933 258.507C37.7933 258.28 37.7493 257.48 37.6626 256.107Z" fill="black" fill-opacity="0.25882"/>
</g>
<mask id="mask5_1_267" style="mask-type:luminance" maskUnits="userSpaceOnUse" x="0" y="0" width="720" height="1040">
<path d="M0 -4.25974e-05H720V1040H0" fill="white"/>
</mask>
<g mask="url(#mask5_1_267)">
<path d="M38.1453 134.813V140.16H21.884V134.88H23.1626V138.707H29.2306V135.213H30.5293V138.707H36.8666V134.813H38.1453ZM36.9706 119.2C37.7533 119.2 38.1453 119.587 38.1453 120.373V123.533C38.1453 124.32 37.7533 124.707 36.9706 124.707H34.6746V123.347H36.9506V120.56H34.9346L31.9733 124.173C31.696 124.52 31.336 124.693 30.8933 124.693H29.2093C28.4266 124.693 28.0346 124.307 28.0346 123.52V120.387C28.0346 119.613 28.4266 119.213 29.2093 119.213H31.2253V120.56H29.2306V123.347H30.996L33.9573 119.707C34.228 119.36 34.5946 119.2 35.06 119.2H36.9706ZM36.9706 103.36C37.7533 103.36 38.1453 103.747 38.1453 104.533V107.693C38.1453 108.48 37.7533 108.867 36.9706 108.867H34.6746V107.507H36.9506V104.72H34.9346L31.9733 108.333C31.696 108.68 31.336 108.853 30.8933 108.853H29.2093C28.4266 108.853 28.0346 108.467 28.0346 107.68V104.547C28.0346 103.773 28.4266 103.373 29.2093 103.373H31.2253V104.72H29.2306V107.507H30.996L33.9573 103.867C34.228 103.52 34.5946 103.36 35.06 103.36H36.9706ZM38.1453 87.24V88.6H37.8653C37.9413 89.16 38.0133 89.7066 38.0826 90.2533C38.1666 90.9333 38.208 91.4666 38.208 91.8799C38.208 92.6399 37.8333 93.0133 37.0853 93.0133H33.3973C32.6213 93.0133 32.2333 92.6267 32.2333 91.84V88.5866H29.188V91.56H30.9133V92.8933H29.2093C28.4266 92.8933 28.0346 92.5066 28.0346 91.7333V88.4133C28.0346 87.6266 28.4266 87.24 29.2093 87.24H38.1453ZM36.888 88.5866H33.3133V91.6666H36.9506L36.888 88.5866ZM28.0346 71.4267L38.0626 73.8533L41.98 74.8667V76.2266L38.0626 75.2133L28.0346 77.7067V76.28L35.9946 74.56L28.0346 72.8133V71.4267ZM27.5266 40.3333V42.36L32.5026 43.24V41.08H33.6986V43.44L38.1453 44.2266V45.5466L33.6986 44.7466V47.2533L38.1453 48.0267V49.3333L33.6986 48.56V50.36H32.5026V48.3333L27.5266 47.4666V49.6133H26.3306V47.2533L21.884 46.4666V45.1466L26.3306 45.9599V43.44L21.884 42.68V41.36L26.3306 42.1466V40.3333H27.5266ZM27.5266 43.6666V46.16L32.5026 47.04V44.56L27.5266 43.6666Z" fill="black" fill-opacity="0.25882"/>
</g>
<mask id="mask6_1_267" style="mask-type:luminance" maskUnits="userSpaceOnUse" x="0" y="0" width="720" height="1040">
<path d="M0 -3.09944e-05H720V1040H0" fill="white"/>
</mask>
<g mask="url(#mask6_1_267)">
<path d="M38.1453 28.9333V30.3866H26.872V31.0267H26.82L21.884 30.1067V28.9333H38.1453Z" fill="black" fill-opacity="0.25882"/>
</g>
</svg>
