<?xml version="1.0" encoding="iso-8859-1"?>
<!-- Generator: Adobe Illustrator 19.0.0, SVG Export Plug-In . SVG Version: 6.00 Build 0)  -->
<svg version="1.1" id="Layer_1" xmlns="http://www.w3.org/2000/svg" xmlns:xlink="http://www.w3.org/1999/xlink" x="0px" y="0px"
	 viewBox="0 0 512 512" style="enable-background:new 0 0 512 512;" xml:space="preserve">
<path style="fill:#4EB9FF;" d="M504.026,192.374C475.738,81.771,375.42,0,256,0C114.615,0,0,114.616,0,256
	c0,119.42,81.771,219.738,192.374,248.026L504.026,192.374z"/>
<path style="fill:#3B8BC0;" d="M512,256c0-21.965-2.77-43.282-7.974-63.626L389.565,77.913L100.174,342.261l57.043,57.043
	l-34.783,34.783l69.939,69.939C212.718,509.23,234.035,512,256,512C397.384,512,512,397.384,512,256z"/>
<polygon style="fill:#FFF5D9;" points="256,77.913 211.478,256 256,434.087 322.783,434.087 345.043,389.565 389.565,367.304 
	389.565,77.913 "/>
<polygon style="fill:#FFFFFF;" points="122.435,77.913 122.435,297.739 144.696,322.783 122.435,347.826 122.435,434.087 
	256,434.087 256,411.826 244.87,400.696 256,389.565 256,77.913 "/>
<polygon style="fill:#FFE290;" points="322.783,434.087 322.783,345.043 389.565,367.304 "/>
<polygon style="fill:#FFCE47;" points="256,100.174 227.951,133.565 256,166.957 367.304,166.957 367.304,100.174 "/>
<rect x="144.696" y="100.174" style="fill:#FFE290;" width="111.304" height="66.783"/>
<polygon style="fill:#092A40;" points="256,122.435 227.951,133.565 256,144.696 345.043,144.696 345.043,122.435 "/>
<rect x="166.957" y="122.435" style="fill:#235C81;" width="89.043" height="22.261"/>
<polygon style="fill:#092A40;" points="256,233.739 227.951,244.87 256,256 345.043,256 345.043,233.739 "/>
<rect x="166.957" y="233.739" style="fill:#235C81;" width="89.043" height="22.261"/>
<rect x="166.957" y="389.565" style="fill:#4EB9FF;" width="89.043" height="22.261"/>
<polygon style="fill:#092A40;" points="256,189.217 227.951,200.348 256,211.478 345.043,211.478 345.043,189.217 "/>
<rect x="166.957" y="189.217" style="fill:#235C81;" width="89.043" height="22.261"/>
<path style="fill:#FFCE47;" d="M400.696,278.261H228.174l-38.957,77.913l233.739-33.391v-22.261
	C422.957,288.278,412.939,278.261,400.696,278.261z"/>
<path style="fill:#FFB14E;" d="M189.217,322.783l38.957,44.522h172.522c12.243,0,22.261-10.017,22.261-22.261v-22.261H189.217z"/>
<polygon style="fill:#FFCE47;" points="100.174,342.261 133.565,342.261 133.565,303.304 89.043,303.304 "/>
<path style="fill:#174461;" d="M183.652,278.261c-17.286,12.27-38.401,19.478-61.217,19.478v25.043l77.913,11.13L183.652,278.261z"
	/>
<path style="fill:#092A40;" d="M122.435,322.783v25.043c22.816,0,43.932,7.208,61.2,19.473c0.018,0.006,16.713-44.516,16.713-44.516
	H122.435z"/>
<rect x="183.652" y="278.261" style="fill:#235C81;" width="44.522" height="89.043"/>
<g>
</g>
<g>
</g>
<g>
</g>
<g>
</g>
<g>
</g>
<g>
</g>
<g>
</g>
<g>
</g>
<g>
</g>
<g>
</g>
<g>
</g>
<g>
</g>
<g>
</g>
<g>
</g>
<g>
</g>
</svg>
