<?xml version="1.0" encoding="UTF-8" standalone="no"?>
<!-- Created with Inkscape (http://www.inkscape.org/) -->

<svg
   version="1.1"
   id="svg5736"
   xml:space="preserve"
   width="682.66669"
   height="682.66669"
   viewBox="0 0 682.66669 682.66669"
   xmlns="http://www.w3.org/2000/svg"
   xmlns:svg="http://www.w3.org/2000/svg"><defs
     id="defs5740"><clipPath
       clipPathUnits="userSpaceOnUse"
       id="clipPath5750"><path
         d="M 0,512 H 512 V 0 H 0 Z"
         id="path5748" /></clipPath></defs><g
     id="g5742"
     transform="matrix(1.3333333,0,0,-1.3333333,0,682.66667)"><g
       id="g5744"><g
         id="g5746"
         clip-path="url(#clipPath5750)"><g
           id="g5752"
           transform="translate(76.7554,73.2478)"><path
             d="m 0,0 h 358.489 c 47.362,46.458 76.756,111.168 76.756,182.752 0,141.385 -114.616,256 -256,256 -141.385,0 -256,-114.615 -256,-256 C -76.755,111.168 -47.362,46.458 0,0"
             style="fill:#d587eb;fill-opacity:1;fill-rule:nonzero;stroke:none"
             id="path5754" /></g><path
           d="m 101.205,65 h -15 v 382 h 15 z"
           style="fill:#964f32;fill-opacity:1;fill-rule:nonzero;stroke:none"
           id="path5756" /><path
           d="m 426.205,65 h -15 v 382 h 15 z"
           style="fill:#964f32;fill-opacity:1;fill-rule:nonzero;stroke:none"
           id="path5758" /><g
           id="g5760"
           transform="translate(387.6321,384.9992)"><path
             d="M 0,0 V 87.001 H -263.264 V 0 c 0,-52.926 31.236,-98.555 76.278,-119.46 8.122,-3.769 8.122,-15.309 10e-4,-19.079 -45.043,-20.905 -76.279,-66.534 -76.279,-119.46 v -87 H 0 v 87 c 0,52.926 -31.236,98.555 -76.279,119.46 -8.121,3.77 -8.121,15.31 0,19.079 C -31.236,-98.555 0,-52.926 0,0"
             style="fill:#daf0f6;fill-opacity:1;fill-rule:nonzero;stroke:none"
             id="path5762" /></g><g
           id="g5764"
           transform="translate(241.9194,211.6917)"><path
             d="m 0,0 c 21.563,25.629 21.563,62.987 0,88.616 -19.259,22.891 -30.861,52.436 -30.861,84.692 v 87 h -86.691 v -87 c 0,-52.926 31.237,-98.555 76.279,-119.46 8.122,-3.77 8.122,-15.31 0,-19.079 -45.042,-20.905 -76.279,-66.534 -76.279,-119.46 v -87.001 h 86.691 v 87.001 C -30.861,-52.435 -19.259,-22.89 0,0"
             style="fill:#bee5eb;fill-opacity:1;fill-rule:nonzero;stroke:none"
             id="path5766" /></g><g
           id="g5768"
           transform="translate(164.3682,40)"><path
             d="m 0,0 v 87.118 c 0,50.527 41.105,91.632 91.632,91.632 50.526,0 91.632,-41.105 91.632,-91.632 V 0 Z"
             style="fill:#804096;fill-opacity:1;fill-rule:nonzero;stroke:none"
             id="path5770" /></g><g
           id="g5772"
           transform="translate(241.9194,211.6917)"><path
             d="M 0,0 C 1.785,2.122 3.408,4.331 4.898,6.6 -41.333,1.979 -77.551,-37.146 -77.551,-84.573 v -87.119 h 46.69 v 87.001 C -30.861,-52.435 -19.259,-22.89 0,0"
             style="fill:#632e6e;fill-opacity:1;fill-rule:nonzero;stroke:none"
             id="path5774" /></g><g
           id="g5776"
           transform="translate(324.7873,384.8818)"><path
             d="m 0,0 c 13.25,0 22.94,-12.681 19.261,-25.409 -11.042,-38.206 -46.334,-66.223 -88.048,-66.223 -41.714,0 -77.007,28.017 -88.049,66.223 -3.679,12.728 6.012,25.409 19.261,25.409 z"
             style="fill:#804096;fill-opacity:1;fill-rule:nonzero;stroke:none"
             id="path5778" /></g><g
           id="g5780"
           transform="translate(167.9513,359.4724)"><path
             d="m 0,0 c 10.22,-35.361 41.221,-61.977 78.854,-65.746 -1.487,2.263 -3.106,4.466 -4.886,6.582 C 54.733,-36.302 43.137,-6.8 43.109,25.409 H 19.261 C 6.012,25.409 -3.679,12.729 0,0"
             style="fill:#632e6e;fill-opacity:1;fill-rule:nonzero;stroke:none"
             id="path5782" /></g><g
           id="g5784"
           transform="translate(294.5234,286.8174)"><path
             d="m 0,0 c -5.659,0 -11.076,3.219 -13.615,8.688 -3.489,7.515 -0.224,16.434 7.29,19.921 26.992,12.529 44.433,39.837 44.433,69.573 0,8.284 6.716,15 15,15 8.285,0 15,-6.716 15,-15 C 68.108,56.813 43.85,18.823 6.306,1.398 4.262,0.449 2.114,0 0,0"
             style="fill:#ffffff;fill-opacity:1;fill-rule:nonzero;stroke:none"
             id="path5786" /></g><g
           id="g5788"
           transform="translate(426.2054,432)"><path
             d="m 0,0 h -340 c -5.523,0 -10,4.477 -10,10 V 60 H 10 V 10 C 10,4.477 5.523,0 0,0"
             style="fill:#ba623e;fill-opacity:1;fill-rule:nonzero;stroke:none"
             id="path5790" /></g><g
           id="g5792"
           transform="translate(116.2053,442)"><path
             d="M 0,0 V 50 H -40 V 0 c 0,-5.523 4.477,-10 10,-10 H 10 C 4.477,-10 0,-5.523 0,0"
             style="fill:#964f32;fill-opacity:1;fill-rule:nonzero;stroke:none"
             id="path5794" /></g><g
           id="g5796"
           transform="translate(435.5474,73.5432)"><path
             d="m 0,0 c -1.432,3.771 -5.069,6.457 -9.342,6.457 h -340 c -4.384,0 -8.1,-2.826 -9.45,-6.752 22.868,-22.432 49.917,-40.616 79.886,-53.248 H -80.189 C -50.088,-40.855 -22.932,-22.568 0,0"
             style="fill:#ba623e;fill-opacity:1;fill-rule:nonzero;stroke:none"
             id="path5798" /></g><g
           id="g5800"
           transform="translate(76.7552,73.2478)"><path
             d="m 0,0 c 12.05,-11.82 25.261,-22.456 39.45,-31.724 v 28.476 c 0,5.523 4.477,10 10,10 h -40 C 5.066,6.752 1.35,3.926 0,0"
             style="fill:#964f32;fill-opacity:1;fill-rule:nonzero;stroke:none"
             id="path5802" /></g><g
           id="g5804"
           transform="translate(436.2054,512)"><path
             d="m 0,0 h -360 c -11.046,0 -20,-8.954 -20,-20 v 0 c 0,-11.046 8.954,-20 20,-20 H 0 c 11.046,0 20,8.954 20,20 v 0 C 20,-8.954 11.046,0 0,0"
             style="fill:#d27347;fill-opacity:1;fill-rule:nonzero;stroke:none"
             id="path5806" /></g><g
           id="g5808"
           transform="translate(96.2053,492)"><path
             d="m 0,0 v 0 c 0,11.046 8.954,20 20,20 h -40 c -11.046,0 -20,-8.954 -20,-20 0,-11.046 8.954,-20 20,-20 H 20 C 8.954,-20 0,-11.046 0,0"
             style="fill:#ba623e;fill-opacity:1;fill-rule:nonzero;stroke:none"
             id="path5810" /></g><g
           id="g5812"
           transform="translate(118.5481,40)"><path
             d="m 0,0 c 39.709,-25.322 86.865,-40 137.452,-40 50.587,0 97.743,14.678 137.452,40 z"
             style="fill:#d27347;fill-opacity:1;fill-rule:nonzero;stroke:none"
             id="path5814" /></g></g></g></g></svg>
