<svg id="Capa_1" enable-background="new 0 0 512 512" height="512" viewBox="0 0 512 512" width="512" xmlns="http://www.w3.org/2000/svg"><path d="m512 256c0 58.34-19.52 112.12-52.38 155.17-1.9 2.49-3.84 4.94-5.82 7.35-20.22 24.58-44.92 45.33-72.88 60.98-5.56 3.11-11.24 6.02-17.04 8.72-32.78 15.26-69.34 23.78-107.88 23.78-141.38 0-256-114.62-256-256s114.62-256 256-256 256 114.62 256 256z" fill="#ffd150"/><path d="m136.806 188.678-37.65 81.455c-27.877-10.165-52.202-30.153-67.295-58.21-11.977-22.281-23.157-46.084-31.018-69.14-4.412-12.94 9.372-24.532 21.318-17.886z" fill="#ccc"/><path d="m127.704 185.182 44.063-95.293-95.498-52.251c-11.972-6.55-9.575-24.453 3.712-27.563 21.736-5.087 45.51-8.088 68.529-9.762 63.668-4.624 119.383 42.507 126.056 105.989l2.651 25.076c8.924 84.844 44.726 164.417 101.967 227.237l.863 1.048-65.594 65.178-1.171-.324c-47.485-44.772-105.481-76.938-168.732-93.475l-44.973-11.776c-15.738-4.121-23.924-21.468-17.099-36.236l9.778-21.158z" fill="#e6e6e6"/><path d="m453.8 418.52c-20.22 24.58-44.92 45.33-72.88 60.98-5.56 3.11-11.24 6.02-17.04 8.72l-49.07-49.07c-5.16-5.17-6.29-12.84-3.38-19.08.81-1.76 1.94-3.4 3.38-4.85l55.89-55.88c1.64-1.65 3.55-2.9 5.59-3.72 6.11-2.48 13.36-1.25 18.33 3.72z" fill="#5d8aaf"/><g fill="#417293"><path d="m411.983 376.698-79.812 79.812c-3.739 3.739-9.802 3.739-13.541 0s-3.739-9.802 0-13.541l79.812-79.812c3.739-3.739 9.802-3.739 13.541 0s3.739 9.801 0 13.541z"/><path d="m459.62 411.17c-21.22 27.81-48 51.14-78.7 68.33l66.94-66.93c3.19-3.19 8.08-3.66 11.76-1.4z"/><path d="m436.69 401.405-79.812 79.812c-3.739 3.739-9.802 3.739-13.541 0s-3.739-9.802 0-13.541l79.812-79.812c3.739-3.739 9.802-3.739 13.541 0s3.74 9.802 0 13.541z"/></g><path d="m255.556 221.783-54.672 54.672c-5.793 5.793-15.186 5.793-20.979 0l-34.859-34.859c-5.793-5.793-5.793-15.186 0-20.979l54.672-54.672c5.793-5.793 15.186-5.793 20.979 0l34.859 34.859c5.793 5.793 5.793 15.185 0 20.979z" fill="#5d8aaf"/><path d="m169.97 195.693-13.809 13.81 42.028 69.647 13.81-13.81z" fill="#417293"/><path d="m202.414 163.25-13.81 13.809 42.029 69.647 13.809-13.809z" fill="#417293"/><path d="m260.07 226.297-54.672 54.672c-8.273 8.273-21.734 8.273-30.007 0l-34.859-34.859c-8.273-8.273-8.273-21.734 0-30.007l54.672-54.672c8.273-8.273 21.734-8.273 30.007 0l34.859 34.859c8.273 8.273 8.273 21.734 0 30.007zm-110.51-1.167c-3.295 3.295-3.295 8.657 0 11.952l34.859 34.859c3.295 3.295 8.657 3.295 11.952 0l54.672-54.672c3.295-3.295 3.295-8.657 0-11.952l-34.859-34.859c-3.295-3.295-8.657-3.295-11.952 0z" fill="#ccc"/></svg>