<svg id="wand" enable-background="new 0 0 300 300" height="512" viewBox="0 0 300 300" width="512" xmlns="http://www.w3.org/2000/svg"><g><circle cx="139.414" cy="153.378" fill="#e1f4f4" r="86"/><g fill="#4c241d"><path d="m85.414 107.378c-6.617 0-12-5.383-12-12s5.383-12 12-12 12 5.383 12 12-5.383 12-12 12zm0-16c-2.207 0-4 1.795-4 4s1.793 4 4 4 4-1.795 4-4-1.793-4-4-4z"/><circle cx="123.414" cy="97.378" r="4.276"/><circle cx="171.414" cy="205.378" r="4.276"/><path d="m215.07 177.034c-1.023 0-2.047-.391-2.828-1.172l-11.312-11.312c-1.562-1.562-1.562-4.094 0-5.656s4.094-1.562 5.656 0l11.312 11.312c1.562 1.562 1.562 4.094 0 5.656-.781.782-1.804 1.172-2.828 1.172z"/><path d="m203.758 177.034c-1.023 0-2.047-.391-2.828-1.172-1.562-1.562-1.562-4.094 0-5.656l11.312-11.312c1.562-1.562 4.094-1.562 5.656 0s1.562 4.094 0 5.656l-11.312 11.312c-.781.782-1.805 1.172-2.828 1.172z"/></g><g><path d="m170.481 81.761h20v89.1h-20z" fill="#fff" transform="matrix(.707 .707 -.707 .707 142.177 -90.624)"/><path d="m156.051 168.884c-1.023 0-2.047-.391-2.828-1.172l-14.145-14.143c-.75-.75-1.172-1.768-1.172-2.828s.422-2.078 1.172-2.828l63.004-63.002c1.562-1.562 4.094-1.562 5.656 0l14.145 14.141c.75.75 1.172 1.768 1.172 2.828s-.422 2.078-1.172 2.828l-63.004 63.004c-.781.781-1.805 1.172-2.828 1.172zm-8.489-18.143 8.488 8.486 57.348-57.348-8.488-8.484z" fill="#4c241d"/></g><g><path d="m49.833 242.817 92.075-92.075 14.142 14.142-92.075 92.075" fill="#bf7e68"/><path d="m63.977 260.958c-1.023 0-2.047-.391-2.828-1.172-1.562-1.562-1.562-4.094 0-5.656l89.246-89.246-8.488-8.486-89.247 89.248c-1.562 1.562-4.094 1.562-5.656 0s-1.562-4.094 0-5.656l92.074-92.076c1.562-1.562 4.094-1.562 5.656 0l14.145 14.143c.75.75 1.172 1.768 1.172 2.828s-.422 2.078-1.172 2.828l-92.074 92.074c-.782.78-1.805 1.171-2.828 1.171z" fill="#4c241d"/></g><g><path d="m246.543 64.78-2.721 5.34c-.663 1.3-.412 2.88.62 3.912l4.238 4.238c2.308 2.308.314 6.22-2.909 5.71l-5.92-.938c-1.442-.228-2.866.498-3.529 1.798l-2.721 5.34c-1.482 2.908-5.819 2.221-6.329-1.002l-.938-5.92c-.228-1.442-1.359-2.572-2.8-2.8l-5.92-.938c-3.223-.511-3.91-4.848-1.002-6.329l5.34-2.721c1.3-.663 2.026-2.087 1.798-3.529l-.938-5.92c-.511-3.223 3.402-5.217 5.71-2.909l4.238 4.238c1.032 1.032 2.611 1.282 3.912.62l5.34-2.721c2.908-1.482 6.013 1.623 4.531 4.531z" fill="#ffce56"/><path d="m230.613 96.021c-.387 0-.777-.031-1.168-.092-3.164-.504-5.625-2.967-6.125-6.129l-.863-5.463-5.469-.865c-3.164-.502-5.625-2.965-6.125-6.127-.5-3.164 1.082-6.266 3.934-7.719l4.93-2.512-.863-5.469c-.504-3.16 1.074-6.262 3.93-7.717 2.852-1.457 6.293-.91 8.559 1.355l3.914 3.912 4.93-2.512c2.895-1.471 6.254-.947 8.555 1.354 2.266 2.264 2.812 5.703 1.359 8.557l-2.516 4.936 3.914 3.912c2.266 2.262 2.809 5.699 1.355 8.551-1.453 2.857-4.555 4.434-7.719 3.938l-5.465-.865-2.516 4.932c-1.273 2.499-3.812 4.023-6.551 4.023zm-10.457-20.147 4.004.633c3.16.502 5.621 2.959 6.125 6.119l.637 4.006 1.84-3.609c1.449-2.852 4.566-4.416 7.715-3.932l4 .635-2.863-2.865c-2.266-2.27-2.809-5.707-1.352-8.559l1.836-3.607-3.609 1.84c-2.855 1.451-6.289.908-8.555-1.355l-2.867-2.865.633 4.002c.508 3.16-1.074 6.264-3.93 7.719zm26.387-11.094h.039z" fill="#4c241d"/></g><path d="m199.254 74.769c-2.211 0-4-1.791-4-4v-14.143c0-2.209 1.789-4 4-4s4 1.791 4 4v14.143c0 2.209-1.789 4-4 4z" fill="#4c241d"/><path d="m187.941 80.425c-1.023 0-2.047-.391-2.828-1.172l-5.656-5.656c-1.562-1.562-1.562-4.094 0-5.656s4.094-1.562 5.656 0l5.656 5.656c1.562 1.562 1.562 4.094 0 5.656-.781.781-1.804 1.172-2.828 1.172z" fill="#4c241d"/><path d="m250.168 111.538h-14.145c-2.211 0-4-1.791-4-4s1.789-4 4-4h14.145c2.211 0 4 1.791 4 4s-1.789 4-4 4z" fill="#4c241d"/><path d="m236.023 128.509c-1.023 0-2.047-.391-2.828-1.172l-5.656-5.658c-1.562-1.562-1.562-4.096 0-5.656 1.562-1.562 4.094-1.562 5.656 0l5.656 5.658c1.562 1.562 1.562 4.096 0 5.656-.781.781-1.804 1.172-2.828 1.172z" fill="#4c241d"/><g><path d="m137.575 44.611 1.689 5.197c.304.936 1.176 1.57 2.161 1.57h5.464c2.201 0 3.116 2.816 1.335 4.11l-4.421 3.212c-.796.579-1.129 1.604-.825 2.54l1.689 5.197c.68 2.093-1.716 3.834-3.496 2.54l-4.421-3.212c-.796-.579-1.874-.579-2.671 0l-4.421 3.212c-1.78 1.294-4.176-.447-3.496-2.54l1.689-5.197c.304-.936-.029-1.961-.825-2.54l-4.421-3.212c-1.78-1.294-.865-4.11 1.335-4.11h5.464c.984 0 1.857-.634 2.161-1.57l1.689-5.197c.679-2.093 3.641-2.093 4.321 0z" fill="#ffce56"/><path d="m128.324 73.415c-1.293 0-2.582-.4-3.684-1.199-2.211-1.602-3.129-4.42-2.285-7.014l1.305-4.004-3.406-2.477c-2.203-1.6-3.121-4.416-2.277-7.008.84-2.594 3.238-4.336 5.965-4.336h4.207l1.301-4.002c.844-2.594 3.238-4.334 5.965-4.334s5.121 1.74 5.965 4.332v.002l1.301 4.002h4.207c2.727 0 5.125 1.742 5.965 4.336.844 2.592-.074 5.408-2.277 7.01l-3.406 2.475 1.305 4c.844 2.598-.074 5.416-2.285 7.018-2.207 1.598-5.172 1.598-7.371-.008l-3.402-2.471-3.406 2.475c-1.105.801-2.398 1.203-3.687 1.203zm-1.019-7.676c0 .002-.004.002-.004.004zm16.215-.002.004.002c-.004-.002-.004-.002-.004-.002zm-8.106-4.41c1.293 0 2.582.4 3.684 1.199l.121.086-.047-.135c-.844-2.592.074-5.412 2.285-7.016l.113-.084h-.145c-2.727 0-5.125-1.742-5.969-4.334l-.043-.135-.043.133c-.844 2.594-3.242 4.336-5.969 4.336h-.145l.117.088c2.207 1.6 3.125 4.42 2.281 7.012l-.047.135.117-.084c1.108-.8 2.397-1.201 3.69-1.201zm7.652-12.754h.039z" fill="#4c241d"/></g><g><path d="m217.575 208.611 1.689 5.197c.304.936 1.176 1.57 2.161 1.57h5.464c2.201 0 3.116 2.816 1.335 4.11l-4.421 3.212c-.796.579-1.129 1.604-.825 2.54l1.689 5.197c.68 2.093-1.716 3.834-3.496 2.54l-4.421-3.212c-.796-.579-1.874-.579-2.671 0l-4.421 3.212c-1.78 1.294-4.176-.447-3.496-2.54l1.689-5.197c.304-.936-.029-1.961-.825-2.54l-4.421-3.212c-1.78-1.294-.865-4.11 1.335-4.11h5.464c.984 0 1.857-.634 2.161-1.57l1.689-5.197c.679-2.093 3.641-2.093 4.321 0z" fill="#ffce56"/><path d="m208.324 237.415c-1.293 0-2.582-.4-3.684-1.199-2.211-1.602-3.129-4.42-2.285-7.014l1.305-4.004-3.406-2.477c-2.203-1.6-3.121-4.416-2.277-7.008.84-2.594 3.238-4.336 5.965-4.336h4.207l1.301-4.002c.844-2.594 3.238-4.334 5.965-4.334s5.121 1.74 5.965 4.332v.002l1.301 4.002h4.207c2.727 0 5.125 1.742 5.965 4.336.844 2.592-.074 5.408-2.277 7.01l-3.406 2.475 1.305 4c.844 2.598-.074 5.416-2.285 7.018-2.207 1.598-5.172 1.598-7.371-.008l-3.402-2.471-3.406 2.475c-1.105.801-2.398 1.203-3.687 1.203zm-1.019-7.676c0 .002-.004.002-.004.004zm16.215-.002.004.002c-.004-.002-.004-.002-.004-.002zm-8.106-4.41c1.293 0 2.582.4 3.684 1.199l.121.086-.047-.135c-.844-2.592.074-5.412 2.285-7.016l.113-.084h-.145c-2.727 0-5.125-1.742-5.969-4.334l-.043-.135-.043.133c-.844 2.594-3.242 4.336-5.969 4.336h-.145l.117.088c2.207 1.6 3.125 4.42 2.281 7.012l-.047.135.117-.084c1.108-.8 2.397-1.201 3.69-1.201zm7.652-12.754h.039z" fill="#4c241d"/></g></g></svg>