<svg width="512" height="512" xmlns="http://www.w3.org/2000/svg" xmlns:xlink="http://www.w3.org/1999/xlink" xml:space="preserve" overflow="hidden"><defs><clipPath id="clip0"><rect x="384" y="104" width="512" height="512"/></clipPath></defs><g clip-path="url(#clip0)" transform="translate(-384 -104)"><path d="M388.414-88.2759C407.915-88.2759 423.724-72.4669 423.724-52.9655L423.724 388.414C423.724 407.915 407.915 423.724 388.414 423.724L123.586 423.724C104.085 423.724 88.2759 407.915 88.2759 388.414L88.2759-52.9655C88.2759-72.4669 104.085-88.2759 123.586-88.2759Z" fill="#F0C419" transform="matrix(0 1 1 0 472.276 104)"/><path d="M476.69 308.966 35.3103 308.966C30.435 308.966 26.4828 305.013 26.4828 300.138L26.4828 35.3103C26.4828 30.435 30.435 26.4828 35.3103 26.4828L476.69 26.4828C481.565 26.4828 485.517 30.435 485.517 35.3103L485.517 300.138C485.517 305.013 481.565 308.966 476.69 308.966ZM44.1379 291.31 467.862 291.31 467.862 44.1379 44.1379 44.1379Z" fill="#393F4A" transform="matrix(-1 0 0 1 896 192.276)"/><path d="M105.931 132.414 306.494 132.414 297.666 102.753C296.67 99.1934 297.997 95.39 300.992 93.2228 303.986 91.0557 308.014 90.9838 311.084 93.0428L410.395 160.221C412.992 161.83 414.572 164.669 414.572 167.724 414.572 170.78 412.992 173.618 410.395 175.228L311.437 242.406C308.367 244.464 304.34 244.393 301.345 242.225 298.35 240.058 297.023 236.255 298.019 232.695L306.847 203.034 105.931 203.034C101.056 203.034 97.1034 199.082 97.1034 194.207L97.1034 141.241C97.1034 136.366 101.056 132.414 105.931 132.414Z" fill="#393F4A" transform="matrix(-1 0 0 1 896 192.276)"/></g></svg>