<svg id="Layer_2" height="512" viewBox="0 0 512 512" width="512" xmlns="http://www.w3.org/2000/svg" data-name="Layer 2"><g id="Icon"><g id="_136" data-name="136"><path id="BG" d="m362 512h-212c-82.8 0-150-67.2-150-150v-212c0-82.8 67.2-150 150-150h212c82.8 0 150 67.2 150 150v212c0 82.8-67.2 150-150 150z" fill="#007bea"/><path d="m332.89 379.79v-53.57c0-3.98-1.58-7.79-4.39-10.61l-59.61-59.61 59.61-59.61c2.81-2.81 4.39-6.63 4.39-10.61v-53.57c0-13.36-16.16-20.06-25.61-10.61l-123.79 123.79c-5.86 5.86-5.86 15.36 0 21.21l123.79 123.79c9.45 9.45 25.61 2.76 25.61-10.61z" fill="#fff"/></g></g></svg>