<svg id="Capa_1" enable-background="new 0 0 497 497" height="512" viewBox="0 0 497 497" width="512" xmlns="http://www.w3.org/2000/svg"><path d="m449.843 291.235-.015 116.524c20.555-.337 47.172-10.295 47.172-22.527v-71.47c0-12.232-26.602-22.19-47.157-22.527z" fill="#a79ba7"/><path d="m47.157 407.759.015-116.524c-20.555.337-47.172 10.295-47.172 22.527v71.47c0 12.232 26.601 22.19 47.157 22.527z" fill="#a79ba7"/><path d="m430.77 291.221h21.675v116.561h-21.675z" fill="#fef0ae"/><g fill="#a79ba7"><path d="m438.49 274.641c-.018.283.027-.282 0 0z"/><path d="m248.5 66.039c-105.377 0-190.811 85.424-190.811 190.81 0 5.715.328 12.205.82 17.792l32.054 13.418 31.376-9.115c-.625-3.589-1.102-7.228-1.421-10.912-.319-3.682-.483-7.41-.483-11.184 0-70.841 57.624-128.474 128.465-128.474s128.465 57.633 128.465 128.474c0 3.774-.164 7.502-.483 11.184l30.884 20.027 31.124-13.418c.492-5.587.82-12.077.82-17.792 0-105.386-85.433-190.81-190.81-190.81z"/></g><path d="m437.052 227.43h-38.623c-14.961-69.024-76.491-120.893-149.929-120.893s-134.969 51.868-149.931 120.893h-38.621c-1.484 9.59-2.258 19.414-2.258 29.419 0 5.715.328 12.205.82 17.792l32.054 20.064 29.954-26.672c-.319-3.682-.483-7.41-.483-11.184 0-10.064 1.17-19.859 3.368-29.263 13.278-56.788 64.32-99.211 125.096-99.211 60.79 0 111.841 42.443 125.105 99.25 2.193 9.392 3.36 19.174 3.36 29.224 0 3.774-.164 7.502-.483 11.184l29.954 26.672 32.054-20.064c.492-5.587.82-12.077.82-17.792.001-10.005-.773-19.83-2.257-29.419z" fill="#7a6d79"/><path d="m130.955 268.033h-27.91l-12.623 78.358 12.623 84.57h27.91c20.518 0 37.152-16.625 37.152-37.143v-88.633c0-20.517-16.635-37.152-37.152-37.152z" fill="#554e56"/><path d="m393.955 268.033h-27.91c-20.517 0-37.152 16.635-37.152 37.152v88.633c0 20.517 16.635 37.143 37.152 37.143h27.91l13.411-81.464z" fill="#554e56"/><g fill="#f3eae6"><path d="m455.817 307.118v84.759c0 5.66-1.203 11.047-3.373 15.905-.082.191-.173.383-.264.574-6.216 13.344-19.752 22.605-35.448 22.605h-22.778v-162.928h22.778c7.046 0 13.654 1.86 19.36 5.114l.009.009c.811.465 1.613.966 2.388 1.486 6.08 4.083 10.947 9.826 13.955 16.58 2.17 4.858 3.373 10.235 3.373 15.896z"/><path d="m103.045 268.033v162.928h-22.778c-15.924 0-29.623-9.525-35.712-23.179-2.169-4.858-3.373-10.245-3.373-15.905v-84.759c0-5.66 1.203-11.038 3.373-15.896 3.008-6.754 7.875-12.497 13.955-16.58.775-.519 1.577-1.021 2.388-1.486.009 0 .018-.009.028-.009 5.706-3.254 12.305-5.114 19.342-5.114z"/></g></svg>