<svg id="blog" enable-background="new 0 0 300 300" height="512" viewBox="0 0 300 300" width="512" xmlns="http://www.w3.org/2000/svg"><g><circle cx="150" cy="164" fill="#e5efef" r="86"/><path d="m150 218c-7.719 0-14-6.281-14-14s6.281-14 14-14 14 6.281 14 14-6.281 14-14 14zm0-20c-3.309 0-6 2.691-6 6s2.691 6 6 6 6-2.691 6-6-2.691-6-6-6z" fill="#4c241d"/><path d="m86.53 152c0 2.502-2.028 4.53-4.53 4.53s-4.53-2.028-4.53-4.53 2.028-4.53 4.53-4.53 4.53 2.028 4.53 4.53z" fill="#4c241d"/><g><path d="m232 262c-17.673 0-32-14.327-32-32v-32c0-17.673 14.327-32 32-32 17.673 0 32 14.327 32 32v32c0 17.673-14.327 32-32 32z" fill="#fff"/><path d="m232 266c-19.852 0-36-16.15-36-36v-32c0-19.85 16.148-36 36-36s36 16.15 36 36v32c0 19.85-16.148 36-36 36zm0-96c-15.438 0-28 12.561-28 28v32c0 15.439 12.562 28 28 28s28-12.561 28-28v-32c0-15.439-12.562-28-28-28z" fill="#4c241d"/></g><path d="m232 198c-2.211 0-4-1.791-4-4v-42.738c0-5.107-4.156-9.262-9.262-9.262h-21.477c-5.105 0-9.262 4.154-9.262 9.262v1.477c0 9.518-7.742 17.262-17.262 17.262h-21.477c-9.52 0-17.262-7.744-17.262-17.262v-30.739c0-2.209 1.789-4 4-4s4 1.791 4 4v30.738c0 5.107 4.156 9.262 9.262 9.262h21.477c5.105 0 9.262-4.154 9.262-9.262v-1.477c0-9.518 7.742-17.262 17.262-17.262h21.477c9.52 0 17.262 7.744 17.262 17.262v42.739c0 2.209-1.789 4-4 4z" fill="#4c241d"/><path d="m264 202h-64c-2.211 0-4-1.791-4-4s1.789-4 4-4h64c2.211 0 4 1.791 4 4s-1.789 4-4 4z" fill="#4c241d"/><g><path d="m224.336 106h-168.672c-6.442 0-11.664-5.222-11.664-11.664v-44.672c0-6.442 5.222-11.664 11.664-11.664h168.671c6.443 0 11.665 5.222 11.665 11.664v44.671c0 6.443-5.222 11.665-11.664 11.665z" fill="#fc8c29"/><path d="m224.336 110h-168.672c-8.637 0-15.664-7.027-15.664-15.664v-44.672c0-8.637 7.027-15.664 15.664-15.664h168.672c8.637 0 15.664 7.027 15.664 15.664v44.672c0 8.637-7.027 15.664-15.664 15.664zm-168.672-68c-4.226 0-7.664 3.438-7.664 7.664v44.672c0 4.227 3.438 7.664 7.664 7.664h168.672c4.227 0 7.664-3.438 7.664-7.664v-44.672c0-4.227-3.438-7.664-7.664-7.664z" fill="#4c241d"/></g><g><path d="m213.101 122h-166.202c-6.019 0-10.899-4.88-10.899-10.899v-50.202c0-6.019 4.88-10.899 10.899-10.899h166.203c6.018 0 10.898 4.88 10.898 10.899v50.203c0 6.018-4.88 10.898-10.899 10.898z" fill="#fff"/><path d="m213.102 126h-166.204c-8.214 0-14.898-6.684-14.898-14.898v-50.204c0-8.214 6.684-14.898 14.898-14.898h166.203c8.215 0 14.899 6.684 14.899 14.898v50.203c0 8.215-6.684 14.899-14.898 14.899zm-166.204-72c-3.804 0-6.898 3.094-6.898 6.898v50.203c0 3.805 3.094 6.898 6.898 6.898h166.203c3.805 0 6.898-3.094 6.898-6.898v-50.203c0-3.805-3.094-6.898-6.898-6.898z" fill="#4c241d"/></g><g fill="#4c241d"><path d="m81.352 106h-13.352c-2.211 0-4-1.791-4-4v-32c0-2.209 1.789-4 4-4h9.352c5.871 0 10.648 4.777 10.648 10.648v2.703c0 1.539-.328 3.002-.918 4.324 2.957 1.895 4.918 5.21 4.918 8.973v2.703c0 5.872-4.777 10.649-10.648 10.649zm-9.352-8h9.352c1.46 0 2.648-1.188 2.648-2.648v-2.703c0-1.461-1.188-2.649-2.648-2.649h-9.352zm0-16h5.352c1.46 0 2.648-1.188 2.648-2.648v-2.703c0-1.461-1.188-2.649-2.648-2.649h-5.352z"/><path d="m124 106h-20c-2.211 0-4-1.791-4-4v-32c0-2.209 1.789-4 4-4s4 1.791 4 4v28h16c2.211 0 4 1.791 4 4s-1.789 4-4 4z"/><path d="m192 90h-8.445c-2.211 0-4-1.791-4-4s1.789-4 4-4h8.445c2.211 0 4 1.791 4 4s-1.789 4-4 4z"/><path d="m148 106h-4c-6.617 0-12-5.383-12-12v-16c0-6.617 5.383-12 12-12h4c6.617 0 12 5.383 12 12v16c0 6.617-5.383 12-12 12zm-4-32c-2.207 0-4 1.795-4 4v16c0 2.205 1.793 4 4 4h4c2.207 0 4-1.795 4-4v-16c0-2.205-1.793-4-4-4z"/><path d="m192 106h-20c-2.211 0-4-1.791-4-4v-32c0-2.209 1.789-4 4-4h16c2.211 0 4 1.791 4 4s-1.789 4-4 4h-12v24h12v-12c0-2.209 1.789-4 4-4s4 1.791 4 4v16c0 2.209-1.789 4-4 4z"/></g><path d="" style="fill:none;stroke:#4c241d;stroke-width:8;stroke-linecap:round;stroke-linejoin:round;stroke-miterlimit:10"/><path d="m96 206c-2.211 0-4-1.791-4-4v-8c0-2.209 1.789-4 4-4s4 1.791 4 4v8c0 2.209-1.789 4-4 4z" fill="#4c241d"/><path d="m96 230c-2.211 0-4-1.791-4-4v-8c0-2.209 1.789-4 4-4s4 1.791 4 4v8c0 2.209-1.789 4-4 4z" fill="#4c241d"/><path d="m88 214h-8c-2.211 0-4-1.791-4-4s1.789-4 4-4h8c2.211 0 4 1.791 4 4s-1.789 4-4 4z" fill="#4c241d"/><path d="m112 214h-8c-2.211 0-4-1.791-4-4s1.789-4 4-4h8c2.211 0 4 1.791 4 4s-1.789 4-4 4z" fill="#4c241d"/></g></svg>