<svg id="books-laptop" enable-background="new 0 0 300 300" height="512" viewBox="0 0 300 300" width="512" xmlns="http://www.w3.org/2000/svg"><g><circle cx="176" cy="134.828" fill="#d2ddff" r="86"/><circle cx="214.084" cy="55.84" fill="#4c241d" r="4.276"/><g><path d="m254 220.828h-208v-103.538c0-4.674 3.794-8.462 8.475-8.462h191.05c4.681 0 8.475 3.789 8.475 8.462z" fill="#9dc1e4"/><path d="m254 224.828h-208c-2.209 0-4-1.791-4-4v-103.537c0-6.871 5.596-12.463 12.475-12.463h191.051c6.879 0 12.475 5.592 12.475 12.463v103.537c-.001 2.209-1.792 4-4.001 4zm-204-8h200v-99.537c0-2.461-2.008-4.463-4.475-4.463h-191.05c-2.467 0-4.475 2.002-4.475 4.463z" fill="#4c241d"/></g><g><path d="m46 220.828h208v28h-208z" fill="#bf7e68"/><path d="m254 252.828h-208c-2.209 0-4-1.791-4-4v-28c0-2.209 1.791-4 4-4h208c2.209 0 4 1.791 4 4v28c0 2.209-1.791 4-4 4zm-204-8h200v-20h-200z" fill="#4c241d"/></g><g><path d="m170 240.828c0 4.418-3.582 8-8 8h-24c-4.418 0-8-3.582-8-8h-96c0 11.046 8.954 20 20 20h192c11.046 0 20-8.954 20-20z" fill="#fff"/><path d="m246 264.828h-192c-13.234 0-24-10.766-24-24 0-2.209 1.791-4 4-4h96c2.209 0 4 1.791 4 4 0 2.205 1.795 4 4 4h24c2.205 0 4-1.795 4-4 0-2.209 1.791-4 4-4h96c2.209 0 4 1.791 4 4 0 13.234-10.766 24-24 24zm-207.494-20c1.781 6.893 8.053 12 15.494 12h192c7.441 0 13.713-5.107 15.494-12h-88.18c-1.65 4.656-6.1 8-11.314 8h-24c-5.215 0-9.664-3.344-11.314-8z" fill="#4c241d"/></g><path d="m274 264.828h-248c-2.209 0-4-1.791-4-4s1.791-4 4-4h248c2.209 0 4 1.791 4 4s-1.791 4-4 4z" fill="#4c241d"/><g><path d="m210 220.828h-120c-8.837 0-16-7.163-16-16 0-8.837 7.163-16 16-16h120z" fill="#ffce56"/><path d="m210 224.828h-120c-11.027 0-20-8.973-20-20s8.973-20 20-20h120c2.209 0 4 1.791 4 4v32c0 2.209-1.791 4-4 4zm-120-32c-6.617 0-12 5.383-12 12s5.383 12 12 12h116v-24z" fill="#4c241d"/></g><path d="m222 192.828h-24c-2.209 0-4-1.791-4-4s1.791-4 4-4h24c2.209 0 4 1.791 4 4s-1.791 4-4 4z" fill="#4c241d"/><path d="m222 224.828h-24c-2.209 0-4-1.791-4-4s1.791-4 4-4h24c2.209 0 4 1.791 4 4s-1.791 4-4 4z" fill="#4c241d"/><path d="m210 204.828h-80c-2.209 0-4-1.791-4-4s1.791-4 4-4h80c2.209 0 4 1.791 4 4s-1.791 4-4 4z" fill="#4c241d"/><g><path d="m230 188.828h-124c-6.627 0-12-5.373-12-12 0-6.627 5.373-12 12-12h124z" fill="#bd53b5"/><path d="m230 192.828h-124c-8.822 0-16-7.178-16-16s7.178-16 16-16h124c2.209 0 4 1.791 4 4v24c0 2.209-1.791 4-4 4zm-124-24c-4.412 0-8 3.588-8 8s3.588 8 8 8h120v-16z" fill="#4c241d"/></g><g fill="#4c241d"><path d="m242 168.828h-24c-2.209 0-4-1.791-4-4s1.791-4 4-4h24c2.209 0 4 1.791 4 4s-1.791 4-4 4z"/><path d="m242 192.828h-24c-2.209 0-4-1.791-4-4s1.791-4 4-4h24c2.209 0 4 1.791 4 4s-1.791 4-4 4z"/><path d="m230 180.828h-80c-2.209 0-4-1.791-4-4s1.791-4 4-4h80c2.209 0 4 1.791 4 4s-1.791 4-4 4z"/><path d="m114 168.828h-24c-2.209 0-4-1.791-4-4s1.791-4 4-4h24c2.209 0 4 1.791 4 4s-1.791 4-4 4z"/></g><g><path d="m82 164.828h124c6.627 0 12-5.373 12-12 0-6.627-5.373-12-12-12h-124z" fill="#a9ba5a"/><path d="m206 168.828h-124c-2.209 0-4-1.791-4-4v-24c0-2.209 1.791-4 4-4h124c8.822 0 16 7.178 16 16s-7.178 16-16 16zm-120-8h120c4.412 0 8-3.588 8-8s-3.588-8-8-8h-120z" fill="#4c241d"/></g><path d="m94 144.828h-24c-2.209 0-4-1.791-4-4s1.791-4 4-4h24c2.209 0 4 1.791 4 4s-1.791 4-4 4z" fill="#4c241d"/><path d="m94 168.828h-24c-2.209 0-4-1.791-4-4s1.791-4 4-4h24c2.209 0 4 1.791 4 4s-1.791 4-4 4z" fill="#4c241d"/><path d="m110 156.828h-28c-2.209 0-4-1.791-4-4s1.791-4 4-4h28c2.209 0 4 1.791 4 4s-1.791 4-4 4z" fill="#4c241d"/><path d="m114 204.828h-20c-2.209 0-4-1.791-4-4s1.791-4 4-4h20c2.209 0 4 1.791 4 4s-1.791 4-4 4z" fill="#4c241d"/><g><path d="m190 140.828h-68v-16h68c4.418 0 8 3.582 8 8 0 4.418-3.582 8-8 8z" fill="#f4aeab"/><path d="m190 144.828h-68c-2.209 0-4-1.791-4-4v-16c0-2.209 1.791-4 4-4h68c6.617 0 12 5.383 12 12s-5.383 12-12 12zm-64-8h64c2.205 0 4-1.795 4-4s-1.795-4-4-4h-64z" fill="#4c241d"/></g><g><path d="m182 124.828h-80v-20h80c4.418 0 8 3.582 8 8v4c0 4.418-3.582 8-8 8z" fill="#e66353"/><path d="m182 128.828h-80c-2.209 0-4-1.791-4-4v-20c0-2.209 1.791-4 4-4h80c6.617 0 12 5.383 12 12v4c0 6.617-5.383 12-12 12zm-76-8h76c2.205 0 4-1.795 4-4v-4c0-2.205-1.795-4-4-4h-76z" fill="#4c241d"/></g><g><path d="m122 104.828h76v-24h-76c-4.418 0-8 3.582-8 8v8c0 4.418 3.582 8 8 8z" fill="#b5a19c"/><path d="m198 108.828h-76c-6.617 0-12-5.383-12-12v-8c0-6.617 5.383-12 12-12h76c2.209 0 4 1.791 4 4v24c0 2.209-1.791 4-4 4zm-76-24c-2.205 0-4 1.795-4 4v8c0 2.205 1.795 4 4 4h72v-16z" fill="#4c241d"/></g><path d="m171.656 54.484c-1.023 0-2.047-.391-2.828-1.172l-11.312-11.312c-1.562-1.562-1.562-4.094 0-5.656s4.094-1.562 5.656 0l11.312 11.312c1.562 1.562 1.562 4.094 0 5.656-.781.782-1.804 1.172-2.828 1.172z" fill="#4c241d"/><path d="m160.344 54.484c-1.023 0-2.047-.391-2.828-1.172-1.562-1.562-1.562-4.094 0-5.656l11.312-11.312c1.562-1.562 4.094-1.562 5.656 0s1.562 4.094 0 5.656l-11.312 11.312c-.781.782-1.805 1.172-2.828 1.172z" fill="#4c241d"/></g></svg>