<svg id="conference" enable-background="new 0 0 300 300" height="512" viewBox="0 0 300 300" width="512" xmlns="http://www.w3.org/2000/svg"><g><g><path d="m182 266h-60l8-28h44z" fill="#d6d6d6"/><path d="m182 270h-60c-1.256 0-2.438-.59-3.193-1.59-.756-1.004-.998-2.301-.652-3.508l8-28c.49-1.719 2.061-2.902 3.846-2.902h44c1.785 0 3.355 1.184 3.848 2.902l8 28c.344 1.207.102 2.504-.652 3.508-.759 1-1.943 1.59-3.197 1.59zm-54.697-8h49.393l-5.711-20h-37.967z" fill="#4c241d"/></g><circle cx="160" cy="116" fill="#d2ddff" r="86"/><path d="m262 270h-224c-2.209 0-4-1.789-4-4s1.791-4 4-4h224c2.211 0 4 1.789 4 4s-1.789 4-4 4z" fill="#4c241d"/><g><path d="m262 210h-224v9.472c0 10.233 8.295 18.528 18.528 18.528h186.952c10.228 0 18.52-8.292 18.52-18.52z" fill="#fff"/><path d="m243.48 242h-186.951c-12.422 0-22.529-10.105-22.529-22.527v-9.473c0-2.211 1.791-4 4-4h224c2.211 0 4 1.789 4 4v9.48c0 12.418-10.102 22.52-22.52 22.52zm-201.48-28v5.473c0 8.011 6.518 14.527 14.529 14.527h186.951c8.008 0 14.52-6.512 14.52-14.52v-5.48z" fill="#4c241d"/></g><g fill="#4c241d"><circle cx="151.596" cy="224.117" r="6.117"/><path d="m127.656 51.656c-1.023 0-2.047-.391-2.828-1.172l-11.312-11.312c-1.562-1.562-1.562-4.094 0-5.656s4.094-1.562 5.656 0l11.312 11.312c1.562 1.562 1.562 4.094 0 5.656-.781.782-1.804 1.172-2.828 1.172z"/><path d="m116.344 51.656c-1.023 0-2.047-.391-2.828-1.172-1.562-1.562-1.562-4.094 0-5.656l11.312-11.312c1.562-1.562 4.094-1.562 5.656 0s1.562 4.094 0 5.656l-11.312 11.312c-.781.782-1.805 1.172-2.828 1.172z"/><circle cx="164.96" cy="53.948" r="4.276"/></g><g><path d="m243.48 74h-186.96c-10.228 0-18.52 8.292-18.52 18.52v117.48h224v-117.48c0-10.228-8.292-18.52-18.52-18.52z" fill="#b5a19c"/><path d="m262 214h-224c-2.209 0-4-1.789-4-4v-117.48c0-12.418 10.102-22.52 22.52-22.52h186.96c12.418 0 22.52 10.102 22.52 22.52v117.48c0 2.211-1.789 4-4 4zm-220-8h216v-113.48c0-8.008-6.512-14.52-14.52-14.52h-186.96c-8.006 0-14.52 6.512-14.52 14.52z" fill="#4c241d"/></g><g><path d="m122 74h-65.48c-10.228 0-18.52 8.292-18.52 18.52v117.48h84z" fill="#a9ba5a"/><path d="m122 214h-84c-2.209 0-4-1.789-4-4v-117.48c0-12.418 10.102-22.52 22.52-22.52h65.48c2.209 0 4 1.789 4 4v136c0 2.211-1.791 4-4 4zm-80-8h76v-128h-61.48c-8.006 0-14.52 6.512-14.52 14.52z" fill="#4c241d"/></g><g><circle cx="62" cy="102" fill="#9dc1e4" r="8"/><path d="m62 114c-6.617 0-12-5.383-12-12s5.383-12 12-12 12 5.383 12 12-5.383 12-12 12zm0-16c-2.205 0-4 1.793-4 4s1.795 4 4 4 4-1.793 4-4-1.795-4-4-4z" fill="#4c241d"/></g><path d="m106 106h-20c-2.209 0-4-1.789-4-4s1.791-4 4-4h20c2.209 0 4 1.789 4 4s-1.791 4-4 4z" fill="#4c241d"/><g><circle cx="62" cy="130" fill="#9dc1e4" r="8"/><path d="m62 142c-6.617 0-12-5.383-12-12s5.383-12 12-12 12 5.383 12 12-5.383 12-12 12zm0-16c-2.205 0-4 1.793-4 4s1.795 4 4 4 4-1.793 4-4-1.795-4-4-4z" fill="#4c241d"/></g><path d="m106 134h-20c-2.209 0-4-1.789-4-4s1.791-4 4-4h20c2.209 0 4 1.789 4 4s-1.791 4-4 4z" fill="#4c241d"/><g><circle cx="62" cy="158" fill="#9dc1e4" r="8"/><path d="m62 170c-6.617 0-12-5.383-12-12s5.383-12 12-12 12 5.383 12 12-5.383 12-12 12zm0-16c-2.205 0-4 1.793-4 4s1.795 4 4 4 4-1.793 4-4-1.795-4-4-4z" fill="#4c241d"/></g><path d="m106 162h-20c-2.209 0-4-1.789-4-4s1.791-4 4-4h20c2.209 0 4 1.789 4 4s-1.791 4-4 4z" fill="#4c241d"/><g><circle cx="62" cy="186" fill="#9dc1e4" r="8"/><path d="m62 198c-6.617 0-12-5.383-12-12s5.383-12 12-12 12 5.383 12 12-5.383 12-12 12zm0-16c-2.205 0-4 1.793-4 4s1.795 4 4 4 4-1.793 4-4-1.795-4-4-4z" fill="#4c241d"/></g><path d="m106 190h-20c-2.209 0-4-1.789-4-4s1.791-4 4-4h20c2.209 0 4 1.789 4 4s-1.791 4-4 4z" fill="#4c241d"/><g><path d="m226 210h-72v-27.305c0-7.011 5.684-12.695 12.695-12.695h46.61c7.011 0 12.695 5.684 12.695 12.695z" fill="#6b4f5b"/><path d="m226 214h-72c-2.211 0-4-1.789-4-4v-27.305c0-9.207 7.488-16.695 16.695-16.695h46.609c9.207 0 16.695 7.488 16.695 16.695v27.305c.001 2.211-1.788 4-3.999 4zm-68-8h64v-23.305c0-4.793-3.902-8.695-8.695-8.695h-46.609c-4.793 0-8.695 3.902-8.695 8.695v23.305z" fill="#4c241d"/></g><g><path d="m182 170h16v40h-16z" fill="#fff"/><path d="m198 214h-16c-2.211 0-4-1.789-4-4v-40c0-2.211 1.789-4 4-4h16c2.211 0 4 1.789 4 4v40c0 2.211-1.789 4-4 4zm-12-8h8v-32h-8z" fill="#4c241d"/></g><g><path d="m190 178c-4.418 0-8-3.582-8-8v-17.628h16v17.628c0 4.418-3.582 8-8 8z" fill="#ffe8dc"/><path d="m190 182c-6.617 0-12-5.383-12-12v-17.629c0-2.211 1.789-4 4-4h16c2.211 0 4 1.789 4 4v17.629c0 6.617-5.383 12-12 12zm-4-25.629v13.629c0 2.207 1.793 4 4 4s4-1.793 4-4v-13.629z" fill="#4c241d"/></g><g><path d="m190 162c-13.255 0-24-10.745-24-24v-21.55h48v21.55c0 13.255-10.745 24-24 24z" fill="#ffe8dc"/><path d="m190 166c-15.438 0-28-12.562-28-28v-21.551c0-2.211 1.789-4 4-4h48c2.211 0 4 1.789 4 4v21.551c0 15.438-12.562 28-28 28zm-20-45.551v17.551c0 11.027 8.973 20 20 20s20-8.973 20-20v-17.551z" fill="#4c241d"/></g><g><path d="m166 129.897 8.727-9.114s13.091 9.114 30.546 0l8.727 9.114v-11.054c0-7.674-6.153-13.896-13.742-13.896 0-3.837-3.076-6.948-6.871-6.948h-13.644c-7.59 0-13.742 6.221-13.742 13.896v18.002z" fill="#ffce56"/><path d="m214 133.898c-1.07 0-2.121-.43-2.891-1.234l-6.723-7.02c-13.188 5.773-23.883 2.465-28.887.117l-6.609 6.902c-1.129 1.18-2.859 1.559-4.383.945-1.515-.608-2.507-2.077-2.507-3.71v-18.004c0-9.867 7.961-17.894 17.742-17.894h13.645c4.715 0 8.738 3.039 10.242 7.273 8.176 1.59 14.371 8.863 14.371 17.57v11.055c0 1.633-.992 3.102-2.508 3.711-.484.196-.992.289-1.492.289zm-39.273-17.113c.797 0 1.594.234 2.285.719.445.293 11.449 7.547 26.41-.266 1.574-.82 3.512-.504 4.742.781l1.836 1.918v-1.094c0-5.457-4.371-9.895-9.742-9.895-2.211 0-4-1.789-4-4 0-1.625-1.289-2.949-2.871-2.949h-13.645c-5.371 0-9.742 4.438-9.742 9.895v8.043l1.836-1.918c.781-.812 1.832-1.234 2.891-1.234z" fill="#4c241d"/></g></g></svg>