<svg id="group" enable-background="new 0 0 300 300" height="512" viewBox="0 0 300 300" width="512" xmlns="http://www.w3.org/2000/svg"><g><circle cx="171.638" cy="159.996" fill="#ffc7c7" r="86"/><g><path d="m185.638 269.996v-53.312c0-4.94-2.159-9.62-5.881-12.748l-12.149-10.21c-2.893-2.431-6.488-3.756-10.193-3.756h-15.553c-3.705 0-7.3 1.325-10.193 3.756l-12.149 10.21c-3.722 3.128-5.881 7.808-5.881 12.748v53.312z" fill="#bf7e68"/><path d="m185.638 273.996h-72c-2.209 0-4-1.791-4-4v-53.312c0-6.145 2.664-11.906 7.307-15.811l12.152-10.209c3.6-3.025 8.133-4.693 12.764-4.693h15.555c4.631 0 9.164 1.668 12.766 4.693l12.148 10.209c4.645 3.904 7.309 9.666 7.309 15.811v53.312c-.001 2.209-1.792 4-4.001 4zm-68-8h64v-49.312c0-3.775-1.623-7.307-4.455-9.686l-12.148-10.209c-2.164-1.818-4.869-2.818-7.619-2.818h-15.556c-2.75 0-5.455 1-7.617 2.818l-12.152 10.209c-2.83 2.379-4.453 5.91-4.453 9.686z" fill="#4c241d"/></g><g><path d="m201.497 269.996c24.378 0 44.14-19.762 44.14-44.14v-21.171c0-4.94-2.159-9.62-5.881-12.748l-12.149-10.21c-2.893-2.431-6.488-3.756-10.193-3.756h-15.553c-3.705 0-7.3 1.325-10.193 3.756l-12.149 10.21c-3.722 3.128-5.881 7.808-5.881 12.748v65.312h27.859z" fill="#fc8c29"/><path d="m201.497 273.996h-27.859c-2.209 0-4-1.791-4-4v-65.312c0-6.145 2.664-11.906 7.307-15.811l12.152-10.209c3.6-3.025 8.133-4.693 12.764-4.693h15.555c4.631 0 9.164 1.668 12.766 4.693l12.148 10.209c4.645 3.904 7.309 9.666 7.309 15.811v21.172c-.001 26.544-21.597 48.14-48.142 48.14zm-23.859-8h23.859c22.133 0 40.141-18.008 40.141-40.141v-21.172c0-3.775-1.623-7.307-4.455-9.686l-12.148-10.209c-2.164-1.818-4.869-2.818-7.619-2.818h-15.556c-2.75 0-5.455 1-7.617 2.818l-12.152 10.209c-2.83 2.379-4.453 5.91-4.453 9.686z" fill="#4c241d"/></g><g><path d="m125.638 269.996v-65.312c0-4.94-2.159-9.62-5.881-12.748l-12.149-10.21c-2.893-2.431-6.488-3.756-10.193-3.756h-15.554c-3.705 0-7.3 1.325-10.193 3.756l-12.149 10.21c-3.722 3.128-5.881 7.808-5.881 12.748v21.171c0 24.378 19.762 44.14 44.14 44.14h27.86z" fill="#a9ba5a"/><path d="m125.638 273.996h-27.86c-26.545 0-48.141-21.596-48.141-48.141v-21.172c0-6.145 2.664-11.906 7.307-15.811l12.152-10.209c3.6-3.025 8.133-4.693 12.764-4.693h15.555c4.631 0 9.164 1.668 12.766 4.693l12.148 10.209c4.645 3.904 7.309 9.666 7.309 15.811v65.312c0 2.21-1.791 4.001-4 4.001zm-43.778-92.025c-2.75 0-5.455 1-7.617 2.818l-12.152 10.209c-2.83 2.379-4.453 5.91-4.453 9.686v21.172c0 22.133 18.008 40.141 40.141 40.141h23.859v-61.312c0-3.775-1.623-7.307-4.455-9.686l-12.148-10.209c-2.164-1.818-4.869-2.818-7.619-2.818h-15.556z" fill="#4c241d"/></g><circle cx="253.638" cy="109.996" fill="#4c241d" r="4"/><circle cx="53.638" cy="125.996" fill="#4c241d" r="4"/><path d="m46.362 81.789c-1.023 0-2.047-.391-2.828-1.172-1.562-1.562-1.562-4.094 0-5.656l11.793-11.793c1.562-1.562 4.094-1.562 5.656 0 1.562 1.563 1.562 4.094 0 5.656l-11.793 11.793c-.781.781-1.804 1.172-2.828 1.172z" fill="#4c241d"/><path d="m58.155 81.789c-1.023 0-2.047-.391-2.828-1.172l-11.793-11.793c-1.562-1.562-1.562-4.094 0-5.656s4.094-1.562 5.656 0l11.793 11.793c1.562 1.562 1.562 4.094 0 5.656-.781.781-1.804 1.172-2.828 1.172z" fill="#4c241d"/><g><path d="m189.638 205.996v36c0 4.418-3.582 8-8 8-4.418 0-8-3.582-8-8v-36" fill="#fc8c29"/><path d="m181.638 253.996c-6.617 0-12-5.383-12-12v-36c0-2.209 1.791-4 4-4s4 1.791 4 4v36c0 2.205 1.795 4 4 4s4-1.795 4-4v-36c0-2.209 1.791-4 4-4s4 1.791 4 4v36c0 6.617-5.383 12-12 12z" fill="#4c241d"/></g><g><path d="m245.638 205.996v36c0 4.418-3.582 8-8 8-4.418 0-8-3.582-8-8v-36" fill="#fc8c29"/><path d="m237.638 253.996c-6.617 0-12-5.383-12-12v-36c0-2.209 1.791-4 4-4s4 1.791 4 4v36c0 2.205 1.795 4 4 4s4-1.795 4-4v-36c0-2.209 1.791-4 4-4s4 1.791 4 4v36c0 6.617-5.383 12-12 12z" fill="#4c241d"/></g><g><path d="m125.638 205.996v36c0 4.418-3.582 8-8 8-4.418 0-8-3.582-8-8v-36" fill="#a9ba5a"/><path d="m117.638 253.996c-6.617 0-12-5.383-12-12v-36c0-2.209 1.791-4 4-4s4 1.791 4 4v36c0 2.205 1.795 4 4 4s4-1.795 4-4v-36c0-2.209 1.791-4 4-4s4 1.791 4 4v36c0 6.617-5.383 12-12 12z" fill="#4c241d"/></g><g><path d="m69.638 205.996v36c0 4.418-3.582 8-8 8-4.418 0-8-3.582-8-8v-36" fill="#a9ba5a"/><path d="m61.638 253.996c-6.617 0-12-5.383-12-12v-36c0-2.209 1.791-4 4-4s4 1.791 4 4v36c0 2.205 1.795 4 4 4s4-1.795 4-4v-36c0-2.209 1.791-4 4-4s4 1.791 4 4v36c0 6.617-5.383 12-12 12z" fill="#4c241d"/></g><g><path d="m225.638 177.996h-13.926c-9.982 0-18.074-8.092-18.074-18.074v-9.926c0-8.837 7.163-16 16-16 8.837 0 16 7.163 16 16z" fill="#b5a19c"/><path d="m225.638 181.996h-13.926c-12.172 0-22.074-9.902-22.074-22.074v-9.926c0-11.027 8.973-20 20-20s20 8.973 20 20v28c0 2.209-1.791 4-4 4zm-16-44c-6.617 0-12 5.383-12 12v9.926c0 7.76 6.314 14.074 14.074 14.074h9.926v-24c0-6.617-5.383-12-12-12z" fill="#4c241d"/></g><g><path d="m165.638 189.996h-13.926c-9.982 0-18.074-8.092-18.074-18.074v-9.926c0-8.837 7.163-16 16-16 8.837 0 16 7.163 16 16z" fill="#e7d1c4"/><path d="m165.638 193.996h-13.926c-12.172 0-22.074-9.902-22.074-22.074v-9.926c0-11.027 8.973-20 20-20s20 8.973 20 20v28c0 2.209-1.791 4-4 4zm-16-44c-6.617 0-12 5.383-12 12v9.926c0 7.76 6.314 14.074 14.074 14.074h9.926v-24c0-6.617-5.383-12-12-12z" fill="#4c241d"/></g><g><path d="m73.638 177.996h13.926c9.982 0 18.074-8.092 18.074-18.074v-9.926c0-8.837-7.163-16-16-16-8.837 0-16 7.163-16 16z" fill="#ffded5"/><path d="m87.563 181.996h-13.925c-2.209 0-4-1.791-4-4v-28c0-11.027 8.973-20 20-20s20 8.973 20 20v9.926c0 12.172-9.903 22.074-22.075 22.074zm-9.925-8h9.926c7.76 0 14.074-6.314 14.074-14.074v-9.926c0-6.617-5.383-12-12-12s-12 5.383-12 12z" fill="#4c241d"/></g><g><path d="m165.638 105.996c.639-8.873 5.405-16.15 11.522-22.723 5.261-5.654 8.478-13.206 8.478-21.512 0-18.749-16.364-33.704-35.689-31.56-14.17 1.573-25.831 12.661-27.941 26.659-1.55 10.282 1.875 19.797 8.24 26.554 6.111 6.488 10.768 13.763 11.39 22.582z" fill="#ffce56"/><path d="m165.638 109.996h-24c-2.1 0-3.842-1.623-3.99-3.719-.479-6.766-3.754-13.158-10.312-20.121-7.553-8.021-10.938-18.918-9.281-29.893 2.357-15.645 15.586-28.277 31.453-30.039 10.301-1.131 20.582 2.125 28.221 8.959 7.57 6.775 11.91 16.463 11.91 26.578 0 9.012-3.393 17.619-9.551 24.236-6.746 7.248-9.971 13.504-10.459 20.285-.151 2.093-1.894 3.714-3.991 3.714zm-20.487-8h16.986c1.824-9.465 7.646-16.67 12.094-21.447 4.775-5.133 7.406-11.805 7.406-18.787 0-7.842-3.369-15.357-9.246-20.617-6.029-5.398-13.838-7.889-22.002-6.967-12.326 1.367-22.6 11.156-24.426 23.277-1.287 8.533 1.336 16.994 7.195 23.217 6.757 7.172 10.632 14.035 11.993 21.324z" fill="#4c241d"/></g><g fill="#4c241d"><path d="m153.638 113.996c-2.209 0-4-1.791-4-4v-28c0-2.209 1.791-4 4-4s4 1.791 4 4v28c0 2.209-1.791 4-4 4z"/><path d="m153.638 85.996c-1.023 0-2.047-.391-2.828-1.172l-12-12c-1.562-1.562-1.562-4.094 0-5.656s4.094-1.562 5.656 0l9.172 9.172 9.172-9.172c1.562-1.562 4.094-1.562 5.656 0s1.562 4.094 0 5.656l-12 12c-.781.781-1.805 1.172-2.828 1.172z"/><path d="m209.638 65.996h-12c-2.209 0-4-1.791-4-4s1.791-4 4-4h12c2.209 0 4 1.791 4 4s-1.791 4-4 4z"/><path d="m201.638 85.996c-1.023 0-2.047-.391-2.828-1.172l-4-4c-1.562-1.562-1.562-4.094 0-5.656s4.094-1.562 5.656 0l4 4c1.562 1.562 1.562 4.094 0 5.656-.781.781-1.805 1.172-2.828 1.172z"/><path d="m197.638 49.996c-1.023 0-2.047-.391-2.828-1.172-1.562-1.562-1.562-4.094 0-5.656l4-4c1.562-1.562 4.094-1.562 5.656 0s1.562 4.094 0 5.656l-4 4c-.781.781-1.805 1.172-2.828 1.172z"/><path d="m109.638 65.996h-12c-2.209 0-4-1.791-4-4s1.791-4 4-4h12c2.209 0 4 1.791 4 4s-1.791 4-4 4z"/><path d="m105.638 85.996c-1.023 0-2.047-.391-2.828-1.172-1.562-1.562-1.562-4.094 0-5.656l4-4c1.562-1.562 4.094-1.562 5.656 0s1.562 4.094 0 5.656l-4 4c-.781.781-1.805 1.172-2.828 1.172z"/><path d="m109.638 49.996c-1.023 0-2.047-.391-2.828-1.172l-4-4c-1.562-1.562-1.562-4.094 0-5.656s4.094-1.562 5.656 0l4 4c1.562 1.562 1.562 4.094 0 5.656-.781.781-1.805 1.172-2.828 1.172z"/></g><g><path d="m141.638 105.996h24v12h-24z" fill="#efefd2"/><path d="m165.638 121.996h-24c-2.209 0-4-1.791-4-4v-12c0-2.209 1.791-4 4-4h24c2.209 0 4 1.791 4 4v12c0 2.209-1.791 4-4 4zm-20-8h16v-4h-16z" fill="#4c241d"/></g><g><path d="m141.638 117.996h24v12h-24z" fill="#efefd2"/><path d="m165.638 133.996h-24c-2.209 0-4-1.791-4-4v-12c0-2.209 1.791-4 4-4h24c2.209 0 4 1.791 4 4v12c0 2.209-1.791 4-4 4zm-20-8h16v-4h-16z" fill="#4c241d"/></g></g></svg>