<svg id="gift3" enable-background="new 0 0 300 300" height="512" viewBox="0 0 300 300" width="512" xmlns="http://www.w3.org/2000/svg"><g><circle cx="176.735" cy="118" fill="#ffe1e1" r="86"/><path d="m192.735 56c-7.719 0-14-6.281-14-14s6.281-14 14-14 14 6.281 14 14-6.281 14-14 14zm0-20c-3.309 0-6 2.691-6 6s2.691 6 6 6 6-2.691 6-6-2.691-6-6-6z" fill="#4c241d"/><g><path d="m222.242 268h-159.013c-6.9 0-12.493-5.593-12.493-12.493v-119.507h184v119.507c-.001 6.9-5.594 12.493-12.494 12.493z" fill="#d9be6f"/><path d="m222.241 272h-159.012c-9.096 0-16.494-7.398-16.494-16.494v-119.506c0-2.209 1.791-4 4-4h184c2.209 0 4 1.791 4 4v119.506c0 9.096-7.398 16.494-16.494 16.494zm-167.506-132v115.506c0 4.684 3.811 8.494 8.494 8.494h159.012c4.684 0 8.494-3.811 8.494-8.494v-115.506z" fill="#4c241d"/></g><g><path d="m244.128 136h-202.786c-1.44 0-2.607-1.167-2.607-2.607v-26.786c0-1.44 1.167-2.607 2.607-2.607h202.786c1.44 0 2.607 1.167 2.607 2.607v26.786c0 1.44-1.167 2.607-2.607 2.607z" fill="#ffce56"/><path d="m244.128 140h-202.785c-3.643 0-6.607-2.965-6.607-6.607v-26.785c0-3.643 2.965-6.607 6.607-6.607h202.785c3.643 0 6.607 2.965 6.607 6.607v26.785c0 3.642-2.965 6.607-6.607 6.607zm-201.393-8h200v-24h-200z" fill="#4c241d"/></g><g><path d="m122.735 104h40v32h-40z" fill="#a9ba5a"/><path d="m162.735 140h-40c-2.209 0-4-1.791-4-4v-32c0-2.209 1.791-4 4-4h40c2.209 0 4 1.791 4 4v32c0 2.209-1.791 4-4 4zm-36-8h32v-24h-32z" fill="#4c241d"/></g><path d="m170.735 108h-28c-2.209 0-4-1.791-4-4 0-19.85 16.15-36 36-36h28c2.209 0 4 1.791 4 4 0 19.85-16.15 36-36 36zm-23.715-8h23.715c14.082 0 25.768-10.449 27.715-24h-23.715c-14.082 0-25.767 10.449-27.715 24z" fill="#4c241d"/><path d="m138.735 108h-28c-19.85 0-36-16.15-36-36 0-2.209 1.791-4 4-4h28c19.85 0 36 16.15 36 36 0 2.209-1.791 4-4 4zm-55.715-32c1.947 13.551 13.633 24 27.715 24h23.715c-1.947-13.551-13.633-24-27.715-24z" fill="#4c241d"/><path d="m254.735 272h-36c-2.209 0-4-1.791-4-4s1.791-4 4-4h36c2.209 0 4 1.791 4 4s-1.791 4-4 4z" fill="#4c241d"/><g><path d="m158.735 148v120h-32v-132h32" fill="#a9ba5a"/><path d="m158.735 272h-32c-2.209 0-4-1.791-4-4v-132c0-2.209 1.791-4 4-4h32c2.209 0 4 1.791 4 4s-1.791 4-4 4h-28v124h24v-116c0-2.209 1.791-4 4-4s4 1.791 4 4v120c0 2.209-1.791 4-4 4z" fill="#4c241d"/></g><g><path d="m174.735 212h44v36h-44z" fill="#9dc1e4"/><path d="m218.735 252h-44c-2.209 0-4-1.791-4-4v-36c0-2.209 1.791-4 4-4h44c2.209 0 4 1.791 4 4v36c0 2.209-1.791 4-4 4zm-40-8h36v-28h-36z" fill="#4c241d"/></g><g fill="#4c241d"><path d="m206.735 228h-20c-2.209 0-4-1.791-4-4s1.791-4 4-4h20c2.209 0 4 1.791 4 4s-1.791 4-4 4z"/><path d="m198.735 240h-12c-2.209 0-4-1.791-4-4s1.791-4 4-4h12c2.209 0 4 1.791 4 4s-1.791 4-4 4z"/><path d="m138.735 136h8v132h-8z"/><path d="m122.735 116h40v8h-40z"/><circle cx="260.735" cy="50" r="4.529"/><path d="m244.392 73.656c-1.023 0-2.047-.391-2.828-1.172l-11.312-11.312c-1.562-1.562-1.562-4.094 0-5.656s4.094-1.562 5.656 0l11.312 11.312c1.562 1.562 1.562 4.094 0 5.656-.782.782-1.805 1.172-2.828 1.172z"/><path d="m233.079 73.656c-1.023 0-2.047-.391-2.828-1.172-1.562-1.562-1.562-4.094 0-5.656l11.312-11.312c1.562-1.562 4.094-1.562 5.656 0s1.562 4.094 0 5.656l-11.312 11.312c-.781.782-1.805 1.172-2.828 1.172z"/></g></g></svg>