<svg id="test" enable-background="new 0 0 300 300" height="512" viewBox="0 0 300 300" width="512" xmlns="http://www.w3.org/2000/svg"><g><circle cx="132.828" cy="150.003" fill="#d2ddff" r="86"/><g><path d="m222.828 44.003h-120c-4.418 0-8 3.582-8 8v196c0 4.418 3.582 8 8 8h144c4.418 0 8-3.582 8-8v-172z" fill="#fff"/><path d="m246.828 260.003h-144c-6.617 0-12-5.383-12-12v-196c0-6.617 5.383-12 12-12h120c1.061 0 2.078.422 2.828 1.172l32 32c.75.75 1.172 1.766 1.172 2.828v172c0 6.617-5.383 12-12 12zm-144-212c-2.205 0-4 1.793-4 4v196c0 2.207 1.795 4 4 4h144c2.205 0 4-1.793 4-4v-170.344l-29.656-29.656z" fill="#4c241d"/></g><g fill="#4c241d"><path d="m56.484 185.659c-1.023 0-2.047-.391-2.828-1.172l-11.312-11.312c-1.562-1.562-1.562-4.094 0-5.656s4.094-1.562 5.656 0l11.312 11.312c1.562 1.562 1.562 4.094 0 5.656-.781.781-1.804 1.172-2.828 1.172z"/><path d="m45.172 185.659c-1.023 0-2.047-.391-2.828-1.172-1.562-1.562-1.562-4.094 0-5.656l11.312-11.312c1.562-1.562 4.094-1.562 5.656 0s1.562 4.094 0 5.656l-11.312 11.312c-.781.781-1.805 1.172-2.828 1.172z"/><circle cx="78.828" cy="164.003" r="4"/><circle cx="66.828" cy="120.003" r="4"/><path d="m170.826 240.003c-1.74 0-3.342-1.145-3.844-2.902l-7.172-25.098h-1.965l-7.172 25.098c-.607 2.125-2.822 3.34-4.945 2.75-2.123-.609-3.354-2.824-2.746-4.945l8-28c.49-1.719 2.061-2.902 3.846-2.902h8c1.785 0 3.355 1.184 3.846 2.902l8 28c.607 2.121-.623 4.336-2.746 4.945-.367.101-.739.152-1.102.152z"/><path d="m166.828 228.003h-16c-2.209 0-4-1.789-4-4s1.791-4 4-4h16c2.209 0 4 1.789 4 4s-1.791 4-4 4z"/><path d="m186.828 216.003c-2.209 0-4-1.789-4-4v-16c0-2.211 1.791-4 4-4s4 1.789 4 4v16c0 2.211-1.791 4-4 4z"/><path d="m194.828 208.003h-16c-2.209 0-4-1.789-4-4s1.791-4 4-4h16c2.209 0 4 1.789 4 4s-1.791 4-4 4z"/></g><g><path d="m222.828 76.003h32l-32-32z" fill="#efefd2"/><path d="m254.828 80.003h-32c-2.209 0-4-1.789-4-4v-32c0-1.617.975-3.078 2.469-3.695 1.494-.629 3.213-.281 4.359.867l32 32c1.145 1.145 1.486 2.863.867 4.359s-2.078 2.469-3.695 2.469zm-28-8h18.344l-18.344-18.344z" fill="#4c241d"/></g><g><circle cx="130.828" cy="76.003" fill="#a9ba5a" r="16"/><path d="m130.828 96.003c-11.027 0-20-8.973-20-20s8.973-20 20-20 20 8.973 20 20-8.973 20-20 20zm0-32c-6.617 0-12 5.383-12 12s5.383 12 12 12 12-5.383 12-12-5.383-12-12-12z" fill="#4c241d"/></g><g><path d="m126.828 76.003 4 4 8-12" fill="#a9ba5a"/><path d="m130.828 84.003c-1.057 0-2.074-.418-2.828-1.172l-4-4c-1.562-1.562-1.562-4.094 0-5.656s4.094-1.562 5.656 0l.551.551 5.293-7.941c1.223-1.84 3.707-2.332 5.547-1.109 1.838 1.227 2.334 3.707 1.109 5.547l-8 12c-.664.996-1.742 1.645-2.934 1.762-.132.01-.263.018-.394.018z" fill="#4c241d"/></g><g><circle cx="130.828" cy="120.003" fill="#a9ba5a" r="16"/><path d="m130.828 140.003c-11.027 0-20-8.973-20-20s8.973-20 20-20 20 8.973 20 20-8.973 20-20 20zm0-32c-6.617 0-12 5.383-12 12s5.383 12 12 12 12-5.383 12-12-5.383-12-12-12z" fill="#4c241d"/></g><g><path d="m126.828 120.003 4 4 8-12" fill="#a9ba5a"/><path d="m130.828 128.003c-1.057 0-2.074-.418-2.828-1.172l-4-4c-1.562-1.562-1.562-4.094 0-5.656s4.094-1.562 5.656 0l.551.551 5.293-7.941c1.223-1.836 3.707-2.332 5.547-1.109 1.838 1.227 2.334 3.707 1.109 5.547l-8 12c-.664.996-1.742 1.645-2.934 1.762-.132.01-.263.018-.394.018z" fill="#4c241d"/></g><g><circle cx="130.828" cy="164.003" fill="#a9ba5a" r="16"/><path d="m130.828 184.003c-11.027 0-20-8.973-20-20s8.973-20 20-20 20 8.973 20 20-8.973 20-20 20zm0-32c-6.617 0-12 5.383-12 12s5.383 12 12 12 12-5.383 12-12-5.383-12-12-12z" fill="#4c241d"/></g><g><path d="m126.828 164.003 4 4 8-12" fill="#a9ba5a"/><path d="m130.828 172.003c-1.057 0-2.074-.418-2.828-1.172l-4-4c-1.562-1.562-1.562-4.094 0-5.656s4.094-1.562 5.656 0l.551.551 5.293-7.941c1.223-1.84 3.707-2.336 5.547-1.109 1.838 1.227 2.334 3.707 1.109 5.547l-8 12c-.664.996-1.742 1.645-2.934 1.762-.132.01-.263.018-.394.018z" fill="#4c241d"/></g><path d="m194.828 68.003h-28c-2.209 0-4-1.789-4-4s1.791-4 4-4h28c2.209 0 4 1.789 4 4s-1.791 4-4 4z" fill="#4c241d"/><path d="m206.828 80.003h-40c-2.209 0-4-1.789-4-4s1.791-4 4-4h40c2.209 0 4 1.789 4 4s-1.791 4-4 4z" fill="#4c241d"/><path d="m194.828 116.003h-28c-2.209 0-4-1.789-4-4s1.791-4 4-4h28c2.209 0 4 1.789 4 4s-1.791 4-4 4z" fill="#4c241d"/><path d="m214.828 128.003h-48c-2.209 0-4-1.789-4-4s1.791-4 4-4h48c2.209 0 4 1.789 4 4s-1.791 4-4 4z" fill="#4c241d"/><path d="m194.828 164.003h-28c-2.209 0-4-1.789-4-4s1.791-4 4-4h28c2.209 0 4 1.789 4 4s-1.791 4-4 4z" fill="#4c241d"/><path d="m210.828 176.003h-44c-2.209 0-4-1.789-4-4s1.791-4 4-4h44c2.209 0 4 1.789 4 4s-1.791 4-4 4z" fill="#4c241d"/><path d="m230.828 116.003h-24c-2.209 0-4-1.789-4-4s1.791-4 4-4h24c2.209 0 4 1.789 4 4s-1.791 4-4 4z" fill="#4c241d"/><path d="m226.828 164.003h-20c-2.209 0-4-1.789-4-4s1.791-4 4-4h20c2.209 0 4 1.789 4 4s-1.791 4-4 4z" fill="#4c241d"/></g></svg>