<?xml version="1.0" encoding="UTF-8" standalone="no"?>
<!-- Created with Inkscape (http://www.inkscape.org/) -->

<svg
   version="1.1"
   id="svg2445"
   xml:space="preserve"
   width="682.66669"
   height="682.66669"
   viewBox="0 0 682.66669 682.66669"
   xmlns="http://www.w3.org/2000/svg"
   xmlns:svg="http://www.w3.org/2000/svg"><defs
     id="defs2449"><clipPath
       clipPathUnits="userSpaceOnUse"
       id="clipPath2459"><path
         d="M 0,512 H 512 V 0 H 0 Z"
         id="path2457" /></clipPath></defs><g
     id="g2451"
     transform="matrix(1.3333333,0,0,-1.3333333,0,682.66667)"><g
       id="g2453"><g
         id="g2455"
         clip-path="url(#clipPath2459)"><g
           id="g2461"
           transform="translate(456.9687,104.8608)"><path
             d="m 0,0 c 27.744,39.712 44.031,88.021 44.031,140.139 0,135.31 -109.69,245 -245,245 -135.309,0 -245,-109.69 -245,-245 0,-52.118 16.287,-100.427 44.032,-140.139 z"
             style="fill:#ffdd40;fill-opacity:1;fill-rule:nonzero;stroke:none"
             id="path2463" /></g><g
           id="g2465"
           transform="translate(56,230)"><path
             d="m 0,0 c 0,-110.457 89.543,-200 200,-200 110.457,0 200,89.543 200,200 0,110.457 -89.543,200 -200,200 C 89.543,200 0,110.457 0,0"
             style="fill:#ffc839;fill-opacity:1;fill-rule:nonzero;stroke:none"
             id="path2467" /></g><g
           id="g2469"
           transform="translate(256)"><path
             d="m 0,0 c 83.18,0 156.665,41.461 200.951,104.834 v 10e-4 c -0.001,0.008 -0.002,0.017 -0.002,0.026 -8.256,22.709 -16.99,42.685 -24.722,51.911 -0.905,1.079 -1.795,2.019 -2.668,2.79 -23.414,20.673 -123.589,37.435 -126.173,37.863 h -94.772 c -2.584,-0.428 -102.759,-17.19 -126.173,-37.863 -0.873,-0.771 -1.763,-1.711 -2.668,-2.79 -7.732,-9.226 -16.466,-29.202 -24.722,-51.911 -10e-4,-0.009 -10e-4,-0.018 -0.002,-0.026 C -156.665,41.461 -83.18,0 0,0"
             style="fill:#ff4155;fill-opacity:1;fill-rule:nonzero;stroke:none"
             id="path2471" /></g><g
           id="g2473"
           transform="translate(144.8496,183.9756)"><path
             d="m 0,0 c -25.755,-6.588 -51.864,-15.104 -62.408,-24.413 -8.351,-7.373 -18.17,-29.338 -27.391,-54.702 C -45.515,-142.502 27.959,-183.976 111.15,-183.976 8.63,-125.275 0.22,-3.473 0,0"
             style="fill:#e80054;fill-opacity:1;fill-rule:nonzero;stroke:none"
             id="path2475" /></g><g
           id="g2477"
           transform="translate(222.9434,92.8701)"><path
             d="m 0,0 c -29.072,-12.977 -57.852,-10.64 -78.955,6.41 -18.613,15.037 -27.635,38.996 -22.981,61.039 4.348,20.601 14.8,34.518 24.908,47.977 13.735,18.29 26.709,35.566 19.161,64.033 l -10.485,39.127 c -1.072,4.001 -5.187,6.374 -9.185,5.304 -4.001,-1.072 -6.375,-5.184 -5.304,-9.185 l 10.48,-39.109 c 5.677,-21.415 -3.693,-33.893 -16.662,-51.162 -10.572,-14.079 -22.555,-30.035 -27.59,-53.887 -5.806,-27.505 5.275,-57.26 28.232,-75.805 25.647,-20.72 60.09,-23.796 94.494,-8.439 34.02,15.184 71.583,10.771 93.477,-10.982 14.497,-14.404 19.064,-34.008 13.158,-54.926 5.69,1.956 11.283,4.115 16.773,6.469 3.366,22.322 -3.252,43.095 -19.359,59.098 C 83.905,12.049 39.635,17.691 0,0"
             style="fill:#543e5b;fill-opacity:1;fill-rule:nonzero;stroke:none"
             id="path2479" /></g><g
           id="g2481"
           transform="translate(91.0703,85.1572)"><path
             d="m 0,0 v -21.327 c 7.157,-6.52 14.704,-12.617 22.599,-18.261 L 10.563,1.515 C 8.813,7.494 0,6.23 0,0"
             style="fill:#cc0053;fill-opacity:1;fill-rule:nonzero;stroke:none"
             id="path2483" /></g><g
           id="g2485"
           transform="translate(420.9297,85.1572)"><path
             d="m 0,0 v -21.327 c -7.157,-6.52 -14.704,-12.617 -22.599,-18.261 L -10.563,1.515 C -8.813,7.494 0,6.23 0,0"
             style="fill:#e80054;fill-opacity:1;fill-rule:nonzero;stroke:none"
             id="path2487" /></g><g
           id="g2489"
           transform="translate(303.3857,291.2656)"><path
             d="m 0,0 h -94.771 v -93.841 c 0,0 19.02,-20.093 47.169,-20.093 28.15,0 47.602,20.094 47.602,20.094 z"
             style="fill:#ffaa7b;fill-opacity:1;fill-rule:nonzero;stroke:none"
             id="path2491" /></g><g
           id="g2493"
           transform="translate(208.6143,291.2656)"><path
             d="m 0,0 v -93.841 c 94.724,0 94.771,53.401 94.771,53.401 V 0 Z"
             style="fill:#fd995b;fill-opacity:1;fill-rule:nonzero;stroke:none"
             id="path2495" /></g><g
           id="g2497"
           transform="translate(257.1338,500)"><path
             d="m 0,0 v 0 c -58.068,0 -105.143,-47.074 -105.143,-105.143 v -30.075 h 210.286 v 30.075 C 105.143,-47.074 58.068,0 0,0"
             style="fill:#543e5b;fill-opacity:1;fill-rule:nonzero;stroke:none"
             id="path2499" /></g><g
           id="g2501"
           transform="translate(208.4023,365.2456)"><path
             d="m 0,0 c 0,64.505 39.219,110.885 87.598,110.885 14.297,0 27.793,-4.053 39.714,-11.425 -19.259,21.651 -47.324,35.294 -78.581,35.294 -58.069,0 -105.142,-47.074 -105.142,-105.142 V -0.464 H 0.005 C 0.005,-0.31 0,-0.154 0,0"
             style="fill:#45304c;fill-opacity:1;fill-rule:nonzero;stroke:none"
             id="path2503" /></g><g
           id="g2505"
           transform="translate(256,512)"><path
             d="m 0,0 c -62.203,0 -112.63,-59.634 -112.63,-142.572 v -41.024 h 25.033 v 41.024 h 0.062 c 1.656,62.316 40.21,106.702 87.535,106.702 47.325,0 85.879,-44.386 87.535,-106.702 h 0.063 v -41.024 h 25.032 v 41.024 C 112.63,-59.634 62.204,0 0,0"
             style="fill:#d3dcfb;fill-opacity:1;fill-rule:nonzero;stroke:none"
             id="path2507" /></g><g
           id="g2509"
           transform="translate(238.0654,494.0654)"><path
             d="m 0,0 c 0,9.905 8.029,17.935 17.935,17.935 -62.204,0 -112.63,-59.634 -112.63,-142.572 v -41.024 h 25.033 v 41.024 h 0.061 c 1.657,62.316 40.21,106.702 87.536,106.702 C 8.029,-17.935 0,-9.905 0,0"
             style="fill:#bec8f7;fill-opacity:1;fill-rule:nonzero;stroke:none"
             id="path2511" /></g><g
           id="g2513"
           transform="translate(354.1689,270.3882)"><path
             d="m 0,0 v 0 c 21.339,-5.718 43.271,6.946 48.989,28.284 5.718,21.339 -6.945,43.273 -28.284,48.99 L 0,44.484 Z"
             style="fill:#e9efff;fill-opacity:1;fill-rule:nonzero;stroke:none"
             id="path2515" /></g><g
           id="g2517"
           transform="translate(388.6074,340.9609)"><path
             d="m 0,0 c -3.989,3.011 -8.607,5.328 -13.733,6.702 l -20.705,-32.79 v -44.485 c 5.125,-1.373 10.283,-1.676 15.244,-1.063 z"
             style="fill:#d3dcfb;fill-opacity:1;fill-rule:nonzero;stroke:none"
             id="path2519" /></g><g
           id="g2521"
           transform="translate(334.8506,275.5645)"><path
             d="M 0,0 19.318,-5.176 40.023,72.098 C 42.883,82.767 36.551,93.734 25.882,96.593 15.212,99.452 4.245,93.12 1.387,82.451 L -14.143,24.495 C -17.001,13.826 -10.67,2.859 0,0"
             style="fill:#e9efff;fill-opacity:1;fill-rule:nonzero;stroke:none"
             id="path2523" /></g><g
           id="g2525"
           transform="translate(157.8311,270.3882)"><path
             d="m 0,0 v 0 c -21.339,-5.718 -43.271,6.946 -48.989,28.284 -5.718,21.339 6.945,43.273 28.284,48.99 L 0,44.484 Z"
             style="fill:#e9efff;fill-opacity:1;fill-rule:nonzero;stroke:none"
             id="path2527" /></g><g
           id="g2529"
           transform="translate(157.8311,314.8726)"><path
             d="m 0,0 -20.705,32.79 c -5.126,-1.373 -9.744,-3.69 -13.733,-6.702 l 19.194,-71.635 c 4.961,-0.613 10.119,-0.31 15.244,1.063 z"
             style="fill:#d3dcfb;fill-opacity:1;fill-rule:nonzero;stroke:none"
             id="path2531" /></g><g
           id="g2533"
           transform="translate(177.1494,275.5645)"><path
             d="m 0,0 -19.318,-5.176 -20.705,77.274 c -2.86,10.669 3.472,21.636 14.141,24.495 10.67,2.859 21.637,-3.473 24.495,-14.142 L 14.143,24.495 C 17.001,13.826 10.67,2.859 0,0"
             style="fill:#e9efff;fill-opacity:1;fill-rule:nonzero;stroke:none"
             id="path2535" /></g><g
           id="g2537"
           transform="translate(343.5117,368.9785)"><path
             d="m 0,0 c -81.411,0.001 -112.185,70.274 -148.675,58.118 -9.499,-3.165 -17.404,-11.03 -20.555,-20.515 -0.18,-0.597 -0.36,-1.194 -0.532,-1.796 -0.061,-0.234 -0.135,-0.463 -0.191,-0.698 l -0.002,0.002 c -3.333,-11.922 -5.153,-24.962 -5.153,-38.844 0,-64.504 39.217,-140.155 87.596,-140.155 48.379,0 87.598,75.651 87.598,140.155 0,1.261 -0.021,2.512 -0.051,3.759 z"
             style="fill:#ffc7ab;fill-opacity:1;fill-rule:nonzero;stroke:none"
             id="path2539" /></g><g
           id="g2541"
           transform="translate(208.4033,365.2456)"><path
             d="m 0,0 c 0,21.971 4.562,41.827 12.475,58.475 -8.87,4.459 -17.291,6.29 -26.041,3.376 -9.499,-3.165 -17.405,-11.03 -20.556,-20.516 -0.18,-0.596 -0.359,-1.193 -0.531,-1.795 -0.062,-0.234 -0.136,-0.463 -0.192,-0.698 l -0.002,0.002 C -38.18,26.922 -40,13.882 -40,0 c 0,-64.504 39.218,-140.155 87.597,-140.155 6.881,0 13.576,1.534 20,4.346 C 28.856,-118.856 0,-55.33 0,0"
             style="fill:#ffaa7b;fill-opacity:1;fill-rule:nonzero;stroke:none"
             id="path2543" /></g><g
           id="g2545"
           transform="translate(242.0137,319.5532)"><path
             d="m 0,0 8.436,13.441 c 2.568,4.093 8.533,4.093 11.101,0 L 27.973,0 c 2.74,-4.365 -0.398,-10.038 -5.551,-10.038 H 5.551 C 0.397,-10.038 -2.74,-4.365 0,0"
             style="fill:#ffaa7b;fill-opacity:1;fill-rule:nonzero;stroke:none"
             id="path2547" /></g><g
           id="g2549"
           transform="translate(235.3838,271.1304)"><path
             d="m 0,0 h 41.232 c 4.111,3.622 7.258,8.309 9.01,13.631 1.584,4.811 -2.068,9.754 -7.134,9.754 H -1.876 c -5.065,0 -8.718,-4.943 -7.134,-9.754 C -7.258,8.309 -4.11,3.622 0,0"
             style="fill:#45304c;fill-opacity:1;fill-rule:nonzero;stroke:none"
             id="path2551" /></g><g
           id="g2553"
           transform="translate(276.6162,271.1304)"><path
             d="m 0,0 c -5.492,-4.849 -12.714,-7.798 -20.616,-7.798 -7.903,0 -15.124,2.949 -20.616,7.798 5.5,4.849 12.713,7.797 20.616,7.797 C -12.714,7.797 -5.5,4.849 0,0"
             style="fill:#ff4155;fill-opacity:1;fill-rule:nonzero;stroke:none"
             id="path2555" /></g><g
           id="g2557"
           transform="translate(310.999,349.9146)"><path
             d="m 0,0 c 0.043,3.495 -1.371,7.004 -4.242,9.539 -4.675,4.128 -11.839,4.128 -16.514,0 -2.871,-2.535 -4.285,-6.044 -4.242,-9.539 0.056,-4.538 5.629,-6.716 8.838,-3.507 2.022,2.022 5.3,2.022 7.322,0 C -5.629,-6.716 -0.056,-4.538 0,0"
             style="fill:#45304c;fill-opacity:1;fill-rule:nonzero;stroke:none"
             id="path2559" /></g><g
           id="g2561"
           transform="translate(201.001,349.9146)"><path
             d="m 0,0 c -0.043,3.495 1.371,7.004 4.242,9.539 4.675,4.128 11.839,4.128 16.514,0 C 23.627,7.004 25.041,3.495 24.998,0 24.942,-4.538 19.369,-6.716 16.16,-3.507 c -2.022,2.022 -5.3,2.022 -7.322,0 C 5.629,-6.716 0.056,-4.538 0,0"
             style="fill:#45304c;fill-opacity:1;fill-rule:nonzero;stroke:none"
             id="path2563" /></g><g
           id="g2565"
           transform="translate(223.5,373.0317)"><path
             d="m 0,0 h -20 c -4.143,0 -7.5,3.358 -7.5,7.5 0,4.142 3.357,7.5 7.5,7.5 H 0 C 4.143,15 7.5,11.642 7.5,7.5 7.5,3.358 4.143,0 0,0"
             style="fill:#45304c;fill-opacity:1;fill-rule:nonzero;stroke:none"
             id="path2567" /></g><g
           id="g2569"
           transform="translate(308.5,373.0317)"><path
             d="m 0,0 h -20 c -4.143,0 -7.5,3.358 -7.5,7.5 0,4.142 3.357,7.5 7.5,7.5 H 0 C 4.143,15 7.5,11.642 7.5,7.5 7.5,3.358 4.143,0 0,0"
             style="fill:#45304c;fill-opacity:1;fill-rule:nonzero;stroke:none"
             id="path2571" /></g></g></g></g></svg>
