<svg id="table" enable-background="new 0 0 300 300" height="512" viewBox="0 0 300 300" width="512" xmlns="http://www.w3.org/2000/svg"><g><path d="m56 88c-7.719 0-14-6.281-14-14s6.281-14 14-14 14 6.281 14 14-6.282 14-14 14zm0-20c-3.309 0-6 2.691-6 6s2.691 6 6 6 6-2.691 6-6-2.692-6-6-6z" fill="#4c241d"/><circle cx="132" cy="150" fill="#eef4ce" r="86"/><g><path d="m222 44h-120c-4.418 0-8 3.582-8 8v196c0 4.418 3.582 8 8 8h144c4.418 0 8-3.582 8-8v-172z" fill="#fff"/><path d="m246 260h-144c-6.617 0-12-5.383-12-12v-196c0-6.617 5.383-12 12-12h120c1.062 0 2.078.422 2.828 1.172l32 32c.75.75 1.172 1.767 1.172 2.828v172c0 6.617-5.383 12-12 12zm-144-212c-2.207 0-4 1.795-4 4v196c0 2.205 1.793 4 4 4h144c2.207 0 4-1.795 4-4v-170.344l-29.657-29.656z" fill="#4c241d"/></g><g><path d="m222 76h32l-32-32z" fill="#efefd2"/><path d="m254 80h-32c-2.211 0-4-1.791-4-4v-32c0-1.617.973-3.076 2.469-3.695 1.496-.615 3.215-.277 4.359.867l32 32c1.145 1.145 1.488 2.863.867 4.359-.617 1.494-2.078 2.469-3.695 2.469zm-28-8h18.344l-18.344-18.344z" fill="#4c241d"/></g><circle cx="78" cy="164" fill="#4c241d" r="4"/><circle cx="66" cy="120" fill="#4c241d" r="4"/><g><path d="m110 96h128v132h-128z" fill="#b5a19c"/><path d="m238 232h-128c-2.211 0-4-1.791-4-4v-132c0-2.209 1.789-4 4-4h128c2.211 0 4 1.791 4 4v132c0 2.209-1.79 4-4 4zm-124-8h120v-124h-120z" fill="#4c241d"/></g><g fill="#4c241d"><path d="m138 132c-1.055 0-2.074-.416-2.828-1.172l-8-8c-1.562-1.562-1.562-4.094 0-5.656s4.094-1.562 5.656 0l4.379 4.377 9.363-15.607c1.137-1.895 3.59-2.512 5.488-1.371 1.895 1.137 2.508 3.594 1.371 5.488l-12 20c-.633 1.055-1.719 1.762-2.941 1.912-.164.019-.324.029-.488.029z"/><path d="m238 144h-128c-2.211 0-4-1.791-4-4s1.789-4 4-4h128c2.211 0 4 1.791 4 4s-1.79 4-4 4z"/><path d="m202 176c-1.055 0-2.074-.416-2.828-1.172l-8-8c-1.562-1.562-1.562-4.094 0-5.656s4.094-1.562 5.656 0l4.379 4.377 9.363-15.607c1.137-1.891 3.59-2.51 5.488-1.371 1.895 1.137 2.508 3.594 1.371 5.488l-12 20c-.633 1.055-1.719 1.762-2.941 1.912-.164.019-.324.029-.488.029z"/><path d="m138 220c-1.055 0-2.074-.416-2.828-1.172l-8-8c-1.562-1.562-1.562-4.094 0-5.656s4.094-1.562 5.656 0l4.379 4.377 9.363-15.607c1.137-1.893 3.59-2.51 5.488-1.371 1.895 1.137 2.508 3.594 1.371 5.488l-12 20c-.633 1.055-1.719 1.762-2.941 1.912-.164.019-.324.029-.488.029z"/><path d="m238 188h-128c-2.211 0-4-1.791-4-4s1.789-4 4-4h128c2.211 0 4 1.791 4 4s-1.79 4-4 4z"/><path d="m174 232c-2.211 0-4-1.791-4-4v-132c0-2.209 1.789-4 4-4s4 1.791 4 4v132c0 2.209-1.79 4-4 4z"/></g></g></svg>