<?xml version="1.0"?>
<svg width="60" height="60" xmlns="http://www.w3.org/2000/svg" xmlns:svg="http://www.w3.org/2000/svg">
 <g class="layer">
  <title>Layer 1</title>
  <path d="m19.4,43.4c-2.72,2.72 -4.4,6.46 -4.4,10.6c0,0.55 -0.45,1 -1,1l-12,0c-0.55,0 -1,-0.45 -1,-1c0,-8 3.25,-15.24 8.5,-20.5l1,0s8.5,8.5 8.5,8.5l0.4,1.4z" fill="#d7342c" id="svg_5"/>
  <path d="m30,25l1,1l0,12l-1,1c-4.14,0 -7.88,1.68 -10.6,4.4l-9.9,-9.9c5.26,-5.25 12.5,-8.5 20.5,-8.5z" fill="#e99e32" id="svg_6"/>
  <path d="m50.5,33.5l0.5,1.5l-9,9l-1.4,-0.6c-2.72,-2.72 -6.46,-4.4 -10.6,-4.4l0,-14c8,0 15.24,3.25 20.5,8.5z" fill="#f9c82b" id="svg_7"/>
  <path d="m59,54c0,0.55 -0.45,1 -1,1l-12,0c-0.55,0 -1,-0.45 -1,-1c0,-4.14 -1.68,-7.88 -4.4,-10.6l9.9,-9.9c5.25,5.26 8.5,12.5 8.5,20.5z" fill="#2aa869" id="svg_8"/>
 </g>
</svg>