<svg xmlns="http://www.w3.org/2000/svg" xmlns:xlink="http://www.w3.org/1999/xlink" width="400" zoomAndPan="magnify" viewBox="0 0 300 899.99999" height="1200" preserveAspectRatio="xMidYMid meet" version="1.0"><defs><clipPath id="ec36a1ea3b"><path d="M 48.277344 795 L 232.027344 795 L 232.027344 900 L 48.277344 900 Z M 48.277344 795 " clip-rule="nonzero"/></clipPath><clipPath id="e986bf8d3a"><path d="M 48.277344 858 L 91 858 L 91 900 L 48.277344 900 Z M 48.277344 858 " clip-rule="nonzero"/></clipPath><clipPath id="40f44f5cb0"><path d="M 190 858 L 232.027344 858 L 232.027344 900 L 190 900 Z M 190 858 " clip-rule="nonzero"/></clipPath><clipPath id="cc73cc6168"><path d="M 116 99.933594 L 226 99.933594 L 226 183 L 116 183 Z M 116 99.933594 " clip-rule="nonzero"/></clipPath><clipPath id="0d58c8d1e0"><path d="M 50 99.933594 L 203 99.933594 L 203 248 L 50 248 Z M 50 99.933594 " clip-rule="nonzero"/></clipPath><clipPath id="d93c15f52d"><path d="M 114 99.933594 L 203 99.933594 L 203 185 L 114 185 Z M 114 99.933594 " clip-rule="nonzero"/></clipPath><clipPath id="6ec5ced56d"><path d="M 120 99.933594 L 221 99.933594 L 221 178 L 120 178 Z M 120 99.933594 " clip-rule="nonzero"/></clipPath></defs><rect x="-30" width="360" fill="#ffffff" y="-89.999999" height="1079.999988" fill-opacity="1"/><rect x="-30" width="360" fill="#404040" y="-89.999999" height="1079.999988" fill-opacity="1"/><path fill="#ffffff" d="M 133.457031 840.421875 L 133.457031 184.691406 C 133.457031 184.691406 134.699219 180.792969 140.167969 180.792969 C 145.625 180.792969 146.867188 184.691406 146.867188 184.691406 L 146.867188 840.421875 L 133.457031 840.421875 " fill-opacity="1" fill-rule="nonzero"/><path stroke-linecap="butt" transform="matrix(0.0484608, 0, 0, -0.0485402, -172.986333, 972.003185)" fill="none" stroke-linejoin="miter" d="M 6323.450574 2710.771902 L 6323.450574 16219.720392 C 6323.450574 16219.720392 6349.164013 16300.034039 6461.932354 16300.034039 C 6574.620089 16300.034039 6600.252922 16219.720392 6600.252922 16219.720392 L 6600.252922 2710.771902 Z M 6323.450574 2710.771902 " stroke="#3a1e08" stroke-width="45.591999" stroke-opacity="1" stroke-miterlimit="10"/><path stroke-linecap="round" transform="matrix(0.0361594, 0, 0, -0.0362186, -172.986333, 972.003185)" fill-opacity="1" fill="#ffffff" fill-rule="nonzero" stroke-linejoin="bevel" d="M 9441.11239 3050.359464 L 8660.281108 2215.476787 L 7879.449826 3050.359464 " stroke="#3a1e08" stroke-width="130.692993" stroke-opacity="1" stroke-miterlimit="10"/><path stroke-linecap="round" transform="matrix(0.0361594, 0, 0, -0.0362186, -172.986333, 972.003185)" fill="none" stroke-linejoin="bevel" d="M 8660.281108 3429.243696 L 8660.281108 2215.476787 " stroke="#3a1e08" stroke-width="261.38699" stroke-opacity="1" stroke-miterlimit="10"/><path fill="#ffffff" d="M 226.601562 890.988281 C 226.472656 890.472656 226.140625 890.019531 225.675781 889.75 L 148.148438 845.03125 L 148.148438 826.457031 L 132.175781 826.457031 L 132.175781 845.03125 L 54.652344 889.75 C 54.183594 890.019531 53.851562 890.472656 53.722656 890.988281 C 53.601562 891.511719 53.703125 892.066406 54 892.515625 L 56.144531 895.734375 C 56.34375 896.027344 56.609375 896.253906 56.914062 896.402344 C 57.464844 896.667969 58.136719 896.667969 58.707031 896.34375 L 136.273438 851.699219 L 144.050781 851.699219 L 221.625 896.34375 C 222.191406 896.667969 222.863281 896.667969 223.417969 896.402344 C 223.714844 896.253906 223.980469 896.027344 224.183594 895.734375 L 226.324219 892.515625 C 226.625 892.066406 226.722656 891.511719 226.601562 890.988281 " fill-opacity="1" fill-rule="nonzero"/><g clip-path="url(#ec36a1ea3b)"><path stroke-linecap="butt" transform="matrix(0.0361594, 0, 0, -0.0362186, -172.986333, 972.003185)" fill="none" stroke-linejoin="miter" d="M 11050.739687 2236.831492 C 11047.174741 2251.067962 11037.992303 2263.578799 11025.13689 2271.02059 L 8881.091725 3505.710795 L 8881.091725 4018.547267 L 8439.362462 4018.547267 L 8439.362462 3505.710795 L 6295.425326 2271.02059 C 6282.461885 2263.578799 6273.279447 2251.067962 6269.714501 2236.831492 C 6266.365612 2222.379318 6269.174357 2207.064328 6277.384537 2194.661343 L 6336.692281 2105.791258 C 6342.201743 2097.702355 6349.547694 2091.446936 6357.97393 2087.348558 C 6373.205974 2080.014619 6391.786907 2080.014619 6407.559093 2088.966339 L 8552.684545 3321.607355 L 8767.769643 3321.607355 L 10913.111152 2088.966339 C 10928.77531 2080.014619 10947.356243 2080.014619 10962.696315 2087.348558 C 10970.906494 2091.446936 10978.252444 2097.702355 10983.869936 2105.791258 L 11043.069651 2194.661343 C 11051.387859 2207.064328 11054.088576 2222.379318 11050.739687 2236.831492 Z M 11050.739687 2236.831492 " stroke="#3a1e08" stroke-width="61.103001" stroke-opacity="1" stroke-miterlimit="10"/></g><path fill="#ffffff" d="M 54.511719 889.453125 L 51.140625 891.265625 C 51.089844 891.292969 51.035156 891.332031 50.988281 891.367188 C 50.289062 891.824219 49.8125 892.535156 49.648438 893.359375 C 49.488281 894.175781 49.65625 895.011719 50.121094 895.703125 L 51.300781 897.484375 C 51.613281 897.949219 52.046875 898.324219 52.550781 898.570312 C 53.503906 899.027344 54.644531 898.972656 55.546875 898.414062 L 58.851562 896.640625 L 54.511719 889.453125 " fill-opacity="1" fill-rule="nonzero"/><g clip-path="url(#e986bf8d3a)"><path stroke-linecap="butt" transform="matrix(0.0361594, 0, 0, -0.0362186, -172.986333, 972.003185)" fill="none" stroke-linejoin="miter" d="M 6291.536294 2279.217346 L 6198.307545 2229.173997 C 6196.903172 2228.419033 6195.390771 2227.340512 6194.094426 2226.369844 C 6174.757293 2213.751155 6161.577794 2194.122082 6157.04059 2171.365301 C 6152.611414 2148.824224 6157.256647 2125.743886 6170.11206 2106.654074 L 6202.736721 2057.473542 C 6211.379015 2044.639149 6223.370198 2034.285353 6237.305897 2027.490674 C 6263.664895 2014.871985 6295.209269 2016.381913 6320.163893 2031.804756 L 6411.556155 2080.769584 Z M 6291.536294 2279.217346 " stroke="#3a1e08" stroke-width="61.103001" stroke-opacity="1" stroke-miterlimit="10"/></g><path fill="#ffffff" d="M 225.8125 889.453125 L 229.183594 891.265625 C 229.234375 891.292969 229.289062 891.332031 229.34375 891.367188 C 230.039062 891.824219 230.511719 892.535156 230.671875 893.359375 C 230.835938 894.175781 230.671875 895.011719 230.210938 895.703125 L 229.023438 897.484375 C 228.710938 897.949219 228.28125 898.324219 227.78125 898.570312 C 226.824219 899.027344 225.683594 898.972656 224.78125 898.414062 L 221.476562 896.640625 L 225.8125 889.453125 " fill-opacity="1" fill-rule="nonzero"/><g clip-path="url(#40f44f5cb0)"><path stroke-linecap="butt" transform="matrix(0.0361594, 0, 0, -0.0362186, -172.986333, 972.003185)" fill="none" stroke-linejoin="miter" d="M 11028.917894 2279.217346 L 11122.146643 2229.173997 C 11123.551016 2228.419033 11125.063417 2227.340512 11126.575819 2226.369844 C 11145.804923 2213.751155 11158.876393 2194.122082 11163.305569 2171.365301 C 11167.842774 2148.824224 11163.305569 2125.743886 11150.558185 2106.654074 L 11117.717467 2057.473542 C 11109.075173 2044.639149 11097.192018 2034.285353 11083.364348 2027.490674 C 11056.897322 2014.871985 11025.352948 2016.381913 11000.398323 2031.804756 L 10909.006062 2080.769584 Z M 11028.917894 2279.217346 " stroke="#3a1e08" stroke-width="61.103001" stroke-opacity="1" stroke-miterlimit="10"/></g><path fill="#ffffff" d="M 152.648438 394.171875 L 127.679688 394.171875 L 127.679688 367.5 L 152.648438 367.5 L 152.648438 394.171875 " fill-opacity="1" fill-rule="nonzero"/><path stroke-linecap="butt" transform="matrix(0.0370272, 0, 0, -0.0370878, -172.986333, 972.003185)" fill="none" stroke-linejoin="miter" d="M 8794.894942 15580.809121 L 8120.559715 15580.809121 L 8120.559715 16299.963174 L 8794.894942 16299.963174 Z M 8794.894942 15580.809121 " stroke="#3a1e08" stroke-width="59.673" stroke-opacity="1" stroke-miterlimit="10"/><path fill="#ffffff" d="M 152.730469 185.246094 L 125.84375 185.246094 L 125.84375 171.394531 L 152.730469 171.394531 L 152.730469 185.246094 " fill-opacity="1" fill-rule="nonzero"/><path stroke-linecap="butt" transform="matrix(0.0490357, 0, 0, -0.049116, -172.986333, 972.003185)" fill="none" stroke-linejoin="miter" d="M 6642.279181 16018.014813 L 6094.050081 16018.014813 L 6094.050081 16300.031896 L 6642.279181 16300.031896 Z M 6642.279181 16018.014813 " stroke="#3a1e08" stroke-width="45.056999" stroke-opacity="1" stroke-miterlimit="10"/><path fill="#ffffff" d="M 187.71875 143.996094 C 178.464844 153.257812 163.460938 153.257812 154.210938 143.996094 C 144.957031 134.726562 144.957031 119.699219 154.210938 110.429688 C 163.460938 101.15625 178.464844 101.15625 187.71875 110.429688 C 196.972656 119.699219 196.972656 134.726562 187.71875 143.996094 " fill-opacity="1" fill-rule="nonzero"/><g clip-path="url(#cc73cc6168)"><path stroke-linecap="butt" transform="matrix(0.0533387, 0, 0, -0.0534261, -172.986333, 972.003185)" fill="none" stroke-linejoin="miter" d="M 6762.53936 15498.189167 C 6589.046087 15324.833321 6307.751169 15324.833321 6134.331131 15498.189167 C 5960.837859 15671.691242 5960.837859 15952.964939 6134.331131 16126.467015 C 6307.751169 16300.042205 6589.046087 16300.042205 6762.53936 16126.467015 C 6936.032632 15952.964939 6936.032632 15671.691242 6762.53936 15498.189167 Z M 6762.53936 15498.189167 " stroke="#3a1e08" stroke-width="41.423" stroke-opacity="1" stroke-miterlimit="10"/></g><path fill="#646464" d="M 168.902344 147.828125 C 169.113281 146.660156 169.269531 145.472656 169.375 144.265625 C 170.515625 144.601562 171.65625 145.003906 172.789062 145.464844 C 172.683594 146.671875 172.523438 147.851562 172.320312 149.019531 C 171.191406 148.546875 170.046875 148.152344 168.902344 147.828125 Z M 164.363281 146.953125 C 164.605469 145.757812 164.789062 144.542969 164.898438 143.320312 C 166.214844 143.5 167.535156 143.773438 168.851562 144.128906 C 168.753906 145.332031 168.597656 146.523438 168.390625 147.695312 C 167.046875 147.34375 165.703125 147.089844 164.363281 146.953125 Z M 159.871094 146.894531 C 160.203125 145.636719 160.441406 144.347656 160.605469 143.035156 C 161.847656 143.027344 163.109375 143.09375 164.375 143.25 C 164.261719 144.492188 164.078125 145.707031 163.832031 146.90625 C 162.496094 146.796875 161.171875 146.789062 159.871094 146.894531 Z M 160.84375 138.964844 C 162.054688 139 163.277344 139.089844 164.5 139.257812 C 164.527344 140.421875 164.496094 141.582031 164.410156 142.722656 C 163.15625 142.566406 161.902344 142.5 160.671875 142.503906 C 160.792969 141.34375 160.855469 140.160156 160.84375 138.964844 Z M 156.394531 142.875 C 156.601562 141.652344 156.714844 140.398438 156.75 139.132812 C 157.921875 139.003906 159.113281 138.9375 160.316406 138.949219 C 160.324219 140.152344 160.261719 141.34375 160.136719 142.519531 C 158.867188 142.546875 157.621094 142.667969 156.394531 142.875 Z M 156.765625 138.59375 C 156.769531 137.355469 156.699219 136.105469 156.546875 134.847656 C 157.6875 134.761719 158.839844 134.730469 160.007812 134.757812 C 160.171875 135.980469 160.265625 137.207031 160.296875 138.417969 C 159.109375 138.40625 157.929688 138.476562 156.765625 138.59375 Z M 152.378906 139.390625 C 152.484375 138.089844 152.484375 136.765625 152.367188 135.425781 C 153.566406 135.175781 154.78125 134.988281 156.015625 134.878906 C 156.171875 136.152344 156.242188 137.414062 156.230469 138.65625 C 154.921875 138.816406 153.636719 139.0625 152.378906 139.390625 Z M 152.324219 134.890625 C 152.183594 133.550781 151.933594 132.203125 151.585938 130.855469 C 152.75 130.648438 153.9375 130.492188 155.140625 130.398438 C 155.496094 131.71875 155.773438 133.039062 155.953125 134.351562 C 154.722656 134.46875 153.515625 134.648438 152.324219 134.890625 Z M 151.449219 130.34375 C 151.125 129.199219 150.730469 128.058594 150.261719 126.921875 C 151.425781 126.714844 152.609375 126.554688 153.804688 126.453125 C 154.265625 127.582031 154.671875 128.730469 155 129.875 C 153.804688 129.976562 152.621094 130.136719 151.449219 130.34375 Z M 150.050781 126.421875 C 149.511719 125.195312 148.882812 123.992188 148.175781 122.808594 C 149.359375 122.585938 150.566406 122.410156 151.78125 122.289062 C 152.460938 123.480469 153.070312 124.703125 153.59375 125.9375 C 152.398438 126.042969 151.214844 126.210938 150.050781 126.421875 Z M 149.808594 118.269531 C 151.007812 118.121094 152.214844 118.007812 153.433594 117.960938 C 154.222656 119.125 154.953125 120.3125 155.609375 121.519531 C 154.421875 121.546875 153.238281 121.601562 152.070312 121.710938 C 151.386719 120.546875 150.632812 119.390625 149.808594 118.269531 Z M 157.957031 117.957031 C 158.691406 119.160156 159.375 120.382812 159.988281 121.621094 C 158.722656 121.53125 157.457031 121.496094 156.207031 121.511719 C 155.558594 120.292969 154.84375 119.105469 154.058594 117.941406 C 155.347656 117.890625 156.648438 117.902344 157.957031 117.957031 Z M 155.746094 113.773438 C 157.226562 113.796875 158.714844 113.878906 160.210938 114.011719 C 161.058594 115.257812 161.847656 116.523438 162.574219 117.804688 C 161.128906 117.625 159.6875 117.496094 158.253906 117.433594 C 157.484375 116.191406 156.648438 114.964844 155.746094 113.773438 Z M 157.898438 110.027344 C 159.277344 110.105469 160.65625 110.246094 162.042969 110.425781 C 162.914062 111.605469 163.734375 112.808594 164.507812 114.023438 C 163.167969 113.8125 161.835938 113.636719 160.507812 113.5 C 159.691406 112.324219 158.824219 111.160156 157.898438 110.027344 Z M 159.542969 106.445312 C 161.128906 106.59375 162.71875 106.808594 164.3125 107.070312 C 165.230469 108.253906 166.09375 109.457031 166.914062 110.675781 C 165.382812 110.367188 163.863281 110.128906 162.335938 109.925781 C 161.457031 108.75 160.527344 107.585938 159.542969 106.445312 Z M 169.691406 108.15625 C 170.558594 109.402344 171.382812 110.667969 172.152344 111.945312 C 170.65625 111.523438 169.160156 111.160156 167.667969 110.84375 C 166.851562 109.613281 165.992188 108.394531 165.074219 107.203125 C 166.617188 107.476562 168.15625 107.78125 169.691406 108.15625 Z M 167.335938 104.085938 C 168.964844 104.425781 170.59375 104.820312 172.226562 105.28125 C 173.117188 106.511719 173.949219 107.773438 174.75 109.042969 C 173.175781 108.539062 171.605469 108.085938 170.023438 107.699219 C 169.171875 106.472656 168.277344 105.269531 167.335938 104.085938 Z M 177.558594 106.96875 C 178.390625 108.253906 179.167969 109.5625 179.910156 110.878906 C 178.453125 110.304688 176.992188 109.765625 175.527344 109.28125 C 174.734375 108.003906 173.90625 106.738281 173.023438 105.488281 C 174.542969 105.925781 176.054688 106.429688 177.558594 106.96875 Z M 182.765625 109 C 183.539062 110.351562 184.273438 111.710938 184.964844 113.085938 C 183.550781 112.414062 182.128906 111.789062 180.707031 111.203125 C 179.972656 109.878906 179.191406 108.5625 178.371094 107.257812 C 179.84375 107.792969 181.308594 108.371094 182.765625 109 Z M 187.816406 111.402344 C 188.539062 112.808594 189.21875 114.222656 189.847656 115.644531 C 188.496094 114.875 187.128906 114.140625 185.753906 113.46875 C 185.078125 112.089844 184.347656 110.726562 183.582031 109.367188 C 185.003906 109.996094 186.414062 110.675781 187.816406 111.402344 Z M 191.953125 120.863281 C 190.652344 120.042969 189.335938 119.261719 188.011719 118.527344 C 187.429688 117.09375 186.804688 115.667969 186.132812 114.257812 C 187.503906 114.949219 188.863281 115.6875 190.214844 116.460938 C 190.84375 117.917969 191.417969 119.390625 191.953125 120.863281 Z M 193.71875 126.214844 C 192.472656 125.328125 191.203125 124.507812 189.925781 123.710938 C 189.445312 122.238281 188.914062 120.78125 188.339844 119.320312 C 189.652344 120.066406 190.957031 120.84375 192.246094 121.667969 C 192.78125 123.179688 193.277344 124.695312 193.71875 126.214844 Z M 190.847656 128.769531 C 189.59375 127.914062 188.335938 127.09375 187.054688 126.335938 C 186.605469 124.8125 186.089844 123.296875 185.535156 121.78125 C 186.867188 122.492188 188.179688 123.257812 189.484375 124.0625 C 189.992188 125.628906 190.445312 127.195312 190.847656 128.769531 Z M 192.007812 134.175781 C 190.816406 133.265625 189.601562 132.394531 188.375 131.582031 C 188.054688 130.082031 187.691406 128.585938 187.269531 127.09375 C 188.550781 127.859375 189.8125 128.6875 191.050781 129.550781 C 191.429688 131.09375 191.738281 132.636719 192.007812 134.175781 Z M 188.703125 136.484375 C 187.511719 135.621094 186.304688 134.808594 185.078125 134.046875 C 184.820312 132.570312 184.523438 131.101562 184.15625 129.625 C 185.425781 130.339844 186.667969 131.089844 187.902344 131.898438 C 188.222656 133.433594 188.488281 134.964844 188.703125 136.484375 Z M 189.1875 141.371094 C 188.054688 140.441406 186.898438 139.574219 185.714844 138.757812 C 185.589844 137.421875 185.414062 136.09375 185.199219 134.75 C 186.414062 135.519531 187.609375 136.34375 188.789062 137.21875 C 188.964844 138.609375 189.101562 139.988281 189.1875 141.371094 Z M 185.449219 143.527344 C 184.253906 142.621094 183.039062 141.785156 181.796875 141.011719 C 181.730469 139.574219 181.597656 138.128906 181.421875 136.683594 C 182.703125 137.414062 183.96875 138.203125 185.207031 139.054688 C 185.34375 140.554688 185.425781 142.046875 185.449219 143.527344 Z M 181.292969 145.210938 C 180.128906 144.425781 178.9375 143.714844 177.722656 143.0625 C 177.742188 141.804688 177.703125 140.542969 177.617188 139.273438 C 178.851562 139.890625 180.070312 140.574219 181.273438 141.308594 C 181.328125 142.621094 181.339844 143.921875 181.292969 145.210938 Z M 169.503906 140.296875 C 170.65625 140.621094 171.808594 141 172.953125 141.449219 C 172.964844 142.609375 172.90625 143.761719 172.824219 144.90625 C 171.695312 144.449219 170.554688 144.058594 169.40625 143.730469 C 169.484375 142.59375 169.519531 141.449219 169.503906 140.296875 Z M 168.96875 140.152344 C 168.992188 141.308594 168.964844 142.457031 168.890625 143.589844 C 167.570312 143.234375 166.25 142.964844 164.9375 142.785156 C 165.023438 141.644531 165.058594 140.488281 165.03125 139.320312 C 166.34375 139.523438 167.65625 139.800781 168.96875 140.152344 Z M 164.71875 135.148438 C 166.027344 135.34375 167.355469 135.609375 168.671875 135.945312 C 168.816406 137.171875 168.910156 138.386719 168.949219 139.597656 C 167.640625 139.257812 166.328125 138.976562 165.015625 138.785156 C 164.976562 137.582031 164.875 136.363281 164.71875 135.148438 Z M 164.171875 135.082031 C 164.34375 136.296875 164.441406 137.511719 164.488281 138.722656 C 163.257812 138.5625 162.042969 138.464844 160.828125 138.433594 C 160.796875 137.222656 160.703125 135.996094 160.539062 134.765625 C 161.746094 134.816406 162.957031 134.921875 164.171875 135.082031 Z M 159.664062 130.296875 C 160.871094 130.339844 162.09375 130.429688 163.3125 130.578125 C 163.644531 131.898438 163.914062 133.222656 164.109375 134.539062 C 162.890625 134.378906 161.679688 134.28125 160.476562 134.238281 C 160.285156 132.929688 160.003906 131.605469 159.664062 130.296875 Z M 159.113281 130.28125 C 159.457031 131.597656 159.742188 132.90625 159.941406 134.222656 C 158.773438 134.195312 157.628906 134.234375 156.484375 134.320312 C 156.304688 133.003906 156.03125 131.675781 155.679688 130.363281 C 156.816406 130.285156 157.960938 130.253906 159.113281 130.28125 Z M 157.820312 126.292969 C 158.261719 127.441406 158.644531 128.585938 158.964844 129.75 C 157.816406 129.726562 156.675781 129.757812 155.542969 129.84375 C 155.210938 128.691406 154.816406 127.550781 154.363281 126.414062 C 155.503906 126.332031 156.65625 126.277344 157.820312 126.292969 Z M 157.605469 125.761719 C 156.445312 125.761719 155.292969 125.808594 154.152344 125.898438 C 153.632812 124.660156 153.027344 123.429688 152.351562 122.21875 C 153.519531 122.113281 154.699219 122.066406 155.882812 122.042969 C 156.53125 123.269531 157.101562 124.507812 157.605469 125.761719 Z M 160.261719 122.171875 C 160.867188 123.429688 161.40625 124.695312 161.878906 125.96875 C 160.644531 125.859375 159.40625 125.789062 158.183594 125.765625 C 157.683594 124.507812 157.113281 123.269531 156.480469 122.03125 C 157.730469 122.03125 158.992188 122.078125 160.261719 122.171875 Z M 162.902344 118.382812 C 163.589844 119.628906 164.21875 120.890625 164.789062 122.171875 C 163.394531 121.941406 161.992188 121.777344 160.613281 121.667969 C 160 120.417969 159.328125 119.1875 158.589844 117.972656 C 160.023438 118.050781 161.460938 118.191406 162.902344 118.382812 Z M 164.878906 114.625 C 165.675781 115.921875 166.410156 117.226562 167.085938 118.546875 C 165.800781 118.28125 164.519531 118.0625 163.230469 117.890625 C 162.511719 116.597656 161.730469 115.324219 160.890625 114.066406 C 162.214844 114.207031 163.546875 114.402344 164.878906 114.625 Z M 169.625 115.0625 C 168.148438 114.699219 166.675781 114.402344 165.203125 114.140625 C 164.449219 112.921875 163.636719 111.707031 162.769531 110.515625 C 164.296875 110.726562 165.824219 110.996094 167.351562 111.316406 C 168.160156 112.546875 168.910156 113.800781 169.625 115.0625 Z M 172.542969 112.605469 C 173.296875 113.902344 174 115.207031 174.660156 116.515625 C 173.226562 116.042969 171.78125 115.621094 170.339844 115.253906 C 169.640625 113.980469 168.890625 112.71875 168.089844 111.480469 C 169.570312 111.808594 171.0625 112.175781 172.542969 112.605469 Z M 177.457031 113.683594 C 175.945312 113.128906 174.425781 112.617188 172.902344 112.167969 C 172.148438 110.886719 171.332031 109.617188 170.484375 108.371094 C 172.050781 108.769531 173.621094 109.222656 175.175781 109.734375 C 175.980469 111.039062 176.75 112.355469 177.457031 113.683594 Z M 182.417969 115.71875 C 181.015625 115.089844 179.605469 114.492188 178.191406 113.953125 C 177.488281 112.617188 176.75 111.289062 175.957031 109.980469 C 177.421875 110.472656 178.878906 111.039062 180.332031 111.628906 C 181.070312 112.984375 181.765625 114.34375 182.417969 115.71875 Z M 183.160156 116.058594 C 182.523438 114.6875 181.851562 113.308594 181.125 111.957031 C 182.542969 112.554688 183.960938 113.175781 185.355469 113.863281 C 186.042969 115.265625 186.667969 116.683594 187.265625 118.105469 C 185.910156 117.375 184.535156 116.703125 183.160156 116.058594 Z M 183.503906 116.808594 C 184.878906 117.457031 186.238281 118.152344 187.585938 118.898438 C 188.179688 120.355469 188.742188 121.8125 189.234375 123.277344 C 187.925781 122.492188 186.605469 121.746094 185.269531 121.046875 C 184.730469 119.625 184.136719 118.210938 183.503906 116.808594 Z M 182.460938 123.855469 C 181.957031 122.378906 181.390625 120.914062 180.785156 119.457031 C 182.148438 120.066406 183.503906 120.726562 184.84375 121.425781 C 185.410156 122.925781 185.917969 124.441406 186.378906 125.953125 C 185.085938 125.210938 183.777344 124.507812 182.460938 123.855469 Z M 182.710938 124.574219 C 184.019531 125.238281 185.324219 125.941406 186.609375 126.699219 C 187.042969 128.1875 187.410156 129.671875 187.738281 131.160156 C 186.5 130.355469 185.238281 129.609375 183.972656 128.90625 C 183.597656 127.460938 183.183594 126.015625 182.710938 124.574219 Z M 180.539062 131.488281 C 180.226562 130.066406 179.882812 128.644531 179.460938 127.226562 C 180.824219 127.851562 182.179688 128.523438 183.519531 129.257812 C 183.890625 130.734375 184.210938 132.199219 184.476562 133.667969 C 183.183594 132.886719 181.867188 132.160156 180.539062 131.488281 Z M 180.683594 132.167969 C 182.003906 132.84375 183.3125 133.578125 184.597656 134.375 C 184.820312 135.710938 185.015625 137.042969 185.15625 138.375 C 183.902344 137.53125 182.628906 136.75 181.339844 136.023438 C 181.167969 134.738281 180.949219 133.457031 180.683594 132.167969 Z M 177.066406 134.46875 C 178.339844 135.039062 179.601562 135.667969 180.84375 136.359375 C 181.035156 137.804688 181.175781 139.242188 181.257812 140.671875 C 180.039062 139.933594 178.808594 139.265625 177.566406 138.65625 C 177.457031 137.261719 177.292969 135.863281 177.066406 134.46875 Z M 173.265625 137.378906 C 174.542969 137.851562 175.8125 138.394531 177.0625 139 C 177.15625 140.269531 177.207031 141.539062 177.203125 142.792969 C 175.972656 142.15625 174.722656 141.585938 173.46875 141.082031 C 173.449219 139.855469 173.386719 138.617188 173.265625 137.378906 Z M 172.722656 137.179688 C 172.84375 138.417969 172.90625 139.648438 172.9375 140.871094 C 171.789062 140.4375 170.636719 140.0625 169.484375 139.742188 C 169.453125 138.535156 169.359375 137.308594 169.222656 136.09375 C 170.390625 136.398438 171.558594 136.761719 172.722656 137.179688 Z M 168.445312 131.496094 C 169.640625 131.78125 170.828125 132.128906 172.015625 132.511719 C 172.285156 133.871094 172.5 135.234375 172.648438 136.59375 C 171.488281 136.183594 170.320312 135.828125 169.148438 135.519531 C 168.980469 134.179688 168.75 132.84375 168.445312 131.496094 Z M 167.878906 131.371094 C 168.179688 132.707031 168.421875 134.042969 168.597656 135.375 C 167.28125 135.050781 165.964844 134.792969 164.652344 134.601562 C 164.457031 133.289062 164.203125 131.96875 163.878906 130.648438 C 165.214844 130.824219 166.546875 131.070312 167.878906 131.371094 Z M 162.667969 126.59375 C 164.019531 126.746094 165.378906 126.957031 166.742188 127.234375 C 167.125 128.421875 167.472656 129.609375 167.753906 130.800781 C 166.414062 130.503906 165.070312 130.269531 163.734375 130.09375 C 163.429688 128.925781 163.078125 127.761719 162.667969 126.59375 Z M 162.082031 126.523438 C 162.496094 127.691406 162.859375 128.859375 163.167969 130.023438 C 161.941406 129.886719 160.730469 129.792969 159.523438 129.765625 C 159.203125 128.609375 158.828125 127.457031 158.394531 126.308594 C 159.617188 126.332031 160.84375 126.398438 162.082031 126.523438 Z M 165.058594 122.753906 C 165.613281 124.039062 166.113281 125.339844 166.558594 126.652344 C 165.191406 126.386719 163.824219 126.183594 162.464844 126.03125 C 161.992188 124.753906 161.46875 123.476562 160.867188 122.21875 C 162.261719 122.335938 163.660156 122.515625 165.058594 122.753906 Z M 167.402344 119.152344 C 168.035156 120.445312 168.621094 121.738281 169.148438 123.042969 C 167.90625 122.742188 166.667969 122.492188 165.421875 122.277344 C 164.859375 120.992188 164.238281 119.722656 163.558594 118.460938 C 164.839844 118.648438 166.121094 118.882812 167.402344 119.152344 Z M 172.019531 119.765625 C 170.601562 119.351562 169.179688 119 167.753906 118.691406 C 167.089844 117.363281 166.367188 116.042969 165.578125 114.75 C 167.046875 115.015625 168.519531 115.335938 169.992188 115.707031 C 170.722656 117.042969 171.398438 118.402344 172.019531 119.765625 Z M 175.003906 117.191406 C 175.6875 118.585938 176.300781 119.992188 176.867188 121.402344 C 175.488281 120.875 174.09375 120.40625 172.699219 119.980469 C 172.085938 118.609375 171.425781 117.246094 170.707031 115.898438 C 172.144531 116.28125 173.578125 116.703125 175.003906 117.191406 Z M 179.773438 118.445312 C 178.320312 117.832031 176.851562 117.273438 175.386719 116.765625 C 174.734375 115.445312 174.03125 114.136719 173.289062 112.839844 C 174.796875 113.304688 176.308594 113.816406 177.808594 114.378906 C 178.507812 115.730469 179.167969 117.082031 179.773438 118.445312 Z M 178.546875 114.65625 C 179.964844 115.210938 181.367188 115.820312 182.765625 116.464844 C 183.40625 117.867188 184.015625 119.265625 184.566406 120.683594 C 183.21875 119.996094 181.855469 119.335938 180.488281 118.738281 C 179.894531 117.371094 179.238281 116.011719 178.546875 114.65625 Z M 177.554688 121.679688 C 176.992188 120.257812 176.382812 118.851562 175.714844 117.449219 C 177.175781 117.960938 178.632812 118.527344 180.082031 119.148438 C 180.703125 120.597656 181.261719 122.058594 181.78125 123.523438 C 180.378906 122.859375 178.972656 122.238281 177.554688 121.679688 Z M 177.828125 122.367188 C 179.238281 122.9375 180.644531 123.550781 182.035156 124.234375 C 182.523438 125.667969 182.941406 127.101562 183.324219 128.539062 C 181.984375 127.8125 180.617188 127.15625 179.246094 126.539062 C 178.824219 125.144531 178.359375 123.753906 177.828125 122.367188 Z M 176.019531 129.449219 C 175.667969 128.074219 175.269531 126.695312 174.800781 125.320312 C 176.148438 125.804688 177.488281 126.335938 178.816406 126.921875 C 179.238281 128.339844 179.609375 129.757812 179.921875 131.179688 C 178.632812 130.546875 177.335938 129.976562 176.019531 129.449219 Z M 176.191406 130.09375 C 177.488281 130.632812 178.792969 131.210938 180.070312 131.851562 C 180.347656 133.136719 180.582031 134.417969 180.765625 135.699219 C 179.507812 135.015625 178.242188 134.398438 176.960938 133.828125 C 176.738281 132.585938 176.492188 131.34375 176.191406 130.09375 Z M 176.484375 134.203125 C 176.71875 135.605469 176.898438 137 177.015625 138.390625 C 175.753906 137.792969 174.488281 137.261719 173.207031 136.789062 C 173.0625 135.425781 172.859375 134.0625 172.59375 132.695312 C 173.902344 133.136719 175.199219 133.636719 176.484375 134.203125 Z M 171.578125 128.457031 C 172.917969 128.863281 174.25 129.320312 175.574219 129.84375 C 175.890625 131.089844 176.15625 132.335938 176.382812 133.578125 C 175.082031 133.023438 173.773438 132.527344 172.460938 132.097656 C 172.210938 130.882812 171.917969 129.667969 171.578125 128.457031 Z M 170.972656 128.265625 C 171.332031 129.480469 171.625 130.695312 171.886719 131.914062 C 170.699219 131.539062 169.511719 131.207031 168.320312 130.925781 C 168.042969 129.738281 167.710938 128.546875 167.335938 127.359375 C 168.550781 127.621094 169.761719 127.914062 170.972656 128.265625 Z M 169.398438 123.664062 C 169.921875 124.988281 170.382812 126.328125 170.789062 127.664062 C 169.574219 127.324219 168.367188 127.03125 167.15625 126.78125 C 166.71875 125.46875 166.222656 124.160156 165.671875 122.859375 C 166.914062 123.082031 168.160156 123.34375 169.398438 123.664062 Z M 173.921875 124.4375 C 172.550781 123.972656 171.171875 123.574219 169.796875 123.214844 C 169.269531 121.898438 168.699219 120.59375 168.070312 119.304688 C 169.488281 119.625 170.902344 119.992188 172.320312 120.417969 C 172.90625 121.75 173.4375 123.085938 173.921875 124.4375 Z M 175.40625 129.203125 C 174.078125 128.691406 172.738281 128.238281 171.402344 127.84375 C 171.003906 126.503906 170.550781 125.164062 170.042969 123.832031 C 171.414062 124.195312 172.785156 124.609375 174.160156 125.078125 C 174.625 126.453125 175.042969 127.824219 175.40625 129.203125 Z M 173 120.632812 C 174.386719 121.066406 175.773438 121.546875 177.148438 122.085938 C 177.6875 123.464844 178.167969 124.851562 178.605469 126.242188 C 177.265625 125.660156 175.917969 125.148438 174.574219 124.667969 C 174.09375 123.316406 173.578125 121.96875 173 120.632812 Z M 177.015625 146.921875 C 175.8125 146.246094 174.585938 145.640625 173.34375 145.121094 C 173.429688 143.980469 173.484375 142.824219 173.484375 141.664062 C 174.726562 142.167969 175.972656 142.738281 177.1875 143.382812 C 177.171875 144.570312 177.121094 145.753906 177.015625 146.921875 Z M 172.726562 149.773438 C 173.34375 150.050781 173.953125 150.347656 174.558594 150.667969 C 174.835938 150.625 175.113281 150.578125 175.390625 150.523438 C 174.542969 150.054688 173.6875 149.613281 172.820312 149.234375 C 173.027344 148.066406 173.199219 146.878906 173.304688 145.683594 C 174.539062 146.207031 175.75 146.816406 176.953125 147.496094 C 176.851562 148.433594 176.71875 149.355469 176.5625 150.273438 C 176.753906 150.230469 176.9375 150.171875 177.128906 150.121094 C 177.253906 149.347656 177.367188 148.566406 177.453125 147.777344 C 178.222656 148.238281 178.984375 148.738281 179.734375 149.257812 C 179.921875 149.1875 180.117188 149.101562 180.3125 149.019531 C 179.394531 148.371094 178.464844 147.757812 177.519531 147.207031 C 177.632812 146.035156 177.6875 144.855469 177.714844 143.660156 C 178.917969 144.316406 180.105469 145.050781 181.269531 145.84375 C 181.226562 146.804688 181.144531 147.746094 181.042969 148.695312 C 181.230469 148.605469 181.417969 148.507812 181.605469 148.414062 C 181.675781 147.679688 181.742188 146.9375 181.78125 146.183594 C 182.332031 146.574219 182.875 146.984375 183.414062 147.402344 C 183.570312 147.296875 183.734375 147.203125 183.894531 147.101562 C 183.207031 146.570312 182.519531 146.050781 181.820312 145.566406 C 181.867188 144.273438 181.863281 142.960938 181.820312 141.652344 C 183.050781 142.433594 184.265625 143.28125 185.453125 144.199219 C 185.453125 144.800781 185.4375 145.40625 185.417969 146.003906 C 185.59375 145.867188 185.777344 145.734375 185.953125 145.59375 C 185.957031 145.265625 185.980469 144.933594 185.980469 144.609375 C 186.167969 144.757812 186.359375 144.921875 186.546875 145.082031 C 186.6875 144.960938 186.820312 144.835938 186.953125 144.722656 C 186.632812 144.449219 186.3125 144.183594 185.984375 143.925781 C 185.980469 142.441406 185.898438 140.941406 185.769531 139.433594 C 186.949219 140.265625 188.097656 141.148438 189.234375 142.089844 C 189.234375 142.164062 189.234375 142.238281 189.238281 142.316406 C 189.410156 142.105469 189.574219 141.890625 189.742188 141.675781 C 189.667969 140.34375 189.542969 139.003906 189.378906 137.660156 C 190.058594 138.171875 190.722656 138.710938 191.382812 139.257812 C 191.472656 139.105469 191.558594 138.945312 191.644531 138.789062 C 190.867188 138.152344 190.085938 137.519531 189.285156 136.925781 C 189.085938 135.398438 188.84375 133.871094 188.539062 132.335938 C 189.753906 133.164062 190.957031 134.019531 192.140625 134.941406 C 192.261719 135.6875 192.367188 136.433594 192.472656 137.179688 C 192.613281 136.871094 192.746094 136.566406 192.875 136.253906 C 192.835938 135.988281 192.804688 135.71875 192.765625 135.449219 C 192.871094 135.535156 192.980469 135.628906 193.082031 135.714844 C 193.144531 135.539062 193.222656 135.363281 193.277344 135.1875 C 193.066406 135.011719 192.847656 134.832031 192.625 134.648438 C 192.367188 133.105469 192.066406 131.546875 191.699219 130 C 192.542969 130.59375 193.367188 131.230469 194.195312 131.875 C 194.234375 131.675781 194.269531 131.480469 194.296875 131.289062 C 193.378906 130.574219 192.453125 129.882812 191.515625 129.226562 C 191.125 127.644531 190.667969 126.066406 190.175781 124.492188 C 191.441406 125.292969 192.695312 126.128906 193.929688 127.019531 C 194.160156 127.820312 194.363281 128.613281 194.550781 129.410156 C 194.609375 128.824219 194.632812 128.238281 194.648438 127.648438 C 194.632812 127.609375 194.628906 127.566406 194.617188 127.53125 C 194.628906 127.535156 194.632812 127.546875 194.648438 127.550781 C 194.65625 127.332031 194.65625 127.117188 194.648438 126.890625 C 194.566406 126.828125 194.484375 126.761719 194.398438 126.703125 C 193.972656 125.175781 193.5 123.65625 192.980469 122.144531 C 193.425781 122.433594 193.851562 122.753906 194.285156 123.054688 C 194.242188 122.792969 194.191406 122.539062 194.140625 122.289062 C 193.652344 121.957031 193.167969 121.632812 192.679688 121.3125 C 192.152344 119.835938 191.582031 118.355469 190.960938 116.886719 C 191.582031 117.246094 192.191406 117.628906 192.804688 118.007812 C 192.691406 117.726562 192.566406 117.445312 192.441406 117.167969 C 191.839844 116.800781 191.242188 116.4375 190.640625 116.085938 C 190.015625 114.65625 189.335938 113.230469 188.628906 111.816406 C 188.859375 111.941406 189.082031 112.074219 189.316406 112.191406 C 188.996094 111.808594 188.664062 111.433594 188.320312 111.066406 C 188.285156 111.042969 188.246094 111.023438 188.210938 111.003906 C 188.1875 110.960938 188.167969 110.917969 188.140625 110.875 C 188 110.726562 187.863281 110.578125 187.71875 110.425781 C 187.441406 110.148438 187.160156 109.882812 186.871094 109.621094 C 187.042969 109.945312 187.234375 110.265625 187.402344 110.585938 C 185.988281 109.878906 184.566406 109.195312 183.140625 108.574219 C 182.636719 107.710938 182.121094 106.851562 181.585938 105.992188 C 181.292969 105.847656 180.996094 105.707031 180.691406 105.566406 C 181.257812 106.457031 181.8125 107.351562 182.339844 108.253906 C 180.875 107.628906 179.402344 107.058594 177.917969 106.53125 C 177.386719 105.707031 176.835938 104.890625 176.273438 104.085938 C 176.011719 104.023438 175.746094 103.964844 175.484375 103.910156 C 176.023438 104.683594 176.582031 105.449219 177.09375 106.234375 C 175.582031 105.710938 174.058594 105.230469 172.539062 104.8125 C 172.222656 104.363281 171.886719 103.925781 171.550781 103.488281 C 171.324219 103.484375 171.09375 103.476562 170.867188 103.476562 C 171.148438 103.851562 171.441406 104.21875 171.71875 104.585938 C 170.457031 104.25 169.195312 103.949219 167.9375 103.675781 C 167.457031 103.738281 166.972656 103.808594 166.496094 103.902344 C 166.496094 103.902344 166.496094 103.902344 166.5 103.902344 C 167.460938 105.089844 168.386719 106.285156 169.253906 107.511719 C 167.703125 107.144531 166.152344 106.839844 164.601562 106.578125 C 164.128906 105.984375 163.648438 105.390625 163.152344 104.792969 C 162.96875 104.863281 162.792969 104.933594 162.617188 105.003906 C 163.015625 105.480469 163.417969 105.960938 163.808594 106.445312 C 162.640625 106.261719 161.476562 106.121094 160.320312 106.007812 C 159.882812 106.222656 159.460938 106.453125 159.039062 106.695312 C 159.9375 107.726562 160.792969 108.769531 161.601562 109.828125 C 160.210938 109.671875 158.824219 109.535156 157.441406 109.46875 C 157.144531 109.105469 156.828125 108.753906 156.523438 108.402344 C 156.378906 108.507812 156.242188 108.617188 156.105469 108.726562 C 156.316406 108.960938 156.53125 109.195312 156.738281 109.441406 C 156.253906 109.417969 155.78125 109.417969 155.300781 109.410156 C 155.113281 109.574219 154.925781 109.746094 154.742188 109.921875 C 155.550781 109.925781 156.363281 109.945312 157.183594 109.988281 C 158.113281 111.113281 159 112.277344 159.824219 113.449219 C 158.324219 113.324219 156.828125 113.242188 155.34375 113.234375 C 154.777344 112.511719 154.183594 111.800781 153.574219 111.097656 C 153.449219 111.226562 153.332031 111.363281 153.210938 111.492188 C 153.714844 112.074219 154.199219 112.648438 154.667969 113.242188 C 153.683594 113.25 152.707031 113.289062 151.726562 113.347656 C 151.601562 113.535156 151.472656 113.714844 151.34375 113.902344 C 152.578125 113.816406 153.820312 113.769531 155.078125 113.769531 C 155.992188 114.957031 156.832031 116.171875 157.621094 117.414062 C 156.304688 117.363281 155 117.363281 153.707031 117.414062 C 152.933594 116.289062 152.09375 115.1875 151.199219 114.113281 C 151.089844 114.273438 150.996094 114.433594 150.894531 114.59375 C 151.664062 115.53125 152.402344 116.476562 153.082031 117.449219 C 151.859375 117.511719 150.644531 117.625 149.445312 117.78125 C 149.402344 117.714844 149.347656 117.65625 149.296875 117.59375 C 149.1875 117.855469 149.074219 118.117188 148.964844 118.375 C 149.042969 118.367188 149.117188 118.351562 149.199219 118.339844 C 150.042969 119.457031 150.804688 120.609375 151.496094 121.78125 C 150.277344 121.921875 149.066406 122.09375 147.875 122.332031 C 147.851562 122.289062 147.820312 122.253906 147.800781 122.21875 C 147.75 122.46875 147.699219 122.726562 147.648438 122.980469 C 148.351562 124.136719 148.976562 125.3125 149.511719 126.519531 C 148.753906 126.65625 148.011719 126.839844 147.269531 127.023438 C 147.269531 127.207031 147.269531 127.386719 147.28125 127.566406 C 148.082031 127.359375 148.898438 127.171875 149.722656 127.011719 C 150.199219 128.148438 150.601562 129.289062 150.921875 130.433594 C 149.804688 130.652344 148.703125 130.941406 147.625 131.265625 C 147.648438 131.441406 147.679688 131.617188 147.714844 131.792969 C 148.8125 131.46875 149.925781 131.171875 151.058594 130.945312 C 151.414062 132.304688 151.667969 133.664062 151.800781 135.011719 C 150.8125 135.230469 149.84375 135.511719 148.878906 135.820312 C 148.949219 135.988281 149.011719 136.152344 149.082031 136.316406 C 149.984375 136.023438 150.910156 135.753906 151.847656 135.542969 C 151.953125 136.898438 151.957031 138.234375 151.839844 139.546875 C 151.527344 139.636719 151.21875 139.742188 150.910156 139.84375 C 151.003906 140 151.09375 140.152344 151.199219 140.300781 C 151.390625 140.246094 151.585938 140.175781 151.78125 140.117188 C 151.746094 140.398438 151.683594 140.664062 151.640625 140.941406 C 151.789062 141.148438 151.941406 141.351562 152.085938 141.550781 C 152.179688 141.023438 152.273438 140.496094 152.332031 139.960938 C 153.597656 139.617188 154.894531 139.367188 156.222656 139.195312 C 156.1875 140.472656 156.058594 141.734375 155.835938 142.972656 C 155.125 143.105469 154.421875 143.28125 153.722656 143.480469 C 153.859375 143.628906 154 143.78125 154.148438 143.925781 C 154.675781 143.78125 155.203125 143.632812 155.746094 143.527344 C 155.640625 144.050781 155.496094 144.554688 155.359375 145.066406 C 155.511719 145.195312 155.660156 145.328125 155.816406 145.457031 C 156 144.792969 156.167969 144.117188 156.296875 143.429688 C 157.53125 143.210938 158.789062 143.085938 160.070312 143.054688 C 159.902344 144.375 159.644531 145.675781 159.304688 146.941406 C 158.894531 146.988281 158.488281 147.066406 158.085938 147.128906 C 158.308594 147.277344 158.539062 147.421875 158.765625 147.558594 C 158.894531 147.542969 159.015625 147.511719 159.144531 147.496094 C 159.121094 147.582031 159.09375 147.65625 159.070312 147.742188 C 159.222656 147.832031 159.378906 147.917969 159.539062 148.003906 C 159.597656 147.8125 159.664062 147.628906 159.71875 147.433594 C 161.027344 147.320312 162.359375 147.320312 163.710938 147.425781 C 163.546875 148.167969 163.347656 148.890625 163.132812 149.617188 C 163.300781 149.667969 163.46875 149.722656 163.636719 149.777344 C 163.863281 149.019531 164.074219 148.246094 164.242188 147.46875 C 165.59375 147.609375 166.949219 147.859375 168.300781 148.214844 C 168.136719 149.0625 167.9375 149.894531 167.71875 150.71875 C 167.894531 150.742188 168.070312 150.761719 168.253906 150.785156 C 168.460938 149.984375 168.652344 149.167969 168.816406 148.355469 C 169.957031 148.679688 171.101562 149.078125 172.226562 149.558594 C 172.140625 150.015625 172.023438 150.46875 171.917969 150.921875 C 172.105469 150.910156 172.289062 150.902344 172.472656 150.890625 C 172.554688 150.511719 172.65625 150.148438 172.726562 149.773438 " fill-opacity="1" fill-rule="nonzero"/><path fill="#ffffff" d="M 90.738281 216.011719 L 81.738281 206.996094 L 147.269531 127.109375 L 171.066406 150.945312 L 90.738281 216.011719 " fill-opacity="1" fill-rule="nonzero"/><g clip-path="url(#0d58c8d1e0)"><path stroke-linecap="butt" transform="matrix(0.0517477, 0, 0, -0.0518324, -172.986333, 972.003185)" fill="none" stroke-linejoin="miter" d="M 5096.279245 14584.918339 L 4922.282971 14758.780854 L 6188.643707 16300.030224 L 6648.431692 15840.165002 Z M 5096.279245 14584.918339 " stroke="#3a1e08" stroke-width="42.695" stroke-opacity="1" stroke-miterlimit="10"/></g><path fill="#ffffff" d="M 168.523438 152.886719 L 171.066406 150.945312 L 147.269531 127.109375 L 145.324219 129.65625 L 168.523438 152.886719 " fill-opacity="1" fill-rule="nonzero"/><g clip-path="url(#d93c15f52d)"><path stroke-linecap="butt" transform="matrix(0.0517477, 0, 0, -0.0518324, -172.986333, 972.003185)" fill="none" stroke-linejoin="miter" d="M 6599.290011 15802.709575 L 6648.431692 15840.165002 L 6188.643707 16300.030224 L 6151.051453 16250.893527 Z M 6599.290011 15802.709575 " stroke="#3a1e08" stroke-width="42.695" stroke-opacity="1" stroke-miterlimit="10"/></g><path fill="#ffffff" d="M 153.980469 110.199219 C 153.351562 110.820312 152.78125 111.46875 152.234375 112.136719 L 186.011719 145.964844 C 186.679688 145.425781 187.328125 144.847656 187.949219 144.222656 C 188.46875 143.703125 188.949219 143.167969 189.410156 142.617188 L 155.582031 108.734375 C 155.03125 109.195312 154.496094 109.679688 153.980469 110.199219 " fill-opacity="1" fill-rule="nonzero"/><g clip-path="url(#6ec5ced56d)"><path stroke-linecap="butt" transform="matrix(0.0528759, 0, 0, -0.0529625, -172.986333, 972.003185)" fill="none" stroke-linejoin="miter" d="M 6183.743009 16272.274032 C 6171.922869 16260.62073 6161.063116 16248.303632 6150.79437 16235.691514 L 6789.599035 15596.972546 C 6802.231809 15607.224501 6814.495204 15618.140253 6826.241467 15629.86731 C 6836.066958 15639.676735 6845.15369 15649.781181 6853.871043 15660.180647 L 6214.032116 16300.005941 C 6203.689494 16291.302842 6193.5685 16282.083457 6183.743009 16272.274032 Z M 6183.743009 16272.274032 " stroke="#3a1e08" stroke-width="41.785999" stroke-opacity="1" stroke-miterlimit="10"/></g><path fill="#ffffff" d="M 146.046875 177.75 L 121.535156 154.582031 L 128.296875 148.023438 L 152.730469 171.398438 L 146.046875 177.75 " fill-opacity="1" fill-rule="nonzero"/><path stroke-linecap="butt" transform="matrix(0.0504676, 0, 0, -0.0505503, -172.986333, 972.003185)" fill="none" stroke-linejoin="miter" d="M 6321.384177 15711.904187 L 5835.769864 16170.219348 L 5969.751116 16299.963262 L 6453.817408 15837.629827 Z M 6321.384177 15711.904187 " stroke="#3a1e08" stroke-width="43.778999" stroke-opacity="1" stroke-miterlimit="10"/></svg>