<svg xmlns="http://www.w3.org/2000/svg" xmlns:xlink="http://www.w3.org/1999/xlink" width="400" zoomAndPan="magnify" viewBox="0 0 300 299.999988" height="400" preserveAspectRatio="xMidYMid meet" version="1.0"><defs><clipPath id="d24601d74a"><path d="M 2 2 L 298 2 L 298 298 L 2 298 Z M 2 2 " clip-rule="nonzero"/></clipPath><clipPath id="986015f358"><path d="M 0 7.5 L 0 292.5 C 0 296.640625 3.359375 300 7.5 300 L 292.5 300 C 296.640625 300 300 296.640625 300 292.5 L 300 7.5 C 300 3.359375 296.640625 0 292.5 0 L 7.5 0 C 3.359375 0 0 3.359375 0 7.5 Z M 0 7.5 " clip-rule="nonzero"/></clipPath><clipPath id="2f71def6ae"><path d="M 0 7.5 L 0 292.5 C 0 296.640625 3.359375 300 7.5 300 L 292.5 300 C 296.640625 300 300 296.640625 300 292.5 L 300 7.5 C 300 3.359375 296.640625 0 292.5 0 L 7.5 0 C 3.359375 0 0 3.359375 0 7.5 Z M 0 7.5 " clip-rule="nonzero"/></clipPath><clipPath id="c1a0f215fb"><path d="M 16.75 16.75 L 283 16.75 L 283 283 L 16.75 283 Z M 16.75 16.75 " clip-rule="nonzero"/></clipPath></defs><g clip-path="url(#d24601d74a)"><g clip-path="url(#986015f358)"><path fill="#222220" d="M 2 2 L 298 2 L 298 298 L 2 298 Z M 2 2 " fill-opacity="1" fill-rule="nonzero"/></g></g><g clip-path="url(#2f71def6ae)"><path fill="#222220" d="M 298 300 L 2 300 C 0.878906 300 0 299.121094 0 298 L 0 2 C 0 0.878906 0.878906 0 2 0 L 298 0 C 299.121094 0 300 0.878906 300 2 L 300 298 C 300 299.121094 299.121094 300 298 300 Z M 4 296 L 296 296 L 296 4 L 4 4 Z M 4 296 " fill-opacity="1" fill-rule="nonzero"/></g><path fill="#f8f8f8" d="M 149.828125 160.386719 C 160.890625 160.386719 169.890625 151.433594 169.890625 140.371094 L 169.890625 98.78125 C 169.890625 87.71875 160.890625 78.722656 149.828125 78.722656 C 138.765625 78.722656 129.8125 87.71875 129.8125 98.78125 L 129.8125 140.371094 C 129.8125 151.390625 138.765625 160.386719 149.828125 160.386719 Z M 149.828125 160.386719 " fill-opacity="1" fill-rule="nonzero"/><g clip-path="url(#c1a0f215fb)"><path fill="#f8f8f8" d="M 149.875 16.75 C 76.335938 16.75 16.75 76.335938 16.75 149.875 C 16.75 223.414062 76.335938 283 149.875 283 C 223.414062 283 283 223.414062 283 149.875 C 283 76.335938 223.414062 16.75 149.875 16.75 Z M 116.042969 98.78125 C 116.042969 80.097656 131.191406 64.949219 149.828125 64.949219 C 168.464844 64.949219 183.660156 80.144531 183.660156 98.78125 L 183.660156 140.371094 C 183.660156 159.011719 168.464844 174.160156 149.828125 174.160156 C 131.191406 174.160156 116.042969 159.011719 116.042969 140.371094 Z M 156.714844 191.003906 L 156.714844 221.027344 L 172.367188 221.027344 C 176.179688 221.027344 179.253906 224.101562 179.253906 227.914062 C 179.253906 231.722656 176.179688 234.800781 172.367188 234.800781 L 127.335938 234.800781 C 123.523438 234.800781 120.449219 231.722656 120.449219 227.914062 C 120.449219 224.101562 123.523438 221.027344 127.335938 221.027344 L 142.941406 221.027344 L 142.941406 191.003906 C 118.015625 187.609375 98.78125 166.261719 98.78125 140.371094 C 98.78125 136.5625 101.859375 133.488281 105.667969 133.488281 C 109.476562 133.488281 112.554688 136.5625 112.554688 140.371094 C 112.554688 160.984375 129.261719 177.738281 149.828125 177.738281 C 170.394531 177.738281 187.195312 160.984375 187.195312 140.371094 C 187.195312 136.5625 190.269531 133.488281 194.082031 133.488281 C 197.890625 133.488281 200.96875 136.5625 200.96875 140.371094 C 200.96875 166.21875 181.640625 187.609375 156.714844 191.003906 Z M 156.714844 191.003906 " fill-opacity="1" fill-rule="nonzero"/></g></svg>