<svg enable-background="new 0 0 512 512" height="512" viewBox="0 0 512 512" width="512" xmlns="http://www.w3.org/2000/svg"><g id="_x37_3_Idea_Error"><g><g><path d="m256 29.226c-2.843 0-5.148-2.303-5.148-5.148v-12.68c0-2.846 2.305-5.148 5.148-5.148s5.148 2.303 5.148 5.148v12.679c0 2.846-2.305 5.149-5.148 5.149z" fill="#474747"/></g><path d="m395.352 195.839c0 39.685-16.565 75.467-43.171 100.82-29.019 27.652-46.625 65.149-46.625 105.233v1.078h-99.113v-1.078c0-40.084-17.606-77.581-46.625-105.233-26.606-25.353-43.171-61.134-43.171-100.82 0-76.917 62.376-139.353 139.353-139.353s139.352 62.436 139.352 139.353z" fill="#fdcf17"/><path d="m395.372 195.824c0 39.719-16.609 75.505-43.216 100.855-29.011 27.644-46.603 65.123-46.603 105.224v1.094h-99.106v-1.094c0-6.883-.492-13.659-1.53-20.324 36.222-7.812 67.691-31.032 87.087-63.812 7.211-12.074 16.117-23.219 26.497-33.108 27.317-26.006 44.035-63.048 43.106-103.914-1.093-52.393-32.016-98.451-76.488-121.178 62.995 13.385 110.253 69.331 110.253 136.257z" opacity=".12"/><g><path d="m377.254 79.451c-2.011-2.011-2.011-5.269 0-7.28l8.964-8.964c2.011-2.011 5.269-2.011 7.28 0s2.011 5.269 0 7.28l-8.964 8.964c-2.011 2.011-5.269 2.011-7.28 0z" fill="#474747"/></g><g><path d="m118.5 338.207c-2.011-2.011-2.011-5.269 0-7.28l8.967-8.964c2.011-2.011 5.269-2.011 7.28 0s2.011 5.269 0 7.28l-8.967 8.964c-2.011 2.011-5.269 2.011-7.28 0z" fill="#474747"/></g><g><path d="m445.306 205.853h-12.679c-2.843 0-5.148-2.303-5.148-5.148s2.305-5.148 5.148-5.148h12.679c2.843 0 5.148 2.303 5.148 5.148s-2.305 5.148-5.148 5.148z" fill="#474747"/></g><g><path d="m79.371 205.858h-12.677c-2.843 0-5.148-2.303-5.148-5.148 0-2.846 2.305-5.148 5.148-5.148h12.677c2.843 0 5.148 2.303 5.148 5.148s-2.305 5.148-5.148 5.148z" fill="#474747"/></g><g><path d="m386.22 338.207-8.967-8.964c-2.011-2.011-2.011-5.269 0-7.28s5.269-2.011 7.28 0l8.967 8.964c2.011 2.011 2.011 5.269 0 7.28s-5.269 2.011-7.28 0z" fill="#474747"/></g><g><path d="m127.461 79.456-8.964-8.964c-2.011-2.011-2.011-5.269 0-7.28s5.269-2.011 7.28 0l8.964 8.964c2.011 2.011 2.011 5.269 0 7.28s-5.269 2.011-7.28 0z" fill="#474747"/></g><path d="m323.794 420.1c0-9.461-7.669-17.13-17.13-17.13h-101.33c-9.461 0-17.13 7.669-17.13 17.13 0 9.461 7.669 17.13 17.13 17.13h101.33c9.461 0 17.13-7.669 17.13-17.13z" fill="#475da9"/><path d="m323.794 454.36c0-9.461-7.669-17.13-17.13-17.13h-101.33c-9.461 0-17.13 7.669-17.13 17.13 0 9.461 7.669 17.13 17.13 17.13h101.33c9.461 0 17.13-7.669 17.13-17.13z" fill="#1c40a5"/><path d="m293.627 488.62c0-9.461-7.669-17.13-17.13-17.13h-40.995c-9.461 0-17.13 7.669-17.13 17.13 0 9.461 7.669 17.13 17.13 17.13h40.995c9.46 0 17.13-7.67 17.13-17.13z" fill="#475da9"/><g fill="#f14f4a"><path d="m278.741 159.212-10.019 100.266c-.653 6.537-6.154 11.516-12.724 11.516-6.57 0-12.07-4.978-12.724-11.516l-10.019-100.266c-.752-7.527 5.159-14.058 12.724-14.058h20.037c7.567-.001 13.478 6.531 12.725 14.058z"/><path d="m272.095 298.247c0 8.895-7.162 16.056-16.056 16.056-8.972 0-16.135-7.161-16.135-16.056 0-8.893 7.162-16.133 16.135-16.133 8.893 0 16.056 7.24 16.056 16.133z"/></g></g></g></svg>