<svg id="Layer_1" enable-background="new 0 0 73 73" height="512" viewBox="0 0 73 73" width="512" xmlns="http://www.w3.org/2000/svg"><g id="_x31_98"><path d="m62.6256676 11.1195641c-.2822266-.3037109-.7563477-.3203125-1.0600586-.0390625l-5.0527344 4.6894531c-.5017662.4662724-.1640434 1.2998047.5102539 1.2998047.5496483 0 .383091-.182188 5.5629883-4.8896484.3037109-.2822266.3212891-.756836.0395508-1.0605469z"/><path d="m68.832695 17.892025c-.1357422-.3916016-.5639648-.6025391-.9541016-.4638672l-6.5825157 2.2773438c-.9252625.3211269-.460289 1.7484303.4912109 1.4179688l6.5815392-2.2773438c.3916016-.1357422.5991211-.5625.4638672-.9541016z"/><path d="m55.0211754 19.1781578c-11.4142647-12.9355731-32.751463-13.8296256-43.9370737-.9846191-7.95185 9.1317863-9.2955117 23.2419014-2.9562989 33.852539 7.3784647 12.3501473 23.0584593 16.895382 35.2072154 10.2331543 10.5321922-3.9699593 17.5602837-13.3382721 18.5279541-22.9545898.7006836-6.9658203-1.8569336-14.4970703-6.8417969-20.1464844zm5.3496094 19.9960938c-1.4668808 14.5767364-16.9769364 26.2120704-32.4794922 22.9609375-8.8886719-1.859375-16.5878906-8.671875-19.6157227-17.3574219-3.0737305-8.8183594-1.1181641-19.3095703 4.8662109-26.1074219 10.5905714-12.0288239 30.4223328-10.209856 40.7543945 1.5 4.7138673 5.3417969 7.1342774 12.4462891 6.4746095 19.0039063z"/><path d="m53.8429527 8.0746422-2.2119141 4.5126953c-.1826172.3720703-.0288086.8212891.3432617 1.0039063.3672714.1794043.818718.0325632 1.003418-.34375l2.2119141-4.5126953c.1826172-.3720703.0288086-.8212886-.3432617-1.0039058-.3725586-.1816407-.8217773-.0283204-1.003418.3437495z"/><path d="m47.2418785 31.7084312h-10.0390625c.4750977-3.534668.4594116-6.9647217-.0947266-10.2001953-.0344353-2.2845592-1.8819046-4.2783203-4.3452148-4.2783203-2.3959961 0-4.3457031 1.9492188-4.3457031 4.3457031v10.1328125h-10.1333008c-2.395997 0-4.3457041 1.9492188-4.3457041 4.3457031 0 2.3769531 1.9189453 4.3154297 4.2890635 4.3457031 3.3236237.4787331 6.8919811.7745781 10.1899414.1689453v9.9765625c0 2.3964844 1.949707 4.3457031 4.3457031 4.3457031s4.3457031-1.9492188 4.3417969-4.2685547c.3726807-3.5841064.387085-6.9101563.0779419-10.1442871 3.141304.2492485 6.8621902.0879707 10.0592651-.0783691 2.4667969 0 4.3457031-2.0094604 4.3457031-4.3457031 0-2.3964843-1.949707-4.3457031-4.3457031-4.3457031zm-.0385742 7.1923829c-8.687645.4522972-9.9755211.0109863-10.8513794.0109863-.0271606 0-.0521851-.0100098-.0797729-.0070801-.0199585.0023193-.0355835.0140381-.0549927.0178223-1.4592628.2788391.3956718 1.8693008-.6085815 11.6228027 0 1.5693359-1.2763672 2.8457031-2.8457031 2.8457031s-2.8457031-1.2763672-2.8457031-2.8457031c-.0153446-12.1821556.0481129-10.9891624-.1102905-11.2634277-.7288475-1.2633324-1.3139839 1.0929184-11.4155884-.3742676-.0356445-.0048828-.0712891-.0078125-.1074219-.0078125-1.5693359 0-2.8457041-1.2763672-2.8457041-2.8457031s1.2763681-2.8457031 2.8457041-2.8457031h10.8833008c.4140625 0 .75-.3359375.75-.75v-10.8828126c0-2.5446568 3.1086502-3.7890873 4.8564453-2.0107422.8842926.8834915.800293 1.8755207.8461914 2.1386719.9639015 5.5586185-.0112305 10.2231464-.0112305 10.7548828 0 .0318604.0142822.059082.0181274.0898438.0495834.4005737.4011269.658989.7313232.6600342.0001831 0 .0003662.0001221.0005493.0001221h10.8833008c1.5693359 0 2.8457031 1.2763672 2.8457031 2.8457031 0 1.464714-1.1555862 2.8445854-2.8842773 2.8466797z"/></g></svg>