<?xml version="1.0" encoding="iso-8859-1"?>
<!-- Generator: Adobe Illustrator 19.0.0, SVG Export Plug-In . SVG Version: 6.00 Build 0)  -->
<svg version="1.1" id="Capa_1" xmlns="http://www.w3.org/2000/svg" xmlns:xlink="http://www.w3.org/1999/xlink" x="0px" y="0px"
	 viewBox="0 0 512 512" style="enable-background:new 0 0 512 512;" xml:space="preserve">
<path style="fill:#2FC8B4;" d="M478.945,112.769C446.826,96.806,411.44,88.712,373.77,88.712c-51.464,0-95.225,15.261-117.75,24.911
	c-22.57-9.686-66.247-24.912-117.794-24.912c-37.679,0-73.073,8.098-105.198,24.07C12.656,122.911,0,143.318,0,166.038v205.215
	c0,32.788,26.638,59.464,59.382,59.464c6.893,0,13.703-1.202,20.243-3.57c18.169-6.582,37.888-9.919,58.608-9.919
	c54.97,0,99.824,23.369,101.633,24.325c9.959,5.551,22.072,5.595,32.071,0.115l0.261-0.143
	c0.444-0.243,45.895-24.298,101.575-24.298c20.718,0,40.436,3.336,58.606,9.918c6.538,2.368,13.347,3.57,20.241,3.571
	c0.002,0,0.001,0,0.003,0c15.554,0,30.288-6.019,41.486-16.945C505.646,402.512,512,387.412,512,371.253V166.038
	C512,143.313,499.334,122.902,478.945,112.769z"/>
<path style="fill:#00AE95;" d="M496.854,371.253V126.346c-4.95-5.502-10.983-10.134-17.91-13.577
	C446.826,96.806,411.44,88.712,373.77,88.712c-51.464,0-95.225,15.261-117.75,24.912c-22.57-9.687-66.247-24.912-117.795-24.912
	c-37.679,0-73.073,8.098-105.198,24.07c-6.916,3.438-12.938,8.063-17.882,13.559v244.912c0,24.437,19.844,44.318,44.235,44.318
	c5.129,0,10.204-0.896,15.085-2.664c19.828-7.182,41.281-10.823,63.765-10.823c59.674,0,107.896,25.642,108.881,26.172l8.893,4.874
	l8.911-4.884c0.478-0.262,48.437-26.162,108.853-26.162c22.483,0,43.935,3.642,63.763,10.823c4.88,1.768,9.955,2.664,15.084,2.664
	c0.001,0,0.001,0,0.003,0c11.578,0,22.556-4.488,30.909-12.64C492.122,394.546,496.854,383.295,496.854,371.253z"/>
<path style="fill:#D4D2D3;" d="M463.951,86.789c-101.489-50.44-207.946,7.908-207.946,7.908l-64.103,131.981l64.103,185.306
	c0,0,92.884-50.908,187.843-16.512c16.764,6.072,34.462-6.389,34.462-24.219V109.889C478.311,100.086,472.731,91.153,463.951,86.789
	z"/>
<path style="fill:#EFEDEE;" d="M255.972,94.674c-2.293-1.232-107.556-57.786-207.944-7.875c-8.771,4.361-14.338,13.296-14.338,23.09
	v261.363c0,17.829,17.699,30.291,34.462,24.219c94.961-34.397,187.855,16.512,187.855,16.512V94.696L255.972,94.674z"/>
<g>
	<path style="fill:#3A484A;" d="M224.323,167.664c-0.838,0-1.688-0.137-2.524-0.425c-35.392-12.23-89.165-23.104-144.357-5.452
		c-4.064,1.299-8.413-0.942-9.713-5.006c-1.3-4.064,0.942-8.413,5.006-9.713c59.24-18.947,116.503-7.432,154.112,5.564
		c4.033,1.394,6.173,5.793,4.779,9.826C230.521,165.656,227.526,167.664,224.323,167.664z"/>
	<path style="fill:#3A484A;" d="M224.323,217.552c-0.838,0-1.688-0.137-2.524-0.425c-35.391-12.23-89.166-23.104-144.357-5.452
		c-4.064,1.3-8.413-0.942-9.713-5.006s0.942-8.412,5.006-9.713c59.24-18.947,116.503-7.432,154.112,5.564
		c4.033,1.394,6.173,5.793,4.779,9.826C230.521,215.544,227.526,217.552,224.323,217.552z"/>
	<path style="fill:#3A484A;" d="M224.323,267.439c-0.838,0-1.688-0.137-2.524-0.425c-35.391-12.23-89.165-23.104-144.357-5.452
		c-4.064,1.3-8.413-0.942-9.713-5.006s0.942-8.412,5.006-9.713c59.24-18.947,116.505-7.432,154.112,5.565
		c4.033,1.394,6.173,5.793,4.779,9.826C230.521,265.431,227.526,267.439,224.323,267.439z"/>
	<path style="fill:#3A484A;" d="M224.323,317.327c-0.838,0-1.688-0.137-2.524-0.425c-35.391-12.23-89.163-23.104-144.357-5.452
		c-4.064,1.3-8.413-0.942-9.713-5.006c-1.299-4.064,0.942-8.412,5.006-9.713c59.24-18.947,116.504-7.432,154.112,5.565
		c4.033,1.394,6.173,5.793,4.779,9.826C230.521,315.319,227.526,317.327,224.323,317.327z"/>
	<path style="fill:#3A484A;" d="M287.719,167.664c-3.203,0-6.198-2.007-7.302-5.204c-1.394-4.033,0.746-8.432,4.779-9.826
		c37.608-12.996,94.874-24.511,154.112-5.564c4.064,1.3,6.306,5.648,5.006,9.713c-1.3,4.064-5.648,6.305-9.713,5.006
		c-55.194-17.652-108.966-6.779-144.357,5.452C289.408,167.527,288.556,167.664,287.719,167.664z"/>
	<path style="fill:#3A484A;" d="M287.719,217.552c-3.203,0-6.198-2.007-7.302-5.204c-1.394-4.033,0.746-8.432,4.779-9.826
		c37.608-12.996,94.874-24.511,154.112-5.564c4.064,1.3,6.306,5.648,5.006,9.713c-1.3,4.065-5.648,6.305-9.713,5.006
		c-55.192-17.652-108.966-6.779-144.357,5.452C289.408,217.415,288.556,217.552,287.719,217.552z"/>
	<path style="fill:#3A484A;" d="M287.719,267.439c-3.203,0-6.198-2.007-7.302-5.204c-1.394-4.033,0.746-8.432,4.779-9.826
		c37.608-12.996,94.871-24.511,154.112-5.565c4.064,1.3,6.306,5.648,5.006,9.713c-1.3,4.065-5.648,6.305-9.713,5.006
		c-55.192-17.652-108.966-6.779-144.357,5.452C289.408,267.302,288.556,267.439,287.719,267.439z"/>
	<path style="fill:#3A484A;" d="M287.719,317.327c-3.203,0-6.198-2.007-7.302-5.204c-1.394-4.033,0.746-8.432,4.779-9.826
		c37.608-12.996,94.871-24.511,154.112-5.565c4.064,1.3,6.306,5.648,5.006,9.713c-1.3,4.065-5.648,6.305-9.713,5.006
		c-55.194-17.652-108.966-6.779-144.357,5.452C289.408,317.19,288.556,317.327,287.719,317.327z"/>
</g>
<g>
</g>
<g>
</g>
<g>
</g>
<g>
</g>
<g>
</g>
<g>
</g>
<g>
</g>
<g>
</g>
<g>
</g>
<g>
</g>
<g>
</g>
<g>
</g>
<g>
</g>
<g>
</g>
<g>
</g>
</svg>
