<svg height="512" viewBox="0 0 58 38" width="512" xmlns="http://www.w3.org/2000/svg"><g id="022---Right-Turn" fill="none"><rect id="Rectangle-path" fill="#f0c419" height="58" rx="4" transform="matrix(0 1 -1 0 48 -10)" width="38" x="10" y="-10"/><g fill="#393f4a"><path id="Shape" d="m54 35h-50c-.55228475 0-1-.4477153-1-1v-30c0-.55228475.44771525-1 1-1h50c.5522847 0 1 .44771525 1 1v30c0 .5522847-.4477153 1-1 1zm-49-2h48v-28h-48z"/><path id="Shape" d="m12 15h22.72l-1-3.36c-.1128444-.4032504.0375064-.8341058.3767361-1.079601.3392298-.2454952.7954922-.2536362 1.1432639-.020399l11.25 7.61c.2942169.1823393.4732173.5038624.4732173.85s-.1790004.6676607-.4732173.85l-11.21 7.61c-.3477717.2332372-.8040341.2250962-1.1432639-.020399-.3392297-.2454952-.4895805-.6763506-.3767361-1.079601l1-3.36h-22.76c-.5522847 0-1-.4477153-1-1v-6c0-.5522847.4477153-1 1-1z"/></g></g></svg>