<svg id="Layer_2_00000058554610663399295960000007951366158123600277_" enable-background="new 0 0 512 512" height="512" viewBox="0 0 512 512" width="512" xmlns="http://www.w3.org/2000/svg"><g id="Icon"><g id="_06"><circle cx="416.8" cy="146.1" r="75.4"/><circle cx="416.8" cy="146.1" fill="#ffeae6" r="65.4"/><g id="_01"><g><path d="m229 123.4c9.7 9.7 9.7 25.4 0 35.1l19.1-19.1c9.7-9.7 25.4-9.7 35.1 0 9.7 9.7 9.7 25.4 0 35.1l17.2-17.2c9.7-9.7 25.4-9.7 35.1 0 9.7 9.7 9.7 25.4 0 35.1l65.7-65.7c9.7-9.7 25.4-9.7 35.1 0 9.7 9.7 9.7 25.4 0 35.1l-116.4 116.3-9.7 9.7h39.2c13.7 0 24.8 11.1 24.8 24.8 0 13.7-11.1 24.8-24.8 24.8l-107.6 6.7c-13.2.8-25.6 6.4-34.9 15.8l-11 11-105.3-105.3 18.4-18.4c4.7-4.7 8.5-10.2 11.2-16.3l22.8-51.5c2.7-6.1 6.5-11.6 11.2-16.3l25.4-25.4 14.4-14.4c9.6-9.7 25.3-9.7 35 .1z" fill="#ffccbc"/><g fill="#fcb39f"><path d="m310.2 287.8-9 9h67.4c-4.5-5.5-11.4-9-19.1-9z"/><path d="m401.3 126.6-106.9 106.8c-1.8 1.8-1.8 4.6 0 6.4 1.8 1.8 4.6 1.8 6.4 0l120.4-120.4c-.8-.1-1.6-.1-2.4-.1-6.3 0-12.6 2.4-17.5 7.3z"/><path d="m300.5 157.2-47.5 47.5c-1.8 1.8-1.8 4.6 0 6.4 1.8 1.8 4.6 1.8 6.4 0l61.1-61.1c-.8-.1-1.6-.1-2.4-.1-6.4 0-12.8 2.4-17.6 7.3z"/><path d="m248.2 139.3-36.7 36.7c-1.8 1.8-1.8 4.6 0 6.4 1.8 1.8 4.6 1.8 6.4 0l50.2-50.2c-.8-.1-1.6-.1-2.4-.1-6.4 0-12.7 2.4-17.5 7.2z"/><path d="m193.9 123.4-23.9 23.9c-1.8 1.8-1.8 4.6 0 6.4 1.8 1.8 4.6 1.8 6.4 0l37.5-37.5c-.8-.1-1.6-.1-2.4-.1-6.4 0-12.7 2.4-17.6 7.3z"/></g><path d="m146.2 423.4-108.5-108.5c-10.6-10.6-10.6-27.7 0-38.3l19.1-19.1c10.6-10.6 27.7-10.6 38.3 0l108.5 108.5c10.6 10.6 10.6 27.7 0 38.3l-19.1 19.1c-10.6 10.5-27.8 10.5-38.3 0z" fill="#6192ff"/><path d="m146.2 423.4-108.5-108.5c-10.6-10.6-10.6-27.7 0-38.3l9.6-9.6 146.7 146.8-9.6 9.6c-10.5 10.5-27.7 10.5-38.2 0z" fill="#4678fd"/></g><path d="m49.8 250.4-19.1 19.1c-14.5 14.4-14.5 38 0 52.4l108.5 108.5c14.4 14.5 38 14.5 52.4 0l19.1-19.1c12.5-12.5 14.2-31.7 5.1-46 7.4-6.6 16.7-10.5 26.6-11.1l107.3-6.7c19-.2 34.5-15.7 34.5-34.8 0-9.3-3.6-18-10.2-24.6s-15.3-10.2-24.6-10.2h-15l109.1-109.1c13.6-13.6 13.6-35.7 0-49.2-13.6-13.6-35.7-13.6-49.2 0l-43.4 43.4c-1.7-4.7-4.4-9.1-8.1-12.8-11.9-11.9-30.4-13.4-43.9-4.3-1.6-4.9-4.5-9.6-8.4-13.5-12.5-12.5-32.4-13.5-46-2.9-1.7-4.8-4.4-9.3-8.2-13.1-13.6-13.6-35.7-13.6-49.2 0l-39.9 39.6c-5.6 5.6-10.1 12.1-13.3 19.3l-22.9 51.6c-2.2 5-5.3 9.5-9.1 13.3l-5.5 5.5c-14.4-9.5-34-8-46.6 4.7zm159.6 107.2-105.4-105.4 4.9-4.9c4.7-4.7 8.5-10.2 11.2-16.3l22.8-51.5c2.7-6.1 6.5-11.6 11.2-16.3l39.7-39.7c9.7-9.7 25.4-9.7 35.1 0 3.9 3.9 6.3 8.8 7 13.9l-31.3 31.3c-1.9 2-1.9 5.1 0 7.1s5.1 1.9 7.1 0l36.3-36.3c9.7-9.7 25.4-9.7 35.1 0 3.9 3.9 6.3 8.8 7 13.9l-44.1 44.1c-1.8 1.8-1.8 4.8 0 6.7l.4.4c1.8 1.8 4.8 1.8 6.7 0l47.4-47.4c9.7-9.7 25.4-9.7 35.1 0 3.9 3.9 6.3 8.8 7 13.9l-54.9 54.9c-2 1.9-2 5.1 0 7.1s5.1 1.9 7.1 0l106.5-106.5c9.7-9.7 25.4-9.7 35.1 0s9.7 25.4 0 35.1l-126.2 126.1h39.2c13.7 0 24.8 11.1 24.8 24.8 0 13.7-11.1 24.8-24.8 24.8l-107.6 6.7c-12 .8-23.4 5.5-32.4 13.5zm-152.6-100.1c10.6-10.6 27.7-10.6 38.3 0l108.5 108.5c10.6 10.6 10.6 27.7 0 38.3l-19.1 19.1c-10.6 10.6-27.7 10.6-38.3 0l-108.5-108.5c-10.6-10.6-10.6-27.7 0-38.3z"/></g></g></g></svg>