<svg id="fc01604d-6c2f-4d04-8e2d-b5c205b9ee72" enable-background="new 0 0 128 128" height="512" viewBox="0 0 128 128" width="512" xmlns="http://www.w3.org/2000/svg"><g><path d="m121 65h-6c-.552 0-1-.448-1-1s.448-1 1-1h6c.552 0 1 .448 1 1s-.448 1-1 1zm-12 0h-6c-.552 0-1-.448-1-1s.448-1 1-1h6c.552 0 1 .448 1 1s-.448 1-1 1zm-12 0h-6c-.552 0-1-.448-1-1s.448-1 1-1h6c.552 0 1 .448 1 1s-.448 1-1 1zm-12 0h-6c-.552 0-1-.448-1-1s.448-1 1-1h6c.552 0 1 .448 1 1s-.448 1-1 1zm-12 0h-6c-.552 0-1-.448-1-1s.448-1 1-1h6c.552 0 1 .448 1 1s-.448 1-1 1z"/><g><g><path d="m87 90.93c-12.57-5.86-29.64-14.57-40.56-20.12.23-.12.45-.22.68-.33l11.53-5.38 44.65 20.82c1.002.467 1.436 1.658.969 2.66-.193.413-.52.748-.929.95-3.76 1.86-11.79 3.52-16.34 1.4z"/><path d="m35.75 60.32c1.14-.54 3.35-1.65 6.24-3.12-2.75-1.44-5.433-3.013-8.05-4.72l-1.6-9.39c-.662-3.882-3.189-7.19-6.76-8.85l-1.55-.73c-6-2.813-13.144-.23-15.958 5.77s-.23 13.144 5.77 15.958c.016.007.031.015.047.022l10.87 5.07c1.012.476 2.086.806 3.19.98l3.36.54c.648.1 1.268.335 1.82.69.672-.95 1.574-1.714 2.621-2.22zm-18.25-9.99-1.08-.5c-2.999-1.412-4.285-4.988-2.873-7.987 1.404-2.982 4.95-4.274 7.943-2.893l1.08.5c1.614.756 2.811 2.188 3.27 3.91.137.516.208 1.047.21 1.58-.031 3.319-2.746 5.984-6.065 5.953-.859-.008-1.706-.2-2.485-.563z"/></g><path d="m24.03 94.49 1.55-.73c3.571-1.66 6.098-4.968 6.76-8.85l1.6-9.39c3.945-2.568 8.065-4.857 12.33-6.85l57.03-26.59c1.002-.467 1.436-1.658.969-2.66-.193-.413-.52-.748-.929-.95-3.76-1.86-11.79-3.52-16.34-1.4-17.94 8.37-45.09 22.55-50.38 25.05-.832.4-1.53 1.032-2.01 1.82-.719 1.189-1.927 1.998-3.3 2.21l-3.36.54c-1.104.174-2.178.504-3.19.98l-10.87 5.07c-6.012 2.787-8.627 9.92-5.84 15.932s9.92 8.627 15.932 5.84c.017-.007.032-.015.048-.022zm16.97-30.49c0-1.657 1.343-3 3-3s3 1.343 3 3-1.343 3-3 3c-1.655-.005-2.995-1.345-3-3zm-27.48 22.15c-1.399-3.005-.102-6.575 2.9-7.98l1.08-.5c3.008-1.403 6.583-.103 7.987 2.905.363.779.555 1.626.563 2.485-.002.533-.073 1.064-.21 1.58-.459 1.722-1.656 3.154-3.27 3.91l-1.08.5c-3.002 1.396-6.567.099-7.97-2.9zm31.48-22.15c0-.552-.448-1-1-1s-1 .448-1 1 .448 1 1 1c.552-.002.998-.448 1-1z"/></g></g></svg>