<svg id="Layer_1" enable-background="new 0 0 512 512" height="512" viewBox="0 0 512 512" width="512" xmlns="http://www.w3.org/2000/svg"><g><path d="m446.374 421.203c34.151-42.109 54.625-95.761 54.625-154.203 0-135.308-109.689-244.998-244.999-244.998-135.309 0-244.999 109.69-244.999 244.999 0 58.441 20.475 112.093 54.625 154.203h380.748z" fill="#4fabf7"/><path d="m55.118 407.264c3.094 4.423 6.331 8.737 9.703 12.939l34.852 1.005h165.695l217.885-104.938c-.039.001-.075.007-.114.007l-233.947-1.973z" fill="#ffb332"/><path d="m483.252 316.27c-.039.001-.076.007-.115.007l-233.947-1.972-12.185 5.836s78.822.222 71.497 80.292z" fill="#ff9100"/><path d="m265.367 215.357 217.885-104.938c-.039.001-.075.007-.114.007l-233.947-1.973-219 104.898 69.481 2.005h165.695z" fill="#ffb332"/><path d="m483.252 110.419c-.039.001-.076.007-.114.007l-233.947-1.972-12.185 5.836s78.822.222 71.497 80.292z" fill="#ff9100"/><path d="m96.921 7.5v.096c10.768 1.002 19.444 9.977 19.299 20.976-.055 4.143-1.329 7.985-3.474 11.2-1.591 2.386-1.462 5.471.107 7.872 2.127 3.255 3.369 7.138 3.369 11.318s-1.241 8.063-3.369 11.318c-1.569 2.401-1.699 5.486-.107 7.872 2.144 3.215 3.419 7.057 3.474 11.2.145 10.999-8.531 19.974-19.299 20.976v.096h386.216c5.452 0 9.186-5.499 7.175-10.566l-31.656-79.777c-3.013-7.594-10.357-12.581-18.528-12.581z" fill="#ffc839"/><path d="m167.693 47.81v-40.31h-70.772v.096c10.768 1.003 19.445 9.978 19.299 20.977-.055 4.143-1.329 7.985-3.474 11.2-1.591 2.386-1.462 5.472.107 7.872 2.127 3.254 3.368 7.138 3.368 11.318s-1.241 8.064-3.368 11.318c-1.569 2.401-1.699 5.486-.107 7.872 2.144 3.215 3.419 7.058 3.474 11.2.146 10.999-8.531 19.974-19.299 20.977v.096h70.771c-31.271-31.272.001-62.616.001-62.616z" fill="#ffb332"/><path d="m458.657 20.083c-3.014-7.596-10.358-12.583-18.529-12.583h-343.207v.096c10.768 1.002 19.445 9.978 19.299 20.976-.055 4.143-1.329 7.985-3.474 11.2-.008.012-.013.025-.021.037h353.759z" fill="#ffdd40"/><path d="m96.921 7.5v.096c10.768 1.003 19.445 9.978 19.299 20.977-.055 4.143-1.329 7.985-3.474 11.2-.008.012-.013.025-.021.037h54.967v-32.31z" fill="#ffc839"/><g><path d="m167.693 47.81c-4.143 0-7.5-3.358-7.5-7.5v-32.81c0-4.142 3.357-7.5 7.5-7.5s7.5 3.358 7.5 7.5v32.81c0 4.142-3.357 7.5-7.5 7.5z" fill="#4f71b6"/></g><g><path d="m250.232 47.81c-4.143 0-7.5-3.358-7.5-7.5v-32.81c0-4.142 3.357-7.5 7.5-7.5s7.5 3.358 7.5 7.5v32.81c0 4.142-3.357 7.5-7.5 7.5z" fill="#4f71b6"/></g><g><path d="m332.771 47.81c-4.143 0-7.5-3.358-7.5-7.5v-32.81c0-4.142 3.357-7.5 7.5-7.5 4.142 0 7.5 3.358 7.5 7.5v32.81c0 4.142-3.357 7.5-7.5 7.5z" fill="#4f71b6"/></g><g><path d="m415.309 47.81c-4.143 0-7.5-3.358-7.5-7.5v-32.81c0-4.142 3.357-7.5 7.5-7.5 4.142 0 7.5 3.358 7.5 7.5v32.81c0 4.142-3.357 7.5-7.5 7.5z" fill="#4f71b6"/></g><g><path d="m208.963 32.711c-4.143 0-7.5-3.358-7.5-7.5v-17.711c0-4.142 3.357-7.5 7.5-7.5s7.5 3.358 7.5 7.5v17.712c0 4.142-3.358 7.499-7.5 7.499z" fill="#4f71b6"/></g><g><path d="m291.502 32.711c-4.142 0-7.5-3.358-7.5-7.5v-17.711c0-4.142 3.358-7.5 7.5-7.5 4.143 0 7.5 3.358 7.5 7.5v17.712c0 4.142-3.358 7.499-7.5 7.499z" fill="#4f71b6"/></g><g><path d="m374.041 32.711c-4.143 0-7.5-3.358-7.5-7.5v-17.711c0-4.142 3.357-7.5 7.5-7.5s7.5 3.358 7.5 7.5v17.712c0 4.142-3.358 7.499-7.5 7.499z" fill="#4f71b6"/></g><path d="m114.794 70.38c2.167-3.275 3.433-7.194 3.433-11.417s-1.266-8.142-3.433-11.417c-1.569-2.371-1.613-5.415-.037-7.782 2.141-3.213 3.413-7.053 3.468-11.192.155-11.673-9.628-21.072-21.303-21.072h-32.611c-3.3 0-5.975 2.675-5.975 5.975v90.977c0 3.3 2.675 5.975 5.975 5.975h32.611c11.675 0 21.458-9.398 21.304-21.073-.055-4.139-1.327-7.979-3.468-11.192-1.577-2.367-1.533-5.411.036-7.782z" fill="#4f71b6"/><path d="m28.862 213.352h411.265c8.171 0 15.516 4.987 18.529 12.582l31.656 79.777c2.011 5.068-1.723 10.566-7.175 10.566h-411.264c-8.171 0-15.515-4.987-18.529-12.582l-31.656-79.777c-2.012-5.068 1.722-10.566 7.174-10.566z" fill="#ffc839"/><path d="m167.693 253.662v-40.31h-138.831c-5.452 0-9.186 5.498-7.175 10.566l31.656 79.777c3.014 7.595 10.358 12.582 18.529 12.582h95.82c-29.818-34.373.001-62.615.001-62.615z" fill="#ffb332"/><path d="m458.657 225.934c-3.014-7.595-10.358-12.582-18.529-12.582h-411.266c-5.452 0-9.186 5.499-7.175 10.566l8.628 21.744h436.17z" fill="#ffdd40"/><path d="m28.862 213.352c-5.452 0-9.186 5.498-7.175 10.566l8.628 21.744h137.378v-32.31z" fill="#ffc839"/><g><path d="m167.693 253.662c-4.143 0-7.5-3.358-7.5-7.5v-32.81c0-4.142 3.357-7.5 7.5-7.5s7.5 3.358 7.5 7.5v32.81c0 4.142-3.357 7.5-7.5 7.5z" fill="#4f71b6"/></g><g><path d="m250.232 253.662c-4.143 0-7.5-3.358-7.5-7.5v-32.81c0-4.142 3.357-7.5 7.5-7.5s7.5 3.358 7.5 7.5v32.81c0 4.142-3.357 7.5-7.5 7.5z" fill="#4f71b6"/></g><g><path d="m332.771 253.662c-4.143 0-7.5-3.358-7.5-7.5v-32.81c0-4.142 3.357-7.5 7.5-7.5 4.142 0 7.5 3.358 7.5 7.5v32.81c0 4.142-3.357 7.5-7.5 7.5z" fill="#4f71b6"/></g><g><path d="m415.309 253.662c-4.143 0-7.5-3.358-7.5-7.5v-32.81c0-4.142 3.357-7.5 7.5-7.5 4.142 0 7.5 3.358 7.5 7.5v32.81c0 4.142-3.357 7.5-7.5 7.5z" fill="#4f71b6"/></g><g><path d="m208.963 238.564c-4.143 0-7.5-3.358-7.5-7.5v-17.711c0-4.142 3.357-7.5 7.5-7.5s7.5 3.358 7.5 7.5v17.711c0 4.142-3.358 7.5-7.5 7.5z" fill="#4f71b6"/></g><g><path d="m85.155 253.662c-4.143 0-7.5-3.358-7.5-7.5v-32.81c0-4.142 3.357-7.5 7.5-7.5s7.5 3.358 7.5 7.5v32.81c0 4.142-3.357 7.5-7.5 7.5z" fill="#4f71b6"/></g><g><path d="m126.424 238.564c-4.143 0-7.5-3.358-7.5-7.5v-17.711c0-4.142 3.357-7.5 7.5-7.5s7.5 3.358 7.5 7.5v17.711c0 4.142-3.358 7.5-7.5 7.5z" fill="#4f71b6"/></g><g><path d="m291.502 238.564c-4.142 0-7.5-3.358-7.5-7.5v-17.711c0-4.142 3.358-7.5 7.5-7.5 4.143 0 7.5 3.358 7.5 7.5v17.711c0 4.142-3.358 7.5-7.5 7.5z" fill="#4f71b6"/></g><g><path d="m374.041 238.564c-4.143 0-7.5-3.358-7.5-7.5v-17.711c0-4.142 3.357-7.5 7.5-7.5s7.5 3.358 7.5 7.5v17.711c0 4.142-3.358 7.5-7.5 7.5z" fill="#4f71b6"/></g><path d="m64.016 419.204c44.88 56.534 114.194 92.796 191.984 92.796 77.222 0 146.087-35.738 190.993-91.565-2.161-.794-4.475-1.231-6.865-1.231z" fill="#ffc839"/><path d="m167.693 419.204h-103.677c26.847 33.818 62.443 60.372 103.36 76.259-14.403-17.238.317-35.95.317-35.95z" fill="#ffb332"/><path d="m64.016 419.204c9.275 11.683 19.592 22.499 30.813 32.309h322.342c10.825-9.463 20.803-19.867 29.822-31.078-2.161-.794-4.475-1.231-6.865-1.231z" fill="#ffdd40"/><path d="m64.016 419.204c9.275 11.683 19.592 22.499 30.813 32.309h72.864v-32.309z" fill="#ffc839"/><g><path d="m167.693 459.513c-4.143 0-7.5-3.358-7.5-7.5v-32.81c0-4.142 3.357-7.5 7.5-7.5s7.5 3.358 7.5 7.5v32.81c0 4.142-3.357 7.5-7.5 7.5z" fill="#4f71b6"/></g><g><path d="m250.232 459.513c-4.143 0-7.5-3.358-7.5-7.5v-32.81c0-4.142 3.357-7.5 7.5-7.5s7.5 3.358 7.5 7.5v32.81c0 4.142-3.357 7.5-7.5 7.5z" fill="#4f71b6"/></g><g><path d="m332.771 459.513c-4.143 0-7.5-3.358-7.5-7.5v-32.81c0-4.142 3.357-7.5 7.5-7.5 4.142 0 7.5 3.358 7.5 7.5v32.81c0 4.142-3.357 7.5-7.5 7.5z" fill="#4f71b6"/></g><path d="m415.309 411.704c-4.143 0-7.5 3.358-7.5 7.5v32.809c0 2.132.894 4.053 2.323 5.418 4.352-3.527 8.579-7.2 12.677-11.011v-27.216c0-4.143-3.357-7.5-7.5-7.5z" fill="#4f71b6"/><g><path d="m208.963 444.415c-4.143 0-7.5-3.358-7.5-7.5v-17.711c0-4.142 3.357-7.5 7.5-7.5s7.5 3.358 7.5 7.5v17.711c0 4.142-3.358 7.5-7.5 7.5z" fill="#4f71b6"/></g><path d="m85.155 411.704c-4.143 0-7.5 3.358-7.5 7.5v15.76c4.79 5.083 9.795 9.96 15 14.62v-30.38c0-4.143-3.357-7.5-7.5-7.5z" fill="#4f71b6"/><g><path d="m126.424 444.415c-4.143 0-7.5-3.358-7.5-7.5v-17.711c0-4.142 3.357-7.5 7.5-7.5s7.5 3.358 7.5 7.5v17.711c0 4.142-3.358 7.5-7.5 7.5z" fill="#4f71b6"/></g><g><path d="m291.502 444.415c-4.142 0-7.5-3.358-7.5-7.5v-17.711c0-4.142 3.358-7.5 7.5-7.5 4.143 0 7.5 3.358 7.5 7.5v17.711c0 4.142-3.358 7.5-7.5 7.5z" fill="#4f71b6"/></g><g><path d="m374.041 444.415c-4.143 0-7.5-3.358-7.5-7.5v-17.711c0-4.142 3.357-7.5 7.5-7.5s7.5 3.358 7.5 7.5v17.711c0 4.142-3.358 7.5-7.5 7.5z" fill="#4f71b6"/></g><path d="m64.311 110.426h32.611c11.675 0 21.458-9.398 21.304-21.073-.055-4.139-1.327-7.979-3.468-11.192-1.577-2.366-1.533-5.411.037-7.782 2.167-3.274 3.433-7.194 3.433-11.417-18.118 13.145-27.736 0-27.736 0h-15c-10.167 10.167-17.155 0-17.155 0v45.488c-.001 3.301 2.674 5.976 5.974 5.976z" fill="#3c58a0"/><g><path d="m82.991 85.116c-4.143 0-7.5-3.358-7.5-7.5v-37.306c0-4.142 3.357-7.5 7.5-7.5s7.5 3.358 7.5 7.5v37.306c0 4.142-3.357 7.5-7.5 7.5z" fill="#6289cc"/></g></g></svg>