<svg id="shelves" enable-background="new 0 0 300 300" height="512" viewBox="0 0 300 300" width="512" xmlns="http://www.w3.org/2000/svg"><g><circle cx="180" cy="118.674" fill="#e5efef" r="86"/><g fill="#4c241d"><circle cx="218.084" cy="47.686" r="4.276"/><path d="m154.652 54.021c-1.023 0-2.047-.391-2.828-1.172-1.562-1.562-1.562-4.094 0-5.656l14.695-14.695c1.562-1.562 4.094-1.562 5.656 0s1.562 4.094 0 5.656l-14.695 14.696c-.781.781-1.804 1.171-2.828 1.171z"/><path d="m169.348 54.021c-1.023 0-2.047-.391-2.828-1.172l-14.695-14.695c-1.562-1.562-1.562-4.094 0-5.656s4.094-1.562 5.656 0l14.695 14.695c1.562 1.562 1.562 4.094 0 5.656-.781.782-1.805 1.172-2.828 1.172z"/></g><g><path d="m230 264.674h-184c-4.418 0-8-3.582-8-8v-172c0-4.418 3.582-8 8-8h184c4.418 0 8 3.582 8 8v172c0 4.418-3.582 8-8 8z" fill="#bf7e68"/><path d="m230 268.674h-184c-6.617 0-12-5.383-12-12v-172c0-6.617 5.383-12 12-12h184c6.617 0 12 5.383 12 12v172c0 6.617-5.383 12-12 12zm-184-188c-2.207 0-4 1.793-4 4v172c0 2.207 1.793 4 4 4h184c2.207 0 4-1.793 4-4v-172c0-2.207-1.793-4-4-4z" fill="#4c241d"/></g><g><path d="m54 92.674h168v156h-168z" fill="#6b4f5b"/><path d="m222 252.674h-168c-2.211 0-4-1.789-4-4v-156c0-2.211 1.789-4 4-4h168c2.211 0 4 1.789 4 4v156c0 2.211-1.789 4-4 4zm-164-8h160v-148h-160z" fill="#4c241d"/></g><g><path d="m54 164.674h168v16h-168z" fill="#bf7e68"/><path d="m222 184.674h-168c-2.211 0-4-1.789-4-4v-16c0-2.211 1.789-4 4-4h168c2.211 0 4 1.789 4 4v16c0 2.211-1.789 4-4 4zm-164-8h160v-8h-160z" fill="#4c241d"/></g><g><path d="m74 112.674h16v52h-16z" fill="#f4aeab"/><path d="m90 168.674h-16c-2.211 0-4-1.789-4-4v-52c0-2.211 1.789-4 4-4h16c2.211 0 4 1.789 4 4v52c0 2.211-1.789 4-4 4zm-12-8h8v-44h-8z" fill="#4c241d"/></g><g><path d="m190 100.674h16v60h-16z" fill="#f4aeab" transform="matrix(.896 .444 -.444 .896 78.667 -74.361)"/><path d="m191.836 165.104c-.598 0-1.203-.133-1.773-.418l-14.336-7.105c-.949-.469-1.676-1.301-2.012-2.305-.34-1.004-.266-2.105.207-3.055l26.656-53.754c.98-1.977 3.387-2.793 5.359-1.805l14.336 7.105c.949.469 1.676 1.301 2.012 2.305.34 1.004.266 2.105-.207 3.055l-26.656 53.754c-.695 1.406-2.113 2.223-3.586 2.223zm-8.973-12.915 7.168 3.555 23.105-46.586-7.168-3.555z" fill="#4c241d"/></g><g><path d="m102 196.674h16v52h-16z" fill="#f4aeab"/><path d="m118 252.674h-16c-2.211 0-4-1.789-4-4v-52c0-2.211 1.789-4 4-4h16c2.211 0 4 1.789 4 4v52c0 2.211-1.789 4-4 4zm-12-8h8v-44h-8z" fill="#4c241d"/></g><g><path d="m113.352 112.501h17.754v48.019h-17.754z" fill="#ffce56" transform="matrix(.952 -.305 .305 .952 -35.784 43.736)"/><path d="m121.09 166.084c-1.695 0-3.266-1.082-3.809-2.781l-14.633-45.734c-.324-1.012-.234-2.109.254-3.051.484-.941 1.324-1.656 2.336-1.977l16.91-5.41c2.121-.68 4.355.488 5.027 2.59l14.633 45.734c.324 1.012.234 2.109-.254 3.051-.484.941-1.324 1.656-2.336 1.977l-16.91 5.41c-.406.128-.816.191-1.218.191zm-9.606-47.145 12.195 38.117 9.293-2.973-12.195-38.117z" fill="#4c241d"/></g><g><path d="m61.352 196.501h17.754v48.019h-17.754z" fill="#e66353" transform="matrix(.952 -.305 .305 .952 -63.852 31.886)"/><path d="m69.09 250.084c-1.695 0-3.266-1.082-3.809-2.781l-14.633-45.734c-.324-1.012-.234-2.109.254-3.051.484-.941 1.324-1.656 2.336-1.977l16.91-5.41c2.117-.672 4.355.488 5.027 2.59l14.633 45.734c.324 1.012.234 2.109-.254 3.051-.484.941-1.324 1.656-2.336 1.977l-16.91 5.41c-.406.128-.816.191-1.218.191zm-9.606-47.145 12.195 38.117 9.293-2.973-12.195-38.117z" fill="#4c241d"/></g><g><path d="m90 104.674h16v60h-16z" fill="#a9ba5a"/><path d="m106 168.674h-16c-2.211 0-4-1.789-4-4v-60c0-2.211 1.789-4 4-4h16c2.211 0 4 1.789 4 4v60c0 2.211-1.789 4-4 4zm-12-8h8v-52h-8z" fill="#4c241d"/></g><g><path d="m154 200.674h16v48h-16z" fill="#9dc1e4"/><path d="m170 252.674h-16c-2.211 0-4-1.789-4-4v-48c0-2.211 1.789-4 4-4h16c2.211 0 4 1.789 4 4v48c0 2.211-1.789 4-4 4zm-12-8h8v-40h-8z" fill="#4c241d"/></g><g><path d="m118 200.674h16v48h-16z" fill="#9dc1e4"/><path d="m134 252.674h-16c-2.211 0-4-1.789-4-4v-48c0-2.211 1.789-4 4-4h16c2.211 0 4 1.789 4 4v48c0 2.211-1.789 4-4 4zm-12-8h8v-40h-8z" fill="#4c241d"/></g><g><path d="m86 180.674h16v68h-16z" fill="#bd53b5"/><path d="m102 252.674h-16c-2.211 0-4-1.789-4-4v-68c0-2.211 1.789-4 4-4h16c2.211 0 4 1.789 4 4v68c0 2.211-1.789 4-4 4zm-12-8h8v-60h-8z" fill="#4c241d"/></g><g><path d="m170 196.674h24v52h-24z" fill="#9dc1e4"/><path d="m194 252.674h-24c-2.211 0-4-1.789-4-4v-52c0-2.211 1.789-4 4-4h24c2.211 0 4 1.789 4 4v52c0 2.211-1.789 4-4 4zm-20-8h16v-44h-16z" fill="#4c241d"/></g></g></svg>