<svg height="512pt" viewBox="-77 0 512 512" width="512pt" xmlns="http://www.w3.org/2000/svg"><path d="m178.613281 313.75c-50.664062 0-92.117187-41.453125-92.117187-92.117188v-129.515624c0-50.664063 41.453125-92.117188 92.117187-92.117188 50.664063 0 92.117188 41.453125 92.117188 92.117188v129.515624c0 50.664063-41.453125 92.117188-92.117188 92.117188zm0 0" fill="#898890"/><path d="m177.296875 66.722656c18.207031-17.863281 28.960937-42.597656 34.804687-60.386718-10.390624-4.089844-21.6875-6.335938-33.488281-6.335938-50.664062 0-92.117187 41.453125-92.117187 92.117188v129.515624c0 50.664063 41.453125 92.117188 92.117187 92.117188 7.949219 0 15.671875-1.023438 23.046875-2.9375-49.089844-26.433594-54.789062-118.367188-53.253906-176.773438.667969-25.292968 10.824219-49.597656 28.890625-67.316406zm0 0" fill="#74747c"/><path d="m86.496094 156.875v64.757812c0 50.664063 41.453125 92.117188 92.117187 92.117188 50.664063 0 92.117188-41.453125 92.117188-92.117188v-64.757812zm0 0" fill="#d8d7da"/><path d="m178.234375 512c-14.640625 0-26.617187-11.976562-26.617187-26.617188v-110.941406h53.234374v110.941406c0 14.640626-11.976562 26.617188-26.617187 26.617188zm0 0" fill="#d8d7da"/><path d="m151.617188 452.636719c21.492187-2.847657 39.402343-9.59375 53.234374-16.75v-61.445313h-53.234374zm0 0" fill="#c6c5ca"/><path d="m178.613281 400.246094c-98.488281 0-178.613281-80.125-178.613281-178.613282v-64.757812c0-11.941406 9.679688-21.625 21.625-21.625 11.941406 0 21.621094 9.683594 21.621094 21.625v64.757812c0 74.640626 60.726562 135.363282 135.367187 135.363282s135.367188-60.722656 135.367188-135.363282v-64.757812c0-11.941406 9.679687-21.625 21.621093-21.625 11.945313 0 21.625 9.683594 21.625 21.625v64.757812c0 98.488282-80.125 178.613282-178.613281 178.613282zm0 0" fill="#eaeaea"/><path d="m86.496094 221.632812c0 50.664063 41.453125 92.117188 92.117187 92.117188 7.949219 0 15.671875-1.023438 23.046875-2.9375-43.066406-23.191406-52.738281-96.789062-53.425781-153.9375h-61.738281zm0 0" fill="#c6c5ca"/></svg>