<svg id="laptop" enable-background="new 0 0 300 300" height="512" viewBox="0 0 300 300" width="512" xmlns="http://www.w3.org/2000/svg"><g><circle cx="131.174" cy="131.074" fill="#e5efef" r="86"/><path d="m193.174 40.586c-2.209 0-4-1.789-4-4v-5.66c0-2.209 1.791-4 4-4s4 1.791 4 4v5.66c0 2.211-1.791 4-4 4z" fill="#4c241d"/><path d="m193.174 63.223c-2.209 0-4-1.789-4-4v-5.66c0-2.211 1.791-4 4-4s4 1.789 4 4v5.66c0 2.211-1.791 4-4 4z" fill="#4c241d"/><path d="m184.686 49.074h-5.66c-2.209 0-4-1.789-4-4s1.791-4 4-4h5.66c2.209 0 4 1.789 4 4s-1.791 4-4 4z" fill="#4c241d"/><path d="m207.323 49.074h-5.66c-2.209 0-4-1.789-4-4s1.791-4 4-4h5.66c2.209 0 4 1.789 4 4s-1.791 4-4 4z" fill="#4c241d"/><g><path d="m245.174 245.074h-120" fill="#9dc1e4"/><path d="m245.174 249.074h-120c-2.209 0-4-1.789-4-4s1.791-4 4-4h120c2.209 0 4 1.789 4 4s-1.791 4-4 4z" fill="#4c241d"/></g><g><path d="m245.623 117.074h-188.898c-6.38 0-11.551 4.745-11.551 10.599v117.401h212v-117.401c0-5.854-5.171-10.599-11.551-10.599z" fill="#9dc1e4"/><path d="m257.174 249.074h-212c-2.209 0-4-1.789-4-4v-117.402c0-8.051 6.977-14.598 15.551-14.598h188.898c8.574 0 15.551 6.547 15.551 14.598v117.402c0 2.211-1.791 4-4 4zm-208-8h204v-113.402c0-3.637-3.387-6.598-7.551-6.598h-188.898c-4.164 0-7.551 2.961-7.551 6.598z" fill="#4c241d"/></g><g><path d="m29.174 245.074v13.732c0 5.671 4.597 10.268 10.268 10.268h223.465c5.671 0 10.268-4.597 10.268-10.268v-13.732z" fill="#b5a19c"/><path d="m262.907 273.074h-223.465c-7.867 0-14.268-6.402-14.268-14.27v-13.73c0-2.211 1.791-4 4-4h244c2.209 0 4 1.789 4 4v13.73c0 7.868-6.4 14.27-14.267 14.27zm-229.733-24v9.73c0 3.457 2.812 6.27 6.268 6.27h223.465c3.455 0 6.268-2.812 6.268-6.27v-9.73z" fill="#4c241d"/></g><circle cx="27.355" cy="75.049" fill="#4c241d" r="4.529"/><g><path d="m189.174 245.074h-80c0 6.627 5.373 12 12 12h56c6.628 0 12-5.372 12-12z" fill="#6b4f5b"/><path d="m177.174 261.074h-56c-8.822 0-16-7.176-16-16 0-2.211 1.791-4 4-4h80c2.209 0 4 1.789 4 4 0 8.824-7.177 16-16 16zm-62.925-12c1.385 2.391 3.971 4 6.926 4h56c2.955 0 5.541-1.609 6.926-4z" fill="#4c241d"/></g><path d="m66.831 66.73c-1.023 0-2.047-.391-2.828-1.172l-11.313-11.312c-1.562-1.562-1.562-4.094 0-5.656s4.094-1.562 5.656 0l11.312 11.312c1.562 1.562 1.562 4.094 0 5.656-.781.782-1.804 1.172-2.827 1.172z" fill="#4c241d"/><path d="m55.518 66.73c-1.023 0-2.047-.391-2.828-1.172-1.562-1.562-1.562-4.094 0-5.656l11.312-11.312c1.562-1.562 4.094-1.562 5.656 0s1.562 4.094 0 5.656l-11.312 11.313c-.781.781-1.804 1.171-2.828 1.171z" fill="#4c241d"/><g><path d="m93.174 93.074h112v152h-112z" fill="#fff"/><path d="m205.174 249.074h-112c-2.209 0-4-1.789-4-4v-152c0-2.211 1.791-4 4-4h112c2.209 0 4 1.789 4 4v152c0 2.211-1.791 4-4 4zm-108-8h104v-144h-104z" fill="#4c241d"/></g><g fill="#4c241d"><path d="m141.174 153.074c-2.209 0-4-1.789-4-4v-32c0-2.211 1.791-4 4-4s4 1.789 4 4v32c0 2.211-1.791 4-4 4z"/><path d="m149.174 137.074h-8c-2.209 0-4-1.789-4-4v-16c0-2.211 1.791-4 4-4h8c6.617 0 12 5.383 12 12s-5.382 12-12 12zm-4-8h4c2.205 0 4-1.793 4-4s-1.795-4-4-4h-4z"/><path d="m185.174 153.074h-6.645c-7.363 0-13.355-5.992-13.355-13.355v-13.289c0-7.363 5.992-13.355 13.355-13.355h6.645c2.209 0 4 1.789 4 4s-1.791 4-4 4h-6.645c-2.953 0-5.355 2.402-5.355 5.355v13.289c0 2.953 2.402 5.355 5.355 5.355h6.645c2.209 0 4 1.789 4 4s-1.791 4-4 4z"/><path d="m149.174 153.074h-8c-2.209 0-4-1.789-4-4v-16c0-2.211 1.791-4 4-4h8c6.617 0 12 5.383 12 12s-5.382 12-12 12zm-4-8h4c2.205 0 4-1.793 4-4s-1.795-4-4-4h-4z"/><path d="m129.17 153.074c-1.879 0-3.555-1.328-3.924-3.242l-5.449-28.242c-.113-.602-1.133-.598-1.246-.004l-5.449 28.246c-.418 2.172-2.504 3.605-4.686 3.168-2.17-.418-3.588-2.516-3.17-4.684l5.449-28.242c.779-4.055 4.346-7 8.479-7s7.699 2.945 8.479 7.004l5.449 28.238c.418 2.168-1 4.266-3.17 4.684-.256.051-.512.074-.762.074z"/><path d="m125.174 137.074h-12c-2.209 0-4-1.789-4-4s1.791-4 4-4h12c2.209 0 4 1.789 4 4s-1.791 4-4 4z"/></g><g><path d="m175.174 193.074h-56c-3.314 0-6-2.686-6-6 0-3.314 2.686-6 6-6h56c3.314 0 6 2.686 6 6 0 3.314-2.686 6-6 6z" fill="#a9ba5a"/><path d="m175.174 197.074h-56c-5.514 0-10-4.484-10-10s4.486-10 10-10h56c5.514 0 10 4.484 10 10s-4.486 10-10 10zm-56-12c-1.104 0-2 .898-2 2s.896 2 2 2h56c1.104 0 2-.898 2-2s-.896-2-2-2z" fill="#4c241d"/></g><path d="m137.174 213.074h-20c-2.209 0-4-1.789-4-4s1.791-4 4-4h20c2.209 0 4 1.789 4 4s-1.791 4-4 4z" fill="#4c241d"/><path d="m181.174 229.074h-64c-2.209 0-4-1.789-4-4s1.791-4 4-4h64c2.209 0 4 1.789 4 4s-1.791 4-4 4z" fill="#4c241d"/></g></svg>