<svg xmlns="http://www.w3.org/2000/svg" xmlns:xlink="http://www.w3.org/1999/xlink" width="722" zoomAndPan="magnify" viewBox="0 0 541.5 161.999997" height="216" preserveAspectRatio="xMidYMid meet" version="1.0"><defs><g/><clipPath id="7204b1b8ee"><path d="M 17 46.980469 L 62 46.980469 L 62 124.980469 L 17 124.980469 Z M 17 46.980469 " clip-rule="nonzero"/></clipPath></defs><path fill="#f2d422" d="M 59.113281 62.929688 L 51.121094 62.929688 L 59.585938 50.710938 C 60.34375 49.621094 59.5625 48.125 58.230469 48.125 L 29.792969 48.125 C 29.121094 48.125 28.515625 48.53125 28.261719 49.15625 L 18.585938 73.199219 C 18.382812 73.707031 18.445312 74.28125 18.75 74.738281 C 19.058594 75.191406 19.570312 75.460938 20.117188 75.460938 L 29.226562 75.460938 L 19.949219 94.796875 C 19.425781 95.890625 20.222656 97.160156 21.4375 97.160156 L 30.796875 97.160156 L 23.375 121.710938 C 23.148438 122.464844 23.484375 123.273438 24.175781 123.644531 C 24.871094 124.015625 25.726562 123.84375 26.226562 123.238281 L 57.453125 85.417969 C 58.335938 84.347656 57.574219 82.71875 56.179688 82.71875 L 46.964844 82.71875 L 60.410156 65.597656 C 61.253906 64.519531 60.488281 62.929688 59.113281 62.929688 Z M 59.113281 62.929688 " fill-opacity="1" fill-rule="nonzero"/><path fill="#f7ac16" d="M 34.769531 48.125 L 29.792969 48.125 C 29.121094 48.125 28.515625 48.53125 28.261719 49.15625 L 18.589844 73.199219 C 18.382812 73.707031 18.445312 74.28125 18.75 74.738281 C 19.058594 75.191406 19.570312 75.460938 20.117188 75.460938 L 29.226562 75.460938 L 19.949219 94.796875 C 19.425781 95.890625 20.222656 97.160156 21.4375 97.160156 L 30.796875 97.160156 L 23.375 121.710938 C 23.15625 122.449219 23.472656 123.238281 24.136719 123.617188 C 24.289062 123.457031 23.320312 125.230469 41.214844 91.75 C 41.390625 91.417969 41.378906 91.019531 41.1875 90.699219 C 40.996094 90.378906 40.648438 90.179688 40.273438 90.179688 L 31.789062 90.179688 L 42.984375 70.367188 C 43.171875 70.039062 43.167969 69.632812 42.980469 69.304688 C 42.789062 68.980469 42.4375 68.777344 42.058594 68.777344 L 33.257812 68.777344 L 42.355469 49.648438 C 42.511719 49.316406 42.488281 48.929688 42.292969 48.621094 C 42.097656 48.3125 41.757812 48.125 41.390625 48.125 Z M 34.769531 48.125 " fill-opacity="1" fill-rule="nonzero"/><g clip-path="url(#7204b1b8ee)"><path fill="#000000" d="M 59.113281 61.785156 L 53.300781 61.785156 L 60.527344 51.363281 C 61.808594 49.511719 60.484375 46.980469 58.234375 46.980469 L 29.792969 46.980469 C 28.648438 46.980469 27.632812 47.667969 27.203125 48.730469 L 17.527344 72.773438 C 16.792969 74.605469 18.144531 76.605469 20.117188 76.605469 L 27.410156 76.605469 L 18.921875 94.300781 C 18.03125 96.15625 19.382812 98.300781 21.4375 98.300781 L 29.257812 98.300781 L 22.285156 121.382812 C 21.902344 122.648438 22.46875 124.023438 23.636719 124.648438 C 24.796875 125.269531 26.25 125.003906 27.109375 123.964844 L 39.800781 108.589844 C 40.203125 108.105469 40.136719 107.382812 39.648438 106.984375 C 39.164062 106.582031 38.441406 106.648438 38.039062 107.136719 L 25.347656 122.511719 C 25 122.933594 24.3125 122.570312 24.472656 122.042969 L 31.890625 97.488281 C 32.113281 96.757812 31.5625 96.015625 30.796875 96.015625 C 20.632812 96.015625 21.214844 96.105469 21.007812 95.777344 C 20.914062 95.628906 20.90625 95.449219 20.980469 95.289062 L 30.257812 75.957031 C 30.621094 75.199219 30.066406 74.320312 29.226562 74.320312 L 20.117188 74.320312 C 19.757812 74.320312 19.515625 73.957031 19.648438 73.625 C 29.980469 47.949219 29.296875 49.265625 29.792969 49.265625 L 58.234375 49.265625 C 58.644531 49.265625 58.882812 49.726562 58.648438 50.0625 L 50.183594 62.277344 C 49.660156 63.03125 50.199219 64.070312 51.121094 64.070312 L 59.113281 64.070312 C 59.308594 64.070312 59.484375 64.179688 59.570312 64.355469 C 59.765625 64.765625 60.554688 63.5625 46.066406 82.015625 C 45.480469 82.761719 46.015625 83.863281 46.964844 83.863281 L 56.179688 83.863281 C 56.375 83.863281 56.554688 83.976562 56.640625 84.152344 C 56.835938 84.566406 57.855469 83.136719 40.519531 104.136719 C 40.117188 104.621094 40.1875 105.34375 40.671875 105.742188 C 41.160156 106.144531 41.878906 106.078125 42.28125 105.589844 L 58.332031 86.144531 C 59.019531 85.316406 59.164062 84.152344 58.707031 83.179688 C 58.246094 82.207031 57.257812 81.578125 56.179688 81.578125 L 49.316406 81.578125 L 61.308594 66.304688 C 62.738281 64.480469 61.4375 61.785156 59.113281 61.785156 Z M 59.113281 61.785156 " fill-opacity="1" fill-rule="nonzero"/></g><g fill="#222220" fill-opacity="1"><g transform="translate(72.39788, 101.443176)"><g><path d="M 16.753906 1.101562 L 17.683594 1.015625 L 18.277344 0.929688 L 19.207031 0.929688 L 19.800781 0.847656 L 20.5625 0.929688 L 21.152344 0.847656 L 22.253906 0.507812 L 22.929688 0.421875 L 24.199219 0 L 24.707031 -0.339844 L 25.722656 -0.59375 L 26.484375 -1.183594 L 27.332031 -1.691406 L 28.007812 -2.285156 L 28.429688 -2.625 L 29.109375 -3.382812 L 29.53125 -3.722656 L 29.953125 -4.570312 L 30.460938 -4.90625 L 31.222656 -6.347656 L 31.644531 -7.53125 L 31.816406 -8.292969 L 31.984375 -8.96875 L 32.324219 -10.070312 L 32.324219 -11.339844 L 32.40625 -11.847656 L 32.660156 -13.03125 L 32.660156 -15.398438 L 32.746094 -15.992188 L 32.660156 -16.585938 L 32.746094 -17.09375 L 32.832031 -18.277344 L 32.660156 -18.785156 L 32.238281 -20.222656 L 32.152344 -20.816406 L 32.070312 -21.492188 L 31.984375 -22.085938 L 31.476562 -23.863281 L 30.96875 -24.960938 L 30.292969 -26.652344 L 30.207031 -27.078125 L 29.445312 -28.007812 L 28.855469 -29.445312 L 27.839844 -30.460938 L 27.414062 -31.222656 L 26.652344 -32.070312 L 26.398438 -32.492188 L 25.976562 -32.746094 L 25.722656 -33.253906 L 24.875 -33.929688 L 24.367188 -34.269531 L 24.03125 -34.691406 L 23.691406 -35.367188 L 23.269531 -35.792969 L 22.929688 -36.300781 L 21.832031 -37.652344 L 20.898438 -38.839844 L 20.308594 -39.9375 L 19.96875 -40.613281 L 19.292969 -41.800781 L 18.699219 -43.40625 L 18.617188 -44 L 18.617188 -45.101562 L 18.699219 -46.285156 L 18.953125 -47.128906 L 19.039062 -47.722656 L 19.375 -48.570312 L 19.628906 -49.160156 L 20.054688 -49.753906 L 20.984375 -50.175781 L 22 -50.515625 L 23.101562 -50.347656 L 23.945312 -49.667969 L 24.707031 -48.90625 L 24.960938 -48.398438 L 25.128906 -47.382812 L 25.128906 -45.4375 L 24.875 -42.816406 L 24.707031 -42.136719 L 24.792969 -41.039062 L 25.46875 -40.445312 L 26.652344 -40.445312 L 27.839844 -40.363281 L 32.578125 -40.363281 L 34.101562 -40.445312 L 35.113281 -40.953125 L 35.453125 -42.816406 L 35.792969 -45.183594 L 35.875 -46.621094 L 35.792969 -48.316406 L 35.792969 -50.175781 L 35.285156 -52.207031 L 35.03125 -52.800781 L 34.863281 -53.730469 L 34.523438 -54.238281 L 33.929688 -55.167969 L 33.675781 -55.59375 L 32.832031 -56.523438 L 32.578125 -56.859375 L 31.644531 -57.707031 L 30.96875 -57.960938 L 30.375 -58.46875 L 29.363281 -58.976562 L 29.023438 -59.230469 L 28.429688 -59.316406 L 26.992188 -59.738281 L 25.722656 -59.824219 L 24.960938 -59.992188 L 24.367188 -59.992188 L 22.253906 -60.078125 L 19.628906 -60.078125 L 18.191406 -59.652344 L 16.585938 -59.316406 L 15.652344 -58.808594 L 14.300781 -58.300781 L 12.777344 -57.199219 L 11.761719 -56.355469 L 11.253906 -55.847656 L 10.746094 -55 L 10.492188 -54.660156 L 9.816406 -53.898438 L 9.5625 -53.476562 L 9.308594 -52.882812 L 8.96875 -52.207031 L 8.460938 -51.109375 L 8.375 -50.261719 L 8.121094 -49.414062 L 7.785156 -48.824219 L 7.699219 -47.636719 L 7.445312 -47.046875 L 7.277344 -45.355469 L 7.277344 -42.898438 L 7.191406 -42.308594 L 7.277344 -41.628906 L 7.363281 -40.53125 L 7.699219 -39.429688 L 7.871094 -38.753906 L 8.121094 -38.160156 L 8.546875 -37.570312 L 8.882812 -36.808594 L 9.390625 -35.539062 L 9.898438 -34.691406 L 10.324219 -34.101562 L 11.167969 -33.421875 L 12.015625 -32.492188 L 12.777344 -31.390625 L 13.792969 -30.292969 L 14.722656 -29.191406 L 15.0625 -28.683594 L 15.484375 -28.261719 L 16.414062 -27.160156 L 16.839844 -26.484375 L 17.429688 -25.890625 L 17.683594 -25.46875 L 17.855469 -25.046875 L 18.191406 -24.539062 L 18.785156 -23.355469 L 19.460938 -22.339844 L 20.136719 -21.152344 L 20.390625 -19.882812 L 20.390625 -19.375 L 20.730469 -17.855469 L 20.730469 -16.5 L 20.816406 -15.316406 L 20.816406 -14.722656 L 20.730469 -13.875 L 20.5625 -12.863281 L 20.222656 -11.847656 L 19.882812 -11.253906 L 19.460938 -10.492188 L 19.039062 -10.070312 L 18.109375 -9.816406 L 17.429688 -9.644531 L 16.667969 -9.644531 L 15.570312 -9.898438 L 14.722656 -10.746094 L 14.128906 -12.015625 L 13.875 -12.863281 L 13.707031 -14.722656 L 13.707031 -16.5 L 13.792969 -17.09375 L 13.792969 -20.222656 L 13.117188 -21.40625 L 12.015625 -21.492188 L 7.277344 -21.492188 L 6.261719 -21.578125 L 4.230469 -21.40625 L 3.046875 -20.816406 L 2.792969 -19.460938 L 2.625 -18.871094 L 2.539062 -18.191406 L 2.371094 -16.921875 L 2.453125 -16.332031 L 2.371094 -14.890625 L 2.371094 -12.355469 L 2.539062 -11 L 2.625 -10.492188 L 2.875 -9.308594 L 2.960938 -8.800781 L 3.554688 -7.277344 L 3.722656 -6.601562 L 4.316406 -5.160156 L 5.078125 -3.976562 L 5.921875 -2.960938 L 6.769531 -1.863281 L 7.785156 -1.183594 L 8.628906 -0.59375 L 9.5625 -0.253906 L 10.914062 0.339844 L 11.507812 0.507812 L 12.355469 0.675781 L 13.285156 0.847656 L 14.128906 0.847656 L 14.722656 0.929688 Z M 16.753906 1.101562 "/></g></g></g><g fill="#222220" fill-opacity="1"><g transform="translate(108.864884, 101.443176)"><g><path d="M 18.363281 0.507812 L 20.054688 0.507812 L 21.324219 0.421875 L 23.269531 0.421875 L 24.960938 0.253906 L 25.46875 0.0859375 L 26.230469 -0.0859375 L 27.246094 -0.339844 L 27.753906 -0.507812 L 29.109375 -1.015625 L 29.53125 -1.355469 L 30.546875 -1.777344 L 31.222656 -2.199219 L 31.984375 -2.625 L 32.660156 -3.46875 L 33.421875 -4.0625 L 33.929688 -4.824219 L 34.269531 -5.585938 L 34.691406 -6.175781 L 35.03125 -6.769531 L 35.539062 -7.953125 L 35.875 -8.460938 L 36.46875 -9.5625 L 36.722656 -10.660156 L 37.144531 -11.167969 L 37.398438 -12.609375 L 37.738281 -13.707031 L 38.078125 -14.722656 L 38.246094 -15.316406 L 38.414062 -15.824219 L 38.414062 -16.414062 L 38.585938 -17.175781 L 38.839844 -18.109375 L 39.007812 -18.699219 L 39.007812 -19.207031 L 39.261719 -20.308594 L 39.601562 -21.324219 L 39.601562 -21.492188 L 39.855469 -22.675781 L 39.9375 -23.269531 L 40.277344 -24.453125 L 40.53125 -25.554688 L 40.699219 -26.570312 L 40.785156 -27.667969 L 41.121094 -28.347656 L 41.292969 -29.53125 L 41.292969 -30.121094 L 41.628906 -31.308594 L 41.714844 -32.492188 L 41.882812 -33.675781 L 41.96875 -34.183594 L 42.222656 -35.367188 L 42.222656 -35.875 L 42.476562 -37.144531 L 43.070312 -39.007812 L 42.984375 -39.601562 L 43.152344 -40.191406 L 43.238281 -40.699219 L 43.40625 -41.292969 L 43.40625 -41.882812 L 43.660156 -42.898438 L 43.832031 -43.660156 L 44.085938 -44.421875 L 44.253906 -45.183594 L 44.507812 -46.113281 L 44.507812 -46.621094 L 44.847656 -47.636719 L 44.761719 -48.144531 L 45.101562 -49.246094 L 45.183594 -49.839844 L 45.355469 -50.515625 L 45.4375 -51.109375 L 45.777344 -52.292969 L 45.863281 -52.96875 L 46.03125 -54.152344 L 46.199219 -54.832031 L 46.285156 -56.101562 L 46.792969 -57.285156 L 46.707031 -58.554688 L 46.03125 -59.230469 L 45.355469 -59.316406 L 44.59375 -59.230469 L 44 -59.144531 L 43.152344 -59.230469 L 42.5625 -59.144531 L 41.882812 -59.144531 L 41.292969 -59.230469 L 40.699219 -59.230469 L 38.246094 -59.144531 L 37.652344 -59.230469 L 37.0625 -59.230469 L 34.523438 -59.144531 L 34.269531 -58.554688 L 34.183594 -57.875 L 33.929688 -56.777344 L 33.675781 -55.59375 L 33.421875 -54.492188 L 33.339844 -53.984375 L 33.253906 -52.96875 L 33.167969 -52.460938 L 32.746094 -51.53125 L 32.832031 -50.9375 L 32.660156 -49.839844 L 32.492188 -48.652344 L 32.238281 -47.46875 L 32.152344 -46.792969 L 31.984375 -45.609375 L 31.898438 -44.929688 L 31.5625 -43.746094 L 31.644531 -42.816406 L 31.136719 -41.96875 L 31.136719 -40.785156 L 31.054688 -40.363281 L 30.882812 -39.175781 L 30.882812 -38.5 L 30.546875 -37.316406 L 30.460938 -36.636719 L 30.121094 -35.453125 L 29.953125 -34.4375 L 29.699219 -33.339844 L 29.53125 -32.238281 L 29.53125 -31.5625 L 29.109375 -30.375 L 28.9375 -29.785156 L 28.855469 -28.769531 L 28.515625 -27.246094 L 28.347656 -26.398438 L 28.175781 -25.300781 L 28.09375 -24.707031 L 27.921875 -24.03125 L 27.753906 -23.4375 L 27.667969 -22.675781 L 27.5 -21.914062 L 27.332031 -21.40625 L 27.246094 -20.5625 L 27.078125 -19.96875 L 26.824219 -18.785156 L 26.398438 -17.09375 L 26.230469 -16.585938 L 26.0625 -15.824219 L 25.636719 -14.976562 L 25.046875 -13.621094 L 24.792969 -13.117188 L 24.285156 -12.4375 L 23.4375 -11.761719 L 21.492188 -11.507812 L 19.714844 -11.761719 L 18.785156 -12.015625 L 17.855469 -13.117188 L 17.769531 -14.128906 L 17.769531 -15.0625 L 17.683594 -16.414062 L 17.769531 -17.007812 L 17.855469 -17.515625 L 17.9375 -18.277344 L 18.191406 -20.308594 L 18.445312 -21.40625 L 18.53125 -22.59375 L 18.785156 -24.285156 L 19.207031 -27.332031 L 19.375 -28.347656 L 19.714844 -29.445312 L 19.714844 -30.546875 L 19.96875 -31.5625 L 20.136719 -32.070312 L 20.308594 -32.660156 L 20.390625 -33.339844 L 20.476562 -34.101562 L 20.816406 -34.863281 L 20.644531 -35.960938 L 20.730469 -36.46875 L 21.152344 -37.652344 L 21.152344 -38.246094 L 21.324219 -38.921875 L 21.40625 -39.515625 L 21.492188 -40.363281 L 21.746094 -40.953125 L 21.832031 -41.460938 L 22 -42.730469 L 22.253906 -44 L 22.339844 -44.675781 L 22.761719 -45.863281 L 22.847656 -46.453125 L 22.847656 -47.300781 L 22.929688 -47.976562 L 23.101562 -49.078125 L 23.4375 -50.09375 L 23.4375 -50.683594 L 23.609375 -51.191406 L 23.691406 -51.785156 L 23.863281 -52.460938 L 24.03125 -53.222656 L 24.199219 -53.816406 L 24.117188 -55 L 24.285156 -55.59375 L 24.453125 -56.101562 L 24.453125 -57.285156 L 24.367188 -58.554688 L 23.609375 -59.144531 L 22.253906 -59.230469 L 21.492188 -59.316406 L 19.460938 -59.144531 L 15.90625 -59.230469 L 15.144531 -59.144531 L 14.722656 -59.144531 L 13.285156 -59.0625 L 12.777344 -58.890625 L 12.609375 -58.214844 L 12.269531 -57.03125 L 12.101562 -55.847656 L 11.929688 -55 L 11.761719 -54.578125 L 11.339844 -53.476562 L 11.085938 -51.109375 L 10.914062 -50.601562 L 10.914062 -50.007812 L 10.660156 -48.824219 L 10.660156 -48.144531 L 10.578125 -47.46875 L 10.324219 -46.285156 L 10.238281 -45.609375 L 10.152344 -45.015625 L 9.730469 -43.914062 L 9.644531 -43.40625 L 9.644531 -42.816406 L 9.476562 -41.714844 L 9.308594 -41.207031 L 9.054688 -38.839844 L 8.800781 -38.332031 L 8.714844 -37.144531 L 8.714844 -36.46875 L 8.375 -35.285156 L 8.121094 -34.183594 L 8.039062 -33 L 7.699219 -31.898438 L 7.699219 -30.800781 L 7.53125 -30.207031 L 7.277344 -29.191406 L 7.191406 -28.601562 L 7.277344 -28.007812 L 7.023438 -26.992188 L 6.9375 -26.484375 L 6.855469 -25.890625 L 6.515625 -24.875 L 6.515625 -23.777344 L 6.347656 -22.929688 L 6.175781 -21.914062 L 6.09375 -20.644531 L 6.007812 -19.546875 L 5.667969 -17.261719 L 5.5 -16.5 L 5.414062 -13.621094 L 5.332031 -13.117188 L 5.667969 -10.238281 L 5.753906 -9.054688 L 6.09375 -7.699219 L 6.769531 -6.515625 L 7.445312 -5.160156 L 7.53125 -4.90625 L 7.953125 -4.230469 L 8.375 -3.722656 L 8.882812 -3.128906 L 9.730469 -2.285156 L 11.421875 -1.269531 L 11.929688 -1.015625 L 12.523438 -0.761719 L 13.960938 -0.253906 L 14.300781 -0.0859375 L 14.890625 0.0859375 Z M 18.363281 0.507812 "/></g></g></g><g fill="#222220" fill-opacity="1"><g transform="translate(154.638922, 101.443176)"><g><path d="M 6.601562 0.0859375 L 13.371094 0.0859375 L 13.960938 0 L 14.214844 -1.015625 L 14.300781 -1.691406 L 14.382812 -2.453125 L 14.636719 -3.128906 L 14.722656 -3.722656 L 14.890625 -4.230469 L 14.976562 -4.824219 L 14.976562 -5.5 L 15.316406 -6.007812 L 15.316406 -7.191406 L 15.570312 -8.460938 L 15.570312 -9.308594 L 15.824219 -9.898438 L 15.90625 -10.492188 L 16.160156 -11.507812 L 16.332031 -12.101562 L 16.5 -13.117188 L 16.753906 -13.875 L 17.007812 -15.0625 L 17.007812 -15.570312 L 17.09375 -16.160156 L 17.261719 -16.667969 L 17.347656 -17.261719 L 17.429688 -17.769531 L 17.515625 -18.871094 L 17.683594 -19.292969 L 17.769531 -20.390625 L 18.023438 -21.070312 L 18.109375 -21.660156 L 18.109375 -21.832031 L 19.375 -21.746094 L 21.238281 -21.746094 L 22.847656 -21.660156 L 25.214844 -21.832031 L 26.398438 -22 L 27.5 -22.085938 L 28.515625 -22.253906 L 29.867188 -22.675781 L 30.96875 -23.183594 L 31.816406 -23.4375 L 33 -24.03125 L 33.421875 -24.539062 L 34.523438 -25.382812 L 34.945312 -25.976562 L 35.539062 -26.824219 L 36.300781 -27.5 L 36.890625 -28.515625 L 37.398438 -29.023438 L 38.160156 -30.292969 L 38.753906 -31.308594 L 39.175781 -32.238281 L 39.855469 -33.847656 L 40.277344 -35.03125 L 40.53125 -35.707031 L 40.785156 -36.890625 L 40.953125 -37.398438 L 41.039062 -37.90625 L 41.292969 -38.5 L 41.375 -39.175781 L 41.628906 -39.769531 L 41.800781 -40.953125 L 41.96875 -42.816406 L 42.054688 -43.40625 L 42.222656 -44.339844 L 42.308594 -45.269531 L 42.222656 -46.199219 L 42.222656 -46.792969 L 42.136719 -48.0625 L 42.222656 -48.90625 L 41.96875 -49.839844 L 41.882812 -50.429688 L 41.800781 -51.359375 L 41.460938 -52.292969 L 41.292969 -52.882812 L 40.785156 -53.984375 L 40.53125 -54.660156 L 40.023438 -55.253906 L 39.515625 -55.929688 L 39.175781 -56.355469 L 38.414062 -57.03125 L 37.316406 -57.621094 L 36.722656 -57.875 L 36.128906 -58.300781 L 35.539062 -58.46875 L 34.183594 -58.722656 L 32.40625 -58.976562 L 31.308594 -59.144531 L 30.628906 -59.144531 L 29.363281 -59.316406 L 28.175781 -59.316406 L 26.90625 -59.230469 L 26.316406 -59.316406 L 20.644531 -59.316406 L 20.136719 -59.230469 L 19.039062 -59.316406 L 17.9375 -59.230469 L 13.539062 -59.230469 L 12.863281 -58.890625 L 12.523438 -57.792969 L 12.4375 -57.113281 L 12.183594 -55.929688 L 12.101562 -55.253906 L 12.015625 -54.660156 L 11.675781 -53.308594 L 11.507812 -52.714844 L 11.507812 -52.207031 L 11.421875 -51.613281 L 11.253906 -51.023438 L 11.253906 -50.347656 L 11.085938 -49.753906 L 11 -48.738281 L 10.746094 -47.976562 L 10.492188 -46.792969 L 10.324219 -46.113281 L 10.238281 -44.59375 L 10.152344 -44.085938 L 9.898438 -42.984375 L 9.984375 -42.644531 L 9.898438 -41.714844 L 9.5625 -40.363281 L 9.476562 -39.855469 L 9.390625 -38.753906 L 9.136719 -38.160156 L 8.96875 -37.570312 L 8.882812 -36.46875 L 8.882812 -35.453125 L 8.628906 -34.355469 L 8.375 -33 L 8.207031 -31.730469 L 8.121094 -31.054688 L 7.871094 -29.867188 L 7.785156 -29.363281 L 7.617188 -28.769531 L 7.53125 -28.261719 L 7.363281 -27.667969 L 7.277344 -26.484375 L 7.191406 -25.808594 L 6.9375 -25.214844 L 6.683594 -23.4375 L 6.601562 -22.167969 L 6.347656 -21.660156 L 6.347656 -21.070312 L 6.175781 -20.5625 L 6.175781 -19.628906 L 5.753906 -18.785156 L 5.753906 -18.363281 L 5.667969 -17.347656 L 5.585938 -16.839844 L 5.246094 -15.738281 L 5.078125 -15.230469 L 4.992188 -14.636719 L 4.90625 -13.539062 L 4.652344 -13.03125 L 4.316406 -11.085938 L 4.230469 -10.578125 L 4.144531 -9.984375 L 3.890625 -8.96875 L 3.808594 -8.375 L 3.554688 -7.277344 L 3.300781 -6.007812 L 3.046875 -4.824219 L 3.046875 -4.316406 L 2.792969 -3.128906 L 2.875 -2.539062 L 2.625 -2.03125 L 2.625 -0.421875 L 3.128906 0 L 4.652344 -0.0859375 L 5.246094 0 Z M 19.882812 -32.492188 L 19.96875 -33.253906 L 20.222656 -34.4375 L 20.222656 -35.199219 L 20.644531 -37.316406 L 20.816406 -38.078125 L 20.816406 -38.753906 L 20.898438 -39.769531 L 21.152344 -41.121094 L 21.324219 -41.96875 L 21.578125 -43.660156 L 21.832031 -44.675781 L 22 -45.269531 L 22.167969 -46.707031 L 22.253906 -47.554688 L 22.421875 -47.976562 L 22.847656 -48.992188 L 23.4375 -49.160156 L 25.382812 -49.246094 L 27.667969 -49.160156 L 28.429688 -48.992188 L 29.363281 -48.316406 L 29.867188 -47.554688 L 30.207031 -46.539062 L 30.207031 -45.101562 L 30.039062 -42.898438 L 29.699219 -40.53125 L 29.363281 -39.09375 L 29.023438 -38.332031 L 28.855469 -37.570312 L 28.429688 -36.382812 L 28.09375 -35.875 L 27.5 -34.945312 L 26.570312 -34.101562 L 25.214844 -33.085938 L 24.621094 -32.832031 L 23.015625 -32.660156 L 22.085938 -32.492188 Z M 19.882812 -32.492188 "/></g></g></g><g fill="#222220" fill-opacity="1"><g transform="translate(196.182485, 101.443176)"><g><path d="M 12.4375 0.0859375 L 13.117188 0 L 14.46875 -0.0859375 L 16.246094 -0.0859375 L 16.753906 -0.167969 L 17.855469 -0.0859375 L 19.207031 -0.167969 L 27.246094 -0.167969 L 27.5 -1.101562 L 27.667969 -1.863281 L 27.753906 -3.300781 L 28.007812 -4.570312 L 28.09375 -5.160156 L 28.261719 -5.667969 L 28.429688 -6.261719 L 28.429688 -7.363281 L 28.769531 -9.222656 L 28.855469 -9.898438 L 29.023438 -10.832031 L 29.109375 -11.167969 L 29.191406 -11.847656 L 28.601562 -12.101562 L 26.230469 -12.015625 L 24.367188 -12.101562 L 23.183594 -12.183594 L 18.191406 -12.183594 L 17.007812 -12.355469 L 16.667969 -12.691406 L 16.667969 -13.371094 L 17.007812 -15.570312 L 17.261719 -17.09375 L 17.429688 -17.683594 L 17.515625 -18.53125 L 17.683594 -19.292969 L 17.9375 -20.136719 L 18.277344 -22.507812 L 18.53125 -23.609375 L 18.871094 -24.539062 L 19.628906 -24.539062 L 20.730469 -24.621094 L 21.660156 -24.621094 L 23.101562 -24.539062 L 25.214844 -24.621094 L 25.976562 -24.621094 L 27.246094 -24.707031 L 28.09375 -24.707031 L 28.261719 -24.875 L 28.429688 -26.0625 L 28.683594 -27.414062 L 28.855469 -28.601562 L 29.109375 -29.277344 L 29.109375 -29.867188 L 29.363281 -31.136719 L 29.53125 -31.730469 L 29.785156 -32.914062 L 29.953125 -33.847656 L 29.953125 -34.523438 L 30.121094 -35.539062 L 29.617188 -36.214844 L 28.9375 -36.382812 L 26.738281 -36.382812 L 25.128906 -36.214844 L 22.167969 -36.300781 L 20.644531 -36.300781 L 20.816406 -37.824219 L 21.070312 -38.667969 L 20.984375 -39.347656 L 21.152344 -39.9375 L 21.40625 -41.121094 L 21.578125 -42.308594 L 21.832031 -43.914062 L 21.832031 -44.59375 L 22.085938 -45.101562 L 22.085938 -46.285156 L 22.167969 -46.875 L 22.421875 -47.890625 L 24.453125 -47.976562 L 29.953125 -47.976562 L 30.96875 -48.0625 L 34.523438 -48.0625 L 35.367188 -48.144531 L 35.621094 -49.246094 L 35.707031 -49.753906 L 36.046875 -50.9375 L 36.046875 -51.613281 L 36.300781 -52.882812 L 36.382812 -53.390625 L 36.46875 -53.984375 L 36.722656 -54.578125 L 36.722656 -55.085938 L 36.890625 -57.199219 L 36.890625 -57.707031 L 37.144531 -58.636719 L 36.722656 -59.230469 L 35.960938 -59.316406 L 35.113281 -59.398438 L 34.355469 -59.316406 L 32.492188 -59.316406 L 30.039062 -59.230469 L 29.363281 -59.316406 L 27.414062 -59.398438 L 21.070312 -59.316406 L 19.207031 -59.230469 L 18.363281 -59.230469 L 17.683594 -59.316406 L 17.09375 -59.316406 L 16.078125 -59.230469 L 15.484375 -59.316406 L 14.976562 -59.230469 L 13.539062 -59.230469 L 12.863281 -58.722656 L 12.777344 -58.214844 L 12.523438 -57.707031 L 12.269531 -56.691406 L 12.4375 -56.101562 L 12.355469 -55.59375 L 12.269531 -54.492188 L 12.183594 -53.984375 L 12.015625 -53.476562 L 11.929688 -52.375 L 11.761719 -51.785156 L 11.847656 -51.277344 L 11.59375 -50.683594 L 11.59375 -50.09375 L 11.339844 -49.585938 L 11.167969 -48.398438 L 10.832031 -47.300781 L 10.746094 -46.707031 L 10.832031 -46.199219 L 10.746094 -45.609375 L 10.578125 -44.929688 L 10.238281 -44.421875 L 10.152344 -42.644531 L 9.898438 -42.054688 L 9.816406 -39.683594 L 9.476562 -38.414062 L 9.222656 -37.230469 L 9.308594 -36.722656 L 9.136719 -36.128906 L 8.882812 -35.453125 L 8.375 -32.914062 L 8.039062 -32.40625 L 8.039062 -31.816406 L 7.953125 -31.222656 L 7.871094 -30.546875 L 7.617188 -29.953125 L 7.445312 -28.683594 L 7.109375 -27.5 L 7.109375 -26.230469 L 6.769531 -24.453125 L 6.601562 -23.863281 L 6.347656 -22.59375 L 6.261719 -22 L 6.007812 -21.40625 L 5.753906 -20.308594 L 5.839844 -19.800781 L 5.5 -18.785156 L 5.5 -18.363281 L 5.332031 -17.261719 L 5.160156 -16.585938 L 5.160156 -15.992188 L 4.992188 -14.636719 L 4.652344 -13.960938 L 4.484375 -12.863281 L 4.398438 -11.675781 L 4.316406 -11.085938 L 4.144531 -10.40625 L 4.144531 -9.816406 L 3.976562 -9.222656 L 3.976562 -8.460938 L 3.722656 -7.785156 L 3.636719 -6.429688 L 3.300781 -5.160156 L 3.128906 -3.808594 L 2.960938 -2.539062 L 2.792969 -1.777344 L 2.539062 -1.015625 L 2.792969 -0.253906 L 3.554688 -0.0859375 L 8.039062 -0.0859375 L 8.628906 0 L 10.832031 0 Z M 12.4375 0.0859375 "/></g></g></g><g fill="#222220" fill-opacity="1"><g transform="translate(230.872685, 101.443176)"><g><path d="M 11.167969 0.167969 L 11.847656 0.0859375 L 13.117188 0 L 13.875 -0.0859375 L 14.722656 0 L 14.976562 -0.761719 L 15.230469 -1.355469 L 15.316406 -2.371094 L 15.398438 -2.960938 L 15.398438 -3.46875 L 15.484375 -4.0625 L 15.570312 -5.160156 L 15.570312 -5.667969 L 15.738281 -6.261719 L 15.652344 -6.769531 L 15.90625 -7.953125 L 15.90625 -8.628906 L 16.078125 -9.136719 L 16.160156 -9.816406 L 16.5 -11.59375 L 16.667969 -12.269531 L 16.667969 -14.046875 L 17.007812 -14.722656 L 17.175781 -15.90625 L 17.175781 -16.414062 L 17.347656 -17.601562 L 17.769531 -18.699219 L 17.769531 -20.136719 L 18.023438 -21.914062 L 18.109375 -22.59375 L 18.363281 -23.777344 L 18.53125 -24.285156 L 18.617188 -24.621094 L 19.207031 -24.539062 L 19.546875 -24.199219 L 19.882812 -23.523438 L 20.054688 -22.847656 L 20.390625 -22.167969 L 20.5625 -21.324219 L 20.816406 -20.136719 L 20.984375 -19.714844 L 21.070312 -18.53125 L 21.40625 -17.429688 L 21.578125 -16.332031 L 21.746094 -15.738281 L 22.085938 -14.722656 L 22.167969 -14.128906 L 22.675781 -12.609375 L 22.675781 -11.59375 L 23.015625 -10.746094 L 23.269531 -9.816406 L 23.355469 -9.222656 L 23.609375 -8.714844 L 23.609375 -8.121094 L 23.863281 -7.53125 L 24.03125 -6.429688 L 24.199219 -6.175781 L 24.453125 -5.5 L 24.453125 -4.824219 L 24.960938 -3.554688 L 25.214844 -2.625 L 25.382812 -2.199219 L 25.636719 -1.183594 L 25.808594 -0.761719 L 26.570312 0 L 27.078125 0.0859375 L 27.839844 0 L 28.515625 0 L 29.445312 -0.0859375 L 30.546875 -0.0859375 L 32.746094 -0.339844 L 34.523438 -0.59375 L 35.621094 -0.59375 L 36.554688 -0.761719 L 36.976562 -0.847656 L 37.230469 -1.945312 L 36.636719 -3.554688 L 36.46875 -4.316406 L 36.382812 -4.90625 L 36.300781 -5.921875 L 35.707031 -7.363281 L 35.539062 -8.546875 L 34.609375 -11.59375 L 34.4375 -12.691406 L 34.015625 -13.960938 L 34.015625 -14.46875 L 33.675781 -15.570312 L 33.507812 -16.246094 L 33.253906 -16.839844 L 33.085938 -18.023438 L 32.914062 -18.53125 L 32.660156 -19.628906 L 32.40625 -20.136719 L 32.238281 -21.238281 L 32.152344 -21.914062 L 31.816406 -22.421875 L 31.644531 -23.523438 L 31.644531 -24.285156 L 31.222656 -25.554688 L 30.96875 -26.230469 L 30.96875 -26.992188 L 31.5625 -27.078125 L 32.746094 -27.667969 L 34.4375 -28.769531 L 35.621094 -30.039062 L 36.046875 -30.460938 L 36.976562 -31.5625 L 37.230469 -32.070312 L 37.90625 -33.167969 L 38.246094 -33.929688 L 38.5 -34.523438 L 39.261719 -35.621094 L 39.683594 -36.636719 L 39.9375 -37.230469 L 40.109375 -37.738281 L 40.277344 -38.332031 L 40.613281 -39.347656 L 40.867188 -40.191406 L 41.039062 -41.546875 L 41.292969 -42.898438 L 41.292969 -43.492188 L 41.207031 -44.761719 L 41.292969 -45.355469 L 41.546875 -46.539062 L 41.546875 -47.214844 L 41.292969 -48.824219 L 41.292969 -49.414062 L 41.121094 -51.023438 L 40.867188 -52.375 L 40.277344 -53.5625 L 39.683594 -54.578125 L 39.347656 -55 L 38.921875 -55.507812 L 38.585938 -55.847656 L 37.570312 -56.4375 L 37.144531 -56.691406 L 36.636719 -56.945312 L 35.875 -57.453125 L 35.285156 -57.621094 L 34.523438 -57.960938 L 33.59375 -58.382812 L 32.914062 -58.554688 L 31.5625 -58.554688 L 30.628906 -58.722656 L 29.363281 -58.808594 L 28.261719 -58.976562 L 27.5 -58.976562 L 26.230469 -59.144531 L 25.554688 -59.316406 L 24.707031 -59.230469 L 24.117188 -59.144531 L 20.476562 -59.144531 L 15.398438 -59.230469 L 14.214844 -59.230469 L 13.371094 -59.0625 L 12.777344 -58.382812 L 12.4375 -57.960938 L 12.523438 -57.03125 L 12.183594 -56.355469 L 12.183594 -55.675781 L 12.101562 -55.085938 L 12.015625 -54.40625 L 11.675781 -52.039062 L 11.421875 -50.683594 L 11.167969 -49.667969 L 11 -49.078125 L 11 -48.570312 L 10.914062 -47.46875 L 10.914062 -46.960938 L 10.832031 -46.453125 L 10.578125 -45.269531 L 10.324219 -43.914062 L 10.070312 -42.730469 L 9.984375 -42.222656 L 9.898438 -41.039062 L 9.5625 -40.023438 L 9.476562 -39.515625 L 9.476562 -38.921875 L 9.390625 -38.414062 L 9.222656 -37.316406 L 9.136719 -36.722656 L 9.054688 -36.214844 L 9.054688 -35.621094 L 8.628906 -33.847656 L 8.628906 -33.167969 L 8.460938 -31.984375 L 8.292969 -30.882812 L 8.207031 -30.375 L 8.039062 -29.445312 L 7.871094 -28.855469 L 7.871094 -28.347656 L 7.617188 -27.839844 L 7.445312 -27.246094 L 7.363281 -26.230469 L 7.445312 -25.722656 L 7.277344 -25.214844 L 6.855469 -24.621094 L 6.855469 -23.863281 L 6.769531 -23.183594 L 6.683594 -22.59375 L 6.347656 -21.40625 L 6.347656 -20.730469 L 6.261719 -19.460938 L 6.09375 -18.617188 L 6.09375 -17.855469 L 5.667969 -16.332031 L 5.667969 -15.0625 L 5.332031 -14.382812 L 5.414062 -13.707031 L 5.332031 -13.117188 L 5.160156 -12.4375 L 5.078125 -11.253906 L 4.824219 -10.578125 L 4.90625 -9.984375 L 4.652344 -9.308594 L 4.652344 -8.714844 L 4.398438 -7.53125 L 4.316406 -6.9375 L 4.316406 -6.429688 L 4.0625 -5.839844 L 4.0625 -5.246094 L 3.890625 -4.738281 L 3.890625 -4.144531 L 3.808594 -3.214844 L 3.722656 -2.371094 L 3.46875 -1.523438 L 3.46875 -0.761719 L 3.636719 -0.253906 L 4.398438 -0.0859375 L 7.023438 0.0859375 L 8.121094 0.0859375 Z M 22.167969 -34.691406 L 20.730469 -34.863281 L 20.816406 -35.539062 L 20.730469 -36.128906 L 20.816406 -36.722656 L 21.070312 -38.078125 L 21.238281 -38.839844 L 21.152344 -39.601562 L 21.40625 -40.363281 L 21.578125 -41.628906 L 21.578125 -42.222656 L 21.832031 -43.578125 L 22 -44.253906 L 22.085938 -45.355469 L 22.167969 -46.621094 L 22.339844 -47.976562 L 22.59375 -48.570312 L 22.847656 -49.5 L 23.609375 -49.753906 L 25.636719 -49.667969 L 27.5 -49.414062 L 28.261719 -48.992188 L 28.855469 -48.398438 L 29.277344 -47.636719 L 29.53125 -45.863281 L 29.617188 -44 L 29.53125 -42.644531 L 29.277344 -41.96875 L 29.277344 -41.292969 L 28.683594 -40.109375 L 28.601562 -39.601562 L 28.429688 -38.921875 L 28.007812 -37.824219 L 27.414062 -37.316406 L 27.078125 -36.808594 L 26.484375 -36.128906 L 25.890625 -35.792969 L 25.046875 -35.285156 L 24.539062 -34.945312 L 23.523438 -34.691406 Z M 22.167969 -34.691406 "/></g></g></g><g fill="#222220" fill-opacity="1"><g transform="translate(273.431568, 101.443176)"><g><path d="M 18.53125 1.015625 L 19.375 0.847656 L 20.476562 0.761719 L 21.746094 0.761719 L 22.847656 0.507812 L 23.863281 0.339844 L 24.875 0.0859375 L 27.078125 -0.421875 L 27.667969 -0.675781 L 29.023438 -1.523438 L 30.292969 -2.625 L 31.5625 -4.144531 L 31.730469 -4.652344 L 31.984375 -5.160156 L 32.40625 -5.667969 L 32.746094 -6.175781 L 33 -6.769531 L 33.421875 -7.785156 L 33.929688 -9.136719 L 34.183594 -9.644531 L 34.355469 -10.238281 L 34.4375 -10.832031 L 34.691406 -11.847656 L 35.199219 -13.960938 L 35.367188 -14.46875 L 35.621094 -16.246094 L 35.707031 -16.585938 L 35.792969 -17.175781 L 35.960938 -17.601562 L 36.046875 -18.53125 L 36.214844 -19.628906 L 36.214844 -20.222656 L 36.382812 -20.730469 L 36.382812 -21.660156 L 36.046875 -22.253906 L 35.453125 -22.847656 L 34.4375 -22.929688 L 30.292969 -23.183594 L 28.515625 -23.183594 L 26.316406 -23.269531 L 25.636719 -23.183594 L 25.046875 -22.507812 L 24.875 -21.660156 L 24.453125 -20.5625 L 24.367188 -19.96875 L 24.199219 -19.207031 L 23.945312 -17.9375 L 23.691406 -16.921875 L 23.609375 -16.5 L 23.523438 -15.992188 L 23.183594 -14.890625 L 22.761719 -13.707031 L 22.085938 -12.183594 L 21.746094 -11.761719 L 20.5625 -11 L 19.292969 -11 L 17.9375 -10.832031 L 16.667969 -11.253906 L 15.992188 -11.847656 L 15.652344 -13.117188 L 15.652344 -13.707031 L 15.570312 -14.214844 L 15.570312 -15.0625 L 15.652344 -16.246094 L 15.90625 -17.429688 L 15.90625 -18.109375 L 16.160156 -19.882812 L 16.078125 -20.476562 L 16.246094 -21.070312 L 16.332031 -21.660156 L 16.332031 -22.339844 L 16.414062 -22.929688 L 16.667969 -23.523438 L 16.667969 -25.300781 L 16.921875 -26.570312 L 17.09375 -27.246094 L 17.261719 -28.347656 L 17.347656 -28.9375 L 17.683594 -30.292969 L 17.769531 -30.96875 L 18.445312 -34.355469 L 18.871094 -35.621094 L 19.039062 -36.808594 L 19.207031 -37.398438 L 19.292969 -37.90625 L 19.375 -38.5 L 19.628906 -39.261719 L 19.882812 -40.277344 L 20.136719 -41.546875 L 20.476562 -42.5625 L 20.476562 -43.070312 L 20.984375 -44.507812 L 21.40625 -45.609375 L 21.746094 -47.046875 L 22 -47.636719 L 22.253906 -48.144531 L 23.015625 -49.078125 L 23.945312 -49.414062 L 24.960938 -49.585938 L 25.890625 -49.585938 L 27.078125 -49.246094 L 28.007812 -48.738281 L 28.515625 -47.214844 L 28.515625 -45.945312 L 28.347656 -44.761719 L 28.261719 -43.660156 L 27.753906 -41.800781 L 27.585938 -40.613281 L 27.246094 -39.09375 L 27.078125 -38.5 L 27.078125 -37.316406 L 27.667969 -36.382812 L 30.121094 -36.046875 L 35.453125 -35.960938 L 36.636719 -36.046875 L 37.652344 -36.128906 L 37.992188 -36.46875 L 38.414062 -38.667969 L 38.585938 -39.347656 L 39.09375 -42.644531 L 39.261719 -44 L 39.429688 -45.269531 L 39.601562 -45.945312 L 39.683594 -46.792969 L 39.683594 -48.652344 L 39.601562 -49.921875 L 39.515625 -50.683594 L 39.429688 -51.785156 L 39.347656 -52.800781 L 39.175781 -53.730469 L 38.753906 -54.578125 L 38.585938 -55.167969 L 38.332031 -55.59375 L 37.90625 -56.355469 L 37.738281 -56.777344 L 36.808594 -57.621094 L 35.707031 -58.46875 L 34.523438 -58.890625 L 33.59375 -59.0625 L 33.253906 -59.316406 L 32.660156 -59.398438 L 32.070312 -59.570312 L 31.5625 -59.652344 L 30.375 -59.824219 L 29.53125 -59.824219 L 28.769531 -60.078125 L 26.652344 -60.332031 L 25.300781 -60.332031 L 23.691406 -60.246094 L 22.421875 -60.246094 L 21.832031 -60.160156 L 20.730469 -59.90625 L 19.292969 -59.652344 L 17.515625 -58.890625 L 17.007812 -58.636719 L 15.90625 -58.128906 L 15.398438 -57.707031 L 14.214844 -56.523438 L 13.539062 -55.675781 L 12.945312 -54.832031 L 12.355469 -54.324219 L 12.015625 -53.390625 L 11.507812 -52.207031 L 11.085938 -51.191406 L 10.578125 -49.753906 L 10.238281 -48.570312 L 9.730469 -46.875 L 9.136719 -45.183594 L 8.882812 -44.085938 L 8.628906 -43.492188 L 8.546875 -42.898438 L 8.460938 -42.390625 L 8.292969 -41.800781 L 8.207031 -41.207031 L 7.953125 -40.699219 L 7.871094 -39.855469 L 7.699219 -38.921875 L 7.53125 -38.332031 L 7.109375 -36.636719 L 7.109375 -35.453125 L 6.855469 -34.945312 L 6.855469 -34.4375 L 6.769531 -33.421875 L 6.515625 -32.578125 L 6.347656 -31.644531 L 6.09375 -30.714844 L 6.09375 -30.375 L 6.007812 -30.121094 L 6.007812 -28.9375 L 5.667969 -28.429688 L 5.414062 -26.90625 L 5.5 -26.484375 L 5.246094 -25.554688 L 5.078125 -24.875 L 5.160156 -24.117188 L 4.824219 -22.929688 L 4.652344 -21.152344 L 4.570312 -20.644531 L 4.570312 -20.054688 L 4.398438 -18.871094 L 4.316406 -17.683594 L 4.230469 -17.007812 L 4.144531 -15.230469 L 4.144531 -13.03125 L 4.0625 -12.4375 L 4.0625 -11.675781 L 4.144531 -11 L 4.144531 -9.390625 L 4.316406 -8.800781 L 4.484375 -7.699219 L 4.652344 -7.191406 L 4.90625 -6.09375 L 5.667969 -4.992188 L 6.261719 -3.808594 L 6.683594 -3.382812 L 7.023438 -2.960938 L 8.121094 -2.117188 L 8.628906 -1.777344 L 9.054688 -1.4375 L 9.898438 -0.929688 L 10.40625 -0.507812 L 11.421875 -0.167969 L 12.523438 0.253906 L 13.03125 0.339844 L 13.621094 0.507812 L 14.46875 0.59375 L 14.976562 0.675781 L 15.652344 0.761719 L 16.585938 0.847656 L 17.175781 0.929688 L 17.769531 0.929688 Z M 18.53125 1.015625 "/></g></g></g><g fill="#222220" fill-opacity="1"><g transform="translate(313.113727, 101.443176)"><g><path d="M 28.769531 0.167969 L 29.445312 0.0859375 L 31.136719 0.0859375 L 32.238281 0 L 32.746094 -0.0859375 L 34.015625 -0.0859375 L 35.03125 -0.339844 L 35.367188 -0.847656 L 35.539062 -1.4375 L 35.539062 -2.117188 L 35.707031 -2.707031 L 35.792969 -3.382812 L 36.046875 -3.808594 L 36.214844 -4.824219 L 36.300781 -5.753906 L 36.46875 -6.347656 L 36.636719 -7.445312 L 36.722656 -8.039062 L 36.976562 -9.222656 L 37.0625 -10.578125 L 37.144531 -11.761719 L 37.316406 -12.269531 L 37.570312 -13.199219 L 37.824219 -14.382812 L 37.90625 -14.976562 L 37.90625 -15.652344 L 38.160156 -16.839844 L 38.246094 -17.429688 L 38.414062 -17.9375 L 38.585938 -18.53125 L 38.5 -19.039062 L 39.007812 -20.816406 L 38.921875 -21.324219 L 39.09375 -21.914062 L 39.347656 -23.101562 L 39.515625 -24.03125 L 39.515625 -24.539062 L 39.855469 -26.0625 L 39.9375 -26.652344 L 40.363281 -27.753906 L 40.445312 -28.347656 L 40.445312 -29.445312 L 40.53125 -30.039062 L 40.785156 -30.546875 L 40.613281 -31.136719 L 40.613281 -31.816406 L 40.953125 -32.324219 L 41.039062 -32.914062 L 41.292969 -34.101562 L 41.375 -34.609375 L 41.460938 -35.875 L 41.882812 -37.0625 L 41.96875 -38.332031 L 42.136719 -39.683594 L 42.308594 -40.785156 L 42.390625 -41.292969 L 42.816406 -42.308594 L 42.898438 -42.816406 L 43.070312 -43.914062 L 43.152344 -44.59375 L 43.324219 -45.183594 L 43.40625 -45.777344 L 43.660156 -46.875 L 43.746094 -47.46875 L 43.914062 -48.570312 L 43.914062 -49.160156 L 44 -50.261719 L 44.167969 -50.9375 L 44.339844 -51.53125 L 44.421875 -52.121094 L 44.421875 -52.800781 L 44.507812 -53.984375 L 44.847656 -55 L 44.847656 -55.59375 L 44.929688 -56.101562 L 44.847656 -56.4375 L 45.183594 -56.945312 L 45.101562 -57.539062 L 45.183594 -58.046875 L 44.59375 -58.808594 L 44 -59.0625 L 42.644531 -59.230469 L 40.277344 -59.230469 L 38.585938 -59.316406 L 35.539062 -59.316406 L 34.777344 -59.230469 L 34.269531 -59.144531 L 33.59375 -58.382812 L 33.507812 -57.875 L 33.59375 -57.285156 L 33.421875 -56.691406 L 33.085938 -55.929688 L 33 -55.421875 L 32.832031 -54.324219 L 32.660156 -53.816406 L 32.40625 -52.714844 L 32.40625 -52.039062 L 32.070312 -50.855469 L 31.984375 -50.261719 L 32.070312 -49.585938 L 32.070312 -48.570312 L 31.730469 -47.808594 L 31.644531 -46.707031 L 31.390625 -45.609375 L 31.390625 -45.015625 L 31.222656 -44.507812 L 31.136719 -43.914062 L 31.054688 -43.238281 L 30.96875 -42.644531 L 30.882812 -42.136719 L 30.460938 -41.039062 L 30.628906 -40.53125 L 30.207031 -39.261719 L 30.121094 -38.667969 L 30.121094 -38.078125 L 29.785156 -37.316406 L 29.617188 -36.382812 L 29.53125 -35.960938 L 27.753906 -36.046875 L 27.078125 -35.960938 L 26.0625 -36.046875 L 25.382812 -35.960938 L 22.929688 -36.046875 L 22.253906 -36.046875 L 21.660156 -36.128906 L 21.832031 -36.808594 L 21.914062 -37.316406 L 22.085938 -37.992188 L 22 -38.5 L 22.167969 -39.09375 L 22.421875 -40.191406 L 22.339844 -40.785156 L 22.59375 -41.292969 L 22.675781 -41.882812 L 22.847656 -42.5625 L 23.015625 -42.984375 L 23.015625 -43.492188 L 23.101562 -44.507812 L 23.269531 -44.929688 L 23.355469 -46.03125 L 23.523438 -46.707031 L 23.691406 -47.300781 L 23.691406 -48.652344 L 23.945312 -49.246094 L 24.03125 -50.261719 L 24.199219 -51.445312 L 24.539062 -53.054688 L 24.621094 -53.816406 L 24.875 -54.578125 L 24.960938 -55.761719 L 25.046875 -56.269531 L 25.300781 -57.285156 L 25.214844 -57.875 L 25.214844 -58.382812 L 25.046875 -59.144531 L 24.199219 -59.316406 L 23.183594 -59.484375 L 22.339844 -59.230469 L 20.476562 -59.230469 L 19.292969 -59.316406 L 15.824219 -59.230469 L 13.707031 -59.230469 L 12.945312 -58.808594 L 12.863281 -57.875 L 12.777344 -56.859375 L 12.523438 -55.761719 L 12.355469 -55.167969 L 12.4375 -54.492188 L 12.183594 -53.898438 L 12.101562 -53.308594 L 11.929688 -52.714844 L 12.015625 -51.53125 L 11.421875 -50.429688 L 11.421875 -48.652344 L 11.167969 -47.554688 L 11.085938 -47.046875 L 11 -46.367188 L 10.660156 -45.691406 L 10.660156 -44.507812 L 10.578125 -44.085938 L 10.324219 -42.308594 L 10.152344 -41.628906 L 9.984375 -40.53125 L 9.644531 -38.753906 L 9.5625 -37.570312 L 9.476562 -36.976562 L 8.96875 -35.792969 L 8.882812 -34.609375 L 8.714844 -33.421875 L 8.628906 -32.914062 L 8.207031 -30.460938 L 7.871094 -29.277344 L 7.871094 -28.601562 L 7.617188 -27.921875 L 7.363281 -27.332031 L 7.191406 -26.0625 L 7.191406 -25.46875 L 7.023438 -24.453125 L 6.769531 -23.609375 L 6.683594 -22.507812 L 6.347656 -21.324219 L 6.429688 -20.730469 L 6.261719 -20.054688 L 6.175781 -19.546875 L 6.007812 -19.039062 L 5.585938 -16.078125 L 5.414062 -15.398438 L 5.160156 -14.214844 L 5.160156 -13.539062 L 5.078125 -12.945312 L 4.738281 -12.183594 L 4.398438 -11.59375 L 4.484375 -10.40625 L 4.144531 -9.222656 L 4.230469 -8.546875 L 4.0625 -7.953125 L 3.554688 -7.023438 L 3.722656 -6.429688 L 3.554688 -5.921875 L 3.554688 -5.332031 L 3.382812 -4.570312 L 3.300781 -3.722656 L 2.875 -2.625 L 2.539062 -1.863281 L 2.539062 -1.183594 L 2.875 -0.253906 L 4.570312 -0.0859375 L 7.277344 -0.0859375 L 8.292969 0.0859375 L 8.882812 -0.0859375 L 9.476562 -0.167969 L 10.070312 0.0859375 L 10.746094 0.0859375 L 12.015625 -0.0859375 L 13.03125 -0.167969 L 13.792969 -0.253906 L 14.46875 -0.59375 L 14.890625 -1.4375 L 15.0625 -2.707031 L 15.144531 -3.300781 L 15.316406 -3.976562 L 15.484375 -5.160156 L 15.484375 -5.753906 L 15.738281 -6.9375 L 15.824219 -7.617188 L 16.332031 -9.984375 L 16.5 -11.253906 L 16.839844 -12.355469 L 16.921875 -12.777344 L 17.347656 -13.792969 L 17.261719 -14.300781 L 17.769531 -16.160156 L 18.191406 -18.109375 L 18.363281 -18.699219 L 18.363281 -20.136719 L 18.699219 -20.730469 L 18.871094 -21.832031 L 19.207031 -23.015625 L 19.292969 -23.691406 L 19.375 -24.117188 L 20.816406 -24.03125 L 22.085938 -23.777344 L 24.792969 -24.03125 L 25.554688 -23.863281 L 26.144531 -23.863281 L 26.90625 -23.945312 L 26.738281 -22.929688 L 26.738281 -22.339844 L 26.570312 -21.152344 L 26.398438 -20.5625 L 26.144531 -19.375 L 26.144531 -18.363281 L 25.976562 -17.515625 L 25.636719 -16.585938 L 25.128906 -14.046875 L 24.960938 -12.4375 L 24.707031 -11.167969 L 24.621094 -9.984375 L 24.453125 -9.5625 L 24.367188 -8.460938 L 24.285156 -7.871094 L 24.285156 -7.277344 L 24.199219 -6.683594 L 23.863281 -4.90625 L 23.863281 -3.722656 L 23.523438 -3.128906 L 23.355469 -2.371094 L 23.269531 -1.609375 L 23.183594 -0.929688 L 23.691406 -0.167969 L 24.285156 -0.0859375 L 24.875 -0.0859375 L 25.808594 0 L 28.09375 0 Z M 28.769531 0.167969 "/></g></g></g><g fill="#222220" fill-opacity="1"><g transform="translate(358.464717, 101.443176)"><g><path d="M 6.855469 0.167969 L 7.53125 0.0859375 L 9.898438 0.167969 L 10.40625 -0.167969 L 10.746094 -0.761719 L 11 -1.183594 L 11.253906 -2.117188 L 11.761719 -3.382812 L 12.609375 -4.992188 L 12.945312 -6.007812 L 13.199219 -6.601562 L 13.371094 -7.191406 L 13.960938 -8.292969 L 14.382812 -9.222656 L 16.667969 -9.222656 L 20.390625 -9.136719 L 21.746094 -8.96875 L 23.609375 -8.882812 L 23.691406 -8.207031 L 23.691406 -4.230469 L 23.609375 -3.382812 L 23.691406 -2.539062 L 23.777344 -1.015625 L 23.945312 -0.167969 L 24.285156 0.0859375 L 25.554688 0.0859375 L 26.652344 0.167969 L 27.5 0.0859375 L 28.09375 0 L 29.109375 0.0859375 L 29.785156 0.0859375 L 31.644531 0 L 32.832031 0 L 33.507812 0.0859375 L 34.101562 0 C 34.4375 0 34.691406 0.0859375 35.03125 0 C 35.453125 -0.253906 35.367188 -1.015625 35.285156 -1.355469 L 35.285156 -3.128906 L 35.199219 -4.992188 L 35.199219 -5.753906 L 35.113281 -6.429688 L 35.199219 -7.617188 L 35.199219 -8.882812 L 35.113281 -9.476562 L 35.03125 -10.578125 L 35.03125 -11.085938 L 34.863281 -14.300781 L 34.945312 -14.890625 L 34.863281 -16.078125 L 34.945312 -17.347656 L 34.863281 -18.617188 L 34.863281 -19.207031 L 34.777344 -23.101562 L 34.777344 -25.636719 L 34.691406 -26.316406 L 34.609375 -27.332031 L 34.609375 -30.628906 L 34.4375 -31.5625 L 34.355469 -32.914062 L 34.355469 -33.421875 L 34.269531 -34.523438 L 34.355469 -35.03125 L 34.269531 -36.214844 L 34.269531 -37.90625 L 34.101562 -39.09375 L 34.101562 -40.953125 L 34.183594 -41.546875 L 34.101562 -42.816406 L 34.101562 -44 L 33.929688 -45.691406 L 33.847656 -46.792969 L 33.847656 -47.976562 L 33.761719 -51.023438 L 33.761719 -52.546875 L 33.59375 -53.054688 L 33.59375 -54.914062 L 33.339844 -58.554688 L 32.746094 -58.976562 L 32.324219 -59.144531 L 30.96875 -59.144531 L 30.207031 -59.0625 L 29.617188 -59.230469 L 28.855469 -59.230469 L 27.246094 -59.144531 L 25.890625 -59.144531 L 25.046875 -59.0625 L 23.4375 -59.144531 L 22.59375 -59.144531 L 22 -59.0625 L 21.660156 -58.128906 L 21.40625 -57.621094 L 21.152344 -57.03125 L 20.390625 -55.507812 L 19.800781 -54.40625 L 19.292969 -52.882812 L 19.121094 -52.460938 L 18.785156 -51.953125 L 18.277344 -51.023438 L 18.109375 -50.429688 L 17.9375 -49.921875 L 17.683594 -49.414062 L 17.515625 -48.824219 L 16.753906 -47.300781 L 16.5 -46.707031 L 16.246094 -45.863281 L 15.738281 -45.101562 L 15.484375 -44.59375 L 15.0625 -43.492188 L 14.382812 -41.714844 L 14.046875 -41.207031 L 13.621094 -40.613281 L 13.371094 -39.429688 L 12.863281 -38.332031 L 12.691406 -37.90625 L 12.4375 -36.808594 L 12.015625 -36.214844 L 11.761719 -35.113281 L 11.507812 -34.609375 L 11 -33.675781 L 10.578125 -32.238281 L 9.984375 -31.136719 L 9.730469 -30.460938 L 9.054688 -28.09375 L 8.800781 -27.585938 L 8.375 -26.398438 L 8.121094 -25.890625 L 7.871094 -25.300781 L 7.785156 -24.792969 L 7.277344 -23.609375 L 7.109375 -23.015625 L 6.601562 -22 L 6.175781 -21.324219 L 6.007812 -20.5625 L 5.839844 -19.96875 L 5.246094 -18.785156 L 4.992188 -18.191406 L 4.570312 -17.09375 L 4.316406 -16.585938 L 4.230469 -15.992188 L 4.0625 -15.484375 L 3.636719 -14.46875 L 3.214844 -13.875 L 3.046875 -13.371094 L 2.371094 -11.847656 L 2.03125 -10.746094 L 1.101562 -8.714844 L 0.675781 -7.699219 L 0.167969 -6.683594 L -0.675781 -4.144531 L -1.355469 -3.046875 L -1.863281 -2.03125 L -1.945312 -1.523438 L -2.117188 -0.929688 L -1.945312 -0.253906 L -1.183594 -0.0859375 L 4.992188 0 L 5.585938 0.0859375 Z M 20.816406 -20.222656 L 20.054688 -20.308594 L 19.121094 -20.390625 L 18.445312 -20.390625 L 17.855469 -20.898438 L 18.109375 -21.492188 L 18.277344 -22.253906 L 18.445312 -22.847656 L 18.871094 -24.285156 L 19.207031 -24.875 L 19.628906 -26.144531 L 19.714844 -26.738281 L 20.222656 -28.601562 L 20.476562 -29.363281 L 20.730469 -29.953125 L 20.984375 -30.714844 L 21.324219 -31.308594 L 21.40625 -31.898438 L 21.746094 -32.746094 L 22.085938 -33.421875 L 22.507812 -34.777344 L 22.761719 -35.621094 L 23.183594 -36.976562 L 23.523438 -38.078125 L 24.199219 -38.332031 L 24.285156 -36.382812 L 24.199219 -33.339844 L 24.117188 -30.121094 L 24.199219 -28.09375 L 24.03125 -27.414062 L 24.03125 -25.976562 L 23.945312 -25.382812 L 23.945312 -23.183594 L 23.863281 -22.507812 L 23.945312 -21.832031 L 23.863281 -20.644531 L 23.355469 -20.222656 Z M 20.816406 -20.222656 "/></g></g></g><g fill="#222220" fill-opacity="1"><g transform="translate(398.992961, 101.443176)"><g><path d="M 11.167969 0.167969 L 11.847656 0.0859375 L 13.117188 0 L 13.875 -0.0859375 L 14.722656 0 L 14.976562 -0.761719 L 15.230469 -1.355469 L 15.316406 -2.371094 L 15.398438 -2.960938 L 15.398438 -3.46875 L 15.484375 -4.0625 L 15.570312 -5.160156 L 15.570312 -5.667969 L 15.738281 -6.261719 L 15.652344 -6.769531 L 15.90625 -7.953125 L 15.90625 -8.628906 L 16.078125 -9.136719 L 16.160156 -9.816406 L 16.5 -11.59375 L 16.667969 -12.269531 L 16.667969 -14.046875 L 17.007812 -14.722656 L 17.175781 -15.90625 L 17.175781 -16.414062 L 17.347656 -17.601562 L 17.769531 -18.699219 L 17.769531 -20.136719 L 18.023438 -21.914062 L 18.109375 -22.59375 L 18.363281 -23.777344 L 18.53125 -24.285156 L 18.617188 -24.621094 L 19.207031 -24.539062 L 19.546875 -24.199219 L 19.882812 -23.523438 L 20.054688 -22.847656 L 20.390625 -22.167969 L 20.5625 -21.324219 L 20.816406 -20.136719 L 20.984375 -19.714844 L 21.070312 -18.53125 L 21.40625 -17.429688 L 21.578125 -16.332031 L 21.746094 -15.738281 L 22.085938 -14.722656 L 22.167969 -14.128906 L 22.675781 -12.609375 L 22.675781 -11.59375 L 23.015625 -10.746094 L 23.269531 -9.816406 L 23.355469 -9.222656 L 23.609375 -8.714844 L 23.609375 -8.121094 L 23.863281 -7.53125 L 24.03125 -6.429688 L 24.199219 -6.175781 L 24.453125 -5.5 L 24.453125 -4.824219 L 24.960938 -3.554688 L 25.214844 -2.625 L 25.382812 -2.199219 L 25.636719 -1.183594 L 25.808594 -0.761719 L 26.570312 0 L 27.078125 0.0859375 L 27.839844 0 L 28.515625 0 L 29.445312 -0.0859375 L 30.546875 -0.0859375 L 32.746094 -0.339844 L 34.523438 -0.59375 L 35.621094 -0.59375 L 36.554688 -0.761719 L 36.976562 -0.847656 L 37.230469 -1.945312 L 36.636719 -3.554688 L 36.46875 -4.316406 L 36.382812 -4.90625 L 36.300781 -5.921875 L 35.707031 -7.363281 L 35.539062 -8.546875 L 34.609375 -11.59375 L 34.4375 -12.691406 L 34.015625 -13.960938 L 34.015625 -14.46875 L 33.675781 -15.570312 L 33.507812 -16.246094 L 33.253906 -16.839844 L 33.085938 -18.023438 L 32.914062 -18.53125 L 32.660156 -19.628906 L 32.40625 -20.136719 L 32.238281 -21.238281 L 32.152344 -21.914062 L 31.816406 -22.421875 L 31.644531 -23.523438 L 31.644531 -24.285156 L 31.222656 -25.554688 L 30.96875 -26.230469 L 30.96875 -26.992188 L 31.5625 -27.078125 L 32.746094 -27.667969 L 34.4375 -28.769531 L 35.621094 -30.039062 L 36.046875 -30.460938 L 36.976562 -31.5625 L 37.230469 -32.070312 L 37.90625 -33.167969 L 38.246094 -33.929688 L 38.5 -34.523438 L 39.261719 -35.621094 L 39.683594 -36.636719 L 39.9375 -37.230469 L 40.109375 -37.738281 L 40.277344 -38.332031 L 40.613281 -39.347656 L 40.867188 -40.191406 L 41.039062 -41.546875 L 41.292969 -42.898438 L 41.292969 -43.492188 L 41.207031 -44.761719 L 41.292969 -45.355469 L 41.546875 -46.539062 L 41.546875 -47.214844 L 41.292969 -48.824219 L 41.292969 -49.414062 L 41.121094 -51.023438 L 40.867188 -52.375 L 40.277344 -53.5625 L 39.683594 -54.578125 L 39.347656 -55 L 38.921875 -55.507812 L 38.585938 -55.847656 L 37.570312 -56.4375 L 37.144531 -56.691406 L 36.636719 -56.945312 L 35.875 -57.453125 L 35.285156 -57.621094 L 34.523438 -57.960938 L 33.59375 -58.382812 L 32.914062 -58.554688 L 31.5625 -58.554688 L 30.628906 -58.722656 L 29.363281 -58.808594 L 28.261719 -58.976562 L 27.5 -58.976562 L 26.230469 -59.144531 L 25.554688 -59.316406 L 24.707031 -59.230469 L 24.117188 -59.144531 L 20.476562 -59.144531 L 15.398438 -59.230469 L 14.214844 -59.230469 L 13.371094 -59.0625 L 12.777344 -58.382812 L 12.4375 -57.960938 L 12.523438 -57.03125 L 12.183594 -56.355469 L 12.183594 -55.675781 L 12.101562 -55.085938 L 12.015625 -54.40625 L 11.675781 -52.039062 L 11.421875 -50.683594 L 11.167969 -49.667969 L 11 -49.078125 L 11 -48.570312 L 10.914062 -47.46875 L 10.914062 -46.960938 L 10.832031 -46.453125 L 10.578125 -45.269531 L 10.324219 -43.914062 L 10.070312 -42.730469 L 9.984375 -42.222656 L 9.898438 -41.039062 L 9.5625 -40.023438 L 9.476562 -39.515625 L 9.476562 -38.921875 L 9.390625 -38.414062 L 9.222656 -37.316406 L 9.136719 -36.722656 L 9.054688 -36.214844 L 9.054688 -35.621094 L 8.628906 -33.847656 L 8.628906 -33.167969 L 8.460938 -31.984375 L 8.292969 -30.882812 L 8.207031 -30.375 L 8.039062 -29.445312 L 7.871094 -28.855469 L 7.871094 -28.347656 L 7.617188 -27.839844 L 7.445312 -27.246094 L 7.363281 -26.230469 L 7.445312 -25.722656 L 7.277344 -25.214844 L 6.855469 -24.621094 L 6.855469 -23.863281 L 6.769531 -23.183594 L 6.683594 -22.59375 L 6.347656 -21.40625 L 6.347656 -20.730469 L 6.261719 -19.460938 L 6.09375 -18.617188 L 6.09375 -17.855469 L 5.667969 -16.332031 L 5.667969 -15.0625 L 5.332031 -14.382812 L 5.414062 -13.707031 L 5.332031 -13.117188 L 5.160156 -12.4375 L 5.078125 -11.253906 L 4.824219 -10.578125 L 4.90625 -9.984375 L 4.652344 -9.308594 L 4.652344 -8.714844 L 4.398438 -7.53125 L 4.316406 -6.9375 L 4.316406 -6.429688 L 4.0625 -5.839844 L 4.0625 -5.246094 L 3.890625 -4.738281 L 3.890625 -4.144531 L 3.808594 -3.214844 L 3.722656 -2.371094 L 3.46875 -1.523438 L 3.46875 -0.761719 L 3.636719 -0.253906 L 4.398438 -0.0859375 L 7.023438 0.0859375 L 8.121094 0.0859375 Z M 22.167969 -34.691406 L 20.730469 -34.863281 L 20.816406 -35.539062 L 20.730469 -36.128906 L 20.816406 -36.722656 L 21.070312 -38.078125 L 21.238281 -38.839844 L 21.152344 -39.601562 L 21.40625 -40.363281 L 21.578125 -41.628906 L 21.578125 -42.222656 L 21.832031 -43.578125 L 22 -44.253906 L 22.085938 -45.355469 L 22.167969 -46.621094 L 22.339844 -47.976562 L 22.59375 -48.570312 L 22.847656 -49.5 L 23.609375 -49.753906 L 25.636719 -49.667969 L 27.5 -49.414062 L 28.261719 -48.992188 L 28.855469 -48.398438 L 29.277344 -47.636719 L 29.53125 -45.863281 L 29.617188 -44 L 29.53125 -42.644531 L 29.277344 -41.96875 L 29.277344 -41.292969 L 28.683594 -40.109375 L 28.601562 -39.601562 L 28.429688 -38.921875 L 28.007812 -37.824219 L 27.414062 -37.316406 L 27.078125 -36.808594 L 26.484375 -36.128906 L 25.890625 -35.792969 L 25.046875 -35.285156 L 24.539062 -34.945312 L 23.523438 -34.691406 Z M 22.167969 -34.691406 "/></g></g></g><g fill="#222220" fill-opacity="1"><g transform="translate(441.551844, 101.443176)"><g><path d="M 18.363281 0.847656 L 19.207031 0.761719 L 21.070312 0.761719 L 22.421875 0.507812 L 23.609375 0.253906 L 24.03125 0.167969 L 25.808594 -0.0859375 L 27.078125 -0.59375 L 28.175781 -1.101562 L 28.855469 -1.609375 L 29.363281 -1.863281 L 30.375 -2.539062 L 31.390625 -3.808594 L 32.152344 -4.90625 L 32.492188 -5.5 L 33.085938 -6.769531 L 33.253906 -7.363281 L 33.421875 -7.871094 L 33.761719 -8.460938 L 34.183594 -9.5625 L 34.4375 -10.324219 L 34.609375 -11 L 34.863281 -11.421875 L 35.03125 -13.03125 L 35.285156 -13.621094 L 35.621094 -14.808594 L 35.792969 -16.160156 L 35.960938 -17.09375 L 36.128906 -18.109375 L 36.214844 -18.699219 L 36.46875 -19.714844 L 36.554688 -20.308594 L 36.722656 -21.40625 L 36.890625 -21.914062 L 36.808594 -22.507812 L 36.976562 -23.015625 L 37.230469 -24.117188 L 37.230469 -24.621094 L 37.316406 -25.214844 L 37.398438 -25.722656 L 37.484375 -26.398438 L 37.652344 -27.414062 L 37.652344 -28.09375 L 37.824219 -29.191406 L 37.824219 -31.308594 L 36.808594 -31.730469 L 35.03125 -31.730469 L 33.847656 -31.816406 L 33.253906 -31.730469 L 30.207031 -31.730469 L 28.855469 -31.816406 L 27.5 -31.730469 L 26.824219 -31.816406 L 24.792969 -31.730469 L 24.367188 -31.222656 L 24.285156 -30.882812 L 23.863281 -29.023438 L 23.777344 -28.347656 L 23.609375 -27.5 L 23.355469 -25.46875 L 22.929688 -23.183594 L 22.929688 -22.167969 L 23.4375 -21.660156 L 25.382812 -21.660156 L 25.976562 -21.578125 L 26.144531 -21.152344 L 25.722656 -17.855469 L 25.214844 -15.90625 L 24.960938 -15.0625 L 24.707031 -14.300781 L 24.285156 -13.285156 L 23.945312 -12.523438 L 23.355469 -11.761719 L 22.421875 -11.167969 L 21.40625 -10.832031 L 19.800781 -10.832031 L 18.191406 -11.085938 L 17.347656 -11.507812 L 17.09375 -11.761719 L 16.753906 -12.355469 L 16.246094 -13.117188 L 16.246094 -13.960938 L 16.160156 -14.808594 L 16.160156 -16.078125 L 16.246094 -17.261719 L 16.332031 -18.363281 L 16.414062 -18.871094 L 16.5 -19.460938 L 16.585938 -20.5625 L 16.667969 -21.746094 L 16.667969 -22.675781 L 16.921875 -23.609375 L 17.175781 -24.453125 L 17.175781 -25.046875 L 17.261719 -26.230469 L 17.429688 -26.738281 L 17.515625 -27.839844 L 17.683594 -28.429688 L 17.9375 -29.53125 L 18.277344 -31.136719 L 18.363281 -32.070312 L 18.617188 -33.167969 L 18.871094 -33.929688 L 18.953125 -34.691406 L 19.121094 -35.539062 L 19.375 -36.128906 L 19.546875 -37.230469 L 19.628906 -37.824219 L 19.96875 -38.5 L 20.136719 -39.515625 L 20.308594 -40.109375 L 20.390625 -40.613281 L 20.730469 -41.375 L 20.730469 -41.96875 L 20.984375 -42.5625 L 21.070312 -43.238281 L 21.324219 -44.253906 L 21.832031 -45.355469 L 22.339844 -46.285156 L 22.421875 -46.792969 L 22.675781 -47.382812 L 23.015625 -47.976562 L 23.269531 -48.484375 L 23.945312 -49.160156 L 24.707031 -49.585938 L 25.300781 -49.753906 L 27.160156 -49.753906 L 28.007812 -49.414062 L 28.515625 -48.90625 L 28.9375 -48.316406 L 29.023438 -47.808594 L 29.109375 -46.875 L 29.191406 -46.285156 L 28.9375 -44.761719 L 29.023438 -44 L 28.855469 -43.40625 L 28.683594 -42.308594 L 28.515625 -40.953125 L 28.429688 -40.023438 L 28.515625 -39.347656 L 29.363281 -39.007812 L 30.292969 -38.921875 L 32.660156 -38.921875 L 33.507812 -38.839844 L 34.863281 -38.921875 L 36.300781 -38.839844 L 37.992188 -38.921875 L 38.753906 -39.429688 L 39.261719 -40.53125 L 39.429688 -41.800781 L 39.515625 -42.5625 L 39.601562 -43.578125 L 39.769531 -44.59375 L 39.769531 -45.183594 L 39.855469 -46.199219 L 39.855469 -47.128906 L 39.9375 -48.230469 L 39.9375 -51.53125 L 39.855469 -52.628906 L 39.769531 -53.5625 L 39.429688 -54.492188 L 39.261719 -55.253906 L 39.007812 -55.59375 L 38.753906 -56.101562 L 37.570312 -57.285156 L 36.554688 -58.128906 L 35.367188 -58.554688 L 33.929688 -59.144531 L 33.339844 -59.398438 L 31.898438 -59.652344 L 30.800781 -59.652344 L 30.121094 -59.824219 L 29.023438 -59.992188 L 27.921875 -60.078125 L 25.636719 -59.992188 L 23.101562 -59.992188 L 21.914062 -59.738281 L 20.5625 -59.570312 L 19.460938 -59.230469 L 18.363281 -58.808594 L 17.261719 -58.214844 L 16.160156 -57.707031 L 15.0625 -56.859375 L 14.128906 -55.847656 L 13.792969 -55.421875 L 13.539062 -54.914062 L 13.199219 -54.492188 L 12.777344 -53.5625 L 12.355469 -52.800781 L 12.183594 -52.207031 L 11.929688 -51.699219 L 11.421875 -50.601562 L 11.167969 -49.921875 L 10.914062 -49.414062 L 10.578125 -48.230469 L 10.238281 -47.214844 L 10.152344 -46.792969 L 9.730469 -45.777344 L 9.476562 -45.269531 L 9.308594 -44.675781 L 9.054688 -44.167969 L 8.96875 -43.578125 L 8.714844 -43.070312 L 8.628906 -42.5625 L 8.460938 -41.96875 L 8.375 -41.039062 L 8.039062 -40.277344 L 7.953125 -39.601562 L 7.785156 -38.5 L 7.53125 -37.570312 L 7.191406 -36.382812 L 7.109375 -35.792969 L 6.855469 -34.945312 L 6.9375 -34.183594 L 6.683594 -33.085938 L 6.261719 -31.308594 L 6.09375 -30.121094 L 5.753906 -28.9375 L 5.667969 -28.261719 L 5.585938 -26.90625 L 5.246094 -25.722656 L 5.160156 -24.453125 L 4.90625 -23.269531 L 4.90625 -22.167969 L 4.570312 -21.070312 L 4.738281 -20.476562 L 4.570312 -19.375 L 4.484375 -18.785156 L 4.398438 -17.683594 L 4.316406 -17.175781 L 4.230469 -16.585938 L 4.230469 -15.484375 L 4.144531 -15.144531 L 4.144531 -13.960938 L 3.976562 -13.117188 L 3.890625 -11.59375 L 4.230469 -9.816406 L 4.230469 -9.308594 L 4.484375 -8.714844 L 4.824219 -7.871094 L 4.90625 -7.191406 L 5.160156 -6.347656 L 5.414062 -5.585938 L 6.007812 -4.992188 L 6.601562 -3.976562 L 6.855469 -3.554688 L 7.191406 -3.128906 L 8.039062 -2.199219 L 8.714844 -1.863281 L 9.898438 -0.929688 L 11.085938 -0.339844 L 12.523438 0 L 13.371094 0.253906 L 14.808594 0.59375 L 15.316406 0.59375 L 16.667969 0.761719 L 17.261719 0.761719 Z M 18.363281 0.847656 "/></g></g></g><g fill="#222220" fill-opacity="1"><g transform="translate(483.433855, 101.443176)"><g><path d="M 12.4375 0.0859375 L 13.117188 0 L 14.46875 -0.0859375 L 16.246094 -0.0859375 L 16.753906 -0.167969 L 17.855469 -0.0859375 L 19.207031 -0.167969 L 27.246094 -0.167969 L 27.5 -1.101562 L 27.667969 -1.863281 L 27.753906 -3.300781 L 28.007812 -4.570312 L 28.09375 -5.160156 L 28.261719 -5.667969 L 28.429688 -6.261719 L 28.429688 -7.363281 L 28.769531 -9.222656 L 28.855469 -9.898438 L 29.023438 -10.832031 L 29.109375 -11.167969 L 29.191406 -11.847656 L 28.601562 -12.101562 L 26.230469 -12.015625 L 24.367188 -12.101562 L 23.183594 -12.183594 L 18.191406 -12.183594 L 17.007812 -12.355469 L 16.667969 -12.691406 L 16.667969 -13.371094 L 17.007812 -15.570312 L 17.261719 -17.09375 L 17.429688 -17.683594 L 17.515625 -18.53125 L 17.683594 -19.292969 L 17.9375 -20.136719 L 18.277344 -22.507812 L 18.53125 -23.609375 L 18.871094 -24.539062 L 19.628906 -24.539062 L 20.730469 -24.621094 L 21.660156 -24.621094 L 23.101562 -24.539062 L 25.214844 -24.621094 L 25.976562 -24.621094 L 27.246094 -24.707031 L 28.09375 -24.707031 L 28.261719 -24.875 L 28.429688 -26.0625 L 28.683594 -27.414062 L 28.855469 -28.601562 L 29.109375 -29.277344 L 29.109375 -29.867188 L 29.363281 -31.136719 L 29.53125 -31.730469 L 29.785156 -32.914062 L 29.953125 -33.847656 L 29.953125 -34.523438 L 30.121094 -35.539062 L 29.617188 -36.214844 L 28.9375 -36.382812 L 26.738281 -36.382812 L 25.128906 -36.214844 L 22.167969 -36.300781 L 20.644531 -36.300781 L 20.816406 -37.824219 L 21.070312 -38.667969 L 20.984375 -39.347656 L 21.152344 -39.9375 L 21.40625 -41.121094 L 21.578125 -42.308594 L 21.832031 -43.914062 L 21.832031 -44.59375 L 22.085938 -45.101562 L 22.085938 -46.285156 L 22.167969 -46.875 L 22.421875 -47.890625 L 24.453125 -47.976562 L 29.953125 -47.976562 L 30.96875 -48.0625 L 34.523438 -48.0625 L 35.367188 -48.144531 L 35.621094 -49.246094 L 35.707031 -49.753906 L 36.046875 -50.9375 L 36.046875 -51.613281 L 36.300781 -52.882812 L 36.382812 -53.390625 L 36.46875 -53.984375 L 36.722656 -54.578125 L 36.722656 -55.085938 L 36.890625 -57.199219 L 36.890625 -57.707031 L 37.144531 -58.636719 L 36.722656 -59.230469 L 35.960938 -59.316406 L 35.113281 -59.398438 L 34.355469 -59.316406 L 32.492188 -59.316406 L 30.039062 -59.230469 L 29.363281 -59.316406 L 27.414062 -59.398438 L 21.070312 -59.316406 L 19.207031 -59.230469 L 18.363281 -59.230469 L 17.683594 -59.316406 L 17.09375 -59.316406 L 16.078125 -59.230469 L 15.484375 -59.316406 L 14.976562 -59.230469 L 13.539062 -59.230469 L 12.863281 -58.722656 L 12.777344 -58.214844 L 12.523438 -57.707031 L 12.269531 -56.691406 L 12.4375 -56.101562 L 12.355469 -55.59375 L 12.269531 -54.492188 L 12.183594 -53.984375 L 12.015625 -53.476562 L 11.929688 -52.375 L 11.761719 -51.785156 L 11.847656 -51.277344 L 11.59375 -50.683594 L 11.59375 -50.09375 L 11.339844 -49.585938 L 11.167969 -48.398438 L 10.832031 -47.300781 L 10.746094 -46.707031 L 10.832031 -46.199219 L 10.746094 -45.609375 L 10.578125 -44.929688 L 10.238281 -44.421875 L 10.152344 -42.644531 L 9.898438 -42.054688 L 9.816406 -39.683594 L 9.476562 -38.414062 L 9.222656 -37.230469 L 9.308594 -36.722656 L 9.136719 -36.128906 L 8.882812 -35.453125 L 8.375 -32.914062 L 8.039062 -32.40625 L 8.039062 -31.816406 L 7.953125 -31.222656 L 7.871094 -30.546875 L 7.617188 -29.953125 L 7.445312 -28.683594 L 7.109375 -27.5 L 7.109375 -26.230469 L 6.769531 -24.453125 L 6.601562 -23.863281 L 6.347656 -22.59375 L 6.261719 -22 L 6.007812 -21.40625 L 5.753906 -20.308594 L 5.839844 -19.800781 L 5.5 -18.785156 L 5.5 -18.363281 L 5.332031 -17.261719 L 5.160156 -16.585938 L 5.160156 -15.992188 L 4.992188 -14.636719 L 4.652344 -13.960938 L 4.484375 -12.863281 L 4.398438 -11.675781 L 4.316406 -11.085938 L 4.144531 -10.40625 L 4.144531 -9.816406 L 3.976562 -9.222656 L 3.976562 -8.460938 L 3.722656 -7.785156 L 3.636719 -6.429688 L 3.300781 -5.160156 L 3.128906 -3.808594 L 2.960938 -2.539062 L 2.792969 -1.777344 L 2.539062 -1.015625 L 2.792969 -0.253906 L 3.554688 -0.0859375 L 8.039062 -0.0859375 L 8.628906 0 L 10.832031 0 Z M 12.4375 0.0859375 "/></g></g></g><g fill="#222220" fill-opacity="1"><g transform="translate(82.291973, 140.143783)"><g><path d="M 1.46875 -23.753906 L 3.285156 -23.753906 C 4.226562 -23.753906 4.644531 -23.367188 5.34375 -22.214844 L 12.121094 -11.109375 L 12.121094 -2.0625 C 12.121094 -1.433594 11.804688 -1.117188 11.175781 -1.117188 L 7.824219 -1.117188 L 7.824219 0 L 19.628906 0 L 19.628906 -1.117188 L 16.277344 -1.117188 C 15.648438 -1.117188 15.335938 -1.433594 15.335938 -2.0625 L 15.335938 -11.703125 L 20.328125 -21.203125 C 20.957031 -22.320312 21.796875 -23.753906 23.507812 -23.753906 L 24.519531 -23.753906 L 24.519531 -24.871094 L 15.859375 -24.871094 L 15.859375 -23.753906 L 16.90625 -23.753906 C 18.304688 -23.753906 18.828125 -22.738281 18.828125 -21.761719 C 18.828125 -21.167969 18.441406 -19.945312 18.234375 -19.628906 L 14.671875 -12.785156 L 9.152344 -22.109375 C 8.976562 -22.355469 8.976562 -22.667969 8.976562 -22.878906 C 8.976562 -23.367188 9.5 -23.753906 10.199219 -23.753906 L 12.296875 -23.753906 L 12.296875 -24.871094 L 1.46875 -24.871094 Z M 1.46875 -23.753906 "/></g></g></g><g fill="#222220" fill-opacity="1"><g transform="translate(107.720385, 140.143783)"><g><path d="M 4.75 -7.964844 C 4.75 -12.433594 5.726562 -15.507812 8.664062 -15.507812 C 11.597656 -15.507812 12.574219 -12.433594 12.574219 -7.964844 C 12.574219 -3.492188 11.597656 -0.417969 8.664062 -0.417969 C 5.726562 -0.417969 4.75 -3.492188 4.75 -7.964844 Z M 1.675781 -7.964844 C 1.675781 -3.351562 4.75 0.417969 8.664062 0.417969 C 12.574219 0.417969 15.648438 -3.351562 15.648438 -7.964844 C 15.648438 -12.574219 12.574219 -16.347656 8.664062 -16.347656 C 4.75 -16.347656 1.675781 -12.574219 1.675781 -7.964844 Z M 1.675781 -7.964844 "/></g></g></g><g fill="#222220" fill-opacity="1"><g transform="translate(125.04524, 140.143783)"><g><path d="M 1.117188 -15.089844 L 2.585938 -15.089844 C 3.144531 -15.089844 3.351562 -14.878906 3.351562 -14.320312 L 3.351562 -4.785156 C 3.351562 -3.5625 3.703125 -1.503906 4.960938 -0.488281 C 5.625 0.0703125 6.390625 0.417969 7.789062 0.417969 C 9.640625 0.417969 11.421875 -0.90625 12.644531 -3.25 L 12.785156 -3.214844 L 12.785156 0 L 17.535156 0 L 17.535156 -0.839844 L 16.066406 -0.839844 C 15.507812 -0.839844 15.300781 -1.046875 15.300781 -1.605469 L 15.300781 -15.929688 L 10.550781 -15.929688 L 10.550781 -15.089844 L 12.015625 -15.089844 C 12.574219 -15.089844 12.785156 -14.878906 12.785156 -14.320312 L 12.785156 -7.054688 C 12.785156 -3.386719 10.058594 -0.417969 8.105469 -0.417969 C 6.289062 -0.417969 5.867188 -2.410156 5.867188 -4.085938 L 5.867188 -15.929688 L 1.117188 -15.929688 Z M 1.117188 -15.089844 "/></g></g></g><g fill="#222220" fill-opacity="1"><g transform="translate(143.697399, 140.143783)"><g><path d="M 1.328125 0 L 8.3125 0 L 8.3125 -0.839844 L 6.847656 -0.839844 C 6.289062 -0.839844 6.078125 -1.046875 6.078125 -1.605469 L 6.078125 -6.21875 C 6.078125 -7.578125 6.460938 -9.675781 6.984375 -11.175781 C 8.453125 -15.300781 10.023438 -15.507812 10.828125 -15.507812 C 11.597656 -15.507812 11.804688 -15.265625 11.804688 -14.914062 C 11.804688 -14.566406 11.351562 -14.148438 11.039062 -13.972656 C 10.480469 -13.65625 10.09375 -13.0625 10.09375 -12.433594 C 10.09375 -11.527344 10.828125 -11.109375 11.667969 -11.109375 C 13.132812 -11.109375 13.621094 -12.574219 13.621094 -13.484375 C 13.621094 -14.84375 12.890625 -16.347656 10.96875 -16.347656 C 9.78125 -16.347656 8.523438 -15.578125 7.789062 -14.496094 C 7.089844 -13.484375 6.707031 -12.679688 6.21875 -11.421875 L 6.078125 -11.457031 L 6.078125 -15.929688 L 1.328125 -15.929688 L 1.328125 -15.089844 L 2.792969 -15.089844 C 3.351562 -15.089844 3.5625 -14.878906 3.5625 -14.320312 L 3.5625 -1.605469 C 3.5625 -1.046875 3.351562 -0.839844 2.792969 -0.839844 L 1.328125 -0.839844 Z M 1.328125 0 "/></g></g></g><g fill="#222220" fill-opacity="1"><g transform="translate(158.018344, 140.143783)"><g/></g></g><g fill="#222220" fill-opacity="1"><g transform="translate(167.798501, 140.143783)"><g><path d="M 2.164062 0 L 12.296875 0 L 12.296875 -1.117188 L 9.78125 -1.117188 C 9.117188 -1.117188 8.835938 -1.433594 8.835938 -2.0625 L 8.835938 -22.808594 C 8.835938 -23.472656 9.117188 -23.753906 9.78125 -23.753906 L 12.296875 -23.753906 L 12.296875 -24.871094 L 2.164062 -24.871094 L 2.164062 -23.753906 L 4.679688 -23.753906 C 5.34375 -23.753906 5.625 -23.472656 5.625 -22.808594 L 5.625 -2.0625 C 5.625 -1.433594 5.34375 -1.117188 4.679688 -1.117188 L 2.164062 -1.117188 Z M 2.164062 0 "/></g></g></g><g fill="#222220" fill-opacity="1"><g transform="translate(181.560581, 140.143783)"><g><path d="M 2.164062 0 L 21.65625 0 L 22.074219 -9.359375 L 21.203125 -9.359375 C 21.203125 -9.359375 20.816406 -5.066406 19.210938 -2.898438 C 18.164062 -1.535156 16.382812 -1.117188 15.371094 -1.117188 L 9.78125 -1.117188 C 9.117188 -1.117188 8.835938 -1.433594 8.835938 -2.0625 L 8.835938 -12.015625 L 11.910156 -12.015625 C 14.601562 -12.015625 14.773438 -9.222656 14.773438 -7.160156 L 15.683594 -7.160156 L 15.683594 -18.09375 L 14.773438 -18.09375 C 14.773438 -16.066406 14.601562 -13.273438 11.910156 -13.273438 L 8.835938 -13.273438 L 8.835938 -22.808594 C 8.835938 -23.472656 9.117188 -23.753906 9.78125 -23.753906 L 15.402344 -23.753906 C 16.800781 -23.753906 18.40625 -23.367188 19.492188 -21.726562 C 20.886719 -19.59375 20.921875 -16.976562 20.921875 -16.976562 L 21.796875 -16.976562 L 21.65625 -24.871094 L 2.164062 -24.871094 L 2.164062 -23.753906 L 4.679688 -23.753906 C 5.34375 -23.753906 5.625 -23.472656 5.625 -22.808594 L 5.625 -2.0625 C 5.625 -1.433594 5.34375 -1.117188 4.679688 -1.117188 L 2.164062 -1.117188 Z M 2.164062 0 "/></g></g></g><g fill="#222220" fill-opacity="1"><g transform="translate(205.66169, 140.143783)"><g><path d="M 2.164062 0 L 20.921875 0 L 21.378906 -9.394531 L 20.503906 -9.394531 C 20.503906 -9.394531 20.121094 -5.101562 18.511719 -2.933594 C 17.464844 -1.570312 15.683594 -1.117188 14.671875 -1.117188 L 9.78125 -1.117188 C 9.117188 -1.117188 8.835938 -1.433594 8.835938 -2.0625 L 8.835938 -22.808594 C 8.835938 -23.472656 9.117188 -23.753906 9.78125 -23.753906 L 12.855469 -23.753906 L 12.855469 -24.871094 L 2.164062 -24.871094 L 2.164062 -23.753906 L 4.679688 -23.753906 C 5.34375 -23.753906 5.625 -23.472656 5.625 -22.808594 L 5.625 -2.0625 C 5.625 -1.433594 5.34375 -1.117188 4.679688 -1.117188 L 2.164062 -1.117188 Z M 2.164062 0 "/></g></g></g><g fill="#222220" fill-opacity="1"><g transform="translate(229.064211, 140.143783)"><g><path d="M 2.515625 -15.507812 L 3.386719 -15.507812 C 3.386719 -15.542969 3.492188 -19.734375 5.203125 -21.9375 C 5.625 -22.496094 6.847656 -23.753906 8.664062 -23.753906 L 10.269531 -23.753906 C 10.96875 -23.753906 11.210938 -23.472656 11.210938 -22.808594 L 11.210938 -2.0625 C 11.210938 -1.433594 10.898438 -1.117188 10.269531 -1.117188 L 6.917969 -1.117188 L 6.917969 0 L 18.722656 0 L 18.722656 -1.117188 L 15.371094 -1.117188 C 14.742188 -1.117188 14.425781 -1.433594 14.425781 -2.0625 L 14.425781 -22.808594 C 14.425781 -23.472656 14.742188 -23.753906 15.371094 -23.753906 L 16.976562 -23.753906 C 18.792969 -23.753906 20.015625 -22.496094 20.433594 -21.9375 C 22.144531 -19.734375 22.25 -15.507812 22.25 -15.507812 L 23.125 -15.507812 L 22.84375 -24.871094 L 2.792969 -24.871094 Z M 2.515625 -15.507812 "/></g></g></g><g fill="#222220" fill-opacity="1"><g transform="translate(254.003624, 140.143783)"><g><path d="M 3.074219 -10.6875 L 3.316406 0.347656 L 4.121094 0.347656 L 4.261719 -1.046875 C 4.367188 -1.816406 4.574219 -2.550781 5.167969 -2.550781 C 5.414062 -2.550781 6.042969 -2.097656 6.917969 -1.433594 C 7.894531 -0.699219 10.023438 0.628906 12.261719 0.628906 C 17.605469 0.628906 19.839844 -3.109375 19.839844 -6.566406 C 19.839844 -8.90625 18.476562 -11.597656 15.160156 -12.925781 L 8.417969 -15.613281 C 6.566406 -16.347656 5.238281 -17.324219 5.238281 -19.5625 C 5.238281 -22.703125 7.230469 -24.382812 9.710938 -24.382812 C 13.132812 -24.382812 16.488281 -20.886719 17.605469 -15.789062 L 18.441406 -15.789062 L 18.09375 -24.871094 L 17.253906 -24.871094 L 17.117188 -23.613281 C 17.046875 -23.125 16.871094 -22.773438 16.417969 -22.773438 C 15.996094 -22.773438 15.542969 -23.089844 15.089844 -23.402344 C 14.390625 -23.925781 12.296875 -25.5 9.988281 -25.5 C 6.496094 -25.5 3.144531 -23.753906 3.144531 -18.933594 C 3.144531 -15.71875 4.75 -13.308594 8.523438 -11.804688 L 13.832031 -9.675781 C 15.996094 -8.800781 17.746094 -7.753906 17.746094 -5.238281 C 17.746094 -3.003906 16.453125 -0.488281 12.261719 -0.488281 C 8.277344 -0.488281 4.367188 -5.449219 3.914062 -10.6875 Z M 3.074219 -10.6875 "/></g></g></g><g fill="#222220" fill-opacity="1"><g transform="translate(275.659693, 140.143783)"><g/></g></g><g fill="#222220" fill-opacity="1"><g transform="translate(285.43985, 140.143783)"><g><path d="M 2.164062 0 L 12.855469 0 L 12.855469 -1.117188 L 9.78125 -1.117188 C 9.046875 -1.117188 8.835938 -1.433594 8.835938 -2.0625 L 8.835938 -11.738281 L 13.832031 -11.738281 C 18.792969 -11.738281 22.214844 -14.53125 22.214844 -18.375 C 22.214844 -22.214844 18.792969 -24.871094 13.832031 -24.871094 L 2.164062 -24.871094 L 2.164062 -23.753906 L 4.679688 -23.753906 C 5.34375 -23.753906 5.625 -23.472656 5.625 -22.808594 L 5.625 -2.0625 C 5.625 -1.433594 5.34375 -1.117188 4.679688 -1.117188 L 2.164062 -1.117188 Z M 8.835938 -12.855469 L 8.835938 -22.808594 C 8.835938 -23.472656 9.117188 -23.753906 9.78125 -23.753906 L 14.285156 -23.753906 C 16.90625 -23.753906 18.511719 -21.273438 18.511719 -18.375 C 18.511719 -15.472656 16.90625 -12.855469 14.285156 -12.855469 Z M 8.835938 -12.855469 "/></g></g></g><g fill="#222220" fill-opacity="1"><g transform="translate(309.191661, 140.143783)"><g><path d="M 1.328125 0 L 8.3125 0 L 8.3125 -0.839844 L 6.847656 -0.839844 C 6.289062 -0.839844 6.078125 -1.046875 6.078125 -1.605469 L 6.078125 -6.21875 C 6.078125 -7.578125 6.460938 -9.675781 6.984375 -11.175781 C 8.453125 -15.300781 10.023438 -15.507812 10.828125 -15.507812 C 11.597656 -15.507812 11.804688 -15.265625 11.804688 -14.914062 C 11.804688 -14.566406 11.351562 -14.148438 11.039062 -13.972656 C 10.480469 -13.65625 10.09375 -13.0625 10.09375 -12.433594 C 10.09375 -11.527344 10.828125 -11.109375 11.667969 -11.109375 C 13.132812 -11.109375 13.621094 -12.574219 13.621094 -13.484375 C 13.621094 -14.84375 12.890625 -16.347656 10.96875 -16.347656 C 9.78125 -16.347656 8.523438 -15.578125 7.789062 -14.496094 C 7.089844 -13.484375 6.707031 -12.679688 6.21875 -11.421875 L 6.078125 -11.457031 L 6.078125 -15.929688 L 1.328125 -15.929688 L 1.328125 -15.089844 L 2.792969 -15.089844 C 3.351562 -15.089844 3.5625 -14.878906 3.5625 -14.320312 L 3.5625 -1.605469 C 3.5625 -1.046875 3.351562 -0.839844 2.792969 -0.839844 L 1.328125 -0.839844 Z M 1.328125 0 "/></g></g></g><g fill="#222220" fill-opacity="1"><g transform="translate(323.512606, 140.143783)"><g><path d="M 4.75 -8.800781 C 4.75 -11.875 5.589844 -15.507812 8.105469 -15.507812 C 10.617188 -15.507812 11.386719 -11.875 11.386719 -8.800781 Z M 1.675781 -7.964844 C 1.675781 -3.074219 4.402344 0.417969 8.664062 0.417969 C 12.050781 0.417969 13.796875 -2.199219 14.042969 -5.449219 L 13.203125 -5.449219 C 12.714844 -1.328125 10.410156 -0.417969 8.734375 -0.417969 C 5.519531 -0.417969 4.75 -3.5625 4.75 -7.824219 L 14.390625 -7.824219 C 14.390625 -11.597656 12.574219 -16.347656 8.242188 -16.347656 C 4.261719 -16.347656 1.675781 -12.226562 1.675781 -7.964844 Z M 1.675781 -7.964844 "/></g></g></g><g fill="#222220" fill-opacity="1"><g transform="translate(339.580016, 140.143783)"><g><path d="M 6.078125 -5.902344 L 6.078125 -9.152344 C 6.078125 -12.363281 8.140625 -15.507812 10.339844 -15.507812 C 12.75 -15.507812 13.34375 -12.296875 13.34375 -7.964844 C 13.34375 -3.632812 12.75 -0.417969 10.339844 -0.417969 C 7.648438 -0.417969 6.078125 -3.285156 6.078125 -5.902344 Z M 0.976562 7.195312 L 0.976562 8.035156 L 8.664062 8.035156 L 8.664062 7.195312 L 6.847656 7.195312 C 6.289062 7.195312 6.078125 6.984375 6.078125 6.425781 L 6.078125 -1.46875 L 6.253906 -1.570312 C 7.054688 -0.628906 8.59375 0.417969 10.269531 0.417969 C 14.042969 0.417969 16.417969 -3.351562 16.417969 -7.964844 C 16.417969 -12.574219 14.179688 -16.347656 10.410156 -16.347656 C 8.800781 -16.347656 7.160156 -15.089844 6.289062 -13.621094 L 6.078125 -13.691406 L 6.078125 -15.929688 L 0.976562 -15.929688 L 0.976562 -15.089844 L 2.792969 -15.089844 C 3.351562 -15.089844 3.5625 -14.878906 3.5625 -14.320312 L 3.5625 6.425781 C 3.5625 6.984375 3.351562 7.195312 2.792969 7.195312 Z M 0.976562 7.195312 "/></g></g></g></svg>