<svg height="512" viewBox="0 0 512 512" width="512" xmlns="http://www.w3.org/2000/svg"><g id="FILLED_OUTLINE"><circle cx="256" cy="256" fill="#5791d6" r="232"/><circle cx="256" cy="256" fill="#f4c36e" r="96"/><path d="m256 24c-5.22949 0-10.41406.19043-15.55737.53125l29.51537 35.41846a15.37538 15.37538 0 0 1 -2.20655 21.84912h-.00024a15.37544 15.37544 0 0 0 7.43066 27.22705l13.57349 1.93921a15.37492 15.37492 0 0 1 11.00977 7.3103l8.64233 14.40357a33.09351 33.09351 0 0 0 33.81787 15.61694l19.28491-3.21436a15.375 15.375 0 0 1 11.75293 2.866l19.13483 14.3508a15.3751 15.3751 0 0 0 16.10132 1.4519l17.32519-8.66235a15.3747 15.3747 0 0 1 12.58618-.52368l32.04731 12.81909c-34.81591-84.16211-117.71508-143.3833-214.458-143.3833z" fill="#31c292"/><path d="m284.644 421.03394a19.98276 19.98276 0 0 0 3.356-11.08423v-.35694a19.98245 19.98245 0 0 0 -24.82861-19.38577h-.00025a19.9825 19.9825 0 0 1 -13.78271-1.51269l-1.98853-.99431a19.98244 19.98244 0 0 0 -28.53076 13.95386l-.38914 1.94624a19.982 19.982 0 0 1 -14.7478 15.46679l-11.70239 2.92579a19.9808 19.9808 0 0 0 -12.28809 9.10473l-21.27026 35.45044a232.79975 232.79975 0 0 0 154.47654 14.40015l-29.3645-29.3645a19.98223 19.98223 0 0 1 -2.49659-25.21387z" fill="#31c292"/><path d="m138.127 350.38062a28.49166 28.49166 0 0 0 -6.88281-11.13648l-15.09819-15.09814a28.49049 28.49049 0 0 1 0-40.292 28.49077 28.49077 0 0 0 7.24853-27.97314l-6.0293-21.1023a28.49026 28.49026 0 0 0 -24.81494-20.54663l-63.66284-5.78759a232.32764 232.32764 0 0 0 84.165 230.29272l28.78711-34.54468a28.49087 28.49087 0 0 0 5.1416-27.249z" fill="#31c292"/><path d="m160 256c0 2.69458.1167 5.36157.33447 8h31.66553v-16h-31.66553c-.21777 2.63843-.33447 5.30542-.33447 8z" fill="#ffd997"/><path d="m264 160.33447c-2.63843-.21777-5.30542-.33447-8-.33447s-5.36157.1167-8 .33447v31.66553h16z" fill="#ffd997"/><path d="m320 264h31.66553c.21777-2.63843.33447-5.30542.33447-8s-.1167-5.36157-.33447-8h-31.66553z" fill="#ffd997"/><path d="m248 351.66553c2.63843.21777 5.30542.33447 8 .33447s5.36157-.1167 8-.33447v-31.66553h-16z" fill="#ffd997"/><path d="m213.65723 309.65723-11.31446-11.31446 45.65723-45.65625v-44.68652h16v48a8.00235 8.00235 0 0 1 -2.34277 5.65723z" fill="#ffdeae"/><circle cx="104" cy="104" fill="#f4c36e" r="48"/><path d="m176 96h16v16h-16z" fill="#ffdeae"/><path d="m96 176h16v16h-16z" fill="#ffdeae"/><path d="m16 96h16v16h-16z" fill="#ffdeae"/><path d="m39.999 36.686h16.001v22.627h-16.001z" fill="#ffdeae" transform="matrix(.707 -.707 .707 .707 -19.882 48)"/><path d="m151.999 148.686h16.001v22.627h-16.001z" fill="#ffdeae" transform="matrix(.707 -.707 .707 .707 -66.274 160)"/><path d="m148.686 39.999h22.627v16.001h-22.627z" fill="#ffdeae" transform="matrix(.707 -.707 .707 .707 12.922 127.196)"/><path d="m36.686 151.999h22.627v16.001h-22.627z" fill="#ffdeae" transform="matrix(.707 -.707 .707 .707 -99.078 80.804)"/><path d="m416 368 .38208.68775c17.77451 31.99412-5.36041 71.31225-41.96037 71.31225h-.00008a48.00363 48.00363 0 1 0 41.57837-72z" fill="#eab0c3"/><path d="m91.14746 472.36816a271.4684 271.4684 0 0 1 -73.08984-84.48339l13.98638-7.76954a255.56766 255.56766 0 0 0 68.80859 79.53223z" fill="#dfdfdf"/><path d="m126.085 495.02539c-6.26953-3.415-12.47851-7.12207-18.4541-11.01855l8.73828-13.40235c5.625 3.667 11.46777 7.15625 17.36816 10.37012z" fill="#dfdfdf"/><path d="m480.97461 133.7373a258.98881 258.98881 0 0 0 -69.82715-81.38476l9.70508-12.7207a275.10155 275.10155 0 0 1 74.17285 86.45316z" fill="#dfdfdf"/><path d="m395.63086 41.39551c-5.625-3.667-11.46777-7.15625-17.36816-10.37012l7.6523-14.05078c6.26953 3.415 12.47851 7.12207 18.4541 11.01855z" fill="#dfdfdf"/><path d="m96 16h16v16h-16z" fill="#ffdeae"/><path d="m328.907 376h2.35164a11.44661 11.44661 0 0 1 8.094 3.35263l7.645 7.645a11.44662 11.44662 0 0 1 2.76523 11.71371l-3.15392 9.46176a11.44661 11.44661 0 0 1 -10.8592 7.8269 11.4466 11.4466 0 0 1 -10.62791-7.19545l-6.84271-17.10677a11.44661 11.44661 0 0 1 10.62787-15.69778z" fill="#31c292"/><path d="m479.09863 192.15015-42.73828 7.123a13.79373 13.79373 0 0 0 -7.48608 3.85254l-16.83427 16.83431a13.79316 13.79316 0 0 1 -9.75342 4.04 13.79361 13.79361 0 0 0 -13.26294 17.583l8.74658 30.613a13.79342 13.79342 0 0 1 -3.50927 13.543l-8.50757 8.50757a13.79332 13.79332 0 0 0 0 19.50684l8.50762 8.50759a13.79342 13.79342 0 0 0 13.543 3.50927l42.06274-12.01782a13.79225 13.79225 0 0 1 11.44067 1.78589l15.89136 10.59424a233.25851 233.25851 0 0 0 1.8999-133.98242z" fill="#31c292"/><g fill="#2c2c51"><path d="m315.37622 472.06177-26.135-26.135a12.01228 12.01228 0 0 1 -1.49707-15.11914l3.55566-5.335a27.892 27.892 0 0 0 4.70019-15.52243v-.35743a27.98286 27.98286 0 0 0 -34.77051-27.14648 11.97977 11.97977 0 0 1 -8.26465-.9082l-1.9873-.99317a27.98172 27.98172 0 0 0 -39.95313 19.53908l-.38964 1.94825a12.03384 12.03384 0 0 1 -8.8418 9.27343l-11.7041 2.92579a27.80457 27.80457 0 0 0 -17.208 12.75l-17.54932 29.24926a222.489 222.489 0 0 1 -30.772-18.80639l23.42578-28.11084a36.26541 36.26541 0 0 0 6.58594-34.90039l-8.85449-26.56153a36.68522 36.68522 0 0 0 -8.81543-14.26465l-15.09766-15.09765a20.49018 20.49018 0 0 1 0-28.97852 36.512 36.512 0 0 0 9.2832-35.82812l-6.02929-21.10157a36.721 36.721 0 0 0 -31.78321-26.3164l-54.54-4.958q1.87609-7.478 4.26074-14.82617l-15.21094-4.96094a240.06788 240.06788 0 0 0 228.21581 314.48044 237.60706 237.60706 0 0 0 106.42969-24.832l-7.10547-14.336a222.5362 222.5362 0 0 1 -39.948 15.22977zm-283.37622-216.06177a225.48869 225.48869 0 0 1 3.37622-38.93311l56.449 5.13135a20.62135 20.62135 0 0 1 17.84765 14.77832l6.0293 21.10254a20.49925 20.49925 0 0 1 -5.21289 20.11719 36.53451 36.53451 0 0 0 0 51.60742l15.09765 15.09766a20.5726 20.5726 0 0 1 4.9502 8.00976l8.85449 26.5625a20.36291 20.36291 0 0 1 -3.69726 19.59766l-23.73291 28.47925q-7.40772-6.241-14.353-13.15894a222.531 222.531 0 0 1 -65.60845-158.3916zm137.9624 206.9458 16.63916-27.73291a11.90532 11.90532 0 0 1 7.36817-5.459l11.70312-2.92579a28.10436 28.10436 0 0 0 20.65137-21.6582l.38965-1.94726a11.98158 11.98158 0 0 1 17.10937-8.36621l1.98828.99316a27.98757 27.98757 0 0 0 19.29883 2.11816 11.98268 11.98268 0 0 1 14.88965 11.62502v.35743a11.94152 11.94152 0 0 1 -2.01367 6.64648l-3.55567 5.33594a28.05936 28.05936 0 0 0 3.4961 35.30859l19.03442 19.03442a226.04414 226.04414 0 0 1 -126.99878-13.32983z"/><path d="m256 152a104 104 0 1 0 104 104 104.11791 104.11791 0 0 0 -104-104zm8 191.63257v-23.63257h-16v23.63257a88.14455 88.14455 0 0 1 -79.63257-79.63257h23.63257v-16h-23.63257a88.14455 88.14455 0 0 1 79.63257-79.63257v23.63257h16v-23.63257a88.14455 88.14455 0 0 1 79.63257 79.63257h-23.63257v16h23.63257a88.14455 88.14455 0 0 1 -79.63257 79.63257z"/><path d="m248 252.68652-45.65723 45.65625 11.31446 11.31446 48-48a8.00235 8.00235 0 0 0 2.34277-5.65723v-48h-16z"/><path d="m387.59766 168.69824a23.24666 23.24666 0 0 0 24.47851 2.207l17.3252-8.66211a7.39005 7.39005 0 0 1 6.03906-.251l28.95752 11.583q2.38074 6.02269 4.4187 12.17773l-33.77173 5.62891a21.68381 21.68381 0 0 0 -11.82812 6.08691l-16.834 16.834a5.75263 5.75263 0 0 1 -4.09667 1.69732 21.79464 21.79464 0 0 0 -20.95508 27.78125l8.74707 30.6123a5.79454 5.79454 0 0 1 -1.4746 5.68848l-8.50684 8.50684a21.82051 21.82051 0 0 0 0 30.82226l8.50684 8.50684a21.80274 21.80274 0 0 0 21.39843 5.54492l42.0625-12.01855a5.79653 5.79653 0 0 1 4.80567.75l10.82763 7.21875a224.12978 224.12978 0 0 1 -11.40575 26.99609l14.29688 7.18164a240.04762 240.04762 0 0 0 -214.58888-347.59082 239.79867 239.79867 0 0 0 -74.48047 11.78418l4.96094 15.21094a222.93258 222.93258 0 0 1 50.44753-10.18555l26.88452 32.2627a7.37463 7.37463 0 0 1 -1.05859 10.47949 23.37571 23.37571 0 0 0 11.29687 41.39453l13.57227 1.93848a7.34549 7.34549 0 0 1 5.28222 3.50683l8.64161 14.40332a40.86641 40.86641 0 0 0 41.9941 19.39258l19.28613-3.21484a7.41616 7.41616 0 0 1 5.63672 1.375zm78.14648 140.18262a21.76556 21.76556 0 0 0 -18.07519-2.82129l-42.0625 12.01855a5.8 5.8 0 0 1 -5.68848-1.4746l-8.50684-8.50684a5.79861 5.79861 0 0 1 0-8.19336l8.50684-8.50684a21.80833 21.80833 0 0 0 5.54492-21.39843l-8.74707-30.61328a5.79334 5.79334 0 0 1 5.57031-7.38477 21.65241 21.65241 0 0 0 15.41114-6.38281l16.834-16.834a5.7539 5.7539 0 0 1 3.14453-1.61816l35.61743-5.93652a226.82372 226.82372 0 0 1 -.69507 112.22192zm-105.54883-171.69043-19.28515 3.21484a24.95538 24.95538 0 0 1 -25.64258-11.84277l-8.64258-14.40332a23.28446 23.28446 0 0 0 -16.73926-11.11426l-13.57226-1.93847a7.37546 7.37546 0 0 1 -3.56543-13.06055 23.37351 23.37351 0 0 0 3.35547-33.2168l-19.01294-22.81592a224.52952 224.52952 0 0 1 197.66211 120.47193l-13.37085-5.34839a23.39672 23.39672 0 0 0 -19.13477.7959l-17.32617 8.66211a7.33375 7.33375 0 0 1 -7.72266-.69629l-19.13574-14.35254a23.50609 23.50609 0 0 0 -17.86719-4.35547z"/><path d="m104 160a56 56 0 1 0 -56-56 56.0629 56.0629 0 0 0 56 56zm0-96a40 40 0 1 1 -40 40 40.04584 40.04584 0 0 1 40-40z"/><path d="m176 96h16v16h-16z"/><path d="m96 176h16v16h-16z"/><path d="m16 96h16v16h-16z"/><path d="m39.999 36.686h16.001v22.627h-16.001z" transform="matrix(.707 -.707 .707 .707 -19.882 48)"/><path d="m151.999 148.686h16.001v22.627h-16.001z" transform="matrix(.707 -.707 .707 .707 -66.274 160)"/><path d="m148.686 39.999h22.627v16.001h-22.627z" transform="matrix(.707 -.707 .707 .707 12.922 127.196)"/><path d="m36.686 151.999h22.627v16.001h-22.627z" transform="matrix(.707 -.707 .707 .707 -99.078 80.804)"/><path d="m416 360a8.00067 8.00067 0 0 0 -6.99414 11.88477l.38281.6875a40.00075 40.00075 0 0 1 -34.96679 59.42773 8.00017 8.00017 0 0 0 -6.92481 12.00586 55.77561 55.77561 0 0 0 48.49805 27.99414c1.125 0 2.25781-.0332 3.3916-.09961 28.3916-1.67773 51.4834-25.27051 52.57129-53.71a56.00087 56.00087 0 0 0 -55.95801-58.19039zm39.96973 57.5791a40.01958 40.01958 0 0 1 -66.47657 28.40332 56.16151 56.16151 0 0 0 39.207-67.9414 40.09077 40.09077 0 0 1 27.26953 39.53808z"/><path d="m32.044 380.11523-13.98633 7.76954a271.4684 271.4684 0 0 0 73.08984 84.48339l9.70508-12.7207a255.56766 255.56766 0 0 1 -68.80859-79.53223z"/><path d="m107.63086 484.00684c5.97559 3.89648 12.18457 7.60351 18.4541 11.01855l7.65234-14.05078c-5.90039-3.21387-11.74316-6.70313-17.36816-10.37012z"/><path d="m480.97461 133.7373 14.05078-7.65234a275.10155 275.10155 0 0 0 -74.17285-86.45312l-9.70508 12.7207a258.98881 258.98881 0 0 1 69.82715 81.38476z"/><path d="m404.36914 27.99316c-5.97559-3.89648-12.18457-7.60351-18.4541-11.01855l-7.65234 14.05078c5.90039 3.21387 11.74316 6.70313 17.36816 10.37012z"/><path d="m96 16h16v16h-16z"/><path d="m331.25879 368h-2.35156a19.4463 19.4463 0 0 0 -18.05567 26.66992l6.84278 17.10547a19.44668 19.44668 0 0 0 36.50488-1.07324l3.15234-9.46094a19.33723 19.33723 0 0 0 -4.69629-19.90039l-7.6455-7.64551a19.31962 19.31962 0 0 0 -13.75098-5.69531zm10.91406 28.18164-3.15234 9.46094a3.44722 3.44722 0 0 1 -6.47071.1914l-6.8428-17.10644a3.44681 3.44681 0 0 1 3.20023-4.72754h2.35156a3.41983 3.41983 0 0 1 2.43652 1.00977l7.64551 7.6455a3.42565 3.42565 0 0 1 .83203 3.52637z"/></g></g></svg>