<?xml version="1.0" encoding="iso-8859-1"?>
<!-- Generator: Adobe Illustrator 19.0.0, SVG Export Plug-In . SVG Version: 6.00 Build 0)  -->
<svg version="1.1" id="Capa_1" xmlns="http://www.w3.org/2000/svg" xmlns:xlink="http://www.w3.org/1999/xlink" x="0px" y="0px"
	 viewBox="0 0 512 512" style="enable-background:new 0 0 512 512;" xml:space="preserve">
<path style="fill:#FFC853;" d="M502.495,260.843L260.84,502.499c-2.675,2.675-7.011,2.675-9.686,0L9.499,260.843
	c-2.675-2.675-2.675-7.011,0-9.686L251.155,9.502c2.675-2.675,7.011-2.675,9.686,0l241.655,241.655
	C505.17,253.832,505.17,258.169,502.495,260.843z"/>
<path style="fill:#EDB043;" d="M502.492,260.84L260.837,502.496c-2.67,2.68-7.009,2.68-9.679,0l-62.244-62.244l251.334-251.334
	l62.244,62.244C505.172,253.831,505.172,258.171,502.492,260.84z"/>
<path style="fill:#3F414C;" d="M384.846,217.165l-89.87-62.705c-3.315-2.313-7.86,0.059-7.86,4.101v28.26
	c0,2.761-2.239,4.999-5,4.999h-90.856c-0.022,0-0.042,0.003-0.064,0.003h-15.583c-2.761,0-4.999,2.239-4.999,4.999v154.586
	c0,2.761,2.239,5,4.999,5h48.892c2.761,0,4.999-2.239,4.999-5v-95.698c0-2.761,2.239-4.999,4.999-4.999h47.612
	c2.761,0,5,2.239,5,4.999v28.26c0,4.042,4.547,6.412,7.86,4.101l89.87-62.705C387.698,223.376,387.698,219.155,384.846,217.165z"/>
<path style="fill:#232323;" d="M384.844,225.364l-89.871,62.704c-3.31,2.32-7.859-0.06-7.859-4.1v-28.037l76.642-53.475
	l21.088,14.709C387.694,219.155,387.694,223.374,384.844,225.364z"/>
<path d="M255.996,511.997c-3.674,0-7.348-1.398-10.145-4.195L137.646,399.597c-2.929-2.93-2.929-7.677,0-10.606
	c2.931-2.928,7.678-2.928,10.606,0l107.745,107.745l240.736-240.736L255.997,15.265L15.261,256.001l95.106,95.105
	c2.929,2.93,2.929,7.677,0,10.606c-2.93,2.927-7.677,2.928-10.606,0L4.196,266.147c-5.594-5.595-5.594-14.698,0-20.293
	L245.851,4.198c5.595-5.594,14.697-5.592,20.292,0l241.655,241.655c2.71,2.711,4.202,6.313,4.202,10.146
	c0,3.833-1.492,7.436-4.202,10.146L266.143,507.801C263.346,510.599,259.671,511.997,255.996,511.997z"/>
<path d="M224.505,363.908h-48.892c-6.892,0-12.499-5.606-12.499-12.499V196.823c0-6.892,5.606-12.499,12.499-12.499h15.415
	c0.08-0.003,0.158-0.004,0.232-0.004h88.356v-25.76c0-4.674,2.574-8.92,6.718-11.082c4.145-2.161,9.101-1.844,12.933,0.832
	l22.861,15.95c3.396,2.37,4.229,7.044,1.858,10.441c-2.37,3.396-7.044,4.229-10.441,1.858l-18.93-13.208v23.468
	c0,6.892-5.606,12.499-12.499,12.499h-90.678c-0.08,0.003-0.161,0.004-0.242,0.004h-13.085v149.587h43.893V255.71
	c0-6.892,5.606-12.499,12.499-12.499h47.612c6.892,0,12.499,5.606,12.499,12.499v23.469l83.002-57.913l-21.368-14.909
	c-3.396-2.37-4.229-7.044-1.858-10.441c2.37-3.396,7.042-4.23,10.441-1.858l24.307,16.959c3.348,2.335,5.346,6.166,5.346,10.25
	c0,4.083-1.999,7.914-5.347,10.25l-89.869,62.705c-3.834,2.675-8.789,2.993-12.934,0.832c-4.145-2.162-6.718-6.408-6.718-11.082
	v-25.76h-42.613v93.199C237.004,358.3,231.398,363.908,224.505,363.908z"/>
<g>
</g>
<g>
</g>
<g>
</g>
<g>
</g>
<g>
</g>
<g>
</g>
<g>
</g>
<g>
</g>
<g>
</g>
<g>
</g>
<g>
</g>
<g>
</g>
<g>
</g>
<g>
</g>
<g>
</g>
</svg>
