<?xml version="1.0" encoding="iso-8859-1"?>
<!-- Generator: Adobe Illustrator 19.0.0, SVG Export Plug-In . SVG Version: 6.00 Build 0)  -->
<svg version="1.1" id="Capa_1" xmlns="http://www.w3.org/2000/svg" xmlns:xlink="http://www.w3.org/1999/xlink" x="0px" y="0px"
	 viewBox="0 0 512 512" style="enable-background:new 0 0 512 512;" xml:space="preserve">
<path style="fill:#FFC853;" d="M502.494,260.843L260.842,502.495c-2.675,2.675-7.011,2.675-9.686,0L9.505,260.843
	c-2.675-2.675-2.675-7.011,0-9.686L251.157,9.505c2.675-2.675,7.011-2.675,9.686,0l241.652,241.652
	C505.169,253.832,505.169,258.168,502.494,260.843z"/>
<path style="fill:#EDB043;" d="M502.491,260.839L260.839,502.491c-2.67,2.68-7.009,2.68-9.679,0l-62.243-62.243l251.331-251.331
	l62.243,62.243C505.171,253.83,505.171,258.169,502.491,260.839z"/>
<path style="fill:#3F414C;" d="M339.754,191.823h-15.583c-0.021,0-0.042-0.003-0.064-0.003h-90.855
	c-2.761,0-4.999-2.239-4.999-4.999v-28.26c0-4.042-4.545-6.412-7.86-4.101l-89.869,62.704c-2.852,1.99-2.852,6.21,0,8.2
	l89.869,62.704c3.315,2.313,7.86-0.059,7.86-4.101v-28.26c0-2.761,2.239-4.999,4.999-4.999h47.613c2.761,0,4.999,2.239,4.999,4.999
	v95.697c0,2.761,2.239,4.999,4.999,4.999h48.891c2.761,0,4.999-2.239,4.999-4.999V196.822
	C344.753,194.062,342.515,191.823,339.754,191.823z"/>
<path style="fill:#232323;" d="M130.522,225.363l89.87,62.703c3.31,2.32,7.859-0.06,7.859-4.1v-28.037l-76.641-53.474
	l-21.088,14.708C127.672,219.154,127.672,223.373,130.522,225.363z"/>
<path d="M256,512c-3.833,0-7.436-1.492-10.146-4.202L4.203,266.146c-5.594-5.595-5.594-14.697,0-20.293l29.839-29.839
	c2.93-2.928,7.677-2.928,10.606,0c2.929,2.93,2.929,7.677,0,10.606l-29.38,29.379l240.732,240.732l67.372-67.373
	c2.93-2.928,7.677-2.928,10.606,0c2.929,2.93,2.929,7.677,0,10.606l-67.832,67.833C263.435,510.507,259.832,512,256,512z"/>
<path d="M366.208,404.629c-1.919,0-3.839-0.732-5.303-2.196c-2.929-2.93-2.929-7.677,0-10.606l135.828-135.828L256,15.268
	L83.007,188.261c-2.931,2.929-7.678,2.927-10.606,0c-2.929-2.93-2.929-7.677,0-10.606L245.854,4.202
	C248.564,1.492,252.168,0,255.999,0c3.833,0,7.436,1.492,10.146,4.202l241.652,241.652c5.594,5.595,5.594,14.697,0,20.293
	L371.51,402.433C370.045,403.896,368.126,404.629,366.208,404.629z"/>
<path d="M339.754,363.905h-48.891c-6.892,0-12.499-5.606-12.499-12.499v-93.197h-42.612v25.76c0,4.673-2.574,8.92-6.718,11.082
	c-4.146,2.161-9.102,1.845-12.933-0.832l-89.87-62.705c-3.348-2.335-5.346-6.166-5.346-10.249c0-4.084,1.999-7.915,5.347-10.251
	l89.868-62.704c3.834-2.675,8.79-2.993,12.934-0.832c4.145,2.162,6.718,6.408,6.718,11.082v25.76h88.355
	c0.074,0,0.153,0.001,0.233,0.004h15.414c6.892,0,12.499,5.606,12.499,12.499v154.584
	C352.252,358.299,346.646,363.905,339.754,363.905z M293.362,348.907h43.892V199.323H324.17c-0.081,0-0.162-0.001-0.242-0.004
	h-90.677c-6.892,0-12.499-5.606-12.499-12.499v-23.468l-83,57.912l83,57.913V255.71c0-6.892,5.606-12.499,12.499-12.499h47.611
	c6.892,0,12.499,5.606,12.499,12.499L293.362,348.907L293.362,348.907z M339.754,199.323h0.01H339.754z"/>
<g>
</g>
<g>
</g>
<g>
</g>
<g>
</g>
<g>
</g>
<g>
</g>
<g>
</g>
<g>
</g>
<g>
</g>
<g>
</g>
<g>
</g>
<g>
</g>
<g>
</g>
<g>
</g>
<g>
</g>
</svg>
