<svg height="512" viewBox="0 0 512 512" width="512" xmlns="http://www.w3.org/2000/svg"><path d="m224 24a8 8 0 0 1 8 8v48a0 0 0 0 1 0 0h-16a0 0 0 0 1 0 0v-48a8 8 0 0 1 8-8z" fill="#55525b"/><path d="m88 296h392v160h-392z" fill="#4b55a5"/><path d="m88 328h168v128h-168z" fill="#6478b9"/><path d="m144 360h56a16 16 0 0 1 16 16v80a0 0 0 0 1 0 0h-88a0 0 0 0 1 0 0v-80a16 16 0 0 1 16-16z" fill="#353744"/><path d="m16 264h480a0 0 0 0 1 0 0v16a16 16 0 0 1 -16 16h-448a16 16 0 0 1 -16-16v-16a0 0 0 0 1 0 0z" fill="#d7e6f0"/><path d="m208 264h272a16 16 0 0 1 16 16v16a0 0 0 0 1 0 0h-304a0 0 0 0 1 0 0v-16a16 16 0 0 1 16-16z" fill="#a5c3dc" transform="matrix(-1 0 0 -1 688 560)"/><path d="m32 456h448a16 16 0 0 1 16 16v16a0 0 0 0 1 0 0h-480a0 0 0 0 1 0 0v-16a16 16 0 0 1 16-16z" fill="#d7e6f0"/><path d="m192 456h304a0 0 0 0 1 0 0v16a16 16 0 0 1 -16 16h-272a16 16 0 0 1 -16-16v-16a0 0 0 0 1 0 0z" fill="#a5c3dc" transform="matrix(-1 0 0 -1 688 944)"/><path d="m32 296h64a0 0 0 0 1 0 0v24a8 8 0 0 1 -8 8h-48a8 8 0 0 1 -8-8v-24a0 0 0 0 1 0 0z" fill="#a5c3dc"/><path d="m32 296h24a0 0 0 0 1 0 0v24a8 8 0 0 1 -8 8h-8a8 8 0 0 1 -8-8v-24a0 0 0 0 1 0 0z" fill="#d7e6f0"/><path d="m40 424h48a8 8 0 0 1 8 8v24a0 0 0 0 1 0 0h-64a0 0 0 0 1 0 0v-24a8 8 0 0 1 8-8z" fill="#a5c3dc"/><path d="m40 424h8a8 8 0 0 1 8 8v24a0 0 0 0 1 0 0h-24a0 0 0 0 1 0 0v-24a8 8 0 0 1 8-8z" fill="#d7e6f0"/><path d="m40 328h48v96h-48z" fill="#a5c3dc"/><path d="m40 344h8a16 16 0 0 1 16 16v64a0 0 0 0 1 0 0h-24a0 0 0 0 1 0 0v-80a0 0 0 0 1 0 0z" fill="#d7e6f0"/><path d="m160 296h64a0 0 0 0 1 0 0v24a8 8 0 0 1 -8 8h-48a8 8 0 0 1 -8-8v-24a0 0 0 0 1 0 0z" fill="#a5c3dc"/><path d="m160 296h24a0 0 0 0 1 0 0v24a8 8 0 0 1 -8 8h-8a8 8 0 0 1 -8-8v-24a0 0 0 0 1 0 0z" fill="#d7e6f0"/><path d="m168 424h48a8 8 0 0 1 8 8v24a0 0 0 0 1 0 0h-64a0 0 0 0 1 0 0v-24a8 8 0 0 1 8-8z" fill="#a5c3dc"/><path d="m168 424h8a8 8 0 0 1 8 8v24a0 0 0 0 1 0 0h-24a0 0 0 0 1 0 0v-24a8 8 0 0 1 8-8z" fill="#d7e6f0"/><path d="m168 328h48v96h-48z" fill="#a5c3dc"/><path d="m168 344h8a16 16 0 0 1 16 16v64a0 0 0 0 1 0 0h-24a0 0 0 0 1 0 0v-80a0 0 0 0 1 0 0z" fill="#d7e6f0"/><path d="m16 264 88-88 88 88z" fill="#55525b"/><path d="m104 200-64 64h24l52-52z" fill="#353744"/><path d="m192 264-88-88h297.373a16 16 0 0 1 11.313 4.686l83.314 83.314z" fill="#353744"/><path d="m128 176h48l48 48v-80h-96z" fill="#d7e6f0"/><path d="m224 144h96v80h-96z" fill="#a5c3dc"/><path d="m224 144v-72l-109.449 62.542a5.063 5.063 0 0 0 -2.551 4.4 5.062 5.062 0 0 0 5.062 5.058z" fill="#55525b"/><path d="m224 144v-72l109.449 62.542a5.063 5.063 0 0 1 2.551 4.4 5.062 5.062 0 0 1 -5.062 5.058z" fill="#353744"/><path d="m232 32h32a8 8 0 0 1 8 8v24a8 8 0 0 1 -8 8h-32a0 0 0 0 1 0 0v-40a0 0 0 0 1 0 0z" fill="#f04b37"/><g fill="#2d3787"><rect height="32" rx="8" width="32" x="288" y="328"/><rect height="32" rx="8" width="32" x="352" y="328"/><rect height="32" rx="8" width="32" x="416" y="328"/><rect height="32" rx="8" width="32" x="288" y="392"/><rect height="32" rx="8" width="32" x="352" y="392"/><rect height="32" rx="8" width="32" x="416" y="392"/></g></svg>