<svg height="512pt" viewBox="0 0 512 512" width="512pt" xmlns="http://www.w3.org/2000/svg"><path d="m512 256c0 141.386719-114.613281 256-256 256s-256-114.613281-256-256 114.613281-256 256-256 256 114.613281 256 256zm0 0" fill="#fdbf43"/><path d="m58.183594 60h395.632812c11.046875 0 20 8.953125 20 20v282.445312c0 11.046876-8.953125 20-20 20h-395.632812c-11.046875 0-20-8.953124-20-20v-282.445312c0-11.046875 8.953125-20 20-20zm0 0" fill="#9bb9c3"/><path d="m453.816406 60h-373.816406c-7.402344 0-13.851562 4.03125-17.308594 10.011719 4.050782.101562 7.308594 3.410156 7.308594 7.488281 0 4.140625-3.359375 7.5-7.5 7.5-.878906 0-1.71875-.160156-2.5-.4375v277.882812c0 11.046876 8.953125 20 20 20h373.816406c11.046875 0 20-8.953124 20-20v-282.445312c0-11.046875-8.953125-20-20-20zm-366.316406 25c-4.140625 0-7.5-3.359375-7.5-7.5s3.359375-7.5 7.5-7.5 7.5 3.359375 7.5 7.5-3.359375 7.5-7.5 7.5zm25 0c-4.140625 0-7.5-3.359375-7.5-7.5s3.359375-7.5 7.5-7.5 7.5 3.359375 7.5 7.5-3.359375 7.5-7.5 7.5zm0 0" fill="#b4d2d7"/><path d="m473.816406 121.457031v269.082031c-5.75 9.289063-12.074218 18.183594-18.929687 26.628907-.355469.019531-.707031.054687-1.070313.054687h-395.632812c-.363282 0-.714844-.035156-1.070313-.054687-6.855469-8.449219-13.179687-17.339844-18.929687-26.628907v-295.761718h435.632812zm0 0" fill="#017bad"/><path d="m473.816406 94.777344v295.765625c-5.75 9.285156-12.074218 18.179687-18.929687 26.625-.355469.019531-.707031.054687-1.070313.054687h-373.816406c-11.046875 0-20-8.953125-20-20v-302.445312zm0 0" fill="#028fce"/><path d="m439.441406 356.628906v7.226563c0 5.523437-4.476562 10-10 10h-266.5625c-5.523437 0-10-4.476563-10-10v-7.226563c0-5.523437 4.476563-10 10-10h266.5625c5.523438 0 10 4.476563 10 10zm-183.441406-57.648437c41.351562 0 74.875-33.523438 74.875-74.875 0-41.351563-33.523438-74.875-74.875-74.875s-74.875 33.523437-74.875 74.875c0 41.355469 33.523438 74.875 74.875 74.875zm0 0" fill="#08a8f0"/><path d="m170.105469 373.855469h-87.546875c-5.523438 0-10-4.476563-10-10v-7.226563c0-5.523437 4.476562-10 10-10h87.546875c5.523437 0 10 4.476563 10 10v7.226563c0 5.523437-4.476563 10-10 10zm0 0" fill="#025f80"/><path d="m193.71875 360.242188c0 11.277343-9.144531 20.417968-20.421875 20.417968s-20.417969-9.140625-20.417969-20.417968c0-11.277344 9.140625-20.421876 20.417969-20.421876s20.421875 9.144532 20.421875 20.421876zm100.253906-141.851563-57.664062-37.277344c-4.53125-2.929687-10.503906.320313-10.503906 5.714844v74.554687c0 5.394532 5.972656 8.644532 10.503906 5.714844l57.664062-37.277344c4.148438-2.679687 4.148438-8.75 0-11.429687zm0 0" fill="#fff5f5"/></svg>