<svg id="Capa_1" enable-background="new 0 0 512 512" height="512" viewBox="0 0 512 512" width="512" xmlns="http://www.w3.org/2000/svg"><g><circle cx="256" cy="256" fill="#61a2f9" r="256"/><circle cx="256" cy="256" fill="#bed8fb" r="219.788"/><path d="m416.431 360.724c-.439.671-.881 1.338-1.328 2.003l12.897-22.292c-.353.718-.71 1.433-1.072 2.146 11.365-22.392 18.459-47.317 20.21-73.704v-25.754c-1.751-26.386-8.845-51.312-20.21-73.704.362.713.719 1.428 1.072 2.146l-12.897-22.292c.447.665.89 1.332 1.328 2.003-14.516-22.193-33.513-41.19-55.706-55.706.671.439 1.338.881 2.003 1.328l-22.293-12.898c.718.353 1.433.71 2.146 1.072-22.392-11.365-47.317-18.459-73.704-20.21h-25.755c-26.39 1.752-51.318 8.847-73.713 20.215.716-.363 1.434-.722 2.155-1.077l-22.292 12.897c.665-.447 1.332-.89 2.003-1.328-22.186 14.512-41.179 33.502-55.694 55.687.434-.664.873-1.325 1.315-1.984l-12.896 22.293c-11.068 22.504-17.849 47.495-19.28 73.91.043-.786.09-1.57.142-2.353v25.754c-.052-.783-.099-1.567-.142-2.353 1.43 26.415 8.212 51.407 19.28 73.91l12.897 22.292c-.442-.658-.881-1.32-1.315-1.984 14.515 22.185 33.507 41.175 55.694 55.687-.671-.439-1.338-.881-2.003-1.328l22.292 12.9c-.721-.355-1.439-.714-2.155-1.077 22.394 11.368 47.323 18.463 73.713 20.215h25.755c26.386-1.751 51.311-8.845 73.704-20.21-.713.362-1.428.719-2.146 1.072l22.292-12.897c-.665.447-1.332.89-2.003 1.328 22.192-14.517 41.189-33.514 55.706-55.707z" fill="#f6f9f9"/><path d="m171.565 428c21.834 10.739 46.011 17.443 71.557 19.139 2.369.157 7.823-3.699 5.454-3.856l-5.454-18.402c-9.245 1.37-18.704 2.081-28.33 2.081-13.785 0-27.23-1.457-40.19-4.223l-4.803.921z" fill="#e7ecf1"/><path d="m347.829 164.171c-5.029-5.029-13.182-5.029-18.211 0l-71.779 71.779s-7.011 14.463-7.013 14.462c2.237.826 22.501 2.057 22.159 6.814l74.845-74.844c5.028-5.028 5.028-13.182-.001-18.211z" fill="#5e6b75"/><g fill="#e7ecf1"><path d="m340.435 84c-6.498-3.196-13.202-6.034-20.089-8.49 6.073 4.017 11.903 8.371 17.465 13.035l2.624-1.098z"/><path d="m415.588 154.965c-1.133-1.814.713-3.909-.478-5.681-13.894-20.674-31.71-38.491-52.383-52.386l-4.81 3.75-.997 6.308c14.846 16.417 26.887 35.418 35.368 56.248.895-1.009 22.165-10.056 23.3-8.239z"/><path d="m415.103 362.727 12.897-22.292c10.739-21.834 17.442-46.011 19.138-71.558v-25.754c.123 1.85.219 3.708.289 5.572-1.035-27.604-7.911-53.714-19.427-77.13-1.782-3.624-25.572 13.397-28.506 12.833 4.474 16.238 6.864 33.339 6.864 50.999 0 87.381-58.506 161.097-138.482 184.114.645 1.534-2.182 3.828-2.182 5.596l3.183 22.032c25.547-1.696 49.723-8.399 71.558-19.138l22.292-12.897c-.656.441-1.315.878-1.977 1.311 22.173-14.508 41.154-33.49 55.663-55.663-.433.66-.87 1.319-1.31 1.975z"/></g><path d="m261.916 240.028-57.646-57.646c-6.044-6.044-15.844-6.044-21.888 0s-6.044 15.844 0 21.888l57.646 57.646c-2.234-6.044 15.844-24.122 21.888-21.888z" fill="#808b95"/><path d="m181.082 331.293c-3.017-3.017-3.017-7.909 0-10.927l59.65-59.65c3.017-3.017 7.909-3.017 10.927 0 3.018 3.018 3.017 7.909 0 10.927l-59.65 59.65c-3.018 3.017-7.909 3.017-10.927 0z" fill="#4d5961"/><circle cx="256" cy="256" fill="#da4a54" r="17.028"/><path d="m243.123 87.503v-22.641c4.256-.282 8.55-.427 12.877-.427s8.621.144 12.877.427v22.641c0 7.112-5.765 12.877-12.877 12.877-7.112 0-12.877-5.765-12.877-12.877zm147.648 90.687c3.556 6.159 11.432 8.269 17.591 4.714l19.638-11.339c-3.807-7.74-8.12-15.185-12.897-22.292l-19.618 11.327c-6.16 3.555-8.27 11.431-4.714 17.59zm-56.961-56.961c6.159 3.556 14.035 1.446 17.591-4.713l11.327-19.618c-7.108-4.778-14.553-9.091-22.293-12.898l-11.339 19.639c-3.555 6.159-1.445 14.034 4.714 17.59zm74.551 207.867c-6.159-3.556-14.035-1.446-17.591 4.713-3.556 6.159-1.446 14.035 4.713 17.59l19.618 11.327c4.777-7.108 9.091-14.553 12.897-22.292zm-287.132 4.714c-3.556-6.159-11.432-8.269-17.591-4.714l-19.638 11.339c3.807 7.74 8.12 15.185 12.897 22.292l19.619-11.327c6.159-3.555 8.269-11.431 4.713-17.59zm-17.59-150.906c6.159 3.556 14.034 1.446 17.59-4.713 3.556-6.159 1.446-14.035-4.713-17.59l-19.619-11.327c-4.777 7.106-9.09 14.551-12.897 22.291zm-38.777 85.973h22.641c7.112 0 12.877-5.765 12.877-12.877 0-7.112-5.765-12.877-12.877-12.877h-22.641c-.283 4.256-.427 8.55-.427 12.877s.145 8.621.427 12.877zm286.539 126.607c-3.556-6.159-11.431-8.269-17.59-4.713-6.159 3.556-8.269 11.432-4.713 17.591l11.337 19.638c7.74-3.807 15.185-8.12 22.292-12.897zm95.737-152.361h-22.641c-7.112 0-12.877 5.765-12.877 12.877 0 7.112 5.765 12.877 12.877 12.877h22.641c.282-4.256.427-8.55.427-12.877s-.145-8.621-.427-12.877zm-264.235 165.238c3.556-6.159 1.446-14.035-4.713-17.591-6.159-3.556-14.035-1.446-17.59 4.713l-11.327 19.618c7.108 4.777 14.553 9.091 22.292 12.897zm85.974 38.777v-22.641c0-7.112-5.765-12.877-12.877-12.877-7.112 0-12.877 5.765-12.877 12.877v22.641c4.256.282 8.55.427 12.877.427s8.621-.145 12.877-.427zm-108.278-330.622c3.556 6.159 11.431 8.269 17.59 4.713 6.159-3.556 8.269-11.432 4.713-17.591l-11.337-19.638c-7.74 3.807-15.185 8.12-22.292 12.897z" fill="#808b95"/><path d="m150.448 415.886c7.829 2.791 15.893 5.088 24.155 6.851l-3.038 5.263c-7.314-3.597-14.365-7.647-21.117-12.114zm245.036-255.287c-1.232.711-2.301 1.596-3.196 2.604 2.799 6.874 5.21 13.948 7.206 21.194 2.934.565 6.077.117 8.867-1.494l19.639-11.338c-3.807-7.74-8.12-15.185-12.897-22.292zm-126.607 263.898c0-1.768-.357-3.453-1.002-4.987-8.046 2.316-16.31 4.118-24.753 5.37v22.258c4.256.282 8.55.427 12.877.427s8.621-.144 12.877-.427v-22.641zm142.743-168.497c0 7.112 5.765 12.877 12.877 12.877h22.641c.282-4.256.427-8.55.427-12.877s-.144-8.621-.427-12.877h-22.641c-7.112 0-12.877 5.765-12.877 12.877zm16.38 84.435-19.639-11.339c-6.159-3.556-14.035-1.446-17.591 4.713-3.556 6.159-1.446 14.035 4.713 17.59l19.618 11.327c4.779-7.106 9.092-14.551 12.899-22.291zm-94.19 50.336c-6.159 3.556-8.269 11.432-4.714 17.591l11.339 19.638c7.74-3.807 15.185-8.12 22.292-12.897l-11.327-19.618c-3.555-6.16-11.431-8.27-17.59-4.714zm23.11-283.816 5.807-10.058c-7.107-4.777-14.552-9.09-22.292-12.897l-2.624 4.546c6.786 5.69 13.172 11.843 19.109 18.409z" fill="#5e6b75"/></g></svg>