<svg id="Layer_1" height="512" viewBox="0 0 50 50" width="512" xmlns="http://www.w3.org/2000/svg"><g><g><path d="m42.1 18.2v1.5h-35.7c-1 0-1.7-.8-1.7-1.7 0-1 .8-1.7 1.7-1.7h33.7c1.1 0 2 .8 2 1.9z" fill="#444445"/><g><path d="m38.4 31.7-16.1 7.5c-1 .5-2.1 0-2.6-.9l-12.6-27c-.5-1 0-2.1.9-2.6l16.1-7.5c1-.4 2.1 0 2.6.9l12.6 27c.5 1 .1 2.2-.9 2.6z" fill="#74a842"/><path d="m26.2 6.8 9.2 19.8c-1.8.8-2.5 2.9-1.7 4.7l-8.9 4.1c-.8-1.8-2.9-2.5-4.7-1.7l-9.1-19.8c1.8-.8 2.5-2.9 1.7-4.7l8.9-4.1c.8 1.7 2.9 2.5 4.6 1.7z" fill="#83bd57"/></g><path d="m38 4.4v29.8c0 1.1-.9 1.9-1.9 1.9h-17.9c-1.1 0-1.9-.9-1.9-1.9v-29.8c0-1.1.9-1.9 1.9-1.9h17.8c1.1 0 2 .9 2 1.9z" fill="#74a842"/><path d="m35.6 8.4v21.8c-2 0-3.5 1.6-3.5 3.5h-9.8c0-2-1.6-3.5-3.5-3.5v-21.8c1.9 0 3.5-1.6 3.5-3.5h9.7c0 2 1.6 3.5 3.6 3.5z" fill="#83bd57"/><g><path d="m29 10.1c0 1-.8 1.8-1.8 1.8s-1.8-.8-1.8-1.8.8-1.8 1.8-1.8c.9-.1 1.8.8 1.8 1.8z" fill="#74a842"/></g><circle cx="27.1" cy="19.3" fill="#74a842" r="5.2"/><path d="m23.4 19.1h.7c.1-.8.4-1.6 1-2.2l.8.7c-.4.5-.7 1-.8 1.6h1.7c.2-.7.4-1.2.6-1.5s.7-.5 1.2-.5.9.2 1.3.5c.3.4.5.8.5 1.4h.4v.6h-.5c0 .7-.3 1.3-.7 1.9l-.7-.6c.3-.4.5-.8.5-1.3h-1.7c-.2.7-.4 1.2-.7 1.5s-.7.5-1.2.5-1-.2-1.3-.6-.5-.9-.5-1.5h-.6zm5.8-.6c-.1-.2-.3-.2-.5-.2s-.4.1-.5.2-.2.3-.3.7h1.6c-.1-.3-.1-.5-.3-.7zm-3.9 1.9c.1.2.3.3.5.3s.4-.1.5-.2.2-.4.3-.7h-1.6c.1.2.1.4.3.6z" fill="#fff"/><path d="m45.3 21.6v25.4c0 1.1-.9 1.9-1.9 1.9h-36.3c-1.3 0-2.4-1.1-2.4-2.4v-28.5c0 .9.8 1.7 1.7 1.7h37c1.1 0 1.9.9 1.9 1.9z" fill="#696967"/><path d="m45.3 31v6.7h-7.2c-1.9 0-3.4-1.5-3.4-3.4 0-.9.4-1.8 1-2.4s1.5-1 2.4-1h7.2z" fill="#444445"/><path d="m40.6 34.4c0 1.2-1 2.2-2.2 2.2s-2.2-1-2.2-2.2 1-2.2 2.2-2.2 2.2 1 2.2 2.2z" fill="#c7c7c7"/><path d="m39.6 34.4c0 .6-.5 1.1-1.2 1.1-.6 0-1.2-.5-1.2-1.1s.5-1.2 1.2-1.2c.6 0 1.2.5 1.2 1.2z" fill="#efefed"/><g fill="#444445"><g><path d="m5.7 21.5h-1v1h1c.3 0 .5-.2.5-.5s-.2-.5-.5-.5z"/><path d="m19.9 21.5h-1.9c-.3 0-.5.2-.5.5s.2.5.5.5h1.9c.3 0 .5-.2.5-.5s-.2-.5-.5-.5z"/><path d="m10.4 21.5h-1.9c-.3 0-.5.2-.5.5s.2.5.5.5h1.9c.3 0 .5-.2.5-.5s-.2-.5-.5-.5z"/><path d="m24.6 21.5h-1.9c-.3 0-.5.2-.5.5s.2.5.5.5h1.9c.3 0 .5-.2.5-.5s-.2-.5-.5-.5z"/><path d="m15.1 21.5h-1.9c-.3 0-.5.2-.5.5s.2.5.5.5h1.9c.3 0 .5-.2.5-.5s-.2-.5-.5-.5z"/><path d="m34.1 21.5h-1.9c-.3 0-.5.2-.5.5s.2.5.5.5h1.9c.3 0 .5-.2.5-.5s-.3-.5-.5-.5z"/><path d="m29.3 21.5h-1.9c-.3 0-.5.2-.5.5s.2.5.5.5h1.9c.3 0 .5-.2.5-.5s-.2-.5-.5-.5z"/><path d="m38.8 21.5h-1.9c-.3 0-.5.2-.5.5s.2.5.5.5h1.9c.3 0 .5-.2.5-.5s-.2-.5-.5-.5z"/><path d="m42.6 21.5h-1.4c-.3 0-.5.2-.5.5s.2.5.5.5h.9v.5c0 .3.2.5.5.5s.5-.2.5-.5v-1c0-.3-.2-.5-.5-.5z"/><path d="m42.6 24.8c-.3 0-.5.2-.5.5v.8c0 .3.2.5.5.5s.5-.2.5-.5v-.8c0-.2-.2-.5-.5-.5z"/><path d="m42.6 27.5c-.3 0-.5.2-.5.5v1c0 .3.2.5.5.5s.5-.2.5-.5v-1c0-.3-.2-.5-.5-.5z"/></g><g><path d="m5.7 47.2h-1v-1h1c.3 0 .5.2.5.5s-.2.5-.5.5z"/><path d="m19.9 47.2h-1.9c-.3 0-.5-.2-.5-.5s.2-.5.5-.5h1.9c.3 0 .5.2.5.5s-.2.5-.5.5z"/><path d="m10.4 47.2h-1.9c-.3 0-.5-.2-.5-.5s.2-.5.5-.5h1.9c.3 0 .5.2.5.5s-.2.5-.5.5z"/><path d="m24.6 47.2h-1.9c-.3 0-.5-.2-.5-.5s.2-.5.5-.5h1.9c.3 0 .5.2.5.5s-.2.5-.5.5z"/><path d="m15.1 47.2h-1.9c-.3 0-.5-.2-.5-.5s.2-.5.5-.5h1.9c.3 0 .5.2.5.5s-.2.5-.5.5z"/><path d="m34.1 47.2h-1.9c-.3 0-.5-.2-.5-.5s.2-.5.5-.5h1.9c.3 0 .5.2.5.5s-.3.5-.5.5z"/><path d="m29.3 47.2h-1.9c-.3 0-.5-.2-.5-.5s.2-.5.5-.5h1.9c.3 0 .5.2.5.5s-.2.5-.5.5z"/><path d="m38.8 47.2h-1.9c-.3 0-.5-.2-.5-.5s.2-.5.5-.5h1.9c.3 0 .5.2.5.5s-.2.5-.5.5z"/><path d="m42.6 47.2h-1.4c-.3 0-.5-.2-.5-.5s.2-.5.5-.5h.9v-.5c0-.3.2-.5.5-.5s.5.2.5.5v1c0 .3-.2.5-.5.5z"/><path d="m42.6 43.9c-.3 0-.5-.2-.5-.5v-.8c0-.3.2-.5.5-.5s.5.2.5.5v.8c0 .2-.2.5-.5.5z"/><path d="m42.6 41.2c-.3 0-.5-.2-.5-.5v-1c0-.3.2-.5.5-.5s.5.2.5.5v1c0 .3-.2.5-.5.5z"/></g></g></g></g></svg>