<?xml version="1.0" encoding="UTF-8"?>
<svg id="Layer_1" data-name="Layer 1" xmlns="http://www.w3.org/2000/svg" xmlns:xlink="http://www.w3.org/1999/xlink" viewBox="0 0 6848.49 2541.26">
  <defs>
    <style>
      .cls-1, .cls-2, .cls-3 {
        fill: #fff;
      }

      .cls-4 {
        fill: #41c552;
      }

      .cls-2 {
        fill-rule: evenodd;
      }

      .cls-5 {
        fill: #e0e0e0;
      }

      .cls-6 {
        fill: #002e00;
        font-size: 468.68px;
      }

      .cls-6, .cls-3 {
        font-family: Arial-BoldMT, Arial;
        font-weight: 700;
      }

      .cls-3 {
        font-size: 374.7px;
      }

      .cls-7 {
        fill: url(#linear-gradient);
      }
    </style>
    <linearGradient id="linear-gradient" x1="1067.82" y1="1959.76" x2="1067.82" y2="3148.09" gradientTransform="translate(-914.24 6468.32) scale(2.04 -2.04)" gradientUnits="userSpaceOnUse">
      <stop offset="0" stop-color="#20b038"/>
      <stop offset="1" stop-color="#60d66a"/>
    </linearGradient>
  </defs>
  <rect class="cls-4" x="1080.7" y="333.31" width="5767.78" height="1756.5" rx="878.25" ry="878.25"/>
  <g>
    <path class="cls-5" d="M2161.31,369.3C1923.46,131.29,1607.2,.15,1270.25,0,575.91,0,10.85,564.87,10.58,1259.19c-.08,221.94,57.91,438.59,168.13,629.55L0,2541.26l667.77-175.1c183.98,100.34,391.14,153.21,601.94,153.3h.54c694.23,0,1259.37-564.97,1259.67-1259.25,.12-336.5-130.8-652.89-368.61-890.91h0Zm-891.05,1937.48h-.41c-187.9-.1-372.16-50.55-532.89-145.92l-38.25-22.67-396.27,103.9,105.8-386.22-24.92-39.6c-104.81-166.65-160.15-359.25-160.07-557,.23-577.09,469.88-1046.58,1047.4-1046.58,279.66,.12,542.51,109.13,740.2,306.95,197.67,197.82,306.46,460.8,306.37,740.48-.24,577.11-469.91,1046.66-1046.97,1046.66Z"/>
    <path class="cls-7" d="M57.83,2468.86l170.54-622.72c-105.22-182.25-160.55-389.01-160.48-600.77C68.17,582.79,607.42,43.73,1269.98,43.73c321.58,.15,623.4,125.29,850.32,352.43,226.98,227.14,351.9,529.05,351.77,850.14-.28,662.6-539.56,1201.7-1202.04,1201.7-.05,0,.03,0,0,0h-.54c-201.18-.06-398.85-50.57-574.42-146.25L57.83,2468.86h0Z"/>
    <path class="cls-2" d="M958.97,724.6c-23.3-51.81-47.84-52.85-70.01-53.76-18.14-.78-38.9-.73-59.62-.73s-54.45,7.8-82.96,38.93c-28.52,31.13-108.91,106.4-108.91,259.47s111.5,301.01,127.04,321.79c15.56,20.74,215.24,344.91,531.49,469.63,262.83,103.64,316.31,83.03,373.36,77.84,57.05-5.19,184.08-75.25,210.01-147.9,25.93-72.64,25.93-134.91,18.15-147.92-7.78-12.97-28.52-20.74-59.64-36.3s-184.08-90.84-212.6-101.21-49.27-15.56-70.01,15.59c-20.74,31.12-80.34,101.18-98.49,121.92-18.15,20.79-36.3,23.39-67.42,7.83-31.12-15.61-131.32-48.43-250.2-154.42-92.49-82.46-154.94-184.3-173.09-215.45-18.15-31.12-1.95-47.97,13.66-63.48,13.97-13.94,31.12-36.32,46.68-54.49,15.53-18.17,20.71-31.13,31.08-51.88,10.37-20.78,5.19-38.94-2.59-54.5-7.78-15.56-68.25-169.42-95.91-230.94h0Z"/>
    <path class="cls-1" d="M2151.02,365.3C1915.9,130.02,1603.28,.38,1270.19,.24,583.82,.24,25.25,558.63,24.97,1244.97c-.08,219.39,57.24,433.55,166.2,622.33L14.52,2512.33l660.1-173.09c181.87,99.18,386.65,151.45,595.03,151.53h.54c686.26,0,1244.91-558.49,1245.2-1244.8,.11-332.63-129.3-645.39-364.38-880.68h0Zm-880.82,1915.24h-.4c-185.75-.1-367.9-49.97-526.77-144.24l-37.81-22.41-391.72,102.7,104.58-381.78-24.63-39.14c-103.61-164.74-158.31-355.12-158.23-550.61,.23-570.46,464.49-1034.56,1035.37-1034.56,276.46,.11,536.28,107.87,731.71,303.42,195.4,195.55,302.94,455.51,302.86,731.98-.24,570.48-464.52,1034.64-1034.95,1034.64Z"/>
  </g>
  <text class="cls-6" transform="translate(3268.91 1083.4)"><tspan x="0" y="0">WhatsApp</tspan></text>
  <text class="cls-3" transform="translate(3299.21 1637.18)"><tspan x="0" y="0">Click to chat</tspan></text>
</svg>