<?xml version="1.0" encoding="iso-8859-1"?>
<!-- Generator: Adobe Illustrator 19.0.0, SVG Export Plug-In . SVG Version: 6.00 Build 0)  -->
<svg version="1.1" id="Capa_1" xmlns="http://www.w3.org/2000/svg" xmlns:xlink="http://www.w3.org/1999/xlink" x="0px" y="0px"
	 viewBox="0 0 512.001 512.001" style="enable-background:new 0 0 512.001 512.001;" xml:space="preserve">
<path style="fill:#FF98C9;" d="M496.571,99.976L412.025,15.43c-20.573-20.573-53.928-20.573-74.501,0l-37.876,37.876l65.24,93.807
	l93.807,65.24l37.876-37.876C517.144,153.904,517.144,120.549,496.571,99.976z"/>
<path style="fill:#EB6DA8;" d="M496.57,99.976l-21.853-21.853c20.573,20.573,20.573,53.928,0,74.501l-37.876,37.876l-80.918-56.276
	l8.964,12.89l93.807,65.239l37.876-37.876C517.144,153.904,517.144,120.549,496.57,99.976z"/>
<polygon style="fill:#9E9C9D;" points="220.298,132.655 271.081,81.873 364.888,147.112 430.127,240.919 379.345,291.702 
	285.538,226.463 "/>
<polygon style="fill:#8C8A8B;" points="364.888,147.113 351.998,138.148 408.274,219.066 357.491,269.849 276.574,213.573 
	285.538,226.463 379.345,291.702 430.127,240.919 "/>
<path style="fill:#3A484A;" d="M59.432,452.568L1.549,429.744l1.267,63.244c0.171,8.871,7.325,16.024,16.195,16.195l63.244,1.267
	L59.432,452.568z"/>
<polygon style="fill:#EFEDEE;" points="159.043,511.997 82.256,510.452 1.549,429.744 0.003,352.957 96.69,323.657 199.398,426.365 
	"/>
<polygon style="fill:#D4D2D3;" points="199.397,426.365 177.543,404.512 162.497,464.844 60.403,488.597 82.256,510.451 
	159.043,511.997 "/>
<path style="fill:#313D40;" d="M19.011,509.184l63.244,1.267l-21.853-21.853L5.334,501.41C8.2,505.99,13.235,509.072,19.011,509.184
	z"/>
<path style="fill:#BAB8B9;" d="M458.694,212.352L299.648,53.306c-7.888-7.888-20.679-7.888-28.567,0
	c-7.888,7.888-7.888,20.679,0,28.567l159.047,159.047c7.888,7.888,20.679,7.888,28.567,0
	C466.583,233.031,466.583,220.24,458.694,212.352z"/>
<path style="fill:#9E9C9D;" d="M458.694,212.352l-21.853-21.853c7.889,7.889,7.889,20.679,0,28.567
	c-7.888,7.888-20.678,7.888-28.567,0l21.853,21.853c7.889,7.889,20.679,7.889,28.567,0
	C466.583,233.031,466.583,220.241,458.694,212.352z"/>
<path style="fill:#FFCE1C;" d="M285.538,226.462l-93.807-65.24L0,352.953c0,0,25.023-2.305,42.309-3.896
	c8.367-0.771,15.373,6.243,14.603,14.609l-2.414,26.212c-0.771,8.366,6.242,15.38,14.609,14.609l26.212-2.414
	c8.367-0.771,15.38,6.242,14.609,14.609l-2.414,26.212c-0.771,8.367,6.242,15.38,14.609,14.609l26.212-2.414
	c8.366-0.771,15.38,6.237,14.609,14.603c-1.593,17.284-3.897,42.307-3.897,42.307l191.731-191.731L285.538,226.462z"/>
<path style="fill:#ECB000;" d="M350.778,320.269l-65.24-93.806l-12.89-8.964l56.276,80.918L162.497,464.844
	c0.428,1.527,0.603,3.156,0.447,4.848c-1.593,17.285-3.897,42.309-3.897,42.309L350.778,320.269z"/>
<g>
	<path style="fill:#3A484A;" d="M156.575,273.005c-1.977,0-3.955-0.754-5.463-2.263c-3.018-3.017-3.018-7.91-0.001-10.927
		l8.157-8.157c3.018-3.017,7.911-3.017,10.926,0c3.018,3.017,3.018,7.91,0.001,10.927l-8.157,8.157
		C160.53,272.251,158.552,273.005,156.575,273.005z"/>
	<path style="fill:#3A484A;" d="M246.721,363.152c-1.978,0-3.955-0.754-5.464-2.263c-3.017-3.017-3.017-7.91,0.001-10.927
		l8.158-8.157c3.017-3.017,7.91-3.016,10.926,0c3.017,3.017,3.017,7.91-0.001,10.927l-8.158,8.157
		C250.676,362.397,248.698,363.152,246.721,363.152z"/>
	<path style="fill:#3A484A;" d="M212.026,328.679c-7.456,0-14.73-3.044-20.196-8.509c-5.912-5.913-8.992-13.942-8.449-22.028
		c0.286-4.259,3.999-7.476,8.227-7.191c4.258,0.286,7.477,3.969,7.191,8.227c-0.244,3.638,1.197,7.306,3.957,10.066
		c2.759,2.759,6.43,4.201,10.065,3.957c4.262-0.286,7.941,2.934,8.227,7.191c0.285,4.258-2.934,7.941-7.191,8.227
		C213.246,328.66,212.636,328.679,212.026,328.679z"/>
</g>
<path style="fill:#BAB8B9;" d="M379.345,291.702L220.298,132.655c-7.888-7.888-20.679-7.888-28.567,0s-7.888,20.679,0,28.567
	l159.047,159.047c7.888,7.888,20.679,7.888,28.567,0C387.234,312.381,387.234,299.591,379.345,291.702z"/>
<path style="fill:#9E9C9D;" d="M379.345,291.702l-21.853-21.853c7.889,7.889,7.889,20.679,0,28.567
	c-7.889,7.889-20.679,7.889-28.567,0l21.853,21.853c7.889,7.889,20.679,7.889,28.567,0
	C387.234,312.381,387.234,299.591,379.345,291.702z"/>
<g>
</g>
<g>
</g>
<g>
</g>
<g>
</g>
<g>
</g>
<g>
</g>
<g>
</g>
<g>
</g>
<g>
</g>
<g>
</g>
<g>
</g>
<g>
</g>
<g>
</g>
<g>
</g>
<g>
</g>
</svg>
