<svg height="502pt" viewBox="0 -4 502.48111 502" width="502pt" xmlns="http://www.w3.org/2000/svg"><path d="m154.894531 494.09375c-1.875.003906-3.523437-1.242188-4.039062-3.042969-.515625-1.804687.230469-3.730469 1.824219-4.71875l5.480468-3.402343-18.371094 10.570312c-1.964843 1.050781-4.410156.382812-5.566406-1.519531-1.160156-1.902344-.628906-4.378907 1.207032-5.640625l84.128906-53.804688-105.597656 60.964844c-1.980469 1.070312-4.453126.390625-5.605469-1.539062-1.152344-1.933594-.574219-4.433594 1.308593-5.664063l12.3125-7.554687-25.617187 14.757812c-1.972656 1.066406-4.4375.394531-5.59375-1.527344s-.597656-4.417968 1.269531-5.660156l92.898438-58.359375-113.527344 65.546875c-1.976562 1.085938-4.460938.417969-5.625-1.519531-1.160156-1.9375-.582031-4.445313 1.308594-5.675781l77.882812-48.203126-96.019531 55.398438c-1.972656 1.101562-4.460937.445312-5.632813-1.484375-1.175781-1.929687-.609374-4.441406 1.277344-5.683594l164.847656-104.792969-186.546874 107.761719c-1.976563 1.089844-4.460938.417969-5.621094-1.515625-1.164063-1.9375-.582032-4.445312 1.308594-5.675781l148.320312-92.554687-153.828125 88.835937c-1.992187 1.199219-4.578125.554687-5.777344-1.441406-1.199219-1.992188-.554687-4.578125 1.441407-5.777344l162.664062-101.621094-160.316406 92.546875c-1.992188 1.195313-4.574219.550782-5.769532-1.4375-1.195312-1.992187-.550781-4.574218 1.4375-5.773437l183.230469-115.347657-178.898437 103.304688c-1.980469 1.058594-4.441406.371094-5.585938-1.558594-1.144531-1.929687-.570312-4.417968 1.304688-5.652344l68.71875-41.898437-64.4375 37.199219c-1.972656 1.054687-4.429688.375-5.578125-1.546875-1.148438-1.917969-.589844-4.402344 1.273437-5.644531l142.4375-88.34375-138.132812 79.746093c-1.972656 1.054688-4.429688.375-5.578125-1.546875-1.148438-1.917968-.589844-4.402344 1.273437-5.644531l137.390625-85.085937-133.085937 76.84375c-1.972656 1.066406-4.4375.394531-5.59375-1.527344s-.597656-4.414063 1.273437-5.660156l179.617188-112.890626-175.296875 101.191407c-1.980469 1.144531-4.515625.488281-5.691406-1.472657-1.179688-1.960937-.570313-4.507812 1.371093-5.71875l170.460938-106.757812-166.140625 95.929688c-1.96875 1.050781-4.417969.378906-5.570313-1.535157-1.152343-1.910156-.609375-4.390625 1.238281-5.640625l181.390626-114.109375-177.058594 102.222657c-1.984375 1.078124-4.464844.394531-5.617188-1.546876-1.148437-1.945312-.554687-4.449218 1.34375-5.671874l53.964844-32.835938-49.691406 28.699219c-1.972656 1.039062-4.417969.351562-5.5625-1.566407-1.140625-1.917968-.582032-4.394531 1.273437-5.636718l99.304688-60.886719-95.023438 54.835937c-1.972656 1.054688-4.429687.375-5.578125-1.546874-1.148437-1.917969-.589844-4.402344 1.273438-5.644532l144.652344-89.777344-140.347657 81.03125c-1.984375 1.117188-4.492187.449219-5.660156-1.503906s-.566406-4.480468 1.355469-5.699218l150.601562-93.636719-146.296875 84.453125c-1.972656 1.027344-4.402343.339844-5.542969-1.570313-1.136718-1.90625-.59375-4.371093 1.246094-5.621093l131.019532-81.023438-126.738282 73.160156c-1.980468 1.054688-4.441406.371094-5.585937-1.5625-1.148438-1.929687-.574219-4.417968 1.304687-5.648437l85.503906-52.351563-81.207031 46.886719c-1.988281 1.132813-4.519531.464844-5.6875-1.503906-1.167969-1.972657-.542969-4.511719 1.40625-5.714844l65.929688-40.289063-61.648438 35.589844c-1.984375 1.09375-4.480469.417969-5.636719-1.527344-1.160156-1.949218-.5625-4.464843 1.347657-5.683593l76.984375-47.320313-72.695313 41.964844c-1.960937.992188-4.355469.304688-5.488281-1.578125-1.136719-1.878906-.628906-4.320313 1.164062-5.589844l111.375-69.742187-107.050781 61.777344c-1.984375 1.117187-4.492187.449218-5.660156-1.503907s-.566406-4.480469 1.355469-5.699219l68.507812-42.585937-64.203125 37.066406c-1.964843 1.097657-4.449219.449219-5.625-1.472656s-.628906-4.425781 1.242188-5.679687l122.191406-79.445313-117.808594 67.988281c-1.980469 1.203125-4.5625.570313-5.765625-1.410156s-.570312-4.5625 1.410156-5.765625l73.863282-47.214844-69.507813 40.171875c-1.972656 1.101563-4.460937.445313-5.632812-1.484375-1.175781-1.929687-.609375-4.441406 1.277343-5.683593l55.730469-35.75-51.375 29.671874c-1.964843 1.097657-4.449219.449219-5.625-1.46875-1.175781-1.921874-.628906-4.429687 1.242188-5.683593l48.609375-31.515625-44.226563 25.53125c-1.976562 1.210937-4.558593.589844-5.769531-1.386719s-.589844-4.5625 1.386719-5.769531l30.578125-19.878906-26.210938 15.109374c-1.933594 1.109376-4.398437.515626-5.613281-1.355468-1.210937-1.875-.75-4.367188 1.054687-5.679688l65.183594-47.1875-60.601562 34.992188c-1.914063 1.101562-4.347656.53125-5.574219-1.304688-1.230469-1.832031-.828125-4.300781.917969-5.652344l48.679687-37.667968-44.03125 25.414062c-1.929687 1.132813-4.40625.554688-5.632812-1.316406-1.226563-1.871094-.773438-4.375 1.035156-5.691406l17.164063-12.726563-12.589844 7.253907c-1.875 1.019531-4.214844.46875-5.441406-1.277344-1.226563-1.742188-.945313-4.128906.648437-5.546875l16.558594-14.101563-11.75 6.773438c-1.726563.988281-3.90625.632812-5.226563-.855469-1.320312-1.484375-1.414062-3.691406-.230468-5.289063l9.777343-13.117187c-2.023437.46875-4.085937-.617187-4.847656-2.550781-.765625-1.929688.003906-4.132813 1.800781-5.171875l16.234375-9.375c1.726563-1 3.914063-.644531 5.238281.84375 1.324219 1.488281 1.417969 3.703125.226563 5.300781l-9.511719 12.738281 33.851563-19.511719c1.878906-1.066406 4.257812-.535156 5.503906 1.226563 1.246094 1.765625.949219 4.183594-.683594 5.597656l-16.5625 14.097657 36.285157-20.921876c1.929687-1.132812 4.40625-.554687 5.632812 1.316407 1.230469 1.867187.773438 4.371093-1.03125 5.691406l-17.15625 12.691406 34.160156-19.726562c1.910156-1.089844 4.335938-.519531 5.5625 1.304687 1.226563 1.828125.835938 4.289063-.894531 5.644532l-48.683594 37.679687 77.328125-44.601563c1.933594-1.109374 4.398438-.515624 5.613282 1.355469 1.210937 1.871094.75 4.367188-1.054688 5.675781l-65.160156 47.164063 93.925781-54.195313c1.964844-1.101562 4.449219-.449218 5.625 1.46875 1.175781 1.921876.625 4.429688-1.246094 5.679688l-30.59375 19.851562 46.828125-27c1.964844-1.101562 4.449219-.449218 5.625 1.46875 1.175782 1.921876.628906 4.429688-1.246094 5.679688l-48.628906 31.511719 67.011719-38.660157c1.972656-1.101562 4.460937-.449218 5.632813 1.484376 1.175781 1.929687.609374 4.441406-1.277344 5.683593l-55.722656 35.679688 74.289062-42.847657c1.976562-1.160156 4.515625-.519531 5.707031 1.4375 1.191407 1.957032.59375 4.503907-1.339843 5.730469l-73.929688 47.253907 94.257812-54.421876c1.96875-1.148437 4.492188-.511718 5.6875 1.429688 1.191407 1.945312.613282 4.480469-1.296874 5.71875l-122.144532 79.386719 149.925782-86.535157c1.285156-.773437 2.886718-.796874 4.195312-.070312 1.3125.730469 2.132812 2.101562 2.160156 3.601562.023438 1.5-.753906 2.898438-2.042968 3.667969l-68.574219 42.632813 86.300781-49.832032c1.988281-1.195312 4.566406-.554687 5.765625 1.429688 1.195313 1.988281.554687 4.566406-1.433594 5.761719l-111.363281 69.707031 133.246094-76.898438c1.992187-1.1875 4.566406-.535156 5.753906 1.453126 1.1875 1.992187.535156 4.570312-1.457031 5.753906l-76.96875 47.324218 90.785156-52.441406c1.980469-1.058594 4.441406-.371094 5.585937 1.558594 1.144532 1.929688.570313 4.417969-1.304687 5.648438l-66.160156 40.433593 70.683593-40.808593c1.984376-1.097657 4.476563-.421876 5.636719 1.527343 1.160157 1.945313.5625 4.460938-1.347656 5.683594l-85.351563 52.265625 86.003907-49.65625c1.984375-1.117188 4.496093-.453125 5.664062 1.5s.566407 4.484375-1.355469 5.699219l-130.996093 81 127.941406-73.863281c1.972656-1.054688 4.425781-.375 5.578125 1.546874 1.148438 1.917969.589844 4.402344-1.273438 5.644532l-150.664062 93.679687 146.359375-84.496093c1.980469-1.117188 4.492187-.449219 5.660156 1.503906s.566407 4.480468-1.355469 5.699218l-144.59375 89.734376 140.289063-81c1.980469-1.09375 4.476563-.417969 5.636719 1.527343 1.15625 1.949219.5625 4.464844-1.347656 5.683594l-99.253907 60.851563 94.964844-54.800782c1.984375-1.078125 4.464844-.394531 5.613281 1.550782 1.152344 1.945312.558594 4.449218-1.34375 5.667968l-53.960937 32.835938 49.707031-28.707032c1.984375-1.195312 4.566406-.554687 5.761719 1.433594 1.195312 1.984375.554687 4.566406-1.429688 5.761719l-181.367187 114.074219 177.019531-102.207032c1.980469-1.140624 4.511719-.488281 5.691406 1.472657 1.179688 1.964843.570313 4.507812-1.371093 5.722656l-170.460938 106.746094 166.140625-95.921875c1.972656-1.066406 4.4375-.394532 5.59375 1.527344 1.15625 1.925781.597656 4.417968-1.273437 5.660156l-179.636719 112.917968 175.316406-101.21875c1.988281-1.1875 4.566406-.539062 5.757813 1.453126 1.1875 1.992187.539062 4.566406-1.453126 5.757812l-137.402343 85.066406 133.097656-76.832031c1.980469-1.117187 4.492187-.453125 5.660156 1.5s.566407 4.484375-1.355469 5.699219l-142.378906 88.300781 138.074219-79.738281c1.988281-1.132813 4.519531-.464844 5.6875 1.503906 1.167969 1.972656.539063 4.511719-1.410156 5.714844l-68.941407 42.035156 64.628907-37.335938c1.976562-1.105468 4.476562-.445312 5.644531 1.496094 1.171875 1.941406.589844 4.457032-1.3125 5.691406l-183.195312 115.367188 178.90625-103.242188c1.976562-1.085937 4.460937-.417968 5.621093 1.519532 1.164063 1.9375.585938 4.445312-1.308593 5.675781l-162.628907 101.570313 158.316407-91.390626c1.96875-1.039062 4.40625-.355468 5.554687 1.550782 1.148437 1.910156.601563 4.382812-1.242187 5.636718l-148.394532 92.578126 144.082032-83.179688c1.96875-1.066406 4.425781-.398438 5.585937 1.515625s.617187 4.402344-1.238281 5.652344l-164.796875 104.742187 160.449219-92.628906c1.980468-1.117188 4.492187-.453125 5.660156 1.5 1.167968 1.953125.566406 4.484375-1.355469 5.699219l-77.832031 48.203125 73.527344-42.445313c1.980468-1.140625 4.515624-.484375 5.691406 1.476563 1.179687 1.960937.570312 4.503906-1.371094 5.71875l-92.890625 58.351562 88.570313-51.132812c1.980468-1.097656 4.476562-.421875 5.636718 1.527344 1.160156 1.945312.5625 4.460937-1.347656 5.679687l-12.390625 7.632813 8.101563-4.675782c1.96875-1.101562 4.460937-.445312 5.632812 1.484375 1.171875 1.929688.609375 4.441407-1.277344 5.683594l-84.109375 53.785156 79.734375-46.046875c1.984375-1.117187 4.496094-.449218 5.664063 1.503906 1.167969 1.953126.566406 4.480469-1.355469 5.699219l-5.488281 3.414063 1.179687-.679688c1.972656-1.144531 4.496094-.507812 5.6875 1.433594s.617188 4.480469-1.296875 5.71875l-70.359375 46.003906 65.988282-38.089844c1.964843-1.167968 4.5-.546874 5.707031 1.390626 1.207031 1.941406.640625 4.488281-1.277344 5.734374l-63.898437 42.714844 59.46875-34.320312c1.945312-1.058594 4.378906-.421875 5.554687 1.453125 1.179687 1.875.699219 4.34375-1.097656 5.640625l-51.199219 34.882812 46.699219-26.960937c1.949219-1.054688 4.382812-.410157 5.558593 1.472656 1.171876 1.878906.679688 4.351563-1.125 5.636719l-20.144531 13.554687 15.753907-9.089843c1.929687-1.113282 4.394531-.527344 5.613281 1.339843 1.21875 1.867188.765625 4.359375-1.03125 5.675781l-35.351563 25.894532 30.769532-17.769532c1.90625-1.082031 4.328124-.511718 5.550781 1.308594 1.226562 1.816406.84375 4.273438-.875 5.632813l-24.71875 19.304687 20.042969-11.5625c1.898437-1.09375 4.316406-.542968 5.554687 1.261719s.878906 4.257813-.820313 5.636719l-9.820312 7.921875 5.085938-2.929688c1.851562-1.089843 4.226562-.605469 5.503906 1.121094 1.277344 1.730469 1.042968 4.144531-.542969 5.59375l-5.558594 5.195313c1.863281-.539063 3.855469.257812 4.835938 1.933593 1.152343 2.003907.464843 4.5625-1.535157 5.722657l-30.351562 17.476562c-1.851562 1.105469-4.246094.628906-5.527344-1.105469-1.285156-1.738281-1.042968-4.164062.558594-5.609375l5.1875-4.851562-20.019531 11.566406c-1.894531 1.066406-4.289063.511719-5.519531-1.28125-1.230469-1.792969-.890626-4.226562.785156-5.613281l9.8125-7.921875-25.675782 14.816406c-1.90625 1.082031-4.328124.511719-5.550781-1.308594-1.226562-1.816406-.84375-4.273437.875-5.632812l24.703125-19.28125-45.425781 26.222656c-1.929687 1.113281-4.394531.523438-5.613281-1.339844-1.21875-1.867187-.765625-4.359375 1.03125-5.679687l35.351562-25.894531-57.007812 32.914062c-1.949219 1.054688-4.382813.410156-5.558594-1.472656-1.171875-1.882813-.679688-4.351563 1.128906-5.636719l20.144532-13.5-35.75 20.609375c-1.945313 1.054688-4.378907.417969-5.554688-1.457031-1.179688-1.875-.699219-4.34375 1.097656-5.636719l51.199219-34.898438-72.734375 41.964844c-1.960938 1.136719-4.46875.511719-5.667969-1.410156s-.65625-4.445312 1.226563-5.707031l63.890625-42.714844-86.34375 49.859375c-1.960938 1.078125-4.425781.429688-5.601563-1.480469-1.171875-1.910156-.636718-4.402343 1.210938-5.664062l70.386718-46.03125-92.109374 53.175781c-.632813.378906-1.355469.585938-2.097657.59375zm0 0" fill="#e4e8eb"/><path d="m107.269531 216.449219c-1.644531-.003907-3.140625-.96875-3.816406-2.46875-.679687-1.503907-.417969-3.261719.671875-4.5l7.015625-7.972657-19.035156 10.996094c-1.914063 1.097656-4.351563.527344-5.578125-1.304687-1.226563-1.835938-.824219-4.304688.917968-5.65625l2.03125-1.558594-4.609374 2.660156c-1.933594 1.140625-4.425782.554688-5.652344-1.328125-1.222656-1.886718-.742188-4.402344 1.089844-5.707031l6.125-4.4375-6.195313 3.574219c-1.910156 1.113281-4.359375.550781-5.59375-1.285156-1.234375-1.835938-.832031-4.3125.921875-5.664063l48.628906-37.679687-43.578125 25.179687c-1.941406 1.140625-4.433593.546875-5.652343-1.34375-1.21875-1.894531-.726563-4.410156 1.113281-5.707031l44.726562-31.992188-24.632812 14.214844c-1.933594 1.113281-4.398438.515625-5.613281-1.355469-1.210938-1.871093-.75-4.363281 1.054687-5.675781l53.105469-38.511719-29.082032 16.789063c-1.964843 1.167968-4.503906.546875-5.707031-1.390625-1.207031-1.941407-.640625-4.488281 1.273438-5.734375l14.035156-9.425782c-1.488281.121094-2.914063-.617187-3.667969-1.90625-1.21875-1.871093-.757812-4.371093 1.046875-5.683593l35.09375-25.523438-13.90625 8.023438c-1.875 1.078125-4.257812.554687-5.511719-1.207031-1.253906-1.757813-.964843-4.183594.667969-5.597657l15.945313-13.824219c-1.507813-.582031-2.550782-1.980468-2.675782-3.59375-.125-1.613281.6875-3.15625 2.089844-3.960937l28.378906-16.375c1.871094-1.078125 4.257813-.554687 5.507813 1.203125 1.253906 1.761719.964844 4.183594-.664063 5.601562l-9.730468 8.394532 44.578125-25.734375c1.953125-1.265625 4.5625-.707031 5.828125 1.246093 1.265625 1.953126.707031 4.5625-1.246094 5.828126l-35.101562 25.507812 30.359374-17.515625c1.957032-1.097656 4.429688-.460937 5.617188 1.441406 1.183594 1.90625.664062 4.402344-1.183594 5.675781l-14.09375 9.460938c1.460938-.003906 2.832032.710938 3.667969 1.914062 1.214844 1.875.746094 4.371094-1.066406 5.679688l-53.097657 38.492188 29.058594-16.785157c1.941406-1.140625 4.433594-.546875 5.652344 1.347657 1.21875 1.890624.730469 4.40625-1.109375 5.703124l-44.714844 31.984376 22.539063-13.007813c1.914062-1.152344 4.398437-.601563 5.644531 1.253906 1.25 1.859375.820313 4.367188-.96875 5.703125l-48.625 37.679688 22.519531-13.011719c1.9375-1.140625 4.429688-.554687 5.652344 1.332031 1.226562 1.882813.746094 4.398438-1.085938 5.703125l-13.546874 9.863281c1.644531.273438 2.972656 1.5 3.378906 3.117188s-.1875 3.324219-1.507813 4.34375l-12.085937 9.300781c1.242187.523438 2.15625 1.617188 2.453125 2.933594.300781 1.3125-.050781 2.691406-.941407 3.703125l-14.664062 16.636719c.101562.136719.195312.28125.277344.429687 1.15625 2.007813.46875 4.574219-1.535156 5.730469l-9.089844 5.246094c-.644532.359375-1.367188.539062-2.101563.53125zm0 0" fill="#efc7a4"/><path d="m196.6875 275.203125c-1.675781.003906-3.191406-.988281-3.859375-2.519531s-.363281-3.316406.777344-4.539063l2.375-2.519531-11.625 6.714844c-1.832031 1.070312-4.175781.605468-5.460938-1.085938-1.28125-1.691406-1.101562-4.078125.425781-5.554687l11.933594-11.605469-16.574218 9.566406c-1.902344 1.121094-4.347657.578125-5.59375-1.242187-1.25-1.820313-.875-4.296875.859374-5.664063l3.105469-2.519531-1.832031 1.058594c-1.734375.996093-3.933594.628906-5.25-.878907-1.320312-1.507812-1.386719-3.738281-.160156-5.324218l16.097656-20.816406c-.09375-.121094-.175781-.25-.246094-.386719-1.160156-2.003907-.472656-4.570313 1.53125-5.730469l6.949219-4.011719c1.734375-1.007812 3.945313-.644531 5.265625.867188s1.386719 3.746093.15625 5.335937l-10.074219 13.015625 30.730469-17.742187c1.898438-1.097656 4.324219-.550782 5.5625 1.261718 1.242188 1.8125.875 4.273438-.835938 5.644532l-3.777343 3.03125c1.847656-.527344 3.816406.269531 4.78125 1.933594.964843 1.660156.671875 3.765624-.703125 5.109374l-11.902344 11.589844 6.628906-3.835937c1.800782-1.054688 4.105469-.628907 5.40625 1.003906 1.300782 1.632813 1.203125 3.972656-.226562 5.492187l-6.519532 7c1.421876.660157 2.359376 2.054688 2.429688 3.621094s-.738281 3.042969-2.09375 3.824219l-16.175781 9.335937c-.636719.375-1.367188.570313-2.105469.570313zm0 0" fill="#e3b692"/><path d="m239.125 274.925781c-1.621094 0-3.09375-.933593-3.789062-2.394531-.695313-1.460938-.488282-3.191406.53125-4.445312l15.242187-18.777344-25.542969 14.738281c-1.847656 1.058594-4.199218.5625-5.464844-1.152344-1.261718-1.71875-1.039062-4.109375.523438-5.5625l14.269531-13.152343-13.648437 7.882812c-1.742188 1.003906-3.949219.636719-5.269532-.882812-1.316406-1.515626-1.375-3.753907-.136718-5.339844l7.597656-9.742188-2.519531 1.46875c-1.523438.882813-3.433594.722656-4.789063-.402344-1.351562-1.125-1.859375-2.976562-1.269531-4.632812l1.675781-4.8125c-.558594-.351562-1.019531-.839844-1.339844-1.417969-1.160156-2.003906-.476562-4.570312 1.527344-5.730469l4.195313-2.445312c1.523437-.886719 3.441406-.730469 4.796875.394531 1.355468 1.128907 1.863281 2.980469 1.273437 4.644531l-.53125 1.492188 11.425781-6.597656c1.738282-1.003906 3.949219-.636719 5.265626.882812 1.320312 1.515625 1.375 3.753906.136718 5.335938l-7.59375 9.746094 27.855469-16.089844c1.851563-1.058594 4.203125-.5625 5.464844 1.152344 1.265625 1.71875 1.042969 4.109374-.519531 5.5625l-14.269532 13.152343 12.355469-7.132812c1.753906-1.011719 3.976563-.625 5.285156.910156 1.3125 1.539063 1.34375 3.796875.070313 5.367187l-15.25 18.785157 8.316406-4.800781c2.007812-1.140626 4.554688-.449219 5.710938 1.546874 1.152343 2 .476562 4.554688-1.511719 5.71875l-27.960938 16.167969c-.640625.375-1.371093.570313-2.113281.5625zm0 0" fill="#e3b692"/><path d="m112.871094 305.628906c-1.777344-.003906-3.359375-1.121094-3.953125-2.792968-.59375-1.675782-.070313-3.542969 1.308593-4.660157l4.816407-3.921875-8.183594 4.726563c-1.898437 1.09375-4.316406.542969-5.554687-1.261719-1.238282-1.804688-.882813-4.261719.820312-5.636719l31.441406-25.476562-39.53125 22.824219c-1.941406 1.117187-4.421875.515624-5.628906-1.371094-1.210938-1.886719-.722656-4.390625 1.105469-5.6875l27.21875-19.304688-30.402344 17.550782c-1.953125 1.050781-4.390625.398437-5.558594-1.488282-1.167969-1.890625-.660156-4.359375 1.152344-5.640625l3.398437-2.257812c-1.957031 1.039062-4.390624.371093-5.542968-1.519531-1.15625-1.894532-.640625-4.363282 1.179687-5.628907l60.242188-42.171875-48.9375 28.253906c-1.957031 1.082032-4.417969.4375-5.59375-1.464843-1.179688-1.898438-.660157-4.390625 1.179687-5.660157l34.253906-22.738281-15.769531 9.105469c-1.964843 1.140625-4.480469.507812-5.675781-1.421875s-.636719-4.460937 1.257812-5.710937l33.535157-22.242188-15.109375 8.738281c-1.960938 1.132813-4.464844.511719-5.664063-1.410156s-.65625-4.449219 1.222657-5.710937l45.753906-30.742188-25.71875 14.839844c-1.949219 1.132812-4.445313.523437-5.65625-1.382813-1.207032-1.90625-.691406-4.421875 1.167968-5.703125l66.214844-45.878906-42.421875 24.492188c-1.925781 1.132812-4.40625.554687-5.632812-1.316407-1.226563-1.871093-.773438-4.371093 1.035156-5.691406l56.511719-41.867187-30.871094 17.820312c-1.902344 1.105469-4.335938.554688-5.574219-1.265625-1.242187-1.816406-.867187-4.285156.859375-5.652344l36.9375-29.609375-12.355468 7.132813c-1.824219 1.027343-4.125.550781-5.394532-1.117188-1.269531-1.664062-1.117187-4.011719.359375-5.496093l23.9375-23.796876c-1.613281-.019531-3.070312-.964843-3.75-2.425781-.679687-1.460937-.460937-3.183593.5625-4.429687l10.65625-12.953125c-.578125-1.871094.210938-3.894531 1.90625-4.875l4.667969-2.695313c1.757812-1.015625 3.992188-.628906 5.304688.921875 1.308593 1.550781 1.324218 3.816407.035156 5.382813l-1.378906 1.679687 4.195312-2.445312c1.828125-1.027344 4.128906-.550781 5.398438 1.117187 1.269531 1.664063 1.113281 4.011719-.359376 5.496094l-22.371093 22.234375 32.351562-18.683594c1.902344-1.105469 4.335938-.554687 5.574219 1.265625 1.238281 1.816406.863281 4.285156-.859375 5.652344l-36.996094 29.621094 46.546875-26.859375c1.929688-1.132813 4.40625-.554688 5.636719 1.316406 1.226563 1.867187.769531 4.371094-1.035156 5.691406l-56.488281 41.851563 66.960937-38.679688c1.953125-1.132812 4.449219-.523437 5.65625 1.382813 1.207031 1.902343.695313 4.421875-1.164063 5.703125l-66.25 45.902344 44.175782-25.5c1.960937-1.132813 4.464844-.511719 5.664062 1.410156 1.199219 1.921875.65625 4.449218-1.222656 5.707031l-45.746094 30.738281 25.699219-14.832031c1.960937-1.078125 4.417969-.4375 5.597656 1.464844 1.175781 1.902343.65625 4.390625-1.179687 5.660156l-33.484375 22.210937 15.109375-8.703124c1.964844-1.140626 4.480468-.507813 5.675781 1.421874 1.191406 1.929688.636719 4.460938-1.261719 5.710938l-34.253906 22.730469 15.765625-9.097657c1.949219-1.160156 4.464844-.558593 5.679687 1.351563 1.21875 1.914063.699219 4.445313-1.171874 5.722656l-60.292969 42.175781 36.738281-21.207031c1.964844-1.140625 4.480469-.511719 5.675781 1.421875 1.195313 1.929688.636719 4.460938-1.261719 5.710938l-13.140624 8.6875c1.773437.113281 3.28125 1.332031 3.765624 3.042968.488282 1.710938-.160156 3.542969-1.609374 4.570313l-27.1875 19.304687 7.882812-4.550781c1.894531-1.085937 4.304688-.535156 5.542969 1.261719 1.238281 1.800781.890625 4.25-.800781 5.628906l-31.433594 25.476563 7.8125-4.515625c1.898437-1.109375 4.328125-.566406 5.574218 1.242187 1.246094 1.804688.886719 4.269531-.824218 5.648438l-13 10.558593c.839844.355469 1.542968.972657 1.996094 1.761719 1.160156 2.007813.472656 4.574219-1.535157 5.734375l-33.832031 19.539063c-.640625.367187-1.363281.558593-2.097656.554687zm0 0" fill="#ffd67b"/><path d="m280.6875 80.085938c-1.613281 0-3.082031-.929688-3.777344-2.382813-.695312-1.457031-.496094-3.179687.511719-4.4375l9.878906-12.324219-17.246093 9.964844c-1.800782 1.042969-4.09375.609375-5.390626-1.019531-1.292968-1.625-1.203124-3.957031.21875-5.476563l17.433594-18.761718-26.757812 15.453124c-1.828125 1.039063-4.144532.566407-5.417969-1.105468-1.273437-1.675782-1.109375-4.035156.382813-5.515625l20.25-20.0625-29.484376 17.023437c-1.835937 1.089844-4.195312.625-5.484374-1.074218-1.289063-1.703126-1.097657-4.101563.449218-5.574219l19.4375-18.867188-18.757812 10.835938c-1.84375.976562-4.128906.449219-5.359375-1.238281-1.226563-1.6875-1.03125-4.019532.464843-5.476563l12.5-11.199219c-.332031-.285156-.617187-.621094-.839843-.996094-.558594-.964843-.710938-2.113281-.425781-3.191406.289062-1.074218.996093-1.996094 1.960937-2.550781l19.546875-11.304687c1.863281-1.078126 4.238281-.570313 5.5 1.171874 1.261719 1.746094 1 4.160157-.605469 5.59375l-1.871093 1.675782 12.976562-7.496094c1.835938-1.085938 4.195312-.625 5.484375 1.078125 1.289063 1.699219 1.097656 4.097656-.449219 5.570313l-19.457031 18.878906 28.34375-16.402344c1.828125-1.027344 4.128906-.550781 5.398437 1.117188 1.269532 1.664062 1.113282 4.011718-.359374 5.496093l-20.238282 20.105469 22.796875-13.171875c1.800781-1.042969 4.09375-.609375 5.386719 1.019531 1.296875 1.625 1.203125 3.957032-.214844 5.476563l-17.433594 18.753906 12.429688-7.179687c1.75-1.007813 3.96875-.628907 5.285156.902343 1.316406 1.535157 1.351563 3.785157.085938 5.359375l-14.753906 18.398438c1.023437.890625 1.558593 2.222656 1.425781 3.574218-.128907 1.351563-.90625 2.554688-2.082031 3.234376l-9.644532 5.566406c-.636718.367187-1.359375.558594-2.097656.558594zm0 0" fill="#eb5463"/><path d="m84.332031 334.558594c-1.746093.003906-3.308593-1.078125-3.929687-2.710938-.617188-1.632812-.160156-3.476562 1.152344-4.632812l14.269531-12.589844-18.308594 10.542969c-1.875 1.066406-4.257813.535156-5.5-1.226563-1.246094-1.765625-.949219-4.1875.683594-5.597656l9.785156-8.394531-12.589844 7.261719c-1.851562 1.074218-4.214843.585937-5.484375-1.136719-1.269531-1.722657-1.042968-4.128907.53125-5.578125l13.261719-12.269532-5.136719 2.960938c-1.785156 1.019531-4.046875.59375-5.339844-1.003906-1.292968-1.597656-1.238281-3.898438.128907-5.433594l8.949219-9.902344c-1.523438.359375-3.121094-.15625-4.144532-1.339844-1.023437-1.183593-1.304687-2.839843-.726562-4.292968l6.253906-15.695313c-.089844-.128906-.175781-.261719-.25-.394531-1.160156-2.007812-.472656-4.574219 1.535156-5.734375l2.769532-1.59375c1.546874-.894531 3.488281-.710937 4.839843.457031 1.351563 1.164063 1.820313 3.058594 1.160157 4.722656l-4.035157 10.136719 11.101563-6.402343c1.789062-1.03125 4.058594-.609376 5.359375.992187 1.296875 1.601563 1.242187 3.910156-.136719 5.445313l-8.554688 9.457031 14.503907-8.390625c1.851562-1.0625 4.203125-.5625 5.464843 1.152344 1.265626 1.71875 1.042969 4.109374-.519531 5.5625l-13.269531 12.285156 19.699219-11.347656c1.875-1.066407 4.257812-.535157 5.5 1.230468 1.246093 1.761719.949219 4.183594-.683594 5.59375l-9.792969 8.394532 14.863282-8.578126c1.867187-1.082031 4.253906-.570312 5.511718 1.179688 1.261719 1.753906.984375 4.175781-.632812 5.601562l-16.980469 15.007813c1.835937.132813 3.375 1.453125 3.785156 3.25.410157 1.796875-.402343 3.652344-2 4.574219l-30.996093 17.902344c-.636719.363281-1.363282.546874-2.097657.535156zm0 0" fill="#b29580"/><path d="m65.933594 350.945312c-1.695313 0-3.226563-1.023437-3.875-2.589843-.652344-1.566407-.292969-3.371094.902344-4.570313l6.941406-6.984375-8.285156 4.777344c-1.765626 1.023437-4.015626.621094-5.324219-.945313-1.308594-1.570312-1.292969-3.855468.03125-5.410156l8.785156-10.332031c-1.507813.285156-3.054687-.277344-4.027344-1.464844-.972656-1.191406-1.21875-2.820312-.636719-4.242187l5.460938-13.355469c-.074219-.109375-.140625-.207031-.207031-.324219-1.160157-2.007812-.472657-4.574218 1.535156-5.734375l2.753906-1.585937c1.550781-.898438 3.503907-.707032 4.855469.472656 1.355469 1.175781 1.804688 3.085938 1.128906 4.746094l-3.105468 7.597656 8.59375-4.960938c1.769531-1.023437 4.015624-.625 5.324218.945313s1.296875 3.851563-.027344 5.410156l-8.351562 9.800781 14.605469-8.390624c1.816406-.988282 4.082031-.503907 5.335937 1.136718 1.257813 1.644532 1.128906 3.957032-.300781 5.449219l-11.457031 11.535156c1.457031.625 2.4375 2.019531 2.535156 3.601563.097656 1.585937-.710938 3.085937-2.082031 3.882812l-19.011719 10.972656c-.636719.371094-1.359375.566407-2.097656.5625zm0 0" fill="#424852"/><path d="m342.210938 250.316406c-1.828126-.003906-3.445313-1.191406-3.996094-2.933594-.550782-1.746093.09375-3.644531 1.589844-4.695312l24.691406-17.308594-41 23.6875c-1.960938 1.09375-4.441406.453125-5.621094-1.460937-1.179688-1.910157-.644531-4.414063 1.214844-5.675781l7.082031-4.683594-16.402344 9.484375c-1.9375 1.140625-4.433593.546875-5.652343-1.347657-1.214844-1.890624-.726563-4.40625 1.113281-5.703124l66.914062-47.839844-82.601562 47.699218c-1.964844 1.117188-4.460938.476563-5.648438-1.449218-1.183593-1.925782-.632812-4.441406 1.25-5.695313l37.769531-24.835937-43.71875 25.238281c-1.972656 1.222656-4.558593.617187-5.78125-1.355469-1.21875-1.96875-.613281-4.554687 1.355469-5.777344l54.558594-36.140624-61.355469 35.417968c-1.957031 1.097656-4.429687.460938-5.617187-1.441406-1.183594-1.90625-.664063-4.402344 1.183593-5.675781l69.835938-46.75-93.34375 53.835937c-1.949219 1.132813-4.449219.523438-5.65625-1.382812s-.695312-4.425782 1.164062-5.703125l84.457032-58.386719-113.429688 65.472656c-1.976562 1.105469-4.476562.445313-5.648437-1.496094-1.167969-1.941406-.585938-4.460937 1.316406-5.691406l1.613281-1.015625-14.203125 8.203125c-1.960937 1.160156-4.484375.546875-5.695312-1.382812-1.210938-1.929688-.660157-4.472656 1.238281-5.726563l86.183594-58.363281-110.710938 63.953125c-1.972656 1.214844-4.558594.601563-5.777344-1.375-1.21875-1.972656-.601562-4.5625 1.371094-5.777344l72.722656-47.640625-81.308593 46.953125c-1.90625 1.035157-4.292969.445313-5.496094-1.363281s-.828125-4.234375.863281-5.597656l24.683594-19.050782-27.351562 15.796876c-1.886719 1.117187-4.316407.597656-5.578126-1.199219-1.261718-1.792969-.925781-4.257813.769532-5.652344l19.570312-16.464844-17.984375 10.382813c-1.761719 1.011718-3.996093.625-5.304687-.929688-1.3125-1.550781-1.324219-3.820312-.027344-5.382812l12.550781-15.109375c-2.042969 1.011719-4.519531.210937-5.582031-1.808594-1.058594-2.015625-.316406-4.511719 1.675781-5.621094l19.988281-11.539062c1.761719-1.027344 4.003907-.636719 5.316407.921875 1.316406 1.558594 1.320312 3.835937.011719 5.398437l-12.523438 15.109375 38.863281-22.4375c1.878907-1.074218 4.269531-.539062 5.515625 1.234375 1.246094 1.773438.933594 4.203125-.714844 5.605469l-19.558593 16.46875 40.382812-23.382812c1.917969-1.167969 4.414063-.617188 5.664063 1.25 1.25 1.867187.808594 4.382812-1 5.714843l-24.675782 19.046875 155.933594-90.019531c1.976563-1.214844 4.558594-.601563 5.773438 1.375 1.214844 1.972656.601562 4.558594-1.375 5.773437l-72.738282 47.640626 83.265626-48.066407c1.953124-1.117187 4.441406-.488281 5.632812 1.417969 1.195312 1.910156.671875 4.417969-1.1875 5.691406l-86.183594 58.375 102.953125-59.425781c1.988281-1.195313 4.566407-.554687 5.765625 1.429687 1.195313 1.988282.554688 4.566407-1.433594 5.761719l-1.601562 1.007813 12.589844-7.242188c1.945312-1.097656 4.414062-.480468 5.609375 1.410156 1.195312 1.890626.699219 4.386719-1.128907 5.675782l-84.519531 58.40625 113.730469-65.660156c1.96875-1.226563 4.554688-.625 5.78125 1.34375s.625 4.554687-1.339844 5.78125l-69.878906 46.785156 69.507812-40.128906c1.964844-1.136719 4.480469-.507813 5.671876 1.421874 1.195312 1.933594.640624 4.464844-1.257813 5.714844l-54.554687 36.15625 50.175781-28.972656c1.964843-1.117188 4.460937-.476562 5.644531 1.449219 1.1875 1.921875.632812 4.441406-1.246094 5.695312l-37.679687 24.800781 33.296875-19.230468c1.941406-1.136719 4.433594-.542969 5.652344 1.347656s.726562 4.40625-1.113282 5.703125l-66.917968 47.84375 62.421874-36.042969c1.964844-1.136718 4.476563-.507812 5.671876 1.421875 1.195312 1.933594.636718 4.464844-1.257813 5.714844l-7.101563 4.683594 2.710938-1.5625c1.941406-1.101563 4.410156-.488281 5.609375 1.394531 1.203125 1.882812.71875 4.375-1.101563 5.671875l-24.660156 17.207031 20.144532-11.648437c1.933593-1.109375 4.398437-.515625 5.609374 1.355469 1.214844 1.871093.75 4.367187-1.050781 5.675781l-12.421875 9.050781 7.914063-4.574219c1.59375-.917969 3.601562-.691406 4.949219.5625 1.347656 1.25 1.722656 3.234375.925781 4.890625l-5.269531 10.914063c2.054687-.84375 4.414062.0625 5.375 2.066406.960937 2.003906.195312 4.410156-1.75 5.484375l-11.171876 6.457031c-1.59375.917969-3.601562.6875-4.949218-.5625-1.347656-1.253906-1.722656-3.234375-.925782-4.894531l5.238282-10.910156-66.425782 38.355468c-1.9375 1.113282-4.398437.515626-5.613281-1.355468-1.210937-1.871094-.75-4.363282 1.054688-5.675782l12.429687-9.015624-32.601562 18.886718c-.636719.371094-1.359375.566406-2.097656.5625zm0 0" fill="#efc7a4"/><path d="m246.117188 140.335938c-1.808594 0-3.410157-1.15625-3.984376-2.871094-.570312-1.710938.019532-3.597656 1.464844-4.683594l18.40625-13.496094c-1.898437 1.027344-4.265625.449219-5.476562-1.335937-1.207032-1.789063-.867188-4.199219.792968-5.582031l18.667969-15.777344c-1.308593.105468-2.582031-.433594-3.417969-1.445313-1.316406-1.523437-1.363281-3.765625-.117187-5.34375l16.394531-20.757812c-.820312-1.949219-.0625-4.207031 1.769532-5.261719l5.035156-2.929688c1.746094-1.015624 3.964844-.644531 5.285156.878907 1.320312 1.527343 1.367188 3.777343.113281 5.355469l-8.476562 10.734374 17.859375-10.3125c1.882812-1.097656 4.289062-.566406 5.542968 1.214844 1.25 1.78125.933594 4.222656-.734374 5.625l-16.71875 14.140625 25.703124-14.828125c1.933594-1.167968 4.441407-.589844 5.675782 1.300782 1.234375 1.890624.75 4.421874-1.09375 5.722656l-18.398438 13.488281 26.019532-15.015625c2.003906-1.140625 4.554687-.449219 5.707031 1.550781 1.152343 1.996094.480469 4.550781-1.511719 5.71875l-92.410156 53.347657c-.636719.371093-1.363282.566406-2.097656.5625zm0 0" fill="#efc7a4"/><path d="m464.292969 242.28125c-1.675781 0-3.191407-.996094-3.855469-2.539062-.664062-1.539063-.34375-3.328126.808594-4.542969l11.171875-11.75-29.609375 17.097656c-1.871094 1.085937-4.261719.574219-5.519532-1.183594-1.261718-1.757812-.980468-4.1875.648438-5.609375l22.664062-19.867187-28.429687 16.417969c-1.878906 1.089843-4.28125.5625-5.53125-1.210938-1.253906-1.777344-.941406-4.214844.714844-5.621094l30.484375-26.019531-27.078125 15.578125c-1.921875 1.140625-4.402344.570312-5.636719-1.296875-1.234375-1.863281-.789062-4.367187 1.011719-5.695313l11.191406-8.394531-6.566406 3.796875c-1.929688 1.144532-4.421875.566406-5.652344-1.3125s-.761719-4.394531 1.0625-5.707031l6.042969-4.445313-1.460938.835938c-1.90625 1.085938-4.328125.515625-5.550781-1.304688-1.226563-1.816406-.84375-4.273437.875-5.636718l18.769531-14.613282-14.09375 8.136719c-1.914062 1.097657-4.347656.527344-5.578125-1.304687-1.226562-1.835938-.824219-4.304688.921875-5.65625l17.625-13.671875-13.003906 7.503906c-1.910156 1.113281-4.359375.550781-5.59375-1.285156-1.234375-1.835938-.832031-4.3125.921875-5.664063l18.714844-14.578125-14.042969 8.113281c-1.902344 1.105469-4.335938.554688-5.574219-1.261718-1.238281-1.820313-.863281-4.285156.859375-5.652344l20.917969-16.710938-16.203125 9.347657c-1.824219 1.042969-4.140625.570312-5.414062-1.105469-1.273438-1.675781-1.109376-4.03125.378906-5.515625l22.8125-22.554687-17.742188 10.242187c-1.660156.957031-3.761718.664063-5.097656-.710937-1.339844-1.371094-1.574219-3.476563-.574219-5.113282l7.59375-12.398437c-2.058593.867187-4.441406-.035157-5.410156-2.046875-.96875-2.015625-.1875-4.4375 1.777344-5.507813l13.695312-7.914062c1.675781-1.003907 3.816407-.71875 5.175781.683593 1.355469 1.402344 1.566407 3.550782.507813 5.191407l-7.554687 12.3125 31.601562-18.238281c1.828125-1.039063 4.144531-.566407 5.417969 1.105468 1.273437 1.675782 1.109375 4.035156-.382813 5.515625l-22.777344 22.546875 36.21875-20.941406c1.902344-1.132812 4.355469-.585938 5.605469 1.242188 1.25 1.828124.863281 4.308593-.882812 5.671874l-20.914063 16.753907 18.464844-10.660157c1.910156-1.113281 4.359375-.550781 5.59375 1.285157 1.234375 1.835937.832031 4.316406-.917969 5.664062l-18.71875 14.574219 14.042969-8.109375c1.914062-1.097656 4.347656-.527344 5.574219 1.304687 1.230469 1.832032.828125 4.304688-.917969 5.652344l-17.675781 13.691406 13.027343-7.554687c1.910157-1.113281 4.359376-.550781 5.59375 1.285156 1.234376 1.835938.832032 4.3125-.917968 5.664063l-18.769532 14.613281 14.09375-8.132813c1.925782-1.105468 4.378907-.515624 5.597657 1.339844 1.214843 1.859375.773437 4.34375-1.007813 5.667969l-6.007812 4.433594 1.417968-.839844c1.921876-1.109375 4.375-.53125 5.601563 1.320313 1.222656 1.851562.789063 4.339843-.984375 5.671874l-11.179688 8.390626 6.5625-3.785157c1.878907-1.089843 4.28125-.5625 5.535157 1.214844 1.25 1.773437.941406 4.214844-.71875 5.617187l-30.484375 26.019532 25.667968-14.820313c1.871094-1.085937 4.257813-.574219 5.519532 1.183594 1.257812 1.757813.976562 4.183594-.652344 5.605469l-22.660156 19.859375 17.769531-10.257813c1.804687-1.042968 4.101563-.601562 5.394531 1.035156 1.292969 1.636719 1.183594 3.972657-.25 5.488282l-11.179687 11.808594 6.023437-3.484376c2.011719-1.15625 4.578125-.46875 5.738282 1.542969 1.160156 2.007813.46875 4.578125-1.539063 5.734375l-31.054687 17.902344c-.621094.359375-1.324219.554688-2.042969.5625zm0 0" fill="#ac92ea"/><g fill="#262626"><path d="m2.664062 465.675781c6.773438 36.359375 47.53125 27.09375 75.625 27.09375h172.703126c31.894531 0 69.152343 5.246094 100.804687-.1875 44.324219-7.613281 32.332031-58.082031 32.332031-92.277343v-155.109376c14.160156-2.324218 27.679688-7.59375 39.675782-15.46875.117187.257813.175781.5625.300781.839844 8.6875 17.363282 37.023437 11.488282 52.367187 11.488282.445313-.027344.886719-.097657 1.320313-.21875.625.011718 1.253906-.039063 1.871093-.148438 19.136719-3.863281 21.996094-15.839844 21.996094-33.019531v-74.84375c0-12.355469 4.148438-35.070313-6.21875-44.738281-10.179687-9.5-36.753906-7.460938-49.519531-5.464844-10.132813.371094-18.925781 7.101562-21.925781 16.789062-13.457032-.550781-26.8125-2.601562-39.816406-6.113281.664062-19.859375 4.933593-48.195313-15.847657-57.804687-9.539062-2.960938-19.589843-3.894532-29.511719-2.734376h-26.859374c-.511719-10.714843-5.988282-20.578124-14.8125-26.675781-15.558594-9.074219-35.03125-7.988281-49.480469 2.761719-6.867188 5.714844-12.636719 12.636719-17.023438 20.421875-11.703125-1.808594-23.679687-.414063-34.65625 4.035156h-135.425781c-26.574219-.03125-52.375-1.601562-57.898438 30.878907-5.875 34.742187 0 75.359374 0 110.507812v186.453125c0 32.492187-5.992187 71.429687 0 103.535156zm486.820313-359.449219c3.113281 10.261719 0 26.464844 0 37.089844 0 14 10.492187 85.210938-10.804687 91.371094-15.6875.394531-38.046876 3.894531-44.140626-14.765625-.335937-1.078125-.59375-2.179687-.773437-3.296875 1.820313-10.707031 2.082031-21.621094.773437-32.398438v-55.492187c0-.226563 0-.453125 0-.667969v-20.078125c.554688-3.988281 2.210938-7.742187 4.785157-10.835937 10.75-12.824219 44.667969-8.972656 50.132812 9.074218zm-66.90625 2.0625c-.066406.722657-.191406 1.386719-.242187 2.148438-1.519532 25.113281 0 50.839844 0 75.996094-1.113282 11.753906-1.355469 23.570312-.714844 35.359375-8.835938 12.171875-65.6875 21.496093-83.160156 21.445312-21.539063-.074219-50.050782-5.21875-63.792969-23.980469-.117188-.542968-.585938-.972656-1.492188-1.222656-.625-.351562-1.324219-.542968-2.039062-.554687h-50.359375c-.515625-.066407-1.035156-.101563-1.554688-.109375h-49.226562c-17.761719-3.113282-30.847656-14.578125-28.90625-33.429688.1875-1.25.445312-2.492187.769531-3.710937.058594-.234375.101563-.46875.144531-.714844 4.042969-17.179687 19.613282-21.320313 35.445313-21.320313h55.640625c1.605468-.105468 3.15625-.628906 4.496094-1.527343 27.070312-.34375 54.273437-3.632813 70.902343-28.585938.570313-.839843-10.023437-.621093-11.953125 2.273438-13.355468 20.035156-33.84375 21.648437-55.320312 21.722656l49.210937-72.601563c.34375-.542968.460938-1.203124.316407-1.832031 1.972656-2.878906 4.0625-5.757812 6.171874-8.644531 23.449219 10.792969 46.800782 22.570312 70.832032 31.820312 1.550781.605469 3.046875.972657 4.574218 1.476563.75.648437 1.738282.953125 2.726563.839844 11.046875 3.050781 22.472656 4.523437 33.933594 4.363281 9.527343.144531 12.71875-1.007812 13.554687.789062zm-177.539063 159.476563c-14.804687-.480469-19.117187-11.582031-20.210937-23.980469.429687-6 .160156-12.1875 0-18.164062h38.066406c.4375 16.117187 2.945313 40.523437-17.878906 42.144531zm-140.722656 49.5625-28.042968-19.101563c0-.128906.09375-.277343.136718-.414062 3.015625-10.445312 6.03125-20.894531 9.054688-31.339844 15.023437 10.21875 30.046875 20.445313 45.074218 30.679688zm-33.027344 26.019531h-4.632812c-.796875-1.386718-1.261719-2.9375-1.359375-4.53125.273437-10.621094 2.816406-21.058594 7.460937-30.613281l23.054688 15.707031-17.707031 13.578125c-2.152344 1.65625-4.609375 4.339844-6.816407 5.835938zm65.273438-55.128906c-15.332031-10.273438-31.054688-20.269531-45.816406-31.265625-.394532-.296875-.820313-.554687-1.269532-.761719.347657-.40625.644532-.855468.882813-1.335937 3.253906-5.5 6.828125-10.800781 10.707031-15.878907l17.132813-25.308593c.941406-.601563 1.527343-1.625 1.570312-2.742188 0-4.199219 4.4375-8.980469 9.359375-14.019531.621094 1.992188 1.359375 4.039062 2.273438 6.195312 5.636718 12.976563 18.351562 21.445313 32.5 21.648438 1.09375.703125 2.378906 1.046875 3.675781.980469h11.289063c-14.085938 20.820312-28.183594 41.644531-42.304688 62.464843zm93.765625-239.78125 28.367187 19.363281c6.121094 3.554688 11.976563 7.550781 17.519532 11.953125.324218.300782.679687.566406 1.066406.789063-.472656.550781-.878906 1.15625-1.210938 1.800781-14.152343 23.523438-29.5625 46.265625-46.164062 68.132812-18.320312-.496093-49.101562-1.882812-72.257812 4.121094 3.089843-4.265625 6.976562-9.316406 8.453124-11.5l29.855469-44.050781c11.464844-16.867187 22.921875-33.738281 34.371094-50.609375zm-39.171875 177.308594h21.25c-.074219 6.625-.183594 13.261718.050781 19.878906v1.558594c.644531 10.464844-7.179687 19.53125-17.625 20.421875-10.035156-.457031-18.367187-7.90625-19.945312-17.828125zm137.296875-185.679688c9.101563 0 21.613281-2.046875 30.152344 1.949219 16.105469 7.554687 14.804687 30.929687 13.796875 48.78125-23.851563-8.589844-47.210938-18.496094-69.96875-29.667969 2.15625-3.121094 4.117187-6.371094 5.878906-9.730468 1.789062-3.550782 2.949219-7.382813 3.429688-11.332032zm-42.730469-28.8125c25.28125 17.230469 11.441406 41.304688-1.675781 60.617188l-47.726563-32.609375c0-1.023438 1-2.457031 2.894532-5.253907 10.894531-16.007812 22.539062-37.148437 46.507812-22.753906zm-59.289062 25.75-.765625 1.199219c-.898438.582031-1.679688 1.324219-2.308594 2.191406-14.082031 20.589844-28.007813 41.296875-41.964844 61.945313l-29.125 42.871094c-4.347656 4.722656-8.019531 10.027343-10.914062 15.757812-9.179688 4.671875-14.765625 14.300781-14.265625 24.589844-5.535156 7.613281-17.527344 16.375-19.355469 24.453125-5.667969.09375-11.210937-1.675781-15.773437-5.039063-8.96875-7.921875-11.890626-20.679687-7.269532-31.71875 1.21875-3.058594 2.824219-5.949218 4.777344-8.601562.769531-.371094 1.390625-.984375 1.769531-1.746094.089844-.292969.136719-.601562.136719-.90625 1.175781-1.613281 2.339844-3.207031 3.355469-4.757812l37.796875-55.71875c8.089844-13.679688 17.003906-26.855469 26.699218-39.449219 12.347657-14.125 47.597657-31.558594 67.207032-25.070313zm-211.617188 356.964844v-293.769531c-1.222656-12.5625-1.222656-25.210938 0-37.769531 5.875-27.363282 22.402344-22.964844 44.117188-22.964844h124.324218c-5.816406 2.691406-11.316406 5.597656-16.285156 8.292968-22.082031 11.984376-33.714844 36.710938-47.457031 57.007813-1.023437 1.519531-2.121094 3.039063-3.1875 4.554687h-63.152344c-4.0625 0-13.070312 6.113282-4.9375 6.113282h63.742188c-10.425781 14.269531-21.964844 28.820312-30.964844 43.945312h-27.914063c-2.234374 0-7.085937.839844-8.042968 3.285156-.957032 2.441407.796875 3.429688 3.257812 3.429688h28.914063c-.90625 1.679688-1.847657 3.359375-2.667969 5.089844-4.074219 6.605468-5.25 14.601562-3.253906 22.101562 1.996094 7.503906 6.992187 13.855469 13.8125 17.5625h-30.425782c-2.394531 0-13.664062 4.617188-7.976562 4.617188h50.363281c.714844-.070313 1.421875-.21875 2.105469-.445313 1.820312.160157 3.648438.1875 5.472656.09375-1.324218 2.066407-2.515625 4.246094-3.867187 6.1875-8.097657 11.96875-16.195313 23.933594-24.292969 35.898438-.363281.539062-.480469 1.207031-.328125 1.835937l-.394531 1.359375h-22.617188c-2.328125 0-6.851562.839844-8.066406 3.183594-1.21875 2.339844 1.054688 3.0625 3.164062 3.0625h25.714844l-10.019531 34.707031c-.039063.089844-.066406.1875-.085937.285156l-.335938 1.167969h-10.253906c-2.992188-.09375-5.902344.984375-8.109375 3.003907-1.492188 2.207031 1.300781 2.367187 2.972656 2.367187h13.839844l-.839844 2.980469c-2.089844 7.25-9.695313 23.003906-6.816406 32.171875h-1.433594c-5.449219 0-12.589844 8.257812-4.367187 8.257812h260.199218c5.445313 0 12.589844-8.257812 4.363282-8.257812h-231.214844c6.65625-4.71875 12.800781-10.71875 17.34375-14.210938l7.671875-5.875c.5625-.324219 1.078125-.722656 1.535156-1.183593l18.253906-14.050782h180.292969c2.617188 0 13.765625-5.035156 7.871094-5.035156h-181.667969l4.484375-3.449219c2.335938-.367187 4.441406-1.625 5.875-3.511719l23.003906-33.882812c5.320313 7.640625 13.675782 12.609375 22.925782 13.640625 9.253906 1.027344 18.496093-1.984375 25.363281-8.269531 1.160156-1.101563 2.222656-2.300782 3.179687-3.582032 5.453125 7.597657 14.242188 12.09375 23.597656 12.066407.175782 0 .359376-.074219.535157-.089844.335937.046875.675781.074219 1.015625.082031 15.773437-.09375 29.191406-11.515625 31.8125-27.066406.464844-4.507812.621094-9.042969.46875-13.574219 17.65625 10.359375 37.882812 15.523438 58.34375 14.890625 12.800781-.003906 25.582031-.96875 38.238281-2.878906v107.4375c0 33.574219 8.035156 78.613281 0 111.429688-8.601563 35.136718-70.160156 21.335937-97.890625 21.335937h-153.601562c-25.765626 0-92.890626 12.507813-104.707032-19.304687-7.546875-20.296876-1-53.273438-1-74.273438zm0 0"/><path d="m468.0625 135.988281v-16.785156c0-2.21875-12.152344-.421875-12.152344 3.253906v16.789063c0 2.214844 12.152344.417968 12.152344-3.257813zm0 0"/><path d="m468.136719 204.277344v-16.785156c0-6.273438-12.304688-4.390626-12.304688.972656v16.785156c0 6.269531 12.304688 4.390625 12.304688-.972656zm0 0"/></g></svg>