<svg id="mind" enable-background="new 0 0 300 300" height="512" viewBox="0 0 300 300" width="512" xmlns="http://www.w3.org/2000/svg"><g><circle cx="168" cy="118.519" fill="#e5efef" r="86"/><g fill="#4c241d"><path d="m254 232.519c-2.209 0-4-1.791-4-4v-8c0-2.209 1.791-4 4-4s4 1.791 4 4v8c0 2.209-1.791 4-4 4z"/><path d="m254 256.519c-2.209 0-4-1.791-4-4v-8c0-2.209 1.791-4 4-4s4 1.791 4 4v8c0 2.209-1.791 4-4 4z"/><path d="m246 240.519h-8c-2.209 0-4-1.791-4-4s1.791-4 4-4h8c2.209 0 4 1.791 4 4s-1.791 4-4 4z"/><path d="m270 240.519h-8c-2.209 0-4-1.791-4-4s1.791-4 4-4h8c2.209 0 4 1.791 4 4s-1.791 4-4 4z"/><circle cx="233.134" cy="199.168" r="4.276"/><circle cx="257.134" cy="179.168" r="4.276"/></g><g><path d="m204.537 100.519c6.521 11.368 10.574 24.381 11.228 38.241.31 6.561-.111 12.966-1.185 19.135-2.693 15.467-9.494 29.455-19.187 40.724-4.946 5.75-9.393 14.725-9.393 22.422v47.478h-76l-8-28-31.942.817c-3.195 0-5.877-2.493-6.217-5.78l-4.125-46.792-12.534-3.8c-3.672-.844-5.798-4.827-4.533-8.492l22.878-35.961c-4.336.005-7.775-3.772-7.249-8.076 1.397-11.425 4.719-22.63 9.624-31.915" fill="#ffe8dc"/><path d="m186 272.519h-76c-1.785 0-3.355-1.184-3.846-2.9l-7.148-25.021-28.846.736h-.002c-5.359 0-9.742-4.025-10.297-9.363l-3.895-44.164-9.945-3.016c-2.551-.576-4.982-2.418-6.404-4.982-1.461-2.635-1.734-5.785-.75-8.641.102-.297.238-.58.406-.844l20.115-31.619c-.861-.555-1.65-1.229-2.344-2.01-2.127-2.398-3.123-5.586-2.738-8.744 1.486-12.141 4.965-23.654 10.059-33.299 1.031-1.953 3.441-2.701 5.406-1.67 1.953 1.031 2.699 3.451 1.668 5.404-4.578 8.668-7.842 19.512-9.191 30.535-.148 1.211.426 2.064.783 2.467.631.713 1.537 1.121 2.486 1.121h.01c1.459 0 2.803.795 3.506 2.072.703 1.281.652 2.842-.131 4.074l-22.568 35.473c-.121.613-.025 1.252.279 1.799.189.344.633.945 1.465 1.137l12.797 3.871c1.562.475 2.682 1.85 2.824 3.477l4.125 46.793c.125 1.188 1.088 2.131 2.234 2.131l31.84-.814c1.812-.127 3.445 1.146 3.947 2.898l7.172 25.1h68.983v-43.48c0-9.584 5.58-19.473 10.359-25.029 9.451-10.988 15.773-24.404 18.279-38.801 1.041-5.971 1.42-12.115 1.131-18.262-.6-12.676-4.301-25.275-10.703-36.439-1.098-1.916-.436-4.361 1.48-5.461 1.918-1.1 4.361-.436 5.461 1.48 7.029 12.26 11.094 26.105 11.754 40.043.316 6.732-.102 13.465-1.24 20.01-2.756 15.82-9.705 30.566-20.096 42.646-4.059 4.717-8.426 12.93-8.426 19.812v47.479c.001 2.21-1.79 4.001-3.999 4.001z" fill="#4c241d"/></g><circle cx="30" cy="64.519" fill="#4c241d" r="4"/><circle cx="242" cy="116.519" fill="#4c241d" r="4"/><path d="m62.002 212.521c-1.588 0-3.09-.953-3.717-2.516-.82-2.053.178-4.379 2.229-5.201l.844-.336c-1.904-.309-3.357-1.959-3.357-3.949 0-2.209 1.791-4 4-4h20c1.918 0 3.564 1.361 3.928 3.244s-.662 3.758-2.441 4.471l-20 8c-.49.193-.992.287-1.486.287z" fill="#4c241d"/><path d="m101.996 244.519c-1.896 0-3.58-1.354-3.932-3.285-.395-2.174 1.047-4.256 3.221-4.65l41.328-7.514 3.465-17.334c.432-2.168 2.541-3.568 4.705-3.139 2.166.432 3.572 2.539 3.139 4.705l-3.996 20c-.32 1.609-1.592 2.859-3.207 3.152l-44.004 8c-.24.043-.483.065-.719.065z" fill="#4c241d"/><path d="m82.008 152.519c-1.76 0-10.916-1.156-11.939-6.652-.406-2.172 1.027-4.26 3.199-4.664 1.809-.334 3.529.586 4.309 2.137.902.512 3.182 1.18 4.432 1.18 1.234 0 3.357-.686 4.26-1.244.523-1.6 2.027-2.756 3.803-2.756 2.209 0 4 1.791 4 4-.002 6.03-8.972 7.999-12.064 7.999z" fill="#4c241d"/><g><path d="m109.977 37.2 65.992 66.89-33.941 33.941-66.533-66.533c-7.502-7.502-7.502-19.664 0-27.166l7.224-7.224c7.538-7.538 19.771-7.496 27.258.092z" fill="#a9ba5a"/><path d="m142.027 142.03c-1.023 0-2.047-.391-2.828-1.172l-66.533-66.533c-9.049-9.047-9.049-23.771 0-32.822l7.225-7.223c4.385-4.387 10.209-6.799 16.408-6.799h.078c6.23.021 12.072 2.475 16.447 6.91l65.992 66.889c1.543 1.564 1.535 4.082-.02 5.637l-33.941 33.941c-.781.782-1.804 1.172-2.828 1.172zm-45.728-106.549c-4.061 0-7.879 1.58-10.752 4.455l-7.225 7.223c-5.93 5.932-5.93 15.58 0 21.51l63.705 63.705 28.303-28.305-63.201-64.061c-2.867-2.906-6.695-4.514-10.777-4.527-.018 0-.036 0-.053 0z" fill="#4c241d"/></g><path d="m152.773 130.835c-1.023 0-2.047-.391-2.828-1.172l-57.373-57.373c-1.562-1.562-1.562-4.094 0-5.656s4.094-1.562 5.656 0l57.373 57.373c1.562 1.562 1.562 4.094 0 5.656-.781.781-1.804 1.172-2.828 1.172z" fill="#4c241d"/><path d="m164.086 119.521c-1.023 0-2.047-.391-2.828-1.172l-67.656-67.657c-1.562-1.562-1.562-4.094 0-5.656s4.094-1.562 5.656 0l67.656 67.656c1.562 1.562 1.562 4.094 0 5.656-.781.782-1.805 1.173-2.828 1.173z" fill="#4c241d"/><g><path d="m186.503 131.095-17.47 17.47 26.735 9.265z" fill="#6b4f5b"/><path d="m195.768 161.829c-.439 0-.881-.072-1.311-.221l-26.734-9.264c-1.301-.451-2.279-1.541-2.588-2.883-.309-1.344.096-2.75 1.07-3.725l17.469-17.471c.975-.977 2.377-1.381 3.725-1.07 1.342.309 2.432 1.287 2.883 2.588l9.266 26.734c.502 1.449.133 3.055-.951 4.139-.763.765-1.786 1.173-2.829 1.173zm-19.391-14.951 12.912 4.473-4.475-12.91z" fill="#4c241d"/></g><g><path d="m186.503 131.095-10.535-27.005-33.941 33.941 27.006 10.534z" fill="#bf7e68"/><path d="m169.033 152.565c-.488 0-.982-.09-1.453-.273l-27.006-10.535c-1.26-.49-2.184-1.584-2.461-2.906-.277-1.32.131-2.693 1.086-3.648l33.941-33.941c.955-.955 2.334-1.371 3.648-1.086 1.322.277 2.416 1.203 2.906 2.461l10.533 27.006c.576 1.479.225 3.158-.898 4.281l-17.469 17.471c-.762.762-1.786 1.17-2.827 1.17zm-19.847-16.037 18.867 7.361 13.773-13.775-7.359-18.867z" fill="#4c241d"/></g></g></svg>