<svg id="Capa_1" enable-background="new 0 0 512 512" height="512" viewBox="0 0 512 512" width="512" xmlns="http://www.w3.org/2000/svg"><g><g><path d="m361 132.851h-30v-51.548c-13.374-7.646-44.692-23.452-75-23.452-30.469 0-61.685 15.791-75 23.438v51.563h-30v-68.029c30.765-20.306 68.418-36.973 105-36.973 36.527 0 74.164 16.62 105 36.973z" fill="#995a4d"/></g><path d="m331 81.303v51.548h30v-68.028c-30.835-20.354-68.474-36.973-105-36.973v30c30.308.001 61.626 15.806 75 23.453z" fill="#804540"/><g><path d="m482 447.851h-452v-169.278c17.68 9.164 26.803 19.277 45 19.277h362c18.2 0 27.378-10.144 45-19.277z" fill="#995a4d"/></g><path d="m256 297.851v150h226v-169.278c-17.622 9.133-26.799 19.277-45 19.277h-181z" fill="#804540"/><g><path d="m338.2 117.851-82.2 31.8-82.2-31.8h-173.8v135c0 42.87 35.317 75 75 75h362c39.487 0 75-31.883 75-75v-135z" fill="#b37059"/></g><path d="m437 327.851c39.487 0 75-31.884 75-75v-135h-173.8l-82.2 31.8v178.2z" fill="#995a4d"/><g id="_Employment_1_"><g><g><path d="m331.901 407.95-75.901 76.199-75.901-76.199 30.3-198.299 45.601-30 45.601 30z" fill="#3d4566"/></g></g><g><path d="m90 267.851h30v90h-30z" fill="#f3f5f9"/></g><g><path d="m392 267.851h30v90h-30z" fill="#e1e6f0"/></g></g><path d="m331.901 407.95-30.3-198.299-45.601-30v304.498z" fill="#2e2e4d"/><path d="m338.2 117.851-36.599 91.8h-91.202l-36.599-91.8z" fill="#4d5e80"/><path d="m256 209.651h45.601l36.599-91.8h-82.2z" fill="#3d4566"/></g></svg>