<?xml version="1.0" encoding="iso-8859-1"?>
<!-- Generator: Adobe Illustrator 19.0.0, SVG Export Plug-In . SVG Version: 6.00 Build 0)  -->
<svg version="1.1" id="Capa_1" xmlns="http://www.w3.org/2000/svg" xmlns:xlink="http://www.w3.org/1999/xlink" x="0px" y="0px"
	 viewBox="0 0 512 512" style="enable-background:new 0 0 512 512;" xml:space="preserve">
<path style="fill:#FED9A8;" d="M319.316,322.31c-9.807-1.971-16.863-10.586-16.863-20.589v-47.339H256l0,0h-46.453v47.339
	c0,10.003-7.056,18.618-16.863,20.589l-11.319,2.275v76.02H256l0,0h74.635v-76.02L319.316,322.31z"/>
<path style="fill:#F2EBDA;" d="M416.036,347.835l-97.859-30.512l0,0c-34.066,34.994-90.288,34.994-124.354,0l0,0l-97.859,30.512
	c-41.31,12.163-69.673,50.082-69.673,93.145v62.073c0,4.941,4.006,8.947,8.947,8.947h441.524c4.941,0,8.947-4.006,8.947-8.947
	V440.98C485.71,397.916,457.346,359.998,416.036,347.835z"/>
<path style="fill:#D8D0BF;" d="M416.036,347.835l-97.859-30.512l0,0c-4.771,4.901-9.988,9.09-15.507,12.618l57.389,17.894
	c41.31,12.163,69.673,50.082,69.673,93.145V512h47.029c4.942,0,8.948-4.006,8.948-8.947V440.98
	C485.71,397.916,457.346,359.998,416.036,347.835z"/>
<g>
	<path style="fill:#F4C892;" d="M380.191,202.857h-19.832v-57.516h19.832c10.22,0,18.505,8.285,18.505,18.505v20.506
		C398.695,194.572,390.41,202.857,380.191,202.857z"/>
	<path style="fill:#F4C892;" d="M131.809,202.857h19.832v-57.516h-19.832c-10.22,0-18.505,8.285-18.505,18.505v20.506
		C113.305,194.572,121.589,202.857,131.809,202.857z"/>
</g>
<path style="fill:#FED9A8;" d="M256,293.743L256,293.743c-63.951,0-115.793-51.842-115.793-115.793v-32.542
	c0-63.951,51.842-115.793,115.793-115.793l0,0c63.951,0,115.793,51.842,115.793,115.793v32.542
	C371.793,241.901,319.951,293.743,256,293.743z"/>
<path style="fill:#F4CE9F;" d="M256,29.616L256,29.616c-9.559,0-18.844,1.167-27.729,3.35
	c50.558,12.426,88.063,58.051,88.063,112.442v32.542c0,54.392-37.506,100.016-88.063,112.442c8.885,2.184,18.17,3.35,27.729,3.35
	l0,0c63.951,0,115.793-51.842,115.793-115.793v-32.542C371.793,81.458,319.951,29.616,256,29.616z"/>
<path style="fill:#F2EBDA;" d="M295.236,0h-78.472c-47.316,0-85.674,38.358-85.674,85.674v41.162h249.82V85.674
	C380.91,38.358,342.552,0,295.236,0z"/>
<path style="fill:#D8D0BF;" d="M295.236,0h-55.718c47.316,0,85.674,38.357,85.674,85.674v41.162h55.717V85.674
	C380.91,38.358,342.552,0,295.236,0z"/>
<path style="fill:#4D4D4D;" d="M353.339,22.731c-10.898-10.065-24.414-17.323-39.413-20.662v124.767h39.413V22.731z"/>
<path style="fill:#353535;" d="M351.779,21.337c-0.335-0.295-0.672-0.587-1.012-0.877c-0.534-0.455-1.068-0.909-1.613-1.351
	c-0.189-0.153-0.383-0.299-0.573-0.451c-1.094-0.872-2.21-1.717-3.346-2.535c-0.322-0.232-0.645-0.462-0.97-0.69
	c-0.611-0.427-1.225-0.852-1.848-1.263c-0.105-0.07-0.213-0.135-0.319-0.204c-1.309-0.856-2.643-1.676-4-2.461
	c-0.259-0.15-0.517-0.3-0.777-0.447c-0.711-0.402-1.426-0.798-2.149-1.179c-0.005-0.003-0.01-0.005-0.015-0.008
	c-1.549-0.817-3.128-1.583-4.732-2.306c-0.159-0.072-0.318-0.145-0.478-0.216c-2.486-1.102-5.033-2.09-7.636-2.957
	c-0.054-0.018-0.108-0.037-0.162-0.055c-2.683-0.887-5.425-1.645-8.219-2.267c-0.002,0-0.003-0.001-0.005-0.001v41.156
	c7.156,12.516,11.267,26.998,11.267,42.448v41.162h28.146V22.731C352.826,22.258,352.303,21.797,351.779,21.337z"/>
<g>
	<path style="fill:#4D4D4D;" d="M158.661,126.836h39.413V2.069c-14.999,3.339-28.515,10.597-39.413,20.662V126.836z"/>
	<rect x="236.29" style="fill:#4D4D4D;" width="39.41" height="126.84"/>
	<path style="fill:#4D4D4D;" d="M485.467,434.368c-0.955-14.069-4.928-27.455-11.372-39.413H37.905
		c-6.444,11.959-10.417,25.344-11.372,39.413H485.467z"/>
</g>
<path style="fill:#353535;" d="M483.178,419.004c-0.016-0.067-0.03-0.134-0.046-0.2c-0.565-2.41-1.222-4.789-1.964-7.133
	c-0.042-0.132-0.082-0.265-0.125-0.397c-0.733-2.282-1.552-4.529-2.447-6.74c-0.074-0.183-0.147-0.366-0.222-0.548
	c-0.298-0.722-0.602-1.441-0.916-2.154c-0.005-0.012-0.011-0.023-0.016-0.035c-0.626-1.418-1.288-2.816-1.98-4.199
	c-0.101-0.203-0.202-0.406-0.305-0.608c-0.347-0.682-0.699-1.361-1.062-2.035h-55.977c6.443,11.959,10.417,25.344,11.372,39.413
	h55.977c-0.179-2.631-0.463-5.239-0.849-7.817c-0.002-0.009-0.003-0.019-0.004-0.028
	C484.233,423.987,483.753,421.48,483.178,419.004z"/>
<path style="fill:#4D4D4D;" d="M95.964,347.835c-7.394,2.177-14.364,5.192-20.84,8.901h361.753
	c-6.476-3.709-13.446-6.724-20.84-8.901l-97.859-30.512l0,0c-34.066,34.994-90.288,34.994-124.354,0l0,0L95.964,347.835z"/>
<path style="fill:#353535;" d="M432.372,354.316c-0.196-0.099-0.389-0.201-0.586-0.298c-0.651-0.324-1.308-0.637-1.968-0.947
	c-0.406-0.19-0.815-0.377-1.225-0.561c-0.577-0.261-1.153-0.524-1.737-0.774c-0.946-0.405-1.9-0.797-2.862-1.173
	c-0.395-0.155-0.795-0.3-1.193-0.45c-0.759-0.285-1.523-0.564-2.292-0.832c-0.362-0.126-0.724-0.252-1.089-0.374
	c-1.117-0.373-2.24-0.735-3.377-1.07c-0.002-0.001-0.004-0.001-0.006-0.002l-97.859-30.512l0,0l0,0
	c-0.002,0.002-0.004,0.004-0.006,0.006c-0.941,0.966-1.904,1.897-2.878,2.809c-0.199,0.187-0.396,0.376-0.597,0.561
	c-0.842,0.772-1.697,1.522-2.562,2.254c-0.402,0.342-0.806,0.68-1.213,1.013c-0.677,0.553-1.36,1.095-2.049,1.624
	c-0.663,0.511-1.333,1.007-2.007,1.496c-0.127,0.092-0.255,0.181-0.382,0.272c-1.253,0.899-2.524,1.76-3.812,2.583l57.389,17.894
	c7.394,2.177,14.364,5.192,20.84,8.901h55.977C435.402,355.891,433.898,355.087,432.372,354.316z"/>
<path style="fill:#4D4D4D;" d="M485.71,503.053v-30.466H26.29v30.466c0,4.942,4.006,8.947,8.947,8.947h441.524
	C481.704,512,485.71,507.994,485.71,503.053z"/>
<path style="fill:#353535;" d="M429.733,512h47.029c4.941,0,8.947-4.006,8.947-8.947v-30.466h-55.977V512H429.733z"/>
<path style="fill:#4D4D4D;" d="M390.472,145.279c-89.632-8.055-179.311-8.055-268.943,0c-8.322,0.748-15.7-5.322-16.571-13.631
	c-0.011-0.102-0.021-0.205-0.032-0.307c-0.891-8.493,5.346-16.075,13.851-16.84c91.458-8.225,182.99-8.225,274.448,0
	c8.505,0.765,14.742,8.347,13.851,16.84c-0.011,0.102-0.021,0.205-0.032,0.307C406.172,139.957,398.793,146.027,390.472,145.279z"/>
<g>
	<path style="fill:#353535;" d="M110.646,512v-84.699c0-4.294-3.48-7.775-7.775-7.775c-4.294,0-7.775,3.481-7.775,7.775V512l0,0
		H110.646L110.646,512z"/>
	<path style="fill:#353535;" d="M412.298,427.301c0-4.294-3.48-7.775-7.775-7.775s-7.775,3.481-7.775,7.775V512l0,0h15.549l0,0
		L412.298,427.301L412.298,427.301z"/>
	<path style="fill:#353535;" d="M275.706,8.017V0h-36.188C252.454,0,264.711,2.884,275.706,8.017z"/>
</g>
<path style="fill:#3A3A3A;" d="M407.076,131.34c0.891-8.493-5.346-16.075-13.851-16.84c-13.612-1.224-27.226-2.243-40.84-3.103
	l-1.481,30.871c13.19,0.836,26.38,1.826,39.569,3.011c8.322,0.748,15.7-5.322,16.572-13.631
	C407.054,131.545,407.065,131.443,407.076,131.34z"/>
<g>
</g>
<g>
</g>
<g>
</g>
<g>
</g>
<g>
</g>
<g>
</g>
<g>
</g>
<g>
</g>
<g>
</g>
<g>
</g>
<g>
</g>
<g>
</g>
<g>
</g>
<g>
</g>
<g>
</g>
</svg>
