<svg id="Capa_1" enable-background="new 0 0 512 512" height="512" viewBox="0 0 512 512" width="512" xmlns="http://www.w3.org/2000/svg"><g><path d="m13.387 295.833c-1.573-11.218-2.387-22.681-2.387-34.333 0-135.31 109.69-245 245-245s245 109.69 245 245c0 11.652-.813 23.115-2.387 34.333z" fill="#f5c02c"/><path d="m380.177 285.5v88h-342.136c-13.816-26.832-22.822-56.545-25.88-88z" fill="#037e73"/><path d="m370 285.5h129.839c-2.818 28.983-10.686 56.487-22.713 81.621-25.836 53.995-107.126 35.202-107.126-24.656z" fill="#0ab59e"/><path d="m358.763 49.024c30.697 9.921 52.723 36.996 52.723 68.841 0 40.253-35.192 72.885-78.603 72.885h-10.004c-43.411 0-78.603-32.632-78.603-72.885 0-31.845 22.026-58.92 52.723-68.841 10.292-3.326 21.7.509 27.527 9.05l3.356 4.919 3.356-4.919c5.824-8.54 17.233-12.376 27.525-9.05z" fill="#87a0af"/><path d="m363.498 165.719c0 31.797-27.061 57.574-60.442 57.574h-7.693c-33.381 0-60.442-25.777-60.442-57.574 0-12.313 4.058-23.723 10.969-33.083-1.059-4.77-1.616-9.71-1.616-14.771 0-30.268 19.899-56.227 48.229-67.242-10.086 16.798-16.437 37.836-17.354 60.821 6.32-2.136 13.124-3.298 20.213-3.298h7.693c33.382 0 60.443 25.776 60.443 57.573z" fill="#738c96"/><path d="m260.201 168.033c-8.495 0-15.381-6.886-15.381-15.381v-6.153c0-8.495 6.886-15.381 15.381-15.381 8.495 0 15.381 6.886 15.381 15.381v6.153c.001 8.494-6.886 15.381-15.381 15.381z" fill="#f8e6cc"/><path d="m410.939 146.499v6.153c0 8.495-6.886 15.381-15.381 15.381-1.519 0-2.986-.22-4.372-.63-7.539 19.893-24.185 35.306-44.849 41.15v23.467c0 10.194-8.264 18.458-18.458 18.458s-18.458-8.264-18.458-18.458v-23.467c-28.406-8.034-49.22-34.152-49.22-65.13v-24.61c0-37.378 30.301-67.678 67.678-67.678 37.377 0 67.678 30.301 67.678 67.678v12.305c8.496-.001 15.382 6.886 15.382 15.381zm-150.739-15.382c-8.494.001-15.38 6.887-15.38 15.381v6.153c0 8.494 6.886 15.381 15.38 15.381-3.735-2.806-6.151-7.273-6.151-12.305v-12.305c0-5.031 2.416-9.499 6.151-12.305z" fill="#f3d6ac"/><path d="m395.558 118.812v24.61c0 31.25-21.18 57.553-49.969 65.337-5.551 1.501-11.41 1.501-16.961 0-28.788-7.784-49.969-34.087-49.969-65.337v-24.61c0-34.247 25.438-62.553 58.449-67.054 33.012 4.501 58.45 32.807 58.45 67.054z" fill="#f8e6cc"/><path d="m336.801 147.564c-2.384 2.384-5.552 3.697-8.921 3.697-3.368 0-6.537-1.313-8.921-3.697-1.802-1.803-1.802-4.724 0-6.526 1.802-1.801 4.724-1.801 6.526 0 .641.641 1.492.994 2.395.994s1.754-.353 2.395-.994c1.802-1.801 4.724-1.801 6.526 0 1.802 1.802 1.802 4.723 0 6.526z" fill="#eabe8d"/><path d="m308.07 122.509c1.802 1.802 1.802 4.724 0 6.526-1.802 1.801-4.724 1.801-6.526 0-.641-.641-1.492-.994-2.395-.994-.904 0-1.754.353-2.395.994-1.802 1.801-4.724 1.801-6.526 0-1.802-1.802-1.802-4.724 0-6.526 2.384-2.384 5.552-3.697 8.921-3.697s6.537 1.313 8.921 3.697zm57.461 0c-2.384-2.384-5.552-3.697-8.921-3.697-3.368 0-6.537 1.313-8.921 3.697-1.802 1.802-1.802 4.724 0 6.526 1.802 1.801 4.724 1.801 6.526 0 .641-.641 1.491-.994 2.395-.994s1.754.353 2.396.994c1.802 1.801 4.724 1.801 6.526 0 1.801-1.802 1.801-4.724-.001-6.526z" fill="#7d402d"/><path d="m358.64 96.938c-11.554 0-21.417 7.373-25.134 17.66-3.926-1.817-8.484-1.84-12.425-.07-3.737-10.251-13.582-17.59-25.11-17.59-14.73 0-26.715 11.984-26.715 26.715s11.984 26.715 26.715 26.715 26.715-11.984 26.715-26.715c0-.251-.004-.501-.011-.75 1.263-1.096 2.857-1.694 4.542-1.694 1.764 0 3.427.655 4.716 1.851-.004.198-.007.395-.007.594 0 14.73 11.983 26.715 26.714 26.715s26.715-11.984 26.715-26.715-11.984-26.716-26.715-26.716zm-62.669 45.43c-10.319 0-18.715-8.396-18.715-18.715s8.396-18.715 18.715-18.715 18.715 8.396 18.715 18.715-8.396 18.715-18.715 18.715zm62.669 0c-10.319 0-18.714-8.396-18.714-18.715s8.395-18.715 18.714-18.715 18.715 8.396 18.715 18.715-8.396 18.715-18.715 18.715z" fill="#962437"/><path d="m341.967 171.717c-3.766 3.766-8.769 5.84-14.087 5.84-5.319 0-10.322-2.074-14.088-5.84-1.562-1.563-1.562-4.095.001-5.657 1.563-1.561 4.095-1.562 5.657.001 2.254 2.254 5.247 3.496 8.43 3.496 3.182 0 6.176-1.242 8.431-3.496 1.561-1.563 4.096-1.563 5.656 0 1.562 1.561 1.562 4.094 0 5.656z" fill="#c92e43"/><path d="m358.359 48.911c30.91 9.827 53.126 36.987 53.126 68.954 0 .645-.009 1.288-.027 1.928-1.847.121-3.712.182-5.592.182h-10.013c-23.802 0-45.134-9.791-59.562-25.262-12.861 8.484-28.594 13.474-45.586 13.474h-10.015c-1.161 0-2.316-.023-3.462-.069-18.138-.73-27.571-22.125-15.71-35.867 9.151-10.601 21.431-18.77 35.593-23.298 10.106-3.232 21.214-2.408 30.689 2.181l.002-.001c9.432-4.568 20.49-5.422 30.557-2.222z" fill="#87a0af"/><path d="m278.931 108.169c-11.68-.238-22.604-2.84-32.506-7.309 6.267-24.288 23.2-44.235 52.491-52.527 9.747-2.759 20.25-2.042 28.884 2.8-21.716 9.331-41.925 32.352-48.869 57.036z" fill="#738c96"/><path d="m330.956 229.558v18.458h-36.916s-18.458 6.283-18.458 20.919v92.288h-46.144v-92.288c0-23.786 19.282-43.068 43.068-43.068h22.098c1.568-4.992 6.232-8.614 11.741-8.614h12.305c6.797 0 12.306 5.509 12.306 12.305z" fill="#ea5569"/><path d="m426.321 268.935v92.288l-66.321 94.277-112.104 20v-206.565c0-23.786 19.282-43.068 43.068-43.068h34.403c1.568-4.992 6.232-8.614 11.741-8.614h12.305c5.51 0 10.173 3.621 11.741 8.614h22.098c23.787 0 43.069 19.282 43.069 43.068z" fill="#fd7a7a"/><path d="m392.482 346.457v-61.526c0-3.398-2.755-6.153-6.153-6.153-3.398 0-6.153 2.755-6.153 6.153v61.526c0 3.398 2.755 6.153 6.153 6.153 3.398 0 6.153-2.755 6.153-6.153z" fill="#ea5569"/><path d="m336.493 229.558v116.04c0 3.228-2.617 5.845-5.845 5.845-3.228 0-5.845-2.617-5.845-5.845v-116.04c0-6.796 5.509-12.305 12.305-12.305h11.69c-6.795 0-12.305 5.509-12.305 12.305z" fill="#f3d373"/><path d="m311.987 242.133c0-2.761 4.477-5 10-5 3.552 0 6.671.926 8.445 2.322 1.774-1.396 4.893-2.322 8.445-2.322 5.523 0 10 2.239 10 5s-4.477 5-10 5c-3.552 0-6.671-.926-8.445-2.322-1.774 1.396-4.893 2.322-8.445 2.322-5.523 0-10-2.238-10-5zm26.89 25.37c-3.552 0-6.671.926-8.445 2.322-1.774-1.396-4.893-2.322-8.445-2.322-5.523 0-10 2.239-10 5s4.477 5 10 5c3.552 0 6.671-.926 8.445-2.322 1.774 1.396 4.893 2.322 8.445 2.322 5.523 0 10-2.239 10-5s-4.477-5-10-5z" fill="#f9eecf"/><path d="m222.759 136.225c-.033 3.961-.821 7.761-2.43 11.311-1.604 3.54-3.935 6.63-6.88 9.261-1.299 1.16-3.324.158-3.233-1.581.001-.016.002-.031.002-.047-.407.683-.845 1.351-1.316 2-2.279 3.148-5.18 5.71-8.592 7.699-1.487.867-3.297-.484-2.863-2.149.659-2.528 1.004-5.199 1.047-7.981-5.944 2.388-12.299 3.681-18.903 3.681h-7.646c-7.157 0-14.021-1.519-20.387-4.304-6.365 2.786-13.23 4.304-20.387 4.304h-7.646c-33.179 0-60.075-32.631-60.075-72.884 0-19.484 6.301-37.182 16.567-50.258.017-.344.046-.687.089-1.031 1.371-10.87 15.662-18.654 35.47-20.963 2.601-.417 5.254-.633 7.949-.633h.431c3.035-.111 6.162-.103 9.36.031l-.002.015c6.385.272 12.516 1.752 18.243 4.258 5.912-2.587 12.254-4.081 18.861-4.281 3.13-.126 6.191-.132 9.164-.023h.008c2.302 0 4.573.157 6.808.463 20.617 2.075 35.628 9.979 37.034 21.133.067.532.102 1.065.106 1.597 10.005 13.019 16.127 30.487 16.127 49.691.002 19.701-6.44 37.574-16.906 50.691z" fill="#87a0af"/><path d="m127.24 158.421h-3.714c-33.179 0-60.075-32.631-60.075-72.884 0-19.484 6.301-37.182 16.567-50.258.017-.344.046-.687.089-1.031 1.371-10.87 15.662-18.654 35.47-20.963 2.601-.417 5.254-.633 7.949-.633h.431c3.035-.111 6.162-.103 9.36.031l-.002.015c.611.026 1.219.063 1.825.111-8.182 4.424-13.419 10.655-14.222 18.128-.043.403-.073.806-.089 1.209-10.265 15.347-16.567 36.119-16.567 58.986.001 27.308 8.987 51.627 22.978 67.289z" fill="#738c96"/><path d="m83.881 135.703c-8.495 0-15.381-6.886-15.381-15.381v-6.153c0-8.495 6.886-15.381 15.381-15.381 8.495 0 15.381 6.886 15.381 15.381v6.153c0 8.495-6.886 15.381-15.381 15.381z" fill="#f3d6ac"/><path d="m77.728 111.093v12.305c0 5.032 2.416 9.499 6.151 12.305-8.494-.001-15.38-6.887-15.38-15.381v-6.153c0-8.494 6.886-15.381 15.38-15.381-3.735 2.806-6.151 7.274-6.151 12.305zm141.509-12.305v-12.305c0-37.378-30.301-67.678-67.678-67.678-37.378 0-67.678 30.301-67.678 67.678v24.61c0 30.979 20.814 57.096 49.221 65.13v23.466c0 10.194 8.264 18.458 18.458 18.458 10.194 0 18.458-8.264 18.458-18.458v-23.466c20.664-5.844 37.31-21.258 44.849-41.15 1.386.41 2.853.63 4.371.63 8.495 0 15.381-6.887 15.381-15.381v-6.153c0-8.494-6.887-15.381-15.382-15.381z" fill="#eabe8d"/><path d="m219.237 86.483v24.61c0 31.25-21.18 57.553-49.969 65.337-5.551 1.501-11.41 1.501-16.961 0-28.788-7.784-49.969-34.087-49.969-65.337v-24.61c0-34.247 25.438-62.553 58.449-67.054 33.013 4.501 58.45 32.807 58.45 67.054z" fill="#f3d6ac"/><path d="m160.48 108.708c1.802 1.802 1.802 4.724 0 6.526-2.384 2.384-5.552 3.697-8.921 3.697s-6.537-1.313-8.921-3.697c-1.802-1.802-1.802-4.724 0-6.526 1.802-1.801 4.724-1.801 6.526 0 .641.641 1.492.994 2.395.994.904 0 1.754-.353 2.395-.994 1.802-1.801 4.724-1.801 6.526 0zm14.654-54.305c-1.157-1.974-3.696-2.637-5.668-1.481-9.707 5.686-26.107 5.686-35.814 0-1.976-1.157-4.512-.493-5.668 1.481s-.494 4.511 1.48 5.668c6.195 3.629 14.145 5.443 22.094 5.443s15.9-1.814 22.094-5.443c1.975-1.156 2.638-3.694 1.482-5.668zm-37.385-6.467c3.872 2.268 8.841 3.402 13.81 3.402s9.938-1.134 13.81-3.402c1.974-1.156 2.636-3.694 1.48-5.668-1.157-1.974-3.695-2.638-5.668-1.481-5.215 3.056-14.03 3.056-19.245 0-1.977-1.157-4.512-.493-5.668 1.481s-.493 4.511 1.481 5.668z" fill="#eabe8d"/><path d="m131.75 90.18c1.802 1.802 1.802 4.724 0 6.526-1.802 1.801-4.724 1.801-6.526 0-.641-.641-1.492-.994-2.395-.994-.904 0-1.754.353-2.395.994-1.802 1.801-4.724 1.801-6.526 0-1.802-1.802-1.802-4.724 0-6.526 2.384-2.384 5.552-3.697 8.921-3.697s6.536 1.313 8.921 3.697zm57.46 0c-2.384-2.384-5.552-3.697-8.921-3.697s-6.537 1.313-8.921 3.697c-1.802 1.802-1.802 4.724 0 6.526 1.802 1.801 4.724 1.801 6.526 0 .641-.641 1.491-.994 2.395-.994s1.754.353 2.395.994c1.802 1.801 4.724 1.801 6.526 0 1.802-1.802 1.802-4.724 0-6.526zm-30.041 46.42c-2.255 2.254-5.249 3.496-8.431 3.496-3.183 0-6.176-1.242-8.43-3.496-1.563-1.563-4.095-1.562-5.657-.001-1.563 1.563-1.563 4.095-.001 5.657 3.766 3.766 8.769 5.84 14.088 5.84 5.318 0 10.321-2.074 14.087-5.84 1.563-1.562 1.563-4.095 0-5.656-1.561-1.562-4.096-1.562-5.656 0z" fill="#954d3b"/><path d="m125.847 79.134c-1.667-1.667-4.37-1.667-6.037 0-1.667 1.667-4.37 1.667-6.036 0l-1.768-1.768c-2.689-2.689-.785-7.287 3.018-7.287h15.608c3.803 0 5.707 4.598 3.018 7.287l-1.768 1.768c-1.666 1.667-4.368 1.667-6.035 0zm62.247-9.055h-15.609c-3.803 0-5.707 4.598-3.018 7.287l1.768 1.768c1.667 1.667 4.37 1.667 6.036 0 1.667-1.667 4.37-1.667 6.036 0 1.667 1.667 4.37 1.667 6.037 0l1.768-1.768c2.689-2.689.784-7.287-3.018-7.287zm-18.391 59.097h-37.931c-5.121 0-7.686 6.192-4.065 9.813 3.589 3.589 9.408 3.589 12.997 0l1.767-1.767 1.767 1.767c3.589 3.589 9.408 3.589 12.997 0l1.767-1.767 1.767 1.767c3.589 3.589 9.408 3.589 12.997 0 3.624-3.621 1.059-9.813-4.063-9.813z" fill="#87a0af"/><path d="m98.625 23.483 3.125-2.75c11.106-5.44 20.809-8.6 33.16-7.962 18.293.945 38.449-.89 45.322-6.769 1.29-1.103 3.273-.285 3.344 1.411.083 1.987-.205 3.9-.894 5.708-4.992 13.1-49.807 33.362-84.057 10.362z" fill="#738c96"/><path d="m201.401 236.606v92.289h-148.283v-92.289c0-23.786 19.282-43.068 43.068-43.068h22.098c1.568-4.992 6.232-8.614 11.741-8.614h12.305c5.51 0 10.173 3.621 11.741 8.614h4.262c23.786 0 43.068 19.282 43.068 43.068z" fill="#962437"/><path d="m250 236.606v228.894h-80l-98.424-100v-128.894c0-23.786 19.282-43.068 43.068-43.068h34.403c1.568-4.992 6.232-8.614 11.741-8.614h12.305c5.51 0 10.173 3.621 11.741 8.614h22.098c23.786 0 43.068 19.282 43.068 43.068z" fill="#c92e43"/><path d="m203.856 314.128v-61.526c0-3.398 2.755-6.153 6.153-6.153s6.153 2.755 6.153 6.153v61.526c0 3.398-2.755 6.153-6.153 6.153s-6.153-2.755-6.153-6.153zm-105.415 70.113v14.979c0 36.605 29.674 66.279 66.279 66.279h85.28v-81.259h-151.559z" fill="#962437"/><path d="m132.93 344.394c-9.006 2.302-18.618 3.546-28.599 3.546h-11.779c-51.115 0-92.552-32.632-92.552-72.884 0-40.253 41.437-72.884 92.552-72.884h11.779c9.981 0 19.593 1.244 28.599 3.546-37.118 9.488-63.953 36.945-63.953 69.338 0 32.393 26.835 59.85 63.953 69.338z" fill="#533022"/><path d="m196.882 275.055c0 36.338-33.768 66.465-77.941 71.981-44.173-5.516-77.941-35.643-77.941-71.98 0-36.338 33.768-66.465 77.941-71.981 44.173 5.516 77.941 35.643 77.941 71.98z" fill="#7d402d"/><path d="m30.763 295.703c-8.495 0-15.381-6.887-15.381-15.381v-6.153c0-8.495 6.886-15.381 15.381-15.381 8.495 0 15.381 6.887 15.381 15.381v6.153c0 8.495-6.886 15.381-15.381 15.381z" fill="#eabe8d"/><path d="m24.61 271.093v12.305c0 5.032 2.416 9.499 6.151 12.305-8.494-.001-15.38-6.887-15.38-15.381v-6.153c0-8.494 6.886-15.381 15.38-15.381-3.735 2.806-6.151 7.274-6.151 12.305zm141.51-12.305v-12.305c0-37.378-30.301-67.678-67.678-67.678-37.378 0-67.678 30.301-67.678 67.678v24.61c0 30.979 20.814 57.096 49.221 65.13v23.467c0 10.194 8.264 18.458 18.458 18.458 10.194 0 18.458-8.264 18.458-18.458v-23.467c20.664-5.844 37.31-21.258 44.849-41.15 1.386.41 2.853.63 4.371.63 8.495 0 15.381-6.887 15.381-15.381v-6.153c-.001-8.494-6.888-15.381-15.382-15.381z" fill="#e3ac6e"/><path d="m166.119 246.483v24.61c0 31.25-21.18 57.553-49.969 65.337-5.551 1.501-11.41 1.501-16.961 0-28.788-7.784-49.969-34.087-49.969-65.337v-24.61c0-34.247 25.438-62.553 58.449-67.054 33.013 4.501 58.45 32.807 58.45 67.054z" fill="#eabe8d"/><path d="m107.362 275.235c-2.384 2.384-5.552 3.697-8.921 3.697s-6.537-1.313-8.921-3.697c-1.802-1.802-1.802-4.724 0-6.526 1.802-1.801 4.724-1.801 6.526 0 .641.641 1.492.994 2.395.994.904 0 1.754-.353 2.395-.994 1.802-1.801 4.724-1.801 6.526 0 1.802 1.802 1.802 4.723 0 6.526z" fill="#d89c56"/><path d="m78.632 250.18c1.802 1.802 1.802 4.724 0 6.526-1.802 1.801-4.724 1.801-6.526 0-.641-.641-1.492-.994-2.395-.994-.904 0-1.754.353-2.395.994-1.802 1.801-4.724 1.801-6.526 0-1.802-1.802-1.802-4.724 0-6.526 2.384-2.384 5.552-3.697 8.921-3.697 3.368 0 6.537 1.313 8.921 3.697zm57.46 0c-2.384-2.384-5.552-3.697-8.921-3.697s-6.537 1.313-8.921 3.697c-1.802 1.802-1.802 4.724 0 6.526 1.802 1.801 4.724 1.801 6.526 0 .641-.641 1.492-.994 2.395-.994s1.754.353 2.395.994c1.802 1.801 4.724 1.801 6.526 0 1.803-1.802 1.803-4.724 0-6.526z" fill="#954d3b"/><path d="m185.512 247.378c-26.581 5.719-52.603.266-70.21-17.342-5.165-5.165-9.284-11.054-12.382-17.469-1.792-3.71-7.166-3.71-8.958 0-3.098 6.415-7.217 12.304-12.382 17.469-9.156 9.156-20.587 15.025-33.189 17.746-21.997 4.749-40.347-17.327-31.248-37.91 3.536-7.998 8.581-15.49 15.135-22.045l6.56-6.559c16.286-16.287 38.363-23.254 59.603-20.902 21.24-2.352 43.317 4.615 59.603 20.902l6.56 6.559c16.272 16.274 23.241 38.327 20.908 59.551z" fill="#7d402d"/><path d="m98.441 318.776c-10.194 0-18.458-8.264-18.458-18.458 0-2.548 2.066-4.614 4.614-4.614h27.687c2.548 0 4.614 2.066 4.614 4.614.001 10.194-8.263 18.458-18.457 18.458z" fill="#d27d69"/><path d="m103.056 318.194c-1.475.38-3.021.582-4.614.582-10.194 0-18.458-8.264-18.458-18.458 0-2.548 2.066-4.614 4.614-4.614h9.229c-2.549 0-4.614 2.066-4.614 4.614-.001 8.6 5.882 15.827 13.843 17.876z" fill="#b66e56"/><path d="m49.221 247.598c-11.86 2.702-24.788 2.59-37.85-.22-2.334-21.224 4.635-43.277 20.908-59.55l6.56-6.559c16.286-16.287 38.363-23.254 59.603-20.902 15.74-1.743 31.938 1.632 45.899 10.123-18.507-2.458-38.507 2.161-64.252 19.192-18.591 12.298-30.867 34.193-30.867 56.801v1.115z" fill="#533022"/><path d="m196.882 396.605v20.071c0-23.786-19.282-43.068-43.068-43.068h-110.746c-1.633 0-3.245.091-4.832.269-3.072-5.941-5.909-12.025-8.497-18.237 4.197-1.365 8.677-2.103 13.329-2.103h22.098c1.568-4.992 6.232-8.614 11.741-8.614h12.305c5.51 0 10.173 3.621 11.741 8.614h52.86c23.787.001 43.069 19.283 43.069 43.068z" fill="#ea5569"/><path d="m196.882 396.606v67.439c0 18.259-18.599 30.594-35.441 23.541-29.761-12.462-56.54-30.629-78.97-53.133-1.283-1.287.345-5.825-.909-7.14-1.435-1.505-5.749.208-7.146-1.334-16.63-18.348-30.517-39.227-41.015-61.991 7.546-6.512 17.375-10.45 28.124-10.45h34.403c1.568-4.992 6.232-8.614 11.741-8.614h12.305c5.51 0 10.173 3.621 11.741 8.614h22.098c23.787 0 43.069 19.282 43.069 43.068z" fill="#fd7a7a"/><path d="m163.043 412.602v75.648c-4.16-1.708-8.263-3.526-12.305-5.452v-70.196c0-3.398 2.755-6.152 6.153-6.152s6.152 2.754 6.152 6.152z" fill="#ea5569"/><path d="m107.055 357.229v36.112l.008-.008v16.532l-24.589 24.589c-2.752-2.761-5.438-5.587-8.056-8.476l20.948-20.948v-47.802c0-6.796 5.509-12.305 12.305-12.305h11.69c-6.797.001-12.306 5.51-12.306 12.306z" fill="#f3d373"/><path d="m120 380.5c0 2.761-4.477 5-10 5-3.552 0-6.671-.926-8.445-2.322-1.774 1.396-4.893 2.322-8.445 2.322-5.523 0-10-2.239-10-5s4.477-5 10-5c3.552 0 6.671.926 8.445 2.322 1.774-1.396 4.893-2.322 8.445-2.322 5.523 0 10 2.239 10 5z" fill="#f7e6b0"/><path d="m437.864 303.801c-1.418.082-2.846.124-4.285.124h-9.276c-40.253 0-72.884-32.631-72.884-72.884 0-40.253 32.631-72.884 72.884-72.884h9.276c1.439 0 2.867.042 4.285.124-38.258 2.218-68.599 33.946-68.599 72.76-.001 38.814 30.34 70.542 68.599 72.76z" fill="#533022"/><path d="m506.463 231.041c0 36.955-27.503 67.486-63.157 72.241-35.654-4.755-63.157-35.286-63.157-72.241 0-36.955 27.503-67.486 63.157-72.241 35.653 4.755 63.157 35.286 63.157 72.241z" fill="#7d402d"/><path d="m361.262 281.208c-8.495 0-15.381-6.886-15.381-15.381v-6.153c0-8.495 6.886-15.381 15.381-15.381 8.495 0 15.381 6.886 15.381 15.381v6.153c0 8.495-6.886 15.381-15.381 15.381z" fill="#eabe8d"/><path d="m355.109 256.598v12.305c0 5.032 2.416 9.499 6.151 12.305-8.494-.001-15.38-6.887-15.38-15.381v-6.153c0-8.495 6.886-15.381 15.38-15.381-3.734 2.806-6.151 7.273-6.151 12.305zm141.51-12.305v-12.305c0-37.378-30.301-67.678-67.678-67.678-37.378 0-67.678 30.301-67.678 67.678v24.61c0 30.979 20.814 57.096 49.221 65.13v23.467c0 10.194 8.264 18.458 18.458 18.458 10.194 0 18.458-8.264 18.458-18.458v-23.467c20.664-5.844 37.31-21.258 44.849-41.15 1.385.41 2.853.63 4.371.63 8.495 0 15.381-6.886 15.381-15.381v-6.153c-.001-8.495-6.887-15.381-15.382-15.381z" fill="#e3ac6e"/><path d="m496.619 231.987v24.61c0 31.25-21.18 57.553-49.969 65.337-5.551 1.501-11.41 1.501-16.961 0-28.788-7.784-49.969-34.087-49.969-65.337v-24.61c0-34.247 25.438-62.553 58.449-67.054 33.012 4.502 58.45 32.807 58.45 67.054z" fill="#eabe8d"/><path d="m437.861 260.739c-2.384 2.384-5.552 3.697-8.921 3.697s-6.537-1.313-8.921-3.697c-1.802-1.802-1.802-4.724 0-6.526 1.802-1.801 4.724-1.801 6.526 0 .641.641 1.491.994 2.395.994s1.754-.353 2.395-.994c1.802-1.801 4.724-1.801 6.526 0 1.803 1.803 1.803 4.724 0 6.526z" fill="#d89c56"/><path d="m409.131 235.684c1.802 1.803 1.802 4.724 0 6.526-1.802 1.801-4.724 1.801-6.526 0-.641-.641-1.491-.994-2.395-.994s-1.754.353-2.395.994c-1.802 1.801-4.724 1.801-6.526 0-1.802-1.802-1.802-4.724 0-6.526 2.384-2.384 5.552-3.697 8.921-3.697s6.537 1.313 8.921 3.697zm57.461 0c-2.384-2.384-5.552-3.697-8.921-3.697s-6.537 1.313-8.921 3.697c-1.802 1.803-1.802 4.724 0 6.526 1.802 1.801 4.724 1.801 6.526 0 .641-.641 1.492-.994 2.395-.994s1.754.353 2.395.994c1.802 1.801 4.724 1.801 6.526 0 1.802-1.802 1.802-4.723 0-6.526z" fill="#954d3b"/><path d="m474.372 203.764c-.959-.96-1.895-1.934-2.808-2.923-17.651 13.843-39.457 22.023-63.056 22.023-9.634 0-18.97-1.363-27.846-3.919-16.062-4.624-21.697-24.284-10.503-36.697 13.34-14.793 32.656-24.092 54.143-24.092h9.276c22.18 0 42.045 9.907 55.413 25.538 9.72 11.366 16.005 25.758 17.245 41.567-11.642-4.942-22.469-12.102-31.864-21.497z" fill="#7d402d"/><path d="m380.959 219.03c-9.11-2.593-17.74-6.439-25.714-11.357 9.739-28.791 36.978-49.516 69.058-49.516h9.276c4.51 0 8.925.41 13.208 1.194-34.154 7.925-60.653 32.995-65.827 59.677-.001 0-.001.001-.001.002z" fill="#533022"/><path d="m428.94 304.28c-10.194 0-18.458-8.264-18.458-18.458 0-2.548 2.066-4.614 4.614-4.614h27.687c2.548 0 4.614 2.066 4.614 4.614.001 10.194-8.263 18.458-18.457 18.458z" fill="#d27d69"/><path d="m433.555 303.699c-1.475.38-3.021.582-4.614.582-10.194 0-18.458-8.264-18.458-18.458 0-2.548 2.066-4.614 4.614-4.614h9.229c-2.549 0-4.614 2.066-4.614 4.614-.001 8.6 5.882 15.827 13.843 17.876z" fill="#b66e56"/><path d="m432.017 342.734v18.458h-36.916s-26.659 2.94-26.659 20.919v97.12c-3.938 2.038-7.939 3.972-11.998 5.799-12.174 5.479-25.945-3.504-25.945-16.854v-86.066c0-23.786 19.282-43.068 43.068-43.068h22.098c1.568-4.992 6.232-8.613 11.741-8.613h12.305c6.796 0 12.306 5.509 12.306 12.305z" fill="#962437"/><path d="m488.411 339.235c-10.863 32.493-28.35 61.952-50.857 86.776-.847.934-2.443-1.015-3.304-.095-2.045 2.187-3.96 3.972-6.083 6.083-.951.946-1.336 5.124-2.303 6.054-20.166 19.407-43.65 35.391-69.515 47.019-3.467 1.559-7.392-.951-7.392-4.753v-98.21c0-23.786 19.282-43.068 43.068-43.068h34.403c1.568-4.992 6.232-8.613 11.741-8.613h12.305c5.51 0 10.173 3.621 11.741 8.613h22.098c1.382.001 2.749.067 4.098.194z" fill="#c92e43"/><path d="m376.644 398.107v76.68c-4.032 2.285-8.135 4.459-12.305 6.519v-83.199c0-3.398 2.754-6.153 6.152-6.153s6.153 2.755 6.153 6.153z" fill="#962437"/><path d="m449.859 330.429c-6.796 0-12.305 5.509-12.305 12.305v83.277c-3.759 4.146-7.658 8.163-11.69 12.042v-95.32c0-6.796 5.509-12.305 12.305-12.305h11.69z" fill="#fc9302"/><path d="m422.017 360.5c0-2.761 2.239-5 5-5h10c2.761 0 5 2.239 5 5s-2.239 5-5 5h-10c-2.762 0-5-2.239-5-5zm15 20h-10c-2.761 0-5 2.239-5 5s2.239 5 5 5h10c2.761 0 5-2.239 5-5s-2.239-5-5-5zm0 25h-10c-2.761 0-5 2.239-5 5s2.239 5 5 5h10c2.761 0 5-2.239 5-5s-2.239-5-5-5z" fill="#fdbf43"/><path d="m336.726 346.155c0 40.253-32.631 72.884-72.884 72.884h-9.276c-40.253 0-72.884-32.631-72.884-72.884 0-40.253 32.631-72.884 72.884-72.884h9.276c40.253-.001 72.884 32.631 72.884 72.884z" fill="#013f69"/><path d="m273.01 418.468c-3.003.377-6.063.572-9.168.572h-9.276c-40.253 0-72.884-32.632-72.884-72.885 0-40.253 32.631-72.884 72.884-72.884h9.276c3.105 0 6.165.194 9.168.571-35.925 4.509-63.716 35.165-63.716 72.313 0 37.147 27.791 67.804 63.716 72.313z" fill="#012d4e"/><path d="m191.526 391.954c-8.495 0-15.381-6.887-15.381-15.381v-6.153c0-8.495 6.886-15.381 15.381-15.381 8.495 0 15.381 6.886 15.381 15.381v6.153c0 8.495-6.886 15.381-15.381 15.381z" fill="#f3d6ac"/><path d="m185.373 367.344v12.305c0 5.032 2.416 9.499 6.151 12.305-8.494-.001-15.38-6.887-15.38-15.382v-6.152c0-8.495 6.886-15.381 15.38-15.382-3.735 2.807-6.151 7.274-6.151 12.306zm141.509-12.305v-12.305c0-37.378-30.301-67.678-67.678-67.678-37.378 0-67.678 30.301-67.678 67.678v24.61c0 30.979 20.814 57.096 49.221 65.131v23.467c0 10.194 8.264 18.458 18.458 18.458s18.458-8.264 18.458-18.458v-23.467c20.664-5.844 37.31-21.258 44.849-41.15 1.385.41 2.853.63 4.371.63 8.495 0 15.381-6.886 15.381-15.382v-6.152c0-8.496-6.887-15.382-15.382-15.382z" fill="#eabe8d"/><path d="m326.882 342.734v24.61c0 31.25-21.18 57.553-49.969 65.337-5.551 1.501-11.41 1.501-16.961 0-28.788-7.784-49.969-34.087-49.969-65.337v-24.61c0-34.247 25.438-62.553 58.449-67.054 33.013 4.501 58.45 32.807 58.45 67.054z" fill="#f3d6ac"/><path d="m268.125 371.486c-2.384 2.384-5.552 3.697-8.921 3.697s-6.537-1.313-8.921-3.697c-1.802-1.802-1.802-4.724 0-6.526 1.802-1.801 4.724-1.801 6.526 0 .641.641 1.492.994 2.395.994.904 0 1.754-.353 2.395-.994 1.802-1.801 4.724-1.801 6.526 0 1.802 1.802 1.802 4.723 0 6.526z" fill="#e3ac6e"/><path d="m239.395 346.431c1.802 1.802 1.802 4.724 0 6.526-1.802 1.801-4.724 1.801-6.526 0-.641-.641-1.491-.994-2.395-.994s-1.754.353-2.395.994c-1.802 1.801-4.724 1.801-6.526 0-1.802-1.802-1.802-4.724 0-6.526 2.384-2.384 5.552-3.697 8.921-3.697s6.536 1.313 8.921 3.697zm57.46 0c-2.384-2.384-5.552-3.697-8.921-3.697s-6.537 1.313-8.921 3.697c-1.802 1.802-1.802 4.724 0 6.526 1.802 1.801 4.724 1.801 6.526 0 .641-.641 1.492-.994 2.395-.994.904 0 1.754.353 2.395.994 1.802 1.801 4.724 1.801 6.526 0 1.802-1.802 1.802-4.724 0-6.526z" fill="#533022"/><path d="m197.258 301.117c13.345-16.958 34.055-27.847 57.308-27.847h9.276c4.396 0 8.702.39 12.883 1.135-.179.032-.359.065-.537.098-14.942 2.782-46.348 35.902-58.508 46.103-1.012.849-2.499.853-3.501-.008-6.333-5.442-12.031-12.01-16.921-19.481z" fill="#012d4e"/><path d="m258.826 337.978c-16.683 0-32.178-6.529-45.026-17.707v-.001c7.374-20.964 28.4-40.516 50.868-46.995 22.677.252 42.869 10.861 56.066 27.319-14.751 22.839-37.008 37.384-61.908 37.384z" fill="#013f69"/><path d="m259.204 415.026c-10.194 0-18.458-8.264-18.458-18.458 0-2.548 2.066-4.614 4.614-4.614h27.687c2.548 0 4.614 2.066 4.614 4.614.001 10.195-8.263 18.458-18.457 18.458z" fill="#dd9683"/><path d="m263.818 414.445c-1.475.38-3.021.582-4.614.582-10.194 0-18.458-8.264-18.458-18.458 0-2.548 2.066-4.614 4.614-4.614h9.229c-2.549 0-4.614 2.066-4.614 4.614 0 8.6 5.883 15.827 13.843 17.876z" fill="#d27d69"/><path d="m315.207 449.793c27.187.39 29.35 40.3 2.38 43.751-48.632 6.223-120.496 6.576-138.367.684-6.151-2.028-12.195-4.294-18.12-6.785 2.663-21.23 20.778-37.654 42.73-37.654h22.098c1.568-4.992 6.232-8.614 11.741-8.614h12.305c5.51 0 10.173 3.622 11.741 8.614h52.861c.212 0 .422.001.631.004z" fill="#c92e43"/><path d="m356.897 484.825c-29.142 13.187-61.325 20.838-95.207 21.61-1.891.043-3.788-2.81-5.69-2.81-2.006 0-4.005 2.851-5.999 2.803-24.67-.593-48.436-4.833-70.78-12.2v-1.372c0-23.786 19.282-43.068 43.068-43.068h34.403c1.568-4.992 6.232-8.614 11.741-8.614h12.305c5.51 0 10.173 3.622 11.741 8.614h22.098c21.041.001 38.558 15.09 42.32 35.037z" fill="#fd4343"/><path d="m273.995 441.175c-6.796 0-12.305 5.509-12.305 12.305v52.955c-1.892.043-3.788.065-5.69.065-2.006 0-4.006-.024-6-.072v-52.948c0-6.796 5.509-12.305 12.305-12.305z" fill="#fdbf43"/><path d="m246.128 470.5c0-2.761 2.239-5 5-5h10c2.761 0 5 2.239 5 5s-2.239 5-5 5h-10c-2.762 0-5-2.239-5-5zm15 15h-10c-2.761 0-5 2.239-5 5s2.239 5 5 5h10c2.761 0 5-2.239 5-5s-2.239-5-5-5z" fill="#fdd78d"/></g></svg>