<svg height="512" viewBox="0 0 512 512" width="512" xmlns="http://www.w3.org/2000/svg"><g id="_26_Lesson" data-name="26 Lesson"><g id="_26_Lesson-2" data-name="26 Lesson"><g id="Lesson"><path d="m256 392a7.5 7.5 0 0 0 -7.5 7.5v55.5h15v-55.5a7.5 7.5 0 0 0 -7.5-7.5z" fill="#e7a976"/><path d="m27.5 30v362a7.5 7.5 0 0 0 7.5 7.5h442a7.5 7.5 0 0 0 7.5-7.5v-362z" fill="#f1e3b7"/><path d="m454.76 151.09-48.76-67.49a102.55 102.55 0 0 0 -52-14.1h-326.5v295.5h237.05c106.29 0 192.45-86.16 192.45-192.45a104 104 0 0 0 -2.24-21.46z" fill="#f7e9bf"/><path d="m316 129.71-7.23-10.66-11 3.1a76.56 76.56 0 0 0 -20-2.65h-206.77l-7.5 7.66-7.5-9.78a46.48 46.48 0 0 1 -28.5-25.33v250.2h166.89l18.61 7.15 7.65-7.66a146 146 0 0 0 115.29-74.22l11 .16v-25.06a145.82 145.82 0 0 0 7.53-46.39 76.68 76.68 0 0 0 -38.47-66.52z" fill="#f8f7ce"/><path d="m56 77v40.38l6.86 3.93 8.14-1.81v-42.5a7.5 7.5 0 0 0 -15 0z" fill="#6865ad"/><path d="m63.5 154.5h35a7.5 7.5 0 0 0 0-15h-27.5v-20h-1.13a46.45 46.45 0 0 1 -13.87-2.12v29.62a7.5 7.5 0 0 0 7.5 7.5z" fill="#8684bd"/><path d="m126 77v42.5l8.35 3.36 6.65-3.36h27.5a7.5 7.5 0 0 0 0-15h-27.5v-20h27.5a7.5 7.5 0 0 0 0-15h-35a7.5 7.5 0 0 0 -7.5 7.5z" fill="#6865ad"/><path d="m133.5 154.5h35a7.5 7.5 0 0 0 0-15h-27.5v-20h-15v27.5a7.5 7.5 0 0 0 7.5 7.5z" fill="#8684bd"/><path d="m231 129.5a10 10 0 0 1 -19 4.28 7.5 7.5 0 0 0 -13.55 6.44 25 25 0 0 0 45.48-20.72l-10-2.24-12.93 2.24a10 10 0 0 1 10 10z" fill="#8684bd"/><path d="m196 94.5a25 25 0 0 0 25 25h22.91a25 25 0 0 0 -22.91-15 10 10 0 1 1 9-14.28 7.5 7.5 0 0 0 13.55-6.44 25 25 0 0 0 -47.55 10.72z" fill="#6865ad"/><path d="m266 94.5a25 25 0 0 0 25 25 9.94 9.94 0 0 1 6.75 2.65l9.33 6.33 8.91 1.23a1.48 1.48 0 0 0 0-.21 25 25 0 0 0 -25-25 10 10 0 1 1 9-14.28 7.5 7.5 0 0 0 13.55-6.44 25 25 0 0 0 -47.54 10.72z" fill="#6865ad"/><path d="m301 129.5a10 10 0 0 1 -19 4.28 7.5 7.5 0 0 0 -13.55 6.44 25 25 0 0 0 47.55-10.51 75.88 75.88 0 0 0 -18.24-7.56 10 10 0 0 1 3.24 7.35z" fill="#8684bd"/><path d="m361 155a25 25 0 0 0 25-25v-35a25 25 0 0 0 -50 0v35a25 25 0 0 0 25 25zm-10-60a10 10 0 0 1 20 0v35a10 10 0 0 1 -20 0z" fill="#6865ad"/><path d="m454.76 151.09a7.52 7.52 0 0 0 1.24-4.09v-70a7.5 7.5 0 0 0 -15 0v38.23l-20.79-41.58a7.5 7.5 0 0 0 -14.21 3.35v6.6c25 19.32 48.76 67.49 48.76 67.49z" fill="#423f99"/><path d="m413.5 154.5a7.5 7.5 0 0 0 7.5-7.5v-38.23l20.79 41.58a7.5 7.5 0 0 0 6.71 4.15 7.21 7.21 0 0 0 1.72-.2 7.49 7.49 0 0 0 4.54-3.21 103.22 103.22 0 0 0 -48.76-67.49v63.4a7.5 7.5 0 0 0 7.5 7.5z" fill="#6865ad"/><path d="m266 225h-23.32a7.51 7.51 0 0 0 -6.38 3.56l-15 24.34a4 4 0 0 0 3.4 6.1h6.3a7.5 7.5 0 0 1 7.5 7.5v41a7.5 7.5 0 0 0 7.5 7.5h20a7.5 7.5 0 0 0 7.5-7.5v-75a7.5 7.5 0 0 0 -7.5-7.5z" fill="#6865ad"/><path d="m351 270a94.6 94.6 0 0 0 -4-27.38l-8.21 5.5-2.82 19.4c0 .82.06 1.65.06 2.48a80 80 0 0 1 -115.35 71.74l-15.9-3.44-10.36 3.95a94.95 94.95 0 0 0 156.58-72.25z" fill="#facf23"/><path d="m220.65 341.74a80 80 0 1 1 115.29-74.22 145.78 145.78 0 0 0 11-24.9 95 95 0 1 0 -152.58 99.63h14.09c4.13 0 8.19-.18 12.2-.51z" fill="#fae77d"/><path d="m487 7.5-479.5 17.5a17.51 17.51 0 0 0 17.5 17.5h462a17.51 17.51 0 0 0 17.5-17.5 17.51 17.51 0 0 0 -17.5-17.5z" fill="#a4735a"/><path d="m487 7.5h-462a17.51 17.51 0 0 0 -17.5 17.5h462a17.51 17.51 0 0 0 17.5-17.5z" fill="#e19354"/><path d="m256 512a32.5 32.5 0 1 1 32.5-32.5 32.54 32.54 0 0 1 -32.5 32.5zm0-50a17.5 17.5 0 1 0 17.5 17.5 17.52 17.52 0 0 0 -17.5-17.5z" fill="#f36e90"/></g></g></g></svg>