<svg id="Layer_1" enable-background="new 0 0 50 50" height="512" viewBox="0 0 50 50" width="512" xmlns="http://www.w3.org/2000/svg"><g><g><g><g><path d="m4.336 46.163c-.128 0-.256-.049-.353-.146-.123-.124-.244-.25-.36-.38-.185-.206-.167-.521.038-.706.206-.186.521-.169.706.038.104.116.212.23.323.341.195.195.195.512 0 .707-.098.097-.226.146-.354.146z" fill="#555"/></g><g><path d="m2.403 43.909c-.168-.306-.321-.623-.459-.948-.108-.254.011-.548.265-.655.582-.248.753.543 1.07 1.121.133.242.045.546-.197.68-.241.131-.546.045-.679-.198zm-.599-2.558c-.23 0-.437-.159-.488-.393-.073-.335-.134-.679-.181-1.029-.037-.274.156-.525.43-.563.274-.035.525.156.562.43.043.323.099.64.166.949.068.311-.17.606-.489.606zm-.304-2.992h-.001c-.276 0-.499-.224-.499-.501 0-.339.011-.684.032-1.032.016-.275.253-.495.528-.47.276.017.486.253.47.528-.02.33-.029.655-.03.976 0 .276-.224.499-.5.499zm.173-3.004c-.272-.044-.458-.301-.414-.573.053-.333.115-.67.186-1.011.055-.271.317-.452.59-.387.27.056.444.32.389.591-.068.325-.127.646-.178.965-.042.262-.286.457-.573.415zm.606-2.95c-.265-.076-.418-.354-.342-.619.093-.324.194-.649.301-.977.085-.263.367-.406.63-.32s.406.368.32.631c-.103.316-.2.631-.29.943-.078.27-.36.418-.619.342zm.934-2.865c-.256-.103-.381-.394-.279-.649.125-.312.255-.626.391-.94.109-.255.404-.372.657-.261.254.109.37.404.261.657-.132.307-.259.611-.38.915-.102.255-.394.381-.65.278zm1.196-2.764c-.247-.123-.348-.423-.224-.67.29-.584.568-1.419 1.141-1.112.244.129.337.432.208.676-.156.295-.308.589-.454.882-.125.25-.428.347-.671.224zm1.412-2.661c-.237-.142-.316-.448-.175-.686.171-.289.348-.579.528-.867.145-.235.455-.307.689-.159.234.146.305.455.159.688-.176.282-.348.564-.516.848-.14.236-.445.317-.685.176zm1.595-2.555c-.227-.156-.285-.468-.129-.695.19-.277.385-.555.583-.831.161-.225.473-.276.698-.114.225.161.276.474.115.698-.194.271-.385.542-.571.813-.157.227-.469.285-.696.129zm1.756-2.449c-.218-.17-.256-.484-.087-.702.207-.265.417-.529.631-.793.174-.214.489-.249.703-.074.215.174.248.488.074.703-.21.26-.417.519-.62.779-.171.22-.486.255-.701.087zm1.899-2.34c-.208-.182-.229-.498-.046-.705.222-.254.448-.507.677-.758.187-.203.503-.218.706-.031.204.187.218.503.031.707-.225.245-.445.492-.663.74-.181.209-.496.23-.705.047zm2.029-2.225c-.197-.193-.2-.511-.007-.707l.716-.718c.197-.194.514-.191.707.006.194.197.191.514-.006.707l-.704.704c-.191.198-.508.201-.706.008zm2.148-2.113c-.186-.204-.171-.521.033-.706.251-.229.502-.455.755-.677.207-.181.524-.161.706.046s.162.523-.045.706c-.248.218-.495.439-.741.663-.204.186-.521.172-.708-.032zm2.264-1.989c-.174-.215-.141-.529.073-.704.264-.214.528-.425.793-.632.217-.17.532-.13.702.087.17.218.131.532-.087.702-.26.203-.519.41-.778.62-.213.174-.528.142-.703-.073zm2.374-1.854c-.161-.225-.11-.537.115-.698.276-.198.552-.392.829-.583.227-.159.538-.101.696.127.157.227.1.539-.128.695-.272.188-.543.379-.814.573-.224.161-.537.11-.698-.114zm2.484-1.704c-.146-.234-.076-.543.159-.69.289-.181.579-.358.868-.529.24-.139.544-.061.685.177.14.237.062.544-.176.685-.283.167-.565.339-.847.516-.233.145-.543.075-.689-.159zm2.589-1.54c-.13-.244-.037-.547.207-.676.301-.16.602-.315.902-.466.25-.126.548-.024.671.222.124.247.024.548-.222.671-.294.148-.588.3-.883.456-.238.128-.544.039-.675-.207zm2.696-1.346c-.11-.253.006-.548.259-.658.314-.137.628-.268.941-.392.256-.103.547.023.65.278.102.257-.023.548-.279.65-.304.122-.608.249-.913.382-.264.111-.551-.013-.658-.26zm15.739-.739c-.277-.151-.563-.288-.859-.411-.255-.107-.375-.4-.269-.655.107-.255.4-.372.654-.269.328.137.646.289.953.456.243.133.332.437.2.679s-.434.331-.679.2zm-12.943-.381c-.086-.262.057-.544.319-.631.327-.106.651-.207.974-.302.27-.077.544.074.621.338.078.265-.073.543-.338.621-.313.093-.628.189-.945.294-.264.085-.545-.057-.631-.32zm2.894-.836c-.057-.27.117-.535.387-.592.339-.071.676-.134 1.01-.188.273-.05.529.142.573.413.044.272-.141.529-.414.573-.318.052-.64.112-.965.18-.257.06-.534-.109-.591-.386zm7.363.239c-.31-.065-.628-.12-.952-.163-.274-.037-.466-.288-.43-.563.037-.273.286-.468.562-.43.35.047.692.105 1.027.177.271.058.443.323.386.593-.055.26-.307.443-.593.386zm-3.893-.25c-.262 0-.482-.204-.499-.47-.016-.275.194-.512.47-.529.348-.021.692-.032 1.03-.034h.003c.275 0 .499.222.5.497.002.276-.22.501-.497.503-.321.002-.646.013-.976.032-.01.001-.02.001-.031.001z" fill="#555"/></g><g><path d="m45.664 4.836c-.129 0-.256-.049-.355-.147-.111-.111-.225-.218-.341-.322-.206-.184-.223-.5-.038-.706s.501-.222.706-.038c.13.116.257.236.382.361.195.195.194.512-.001.707-.098.096-.225.145-.353.145z" fill="#555"/></g></g><g><g><path d="m3.662 5.071c-.206-.184-.225-.5-.041-.706.117-.132.237-.259.361-.383.195-.195.512-.195.707 0s.195.512 0 .707c-.11.11-.217.224-.321.34-.182.206-.498.226-.706.042z" fill="#555"/></g><g><path d="m37.819 49c-.001 0-.002 0-.003 0-.338-.002-.682-.013-1.031-.034-.275-.017-.485-.254-.469-.529.017-.276.259-.482.529-.469.33.019.655.03.976.032.276.002.499.227.497.503-.001.275-.224.497-.499.497zm1.508-.558c-.037-.274.156-.525.43-.563.324-.043.642-.098.952-.163.27-.05.536.116.593.386.057.269-.115.535-.386.593-.334.071-.677.13-1.027.177-.275.036-.526-.156-.562-.43zm-4.586.293c-.334-.054-.67-.116-1.01-.188-.271-.057-.444-.321-.387-.592.056-.269.32-.451.591-.387.325.067.646.128.965.18.273.044.458.301.414.573-.045.281-.313.462-.573.414zm7.525-.931c-.106-.255.014-.548.269-.654.295-.123.582-.26.859-.411.242-.13.545-.043.678.2.132.242.043.546-.2.679-.307.167-.625.319-.953.456-.266.107-.55-.023-.653-.27zm-10.522.248c-.322-.095-.647-.195-.974-.302-.262-.087-.405-.369-.319-.631.086-.263.368-.404.631-.32.317.104.632.201.945.294.265.078.416.356.338.621-.076.26-.349.416-.621.338zm-2.89-1.002c-.313-.124-.627-.255-.941-.392-.253-.11-.37-.405-.259-.658.11-.253.402-.368.658-.26.306.133.61.26.914.382.256.102.381.393.279.649-.102.254-.391.383-.651.279zm-2.786-1.254c-.301-.15-.601-.306-.902-.466-.244-.129-.337-.432-.207-.676.129-.243.432-.339.676-.207.294.156.589.308.883.456.247.123.346.424.222.671-.127.252-.433.344-.672.222zm-2.672-1.463c-.29-.171-.579-.349-.868-.529-.234-.146-.305-.455-.159-.689.146-.233.454-.306.689-.158.282.177.564.349.847.516.238.141.316.447.176.685-.137.232-.442.317-.685.175zm-2.566-1.643c-.277-.19-.553-.385-.829-.583-.225-.161-.276-.474-.115-.698.161-.225.473-.276.698-.114.271.194.542.385.814.573.227.156.284.468.128.695-.158.228-.47.285-.696.127zm-2.452-1.799c-.265-.207-.529-.418-.793-.632-.214-.175-.247-.489-.073-.704.174-.213.488-.247.703-.073.259.21.518.417.778.62.218.17.256.484.087.702-.172.219-.487.254-.702.087zm-2.342-1.942c-.252-.222-.504-.448-.755-.677-.204-.186-.219-.502-.033-.706.187-.205.503-.22.707-.032.246.225.494.445.741.663.208.183.227.499.045.706-.182.208-.498.228-.705.046zm-2.226-2.071-.716-.718c-.193-.196-.19-.514.007-.707.196-.192.514-.192.707.008l.704.704c.197.193.2.51.006.707s-.51.2-.708.006zm-2.108-2.188c-.229-.251-.456-.504-.677-.758-.182-.207-.161-.523.046-.705.208-.183.523-.162.706.047.217.248.438.495.663.74.187.204.173.521-.031.707-.201.185-.519.175-.707-.031zm-1.986-2.307c-.214-.264-.424-.528-.631-.793-.17-.218-.131-.532.087-.702.217-.17.531-.131.702.087.203.261.41.52.62.779.174.215.141.529-.074.703-.212.173-.528.142-.704-.074zm-1.846-2.417c-.198-.276-.393-.554-.583-.831-.156-.227-.099-.539.129-.695s.54-.098.695.129c.186.272.377.543.571.814.161.225.11.537-.115.698-.223.16-.536.109-.697-.115zm-1.696-2.529c-.181-.288-.357-.578-.528-.867-.141-.237-.062-.544.175-.686.24-.139.545-.061.685.176.168.283.34.565.516.848.147.233.075.542-.159.688-.233.146-.543.075-.689-.159zm-1.524-2.639c-.16-.303-.315-.604-.465-.905-.124-.247-.023-.547.224-.67.248-.125.548-.022.671.225.146.293.297.587.454.882.129.244.036.547-.208.676-.242.128-.546.037-.676-.208zm-1.325-2.749c-.136-.315-.266-.629-.391-.941-.103-.256.022-.547.279-.649.253-.104.547.023.65.278.121.304.248.608.38.915.109.253-.007.548-.261.657-.243.108-.544.001-.657-.26zm-1.087-2.86c-.204-.623-.584-1.416.041-1.596.27-.078.543.077.619.342.09.313.187.628.29.943.086.263-.057.545-.32.631-.265.086-.545-.059-.63-.32zm-.794-2.961c-.07-.341-.132-.678-.186-1.011-.044-.272.142-.529.414-.573.271-.04.529.142.573.415.051.319.11.641.178.966.056.271-.118.535-.389.591-.253.057-.532-.108-.59-.388zm.086-2.584c-.263 0-.483-.205-.499-.471-.02-.349-.03-.694-.031-1.032 0-.276.223-.501.499-.501h.001c.276 0 .5.224.5.499.001.321.01.646.03.976.017.275-.194.512-.47.528-.01.001-.02.001-.03.001zm.101-3.006c-.022 0-.044-.001-.066-.004-.274-.037-.466-.288-.43-.563.047-.351.107-.694.181-1.029.058-.271.326-.442.595-.382.27.059.441.325.382.595-.067.31-.123.626-.166.949-.034.251-.249.434-.496.434zm.578-2.945c-.255-.107-.374-.401-.266-.655.139-.325.291-.643.46-.948.132-.241.436-.331.679-.197.242.134.33.438.197.68-.152.276-.29.563-.414.856-.109.255-.404.372-.656.264z" fill="#555"/></g><g><path d="m44.931 46.339c-.185-.206-.167-.521.038-.706.116-.104.23-.211.341-.322.195-.196.512-.195.708-.002.195.195.196.512.001.707-.125.125-.252.245-.382.361-.206.185-.523.167-.706-.038z" fill="#555"/></g></g><g><circle cx="25" cy="24.999" fill="#4fb7e4" r="23.999"/><g><path d="m48.589 29.442c-.15-.354-.317-.7-.5-1.039-.506-.081-1.022.393-.984.904-.679-.531-.708-1.547-.532-2.391.176-.843.494-1.704.294-2.542-.187-.778-.849-1.42-1.633-1.582-.783-.163-1.646.162-2.127.801.05-.066-.067-.453-.082-.539-.036-.197-.078-.392-.127-.586-.095-.379-.214-.753-.356-1.117-.142-.365-.306-.72-.493-1.064-.079-.146-.182-.283-.225-.444-.053-.199-.046-.409-.088-.611-.048-.23-.194-.471-.426-.504-.382-.055-.659.472-1.042.429-.178-.02-.323-.169-.38-.339-.058-.17-.042-.356-.003-.531.06-.271.172-.53.208-.805s-.021-.586-.239-.758c-.167-.131-.392-.155-.586-.243-.316-.144-.546-.459-.883-.543-.398-.099-.824.186-.969.57s-.051.825.154 1.18c.206.355.513.638.819.91.307.272.622.543.853.881.433.636.522 1.438.598 2.204.023.23.037.49-.116.664-.19.216-.54.19-.779.35-.182.121-.278.334-.426.494s-.422.259-.577.104c-.111-.111-.1-.289-.113-.445s-.099-.343-.256-.34c-.11.002-.191.1-.256.188-.126.172-.259.374-.215.583.04.189.213.317.375.424.251.165.507.322.767.472-.046.18.222.302.385.214.163-.089.237-.279.317-.447.138-.29.329-.552.52-.811.091-.124.186-.252.321-.328.134-.076.319-.085.431.021.177.168.06.469-.101.651-.251.284-.578.481-.89.689-.292.195-.537.512-.866.639-.144.056-.301.07-.452.106-.466.109-.896.458-.996.925.147-.022.295-.044.442-.066.025-.004.051-.007.076-.003.092.015.135.134.103.221-.033.087-.116.144-.199.184s-.174.071-.245.13c-.074.058-.123.158-.09.244.038.098.166.135.267.106s.181-.105.256-.179c.19-.186.381-.373.571-.559.073-.072.161-.149.263-.137.148.017.207.221.14.354s-.207.209-.337.282c-.367.205-.714.447-1.033.721-.061.052-.125.111-.141.19-.025.124.074.234.146.338.185.267.216.608.242.931.017.215.034.433.003.646-.031.214-.116.426-.274.574-.591.551-1.902-.59-2.445-.896-.111-.063-.241-.128-.362-.085-.17.06-.203.281-.21.461-.022.576-.071 1.175-.363 1.672s-.896.857-1.447.688c-.317-.097-.426-.247-.75-.229-.34.02-1.924.645-2.501 1.254-.678.718-.851 1.827-.559 2.769.294.944 1.004 1.72 1.845 2.236.588.36 1.278.609 1.961.512.411-.058.808-.265 1.084-.577.227-.256.572-.861.014-.936-.128-.017-.268-.017-.368-.099-.104-.086-.127-.233-.141-.367-.021-.211-.033-.437.075-.62.108-.182.381-.28.537-.137-.031-.105-.062-.214-.049-.324.012-.109.078-.22.184-.25.063-.018.132-.005.197-.015.182-.027.291-.214.358-.385s.133-.364.295-.451c.189-.102.445.004.549.192s.077.428-.021.619-.259.342-.425.48c-.165.138-.34.267-.478.432-.128.152-.225.343-.212.541.012.198.161.395.359.412-.067.377-.362.667-.534 1.01-.274.549-.2 1.254.182 1.733.051.064.109.127.13.206.099.359-.75.832-1.036 1.122-.251.254-.441.608-.374.959.012.063.032.125.026.188-.015.175-.365.2-.504.247-1.464.495-2.523 1.134-3.875 1.799-.193.095-.416.24-.4.454.012.152.152.269.301.304s.303.008.454-.017c1.652-.278 3.349-.291 5.006-.04.085.013.173.027.247.071s.134.124.128.21c-.008.115-.123.236-.051.326.064.081.222.038.271.129.049.09-.067.178-.163.216-.132.052-1.704.643-1.809.739-.067.061-.111.155-.087.242.017.062.065.111.097.167.105.189-.135.296-.257.386-.189.141-.377.281-.566.422s-.377.281-.566.422c-.138.103-.374.365-.539.402 9.278-2.094 16.518-9.563 18.278-18.965zm-4.566-4.011c-.042.091-.134.194-.225.15-.048-.023-.07-.08-.081-.131-.026-.124-.018-.256-.061-.376-.042-.119-.162-.229-.285-.195-.09.024-.179.119-.258.07-.048-.029-.055-.095-.058-.15-.01-.243-.02-.486.009-.729.019-.146.082-.323.23-.338.135-.015.232.119.311.231.265.382.614.626 1.068.509.198-.05.344.02.48.179.103.123.179.268.291.383s.278.2.432.154c.018.09.031.184.005.271-.026.088-.097.168-.187.179-.141.018-.248-.123-.311-.251s-.139-.276-.279-.3c-.097-.015-.194.041-.256.118s-.093.172-.124.265c-.077.236-.155.472-.232.708l-.111-.711c-.015-.098-.054-.221-.154-.231-.098-.01-.161.103-.204.195zm-4.829 5.196c-.133-.02-.227-.15-.251-.283-.025-.131.007-.268.038-.398.052-.217.103-.436.156-.654.1-.418.045-.559-.162-.885-.198-.31-.31-.644-.197-1.011.061-.198.204-.393.409-.423.128-.018.256.032.375.082.294.125.582.259.867.403.147.075.318.214.257.367-.057.14-.248.139-.394.179-.301.081-.477.464-.341.746.052.108.138.195.198.299.06.103.092.238.029.339-.074.118-.235.136-.347.219-.174.13-.189.38-.231.593-.041.214-.191.461-.406.427zm-1.471 3.262c.075-1.062 1.14-.263 1.541-.831.106-.15.107-.348.176-.517.177-.432.913-.729 1.3-.42.22.174.305.5.198.759-.294-.054-.587-.108-.881-.162-.214-.039-.275.02-.305.217-.025.173-.049.345-.075.517-.023.167-.056.35-.185.459-.13.108-.385.06-.397-.108-.3.399-.77.666-1.268.716-.06-.205-.12-.417-.104-.63z" fill="#dbdf2b"/></g><g><g><path d="m4.86 21.639c-1.179.264-1.997 1.337-2.011 2.545-.045 3.872 2.133 7.778 5.594 9.574 1.672.867 3.911 1.188 5.3-.083 1.569-1.436 1.198-3.991 2.063-5.933.32-.716.962-1.419 1.742-1.341.339.033.645.211.969.316 1.638.529 3.387-.861 5.07-.502 1.329.283 2.044 1.547 4.041 1.351.357-.035 3.591-.691 4.128-.876 3.018-1.045 2.405-4.227 1.121-6.098-.759-1.103-1.816-2.569-3.151-2.391-.112.015-.226.042-.336.015-.245-.059-.347-.346-.403-.592-.123-.554-.213-1.128-.483-1.628-.799-1.474-3.036-.796-4.806-1.481-1.612-.622-2.556-2.179-3.599-3.457-.484-.593-2.245-2.951-3.015-1.637-.287.49.1 1.094.111 1.662.015.717-.581 1.306-1.215 1.643s-1.35.523-1.928.948c-.719.528-1.176 1.391-1.976 1.788-.773.384-1.749.268-2.461.755-.722.494-.946 1.441-1.114 2.299-.449-.148-.972-.043-1.328.267-.489.425-.398 1.033-.638 1.575s-.682.94-1.237 1.15c-.144.055-.29.098-.438.131z" fill="#dbdf2b"/></g></g><g><path d="m35.235 8.83c.66.53.3 1.58-.04 2.35-.45 1.03-.79 2.12-1.01 3.23-.14.75.01.92.58 1.24.21.12 1.12-.13.51.68-.24.31-.66.41-1.05.49-.39.07-.78.15-1.16.06s-.74-.38-.78-.77c-.059-1 .318-.443-.51-2-.7-1.25-.94-2.7-1.45-4.04-.32-.83-.75-1.64-1.38-2.28-1.15.5-2.49.42-3.68.04-1.2-.39-2.28-1.05-3.35-1.71.526-.601-.275-1.403-.86-.94.49-1.26.04-2.78-.95-3.68 1.58-.33 3.21-.5 4.89-.5 4.08 0 7.93 1.02 11.29 2.81-.08.15-.15.31-.19.48-.21.82.11 1.66.2 2.5s-.23 1.88-1.06 2.04z" fill="#dbdf2b"/></g><g opacity=".1"><path d="m44.28 39.279c-4.36 5.9-11.38 9.72-19.28 9.72-13.25 0-24-10.75-24-24 0-7.91 3.82-14.92 9.72-19.28-2.97 3.99-4.72 8.93-4.72 14.28 0 13.25 10.75 24 24 24 5.35 0 10.29-1.75 14.28-4.72z" fill="#555"/></g></g><g><g><path d="m45.63 5.029c-.103-.117-.21-.229-.32-.34-.195-.195-.195-.512 0-.707s.512-.195.707 0c.125.124.245.252.362.383.183.207.164.523-.043.706-.205.183-.521.165-.706-.042z" fill="#555"/></g><g><path d="m12.181 49c-.275 0-.499-.222-.5-.497-.001-.276.221-.501.497-.503.321-.002.646-.013.976-.032.276-.013.513.192.529.469.017.275-.193.513-.469.529-.349.021-.692.032-1.031.034 0 0-.001 0-.002 0zm-2.003-.124c-.163 0-.92-.144-1.093-.181-.271-.058-.443-.323-.386-.593s.327-.435.593-.386c.31.066.628.12.952.163.274.037.466.288.43.563-.034.251-.249.434-.496.434zm5.001-.134c-.241 0-.454-.175-.493-.42-.044-.273.141-.529.414-.573.318-.052.64-.112.965-.18.269-.064.535.117.591.387.057.271-.117.535-.387.592-.126.026-.962.194-1.09.194zm-8.099-.669c-.328-.137-.646-.289-.953-.456-.243-.133-.332-.437-.2-.679.132-.243.435-.33.678-.2.277.151.563.288.859.411.255.106.376.399.269.654-.102.248-.386.378-.653.27zm10.555-.359c-.078-.265.073-.543.338-.621.313-.093.628-.189.945-.294.267-.083.546.059.631.32.086.262-.057.544-.319.631-.327.106-.651.207-.974.302-.272.078-.545-.078-.621-.338zm2.861-.943c-.103-.257.022-.548.279-.649.304-.122.608-.249.914-.382.254-.108.548.007.658.26s-.006.548-.259.658c-.314.137-.628.268-.941.392-.261.104-.55-.025-.651-.279zm2.764-1.197c-.124-.247-.024-.548.222-.671.294-.148.588-.3.883-.456.243-.132.545-.037.676.207.13.244.037.547-.207.676-.301.16-.602.315-.902.466-.239.122-.545.03-.672-.222zm2.659-1.418c-.14-.237-.062-.544.176-.685.283-.167.565-.339.847-.516.234-.147.543-.075.689.158.146.234.076.543-.159.689-.289.181-.579.358-.868.529-.243.144-.548.059-.685-.175zm2.556-1.593c-.157-.228-.1-.539.127-.695.272-.188.544-.379.815-.573.224-.162.536-.11.698.114.161.225.11.537-.115.698-.276.198-.552.393-.829.583-.226.157-.539.102-.696-.127zm2.445-1.759c-.17-.218-.131-.532.086-.702.26-.203.52-.41.778-.62.215-.174.53-.14.703.073.174.215.141.529-.073.704-.264.214-.528.425-.793.632-.214.167-.529.132-.701-.087zm2.338-1.901c-.182-.207-.162-.523.045-.706.248-.218.495-.439.741-.663.204-.187.521-.172.707.032s.171.521-.033.706c-.251.229-.502.455-.755.677-.206.182-.522.162-.705-.046zm2.225-2.031c-.194-.197-.191-.514.006-.707l.704-.704c.193-.2.51-.2.707-.008.197.193.2.511.007.707l-.716.718c-.199.194-.515.191-.708-.006zm2.109-2.15c-.204-.187-.218-.503-.031-.707.225-.245.445-.492.663-.74.181-.209.497-.229.706-.047.208.182.229.498.046.705-.222.254-.448.507-.677.758-.189.205-.507.215-.707.031zm1.914-2.968c.21-.26.417-.519.62-.779.169-.218.483-.257.702-.087.218.17.256.484.086.702-.207.265-.417.529-.631.793-.416.513-1.194-.113-.777-.629zm1.926-1.674c-.225-.161-.276-.474-.115-.698.194-.271.385-.542.571-.814.157-.227.469-.285.695-.129.228.156.285.468.129.695-.19.277-.385.555-.583.831-.16.225-.473.276-.697.115zm1.705-2.484c-.234-.146-.305-.455-.159-.688.176-.282.348-.565.516-.848.141-.236.448-.315.685-.176.237.142.316.448.175.686-.171.289-.348.579-.528.867-.146.234-.456.305-.689.159zm1.771-2.533c-.079 0-.159-.018-.233-.059-.244-.129-.337-.432-.208-.676.156-.295.308-.589.454-.882.124-.247.424-.35.671-.225.247.123.348.423.224.67-.149.301-.305.602-.465.905-.091.171-.264.267-.443.267zm1.11-2.753c-.254-.109-.37-.404-.261-.657.132-.307.259-.611.38-.915.103-.256.396-.382.65-.278.256.103.381.394.279.649-.125.312-.255.626-.391.941-.112.26-.414.367-.657.26zm1.114-2.8c-.263-.086-.406-.368-.32-.631.103-.315.2-.631.29-.943.076-.264.351-.419.619-.342.265.076.418.354.342.619-.093.324-.194.649-.301.977-.085.26-.365.405-.63.32zm.833-2.895c-.27-.056-.444-.32-.389-.591.067-.325.126-.646.178-.966.043-.273.298-.455.573-.415.272.044.458.301.415.573-.053.333-.115.67-.186 1.011-.058.28-.335.447-.591.388zm.505-2.971c-.01 0-.02 0-.03-.001-.276-.017-.486-.253-.47-.528.02-.33.03-.655.03-.976 0-.275.224-.499.5-.499h.001c.276 0 .5.225.499.501 0 .339-.011.684-.032 1.032-.015.265-.236.471-.498.471zm-.101-3.006c-.247 0-.461-.183-.495-.434-.043-.323-.099-.64-.166-.949-.059-.269.112-.536.382-.595.267-.061.536.111.595.382.073.335.134.679.181 1.029.037.274-.156.525-.43.563-.023.003-.045.004-.067.004zm-1.233-3.209c-.125-.294-.263-.58-.415-.856-.133-.242-.045-.546.197-.68s.547-.044.679.197c.168.306.321.623.459.948.108.254-.011.548-.265.655-.252.108-.547-.009-.655-.264z" fill="#555"/></g><g><path d="m4.364 46.378c-.131-.117-.258-.237-.383-.362-.195-.195-.194-.512.002-.707.196-.194.512-.195.707.002.11.111.224.218.34.321.206.185.224.5.04.706-.186.207-.501.223-.706.04z" fill="#555"/></g></g><g><g><path d="m45.664 46.163c-.128 0-.256-.049-.354-.146-.195-.195-.195-.512 0-.707.11-.11.218-.224.321-.34.184-.206.501-.223.706-.04.206.184.224.5.04.706-.116.13-.236.257-.36.381-.097.097-.225.146-.353.146z" fill="#555"/></g><g><path d="m46.918 44.106c-.242-.134-.33-.438-.197-.68.152-.276.29-.563.415-.857.108-.254.402-.373.656-.265.254.107.373.401.265.655-.138.325-.291.642-.459.948-.134.245-.439.331-.68.199zm1.171-2.767c-.27-.059-.441-.325-.382-.595.067-.31.123-.626.166-.949.037-.273.289-.465.562-.43.274.037.466.288.43.563-.047.351-.107.694-.181 1.029-.058.269-.324.441-.595.382zm.411-2.98c-.276 0-.5-.224-.5-.499 0-.321-.01-.646-.03-.976-.017-.275.194-.512.47-.528.27-.022.512.194.528.47.021.349.032.694.032 1.032 0 .277-.223.501-.5.501zm-.746-3.419c-.103-.644-.417-1.427.211-1.557.27-.061.535.117.591.388.07.341.132.678.186 1.011.044.272-.142.529-.415.573-.287.042-.53-.153-.573-.415zm-.652-2.877c-.09-.313-.187-.628-.29-.943-.086-.263.057-.545.32-.631.266-.085.545.058.63.32.107.327.208.652.301.977.077.266-.077.543-.342.619-.259.076-.541-.072-.619-.342zm-.965-2.801c-.121-.304-.248-.608-.38-.915-.109-.253.007-.548.261-.657.251-.11.548.007.657.261.136.314.266.629.391.94.103.256-.022.547-.279.649-.256.103-.548-.023-.65-.278zm-1.217-2.71c-.146-.293-.297-.587-.454-.882-.129-.244-.036-.547.208-.676.245-.131.546-.036.676.207.16.303.315.604.465.905.124.247.023.547-.224.67-.243.123-.546.026-.671-.224zm-1.426-2.613c-.167-.283-.34-.565-.516-.848-.146-.233-.075-.542.159-.688.235-.148.543-.076.689.159.181.288.357.578.528.867.141.237.062.544-.175.686-.24.141-.545.06-.685-.176zm-1.605-2.508c-.187-.271-.377-.543-.571-.813-.161-.225-.11-.537.115-.698.224-.162.536-.11.698.114.198.276.393.554.583.831.156.228.099.539-.129.695s-.54.098-.696-.129zm-1.763-2.407c-.203-.261-.41-.52-.62-.779-.174-.215-.141-.529.074-.703.215-.175.529-.14.703.074.214.264.424.528.631.793.17.218.131.532-.086.702-.215.168-.53.133-.702-.087zm-1.902-2.299c-.217-.248-.438-.495-.663-.74-.187-.204-.173-.52.031-.707.203-.186.52-.172.706.031.23.251.456.504.677.758.182.207.161.524-.046.705-.209.182-.524.161-.705-.047zm-2.031-2.187-.704-.704c-.197-.193-.2-.51-.006-.707.192-.197.509-.2.707-.006l.716.718c.193.196.19.514-.007.707s-.514.19-.706-.008zm-2.148-2.073c-.246-.225-.494-.445-.741-.663-.208-.183-.228-.499-.045-.706.182-.207.499-.227.706-.046.252.222.504.448.755.677.204.185.219.502.033.706-.188.204-.505.218-.708.032zm-2.26-1.947c-.259-.21-.518-.417-.778-.62-.218-.17-.256-.484-.086-.702.17-.217.483-.257.702-.087.265.207.529.418.793.632.214.175.248.489.073.704-.176.214-.491.246-.704.073zm-2.369-1.814c-.271-.194-.542-.385-.814-.573-.227-.156-.284-.468-.127-.695.157-.228.467-.286.696-.127.277.191.553.385.829.583.225.161.276.474.115.698-.162.224-.475.275-.699.114zm-2.475-1.66c-.282-.177-.564-.349-.847-.516-.238-.141-.316-.447-.176-.685.141-.237.448-.315.685-.177.29.171.579.349.868.529.234.147.305.455.159.69s-.456.305-.689.159zm-2.576-1.491c-.294-.156-.589-.308-.883-.456-.247-.123-.346-.424-.222-.671s.423-.35.671-.222c.301.15.601.306.902.466.244.129.337.432.207.676-.13.246-.436.335-.675.207zm-2.677-1.293c-.306-.133-.61-.26-.914-.382-.256-.102-.381-.393-.279-.65.103-.256.394-.382.65-.278.313.124.626.255.941.392.253.11.37.405.259.658-.107.247-.394.371-.657.26zm-15.76-1.199c-.132-.242-.043-.546.2-.679.307-.167.624-.32.952-.456.255-.103.547.014.654.269.106.255-.014.548-.269.655-.295.123-.582.26-.859.411-.241.13-.545.044-.678-.2zm12.99.139c-.317-.104-.632-.201-.945-.294-.265-.078-.416-.356-.338-.621.078-.264.354-.416.621-.338.322.095.647.195.974.302.262.087.405.369.319.631-.086.263-.367.405-.631.32zm-2.854-.769c-.325-.067-.647-.128-.965-.18-.273-.044-.458-.301-.414-.573.044-.271.301-.463.573-.413.334.054.67.116 1.01.188.27.057.444.321.387.592-.057.276-.333.445-.591.386zm-7.365-.534c-.057-.27.115-.535.386-.593.334-.071.677-.13 1.027-.177.277-.038.524.156.562.43.037.275-.156.525-.43.563-.324.043-.642.098-.952.163-.286.057-.538-.126-.593-.386zm4.486.136c-.01 0-.02 0-.031-.001-.33-.02-.655-.03-.976-.032-.276-.002-.498-.227-.497-.503.001-.275.225-.497.5-.497h.002c.339.002.683.013 1.032.034.275.017.485.254.469.529-.017.266-.237.47-.499.47z" fill="#555"/></g><g><path d="m4.336 4.836c-.127 0-.255-.049-.353-.145-.195-.196-.196-.512-.002-.708.125-.125.252-.245.383-.362.205-.184.521-.166.706.04.184.206.166.521-.04.706-.116.103-.23.21-.34.321-.097.099-.226.148-.354.148z" fill="#555"/></g></g></g><g fill="#e46047"><path d="m40.317 8.075c-2.722 0-4.928 2.205-4.928 4.928 0 2.082 2.882 6.756 4.238 8.84.325.5 1.055.5 1.38 0 1.356-2.084 4.238-6.758 4.238-8.84 0-2.723-2.206-4.928-4.928-4.928zm0 7.955c-1.67 0-3.027-1.357-3.027-3.027s1.357-3.022 3.027-3.022 3.022 1.352 3.022 3.022-1.353 3.027-3.022 3.027z"/><path d="m10.605 11.988c-2.095 0-3.792 1.697-3.792 3.792 0 1.602 2.218 5.199 3.261 6.803.25.385.812.385 1.062 0 1.044-1.604 3.261-5.201 3.261-6.803 0-2.094-1.697-3.792-3.792-3.792zm0 6.122c-1.285 0-2.329-1.044-2.329-2.329s1.044-2.325 2.329-2.325 2.325 1.04 2.325 2.325-1.04 2.329-2.325 2.329z"/></g></g></svg>